<?xml version="1.0" encoding="UTF-8"?>
<svg xmlns="http://www.w3.org/2000/svg" width="64" height="64" viewBox="-32 -32 64 64">
  <g>
    <path d="M 5.486417660180143e-16 -8.96 L 1.8810574834903343e-15 -30.72 A 30.72 30.72 0 0 1 5.056345813424148 30.30101924053163 L 1.4747675289153765 8.837797278488393 A 8.96 8.96 0 0 0 5.486417660180143e-16 -8.96 Z" fill="#A0AAE5" stroke="#111" stroke-width="1" fill-opacity="0.9"/><path d="M 1.4747675289153765 8.837797278488393 L 5.02262331998614 30.098931416595438 A 30.515117850589803 30.515117850589803 0 0 1 -29.581363359531768 -7.491018570710924 L -8.685826382816401 -2.199549964781558 A 8.96 8.96 0 0 0 1.4747675289153765 8.837797278488393 Z" fill="#7F142A" stroke="#111" stroke-width="1" fill-opacity="0.9"/><path d="M -8.685826382816401 -2.199549964781558 L -28.938917554569944 -7.328329197771876 A 29.85239283643963 29.85239283643963 0 0 1 -5.483795600105275e-15 -29.85239283643963 L -1.6459252980540428e-15 -8.96 A 8.96 8.96 0 0 0 -8.685826382816401 -2.199549964781558 Z" fill="#51BF7E" stroke="#111" stroke-width="1" fill-opacity="0.9"/>
    <circle r="5.76" fill="#fff" stroke="#111" stroke-width="1.5"/>
  </g>
</svg>