<?xml version="1.0" encoding="UTF-8"?>
<svg xmlns="http://www.w3.org/2000/svg" width="64" height="64" viewBox="-32 -32 64 64">
  <g>
    <path d="M 5.486417660180143e-16 -8.96 L 1.8459253653290757e-15 -30.146248969323743 A 30.146248969323743 30.146248969323743 0 0 1 10.310624393219403 28.328207700848317 L 3.064500484197993 8.41964588224174 A 8.96 8.96 0 0 0 5.486417660180143e-16 -8.96 Z" fill="#7F142A" stroke="#111" stroke-width="1" fill-opacity="0.9"/><path d="M 3.064500484197993 8.41964588224174 L 10.506858802964546 28.867357310543102 A 30.72 30.72 0 1 1 -10.506858802964537 -28.867357310543106 L -3.0645004841979904 -8.41964588224174 A 8.96 8.96 0 1 0 3.064500484197993 8.41964588224174 Z" fill="#A0AAE5" stroke="#111" stroke-width="1" fill-opacity="0.9"/><path d="M -3.0645004841979904 -8.41964588224174 L -8.45518523782999 -23.230430518243974 A 24.72130780256132 24.72130780256132 0 0 1 -4.541230570671481e-15 -24.72130780256132 L -1.6459252980540428e-15 -8.96 A 8.96 8.96 0 0 0 -3.0645004841979904 -8.41964588224174 Z" fill="#51BF7E" stroke="#111" stroke-width="1" fill-opacity="0.9"/>
    <circle r="5.76" fill="#fff" stroke="#111" stroke-width="1.5"/>
  </g>
</svg>