<?xml version="1.0" encoding="UTF-8"?>
<svg xmlns="http://www.w3.org/2000/svg" width="64" height="64" viewBox="-32 -32 64 64">
  <g>
    <path d="M 5.486417660180143e-16 -8.96 L 1.8810574834903343e-15 -30.72 A 30.72 30.72 0 0 1 14.222856523609872 27.229189343585094 L 4.148333152719546 7.941846891878987 A 8.96 8.96 0 0 0 5.486417660180143e-16 -8.96 Z" fill="#A0AAE5" stroke="#111" stroke-width="1" fill-opacity="0.9"/><path d="M 4.148333152719546 7.941846891878987 L 10.489356686162282 20.081527140894007 A 22.656 22.656 0 0 1 -11.500469903198244 19.520080122930626 L -4.548208436293091 7.719805698334147 A 8.96 8.96 0 0 0 4.148333152719546 7.941846891878987 Z" fill="#7B86C9" stroke="#111" stroke-width="1" fill-opacity="0.9"/><path d="M -4.548208436293091 7.719805698334147 L -15.427208170690056 26.185046532859825 A 30.391699752890432 30.391699752890432 0 0 1 -24.525368245973297 -17.948864205549192 L -7.230503764864994 -5.291636354311695 A 8.96 8.96 0 0 0 -4.548208436293091 7.719805698334147 Z" fill="#7F142A" stroke="#111" stroke-width="1" fill-opacity="0.9"/><path d="M -7.230503764864994 -5.291636354311695 L -18.282845234015767 -13.380280495902428 A 22.656 22.656 0 0 1 -12.892294484517445 -18.63016583191038 L -5.098647536249838 -7.367862193410886 A 8.96 8.96 0 0 0 -7.230503764864994 -5.291636354311695 Z" fill="#4A0D19" stroke="#111" stroke-width="1" fill-opacity="0.9"/><path d="M -5.098647536249838 -7.367862193410886 L -12.892294484517445 -18.63016583191038 A 22.656 22.656 0 0 1 -7.1070799499442305 -21.512409223169325 L -2.8107095847237074 -8.507732461140412 A 8.96 8.96 0 0 0 -5.098647536249838 -7.367862193410886 Z" fill="#004F61" stroke="#111" stroke-width="1" fill-opacity="0.9"/><path d="M -2.8107095847237074 -8.507732461140412 L -8.448441110958418 -25.572573230755758 A 26.93200064695711 26.93200064695711 0 0 1 -4.205817765220878 -26.601574310056364 L -1.3992323730556862 -8.8500705514811 A 8.96 8.96 0 0 0 -2.8107095847237074 -8.507732461140412 Z" fill="#51BF7E" stroke="#111" stroke-width="1" fill-opacity="0.9"/><path d="M -1.3992323730556862 -8.8500705514811 L -3.538059000440806 -22.378035537316492 A 22.656 22.656 0 0 1 -4.1618396822223646e-15 -22.656 L -1.6459252980540428e-15 -8.96 A 8.96 8.96 0 0 0 -1.3992323730556862 -8.8500705514811 Z" fill="#e0e0e0" stroke="#111" stroke-width="1" fill-opacity="0.9"/>
    <circle r="5.76" fill="#fff" stroke="#111" stroke-width="1.5"/>
  </g>
</svg>