<?xml version="1.0" encoding="UTF-8"?>
<svg xmlns="http://www.w3.org/2000/svg" width="64" height="64" viewBox="-32 -32 64 64">
  <g>
    <path d="M 5.486417660180143e-16 -8.96 L 1.8677948586123434e-15 -30.503404898665885 A 30.503404898665885 30.503404898665885 0 0 1 29.053387219068387 9.292922119055316 L 8.534075141697976 2.729681570413057 A 8.96 8.96 0 0 0 5.486417660180143e-16 -8.96 Z" fill="#A0AAE5" stroke="#111" stroke-width="1" fill-opacity="0.9"/><path d="M 8.534075141697976 2.729681570413057 L 21.579018572579162 6.902194828044443 A 22.656 22.656 0 0 1 5.6544441195064925 21.939042770808815 L 2.236220838222907 8.676457592975238 A 8.96 8.96 0 0 0 8.534075141697976 2.729681570413057 Z" fill="#7B86C9" stroke="#111" stroke-width="1" fill-opacity="0.9"/><path d="M 2.236220838222907 8.676457592975238 L 7.667042873907109 29.747854604486527 A 30.72 30.72 0 0 1 -15.461566251801843 26.545402032011914 L -4.509623490108871 7.742408926003476 A 8.96 8.96 0 0 0 2.236220838222907 8.676457592975238 Z" fill="#7F142A" stroke="#111" stroke-width="1" fill-opacity="0.9"/><path d="M -4.509623490108871 7.742408926003476 L -11.402905110703859 19.577233998608786 A 22.656 22.656 0 0 1 -15.172688178669038 -16.82509641674831 L -6.000498149756117 -6.653992933177298 A 8.96 8.96 0 0 0 -4.509623490108871 7.742408926003476 Z" fill="#4A0D19" stroke="#111" stroke-width="1" fill-opacity="0.9"/><path d="M -6.000498149756117 -6.653992933177298 L -17.55052216717211 -19.461892589481288 A 26.20660396741452 26.20660396741452 0 0 1 -16.63980623966468 -20.24605985892867 L -5.689125691095971 -6.922098588644329 A 8.96 8.96 0 0 0 -6.000498149756117 -6.653992933177298 Z" fill="#51BF7E" stroke="#111" stroke-width="1" fill-opacity="0.9"/><path d="M -5.689125691095971 -6.922098588644329 L -14.385360676056955 -17.503020717000656 A 22.656 22.656 0 0 1 -2.42844099589484e-14 -22.656 L -9.604003938567165e-15 -8.96 A 8.96 8.96 0 0 0 -5.689125691095971 -6.922098588644329 Z" fill="#e0e0e0" stroke="#111" stroke-width="1" fill-opacity="0.9"/>
    <circle r="5.76" fill="#fff" stroke="#111" stroke-width="1.5"/>
  </g>
</svg>