<?xml version="1.0" encoding="UTF-8"?>
<svg xmlns="http://www.w3.org/2000/svg" width="64" height="64" viewBox="-32 -32 64 64">
  <g>
    <path d="M 5.486417660180143e-16 -8.96 L 1.8810574834903343e-15 -30.72 A 30.72 30.72 0 0 1 15.961618945088519 -26.24776410766813 L 4.655472192317485 -7.655597864736539 A 8.96 8.96 0 0 0 5.486417660180143e-16 -8.96 Z" fill="#7F142A" stroke="#111" stroke-width="1" fill-opacity="0.9"/><path d="M 4.655472192317485 -7.655597864736539 L 14.858263749208552 -24.433373787484555 A 28.596464052046407 28.596464052046407 0 0 1 26.94533058701895 -9.57637279121085 L 8.442657862184632 -3.000521325052037 A 8.96 8.96 0 0 0 4.655472192317485 -7.655597864736539 Z" fill="#A0AAE5" stroke="#111" stroke-width="1" fill-opacity="0.9"/><path d="M 8.442657862184632 -3.000521325052037 L 21.347863451523995 -7.5870324933458635 A 22.656 22.656 0 1 1 -22.603183634780855 -1.546100117189967 L -8.939112171947233 -0.6114520237474447 A 8.96 8.96 0 1 0 8.442657862184632 -3.000521325052037 Z" fill="#4A0D19" stroke="#111" stroke-width="1" fill-opacity="0.9"/><path d="M -8.939112171947233 -0.6114520237474447 L -27.761647389761 -1.8989487045819935 A 27.82651742450099 27.82651742450099 0 0 1 -22.733426963147792 -16.047005031696173 L -7.320050241373567 -5.167055686149203 A 8.96 8.96 0 0 0 -8.939112171947233 -0.6114520237474447 Z" fill="#51BF7E" stroke="#111" stroke-width="1" fill-opacity="0.9"/><path d="M -7.320050241373567 -5.167055686149203 L -18.50926989604459 -13.06526937783441 A 22.656 22.656 0 0 1 -2.42844099589484e-14 -22.656 L -9.604003938567165e-15 -8.96 A 8.96 8.96 0 0 0 -7.320050241373567 -5.167055686149203 Z" fill="#e0e0e0" stroke="#111" stroke-width="1" fill-opacity="0.9"/>
    <circle r="5.76" fill="#fff" stroke="#111" stroke-width="1.5"/>
  </g>
</svg>