<?xml version="1.0" encoding="UTF-8"?>
<svg xmlns="http://www.w3.org/2000/svg" width="64" height="64" viewBox="-32 -32 64 64">
  <g>
    <path d="M 5.486417660180143e-16 -8.96 L 1.663639871151203e-15 -27.1693009332894 A 27.1693009332894 27.1693009332894 0 0 1 27.1693009332894 0 L 8.96 0 A 8.96 8.96 0 0 0 5.486417660180143e-16 -8.96 Z" fill="#51BF7E" stroke="#111" stroke-width="1" fill-opacity="0.9"/><path d="M 8.96 0 L 22.656 0 A 22.656 22.656 0 1 1 -22.087966778391394 -5.041434279714256 L -8.735354093149141 -1.9937875682485762 A 8.96 8.96 0 1 0 8.96 0 Z" fill="#4A0D19" stroke="#111" stroke-width="1" fill-opacity="0.9"/><path d="M -8.735354093149141 -1.9937875682485762 L -29.94978546222562 -6.835843091137974 A 30.72 30.72 0 0 1 -5.643172450471003e-15 -30.72 L -1.6459252980540428e-15 -8.96 A 8.96 8.96 0 0 0 -8.735354093149141 -1.9937875682485762 Z" fill="#7F142A" stroke="#111" stroke-width="1" fill-opacity="0.9"/>
    <circle r="5.76" fill="#fff" stroke="#111" stroke-width="1.5"/>
  </g>
</svg>