<?xml version="1.0" encoding="UTF-8"?>
<svg xmlns="http://www.w3.org/2000/svg" width="64" height="64" viewBox="-32 -32 64 64">
  <g>
    <path d="M 5.486417660180143e-16 -8.96 L 1.8776247611275034e-15 -30.663939389459536 A 30.663939389459536 30.663939389459536 0 0 1 26.555750491378248 15.331969694729763 L 7.759587617908571 4.479999999999999 A 8.96 8.96 0 0 0 5.486417660180143e-16 -8.96 Z" fill="#7F142A" stroke="#111" stroke-width="1" fill-opacity="0.9"/><path d="M 7.759587617908571 4.479999999999999 L 26.604300404257955 15.359999999999994 A 30.72 30.72 0 0 1 1.8810574834903343e-15 30.72 L 5.486417660180143e-16 8.96 A 8.96 8.96 0 0 0 7.759587617908571 4.479999999999999 Z" fill="#A0AAE5" stroke="#111" stroke-width="1" fill-opacity="0.9"/><path d="M 5.486417660180143e-16 8.96 L 1.3872798940741216e-15 22.656 A 22.656 22.656 0 0 1 -4.1618396822223646e-15 -22.656 L -1.6459252980540428e-15 -8.96 A 8.96 8.96 0 0 0 5.486417660180143e-16 8.96 Z" fill="#7B86C9" stroke="#111" stroke-width="1" fill-opacity="0.9"/>
    <circle r="5.76" fill="#fff" stroke="#111" stroke-width="1.5"/>
  </g>
</svg>