<?xml version="1.0" encoding="UTF-8"?>
<svg xmlns="http://www.w3.org/2000/svg" width="64" height="64" viewBox="-32 -32 64 64">
  <g>
    <path d="M 5.486417660180143e-16 -8.96 L 1.5618606470859176e-15 -25.50712006389672 A 25.50712006389672 25.50712006389672 0 0 1 3.104245979255002 -25.31752023509257 L 1.0904423511728933 -8.893398421231815 A 8.96 8.96 0 0 0 5.486417660180143e-16 -8.96 Z" fill="#51BF7E" stroke="#111" stroke-width="1" fill-opacity="0.9"/><path d="M 1.0904423511728933 -8.893398421231815 L 3.7386594897356336 -30.491651729937647 A 30.72 30.72 0 1 1 -29.15800391669967 9.67104997369606 L -8.504417809037404 2.820722908994685 A 8.96 8.96 0 1 0 1.0904423511728933 -8.893398421231815 Z" fill="#A0AAE5" stroke="#111" stroke-width="1" fill-opacity="0.9"/><path d="M -8.504417809037404 2.820722908994685 L -21.504027888566007 7.132399355600844 A 22.656 22.656 0 0 1 -20.170934327447274 -10.316382328985732 L -7.977205666222087 -4.079925214853115 A 8.96 8.96 0 0 0 -8.504417809037404 2.820722908994685 Z" fill="#7B86C9" stroke="#111" stroke-width="1" fill-opacity="0.9"/><path d="M -7.977205666222087 -4.079925214853115 L -25.94309027309457 -13.268539459198436 A 29.13928743635026 29.13928743635026 0 0 1 -5.3528002632541535e-15 -29.13928743635026 L -1.6459252980540428e-15 -8.96 A 8.96 8.96 0 0 0 -7.977205666222087 -4.079925214853115 Z" fill="#7F142A" stroke="#111" stroke-width="1" fill-opacity="0.9"/>
    <circle r="5.76" fill="#fff" stroke="#111" stroke-width="1.5"/>
  </g>
</svg>