<?xml version="1.0" encoding="UTF-8"?>
<svg xmlns="http://www.w3.org/2000/svg" width="64" height="64" viewBox="-32 -32 64 64">
  <g>
    <path d="M 5.486417660180143e-16 -8.96 L 1.8810574834903343e-15 -30.72 A 30.72 30.72 0 0 1 17.939592593603187 24.93771075250368 L 5.2323811731342635 7.273498969480241 A 8.96 8.96 0 0 0 5.486417660180143e-16 -8.96 Z" fill="#A0AAE5" stroke="#111" stroke-width="1" fill-opacity="0.9"/><path d="M 5.2323811731342635 7.273498969480241 L 13.23044953778235 18.391561679971463 A 22.656 22.656 0 0 1 -8.577635033843903 20.969466212237585 L -3.3922850416331825 8.293009236478142 A 8.96 8.96 0 0 0 5.2323811731342635 7.273498969480241 Z" fill="#7B86C9" stroke="#111" stroke-width="1" fill-opacity="0.9"/><path d="M -3.3922850416331825 8.293009236478142 L -11.40728627701806 27.887022846675798 A 30.129922393807497 30.129922393807497 0 0 1 -28.985431989468605 -8.22538484453782 L -8.61965282323515 -2.446055029408442 A 8.96 8.96 0 0 0 -3.3922850416331825 8.293009236478142 Z" fill="#7F142A" stroke="#111" stroke-width="1" fill-opacity="0.9"/><path d="M -8.61965282323515 -2.446055029408442 L -21.795407853037446 -6.1850248600756315 A 22.656 22.656 0 0 1 -13.445928691958025 -18.23461920662946 L -5.3175989177235135 -7.211431324655719 A 8.96 8.96 0 0 0 -8.61965282323515 -2.446055029408442 Z" fill="#4A0D19" stroke="#111" stroke-width="1" fill-opacity="0.9"/><path d="M -5.3175989177235135 -7.211431324655719 L -13.445928691958025 -18.23461920662946 A 22.656 22.656 0 0 1 -13.013138715376108 -18.54595796324308 L -5.146439039979253 -7.334559646480315 A 8.96 8.96 0 0 0 -5.3175989177235135 -7.211431324655719 Z" fill="#004F61" stroke="#111" stroke-width="1" fill-opacity="0.9"/><path d="M -5.146439039979253 -7.334559646480315 L -14.87127092654757 -21.19411553938691 A 25.891026099165337 25.891026099165337 0 0 1 -11.740706003186945 -23.075984378014965 L -4.063057423280197 -7.9858101890245115 A 8.96 8.96 0 0 0 -5.146439039979253 -7.334559646480315 Z" fill="#51BF7E" stroke="#111" stroke-width="1" fill-opacity="0.9"/><path d="M -4.063057423280197 -7.9858101890245115 L -10.273730913151354 -20.192691477961976 A 22.656 22.656 0 0 1 -4.1618396822223646e-15 -22.656 L -1.6459252980540428e-15 -8.96 A 8.96 8.96 0 0 0 -4.063057423280197 -7.9858101890245115 Z" fill="#e0e0e0" stroke="#111" stroke-width="1" fill-opacity="0.9"/>
    <circle r="5.76" fill="#fff" stroke="#111" stroke-width="1.5"/>
  </g>
</svg>