<?xml version="1.0" encoding="UTF-8"?>
<svg xmlns="http://www.w3.org/2000/svg" width="64" height="64" viewBox="-32 -32 64 64">
  <g>
    <path d="M 5.486417660180143e-16 -8.96 L 1.6333988704679254e-15 -26.675427912850648 A 26.675427912850648 26.675427912850648 0 0 1 14.135823132683711 -22.622045855650978 L 4.748076607529517 -7.598510941561578 A 8.96 8.96 0 0 0 5.486417660180143e-16 -8.96 Z" fill="#51BF7E" stroke="#111" stroke-width="1" fill-opacity="0.9"/><path d="M 4.748076607529517 -7.598510941561578 L 14.558501870303877 -23.29847323415601 A 27.47305646902662 27.47305646902662 0 0 1 24.692619588001943 -12.043395270128281 L 8.053194654840537 -3.927805475230134 A 8.96 8.96 0 0 0 4.748076607529517 -7.598510941561578 Z" fill="#7F142A" stroke="#111" stroke-width="1" fill-opacity="0.9"/><path d="M 8.053194654840537 -3.927805475230134 L 27.61095310231041 -13.466761629360457 A 30.72 30.72 0 0 1 29.216456180587116 -9.493002067198384 L 8.521466386004576 -2.768792269599529 A 8.96 8.96 0 0 0 8.053194654840537 -3.927805475230134 Z" fill="#A0AAE5" stroke="#111" stroke-width="1" fill-opacity="0.9"/><path d="M 8.521466386004576 -2.768792269599529 L 21.547136433183 -7.001089024558808 A 22.656 22.656 0 1 1 -4.1618396822223646e-15 -22.656 L -1.6459252980540428e-15 -8.96 A 8.96 8.96 0 1 0 8.521466386004576 -2.768792269599529 Z" fill="#7B86C9" stroke="#111" stroke-width="1" fill-opacity="0.9"/>
    <circle r="5.76" fill="#fff" stroke="#111" stroke-width="1.5"/>
  </g>
</svg>