<?xml version="1.0" encoding="UTF-8"?>
<svg xmlns="http://www.w3.org/2000/svg" width="64" height="64" viewBox="-32 -32 64 64">
  <g>
    <path d="M 5.486417660180143e-16 -8.96 L 1.8810574834903343e-15 -30.72 A 30.72 30.72 0 1 1 -22.994250183816217 20.371128061157236 L -6.706656303613064 5.941579017837529 A 8.96 8.96 0 1 0 5.486417660180143e-16 -8.96 Z" fill="#A0AAE5" stroke="#111" stroke-width="1" fill-opacity="0.9"/><path d="M -6.706656303613064 5.941579017837529 L -16.95825951056446 15.023706945103463 A 22.656 22.656 0 0 1 -17.83442893667863 13.972382778272282 L -7.053163986257086 5.52580109875175 A 8.96 8.96 0 0 0 -6.706656303613064 5.941579017837529 Z" fill="#7B86C9" stroke="#111" stroke-width="1" fill-opacity="0.9"/><path d="M -7.053163986257086 5.52580109875175 L -24.11680536196788 18.89431038711238 A 30.6368285870386 30.6368285870386 0 0 1 -5.627894109771442e-15 -30.6368285870386 L -1.6459252980540428e-15 -8.96 A 8.96 8.96 0 0 0 -7.053163986257086 5.52580109875175 Z" fill="#7F142A" stroke="#111" stroke-width="1" fill-opacity="0.9"/>
    <circle r="5.76" fill="#fff" stroke="#111" stroke-width="1.5"/>
  </g>
</svg>