<?xml version="1.0" encoding="UTF-8"?>
<svg xmlns="http://www.w3.org/2000/svg" width="64" height="64" viewBox="-32 -32 64 64">
  <g>
    <path d="M 5.486417660180143e-16 -8.96 L 1.837728363545267e-15 -30.01238177121379 A 30.01238177121379 30.01238177121379 0 0 1 29.879943071195868 -2.8163915997566424 L 8.920461293568552 -0.8408152650524859 A 8.96 8.96 0 0 0 5.486417660180143e-16 -8.96 Z" fill="#7F142A" stroke="#111" stroke-width="1" fill-opacity="0.9"/><path d="M 8.920461293568552 -0.8408152650524859 L 30.58443872080646 -2.8827951944656656 A 30.72 30.72 0 0 1 -30.360895367182245 4.683421025597809 L -8.855261148761489 1.3659977991326946 A 8.96 8.96 0 0 0 8.920461293568552 -0.8408152650524859 Z" fill="#A0AAE5" stroke="#111" stroke-width="1" fill-opacity="0.9"/><path d="M -8.855261148761489 1.3659977991326946 L -22.391160333296906 3.4540230063783843 A 22.656 22.656 0 0 1 -21.351404098933227 -7.57706268972729 L -8.44405811822218 -2.9965784648639002 A 8.96 8.96 0 0 0 -8.855261148761489 1.3659977991326946 Z" fill="#7B86C9" stroke="#111" stroke-width="1" fill-opacity="0.9"/><path d="M -8.44405811822218 -2.9965784648639002 L -21.351404098933227 -7.57706268972729 A 22.656 22.656 0 0 1 -15.384492807612508 -16.631648055815727 L -6.084262692276134 -6.577487931678537 A 8.96 8.96 0 0 0 -8.44405811822218 -2.9965784648639002 Z" fill="#004F61" stroke="#111" stroke-width="1" fill-opacity="0.9"/><path d="M -6.084262692276134 -6.577487931678537 L -15.384492807612508 -16.631648055815727 A 22.656 22.656 0 0 1 -10.850583474849325 -19.888669494345937 L -4.291191204742671 -7.865575506238507 A 8.96 8.96 0 0 0 -6.084262692276134 -6.577487931678537 Z" fill="#4A0D19" stroke="#111" stroke-width="1" fill-opacity="0.9"/><path d="M -4.291191204742671 -7.865575506238507 L -12.892280432802105 -23.63101534131876 A 26.91905980564059 26.91905980564059 0 0 1 -5.171870594705877 -26.417561117015918 L -1.7214553874892258 -8.793076330209145 A 8.96 8.96 0 0 0 -4.291191204742671 -7.865575506238507 Z" fill="#51BF7E" stroke="#111" stroke-width="1" fill-opacity="0.9"/><path d="M -1.7214553874892258 -8.793076330209145 L -4.352822908365613 -22.23392157781455 A 22.656 22.656 0 0 1 -4.1618396822223646e-15 -22.656 L -1.6459252980540428e-15 -8.96 A 8.96 8.96 0 0 0 -1.7214553874892258 -8.793076330209145 Z" fill="#e0e0e0" stroke="#111" stroke-width="1" fill-opacity="0.9"/>
    <circle r="5.76" fill="#fff" stroke="#111" stroke-width="1.5"/>
  </g>
</svg>