<?xml version="1.0" encoding="UTF-8"?>
<svg xmlns="http://www.w3.org/2000/svg" width="64" height="64" viewBox="-32 -32 64 64">
  <g>
    <path d="M 5.486417660180143e-16 -8.96 L 1.3872798940741216e-15 -22.656 A 22.656 22.656 0 0 1 8.03392832083569 -21.183727994280755 L 3.177259787901121 -8.377745534461317 A 8.96 8.96 0 0 0 5.486417660180143e-16 -8.96 Z" fill="#4A0D19" stroke="#111" stroke-width="1" fill-opacity="0.9"/><path d="M 3.177259787901121 -8.377745534461317 L 9.880884311969979 -26.0537506993783 A 27.864489952121673 27.864489952121673 0 0 1 24.67278052985946 -12.9492741579317 L 7.933685989852761 -4.163919621512167 A 8.96 8.96 0 0 0 3.177259787901121 -8.377745534461317 Z" fill="#A0AAE5" stroke="#111" stroke-width="1" fill-opacity="0.9"/><path d="M 7.933685989852761 -4.163919621512167 L 27.201209108066607 -14.27629584518457 A 30.72 30.72 0 1 1 -5.643172450471003e-15 -30.72 L -1.6459252980540428e-15 -8.96 A 8.96 8.96 0 1 0 7.933685989852761 -4.163919621512167 Z" fill="#7F142A" stroke="#111" stroke-width="1" fill-opacity="0.9"/>
    <circle r="5.76" fill="#fff" stroke="#111" stroke-width="1.5"/>
  </g>
</svg>