<?xml version="1.0" encoding="UTF-8"?>
<svg xmlns="http://www.w3.org/2000/svg" width="64" height="64" viewBox="-32 -32 64 64">
  <g>
    <path d="M 5.486417660180143e-16 -8.96 L 1.6836630518369593e-15 -27.496304289680765 A 27.496304289680765 27.496304289680765 0 0 1 5.910892637328947 -26.85345597536167 L 1.926135144290777 -8.750520179162377 A 8.96 8.96 0 0 0 5.486417660180143e-16 -8.96 Z" fill="#A0AAE5" stroke="#111" stroke-width="1" fill-opacity="0.9"/><path d="M 1.926135144290777 -8.750520179162377 L 6.603891923282664 -30.001783471413862 A 30.72 30.72 0 0 1 -3.32141624598349 30.539918043781924 L -0.9687464050785181 8.907476096103062 A 8.96 8.96 0 0 0 1.926135144290777 -8.750520179162377 Z" fill="#7F142A" stroke="#111" stroke-width="1" fill-opacity="0.9"/><path d="M -0.9687464050785181 8.907476096103062 L -2.4495444814128238 22.52318955728917 A 22.656 22.656 0 0 1 -4.1618396822223646e-15 -22.656 L -1.6459252980540428e-15 -8.96 A 8.96 8.96 0 0 0 -0.9687464050785181 8.907476096103062 Z" fill="#4A0D19" stroke="#111" stroke-width="1" fill-opacity="0.9"/>
    <circle r="5.76" fill="#fff" stroke="#111" stroke-width="1.5"/>
  </g>
</svg>