<?xml version="1.0" encoding="UTF-8"?>
<svg xmlns="http://www.w3.org/2000/svg" width="64" height="64" viewBox="-32 -32 64 64">
  <g>
    <path d="M 5.486417660180143e-16 -8.96 L 1.8810574834903343e-15 -30.72 A 30.72 30.72 0 0 1 20.52292190863975 -22.8588730328482 L 5.985852223353261 -6.667171301247392 A 8.96 8.96 0 0 0 5.486417660180143e-16 -8.96 Z" fill="#7F142A" stroke="#111" stroke-width="1" fill-opacity="0.9"/><path d="M 5.985852223353261 -6.667171301247392 L 20.395527682248048 -22.716978596024376 A 30.52930831135183 30.52930831135183 0 0 1 16.202821270434267 25.87483814148291 L 4.755341231530922 7.593966669119768 A 8.96 8.96 0 0 0 5.985852223353261 -6.667171301247392 Z" fill="#A0AAE5" stroke="#111" stroke-width="1" fill-opacity="0.9"/><path d="M 4.755341231530922 7.593966669119768 L 12.024219971156759 19.20188714905998 A 22.656 22.656 0 0 1 -9.451938260784647 20.590172391563776 L -3.738054679406358 8.143006030561947 A 8.96 8.96 0 0 0 4.755341231530922 7.593966669119768 Z" fill="#7B86C9" stroke="#111" stroke-width="1" fill-opacity="0.9"/><path d="M -3.738054679406358 8.143006030561947 L -9.451938260784647 20.590172391563776 A 22.656 22.656 0 0 1 -10.329022048127639 20.164464771704036 L -4.08492397383579 7.974647084854705 A 8.96 8.96 0 0 0 -3.738054679406358 8.143006030561947 Z" fill="#004F61" stroke="#111" stroke-width="1" fill-opacity="0.9"/><path d="M -4.08492397383579 7.974647084854705 L -10.329022048127639 20.164464771704036 A 22.656 22.656 0 0 1 -18.938727661708644 -12.434586062898589 L -7.489892295590989 -4.9176329062310815 A 8.96 8.96 0 0 0 -4.08492397383579 7.974647084854705 Z" fill="#4A0D19" stroke="#111" stroke-width="1" fill-opacity="0.9"/><path d="M -7.489892295590989 -4.9176329062310815 L -21.90676798539534 -14.383310048071834 A 26.20660396741452 26.20660396741452 0 0 1 -21.267682723494154 -15.312470835162259 L -7.2713899687059556 -5.235311635710182 A 8.96 8.96 0 0 0 -7.489892295590989 -4.9176329062310815 Z" fill="#51BF7E" stroke="#111" stroke-width="1" fill-opacity="0.9"/><path d="M -7.2713899687059556 -5.235311635710182 L -18.38622892087077 -13.237859421724314 A 22.656 22.656 0 0 1 -4.1618396822223646e-15 -22.656 L -1.6459252980540428e-15 -8.96 A 8.96 8.96 0 0 0 -7.2713899687059556 -5.235311635710182 Z" fill="#e0e0e0" stroke="#111" stroke-width="1" fill-opacity="0.9"/>
    <circle r="5.76" fill="#fff" stroke="#111" stroke-width="1.5"/>
  </g>
</svg>