<?xml version="1.0" encoding="UTF-8"?>
<svg xmlns="http://www.w3.org/2000/svg" width="64" height="64" viewBox="-32 -32 64 64">
  <g>
    <path d="M 5.486417660180143e-16 -8.96 L 1.707752808874543e-15 -27.889719877821868 A 27.889719877821868 27.889719877821868 0 0 1 11.446298178348387 -25.4326312613483 L 3.6772987368567005 -8.170622620089128 A 8.96 8.96 0 0 0 5.486417660180143e-16 -8.96 Z" fill="#A0AAE5" stroke="#111" stroke-width="1" fill-opacity="0.9"/><path d="M 3.6772987368567005 -8.170622620089128 L 9.298312520337655 -20.660002910796795 A 22.656 22.656 0 0 1 14.679171197741486 -17.257354054066248 L 5.805321942609628 -6.824942281269139 A 8.96 8.96 0 0 0 3.6772987368567005 -8.170622620089128 Z" fill="#7B86C9" stroke="#111" stroke-width="1" fill-opacity="0.9"/><path d="M 5.805321942609628 -6.824942281269139 L 19.90396094609015 -23.399802107208473 A 30.72 30.72 0 1 1 -5.643172450471003e-15 -30.72 L -1.6459252980540428e-15 -8.96 A 8.96 8.96 0 1 0 5.805321942609628 -6.824942281269139 Z" fill="#7F142A" stroke="#111" stroke-width="1" fill-opacity="0.9"/>
    <circle r="5.76" fill="#fff" stroke="#111" stroke-width="1.5"/>
  </g>
</svg>