<?xml version="1.0" encoding="UTF-8"?>
<svg xmlns="http://www.w3.org/2000/svg" width="64" height="64" viewBox="-32 -32 64 64">
  <g>
    <path d="M 5.486417660180143e-16 -8.96 L 1.8810574834903343e-15 -30.72 A 30.72 30.72 0 0 1 16.279119797244054 26.05203751392541 L 4.748076607529517 7.598510941561578 A 8.96 8.96 0 0 0 5.486417660180143e-16 -8.96 Z" fill="#7F142A" stroke="#111" stroke-width="1" fill-opacity="0.9"/><path d="M 4.748076607529517 7.598510941561578 L 16.152922971420193 25.8500803761041 A 30.48185650467629 30.48185650467629 0 1 1 -8.401938327342187 -29.301041079033602 L -2.4697107081203176 -8.612904795607337 A 8.96 8.96 0 1 0 4.748076607529517 7.598510941561578 Z" fill="#A0AAE5" stroke="#111" stroke-width="1" fill-opacity="0.9"/><path d="M -2.4697107081203176 -8.612904795607337 L -6.244839933389946 -21.778344983178545 A 22.656 22.656 0 0 1 -4.710447267167165 -22.1609120422251 L -1.8628887497271278 -8.764202502574898 A 8.96 8.96 0 0 0 -2.4697107081203176 -8.612904795607337 Z" fill="#7B86C9" stroke="#111" stroke-width="1" fill-opacity="0.9"/><path d="M -1.8628887497271278 -8.764202502574898 L -4.710447267167165 -22.1609120422251 A 22.656 22.656 0 0 1 -4.1618396822223646e-15 -22.656 L -1.6459252980540428e-15 -8.96 A 8.96 8.96 0 0 0 -1.8628887497271278 -8.764202502574898 Z" fill="#004F61" stroke="#111" stroke-width="1" fill-opacity="0.9"/>
    <circle r="5.76" fill="#fff" stroke="#111" stroke-width="1.5"/>
  </g>
</svg>