<?xml version="1.0" encoding="UTF-8"?>
<svg xmlns="http://www.w3.org/2000/svg" width="64" height="64" viewBox="-32 -32 64 64">
  <g>
    <path d="M 5.486417660180143e-16 -8.96 L 1.4538685835508964e-15 -23.74347582606081 A 23.74347582606081 23.74347582606081 0 0 1 0.5636170494282724 -23.73678537890773 L 0.21269037439473953 -8.957475247224513 A 8.96 8.96 0 0 0 5.486417660180143e-16 -8.96 Z" fill="#51BF7E" stroke="#111" stroke-width="1" fill-opacity="0.9"/><path d="M 0.21269037439473953 -8.957475247224513 L 0.5378028038266984 -22.649615982267694 A 22.656 22.656 0 0 1 10.037238672710808 -20.31128198383939 L 3.9695294185861965 -8.032710389089024 A 8.96 8.96 0 0 0 0.21269037439473953 -8.957475247224513 Z" fill="#e0e0e0" stroke="#111" stroke-width="1" fill-opacity="0.9"/><path d="M 3.9695294185861965 -8.032710389089024 L 10.037238672710808 -20.31128198383939 A 22.656 22.656 0 0 1 17.77686819376411 -14.045543535995249 L 7.030399850641174 -5.554734731749534 A 8.96 8.96 0 0 0 3.9695294185861965 -8.032710389089024 Z" fill="#004F61" stroke="#111" stroke-width="1" fill-opacity="0.9"/><path d="M 7.030399850641174 -5.554734731749534 L 17.77686819376411 -14.045543535995249 A 22.656 22.656 0 0 1 -15.860963520958471 16.177891462944874 L -6.272697437667192 6.39803617178611 A 8.96 8.96 0 0 0 7.030399850641174 -5.554734731749534 Z" fill="#4A0D19" stroke="#111" stroke-width="1" fill-opacity="0.9"/><path d="M -6.272697437667192 6.39803617178611 L -19.274213784824465 19.659344038743697 A 27.531529653413823 27.531529653413823 0 0 1 -23.004474233751523 15.125451738228087 L -7.486692229934104 4.922503372700147 A 8.96 8.96 0 0 0 -6.272697437667192 6.39803617178611 Z" fill="#A0AAE5" stroke="#111" stroke-width="1" fill-opacity="0.9"/><path d="M -7.486692229934104 4.922503372700147 L -18.93063606711909 12.446901385256085 A 22.656 22.656 0 0 1 -22.082253445476656 5.066400968116735 L -8.733094582956872 2.003661399820178 A 8.96 8.96 0 0 0 -7.486692229934104 4.922503372700147 Z" fill="#7B86C9" stroke="#111" stroke-width="1" fill-opacity="0.9"/><path d="M -8.733094582956872 2.003661399820178 L -29.942038570137843 6.869696227954895 A 30.72 30.72 0 0 1 -5.643172450471003e-15 -30.72 L -1.6459252980540428e-15 -8.96 A 8.96 8.96 0 0 0 -8.733094582956872 2.003661399820178 Z" fill="#7F142A" stroke="#111" stroke-width="1" fill-opacity="0.9"/>
    <circle r="5.76" fill="#fff" stroke="#111" stroke-width="1.5"/>
  </g>
</svg>