<?xml version="1.0" encoding="UTF-8"?>
<svg xmlns="http://www.w3.org/2000/svg" width="64" height="64" viewBox="-32 -32 64 64">
  <g>
    <path d="M 5.486417660180143e-16 -8.96 L 1.3872798940741216e-15 -22.656 A 22.656 22.656 0 0 1 3.9341731132219753 -22.311804452244584 L 1.5558876718956967 -8.823877466989385 A 8.96 8.96 0 0 0 5.486417660180143e-16 -8.96 Z" fill="#004F61" stroke="#111" stroke-width="1" fill-opacity="0.9"/><path d="M 1.5558876718956967 -8.823877466989385 L 5.334472017928102 -30.25329417253503 A 30.72 30.72 0 1 1 -5.334472017928126 -30.253294172535025 L -1.5558876718957035 -8.823877466989384 A 8.96 8.96 0 1 0 1.5558876718956967 -8.823877466989385 Z" fill="#7F142A" stroke="#111" stroke-width="1" fill-opacity="0.9"/><path d="M -1.5558876718957035 -8.823877466989384 L -4.046861047311522 -22.950889484136802 A 23.30494394864121 23.30494394864121 0 0 1 -2.4979997039155936e-14 -23.30494394864121 L -9.604003938567165e-15 -8.96 A 8.96 8.96 0 0 0 -1.5558876718957035 -8.823877466989384 Z" fill="#51BF7E" stroke="#111" stroke-width="1" fill-opacity="0.9"/>
    <circle r="5.76" fill="#fff" stroke="#111" stroke-width="1.5"/>
  </g>
</svg>