<?xml version="1.0" encoding="UTF-8"?>
<svg xmlns="http://www.w3.org/2000/svg" width="64" height="64" viewBox="-32 -32 64 64">
  <g>
    <path d="M 5.486417660180143e-16 -8.96 L 1.8106659878276796e-15 -29.57041963590377 A 29.57041963590377 29.57041963590377 0 0 1 23.75118376060106 -17.615078410657272 L 7.1967394820665795 -5.337465768252203 A 8.96 8.96 0 0 0 5.486417660180143e-16 -8.96 Z" fill="#A0AAE5" stroke="#111" stroke-width="1" fill-opacity="0.9"/><path d="M 7.1967394820665795 -5.337465768252203 L 18.19746983322549 -13.496163442580569 A 22.656 22.656 0 0 1 9.686688196756476 20.48078142500473 L 3.8308936371353304 8.099744066386052 A 8.96 8.96 0 0 0 7.1967394820665795 -5.337465768252203 Z" fill="#7B86C9" stroke="#111" stroke-width="1" fill-opacity="0.9"/><path d="M 3.8308936371353304 8.099744066386052 L 13.134492470178273 27.770551084752174 A 30.72 30.72 0 0 1 -20.630291092900414 -22.762018570904335 L -6.0171682354292875 -6.638922083180432 A 8.96 8.96 0 0 0 3.8308936371353304 8.099744066386052 Z" fill="#7F142A" stroke="#111" stroke-width="1" fill-opacity="0.9"/><path d="M -6.0171682354292875 -6.638922083180432 L -17.806071438748425 -19.64597236842282 A 26.51453206041256 26.51453206041256 0 0 1 -4.870640522801117e-15 -26.51453206041256 L -1.6459252980540428e-15 -8.96 A 8.96 8.96 0 0 0 -6.0171682354292875 -6.638922083180432 Z" fill="#51BF7E" stroke="#111" stroke-width="1" fill-opacity="0.9"/>
    <circle r="5.76" fill="#fff" stroke="#111" stroke-width="1.5"/>
  </g>
</svg>