<?xml version="1.0" encoding="UTF-8"?>
<svg xmlns="http://www.w3.org/2000/svg" width="64" height="64" viewBox="-32 -32 64 64">
  <g>
    <path d="M 5.486417660180143e-16 -8.96 L 1.5231185845991372e-15 -24.87441416838866 A 24.87441416838866 24.87441416838866 0 0 1 3.56683507676607 -24.6173550113672 L 1.284807837944521 -8.867404852579831 A 8.96 8.96 0 0 0 5.486417660180143e-16 -8.96 Z" fill="#51BF7E" stroke="#111" stroke-width="1" fill-opacity="0.9"/><path d="M 1.284807837944521 -8.867404852579831 L 4.4050554443812135 -30.402530923130843 A 30.72 30.72 0 1 1 -24.72245084080013 18.2350986952147 L -7.210714828566705 5.318570452770954 A 8.96 8.96 0 1 0 1.284807837944521 -8.867404852579831 Z" fill="#A0AAE5" stroke="#111" stroke-width="1" fill-opacity="0.9"/><path d="M -7.210714828566705 5.318570452770954 L -18.232807495090096 13.448385287720841 A 22.656 22.656 0 0 1 -22.64134296651509 -0.8148157292527346 L -8.954203433085064 -0.32224350874401936 A 8.96 8.96 0 0 0 -7.210714828566705 5.318570452770954 Z" fill="#7B86C9" stroke="#111" stroke-width="1" fill-opacity="0.9"/><path d="M -8.954203433085064 -0.32224350874401936 L -29.75575122240603 -1.0708487640333435 A 29.775013818387215 29.775013818387215 0 0 1 -5.469581305088417e-15 -29.775013818387215 L -1.6459252980540428e-15 -8.96 A 8.96 8.96 0 0 0 -8.954203433085064 -0.32224350874401936 Z" fill="#7F142A" stroke="#111" stroke-width="1" fill-opacity="0.9"/>
    <circle r="5.76" fill="#fff" stroke="#111" stroke-width="1.5"/>
  </g>
</svg>