<?xml version="1.0" encoding="UTF-8"?>
<svg xmlns="http://www.w3.org/2000/svg" width="64" height="64" viewBox="-32 -32 64 64">
  <g>
    <path d="M 5.486417660180143e-16 -8.96 L 1.8810574834903343e-15 -30.72 A 30.72 30.72 0 0 1 18.868614533826594 -24.24239644865721 L 5.503345905699424 -7.0706989641916875 A 8.96 8.96 0 0 0 5.486417660180143e-16 -8.96 Z" fill="#7F142A" stroke="#111" stroke-width="1" fill-opacity="0.9"/><path d="M 5.503345905699424 -7.0706989641916875 L 18.56902971777528 -23.857489869125683 A 30.232245823210953 30.232245823210953 0 0 1 28.312838060069765 -10.60056076343705 L 8.39114072112561 -3.14171249452708 A 8.96 8.96 0 0 0 5.503345905699424 -7.0706989641916875 Z" fill="#A0AAE5" stroke="#111" stroke-width="1" fill-opacity="0.9"/><path d="M 8.39114072112561 -3.14171249452708 L 21.21759868056047 -7.944044450447044 A 22.656 22.656 0 1 1 -4.1618396822223646e-15 -22.656 L -1.6459252980540428e-15 -8.96 A 8.96 8.96 0 1 0 8.39114072112561 -3.14171249452708 Z" fill="#7B86C9" stroke="#111" stroke-width="1" fill-opacity="0.9"/>
    <circle r="5.76" fill="#fff" stroke="#111" stroke-width="1.5"/>
  </g>
</svg>