<?xml version="1.0" encoding="UTF-8"?>
<svg xmlns="http://www.w3.org/2000/svg" width="64" height="64" viewBox="-32 -32 64 64">
  <g>
    <path d="M 5.486417660180143e-16 -8.96 L 1.7350932772011256e-15 -28.336223610091743 A 28.336223610091743 28.336223610091743 0 0 1 20.036735867914224 -20.03673586791422 L 6.3356767594314665 -6.335676759431466 A 8.96 8.96 0 0 0 5.486417660180143e-16 -8.96 Z" fill="#51BF7E" stroke="#111" stroke-width="1" fill-opacity="0.9"/><path d="M 6.3356767594314665 -6.335676759431466 L 21.6545229703815 -21.654522970381496 A 30.624120071433236 30.624120071433236 0 0 1 -21.654522970381496 21.6545229703815 L -6.335676759431466 6.3356767594314665 A 8.96 8.96 0 0 0 6.3356767594314665 -6.335676759431466 Z" fill="#7F142A" stroke="#111" stroke-width="1" fill-opacity="0.9"/><path d="M -6.335676759431466 6.3356767594314665 L -21.722320318050738 21.72232031805074 A 30.72 30.72 0 0 1 -5.643172450471003e-15 -30.72 L -1.6459252980540428e-15 -8.96 A 8.96 8.96 0 0 0 -6.335676759431466 6.3356767594314665 Z" fill="#A0AAE5" stroke="#111" stroke-width="1" fill-opacity="0.9"/>
    <circle r="5.76" fill="#fff" stroke="#111" stroke-width="1.5"/>
  </g>
</svg>