<?xml version="1.0" encoding="UTF-8"?>
<svg xmlns="http://www.w3.org/2000/svg" width="64" height="64" viewBox="-32 -32 64 64">
  <g>
    <path d="M 5.486417660180143e-16 -8.96 L 1.8810574834903343e-15 -30.72 A 30.72 30.72 0 1 1 -22.283500677497468 21.14625256531213 L -6.499354364270096 6.167656998216039 A 8.96 8.96 0 1 0 5.486417660180143e-16 -8.96 Z" fill="#7F142A" stroke="#111" stroke-width="1" fill-opacity="0.9"/><path d="M -6.499354364270096 6.167656998216039 L -21.88200400345866 20.76524644799543 A 30.166497298383312 30.166497298383312 0 0 1 -0.7896668404093851 -30.156159993184236 L -0.2345454568385464 -8.956929631780994 A 8.96 8.96 0 0 0 -6.499354364270096 6.167656998216039 Z" fill="#A0AAE5" stroke="#111" stroke-width="1" fill-opacity="0.9"/><path d="M -0.2345454568385464 -8.956929631780994 L -0.5930649408631816 -22.648236354646222 A 22.656 22.656 0 0 1 -4.1618396822223646e-15 -22.656 L -1.6459252980540428e-15 -8.96 A 8.96 8.96 0 0 0 -0.2345454568385464 -8.956929631780994 Z" fill="#7B86C9" stroke="#111" stroke-width="1" fill-opacity="0.9"/>
    <circle r="5.76" fill="#fff" stroke="#111" stroke-width="1.5"/>
  </g>
</svg>