<?xml version="1.0" encoding="UTF-8"?>
<svg xmlns="http://www.w3.org/2000/svg" width="64" height="64" viewBox="-32 -32 64 64">
  <g>
    <path d="M 5.486417660180143e-16 -8.96 L 1.8810574834903343e-15 -30.72 A 30.72 30.72 0 1 1 -12.494949675288572 28.064116458780706 L -3.644360321959167 8.185367300477706 A 8.96 8.96 0 1 0 5.486417660180143e-16 -8.96 Z" fill="#7F142A" stroke="#111" stroke-width="1" fill-opacity="0.9"/><path d="M -3.644360321959167 8.185367300477706 L -12.442237855669719 27.945723773497356 A 30.590403071579097 30.590403071579097 0 0 1 -17.98058778715657 -24.748155949687078 L -5.266555860540561 -7.248792269599529 A 8.96 8.96 0 0 0 -3.644360321959167 8.185367300477706 Z" fill="#A0AAE5" stroke="#111" stroke-width="1" fill-opacity="0.9"/><path d="M -5.266555860540561 -7.248792269599529 L -13.316862675938273 -18.329089024558805 A 22.656 22.656 0 0 1 -4.710447267167165 -22.1609120422251 L -1.8628887497271278 -8.764202502574898 A 8.96 8.96 0 0 0 -5.266555860540561 -7.248792269599529 Z" fill="#004F61" stroke="#111" stroke-width="1" fill-opacity="0.9"/><path d="M -1.8628887497271278 -8.764202502574898 L -4.710447267167165 -22.1609120422251 A 22.656 22.656 0 0 1 -4.1618396822223646e-15 -22.656 L -1.6459252980540428e-15 -8.96 A 8.96 8.96 0 0 0 -1.8628887497271278 -8.764202502574898 Z" fill="#e0e0e0" stroke="#111" stroke-width="1" fill-opacity="0.9"/>
    <circle r="5.76" fill="#fff" stroke="#111" stroke-width="1.5"/>
  </g>
</svg>