<?xml version="1.0" encoding="UTF-8"?>
<svg xmlns="http://www.w3.org/2000/svg" width="64" height="64" viewBox="-32 -32 64 64">
  <g>
    <path d="M 5.486417660180143e-16 -8.96 L 1.8810574834903343e-15 -30.72 A 30.72 30.72 0 0 1 4.307093676499529 30.416563646504475 L 1.2562356556456962 8.871497730230473 A 8.96 8.96 0 0 0 5.486417660180143e-16 -8.96 Z" fill="#7F142A" stroke="#111" stroke-width="1" fill-opacity="0.9"/><path d="M 1.2562356556456962 8.871497730230473 L 3.8714787176608256 27.34026414710391 A 27.613011264523763 27.613011264523763 0 0 1 -3.871478717660823 27.34026414710391 L -1.256235655645695 8.871497730230473 A 8.96 8.96 0 0 0 1.2562356556456962 8.871497730230473 Z" fill="#A0AAE5" stroke="#111" stroke-width="1" fill-opacity="0.9"/><path d="M -1.256235655645695 8.871497730230473 L -3.1764815864184 22.43221568929705 A 22.656 22.656 0 0 1 -15.447038005046721 -16.57357393173368 L -6.108998081091925 -6.554520763962473 A 8.96 8.96 0 0 0 -1.256235655645695 8.871497730230473 Z" fill="#7B86C9" stroke="#111" stroke-width="1" fill-opacity="0.9"/><path d="M -6.108998081091925 -6.554520763962473 L -15.447038005046721 -16.57357393173368 A 22.656 22.656 0 0 1 -2.1215415868902605 -22.556449128688122 L -0.8390277462277868 -8.920629598916207 A 8.96 8.96 0 0 0 -6.108998081091925 -6.554520763962473 Z" fill="#004F61" stroke="#111" stroke-width="1" fill-opacity="0.9"/><path d="M -0.8390277462277868 -8.920629598916207 L -2.209270922507523 -23.489196480035112 A 23.592863948379204 23.592863948379204 0 0 1 -4.333938797565237e-15 -23.592863948379204 L -1.6459252980540428e-15 -8.96 A 8.96 8.96 0 0 0 -0.8390277462277868 -8.920629598916207 Z" fill="#51BF7E" stroke="#111" stroke-width="1" fill-opacity="0.9"/>
    <circle r="5.76" fill="#fff" stroke="#111" stroke-width="1.5"/>
  </g>
</svg>