<?xml version="1.0" encoding="UTF-8"?>
<svg xmlns="http://www.w3.org/2000/svg" width="64" height="64" viewBox="-32 -32 64 64">
  <g>
    <path d="M 5.486417660180143e-16 -8.96 L 1.6221820019476683e-15 -26.492242548253007 A 26.492242548253007 26.492242548253007 0 0 1 9.394278676326717 -24.770677087778203 L 3.177259787901121 -8.377745534461317 A 8.96 8.96 0 0 0 5.486417660180143e-16 -8.96 Z" fill="#51BF7E" stroke="#111" stroke-width="1" fill-opacity="0.9"/><path d="M 3.177259787901121 -8.377745534461317 L 9.908772522381923 -26.12728586673618 A 27.94313582371283 27.94313582371283 0 0 1 15.873510374571719 -22.996749945390704 L 5.089860130711157 -7.373935438407162 A 8.96 8.96 0 0 0 3.177259787901121 -8.377745534461317 Z" fill="#7F142A" stroke="#111" stroke-width="1" fill-opacity="0.9"/><path d="M 5.089860130711157 -7.373935438407162 L 17.45094901958111 -25.282064360253123 A 30.72 30.72 0 1 1 -25.28206436025313 -17.4509490195811 L -7.373935438407163 -5.089860130711155 A 8.96 8.96 0 1 0 5.089860130711157 -7.373935438407162 Z" fill="#A0AAE5" stroke="#111" stroke-width="1" fill-opacity="0.9"/><path d="M -7.373935438407163 -5.089860130711155 L -18.645522465686682 -12.870074901941061 A 22.656 22.656 0 0 1 -5.421935690098908 -21.997657815604633 L -2.1442683520165176 -8.699638684137426 A 8.96 8.96 0 0 0 -7.373935438407163 -5.089860130711155 Z" fill="#7B86C9" stroke="#111" stroke-width="1" fill-opacity="0.9"/><path d="M -2.1442683520165176 -8.699638684137426 L -5.421935690098908 -21.997657815604633 A 22.656 22.656 0 0 1 -4.1618396822223646e-15 -22.656 L -1.6459252980540428e-15 -8.96 A 8.96 8.96 0 0 0 -2.1442683520165176 -8.699638684137426 Z" fill="#004F61" stroke="#111" stroke-width="1" fill-opacity="0.9"/>
    <circle r="5.76" fill="#fff" stroke="#111" stroke-width="1.5"/>
  </g>
</svg>