<?xml version="1.0" encoding="UTF-8"?>
<svg xmlns="http://www.w3.org/2000/svg" width="64" height="64" viewBox="-32 -32 64 64">
  <g>
    <path d="M 5.486417660180143e-16 -8.96 L 1.8810574834903343e-15 -30.72 A 30.72 30.72 0 1 1 -5.993174692335464 30.129723813987237 L -1.7480092852645108 8.787836112412945 A 8.96 8.96 0 1 0 5.486417660180143e-16 -8.96 Z" fill="#A0AAE5" stroke="#111" stroke-width="1" fill-opacity="0.9"/><path d="M -1.7480092852645108 8.787836112412945 L -4.4199663355974055 22.220671312815586 A 22.656 22.656 0 0 1 -17.513324831386175 14.372814246011544 L -6.926173662130126 5.6841638261062615 A 8.96 8.96 0 0 0 -1.7480092852645108 8.787836112412945 Z" fill="#7B86C9" stroke="#111" stroke-width="1" fill-opacity="0.9"/><path d="M -6.926173662130126 5.6841638261062615 L -23.412896463681843 19.214467559611016 A 30.287942888522984 30.287942888522984 0 0 1 -5.5638048466781266e-15 -30.287942888522984 L -1.6459252980540428e-15 -8.96 A 8.96 8.96 0 0 0 -6.926173662130126 5.6841638261062615 Z" fill="#7F142A" stroke="#111" stroke-width="1" fill-opacity="0.9"/>
    <circle r="5.76" fill="#fff" stroke="#111" stroke-width="1.5"/>
  </g>
</svg>