<?xml version="1.0" encoding="UTF-8"?>
<svg xmlns="http://www.w3.org/2000/svg" width="64" height="64" viewBox="-32 -32 64 64">
  <g>
    <path d="M 5.486417660180143e-16 -8.96 L 1.6703450128467913e-15 -27.278804207217142 A 27.278804207217142 27.278804207217142 0 0 1 13.14166415192819 -23.904598350393034 L 4.3165129199513705 -7.851707853193019 A 8.96 8.96 0 0 0 5.486417660180143e-16 -8.96 Z" fill="#A0AAE5" stroke="#111" stroke-width="1" fill-opacity="0.9"/><path d="M 4.3165129199513705 -7.851707853193019 L 14.799472868404695 -26.920141210947488 A 30.72 30.72 0 1 1 -3.0831118802293256 -30.56489524166554 L -0.8992409650668868 -8.914761112152451 A 8.96 8.96 0 1 0 4.3165129199513705 -7.851707853193019 Z" fill="#7F142A" stroke="#111" stroke-width="1" fill-opacity="0.9"/><path d="M -0.8992409650668868 -8.914761112152451 L -2.2737950116691277 -22.541610240728335 A 22.656 22.656 0 0 1 -4.1618396822223646e-15 -22.656 L -1.6459252980540428e-15 -8.96 A 8.96 8.96 0 0 0 -0.8992409650668868 -8.914761112152451 Z" fill="#004F61" stroke="#111" stroke-width="1" fill-opacity="0.9"/>
    <circle r="5.76" fill="#fff" stroke="#111" stroke-width="1.5"/>
  </g>
</svg>