<?xml version="1.0" encoding="UTF-8"?>
<svg xmlns="http://www.w3.org/2000/svg" width="64" height="64" viewBox="-32 -32 64 64">
  <g>
    <path d="M 5.486417660180143e-16 -8.96 L 1.533890229563803e-15 -25.050328480534258 A 25.050328480534258 25.050328480534258 0 0 1 3.4110192879546206 -24.81700836925892 L 1.2200531759023696 -8.876546076485525 A 8.96 8.96 0 0 0 5.486417660180143e-16 -8.96 Z" fill="#51BF7E" stroke="#111" stroke-width="1" fill-opacity="0.9"/><path d="M 1.2200531759023696 -8.876546076485525 L 4.183039460236695 -30.43387226223608 A 30.72 30.72 0 0 1 19.387021649696347 23.829850850439772 L 5.654547981161435 6.950373164711601 A 8.96 8.96 0 0 0 1.2200531759023696 -8.876546076485525 Z" fill="#A0AAE5" stroke="#111" stroke-width="1" fill-opacity="0.9"/><path d="M 5.654547981161435 6.950373164711601 L 14.297928466651056 17.57451500219933 A 22.656 22.656 0 1 1 -4.1618396822223646e-15 -22.656 L -1.6459252980540428e-15 -8.96 A 8.96 8.96 0 1 0 5.654547981161435 6.950373164711601 Z" fill="#7B86C9" stroke="#111" stroke-width="1" fill-opacity="0.9"/>
    <circle r="5.76" fill="#fff" stroke="#111" stroke-width="1.5"/>
  </g>
</svg>