<?xml version="1.0" encoding="UTF-8"?>
<svg xmlns="http://www.w3.org/2000/svg" width="64" height="64" viewBox="-32 -32 64 64">
  <g>
    <path d="M 5.486417660180143e-16 -8.96 L 1.3872798940741216e-15 -22.656 A 22.656 22.656 0 0 1 8.184291189136138 -21.126090829385085 L 3.2367253290368914 -8.354951175463029 A 8.96 8.96 0 0 0 5.486417660180143e-16 -8.96 Z" fill="#4A0D19" stroke="#111" stroke-width="1" fill-opacity="0.9"/><path d="M 3.2367253290368914 -8.354951175463029 L 11.09734398526934 -28.64554688730181 A 30.72 30.72 0 1 1 -20.695930172822255 -22.702353937018632 L -6.036312967073158 -6.621519898297102 A 8.96 8.96 0 1 0 3.2367253290368914 -8.354951175463029 Z" fill="#7F142A" stroke="#111" stroke-width="1" fill-opacity="0.9"/><path d="M -6.036312967073158 -6.621519898297102 L -19.01975401748047 -20.863676282929354 A 28.231968243895665 28.231968243895665 0 0 1 -3.026115337141485e-14 -28.231968243895665 L -9.604003938567165e-15 -8.96 A 8.96 8.96 0 0 0 -6.036312967073158 -6.621519898297102 Z" fill="#A0AAE5" stroke="#111" stroke-width="1" fill-opacity="0.9"/>
    <circle r="5.76" fill="#fff" stroke="#111" stroke-width="1.5"/>
  </g>
</svg>