<?xml version="1.0" encoding="UTF-8"?>
<svg xmlns="http://www.w3.org/2000/svg" width="64" height="64" viewBox="-32 -32 64 64">
  <g>
    <path d="M 5.486417660180143e-16 -8.96 L 1.861483302551531e-15 -30.400329365945645 A 30.400329365945645 30.400329365945645 0 0 1 22.975035978542678 -19.907982000761567 L 6.771516186214154 -5.867552176149755 A 8.96 8.96 0 0 0 5.486417660180143e-16 -8.96 Z" fill="#A0AAE5" stroke="#111" stroke-width="1" fill-opacity="0.9"/><path d="M 6.771516186214154 -5.867552176149755 L 23.216626924162814 -20.117321746799156 A 30.72 30.72 0 0 1 27.943894897290807 -12.76154919941795 L 8.150302678376486 -3.722118516496902 A 8.96 8.96 0 0 0 6.771516186214154 -5.867552176149755 Z" fill="#7F142A" stroke="#111" stroke-width="1" fill-opacity="0.9"/><path d="M 8.150302678376486 -3.722118516496902 L 20.60862248675197 -9.411642534570737 A 22.656 22.656 0 1 1 -6.382932807799431 -21.738272810210052 L -2.524323709299211 -8.597057043585897 A 8.96 8.96 0 1 0 8.150302678376486 -3.722118516496902 Z" fill="#004F61" stroke="#111" stroke-width="1" fill-opacity="0.9"/><path d="M -2.524323709299211 -8.597057043585897 L -6.382932807799431 -21.738272810210052 A 22.656 22.656 0 0 1 -4.1618396822223646e-15 -22.656 L -1.6459252980540428e-15 -8.96 A 8.96 8.96 0 0 0 -2.524323709299211 -8.597057043585897 Z" fill="#4A0D19" stroke="#111" stroke-width="1" fill-opacity="0.9"/>
    <circle r="5.76" fill="#fff" stroke="#111" stroke-width="1.5"/>
  </g>
</svg>