<?xml version="1.0" encoding="UTF-8"?>
<svg xmlns="http://www.w3.org/2000/svg" width="64" height="64" viewBox="-32 -32 64 64">
  <g>
    <path d="M 5.486417660180143e-16 -8.96 L 1.4719272401908325e-15 -24.038396070044776 A 24.038396070044776 24.038396070044776 0 0 1 3.2040046242452815 -23.823913196369716 L 1.1942511201490595 -8.88005429386683 A 8.96 8.96 0 0 0 5.486417660180143e-16 -8.96 Z" fill="#51BF7E" stroke="#111" stroke-width="1" fill-opacity="0.9"/><path d="M 1.1942511201490595 -8.88005429386683 L 3.300861376466336 -24.544107805308595 A 24.76507447566547 24.76507447566547 0 0 1 6.54281880347077 -23.885150949705274 L 2.367190800766724 -8.641643808487215 A 8.96 8.96 0 0 0 1.1942511201490595 -8.88005429386683 Z" fill="#A0AAE5" stroke="#111" stroke-width="1" fill-opacity="0.9"/><path d="M 2.367190800766724 -8.641643808487215 L 8.11608274548591 -29.628493057670447 A 30.72 30.72 0 1 1 -26.939901794508945 -14.763471519334933 L -7.857471356731776 -4.306012526472689 A 8.96 8.96 0 1 0 2.367190800766724 -8.641643808487215 Z" fill="#7F142A" stroke="#111" stroke-width="1" fill-opacity="0.9"/><path d="M -7.857471356731776 -4.306012526472689 L -19.868177573450346 -10.888060245509513 A 22.656 22.656 0 0 1 -4.1618396822223646e-15 -22.656 L -1.6459252980540428e-15 -8.96 A 8.96 8.96 0 0 0 -7.857471356731776 -4.306012526472689 Z" fill="#4A0D19" stroke="#111" stroke-width="1" fill-opacity="0.9"/>
    <circle r="5.76" fill="#fff" stroke="#111" stroke-width="1.5"/>
  </g>
</svg>