<?xml version="1.0" encoding="UTF-8"?>
<svg xmlns="http://www.w3.org/2000/svg" width="64" height="64" viewBox="-32 -32 64 64">
  <g>
    <path d="M 5.486417660180143e-16 -8.96 L 1.8810574834903343e-15 -30.72 A 30.72 30.72 0 1 1 -27.943894897290797 -12.761549199417965 L -8.150302678376484 -3.7221185164969066 A 8.96 8.96 0 1 0 5.486417660180143e-16 -8.96 Z" fill="#7F142A" stroke="#111" stroke-width="1" fill-opacity="0.9"/><path d="M -8.150302678376484 -3.7221185164969066 L -25.690468264410953 -11.732443738333407 A 28.24270517705174 28.24270517705174 0 0 1 -7.9568895416494705 -27.098677173246934 L -2.524323709299211 -8.597057043585897 A 8.96 8.96 0 0 0 -8.150302678376484 -3.7221185164969066 Z" fill="#A0AAE5" stroke="#111" stroke-width="1" fill-opacity="0.9"/><path d="M -2.524323709299211 -8.597057043585897 L -6.382932807799431 -21.738272810210052 A 22.656 22.656 0 0 1 -4.1618396822223646e-15 -22.656 L -1.6459252980540428e-15 -8.96 A 8.96 8.96 0 0 0 -2.524323709299211 -8.597057043585897 Z" fill="#004F61" stroke="#111" stroke-width="1" fill-opacity="0.9"/>
    <circle r="5.76" fill="#fff" stroke="#111" stroke-width="1.5"/>
  </g>
</svg>