<?xml version="1.0" encoding="UTF-8"?>
<svg xmlns="http://www.w3.org/2000/svg" width="64" height="64" viewBox="-32 -32 64 64">
  <g>
    <path d="M 5.486417660180143e-16 -8.96 L 1.4906078001018506e-15 -24.34347276520332 A 24.34347276520332 24.34347276520332 0 0 1 3.314769113803476 -24.116736346205105 L 1.2200531759023696 -8.876546076485525 A 8.96 8.96 0 0 0 5.486417660180143e-16 -8.96 Z" fill="#51BF7E" stroke="#111" stroke-width="1" fill-opacity="0.9"/><path d="M 1.2200531759023696 -8.876546076485525 L 4.183039460236695 -30.43387226223608 A 30.72 30.72 0 0 1 -4.183039460236691 30.43387226223608 L -1.2200531759023683 8.876546076485525 A 8.96 8.96 0 0 0 1.2200531759023696 -8.876546076485525 Z" fill="#7F142A" stroke="#111" stroke-width="1" fill-opacity="0.9"/><path d="M -1.2200531759023683 8.876546076485525 L -4.02484749338247 29.28294022874271 A 29.558247339534617 29.558247339534617 0 0 1 -18.65385355138793 -22.928666194710875 L -5.6545479811614365 -6.9503731647116 A 8.96 8.96 0 0 0 -1.2200531759023683 8.876546076485525 Z" fill="#A0AAE5" stroke="#111" stroke-width="1" fill-opacity="0.9"/><path d="M -5.6545479811614365 -6.9503731647116 L -14.297928466651058 -17.57451500219933 A 22.656 22.656 0 0 1 -4.1618396822223646e-15 -22.656 L -1.6459252980540428e-15 -8.96 A 8.96 8.96 0 0 0 -5.6545479811614365 -6.9503731647116 Z" fill="#7B86C9" stroke="#111" stroke-width="1" fill-opacity="0.9"/>
    <circle r="5.76" fill="#fff" stroke="#111" stroke-width="1.5"/>
  </g>
</svg>