<?xml version="1.0" encoding="UTF-8"?>
<svg xmlns="http://www.w3.org/2000/svg" width="64" height="64" viewBox="-32 -32 64 64">
  <g>
    <path d="M 5.486417660180143e-16 -8.96 L 1.7826547205257685e-15 -29.112960925009922 A 29.112960925009922 29.112960925009922 0 0 1 27.46450824643251 -9.657395125125376 L 8.452661153975406 -2.97222465773958 A 8.96 8.96 0 0 0 5.486417660180143e-16 -8.96 Z" fill="#A0AAE5" stroke="#111" stroke-width="1" fill-opacity="0.9"/><path d="M 8.452661153975406 -2.97222465773958 L 28.980552527915677 -10.190484540821414 A 30.72 30.72 0 1 1 -1.0516715957634524 -30.701993206543843 L -0.30673754876434034 -8.95474801857529 A 8.96 8.96 0 1 0 8.452661153975406 -2.97222465773958 Z" fill="#7F142A" stroke="#111" stroke-width="1" fill-opacity="0.9"/><path d="M -0.30673754876434034 -8.95474801857529 L -0.7953549344337035 -23.21920825107759 A 23.23282637301449 23.23282637301449 0 0 1 -4.267800967928761e-15 -23.23282637301449 L -1.6459252980540428e-15 -8.96 A 8.96 8.96 0 0 0 -0.30673754876434034 -8.95474801857529 Z" fill="#51BF7E" stroke="#111" stroke-width="1" fill-opacity="0.9"/>
    <circle r="5.76" fill="#fff" stroke="#111" stroke-width="1.5"/>
  </g>
</svg>