<?xml version="1.0" encoding="UTF-8"?>
<svg xmlns="http://www.w3.org/2000/svg" width="64" height="64" viewBox="-32 -32 64 64">
  <g>
    <path d="M 5.486417660180143e-16 -8.96 L 1.8810574834903343e-15 -30.72 A 30.72 30.72 0 0 1 9.493002067198386 29.216456180587116 L 2.7687922695995293 8.521466386004576 A 8.96 8.96 0 0 0 5.486417660180143e-16 -8.96 Z" fill="#A0AAE5" stroke="#111" stroke-width="1" fill-opacity="0.9"/><path d="M 2.7687922695995293 8.521466386004576 L 7.001089024558809 21.547136433183 A 22.656 22.656 0 0 1 -7.001089024558807 21.547136433183 L -2.7687922695995284 8.521466386004578 A 8.96 8.96 0 0 0 2.7687922695995293 8.521466386004576 Z" fill="#7B86C9" stroke="#111" stroke-width="1" fill-opacity="0.9"/><path d="M -2.7687922695995284 8.521466386004578 L -9.434409980458083 29.03612827981776 A 30.53039202436483 30.53039202436483 0 0 1 -5.60834203040284e-15 -30.53039202436483 L -1.6459252980540428e-15 -8.96 A 8.96 8.96 0 0 0 -2.7687922695995284 8.521466386004578 Z" fill="#7F142A" stroke="#111" stroke-width="1" fill-opacity="0.9"/>
    <circle r="5.76" fill="#fff" stroke="#111" stroke-width="1.5"/>
  </g>
</svg>