<?xml version="1.0" encoding="UTF-8"?>
<svg xmlns="http://www.w3.org/2000/svg" width="64" height="64" viewBox="-32 -32 64 64">
  <g>
    <path d="M 5.486417660180143e-16 -8.96 L 1.8810574834903343e-15 -30.72 A 30.72 30.72 0 1 1 -3.4110046787874007 30.530041714371933 L -0.9948763646463253 8.904595500025149 A 8.96 8.96 0 1 0 5.486417660180143e-16 -8.96 Z" fill="#A0AAE5" stroke="#111" stroke-width="1" fill-opacity="0.9"/><path d="M -0.9948763646463253 8.904595500025149 L -2.515615950605708 22.515905764349302 A 22.656 22.656 0 0 1 -14.026192515563592 17.792140386034163 L -5.547081785816111 7.036439700691477 A 8.96 8.96 0 0 0 -0.9948763646463253 8.904595500025149 Z" fill="#7B86C9" stroke="#111" stroke-width="1" fill-opacity="0.9"/><path d="M -5.547081785816111 7.036439700691477 L -18.456992433798394 23.412583288139487 A 29.812910390053492 29.812910390053492 0 0 1 -27.074391062585924 -12.481465239126647 L -8.136962837472732 -3.751191248335353 A 8.96 8.96 0 0 0 -5.547081785816111 7.036439700691477 Z" fill="#7F142A" stroke="#111" stroke-width="1" fill-opacity="0.9"/><path d="M -8.136962837472732 -3.751191248335353 L -20.574891746181045 -9.485155013647962 A 22.656 22.656 0 0 1 -17.51332483138618 -14.372814246011538 L -6.926173662130128 -5.684163826106259 A 8.96 8.96 0 0 0 -8.136962837472732 -3.751191248335353 Z" fill="#4A0D19" stroke="#111" stroke-width="1" fill-opacity="0.9"/><path d="M -6.926173662130128 -5.684163826106259 L -17.51332483138618 -14.372814246011538 A 22.656 22.656 0 0 1 -12.089570472584109 -19.16080952852521 L -4.781186062603886 -7.577721282467597 A 8.96 8.96 0 0 0 -6.926173662130128 -5.684163826106259 Z" fill="#004F61" stroke="#111" stroke-width="1" fill-opacity="0.9"/><path d="M -4.781186062603886 -7.577721282467597 L -14.365130751754936 -22.767354291943107 A 26.920427243449826 26.920427243449826 0 0 1 -5.94126924231233 -26.256631976706934 L -1.9774490177926547 -8.739067191756273 A 8.96 8.96 0 0 0 -4.781186062603886 -7.577721282467597 Z" fill="#51BF7E" stroke="#111" stroke-width="1" fill-opacity="0.9"/><path d="M -1.9774490177926547 -8.739067191756273 L -5.00012108784714 -22.097355613440858 A 22.656 22.656 0 0 1 -4.1618396822223646e-15 -22.656 L -1.6459252980540428e-15 -8.96 A 8.96 8.96 0 0 0 -1.9774490177926547 -8.739067191756273 Z" fill="#e0e0e0" stroke="#111" stroke-width="1" fill-opacity="0.9"/>
    <circle r="5.76" fill="#fff" stroke="#111" stroke-width="1.5"/>
  </g>
</svg>