<?xml version="1.0" encoding="UTF-8"?>
<svg xmlns="http://www.w3.org/2000/svg" width="64" height="64" viewBox="-32 -32 64 64">
  <g>
    <path d="M 5.486417660180143e-16 -8.96 L 1.3872798940741216e-15 -22.656 A 22.656 22.656 0 0 1 2.2920695029472644 -22.539759390766775 L 0.9064681650073928 -8.914029137591381 A 8.96 8.96 0 0 0 5.486417660180143e-16 -8.96 Z" fill="#004F61" stroke="#111" stroke-width="1" fill-opacity="0.9"/><path d="M 0.9064681650073928 -8.914029137591381 L 2.7292058772361254 -26.838472272184053 A 26.976881929258102 26.976881929258102 0 0 1 13.091933743238211 -23.587145428978747 L 4.348305584278486 -7.834145680655456 A 8.96 8.96 0 0 0 0.9064681650073928 -8.914029137591381 Z" fill="#A0AAE5" stroke="#111" stroke-width="1" fill-opacity="0.9"/><path d="M 4.348305584278486 -7.834145680655456 L 14.908476288954807 -26.85992804796156 A 30.72 30.72 0 1 1 -5.643172450471003e-15 -30.72 L -1.6459252980540428e-15 -8.96 A 8.96 8.96 0 1 0 4.348305584278486 -7.834145680655456 Z" fill="#7F142A" stroke="#111" stroke-width="1" fill-opacity="0.9"/>
    <circle r="5.76" fill="#fff" stroke="#111" stroke-width="1.5"/>
  </g>
</svg>