<?xml version="1.0" encoding="UTF-8"?>
<svg xmlns="http://www.w3.org/2000/svg" width="64" height="64" viewBox="-32 -32 64 64">
  <g>
    <path d="M 5.486417660180143e-16 -8.96 L 1.3872798940741216e-15 -22.656 A 22.656 22.656 0 0 1 11.327999999999998 -19.620671548140244 L 4.4799999999999995 -7.759587617908571 A 8.96 8.96 0 0 0 5.486417660180143e-16 -8.96 Z" fill="#e0e0e0" stroke="#111" stroke-width="1" fill-opacity="0.9"/><path d="M 4.4799999999999995 -7.759587617908571 L 15.359999999999996 -26.604300404257955 A 30.72 30.72 0 0 1 21.72232031805074 -21.722320318050738 L 6.3356767594314665 -6.335676759431466 A 8.96 8.96 0 0 0 4.4799999999999995 -7.759587617908571 Z" fill="#A0AAE5" stroke="#111" stroke-width="1" fill-opacity="0.9"/><path d="M 6.3356767594314665 -6.335676759431466 L 16.02021123456242 -16.020211234562417 A 22.656 22.656 0 1 1 -4.1618396822223646e-15 -22.656 L -1.6459252980540428e-15 -8.96 A 8.96 8.96 0 1 0 6.3356767594314665 -6.335676759431466 Z" fill="#004F61" stroke="#111" stroke-width="1" fill-opacity="0.9"/>
    <circle r="5.76" fill="#fff" stroke="#111" stroke-width="1.5"/>
  </g>
</svg>