<?xml version="1.0" encoding="UTF-8"?>
<svg xmlns="http://www.w3.org/2000/svg" width="64" height="64" viewBox="-32 -32 64 64">
  <g>
    <path d="M 5.486417660180143e-16 -8.96 L 1.3872798940741216e-15 -22.656 A 22.656 22.656 0 0 1 22.654211177481656 -0.2846961995972391 L 8.959292556066194 -0.11259171735484032 A 8.96 8.96 0 0 0 5.486417660180143e-16 -8.96 Z" fill="#7B86C9" stroke="#111" stroke-width="1" fill-opacity="0.9"/><path d="M 8.959292556066194 -0.11259171735484032 L 30.71757447794123 -0.38602874521659536 A 30.72 30.72 0 1 1 -1.5435054544825395 -30.681199306936854 L -0.4501890908907407 -8.948683131189917 A 8.96 8.96 0 1 0 8.959292556066194 -0.11259171735484032 Z" fill="#7F142A" stroke="#111" stroke-width="1" fill-opacity="0.9"/><path d="M -0.4501890908907407 -8.948683131189917 L -1.1383352726808729 -22.627384488865932 A 22.656 22.656 0 0 1 -4.1618396822223646e-15 -22.656 L -1.6459252980540428e-15 -8.96 A 8.96 8.96 0 0 0 -0.4501890908907407 -8.948683131189917 Z" fill="#004F61" stroke="#111" stroke-width="1" fill-opacity="0.9"/>
    <circle r="5.76" fill="#fff" stroke="#111" stroke-width="1.5"/>
  </g>
</svg>