<?xml version="1.0" encoding="UTF-8"?>
<svg xmlns="http://www.w3.org/2000/svg" width="64" height="64" viewBox="-32 -32 64 64">
  <g>
    <path d="M 5.486417660180143e-16 -8.96 L 1.7650940285029675e-15 -28.826173060377812 A 28.826173060377812 28.826173060377812 0 0 1 27.415319728924125 -8.90777735845003 L 8.521466386004576 -2.768792269599529 A 8.96 8.96 0 0 0 5.486417660180143e-16 -8.96 Z" fill="#A0AAE5" stroke="#111" stroke-width="1" fill-opacity="0.9"/><path d="M 8.521466386004576 -2.768792269599529 L 29.216456180587116 -9.493002067198384 A 30.72 30.72 0 0 1 -18.05676295042477 24.853002067198386 L -5.266555860540559 7.24879226959953 A 8.96 8.96 0 0 0 8.521466386004576 -2.768792269599529 Z" fill="#7F142A" stroke="#111" stroke-width="1" fill-opacity="0.9"/><path d="M -5.266555860540559 7.24879226959953 L -13.316862675938268 18.329089024558808 A 22.656 22.656 0 0 1 -4.1618396822223646e-15 -22.656 L -1.6459252980540428e-15 -8.96 A 8.96 8.96 0 0 0 -5.266555860540559 7.24879226959953 Z" fill="#4A0D19" stroke="#111" stroke-width="1" fill-opacity="0.9"/>
    <circle r="5.76" fill="#fff" stroke="#111" stroke-width="1.5"/>
  </g>
</svg>