<?xml version="1.0" encoding="UTF-8"?>
<svg xmlns="http://www.w3.org/2000/svg" width="64" height="64" viewBox="-32 -32 64 64">
  <g>
    <path d="M 5.486417660180143e-16 -8.96 L 1.3872798940741216e-15 -22.656 A 22.656 22.656 0 0 1 7.991951272856295 -21.199600252181423 L 3.160658695479891 -8.384022698602823 A 8.96 8.96 0 0 0 5.486417660180143e-16 -8.96 Z" fill="#004F61" stroke="#111" stroke-width="1" fill-opacity="0.9"/><path d="M 3.160658695479891 -8.384022698602823 L 7.991951272856295 -21.199600252181423 A 22.656 22.656 0 0 1 11.15916902756275 -19.717182420779196 L 4.413230688866625 -7.797755759630192 A 8.96 8.96 0 0 0 3.160658695479891 -8.384022698602823 Z" fill="#4A0D19" stroke="#111" stroke-width="1" fill-opacity="0.9"/><path d="M 4.413230688866625 -7.797755759630192 L 14.108480489215115 -24.928333175952897 A 28.643865253241877 28.643865253241877 0 0 1 19.99181832341494 -20.513366782891783 L 6.253579626706439 -6.416723607296965 A 8.96 8.96 0 0 0 4.413230688866625 -7.797755759630192 Z" fill="#7F142A" stroke="#111" stroke-width="1" fill-opacity="0.9"/><path d="M 6.253579626706439 -6.416723607296965 L 21.440844434422072 -22.00019522501816 A 30.72 30.72 0 1 1 -20.27987314702025 -23.07477291634236 L -5.91496300121424 -6.730142100599857 A 8.96 8.96 0 1 0 6.253579626706439 -6.416723607296965 Z" fill="#A0AAE5" stroke="#111" stroke-width="1" fill-opacity="0.9"/><path d="M -5.91496300121424 -6.730142100599857 L -14.956406445927433 -17.017645025802494 A 22.656 22.656 0 0 1 -5.769828900185281 -21.908980132872152 L -2.2818532373614113 -8.66456841413023 A 8.96 8.96 0 0 0 -5.91496300121424 -6.730142100599857 Z" fill="#7B86C9" stroke="#111" stroke-width="1" fill-opacity="0.9"/><path d="M -2.2818532373614113 -8.66456841413023 L -5.769828900185281 -21.908980132872152 A 22.656 22.656 0 0 1 -4.1618396822223646e-15 -22.656 L -1.6459252980540428e-15 -8.96 A 8.96 8.96 0 0 0 -2.2818532373614113 -8.66456841413023 Z" fill="#e0e0e0" stroke="#111" stroke-width="1" fill-opacity="0.9"/>
    <circle r="5.76" fill="#fff" stroke="#111" stroke-width="1.5"/>
  </g>
</svg>