<?xml version="1.0" encoding="UTF-8"?>
<svg xmlns="http://www.w3.org/2000/svg" width="64" height="64" viewBox="-32 -32 64 64">
  <g>
    <path d="M 5.486417660180143e-16 -8.96 L 1.711082572740021e-15 -27.944099048498607 A 27.944099048498607 27.944099048498607 0 0 1 16.911048210971984 -22.246103479901418 L 5.422360968136136 -7.1329938687225685 A 8.96 8.96 0 0 0 5.486417660180143e-16 -8.96 Z" fill="#A0AAE5" stroke="#111" stroke-width="1" fill-opacity="0.9"/><path d="M 5.422360968136136 -7.1329938687225685 L 18.590951890752464 -24.455978978477376 A 30.72 30.72 0 1 1 -3.321416245983484 -30.539918043781924 L -0.9687464050785164 -8.907476096103062 A 8.96 8.96 0 1 0 5.422360968136136 -7.1329938687225685 Z" fill="#7F142A" stroke="#111" stroke-width="1" fill-opacity="0.9"/><path d="M -0.9687464050785164 -8.907476096103062 L -2.5758190182504923 -23.684264749446285 A 23.823921598608507 23.823921598608507 0 0 1 -4.37638339933101e-15 -23.823921598608507 L -1.6459252980540428e-15 -8.96 A 8.96 8.96 0 0 0 -0.9687464050785164 -8.907476096103062 Z" fill="#51BF7E" stroke="#111" stroke-width="1" fill-opacity="0.9"/>
    <circle r="5.76" fill="#fff" stroke="#111" stroke-width="1.5"/>
  </g>
</svg>