<?xml version="1.0" encoding="UTF-8"?>
<svg xmlns="http://www.w3.org/2000/svg" width="64" height="64" viewBox="-32 -32 64 64">
  <g>
    <path d="M 5.486417660180143e-16 -8.96 L 1.7273237449117564e-15 -28.209337518611676 A 28.209337518611676 28.209337518611676 0 0 1 14.104668759305834 -24.430002915047194 L 4.4799999999999995 -7.759587617908571 A 8.96 8.96 0 0 0 5.486417660180143e-16 -8.96 Z" fill="#7F142A" stroke="#111" stroke-width="1" fill-opacity="0.9"/><path d="M 4.4799999999999995 -7.759587617908571 L 15.359999999999996 -26.604300404257955 A 30.72 30.72 0 0 1 -7.9509210655494265 29.673241383600182 L -2.319018644118583 8.654695403550054 A 8.96 8.96 0 0 0 4.4799999999999995 -7.759587617908571 Z" fill="#A0AAE5" stroke="#111" stroke-width="1" fill-opacity="0.9"/><path d="M -2.319018644118583 8.654695403550054 L -5.863804285842702 21.884015520405132 A 22.656 22.656 0 0 1 -16.02021123456241 16.020211234562428 L -6.335676759431463 6.33567675943147 A 8.96 8.96 0 0 0 -2.319018644118583 8.654695403550054 Z" fill="#7B86C9" stroke="#111" stroke-width="1" fill-opacity="0.9"/><path d="M -6.335676759431463 6.33567675943147 L -16.02021123456241 16.020211234562428 A 22.656 22.656 0 0 1 -5.863804285842727 -21.884015520405125 L -2.319018644118593 -8.65469540355005 A 8.96 8.96 0 0 0 -6.335676759431463 6.33567675943147 Z" fill="#4A0D19" stroke="#111" stroke-width="1" fill-opacity="0.9"/><path d="M -2.319018644118593 -8.65469540355005 L -6.389263387826141 -23.845055586306735 A 24.686218069057755 24.686218069057755 0 0 1 -2.6460550844147162e-14 -24.686218069057755 L -9.604003938567165e-15 -8.96 A 8.96 8.96 0 0 0 -2.319018644118593 -8.65469540355005 Z" fill="#51BF7E" stroke="#111" stroke-width="1" fill-opacity="0.9"/>
    <circle r="5.76" fill="#fff" stroke="#111" stroke-width="1.5"/>
  </g>
</svg>