<?xml version="1.0" encoding="UTF-8"?>
<svg xmlns="http://www.w3.org/2000/svg" width="64" height="64" viewBox="-32 -32 64 64">
  <g>
    <path d="M 5.486417660180143e-16 -8.96 L 1.741671888120325e-15 -28.443660479624732 A 28.443660479624732 28.443660479624732 0 1 1 -12.341241763089894 25.626852581328276 L -3.8875983024933207 8.072681056405676 A 8.96 8.96 0 1 0 5.486417660180143e-16 -8.96 Z" fill="#A0AAE5" stroke="#111" stroke-width="1" fill-opacity="0.9"/><path d="M -3.8875983024933207 8.072681056405676 L -13.328908465691383 27.677763621962317 A 30.72 30.72 0 0 1 -29.94978546222562 6.835843091137981 L -8.735354093149141 1.9937875682485782 A 8.96 8.96 0 0 0 -3.8875983024933207 8.072681056405676 Z" fill="#7F142A" stroke="#111" stroke-width="1" fill-opacity="0.9"/><path d="M -8.735354093149141 1.9937875682485782 L -27.329208645982188 6.237713533692302 A 28.03203016807801 28.03203016807801 0 0 1 -5.149400402840816e-15 -28.03203016807801 L -1.6459252980540428e-15 -8.96 A 8.96 8.96 0 0 0 -8.735354093149141 1.9937875682485782 Z" fill="#51BF7E" stroke="#111" stroke-width="1" fill-opacity="0.9"/>
    <circle r="5.76" fill="#fff" stroke="#111" stroke-width="1.5"/>
  </g>
</svg>