<?xml version="1.0" encoding="UTF-8"?>
<svg xmlns="http://www.w3.org/2000/svg" width="64" height="64" viewBox="-32 -32 64 64">
  <g>
    <path d="M 5.486417660180143e-16 -8.96 L 1.840497572290125e-15 -30.05760638204503 A 30.05760638204503 30.05760638204503 0 0 1 30.00675366930209 1.747694380542435 L 8.944841098110563 0.5209776670378635 A 8.96 8.96 0 0 0 5.486417660180143e-16 -8.96 Z" fill="#51BF7E" stroke="#111" stroke-width="1" fill-opacity="0.9"/><path d="M 8.944841098110563 0.5209776670378635 L 28.60660546346364 1.6661450340773483 A 28.655085332569655 28.655085332569655 0 0 1 -3.3266523607651517 28.461329896676723 L -1.0401925105620624 8.89941568536781 A 8.96 8.96 0 0 0 8.944841098110563 0.5209776670378635 Z" fill="#A0AAE5" stroke="#111" stroke-width="1" fill-opacity="0.9"/><path d="M -1.0401925105620624 8.89941568536781 L -2.630201062421215 22.50280823300146 A 22.656 22.656 0 0 1 -16.47937722347899 15.547490547554027 L -6.517267828494517 6.148725075303854 A 8.96 8.96 0 0 0 -1.0401925105620624 8.89941568536781 Z" fill="#7B86C9" stroke="#111" stroke-width="1" fill-opacity="0.9"/><path d="M -6.517267828494517 6.148725075303854 L -22.344918269124058 21.081343115327495 A 30.72 30.72 0 0 1 -5.643172450471003e-15 -30.72 L -1.6459252980540428e-15 -8.96 A 8.96 8.96 0 0 0 -6.517267828494517 6.148725075303854 Z" fill="#7F142A" stroke="#111" stroke-width="1" fill-opacity="0.9"/>
    <circle r="5.76" fill="#fff" stroke="#111" stroke-width="1.5"/>
  </g>
</svg>