<?xml version="1.0" encoding="UTF-8"?>
<svg xmlns="http://www.w3.org/2000/svg" width="64" height="64" viewBox="-32 -32 64 64">
  <g>
    <path d="M 5.486417660180143e-16 -8.96 L 1.8810574834903343e-15 -30.72 A 30.72 30.72 0 1 1 -6.603891923282667 -30.001783471413862 L -1.9261351442907781 -8.750520179162377 A 8.96 8.96 0 1 0 5.486417660180143e-16 -8.96 Z" fill="#A0AAE5" stroke="#111" stroke-width="1" fill-opacity="0.9"/><path d="M -1.9261351442907781 -8.750520179162377 L -4.870370293420967 -22.126315310167723 A 22.656 22.656 0 0 1 -2.4495444814128398 -22.523189557289168 L -0.9687464050785243 -8.907476096103062 A 8.96 8.96 0 0 0 -1.9261351442907781 -8.750520179162377 Z" fill="#7B86C9" stroke="#111" stroke-width="1" fill-opacity="0.9"/><path d="M -0.9687464050785243 -8.907476096103062 L -2.598232774903568 -23.890355838470526 A 24.031227926207308 24.031227926207308 0 0 1 -2.5758482996863862e-14 -24.031227926207308 L -9.604003938567165e-15 -8.96 A 8.96 8.96 0 0 0 -0.9687464050785243 -8.907476096103062 Z" fill="#51BF7E" stroke="#111" stroke-width="1" fill-opacity="0.9"/>
    <circle r="5.76" fill="#fff" stroke="#111" stroke-width="1.5"/>
  </g>
</svg>