<?xml version="1.0" encoding="UTF-8"?>
<svg xmlns="http://www.w3.org/2000/svg" width="64" height="64" viewBox="-32 -32 64 64">
  <g>
    <path d="M 5.486417660180143e-16 -8.96 L 1.8810574834903343e-15 -30.72 A 30.72 30.72 0 1 1 -28.381579238746724 -11.756035042255567 L -8.277960611301129 -3.428843553991207 A 8.96 8.96 0 1 0 5.486417660180143e-16 -8.96 Z" fill="#A0AAE5" stroke="#111" stroke-width="1" fill-opacity="0.9"/><path d="M -8.277960611301129 -3.428843553991207 L -27.978114622233726 -11.588914526158222 A 30.283293045992366 30.283293045992366 0 0 1 -11.588914526158204 -27.978114622233733 L -3.4288435539912023 -8.27796061130113 A 8.96 8.96 0 0 0 -8.277960611301129 -3.428843553991207 Z" fill="#7F142A" stroke="#111" stroke-width="1" fill-opacity="0.9"/><path d="M -3.4288435539912023 -8.27796061130113 L -10.170955227556052 -24.55485805265537 A 26.57798683548105 26.57798683548105 0 0 1 -4.882296975877853e-15 -26.57798683548105 L -1.6459252980540428e-15 -8.96 A 8.96 8.96 0 0 0 -3.4288435539912023 -8.27796061130113 Z" fill="#51BF7E" stroke="#111" stroke-width="1" fill-opacity="0.9"/>
    <circle r="5.76" fill="#fff" stroke="#111" stroke-width="1.5"/>
  </g>
</svg>