<?xml version="1.0" encoding="UTF-8"?>
<svg xmlns="http://www.w3.org/2000/svg" width="64" height="64" viewBox="-32 -32 64 64">
  <g>
    <path d="M 5.486417660180143e-16 -8.96 L 1.5410899768550764e-15 -25.167909276830564 A 25.167909276830564 25.167909276830564 0 0 1 21.796048793877308 -12.583954638415282 L 7.75958761790857 -4.48 A 8.96 8.96 0 0 0 5.486417660180143e-16 -8.96 Z" fill="#51BF7E" stroke="#111" stroke-width="1" fill-opacity="0.9"/><path d="M 7.75958761790857 -4.48 L 25.157623396281576 -14.524760640014396 A 29.04952128002879 29.04952128002879 0 0 1 18.67267234612797 22.253224351832554 L 5.7593769827913945 6.863758210346043 A 8.96 8.96 0 0 0 7.75958761790857 -4.48 Z" fill="#A0AAE5" stroke="#111" stroke-width="1" fill-opacity="0.9"/><path d="M 5.7593769827913945 6.863758210346043 L 19.74643536957049 23.532885292615 A 30.72 30.72 0 1 1 -10.506858802964537 -28.867357310543106 L -3.0645004841979904 -8.41964588224174 A 8.96 8.96 0 1 0 5.7593769827913945 6.863758210346043 Z" fill="#7F142A" stroke="#111" stroke-width="1" fill-opacity="0.9"/><path d="M -3.0645004841979904 -8.41964588224174 L -7.748808367186347 -21.28967601652554 A 22.656 22.656 0 0 1 -4.1618396822223646e-15 -22.656 L -1.6459252980540428e-15 -8.96 A 8.96 8.96 0 0 0 -3.0645004841979904 -8.41964588224174 Z" fill="#004F61" stroke="#111" stroke-width="1" fill-opacity="0.9"/>
    <circle r="5.76" fill="#fff" stroke="#111" stroke-width="1.5"/>
  </g>
</svg>