<?xml version="1.0" encoding="UTF-8"?>
<svg xmlns="http://www.w3.org/2000/svg" width="64" height="64" viewBox="-32 -32 64 64">
  <g>
    <path d="M 5.486417660180143e-16 -8.96 L 1.6226042185811493e-15 -26.499137869153287 A 26.499137869153287 26.499137869153287 0 0 1 6.341658782203998 -25.729121082899212 L 2.1442683520165184 -8.699638684137426 A 8.96 8.96 0 0 0 5.486417660180143e-16 -8.96 Z" fill="#A0AAE5" stroke="#111" stroke-width="1" fill-opacity="0.9"/><path d="M 2.1442683520165184 -8.699638684137426 L 7.351777206913776 -29.827332631328318 A 30.72 30.72 0 1 1 -11.756035042255574 -28.38157923874672 L -3.42884355399121 -8.277960611301127 A 8.96 8.96 0 1 0 2.1442683520165184 -8.699638684137426 Z" fill="#7F142A" stroke="#111" stroke-width="1" fill-opacity="0.9"/><path d="M -3.42884355399121 -8.277960611301127 L -8.670075843663486 -20.931414688575707 A 22.656 22.656 0 0 1 -6.740229188143491 -21.630155951617606 L -2.665627362542624 -8.554298963916569 A 8.96 8.96 0 0 0 -3.42884355399121 -8.277960611301127 Z" fill="#004F61" stroke="#111" stroke-width="1" fill-opacity="0.9"/><path d="M -2.665627362542624 -8.554298963916569 L -7.579490443239508 -24.323440011425266 A 25.477017277706636 25.477017277706636 0 0 1 -4.680052149144787e-15 -25.477017277706636 L -1.6459252980540428e-15 -8.96 A 8.96 8.96 0 0 0 -2.665627362542624 -8.554298963916569 Z" fill="#51BF7E" stroke="#111" stroke-width="1" fill-opacity="0.9"/>
    <circle r="5.76" fill="#fff" stroke="#111" stroke-width="1.5"/>
  </g>
</svg>