<?xml version="1.0" encoding="UTF-8"?>
<svg xmlns="http://www.w3.org/2000/svg" width="64" height="64" viewBox="-32 -32 64 64">
  <g>
    <path d="M 5.486417660180143e-16 -8.96 L 1.492784261467555e-15 -24.37901707670962 A 24.37901707670962 24.37901707670962 0 0 1 8.80671674879564 -22.73275640420628 L 3.2367253290368914 -8.354951175463029 A 8.96 8.96 0 0 0 5.486417660180143e-16 -8.96 Z" fill="#51BF7E" stroke="#111" stroke-width="1" fill-opacity="0.9"/><path d="M 3.2367253290368914 -8.354951175463029 L 10.023561265611592 -25.873794179306074 A 27.747522514245517 27.747522514245517 0 0 1 21.071605022305228 -18.053045933097355 L 6.804268053226176 -5.82953996983001 A 8.96 8.96 0 0 0 3.2367253290368914 -8.354951175463029 Z" fill="#A0AAE5" stroke="#111" stroke-width="1" fill-opacity="0.9"/><path d="M 6.804268053226176 -5.82953996983001 L 23.328919039632602 -19.986994182274316 A 30.72 30.72 0 1 1 2.1641668602716842e-14 -30.72 L 6.31215334245908e-15 -8.96 A 8.96 8.96 0 1 0 6.804268053226176 -5.82953996983001 Z" fill="#7F142A" stroke="#111" stroke-width="1" fill-opacity="0.9"/>
    <circle r="5.76" fill="#fff" stroke="#111" stroke-width="1.5"/>
  </g>
</svg>