<?xml version="1.0" encoding="UTF-8"?>
<svg xmlns="http://www.w3.org/2000/svg" width="64" height="64" viewBox="-32 -32 64 64">
  <g>
    <path d="M 5.486417660180143e-16 -8.96 L 1.3872798940741216e-15 -22.656 A 22.656 22.656 0 0 1 21.647512947493354 -6.684274021021848 L 8.561163312567995 -2.643498200404121 A 8.96 8.96 0 0 0 5.486417660180143e-16 -8.96 Z" fill="#4A0D19" stroke="#111" stroke-width="1" fill-opacity="0.9"/><path d="M 8.561163312567995 -2.643498200404121 L 29.35255992880455 -9.063422401385557 A 30.72 30.72 0 0 1 -29.00052270754663 10.13351285039261 L -8.458485789701102 2.9556079146978447 A 8.96 8.96 0 0 0 8.561163312567995 -2.643498200404121 Z" fill="#7F142A" stroke="#111" stroke-width="1" fill-opacity="0.9"/><path d="M -8.458485789701102 2.9556079146978447 L -28.48052096749076 9.951811149074258 A 30.169166705869085 30.169166705869085 0 0 1 -0.7375081008291701 -30.160150887018634 L -0.2190339775657057 -8.95732237427412 A 8.96 8.96 0 0 0 -8.458485789701102 2.9556079146978447 Z" fill="#A0AAE5" stroke="#111" stroke-width="1" fill-opacity="0.9"/><path d="M -0.2190339775657057 -8.95732237427412 L -0.5538430575589987 -22.64922943209313 A 22.656 22.656 0 0 1 1.5960730594503672e-14 -22.656 L 6.31215334245908e-15 -8.96 A 8.96 8.96 0 0 0 -0.2190339775657057 -8.95732237427412 Z" fill="#7B86C9" stroke="#111" stroke-width="1" fill-opacity="0.9"/>
    <circle r="5.76" fill="#fff" stroke="#111" stroke-width="1.5"/>
  </g>
</svg>