<?xml version="1.0" encoding="UTF-8"?>
<svg xmlns="http://www.w3.org/2000/svg" width="64" height="64" viewBox="-32 -32 64 64">
  <g>
    <path d="M 5.486417660180143e-16 -8.96 L 1.8810574834903343e-15 -30.72 A 30.72 30.72 0 1 1 -7.3517772069137655 29.82733263132832 L -2.1442683520165153 8.699638684137428 A 8.96 8.96 0 1 0 5.486417660180143e-16 -8.96 Z" fill="#A0AAE5" stroke="#111" stroke-width="1" fill-opacity="0.9"/><path d="M -2.1442683520165153 8.699638684137428 L -5.421935690098902 21.997657815604637 A 22.656 22.656 0 0 1 -10.528768185823616 -20.060891717199127 L -4.163919621512164 -7.933685989852763 A 8.96 8.96 0 0 0 -2.1442683520165153 8.699638684137428 Z" fill="#7B86C9" stroke="#111" stroke-width="1" fill-opacity="0.9"/><path d="M -4.163919621512164 -7.933685989852763 L -10.528768185823616 -20.060891717199127 A 22.656 22.656 0 0 1 -4.1618396822223646e-15 -22.656 L -1.6459252980540428e-15 -8.96 A 8.96 8.96 0 0 0 -4.163919621512164 -7.933685989852763 Z" fill="#4A0D19" stroke="#111" stroke-width="1" fill-opacity="0.9"/>
    <circle r="5.76" fill="#fff" stroke="#111" stroke-width="1.5"/>
  </g>
</svg>