<?xml version="1.0" encoding="UTF-8"?>
<svg xmlns="http://www.w3.org/2000/svg" width="64" height="64" viewBox="-32 -32 64 64">
  <g>
    <path d="M 5.486417660180143e-16 -8.96 L 1.8810574834903343e-15 -30.72 A 30.72 30.72 0 1 1 -29.547283758269 -8.406927055014384 L -8.617957762828459 -2.4520203910458624 A 8.96 8.96 0 1 0 5.486417660180143e-16 -8.96 Z" fill="#7F142A" stroke="#111" stroke-width="1" fill-opacity="0.9"/><path d="M -8.617957762828459 -2.4520203910458624 L -27.403824151500768 -7.797060215581898 A 28.49146760228028 28.49146760228028 0 0 1 -19.194577604753242 -21.055448622788642 L -6.036312967073152 -6.621519898297107 A 8.96 8.96 0 0 0 -8.617957762828459 -2.4520203910458624 Z" fill="#A0AAE5" stroke="#111" stroke-width="1" fill-opacity="0.9"/><path d="M -6.036312967073152 -6.621519898297107 L -15.263248502456397 -16.742986028551254 A 22.656 22.656 0 0 1 -8.184291189136138 -21.126090829385085 L -3.236725329036891 -8.354951175463029 A 8.96 8.96 0 0 0 -6.036312967073152 -6.621519898297107 Z" fill="#7B86C9" stroke="#111" stroke-width="1" fill-opacity="0.9"/><path d="M -3.236725329036891 -8.354951175463029 L -8.184291189136138 -21.126090829385085 A 22.656 22.656 0 0 1 -4.1618396822223646e-15 -22.656 L -1.6459252980540428e-15 -8.96 A 8.96 8.96 0 0 0 -3.236725329036891 -8.354951175463029 Z" fill="#4A0D19" stroke="#111" stroke-width="1" fill-opacity="0.9"/>
    <circle r="5.76" fill="#fff" stroke="#111" stroke-width="1.5"/>
  </g>
</svg>