<?xml version="1.0" encoding="UTF-8"?>
<svg xmlns="http://www.w3.org/2000/svg" width="64" height="64" viewBox="-32 -32 64 64">
  <g>
    <path d="M 5.486417660180143e-16 -8.96 L 1.8810574834903343e-15 -30.72 A 30.72 30.72 0 1 1 -15.360000000000007 26.604300404257952 L -4.480000000000002 7.75958761790857 A 8.96 8.96 0 1 0 5.486417660180143e-16 -8.96 Z" fill="#7F142A" stroke="#111" stroke-width="1" fill-opacity="0.9"/><path d="M -4.480000000000002 7.75958761790857 L -14.892241819333975 25.794119469688404 A 29.784483638667936 29.784483638667936 0 0 1 -25.794119469688415 14.892241819333956 L -7.759587617908574 4.479999999999997 A 8.96 8.96 0 0 0 -4.480000000000002 7.75958761790857 Z" fill="#A0AAE5" stroke="#111" stroke-width="1" fill-opacity="0.9"/><path d="M -7.759587617908574 4.479999999999997 L -19.620671548140248 11.327999999999989 A 22.656 22.656 0 0 1 -4.1618396822223646e-15 -22.656 L -1.6459252980540428e-15 -8.96 A 8.96 8.96 0 0 0 -7.759587617908574 4.479999999999997 Z" fill="#4A0D19" stroke="#111" stroke-width="1" fill-opacity="0.9"/>
    <circle r="5.76" fill="#fff" stroke="#111" stroke-width="1.5"/>
  </g>
</svg>