<?xml version="1.0" encoding="UTF-8"?>
<svg xmlns="http://www.w3.org/2000/svg" width="64" height="64" viewBox="-32 -32 64 64">
  <g>
    <path d="M 5.486417660180143e-16 -8.96 L 1.3872798940741216e-15 -22.656 A 22.656 22.656 0 0 1 22.578618273559112 1.8709176510211614 L 8.929397057339763 0.7399109354320978 A 8.96 8.96 0 0 0 5.486417660180143e-16 -8.96 Z" fill="#e0e0e0" stroke="#111" stroke-width="1" fill-opacity="0.9"/><path d="M 8.929397057339763 0.7399109354320978 L 22.578618273559112 1.8709176510211614 A 22.656 22.656 0 0 1 -22.578618273559112 1.870917651021169 L -8.929397057339763 0.7399109354321008 A 8.96 8.96 0 0 0 8.929397057339763 0.7399109354320978 Z" fill="#004F61" stroke="#111" stroke-width="1" fill-opacity="0.9"/><path d="M -8.929397057339763 0.7399109354321008 L -30.615075625164895 2.5368374929100597 A 30.72 30.72 0 0 1 -5.643172450471003e-15 -30.72 L -1.6459252980540428e-15 -8.96 A 8.96 8.96 0 0 0 -8.929397057339763 0.7399109354321008 Z" fill="#A0AAE5" stroke="#111" stroke-width="1" fill-opacity="0.9"/>
    <circle r="5.76" fill="#fff" stroke="#111" stroke-width="1.5"/>
  </g>
</svg>