<?xml version="1.0" encoding="UTF-8"?>
<svg xmlns="http://www.w3.org/2000/svg" width="64" height="64" viewBox="-32 -32 64 64">
  <g>
    <path d="M 5.486417660180143e-16 -8.96 L 1.3872798940741216e-15 -22.656 A 22.656 22.656 0 0 1 5.029660338102093 -22.090650802620612 L 1.9891312071590201 -8.73641557165787 A 8.96 8.96 0 0 0 5.486417660180143e-16 -8.96 Z" fill="#4A0D19" stroke="#111" stroke-width="1" fill-opacity="0.9"/><path d="M 1.9891312071590201 -8.73641557165787 L 5.029660338102093 -22.090650802620612 A 22.656 22.656 0 0 1 6.338678981839049 -21.75121800647476 L 2.506822196207534 -8.602176612730132 A 8.96 8.96 0 0 0 1.9891312071590201 -8.73641557165787 Z" fill="#004F61" stroke="#111" stroke-width="1" fill-opacity="0.9"/><path d="M 2.506822196207534 -8.602176612730132 L 8.59481895842583 -29.493176957931876 A 30.72 30.72 0 0 1 2.0616026831596828 30.650745413069302 L 0.6013007825882408 8.939800745478546 A 8.96 8.96 0 0 0 2.506822196207534 -8.602176612730132 Z" fill="#A0AAE5" stroke="#111" stroke-width="1" fill-opacity="0.9"/><path d="M 0.6013007825882408 8.939800745478546 L 1.5204319788302658 22.60492474213861 A 22.656 22.656 0 0 1 -21.247605780630423 7.863433384401535 L -8.403007935842542 3.109832411910212 A 8.96 8.96 0 0 0 0.6013007825882408 8.939800745478546 Z" fill="#7B86C9" stroke="#111" stroke-width="1" fill-opacity="0.9"/><path d="M -8.403007935842542 3.109832411910212 L -28.449372186688045 10.528703578546427 A 30.33513436366478 30.33513436366478 0 0 1 -9.782163551165521 -28.714624377133067 L -2.889329065356885 -8.48135470028721 A 8.96 8.96 0 0 0 -8.403007935842542 3.109832411910212 Z" fill="#7F142A" stroke="#111" stroke-width="1" fill-opacity="0.9"/><path d="M -2.889329065356885 -8.48135470028721 L -8.540456123891293 -25.069708589947368 A 26.48451773374386 26.48451773374386 0 0 1 -3.41609775925407 -26.263281510279946 L -1.1557029744936071 -8.885153382736094 A 8.96 8.96 0 0 0 -2.889329065356885 -8.48135470028721 Z" fill="#51BF7E" stroke="#111" stroke-width="1" fill-opacity="0.9"/><path d="M -1.1557029744936071 -8.885153382736094 L -2.922277521219549 -22.46674498206126 A 22.656 22.656 0 0 1 -4.1618396822223646e-15 -22.656 L -1.6459252980540428e-15 -8.96 A 8.96 8.96 0 0 0 -1.1557029744936071 -8.885153382736094 Z" fill="#e0e0e0" stroke="#111" stroke-width="1" fill-opacity="0.9"/>
    <circle r="5.76" fill="#fff" stroke="#111" stroke-width="1.5"/>
  </g>
</svg>