<?xml version="1.0" encoding="UTF-8"?>
<svg xmlns="http://www.w3.org/2000/svg" width="64" height="64" viewBox="-32 -32 64 64">
  <g>
    <path d="M 5.486417660180143e-16 -8.96 L 1.8135415113615522e-15 -29.617380499001186 A 29.617380499001186 29.617380499001186 0 0 1 17.568430203949706 -23.844066091830133 L 5.3148905127750234 -7.213427676022965 A 8.96 8.96 0 0 0 5.486417660180143e-16 -8.96 Z" fill="#A0AAE5" stroke="#111" stroke-width="1" fill-opacity="0.9"/><path d="M 5.3148905127750234 -7.213427676022965 L 13.439080296588271 -18.239667123658066 A 22.656 22.656 0 1 1 -16.802870105560125 15.197298846034245 L -6.6452028666057 6.010231182047443 A 8.96 8.96 0 1 0 5.3148905127750234 -7.213427676022965 Z" fill="#7B86C9" stroke="#111" stroke-width="1" fill-opacity="0.9"/><path d="M -6.6452028666057 6.010231182047443 L -22.783552685505256 20.606506909876945 A 30.72 30.72 0 0 1 -5.643172450471003e-15 -30.72 L -1.6459252980540428e-15 -8.96 A 8.96 8.96 0 0 0 -6.6452028666057 6.010231182047443 Z" fill="#7F142A" stroke="#111" stroke-width="1" fill-opacity="0.9"/>
    <circle r="5.76" fill="#fff" stroke="#111" stroke-width="1.5"/>
  </g>
</svg>