<?xml version="1.0" encoding="UTF-8"?>
<svg xmlns="http://www.w3.org/2000/svg" width="64" height="64" viewBox="-32 -32 64 64">
  <g>
    <path d="M 5.486417660180143e-16 -8.96 L 1.8810574834903343e-15 -30.72 A 30.72 30.72 0 1 1 -30.7098153220397 -0.7909759074812254 L -8.957029468928246 -0.2307013063486908 A 8.96 8.96 0 1 0 5.486417660180143e-16 -8.96 Z" fill="#7F142A" stroke="#111" stroke-width="1" fill-opacity="0.9"/><path d="M -8.957029468928246 -0.2307013063486908 L -29.82675744992212 -0.7682314691173985 A 29.836649268418647 29.836649268418647 0 0 1 -14.69598395137671 -25.96639550009791 L -4.413230688866633 -7.797755759630187 A 8.96 8.96 0 0 0 -8.957029468928246 -0.2307013063486908 Z" fill="#A0AAE5" stroke="#111" stroke-width="1" fill-opacity="0.9"/><path d="M -4.413230688866633 -7.797755759630187 L -11.15916902756277 -19.717182420779185 A 22.656 22.656 0 0 1 -2.3295125111440647 -22.535920381924125 L -0.9212761343507602 -8.912510885506718 A 8.96 8.96 0 0 0 -4.413230688866633 -7.797755759630187 Z" fill="#4A0D19" stroke="#111" stroke-width="1" fill-opacity="0.9"/><path d="M -0.9212761343507602 -8.912510885506718 L -2.4215839588010044 -23.426628117520814 A 23.551453751862944 23.551453751862944 0 0 1 -2.5244224842843094e-14 -23.551453751862944 L -9.604003938567165e-15 -8.96 A 8.96 8.96 0 0 0 -0.9212761343507602 -8.912510885506718 Z" fill="#51BF7E" stroke="#111" stroke-width="1" fill-opacity="0.9"/>
    <circle r="5.76" fill="#fff" stroke="#111" stroke-width="1.5"/>
  </g>
</svg>