<?xml version="1.0" encoding="UTF-8"?>
<svg xmlns="http://www.w3.org/2000/svg" width="64" height="64" viewBox="-32 -32 64 64">
  <g>
    <path d="M 5.486417660180143e-16 -8.96 L 1.784589372391507e-15 -29.144556187694405 A 29.144556187694405 29.144556187694405 0 0 1 26.258337793945472 -12.645349013638613 L 8.072681056405676 -3.887598302493321 A 8.96 8.96 0 0 0 5.486417660180143e-16 -8.96 Z" fill="#7F142A" stroke="#111" stroke-width="1" fill-opacity="0.9"/><path d="M 8.072681056405676 -3.887598302493321 L 27.677763621962317 -13.328908465691384 A 30.72 30.72 0 0 1 30.72 0 L 8.96 0 A 8.96 8.96 0 0 0 8.072681056405676 -3.887598302493321 Z" fill="#A0AAE5" stroke="#111" stroke-width="1" fill-opacity="0.9"/><path d="M 8.96 0 L 22.656 0 A 22.656 22.656 0 1 1 -4.1618396822223646e-15 -22.656 L -1.6459252980540428e-15 -8.96 A 8.96 8.96 0 1 0 8.96 0 Z" fill="#7B86C9" stroke="#111" stroke-width="1" fill-opacity="0.9"/>
    <circle r="5.76" fill="#fff" stroke="#111" stroke-width="1.5"/>
  </g>
</svg>