<?xml version="1.0" encoding="UTF-8"?>
<svg xmlns="http://www.w3.org/2000/svg" width="64" height="64" viewBox="-32 -32 64 64">
  <g>
    <path d="M 5.486417660180143e-16 -8.96 L 1.8759647032571477e-15 -30.6368285870386 A 30.6368285870386 30.6368285870386 0 0 1 24.116805361967895 18.894310387112366 L 7.053163986257091 5.525801098751747 A 8.96 8.96 0 0 0 5.486417660180143e-16 -8.96 Z" fill="#7F142A" stroke="#111" stroke-width="1" fill-opacity="0.9"/><path d="M 7.053163986257091 5.525801098751747 L 24.18227652431002 18.945603767148842 A 30.72 30.72 0 1 1 -1.854827440812652 -30.66395302574031 L -0.5409913369036902 -8.943652965840924 A 8.96 8.96 0 1 0 7.053163986257091 5.525801098751747 Z" fill="#A0AAE5" stroke="#111" stroke-width="1" fill-opacity="0.9"/><path d="M -0.5409913369036902 -8.943652965840924 L -1.3679352375993308 -22.614665356483478 A 22.656 22.656 0 0 1 -2.42844099589484e-14 -22.656 L -9.604003938567165e-15 -8.96 A 8.96 8.96 0 0 0 -0.5409913369036902 -8.943652965840924 Z" fill="#7B86C9" stroke="#111" stroke-width="1" fill-opacity="0.9"/>
    <circle r="5.76" fill="#fff" stroke="#111" stroke-width="1.5"/>
  </g>
</svg>