<?xml version="1.0" encoding="UTF-8"?>
<svg xmlns="http://www.w3.org/2000/svg" width="64" height="64" viewBox="-32 -32 64 64">
  <g>
    <path d="M 5.486417660180143e-16 -8.96 L 1.8534729051173474e-15 -30.26950964813377 A 30.26950964813377 30.26950964813377 0 0 1 1.8534729051173474e-15 30.26950964813377 L 5.486417660180143e-16 8.96 A 8.96 8.96 0 0 0 5.486417660180143e-16 -8.96 Z" fill="#A0AAE5" stroke="#111" stroke-width="1" fill-opacity="0.9"/><path d="M 5.486417660180143e-16 8.96 L 1.8810574834903343e-15 30.72 A 30.72 30.72 0 0 1 -2.6774244172080612 -30.603101125378423 L -0.7809154550190179 -8.92590449490204 A 8.96 8.96 0 0 0 5.486417660180143e-16 8.96 Z" fill="#7F142A" stroke="#111" stroke-width="1" fill-opacity="0.9"/><path d="M -0.7809154550190179 -8.92590449490204 L -1.9746005076909452 -22.569787079966584 A 22.656 22.656 0 0 1 -4.1618396822223646e-15 -22.656 L -1.6459252980540428e-15 -8.96 A 8.96 8.96 0 0 0 -0.7809154550190179 -8.92590449490204 Z" fill="#4A0D19" stroke="#111" stroke-width="1" fill-opacity="0.9"/>
    <circle r="5.76" fill="#fff" stroke="#111" stroke-width="1.5"/>
  </g>
</svg>