<?xml version="1.0" encoding="UTF-8"?>
<svg xmlns="http://www.w3.org/2000/svg" width="64" height="64" viewBox="-32 -32 64 64">
  <g>
    <path d="M 5.486417660180143e-16 -8.96 L 1.3872798940741216e-15 -22.656 A 22.656 22.656 0 0 1 18.81507111776775 -12.620912599069124 L 7.440988577648264 -4.991321366863496 A 8.96 8.96 0 0 0 5.486417660180143e-16 -8.96 Z" fill="#e0e0e0" stroke="#111" stroke-width="1" fill-opacity="0.9"/><path d="M 7.440988577648264 -4.991321366863496 L 20.5895091559981 -13.811183273721024 A 24.792673730464024 24.792673730464024 0 0 1 21.35100068395454 -12.60204112431846 L 7.716189395626439 -4.554340919476944 A 8.96 8.96 0 0 0 7.440988577648264 -4.991321366863496 Z" fill="#A0AAE5" stroke="#111" stroke-width="1" fill-opacity="0.9"/><path d="M 7.716189395626439 -4.554340919476944 L 26.455506499290646 -15.614883152492379 A 30.72 30.72 0 1 1 -30.716810148555975 -0.44268984353457025 L -8.95906962666216 -0.12911787103091635 A 8.96 8.96 0 1 0 7.716189395626439 -4.554340919476944 Z" fill="#7F142A" stroke="#111" stroke-width="1" fill-opacity="0.9"/><path d="M -8.95906962666216 -0.12911787103091635 L -22.65364748456003 -0.3264837596067456 A 22.656 22.656 0 0 1 -6.439868962414914 -21.72147379315973 L -2.5468408325934693 -8.590413364526448 A 8.96 8.96 0 0 0 -8.95906962666216 -0.12911787103091635 Z" fill="#004F61" stroke="#111" stroke-width="1" fill-opacity="0.9"/><path d="M -2.5468408325934693 -8.590413364526448 L -6.439868962414914 -21.72147379315973 A 22.656 22.656 0 0 1 1.5960730594503672e-14 -22.656 L 6.31215334245908e-15 -8.96 A 8.96 8.96 0 0 0 -2.5468408325934693 -8.590413364526448 Z" fill="#4A0D19" stroke="#111" stroke-width="1" fill-opacity="0.9"/>
    <circle r="5.76" fill="#fff" stroke="#111" stroke-width="1.5"/>
  </g>
</svg>