<?xml version="1.0" encoding="UTF-8"?>
<svg xmlns="http://www.w3.org/2000/svg" width="64" height="64" viewBox="-32 -32 64 64">
  <g>
    <path d="M 5.486417660180143e-16 -8.96 L 1.45879446644367e-15 -23.823921598608507 A 23.823921598608507 23.823921598608507 0 0 1 2.5758190182505 -23.684264749446285 L 0.9687464050785192 -8.907476096103062 A 8.96 8.96 0 0 0 5.486417660180143e-16 -8.96 Z" fill="#51BF7E" stroke="#111" stroke-width="1" fill-opacity="0.9"/><path d="M 0.9687464050785192 -8.907476096103062 L 3.321416245983494 -30.539918043781924 A 30.72 30.72 0 1 1 -18.59095189075248 -24.45597897847737 L -5.42236096813614 -7.132993868722567 A 8.96 8.96 0 1 0 0.9687464050785192 -8.907476096103062 Z" fill="#7F142A" stroke="#111" stroke-width="1" fill-opacity="0.9"/><path d="M -5.42236096813614 -7.132993868722567 L -16.911048210971995 -22.246103479901414 A 27.944099048498607 27.944099048498607 0 0 1 -5.133247718220062e-15 -27.944099048498607 L -1.6459252980540428e-15 -8.96 A 8.96 8.96 0 0 0 -5.42236096813614 -7.132993868722567 Z" fill="#A0AAE5" stroke="#111" stroke-width="1" fill-opacity="0.9"/>
    <circle r="5.76" fill="#fff" stroke="#111" stroke-width="1.5"/>
  </g>
</svg>