<?xml version="1.0" encoding="UTF-8"?>
<svg xmlns="http://www.w3.org/2000/svg" width="64" height="64" viewBox="-32 -32 64 64">
  <g>
    <path d="M 5.486417660180143e-16 -8.96 L 1.3872798940741216e-15 -22.656 A 22.656 22.656 0 0 1 17.122262356570076 -14.836524788264379 L 6.771516186214154 -5.867552176149755 A 8.96 8.96 0 0 0 5.486417660180143e-16 -8.96 Z" fill="#e0e0e0" stroke="#111" stroke-width="1" fill-opacity="0.9"/><path d="M 6.771516186214154 -5.867552176149755 L 23.216626924162814 -20.117321746799156 A 30.72 30.72 0 0 1 27.943894897290807 -12.76154919941795 L 8.150302678376486 -3.722118516496902 A 8.96 8.96 0 0 0 6.771516186214154 -5.867552176149755 Z" fill="#7F142A" stroke="#111" stroke-width="1" fill-opacity="0.9"/><path d="M 8.150302678376486 -3.722118516496902 L 26.137610577999144 -11.936646790734308 A 28.734269145636546 28.734269145636546 0 0 1 28.441795717128766 4.0893128663623095 L 8.868800119253159 1.2751409509286342 A 8.96 8.96 0 0 0 8.150302678376486 -3.722118516496902 Z" fill="#A0AAE5" stroke="#111" stroke-width="1" fill-opacity="0.9"/><path d="M 8.868800119253159 1.2751409509286342 L 22.425394587254413 3.224284975919546 A 22.656 22.656 0 0 1 -17.122262356570072 14.83652478826438 L -6.7715161862141535 5.867552176149756 A 8.96 8.96 0 0 0 8.868800119253159 1.2751409509286342 Z" fill="#4A0D19" stroke="#111" stroke-width="1" fill-opacity="0.9"/><path d="M -6.7715161862141535 5.867552176149756 L -17.122262356570072 14.83652478826438 A 22.656 22.656 0 0 1 -4.1618396822223646e-15 -22.656 L -1.6459252980540428e-15 -8.96 A 8.96 8.96 0 0 0 -6.7715161862141535 5.867552176149756 Z" fill="#004F61" stroke="#111" stroke-width="1" fill-opacity="0.9"/>
    <circle r="5.76" fill="#fff" stroke="#111" stroke-width="1.5"/>
  </g>
</svg>