<?xml version="1.0" encoding="UTF-8"?>
<svg xmlns="http://www.w3.org/2000/svg" width="64" height="64" viewBox="-32 -32 64 64">
  <g>
    <path d="M 5.486417660180143e-16 -8.96 L 1.3872798940741216e-15 -22.656 A 22.656 22.656 0 0 1 8.184291189136138 -21.126090829385085 L 3.2367253290368914 -8.354951175463029 A 8.96 8.96 0 0 0 5.486417660180143e-16 -8.96 Z" fill="#4A0D19" stroke="#111" stroke-width="1" fill-opacity="0.9"/><path d="M 3.2367253290368914 -8.354951175463029 L 11.09734398526934 -28.64554688730181 A 30.72 30.72 0 1 1 -30.58895389578346 2.8344840027126326 L -8.92177821960351 0.8267245007911846 A 8.96 8.96 0 1 0 3.2367253290368914 -8.354951175463029 Z" fill="#7F142A" stroke="#111" stroke-width="1" fill-opacity="0.9"/><path d="M -8.92177821960351 0.8267245007911846 L -29.7049255867153 2.752566716213201 A 29.832184426211533 29.832184426211533 0 0 1 -20.097812688399376 -22.0462503111416 L -6.036312967073152 -6.621519898297107 A 8.96 8.96 0 0 0 -8.92177821960351 0.8267245007911846 Z" fill="#A0AAE5" stroke="#111" stroke-width="1" fill-opacity="0.9"/><path d="M -6.036312967073152 -6.621519898297107 L -17.346700056483694 -19.028423512886814 A 25.74857091637117 25.74857091637117 0 0 1 -4.729935743302887e-15 -25.74857091637117 L -1.6459252980540428e-15 -8.96 A 8.96 8.96 0 0 0 -6.036312967073152 -6.621519898297107 Z" fill="#51BF7E" stroke="#111" stroke-width="1" fill-opacity="0.9"/>
    <circle r="5.76" fill="#fff" stroke="#111" stroke-width="1.5"/>
  </g>
</svg>