<?xml version="1.0" encoding="UTF-8"?>
<svg xmlns="http://www.w3.org/2000/svg" width="64" height="64" viewBox="-32 -32 64 64">
  <g>
    <path d="M 5.486417660180143e-16 -8.96 L 1.810863354566699e-15 -29.573642879359056 A 29.573642879359056 29.573642879359056 0 0 1 29.35801772574646 3.5647087357344107 L 8.894671511918565 1.0800086550876937 A 8.96 8.96 0 0 0 5.486417660180143e-16 -8.96 Z" fill="#7F142A" stroke="#111" stroke-width="1" fill-opacity="0.9"/><path d="M 8.894671511918565 1.0800086550876937 L 30.496016612292216 3.7028868174435208 A 30.72 30.72 0 1 1 -7.3517772069138 -29.82733263132831 L -2.144268352016525 -8.699638684137424 A 8.96 8.96 0 1 0 8.894671511918565 1.0800086550876937 Z" fill="#A0AAE5" stroke="#111" stroke-width="1" fill-opacity="0.9"/><path d="M -2.144268352016525 -8.699638684137424 L -5.912543542331863 -23.98813211702002 A 24.706044879817927 24.706044879817927 0 0 1 -2.648180271564604e-14 -24.706044879817927 L -9.604003938567165e-15 -8.96 A 8.96 8.96 0 0 0 -2.144268352016525 -8.699638684137424 Z" fill="#51BF7E" stroke="#111" stroke-width="1" fill-opacity="0.9"/>
    <circle r="5.76" fill="#fff" stroke="#111" stroke-width="1.5"/>
  </g>
</svg>