<?xml version="1.0" encoding="UTF-8"?>
<svg xmlns="http://www.w3.org/2000/svg" width="64" height="64" viewBox="-32 -32 64 64">
  <g>
    <path d="M 5.486417660180143e-16 -8.96 L 1.8810574834903343e-15 -30.72 A 30.72 30.72 0 0 1 6.60125595567278 30.00236357035383 L 1.925366320404561 8.750689374686536 A 8.96 8.96 0 0 0 5.486417660180143e-16 -8.96 Z" fill="#A0AAE5" stroke="#111" stroke-width="1" fill-opacity="0.9"/><path d="M 1.925366320404561 8.750689374686536 L 4.868426267308675 22.12674313313595 A 22.656 22.656 0 0 1 -5.430558104466419 21.99553078864009 L -2.1476783463991493 8.698797487032804 A 8.96 8.96 0 0 0 1.925366320404561 8.750689374686536 Z" fill="#7B86C9" stroke="#111" stroke-width="1" fill-opacity="0.9"/><path d="M -2.1476783463991493 8.698797487032804 L -7.235774941424053 29.30724751344889 A 30.187268770418704 30.187268770418704 0 0 1 -28.431943912132954 -10.143754787790478 L -8.43899523968686 -3.010807091884585 A 8.96 8.96 0 0 0 -2.1476783463991493 8.698797487032804 Z" fill="#7F142A" stroke="#111" stroke-width="1" fill-opacity="0.9"/><path d="M -8.43899523968686 -3.010807091884585 L -21.338602248922488 -7.613040789479593 A 22.656 22.656 0 0 1 -18.19585780228776 -13.498336743425966 L -7.196101955707025 -5.338325265761682 A 8.96 8.96 0 0 0 -8.43899523968686 -3.010807091884585 Z" fill="#4A0D19" stroke="#111" stroke-width="1" fill-opacity="0.9"/><path d="M -7.196101955707025 -5.338325265761682 L -18.19585780228776 -13.498336743425966 A 22.656 22.656 0 0 1 -10.33957766541025 -20.15905428587734 L -4.089098511744167 -7.972507344697253 A 8.96 8.96 0 0 0 -7.196101955707025 -5.338325265761682 Z" fill="#004F61" stroke="#111" stroke-width="1" fill-opacity="0.9"/><path d="M -4.089098511744167 -7.972507344697253 L -12.285121360356825 -23.952277010358728 A 26.91905980564059 26.91905980564059 0 0 1 -4.910666864451266 -26.467359743012434 L -1.6345138137500526 -8.809651786118467 A 8.96 8.96 0 0 0 -4.089098511744167 -7.972507344697253 Z" fill="#51BF7E" stroke="#111" stroke-width="1" fill-opacity="0.9"/><path d="M -1.6345138137500526 -8.809651786118467 L -4.132984929053704 -22.275833802042403 A 22.656 22.656 0 0 1 -2.42844099589484e-14 -22.656 L -9.604003938567165e-15 -8.96 A 8.96 8.96 0 0 0 -1.6345138137500526 -8.809651786118467 Z" fill="#e0e0e0" stroke="#111" stroke-width="1" fill-opacity="0.9"/>
    <circle r="5.76" fill="#fff" stroke="#111" stroke-width="1.5"/>
  </g>
</svg>