<?xml version="1.0" encoding="UTF-8"?>
<svg xmlns="http://www.w3.org/2000/svg" width="64" height="64" viewBox="-32 -32 64 64">
  <g>
    <path d="M 5.486417660180143e-16 -8.96 L 1.3872798940741216e-15 -22.656 A 22.656 22.656 0 0 1 0.9882408401490526 -22.63443650815857 L 0.39082971079341067 -8.951472065373446 A 8.96 8.96 0 0 0 5.486417660180143e-16 -8.96 Z" fill="#004F61" stroke="#111" stroke-width="1" fill-opacity="0.9"/><path d="M 0.39082971079341067 -8.951472065373446 L 1.339987579863122 -30.69076136699467 A 30.72 30.72 0 1 1 -29.991813338724356 -6.649024940178509 L -8.747612223794604 -1.9392989408853987 A 8.96 8.96 0 1 0 0.39082971079341067 -8.951472065373446 Z" fill="#7F142A" stroke="#111" stroke-width="1" fill-opacity="0.9"/><path d="M -8.747612223794604 -1.9392989408853987 L -22.118962337309213 -4.90365589338165 A 22.656 22.656 0 0 1 -4.1618396822223646e-15 -22.656 L -1.6459252980540428e-15 -8.96 A 8.96 8.96 0 0 0 -8.747612223794604 -1.9392989408853987 Z" fill="#7B86C9" stroke="#111" stroke-width="1" fill-opacity="0.9"/>
    <circle r="5.76" fill="#fff" stroke="#111" stroke-width="1.5"/>
  </g>
</svg>