<?xml version="1.0" encoding="UTF-8"?>
<svg xmlns="http://www.w3.org/2000/svg" width="64" height="64" viewBox="-32 -32 64 64">
  <g>
    <path d="M 5.486417660180143e-16 -8.96 L 1.6316055614572394e-15 -26.646140954162895 A 26.646140954162895 26.646140954162895 0 0 1 24.68295902724885 -10.038344555168033 L 8.299862755533395 -3.37548192697126 A 8.96 8.96 0 0 0 5.486417660180143e-16 -8.96 Z" fill="#51BF7E" stroke="#111" stroke-width="1" fill-opacity="0.9"/><path d="M 8.299862755533395 -3.37548192697126 L 28.45667230468592 -11.57308089247289 A 30.72 30.72 0 1 1 -26.735162604446373 -15.13107664754271 L -7.797755759630193 -4.413230688866624 A 8.96 8.96 0 1 0 8.299862755533395 -3.37548192697126 Z" fill="#7F142A" stroke="#111" stroke-width="1" fill-opacity="0.9"/><path d="M -7.797755759630193 -4.413230688866624 L -25.121714840549203 -14.217927094516455 A 28.86607017581117 28.86607017581117 0 0 1 -5.904614295406094 -28.255716897954315 L -1.8327865124907639 -8.770546938454405 A 8.96 8.96 0 0 0 -7.797755759630193 -4.413230688866624 Z" fill="#A0AAE5" stroke="#111" stroke-width="1" fill-opacity="0.9"/><path d="M -1.8327865124907639 -8.770546938454405 L -4.6343316101552166 -22.176954401520423 A 22.656 22.656 0 0 1 -0.5833447317674307 -22.648488800004277 L -0.23070130634870148 -8.957029468928246 A 8.96 8.96 0 0 0 -1.8327865124907639 -8.770546938454405 Z" fill="#7B86C9" stroke="#111" stroke-width="1" fill-opacity="0.9"/><path d="M -0.23070130634870148 -8.957029468928246 L -0.5833447317674307 -22.648488800004277 A 22.656 22.656 0 0 1 -4.1618396822223646e-15 -22.656 L -1.6459252980540428e-15 -8.96 A 8.96 8.96 0 0 0 -0.23070130634870148 -8.957029468928246 Z" fill="#4A0D19" stroke="#111" stroke-width="1" fill-opacity="0.9"/>
    <circle r="5.76" fill="#fff" stroke="#111" stroke-width="1.5"/>
  </g>
</svg>