<?xml version="1.0" encoding="UTF-8"?>
<svg xmlns="http://www.w3.org/2000/svg" width="64" height="64" viewBox="-32 -32 64 64">
  <g>
    <path d="M 5.486417660180143e-16 -8.96 L 1.8810574834903343e-15 -30.72 A 30.72 30.72 0 1 1 -13.096259938063433 27.788601541543514 L -3.8197424819351684 8.105008782950193 A 8.96 8.96 0 1 0 5.486417660180143e-16 -8.96 Z" fill="#7F142A" stroke="#111" stroke-width="1" fill-opacity="0.9"/><path d="M -3.8197424819351684 8.105008782950193 L -12.879993715191347 27.329712062966493 A 30.21270261906447 30.21270261906447 0 0 1 -12.879993715191366 -27.32971206296649 L -3.819742481935174 -8.105008782950192 A 8.96 8.96 0 0 0 -3.8197424819351684 8.105008782950193 Z" fill="#A0AAE5" stroke="#111" stroke-width="1" fill-opacity="0.9"/><path d="M -3.819742481935174 -8.105008782950192 L -9.658491704321795 -20.494093636888337 A 22.656 22.656 0 0 1 -4.1618396822223646e-15 -22.656 L -1.6459252980540428e-15 -8.96 A 8.96 8.96 0 0 0 -3.819742481935174 -8.105008782950192 Z" fill="#4A0D19" stroke="#111" stroke-width="1" fill-opacity="0.9"/>
    <circle r="5.76" fill="#fff" stroke="#111" stroke-width="1.5"/>
  </g>
</svg>