<?xml version="1.0" encoding="UTF-8"?>
<svg xmlns="http://www.w3.org/2000/svg" width="64" height="64" viewBox="-32 -32 64 64">
  <g>
    <path d="M 5.486417660180143e-16 -8.96 L 1.6514453477745967e-15 -26.970149253227905 A 26.970149253227905 26.970149253227905 0 0 1 24.532910680222876 -11.203804902692486 L 8.150302678376486 -3.722118516496902 A 8.96 8.96 0 0 0 5.486417660180143e-16 -8.96 Z" fill="#51BF7E" stroke="#111" stroke-width="1" fill-opacity="0.9"/><path d="M 8.150302678376486 -3.722118516496902 L 27.943894897290807 -12.76154919941795 A 30.72 30.72 0 0 1 -8.654824146168712 29.475624149437362 L -2.524323709299208 8.597057043585899 A 8.96 8.96 0 0 0 8.150302678376486 -3.722118516496902 Z" fill="#A0AAE5" stroke="#111" stroke-width="1" fill-opacity="0.9"/><path d="M -2.524323709299208 8.597057043585899 L -6.382932807799425 21.738272810210052 A 22.656 22.656 0 0 1 -4.1618396822223646e-15 -22.656 L -1.6459252980540428e-15 -8.96 A 8.96 8.96 0 0 0 -2.524323709299208 8.597057043585899 Z" fill="#7B86C9" stroke="#111" stroke-width="1" fill-opacity="0.9"/>
    <circle r="5.76" fill="#fff" stroke="#111" stroke-width="1.5"/>
  </g>
</svg>