<?xml version="1.0" encoding="UTF-8"?>
<svg xmlns="http://www.w3.org/2000/svg" width="64" height="64" viewBox="-32 -32 64 64">
  <g>
    <path d="M 5.486417660180143e-16 -8.96 L 1.8810574834903343e-15 -30.72 A 30.72 30.72 0 0 1 22.934114967919495 20.438805509086162 L 6.689116865643188 5.9613182734834655 A 8.96 8.96 0 0 0 5.486417660180143e-16 -8.96 Z" fill="#A0AAE5" stroke="#111" stroke-width="1" fill-opacity="0.9"/><path d="M 6.689116865643188 5.9613182734834655 L 16.913909788840627 15.073619062951046 A 22.656 22.656 0 1 1 -10.052916646713827 -20.30352685850968 L -3.9757297472879545 -8.029643390371062 A 8.96 8.96 0 1 0 6.689116865643188 5.9613182734834655 Z" fill="#7B86C9" stroke="#111" stroke-width="1" fill-opacity="0.9"/><path d="M -3.9757297472879545 -8.029643390371062 L -13.113041081918928 -26.483953976730984 A 29.552523828899936 29.552523828899936 0 0 1 -4.511171609342797 -29.20618077340408 L -1.3677375866011123 -8.854992597071924 A 8.96 8.96 0 0 0 -3.9757297472879545 -8.029643390371062 Z" fill="#7F142A" stroke="#111" stroke-width="1" fill-opacity="0.9"/><path d="M -1.3677375866011123 -8.854992597071924 L -3.458422183262812 -22.390481281167574 A 22.656 22.656 0 0 1 1.5960730594503672e-14 -22.656 L 6.31215334245908e-15 -8.96 A 8.96 8.96 0 0 0 -1.3677375866011123 -8.854992597071924 Z" fill="#4A0D19" stroke="#111" stroke-width="1" fill-opacity="0.9"/>
    <circle r="5.76" fill="#fff" stroke="#111" stroke-width="1.5"/>
  </g>
</svg>