<?xml version="1.0" encoding="UTF-8"?>
<svg xmlns="http://www.w3.org/2000/svg" width="64" height="64" viewBox="-32 -32 64 64">
  <g>
    <path d="M 5.486417660180143e-16 -8.96 L 1.3872798940741216e-15 -22.656 A 22.656 22.656 0 0 1 0.29967935800709555 -22.654017928005274 L 0.11851726022879487 -8.959216129719602 A 8.96 8.96 0 0 0 5.486417660180143e-16 -8.96 Z" fill="#004F61" stroke="#111" stroke-width="1" fill-opacity="0.9"/><path d="M 0.11851726022879487 -8.959216129719602 L 0.29967935800709555 -22.654017928005274 A 22.656 22.656 0 0 1 1.198193134971088 -22.62429378370313 L 0.4738616917964755 -8.947460818413669 A 8.96 8.96 0 0 0 0.11851726022879487 -8.959216129719602 Z" fill="#4A0D19" stroke="#111" stroke-width="1" fill-opacity="0.9"/><path d="M 0.4738616917964755 -8.947460818413669 L 1.6246686575879157 -30.67700852027543 A 30.72 30.72 0 1 1 -13.355053567590135 -27.66515758507076 L -3.8952239572137897 -8.06900429564564 A 8.96 8.96 0 1 0 0.4738616917964755 -8.947460818413669 Z" fill="#A0AAE5" stroke="#111" stroke-width="1" fill-opacity="0.9"/><path d="M -3.8952239572137897 -8.06900429564564 L -9.849352006097725 -20.403053718989682 A 22.656 22.656 0 0 1 -0.5993062808038374 -22.648072058826312 L -0.2370137833687493 -8.956864656033005 A 8.96 8.96 0 0 0 -3.8952239572137897 -8.06900429564564 Z" fill="#7B86C9" stroke="#111" stroke-width="1" fill-opacity="0.9"/><path d="M -0.2370137833687493 -8.956864656033005 L -0.6119409629344587 -23.125542762038144 A 23.133637841484678 23.133637841484678 0 0 1 -0.30599725179663717 -23.13161398309389 L -0.11851726022879198 -8.959216129719602 A 8.96 8.96 0 0 0 -0.2370137833687493 -8.956864656033005 Z" fill="#51BF7E" stroke="#111" stroke-width="1" fill-opacity="0.9"/><path d="M -0.11851726022879198 -8.959216129719602 L -0.2996793580070882 -22.654017928005274 A 22.656 22.656 0 0 1 1.5960730594503672e-14 -22.656 L 6.31215334245908e-15 -8.96 A 8.96 8.96 0 0 0 -0.11851726022879198 -8.959216129719602 Z" fill="#e0e0e0" stroke="#111" stroke-width="1" fill-opacity="0.9"/>
    <circle r="5.76" fill="#fff" stroke="#111" stroke-width="1.5"/>
  </g>
</svg>