<?xml version="1.0" encoding="UTF-8"?>
<svg xmlns="http://www.w3.org/2000/svg" width="64" height="64" viewBox="-32 -32 64 64">
  <g>
    <path d="M 5.486417660180143e-16 -8.96 L 1.4988257257288145e-15 -24.477681675604025 A 24.477681675604025 24.477681675604025 0 0 1 3.0986897811119163 -24.280754145055578 L 1.1342683840207937 -8.887915122963927 A 8.96 8.96 0 0 0 5.486417660180143e-16 -8.96 Z" fill="#51BF7E" stroke="#111" stroke-width="1" fill-opacity="0.9"/><path d="M 1.1342683840207937 -8.887915122963927 L 2.868078628166864 -22.4737282394945 A 22.656 22.656 0 0 1 5.690008797574531 -21.929845778835848 L 2.2502859651424703 -8.672820364511352 A 8.96 8.96 0 0 0 1.1342683840207937 -8.887915122963927 Z" fill="#e0e0e0" stroke="#111" stroke-width="1" fill-opacity="0.9"/><path d="M 2.2502859651424703 -8.672820364511352 L 5.690008797574531 -21.929845778835848 A 22.656 22.656 0 0 1 7.069429745744924 -21.52481124353886 L 2.795819673458445 -8.512637214958872 A 8.96 8.96 0 0 0 2.2502859651424703 -8.672820364511352 Z" fill="#004F61" stroke="#111" stroke-width="1" fill-opacity="0.9"/><path d="M 2.795819673458445 -8.512637214958872 L 9.585667451857525 -29.18618473700184 A 30.72 30.72 0 0 1 -2.9201216503044924 30.580897461445158 L -0.851702148005477 8.91942842625484 A 8.96 8.96 0 0 0 2.795819673458445 -8.512637214958872 Z" fill="#A0AAE5" stroke="#111" stroke-width="1" fill-opacity="0.9"/><path d="M -0.851702148005477 8.91942842625484 L -2.153589717099563 22.553411877815805 A 22.656 22.656 0 0 1 -14.562996085058222 -17.355502903303574 L -5.759376982791388 -6.863758210346048 A 8.96 8.96 0 0 0 -0.851702148005477 8.91942842625484 Z" fill="#7B86C9" stroke="#111" stroke-width="1" fill-opacity="0.9"/><path d="M -5.759376982791388 -6.863758210346048 L -18.745677127754917 -22.340228062613065 A 29.163096558280607 29.163096558280607 0 0 1 2.05448590866973e-14 -29.163096558280607 L 6.31215334245908e-15 -8.96 A 8.96 8.96 0 0 0 -5.759376982791388 -6.863758210346048 Z" fill="#7F142A" stroke="#111" stroke-width="1" fill-opacity="0.9"/>
    <circle r="5.76" fill="#fff" stroke="#111" stroke-width="1.5"/>
  </g>
</svg>