<?xml version="1.0" encoding="UTF-8"?>
<svg xmlns="http://www.w3.org/2000/svg" width="64" height="64" viewBox="-32 -32 64 64">
  <g>
    <path d="M 5.486417660180143e-16 -8.96 L 1.3872798940741216e-15 -22.656 A 22.656 22.656 0 0 1 10.285608762099173 -20.18664381201166 L 4.06775487766634 -7.983418456727776 A 8.96 8.96 0 0 0 5.486417660180143e-16 -8.96 Z" fill="#e0e0e0" stroke="#111" stroke-width="1" fill-opacity="0.9"/><path d="M 4.06775487766634 -7.983418456727776 L 13.94658815199888 -27.37172042306666 A 30.72 30.72 0 0 1 21.72232031805074 21.722320318050738 L 6.3356767594314665 6.335676759431466 A 8.96 8.96 0 0 0 4.06775487766634 -7.983418456727776 Z" fill="#A0AAE5" stroke="#111" stroke-width="1" fill-opacity="0.9"/><path d="M 6.3356767594314665 6.335676759431466 L 21.41795529240339 21.417955292403388 A 30.289562852817483 30.289562852817483 0 0 1 1.854700809763775e-15 30.289562852817483 L 5.486417660180143e-16 8.96 A 8.96 8.96 0 0 0 6.3356767594314665 6.335676759431466 Z" fill="#7F142A" stroke="#111" stroke-width="1" fill-opacity="0.9"/><path d="M 5.486417660180143e-16 8.96 L 1.3872798940741216e-15 22.656 A 22.656 22.656 0 0 1 -21.547136433183 -7.001089024558805 L -8.521466386004578 -2.768792269599528 A 8.96 8.96 0 0 0 5.486417660180143e-16 8.96 Z" fill="#004F61" stroke="#111" stroke-width="1" fill-opacity="0.9"/><path d="M -8.521466386004578 -2.768792269599528 L -21.547136433183 -7.001089024558805 A 22.656 22.656 0 0 1 -4.1618396822223646e-15 -22.656 L -1.6459252980540428e-15 -8.96 A 8.96 8.96 0 0 0 -8.521466386004578 -2.768792269599528 Z" fill="#4A0D19" stroke="#111" stroke-width="1" fill-opacity="0.9"/>
    <circle r="5.76" fill="#fff" stroke="#111" stroke-width="1.5"/>
  </g>
</svg>