<?xml version="1.0" encoding="UTF-8"?>
<svg xmlns="http://www.w3.org/2000/svg" width="64" height="64" viewBox="-32 -32 64 64">
  <g>
    <path d="M 5.486417660180143e-16 -8.96 L 1.7525435561546192e-15 -28.621208292461276 A 28.621208292461276 28.621208292461276 0 0 1 25.287182252987925 -13.406415547215689 L 7.916267918236366 -4.19693962867012 A 8.96 8.96 0 0 0 5.486417660180143e-16 -8.96 Z" fill="#A0AAE5" stroke="#111" stroke-width="1" fill-opacity="0.9"/><path d="M 7.916267918236366 -4.19693962867012 L 27.141490005381822 -14.389507298297552 A 30.72 30.72 0 1 1 -23.413618333521 -19.88770666849773 L -6.828972013943626 -5.800581111645172 A 8.96 8.96 0 1 0 7.916267918236366 -4.19693962867012 Z" fill="#7F142A" stroke="#111" stroke-width="1" fill-opacity="0.9"/><path d="M -6.828972013943626 -5.800581111645172 L -17.26754352097174 -14.667183668017078 A 22.656 22.656 0 0 1 -9.51300748494936 -20.5620287080652 L -3.762206349979974 -8.131875760251775 A 8.96 8.96 0 0 0 -6.828972013943626 -5.800581111645172 Z" fill="#004F61" stroke="#111" stroke-width="1" fill-opacity="0.9"/><path d="M -3.762206349979974 -8.131875760251775 L -10.438920940654478 -22.563357844777617 A 24.861138100190068 24.861138100190068 0 0 1 -4.5669169796337116e-15 -24.861138100190068 L -1.6459252980540428e-15 -8.96 A 8.96 8.96 0 0 0 -3.762206349979974 -8.131875760251775 Z" fill="#51BF7E" stroke="#111" stroke-width="1" fill-opacity="0.9"/>
    <circle r="5.76" fill="#fff" stroke="#111" stroke-width="1.5"/>
  </g>
</svg>