<?xml version="1.0" encoding="UTF-8"?>
<svg xmlns="http://www.w3.org/2000/svg" width="64" height="64" viewBox="-32 -32 64 64">
  <g>
    <path d="M 5.486417660180143e-16 -8.96 L 1.5752974515302127e-15 -25.726559733418586 A 25.726559733418586 25.726559733418586 0 0 1 6.397935237243764 -24.918312551559126 L 2.228261388997099 -8.678505123712535 A 8.96 8.96 0 0 0 5.486417660180143e-16 -8.96 Z" fill="#51BF7E" stroke="#111" stroke-width="1" fill-opacity="0.9"/><path d="M 2.228261388997099 -8.678505123712535 L 7.639753333704338 -29.754874709871544 A 30.72 30.72 0 1 1 -18.05676295042478 24.85300206719838 L -5.266555860540562 7.2487922695995275 A 8.96 8.96 0 1 0 2.228261388997099 -8.678505123712535 Z" fill="#A0AAE5" stroke="#111" stroke-width="1" fill-opacity="0.9"/><path d="M -5.266555860540562 7.2487922695995275 L -18.033440338975577 24.82090124646152 A 30.68032120343571 30.68032120343571 0 0 1 -5.6358835737900315e-15 -30.68032120343571 L -1.6459252980540428e-15 -8.96 A 8.96 8.96 0 0 0 -5.266555860540562 7.2487922695995275 Z" fill="#7F142A" stroke="#111" stroke-width="1" fill-opacity="0.9"/>
    <circle r="5.76" fill="#fff" stroke="#111" stroke-width="1.5"/>
  </g>
</svg>