<?xml version="1.0" encoding="UTF-8"?>
<svg xmlns="http://www.w3.org/2000/svg" width="64" height="64" viewBox="-32 -32 64 64">
  <g>
    <path d="M 5.486417660180143e-16 -8.96 L 1.5947067963371745e-15 -26.043538389149777 A 26.043538389149777 26.043538389149777 0 0 1 2.9958555807632243 -25.870654053702005 L 1.0306919744369962 -8.900520999010743 A 8.96 8.96 0 0 0 5.486417660180143e-16 -8.96 Z" fill="#51BF7E" stroke="#111" stroke-width="1" fill-opacity="0.9"/><path d="M 1.0306919744369962 -8.900520999010743 L 2.6061782782192617 -22.505603097498586 A 22.656 22.656 0 0 1 3.898441988760982 -22.318075321592254 L 1.5417567187190326 -8.826357471816147 A 8.96 8.96 0 0 0 1.0306919744369962 -8.900520999010743 Z" fill="#4A0D19" stroke="#111" stroke-width="1" fill-opacity="0.9"/><path d="M 1.5417567187190326 -8.826357471816147 L 5.2148623634148406 -29.854411417166983 A 30.306446022832024 30.306446022832024 0 0 1 11.091545182236361 28.203870230967244 L 3.2791784545758857 8.338380458041316 A 8.96 8.96 0 0 0 1.5417567187190326 -8.826357471816147 Z" fill="#7F142A" stroke="#111" stroke-width="1" fill-opacity="0.9"/><path d="M 3.2791784545758857 8.338380458041316 L 11.242897558545891 28.588732998998797 A 30.72 30.72 0 1 1 -1.7698401430912205 -30.668975624691196 L -0.5162033750682727 -8.945117890534933 A 8.96 8.96 0 1 0 3.2791784545758857 8.338380458041316 Z" fill="#A0AAE5" stroke="#111" stroke-width="1" fill-opacity="0.9"/><path d="M -0.5162033750682727 -8.945117890534933 L -1.305257105529775 -22.618369523209758 A 22.656 22.656 0 0 1 -4.1618396822223646e-15 -22.656 L -1.6459252980540428e-15 -8.96 A 8.96 8.96 0 0 0 -0.5162033750682727 -8.945117890534933 Z" fill="#7B86C9" stroke="#111" stroke-width="1" fill-opacity="0.9"/>
    <circle r="5.76" fill="#fff" stroke="#111" stroke-width="1.5"/>
  </g>
</svg>