<?xml version="1.0" encoding="UTF-8"?>
<svg xmlns="http://www.w3.org/2000/svg" width="64" height="64" viewBox="-32 -32 64 64">
  <g>
    <path d="M 5.486417660180143e-16 -8.96 L 1.3872798940741216e-15 -22.656 A 22.656 22.656 0 0 1 2.449544481412827 -22.52318955728917 L 0.9687464050785192 -8.907476096103062 A 8.96 8.96 0 0 0 5.486417660180143e-16 -8.96 Z" fill="#4A0D19" stroke="#111" stroke-width="1" fill-opacity="0.9"/><path d="M 0.9687464050785192 -8.907476096103062 L 3.321416245983494 -30.539918043781924 A 30.72 30.72 0 1 1 -9.017013445752873 29.36684982287191 L -2.629962255011255 8.565331198337642 A 8.96 8.96 0 1 0 0.9687464050785192 -8.907476096103062 Z" fill="#A0AAE5" stroke="#111" stroke-width="1" fill-opacity="0.9"/><path d="M -2.629962255011255 8.565331198337642 L -6.650047416242744 21.658051744368034 A 22.656 22.656 0 0 1 -8.385850047381096 21.046896564169227 L -3.3164378718456318 8.323631409558454 A 8.96 8.96 0 0 0 -2.629962255011255 8.565331198337642 Z" fill="#7B86C9" stroke="#111" stroke-width="1" fill-opacity="0.9"/><path d="M -3.3164378718456318 8.323631409558454 L -11.320496513769248 28.412303801538734 A 30.584516485130088 30.584516485130088 0 0 1 -3.306767901343151 -30.405228739081057 L -0.9687464050785243 -8.907476096103062 A 8.96 8.96 0 0 0 -3.3164378718456318 8.323631409558454 Z" fill="#7F142A" stroke="#111" stroke-width="1" fill-opacity="0.9"/><path d="M -0.9687464050785243 -8.907476096103062 L -2.7623278341234374 -25.399184991102192 A 25.548954054430567 25.548954054430567 0 0 1 -2.7385296357703426e-14 -25.548954054430567 L -9.604003938567165e-15 -8.96 A 8.96 8.96 0 0 0 -0.9687464050785243 -8.907476096103062 Z" fill="#51BF7E" stroke="#111" stroke-width="1" fill-opacity="0.9"/>
    <circle r="5.76" fill="#fff" stroke="#111" stroke-width="1.5"/>
  </g>
</svg>