<?xml version="1.0" encoding="UTF-8"?>
<svg xmlns="http://www.w3.org/2000/svg" width="64" height="64" viewBox="-32 -32 64 64">
  <g>
    <path d="M 5.486417660180143e-16 -8.96 L 1.5147620435646276e-15 -24.737941496589283 A 24.737941496589283 24.737941496589283 0 0 1 14.131999683875955 -20.3039979911249 L 5.118563207249339 -7.354040433217197 A 8.96 8.96 0 0 0 5.486417660180143e-16 -8.96 Z" fill="#51BF7E" stroke="#111" stroke-width="1" fill-opacity="0.9"/><path d="M 5.118563207249339 -7.354040433217197 L 16.189682042295246 -23.26035090693955 A 28.339896417322713 28.339896417322713 0 0 1 28.01308992326323 -4.291447529185093 L 8.856676185979879 -1.3567928864410068 A 8.96 8.96 0 0 0 5.118563207249339 -7.354040433217197 Z" fill="#A0AAE5" stroke="#111" stroke-width="1" fill-opacity="0.9"/><path d="M 8.856676185979879 -1.3567928864410068 L 30.36574692335958 -4.651861324940595 A 30.72 30.72 0 1 1 -5.643172450471003e-15 -30.72 L -1.6459252980540428e-15 -8.96 A 8.96 8.96 0 1 0 8.856676185979879 -1.3567928864410068 Z" fill="#7F142A" stroke="#111" stroke-width="1" fill-opacity="0.9"/>
    <circle r="5.76" fill="#fff" stroke="#111" stroke-width="1.5"/>
  </g>
</svg>