<?xml version="1.0" encoding="UTF-8"?>
<svg xmlns="http://www.w3.org/2000/svg" width="64" height="64" viewBox="-32 -32 64 64">
  <g>
    <path d="M 5.486417660180143e-16 -8.96 L 1.422703880812163e-15 -23.23451760626337 A 23.23451760626337 23.23451760626337 0 0 1 1.3027697935235953 -23.19796541209692 L 0.502391207245239 -8.945904262559637 A 8.96 8.96 0 0 0 5.486417660180143e-16 -8.96 Z" fill="#51BF7E" stroke="#111" stroke-width="1" fill-opacity="0.9"/><path d="M 0.502391207245239 -8.945904262559637 L 1.7224841391265333 -30.671671757347326 A 30.72 30.72 0 1 1 -28.99609590707304 10.146172783262761 L -8.457194639562971 2.959300395118306 A 8.96 8.96 0 1 0 0.502391207245239 -8.945904262559637 Z" fill="#A0AAE5" stroke="#111" stroke-width="1" fill-opacity="0.9"/><path d="M -8.457194639562971 2.959300395118306 L -21.384620731466367 7.482802427656287 A 22.656 22.656 0 0 1 -6.271985346841401 -21.77054284598817 L -2.480446182366656 -8.609819204628092 A 8.96 8.96 0 0 0 -8.457194639562971 2.959300395118306 Z" fill="#7B86C9" stroke="#111" stroke-width="1" fill-opacity="0.9"/><path d="M -2.480446182366656 -8.609819204628092 L -6.271985346841401 -21.77054284598817 A 22.656 22.656 0 0 1 -1.2703320526058313 -22.62035792104365 L -0.5023912072452441 -8.945904262559637 A 8.96 8.96 0 0 0 -2.480446182366656 -8.609819204628092 Z" fill="#4A0D19" stroke="#111" stroke-width="1" fill-opacity="0.9"/><path d="M -0.5023912072452441 -8.945904262559637 L -1.2703320526058313 -22.62035792104365 A 22.656 22.656 0 0 1 -4.1618396822223646e-15 -22.656 L -1.6459252980540428e-15 -8.96 A 8.96 8.96 0 0 0 -0.5023912072452441 -8.945904262559637 Z" fill="#004F61" stroke="#111" stroke-width="1" fill-opacity="0.9"/>
    <circle r="5.76" fill="#fff" stroke="#111" stroke-width="1.5"/>
  </g>
</svg>