<?xml version="1.0" encoding="UTF-8"?>
<svg xmlns="http://www.w3.org/2000/svg" width="64" height="64" viewBox="-32 -32 64 64">
  <g>
    <path d="M 5.486417660180143e-16 -8.96 L 1.8810574834903343e-15 -30.72 A 30.72 30.72 0 1 1 -30.34178582308263 -4.805666766035888 L -8.849687531732435 -1.4016528067604674 A 8.96 8.96 0 1 0 5.486417660180143e-16 -8.96 Z" fill="#A0AAE5" stroke="#111" stroke-width="1" fill-opacity="0.9"/><path d="M -8.849687531732435 -1.4016528067604674 L -28.9806105449567 -4.590077781426317 A 29.341857500812708 29.341857500812708 0 0 1 -4.590077781426326 -28.980610544956697 L -1.40165280676047 -8.849687531732433 A 8.96 8.96 0 0 0 -8.849687531732435 -1.4016528067604674 Z" fill="#7F142A" stroke="#111" stroke-width="1" fill-opacity="0.9"/><path d="M -1.40165280676047 -8.849687531732433 L -3.7461348178164933 -23.652164380165775 A 23.946991584323065 23.946991584323065 0 0 1 -4.398990988942477e-15 -23.946991584323065 L -1.6459252980540428e-15 -8.96 A 8.96 8.96 0 0 0 -1.40165280676047 -8.849687531732433 Z" fill="#51BF7E" stroke="#111" stroke-width="1" fill-opacity="0.9"/>
    <circle r="5.76" fill="#fff" stroke="#111" stroke-width="1.5"/>
  </g>
</svg>