<?xml version="1.0" encoding="UTF-8"?>
<svg xmlns="http://www.w3.org/2000/svg" width="64" height="64" viewBox="-32 -32 64 64">
  <g>
    <path d="M 5.486417660180143e-16 -8.96 L 1.7066579940403678e-15 -27.871840194717524 A 27.871840194717524 27.871840194717524 0 0 1 2.4291909339146387 -27.765779428038 L 0.780915455019017 -8.92590449490204 A 8.96 8.96 0 0 0 5.486417660180143e-16 -8.96 Z" fill="#A0AAE5" stroke="#111" stroke-width="1" fill-opacity="0.9"/><path d="M 0.780915455019017 -8.92590449490204 L 2.6774244172080577 -30.603101125378423 A 30.72 30.72 0 1 1 -15.360000000000014 -26.60430040425795 L -4.480000000000004 -7.759587617908569 A 8.96 8.96 0 1 0 0.780915455019017 -8.92590449490204 Z" fill="#7F142A" stroke="#111" stroke-width="1" fill-opacity="0.9"/><path d="M -4.480000000000004 -7.759587617908569 L -11.32800000000001 -19.620671548140237 A 22.656 22.656 0 0 1 -7.748808367186365 -21.289676016525537 L -3.064500484197998 -8.419645882241738 A 8.96 8.96 0 0 0 -4.480000000000004 -7.759587617908569 Z" fill="#4A0D19" stroke="#111" stroke-width="1" fill-opacity="0.9"/><path d="M -3.064500484197998 -8.419645882241738 L -7.748808367186365 -21.289676016525537 A 22.656 22.656 0 0 1 -2.42844099589484e-14 -22.656 L -9.604003938567165e-15 -8.96 A 8.96 8.96 0 0 0 -3.064500484197998 -8.419645882241738 Z" fill="#004F61" stroke="#111" stroke-width="1" fill-opacity="0.9"/>
    <circle r="5.76" fill="#fff" stroke="#111" stroke-width="1.5"/>
  </g>
</svg>