<?xml version="1.0" encoding="UTF-8"?>
<svg xmlns="http://www.w3.org/2000/svg" width="64" height="64" viewBox="-32 -32 64 64">
  <g>
    <path d="M 5.486417660180143e-16 -8.96 L 1.8053247276742427e-15 -29.483190237890305 A 29.483190237890305 29.483190237890305 0 0 1 29.478384789360856 0.5322939169375428 L 8.958539614659186 0.161765177285023 A 8.96 8.96 0 0 0 5.486417660180143e-16 -8.96 Z" fill="#7F142A" stroke="#111" stroke-width="1" fill-opacity="0.9"/><path d="M 8.958539614659186 0.161765177285023 L 30.71499296454578 0.5546234649772216 A 30.72 30.72 0 1 1 -16.777801024318364 -25.73370926991252 L -4.893525298759524 -7.505665203724486 A 8.96 8.96 0 1 0 8.958539614659186 0.161765177285023 Z" fill="#A0AAE5" stroke="#111" stroke-width="1" fill-opacity="0.9"/><path d="M -4.893525298759524 -7.505665203724486 L -12.373628255434793 -18.97861058656048 A 22.656 22.656 0 0 1 -9.513007484949343 -20.562028708065206 L -3.7622063499799667 -8.131875760251777 A 8.96 8.96 0 0 0 -4.893525298759524 -7.505665203724486 Z" fill="#7B86C9" stroke="#111" stroke-width="1" fill-opacity="0.9"/><path d="M -3.7622063499799667 -8.131875760251777 L -9.513007484949343 -20.562028708065206 A 22.656 22.656 0 0 1 -8.004499430586248 -21.194865530730418 L -3.165621243734675 -8.382150209893386 A 8.96 8.96 0 0 0 -3.7622063499799667 -8.131875760251777 Z" fill="#4A0D19" stroke="#111" stroke-width="1" fill-opacity="0.9"/><path d="M -3.165621243734675 -8.382150209893386 L -8.869441248490316 -23.485118116961107 A 25.104138324747105 25.104138324747105 0 0 1 -1.8114582828219867 -25.038697648193125 L -0.6465334919735194 -8.93664335440083 A 8.96 8.96 0 0 0 -3.165621243734675 -8.382150209893386 Z" fill="#51BF7E" stroke="#111" stroke-width="1" fill-opacity="0.9"/><path d="M -0.6465334919735194 -8.93664335440083 L -1.6348061154187559 -22.59694105327067 A 22.656 22.656 0 0 1 -4.1618396822223646e-15 -22.656 L -1.6459252980540428e-15 -8.96 A 8.96 8.96 0 0 0 -0.6465334919735194 -8.93664335440083 Z" fill="#e0e0e0" stroke="#111" stroke-width="1" fill-opacity="0.9"/>
    <circle r="5.76" fill="#fff" stroke="#111" stroke-width="1.5"/>
  </g>
</svg>