<?xml version="1.0" encoding="UTF-8"?>
<svg xmlns="http://www.w3.org/2000/svg" width="64" height="64" viewBox="-32 -32 64 64">
  <g>
    <path d="M 5.486417660180143e-16 -8.96 L 1.3872798940741216e-15 -22.656 A 22.656 22.656 0 0 1 13.212897575105329 -18.404175441181156 L 5.22543971896821 -7.278487462614018 A 8.96 8.96 0 0 0 5.486417660180143e-16 -8.96 Z" fill="#4A0D19" stroke="#111" stroke-width="1" fill-opacity="0.9"/><path d="M 5.22543971896821 -7.278487462614018 L 13.212897575105329 -18.404175441181156 A 22.656 22.656 0 1 1 -15.676567015555284 16.356637264633708 L -6.1997722660388135 6.4687266018325404 A 8.96 8.96 0 1 0 5.22543971896821 -7.278487462614018 Z" fill="#004F61" stroke="#111" stroke-width="1" fill-opacity="0.9"/><path d="M -6.1997722660388135 6.4687266018325404 L -21.256362054990216 22.17849120628299 A 30.72 30.72 0 0 1 -30.569399668232172 -3.0381250671897564 L -8.916074903234385 -0.8861198112636791 A 8.96 8.96 0 0 0 -6.1997722660388135 6.4687266018325404 Z" fill="#A0AAE5" stroke="#111" stroke-width="1" fill-opacity="0.9"/><path d="M -8.916074903234385 -0.8861198112636791 L -30.303410865345572 -3.011689898085623 A 30.45270080167234 30.45270080167234 0 0 1 -14.851628206445003 -26.585637583734986 L -4.369746696570163 -7.822206453924249 A 8.96 8.96 0 0 0 -8.916074903234385 -0.8861198112636791 Z" fill="#7F142A" stroke="#111" stroke-width="1" fill-opacity="0.9"/><path d="M -4.369746696570163 -7.822206453924249 L -11.049216647041694 -19.779007747779882 A 22.656 22.656 0 0 1 1.5960730594503672e-14 -22.656 L 6.31215334245908e-15 -8.96 A 8.96 8.96 0 0 0 -4.369746696570163 -7.822206453924249 Z" fill="#e0e0e0" stroke="#111" stroke-width="1" fill-opacity="0.9"/>
    <circle r="5.76" fill="#fff" stroke="#111" stroke-width="1.5"/>
  </g>
</svg>