<?xml version="1.0" encoding="UTF-8"?>
<svg xmlns="http://www.w3.org/2000/svg" width="64" height="64" viewBox="-32 -32 64 64">
  <g>
    <path d="M 5.486417660180143e-16 -8.96 L 1.7070436143366758e-15 -27.87813785207598 A 27.87813785207598 27.87813785207598 0 0 1 5.172725859401675 -27.394040908249167 L 1.6625078743122608 -8.804411824071483 A 8.96 8.96 0 0 0 5.486417660180143e-16 -8.96 Z" fill="#7F142A" stroke="#111" stroke-width="1" fill-opacity="0.9"/><path d="M 1.6625078743122608 -8.804411824071483 L 5.700026997642036 -30.18655482538794 A 30.72 30.72 0 0 1 15.497713565142213 26.524314774425502 L 4.520166456499813 7.736258475874106 A 8.96 8.96 0 0 0 1.6625078743122608 -8.804411824071483 Z" fill="#A0AAE5" stroke="#111" stroke-width="1" fill-opacity="0.9"/><path d="M 4.520166456499813 7.736258475874106 L 11.429563754292383 19.561682146138807 A 22.656 22.656 0 1 1 -8.261544979459842 -21.095999870884572 L -3.2672776754925934 -8.34305079639503 A 8.96 8.96 0 1 0 4.520166456499813 7.736258475874106 Z" fill="#7B86C9" stroke="#111" stroke-width="1" fill-opacity="0.9"/><path d="M -3.2672776754925934 -8.34305079639503 L -8.261544979459842 -21.095999870884572 A 22.656 22.656 0 0 1 -4.1618396822223646e-15 -22.656 L -1.6459252980540428e-15 -8.96 A 8.96 8.96 0 0 0 -3.2672776754925934 -8.34305079639503 Z" fill="#004F61" stroke="#111" stroke-width="1" fill-opacity="0.9"/>
    <circle r="5.76" fill="#fff" stroke="#111" stroke-width="1.5"/>
  </g>
</svg>