<?xml version="1.0" encoding="UTF-8"?>
<svg xmlns="http://www.w3.org/2000/svg" width="64" height="64" viewBox="-32 -32 64 64">
  <g>
    <path d="M 5.486417660180143e-16 -8.96 L 1.8810574834903343e-15 -30.72 A 30.72 30.72 0 1 1 -12.71226545679786 27.966349546480032 L -3.7077440915660436 8.156851951056677 A 8.96 8.96 0 1 0 5.486417660180143e-16 -8.96 Z" fill="#A0AAE5" stroke="#111" stroke-width="1" fill-opacity="0.9"/><path d="M -3.7077440915660436 8.156851951056677 L -9.375295774388423 20.625182790529024 A 22.656 22.656 0 0 1 -11.706340952816628 -19.397317275757704 L -4.629626365520701 -7.6712554197911835 A 8.96 8.96 0 0 0 -3.7077440915660436 8.156851951056677 Z" fill="#7B86C9" stroke="#111" stroke-width="1" fill-opacity="0.9"/><path d="M -4.629626365520701 -7.6712554197911835 L -13.683206617696747 -22.672968537564245 A 26.481949430658577 26.481949430658577 0 0 1 -2.838535118671668e-14 -26.481949430658577 L -9.604003938567165e-15 -8.96 A 8.96 8.96 0 0 0 -4.629626365520701 -7.6712554197911835 Z" fill="#51BF7E" stroke="#111" stroke-width="1" fill-opacity="0.9"/>
    <circle r="5.76" fill="#fff" stroke="#111" stroke-width="1.5"/>
  </g>
</svg>