<?xml version="1.0" encoding="UTF-8"?>
<svg xmlns="http://www.w3.org/2000/svg" width="64" height="64" viewBox="-32 -32 64 64">
  <g>
    <path d="M 5.486417660180143e-16 -8.96 L 1.8810574834903343e-15 -30.72 A 30.72 30.72 0 1 1 -29.94978546222562 6.835843091137981 L -8.735354093149141 1.9937875682485782 A 8.96 8.96 0 1 0 5.486417660180143e-16 -8.96 Z" fill="#7F142A" stroke="#111" stroke-width="1" fill-opacity="0.9"/><path d="M -8.735354093149141 1.9937875682485782 L -28.975727474578573 6.613520711779941 A 29.72089229626509 29.72089229626509 0 0 1 -19.104221316867324 -22.767524388091513 L -5.7593769827913945 -6.863758210346043 A 8.96 8.96 0 0 0 -8.735354093149141 1.9937875682485782 Z" fill="#A0AAE5" stroke="#111" stroke-width="1" fill-opacity="0.9"/><path d="M -5.7593769827913945 -6.863758210346043 L -16.73916258626201 -19.948957149196332 A 26.041514077138167 26.041514077138167 0 0 1 -4.783748528927699e-15 -26.041514077138167 L -1.6459252980540428e-15 -8.96 A 8.96 8.96 0 0 0 -5.7593769827913945 -6.863758210346043 Z" fill="#51BF7E" stroke="#111" stroke-width="1" fill-opacity="0.9"/>
    <circle r="5.76" fill="#fff" stroke="#111" stroke-width="1.5"/>
  </g>
</svg>