<?xml version="1.0" encoding="UTF-8"?>
<svg xmlns="http://www.w3.org/2000/svg" width="64" height="64" viewBox="-32 -32 64 64">
  <g>
    <path d="M 5.486417660180143e-16 -8.96 L 1.648317021351696e-15 -26.91905980564059 A 26.91905980564059 26.91905980564059 0 0 1 8.125402105086593 -25.663468616894114 L 2.704537357070721 -8.54207689524093 A 8.96 8.96 0 0 0 5.486417660180143e-16 -8.96 Z" fill="#51BF7E" stroke="#111" stroke-width="1" fill-opacity="0.9"/><path d="M 2.704537357070721 -8.54207689524093 L 6.838615888593108 -21.59925157796635 A 22.656 22.656 0 0 1 10.867588154744217 -19.87938288023205 L 4.297916219390369 -7.861902833990078 A 8.96 8.96 0 0 0 2.704537357070721 -8.54207689524093 Z" fill="#e0e0e0" stroke="#111" stroke-width="1" fill-opacity="0.9"/><path d="M 4.297916219390369 -7.861902833990078 L 14.735712752195548 -26.955095430823118 A 30.72 30.72 0 0 1 -13.265062733163697 27.708419490927874 L -3.8689766305060784 8.08162235152063 A 8.96 8.96 0 0 0 4.297916219390369 -7.861902833990078 Z" fill="#A0AAE5" stroke="#111" stroke-width="1" fill-opacity="0.9"/><path d="M -3.8689766305060784 8.08162235152063 L -9.782983765708225 20.434959374559305 A 22.656 22.656 0 0 1 -18.170207151887038 13.532845526995168 L -7.18595763068979 5.351972807286225 A 8.96 8.96 0 0 0 -3.8689766305060784 8.08162235152063 Z" fill="#7B86C9" stroke="#111" stroke-width="1" fill-opacity="0.9"/><path d="M -7.18595763068979 5.351972807286225 L -24.070056228128223 17.926947669802342 A 30.01238177121379 30.01238177121379 0 0 1 -20.050187740328887 -22.332331520883596 L -5.985852223353257 -6.667171301247395 A 8.96 8.96 0 0 0 -7.18595763068979 5.351972807286225 Z" fill="#7F142A" stroke="#111" stroke-width="1" fill-opacity="0.9"/><path d="M -5.985852223353257 -6.667171301247395 L -15.135654907621806 -16.858418861725553 A 22.656 22.656 0 0 1 -5.549281759358911 -21.9658782650557 L -2.194631204266236 -8.687070500304516 A 8.96 8.96 0 0 0 -5.985852223353257 -6.667171301247395 Z" fill="#004F61" stroke="#111" stroke-width="1" fill-opacity="0.9"/><path d="M -2.194631204266236 -8.687070500304516 L -5.549281759358911 -21.9658782650557 A 22.656 22.656 0 0 1 1.5960730594503672e-14 -22.656 L 6.31215334245908e-15 -8.96 A 8.96 8.96 0 0 0 -2.194631204266236 -8.687070500304516 Z" fill="#4A0D19" stroke="#111" stroke-width="1" fill-opacity="0.9"/>
    <circle r="5.76" fill="#fff" stroke="#111" stroke-width="1.5"/>
  </g>
</svg>