<?xml version="1.0" encoding="UTF-8"?>
<svg xmlns="http://www.w3.org/2000/svg" width="64" height="64" viewBox="-32 -32 64 64">
  <g>
    <path d="M 5.486417660180143e-16 -8.96 L 1.581936902421368e-15 -25.834990195095827 A 25.834990195095827 25.834990195095827 0 0 1 15.18542622979797 -20.900946117342663 L 5.26655586054056 -7.24879226959953 A 8.96 8.96 0 0 0 5.486417660180143e-16 -8.96 Z" fill="#51BF7E" stroke="#111" stroke-width="1" fill-opacity="0.9"/><path d="M 5.26655586054056 -7.24879226959953 L 18.056762950424773 -24.853002067198386 A 30.72 30.72 0 1 1 -25.468034228890875 -17.178405994621347 L -7.428176650093173 -5.0103684150978935 A 8.96 8.96 0 1 0 5.26655586054056 -7.24879226959953 Z" fill="#7F142A" stroke="#111" stroke-width="1" fill-opacity="0.9"/><path d="M -7.428176650093173 -5.0103684150978935 L -22.667242444722632 -15.289248082297572 A 27.341634679913987 27.341634679913987 0 0 1 -17.574864000824487 -20.94490731233726 L -5.759376982791388 -6.863758210346048 A 8.96 8.96 0 0 0 -7.428176650093173 -5.0103684150978935 Z" fill="#A0AAE5" stroke="#111" stroke-width="1" fill-opacity="0.9"/><path d="M -5.759376982791388 -6.863758210346048 L -14.562996085058222 -17.355502903303574 A 22.656 22.656 0 0 1 -9.215025385525308 -20.697285888350773 L -3.644360321959162 -8.185367300477708 A 8.96 8.96 0 0 0 -5.759376982791388 -6.863758210346048 Z" fill="#4A0D19" stroke="#111" stroke-width="1" fill-opacity="0.9"/><path d="M -3.644360321959162 -8.185367300477708 L -9.215025385525308 -20.697285888350773 A 22.656 22.656 0 0 1 1.5960730594503672e-14 -22.656 L 6.31215334245908e-15 -8.96 A 8.96 8.96 0 0 0 -3.644360321959162 -8.185367300477708 Z" fill="#004F61" stroke="#111" stroke-width="1" fill-opacity="0.9"/>
    <circle r="5.76" fill="#fff" stroke="#111" stroke-width="1.5"/>
  </g>
</svg>