<?xml version="1.0" encoding="UTF-8"?>
<svg xmlns="http://www.w3.org/2000/svg" width="64" height="64" viewBox="-32 -32 64 64">
  <g>
    <path d="M 5.486417660180143e-16 -8.96 L 1.7742408619018755e-15 -28.97555218593918 A 28.97555218593918 28.97555218593918 0 1 1 -5.324243742635191 28.48218834726529 L -1.6463956796364692 8.807438973167761 A 8.96 8.96 0 1 0 5.486417660180143e-16 -8.96 Z" fill="#A0AAE5" stroke="#111" stroke-width="1" fill-opacity="0.9"/><path d="M -1.6463956796364692 8.807438973167761 L -5.644785187325036 30.19693362228946 A 30.72 30.72 0 0 1 -11.097343985269365 -28.645546887301798 L -3.2367253290368985 -8.354951175463025 A 8.96 8.96 0 0 0 -1.6463956796364692 8.807438973167761 Z" fill="#7F142A" stroke="#111" stroke-width="1" fill-opacity="0.9"/><path d="M -3.2367253290368985 -8.354951175463025 L -8.184291189136156 -21.126090829385078 A 22.656 22.656 0 0 1 -2.42844099589484e-14 -22.656 L -9.604003938567165e-15 -8.96 A 8.96 8.96 0 0 0 -3.2367253290368985 -8.354951175463025 Z" fill="#004F61" stroke="#111" stroke-width="1" fill-opacity="0.9"/>
    <circle r="5.76" fill="#fff" stroke="#111" stroke-width="1.5"/>
  </g>
</svg>