<?xml version="1.0" encoding="UTF-8"?>
<svg xmlns="http://www.w3.org/2000/svg" width="64" height="64" viewBox="-32 -32 64 64">
  <g>
    <path d="M 5.486417660180143e-16 -8.96 L 1.8810574834903343e-15 -30.72 A 30.72 30.72 0 1 1 -12.898993199931336 -27.880716892291794 L -3.762206349979974 -8.131875760251775 A 8.96 8.96 0 1 0 5.486417660180143e-16 -8.96 Z" fill="#7F142A" stroke="#111" stroke-width="1" fill-opacity="0.9"/><path d="M -3.762206349979974 -8.131875760251775 L -9.51300748494936 -20.5620287080652 A 22.656 22.656 0 0 1 -4.870370293420967 -22.126315310167723 L -1.9261351442907781 -8.750520179162377 A 8.96 8.96 0 0 0 -3.762206349979974 -8.131875760251775 Z" fill="#4A0D19" stroke="#111" stroke-width="1" fill-opacity="0.9"/><path d="M -1.9261351442907781 -8.750520179162377 L -4.870370293420967 -22.126315310167723 A 22.656 22.656 0 0 1 -4.1618396822223646e-15 -22.656 L -1.6459252980540428e-15 -8.96 A 8.96 8.96 0 0 0 -1.9261351442907781 -8.750520179162377 Z" fill="#004F61" stroke="#111" stroke-width="1" fill-opacity="0.9"/>
    <circle r="5.76" fill="#fff" stroke="#111" stroke-width="1.5"/>
  </g>
</svg>