<?xml version="1.0" encoding="UTF-8"?>
<svg xmlns="http://www.w3.org/2000/svg" width="64" height="64" viewBox="-32 -32 64 64">
  <g>
    <path d="M 5.486417660180143e-16 -8.96 L 1.5926129291597418e-15 -26.009342943101323 A 26.009342943101323 26.009342943101323 0 0 1 8.360429288517052 -24.629030481193546 L 2.880097609116329 -8.484493960276147 A 8.96 8.96 0 0 0 5.486417660180143e-16 -8.96 Z" fill="#51BF7E" stroke="#111" stroke-width="1" fill-opacity="0.9"/><path d="M 2.880097609116329 -8.484493960276147 L 9.874620374113126 -29.08969357808964 A 30.72 30.72 0 1 1 -11.756035042255556 28.381579238746728 L -3.428843553991204 8.27796061130113 A 8.96 8.96 0 1 0 2.880097609116329 -8.484493960276147 Z" fill="#A0AAE5" stroke="#111" stroke-width="1" fill-opacity="0.9"/><path d="M -3.428843553991204 8.27796061130113 L -8.670075843663472 20.93141468857571 A 22.656 22.656 0 0 1 -11.327999999999994 19.620671548140244 L -4.479999999999999 7.759587617908571 A 8.96 8.96 0 0 0 -3.428843553991204 8.27796061130113 Z" fill="#7B86C9" stroke="#111" stroke-width="1" fill-opacity="0.9"/><path d="M -4.479999999999999 7.759587617908571 L -15.070818308432418 26.103423021844204 A 30.14163661686485 30.14163661686485 0 0 1 -5.536928820585929e-15 -30.14163661686485 L -1.6459252980540428e-15 -8.96 A 8.96 8.96 0 0 0 -4.479999999999999 7.759587617908571 Z" fill="#7F142A" stroke="#111" stroke-width="1" fill-opacity="0.9"/>
    <circle r="5.76" fill="#fff" stroke="#111" stroke-width="1.5"/>
  </g>
</svg>