<?xml version="1.0" encoding="UTF-8"?>
<svg xmlns="http://www.w3.org/2000/svg" width="64" height="64" viewBox="-32 -32 64 64">
  <g>
    <path d="M 5.486417660180143e-16 -8.96 L 1.3872798940741216e-15 -22.656 A 22.656 22.656 0 0 1 18.64552246568668 -12.870074901941063 L 7.3739354384071625 -5.0898601307111555 A 8.96 8.96 0 0 0 5.486417660180143e-16 -8.96 Z" fill="#4A0D19" stroke="#111" stroke-width="1" fill-opacity="0.9"/><path d="M 7.3739354384071625 -5.0898601307111555 L 25.282064360253127 -17.450949019581103 A 30.72 30.72 0 1 1 -30.496016612292216 -3.7028868174435305 L -8.894671511918565 -1.0800086550876966 A 8.96 8.96 0 1 0 7.3739354384071625 -5.0898601307111555 Z" fill="#7F142A" stroke="#111" stroke-width="1" fill-opacity="0.9"/><path d="M -8.894671511918565 -1.0800086550876966 L -28.78032337584918 -3.494563942073598 A 28.99170555113465 28.99170555113465 0 0 1 -5.32568991075294e-15 -28.99170555113465 L -1.6459252980540428e-15 -8.96 A 8.96 8.96 0 0 0 -8.894671511918565 -1.0800086550876966 Z" fill="#A0AAE5" stroke="#111" stroke-width="1" fill-opacity="0.9"/>
    <circle r="5.76" fill="#fff" stroke="#111" stroke-width="1.5"/>
  </g>
</svg>