<?xml version="1.0" encoding="UTF-8"?>
<svg xmlns="http://www.w3.org/2000/svg" width="64" height="64" viewBox="-32 -32 64 64">
  <g>
    <path d="M 5.486417660180143e-16 -8.96 L 1.7673800785999483e-15 -28.863507091685 A 28.863507091685 28.863507091685 0 0 1 2.967774580048325 -28.71052691389988 L 0.9212761343507493 -8.91251088550672 A 8.96 8.96 0 0 0 5.486417660180143e-16 -8.96 Z" fill="#A0AAE5" stroke="#111" stroke-width="1" fill-opacity="0.9"/><path d="M 0.9212761343507493 -8.91251088550672 L 2.329512511144037 -22.53592038192413 A 22.656 22.656 0 1 1 -21.753155537903805 6.3320265431980705 L -8.602942868097552 2.5041912882704236 A 8.96 8.96 0 1 0 0.9212761343507493 -8.91251088550672 Z" fill="#7B86C9" stroke="#111" stroke-width="1" fill-opacity="0.9"/><path d="M -8.602942868097552 2.5041912882704236 L -29.4958041191916 8.585798702641451 A 30.72 30.72 0 0 1 -9.342407649101368 -29.264958898279907 L -2.724868897654566 -8.535613011998308 A 8.96 8.96 0 0 0 -8.602942868097552 2.5041912882704236 Z" fill="#7F142A" stroke="#111" stroke-width="1" fill-opacity="0.9"/><path d="M -2.724868897654566 -8.535613011998308 L -6.890025641212259 -21.582907187481432 A 22.656 22.656 0 0 1 -2.42844099589484e-14 -22.656 L -9.604003938567165e-15 -8.96 A 8.96 8.96 0 0 0 -2.724868897654566 -8.535613011998308 Z" fill="#4A0D19" stroke="#111" stroke-width="1" fill-opacity="0.9"/>
    <circle r="5.76" fill="#fff" stroke="#111" stroke-width="1.5"/>
  </g>
</svg>