<?xml version="1.0" encoding="UTF-8"?>
<svg xmlns="http://www.w3.org/2000/svg" width="64" height="64" viewBox="-32 -32 64 64">
  <g>
    <path d="M 5.486417660180143e-16 -8.96 L 1.3872798940741216e-15 -22.656 A 22.656 22.656 0 1 1 -15.197298846034242 16.802870105560128 L -6.010231182047441 6.645202866605701 A 8.96 8.96 0 1 0 5.486417660180143e-16 -8.96 Z" fill="#004F61" stroke="#111" stroke-width="1" fill-opacity="0.9"/><path d="M -6.010231182047441 6.645202866605701 L -20.606506909876938 22.78355268550526 A 30.72 30.72 0 0 1 -11.99275853302257 -28.282364518699886 L -3.497887905464917 -8.249022984620801 A 8.96 8.96 0 0 0 -6.010231182047441 6.645202866605701 Z" fill="#A0AAE5" stroke="#111" stroke-width="1" fill-opacity="0.9"/><path d="M -3.497887905464917 -8.249022984620801 L -10.460269288550105 -24.668315314439496 A 26.794458644309174 26.794458644309174 0 0 1 -4.9220622020459034e-15 -26.794458644309174 L -1.6459252980540428e-15 -8.96 A 8.96 8.96 0 0 0 -3.497887905464917 -8.249022984620801 Z" fill="#51BF7E" stroke="#111" stroke-width="1" fill-opacity="0.9"/>
    <circle r="5.76" fill="#fff" stroke="#111" stroke-width="1.5"/>
  </g>
</svg>