<?xml version="1.0" encoding="UTF-8"?>
<svg xmlns="http://www.w3.org/2000/svg" width="64" height="64" viewBox="-32 -32 64 64">
  <g>
    <path d="M 5.486417660180143e-16 -8.96 L 1.3872798940741216e-15 -22.656 A 22.656 22.656 0 0 1 20.28081952894029 -10.09864818847325 L 8.02066309054136 -3.993815667757783 A 8.96 8.96 0 0 0 5.486417660180143e-16 -8.96 Z" fill="#e0e0e0" stroke="#111" stroke-width="1" fill-opacity="0.9"/><path d="M 8.02066309054136 -3.993815667757783 L 20.28081952894029 -10.09864818847325 A 22.656 22.656 0 0 1 15.263248502456403 16.74298602855125 L 6.036312967073155 6.621519898297105 A 8.96 8.96 0 0 0 8.02066309054136 -3.993815667757783 Z" fill="#4A0D19" stroke="#111" stroke-width="1" fill-opacity="0.9"/><path d="M 6.036312967073155 6.621519898297105 L 15.263248502456403 16.74298602855125 A 22.656 22.656 0 0 1 -20.280819528940295 -10.09864818847324 L -8.020663090541362 -3.9938156677577785 A 8.96 8.96 0 0 0 6.036312967073155 6.621519898297105 Z" fill="#004F61" stroke="#111" stroke-width="1" fill-opacity="0.9"/><path d="M -8.020663090541362 -3.9938156677577785 L -26.32629452728114 -13.10893705048576 A 29.409488505085417 29.409488505085417 0 0 1 -19.813044287749562 -21.733874256156582 L -6.036312967073158 -6.621519898297102 A 8.96 8.96 0 0 0 -8.020663090541362 -3.9938156677577785 Z" fill="#7F142A" stroke="#111" stroke-width="1" fill-opacity="0.9"/><path d="M -6.036312967073158 -6.621519898297102 L -20.695930172822255 -22.702353937018632 A 30.72 30.72 0 0 1 -3.292801350365885e-14 -30.72 L -9.604003938567165e-15 -8.96 A 8.96 8.96 0 0 0 -6.036312967073158 -6.621519898297102 Z" fill="#A0AAE5" stroke="#111" stroke-width="1" fill-opacity="0.9"/>
    <circle r="5.76" fill="#fff" stroke="#111" stroke-width="1.5"/>
  </g>
</svg>