<?xml version="1.0" encoding="UTF-8"?>
<svg xmlns="http://www.w3.org/2000/svg" width="64" height="64" viewBox="-32 -32 64 64">
  <g>
    <path d="M 5.486417660180143e-16 -8.96 L 1.5126560691813516e-15 -24.703548324864308 A 24.703548324864308 24.703548324864308 0 0 1 13.3557465604085 -20.781947301757903 L 4.844141724402156 -7.537631654167384 A 8.96 8.96 0 0 0 5.486417660180143e-16 -8.96 Z" fill="#51BF7E" stroke="#111" stroke-width="1" fill-opacity="0.9"/><path d="M 4.844141724402156 -7.537631654167384 L 16.60848591223596 -25.843308528573882 A 30.72 30.72 0 1 1 -21.199227232730497 -22.233109650587735 L -6.1831079428797295 -6.484656981421423 A 8.96 8.96 0 1 0 4.844141724402156 -7.537631654167384 Z" fill="#7F142A" stroke="#111" stroke-width="1" fill-opacity="0.9"/><path d="M -6.1831079428797295 -6.484656981421423 L -19.51759676845334 -20.469466377482107 A 28.283133443711833 28.283133443711833 0 0 1 -3.0315996092458605e-14 -28.283133443711833 L -9.604003938567165e-15 -8.96 A 8.96 8.96 0 0 0 -6.1831079428797295 -6.484656981421423 Z" fill="#A0AAE5" stroke="#111" stroke-width="1" fill-opacity="0.9"/>
    <circle r="5.76" fill="#fff" stroke="#111" stroke-width="1.5"/>
  </g>
</svg>