<?xml version="1.0" encoding="UTF-8"?>
<svg xmlns="http://www.w3.org/2000/svg" width="64" height="64" viewBox="-32 -32 64 64">
  <g>
    <path d="M 5.486417660180143e-16 -8.96 L 1.639694423483944e-15 -26.77824209601598 A 26.77824209601598 26.77824209601598 0 0 1 5.156005939755992 -26.277173601855342 L 1.7251996249256003 -8.792342478211172 A 8.96 8.96 0 0 0 5.486417660180143e-16 -8.96 Z" fill="#A0AAE5" stroke="#111" stroke-width="1" fill-opacity="0.9"/><path d="M 1.7251996249256003 -8.792342478211172 L 5.914970142602057 -30.14517421100973 A 30.72 30.72 0 1 1 -3.394279258281996 -30.531905743284295 L -0.9899981169989155 -8.905139175124587 A 8.96 8.96 0 1 0 1.7251996249256003 -8.792342478211172 Z" fill="#7F142A" stroke="#111" stroke-width="1" fill-opacity="0.9"/><path d="M -0.9899981169989155 -8.905139175124587 L -2.503280952982972 -22.517280485672167 A 22.656 22.656 0 0 1 -4.1618396822223646e-15 -22.656 L -1.6459252980540428e-15 -8.96 A 8.96 8.96 0 0 0 -0.9899981169989155 -8.905139175124587 Z" fill="#004F61" stroke="#111" stroke-width="1" fill-opacity="0.9"/>
    <circle r="5.76" fill="#fff" stroke="#111" stroke-width="1.5"/>
  </g>
</svg>