<?xml version="1.0" encoding="UTF-8"?>
<svg xmlns="http://www.w3.org/2000/svg" width="64" height="64" viewBox="-32 -32 64 64">
  <g>
    <path d="M 5.486417660180143e-16 -8.96 L 1.8810574834903343e-15 -30.72 A 30.72 30.72 0 1 1 -29.216456180587116 9.493002067198388 L -8.521466386004576 2.7687922695995297 A 8.96 8.96 0 1 0 5.486417660180143e-16 -8.96 Z" fill="#7F142A" stroke="#111" stroke-width="1" fill-opacity="0.9"/><path d="M -8.521466386004576 2.7687922695995297 L -28.61964491850023 9.299086333212738 A 30.092475502915676 30.092475502915676 0 0 1 -17.68791330558636 -24.345324084670573 L -5.266555860540561 -7.248792269599529 A 8.96 8.96 0 0 0 -8.521466386004576 2.7687922695995297 Z" fill="#A0AAE5" stroke="#111" stroke-width="1" fill-opacity="0.9"/><path d="M -5.266555860540561 -7.248792269599529 L -15.2795009122492 -21.030428809442597 A 25.995039604441022 25.995039604441022 0 0 1 -4.775211306793106e-15 -25.995039604441022 L -1.6459252980540428e-15 -8.96 A 8.96 8.96 0 0 0 -5.266555860540561 -7.248792269599529 Z" fill="#51BF7E" stroke="#111" stroke-width="1" fill-opacity="0.9"/>
    <circle r="5.76" fill="#fff" stroke="#111" stroke-width="1.5"/>
  </g>
</svg>