<?xml version="1.0" encoding="UTF-8"?>
<svg xmlns="http://www.w3.org/2000/svg" width="64" height="64" viewBox="-32 -32 64 64">
  <g>
    <path d="M 5.486417660180143e-16 -8.96 L 1.6484007527685016e-15 -26.920427243449826 A 26.920427243449826 26.920427243449826 0 0 1 8.986223267367233 -25.376311677604043 L 2.9909094587345897 -8.446067760185919 A 8.96 8.96 0 0 0 5.486417660180143e-16 -8.96 Z" fill="#51BF7E" stroke="#111" stroke-width="1" fill-opacity="0.9"/><path d="M 2.9909094587345897 -8.446067760185919 L 7.562728202800318 -21.35648562218439 A 22.656 22.656 0 0 1 12.089570472584096 -19.160809528525217 L 4.78118606260388 -7.577721282467601 A 8.96 8.96 0 0 0 2.9909094587345897 -8.446067760185919 Z" fill="#e0e0e0" stroke="#111" stroke-width="1" fill-opacity="0.9"/><path d="M 4.78118606260388 -7.577721282467601 L 12.089570472584096 -19.160809528525217 A 22.656 22.656 0 0 1 17.51332483138617 -14.372814246011549 L 6.926173662130125 -5.684163826106263 A 8.96 8.96 0 0 0 4.78118606260388 -7.577721282467601 Z" fill="#004F61" stroke="#111" stroke-width="1" fill-opacity="0.9"/><path d="M 6.926173662130125 -5.684163826106263 L 17.51332483138617 -14.372814246011549 A 22.656 22.656 0 0 1 20.57489174618104 -9.485155013647965 L 8.13696283747273 -3.751191248335354 A 8.96 8.96 0 0 0 6.926173662130125 -5.684163826106263 Z" fill="#4A0D19" stroke="#111" stroke-width="1" fill-opacity="0.9"/><path d="M 8.13696283747273 -3.751191248335354 L 20.57489174618104 -9.485155013647965 A 22.656 22.656 0 0 1 22.481048376672785 2.810124532062201 L 8.890810092469465 1.111348684996351 A 8.96 8.96 0 0 0 8.13696283747273 -3.751191248335354 Z" fill="#7B86C9" stroke="#111" stroke-width="1" fill-opacity="0.9"/><path d="M 8.890810092469465 1.111348684996351 L 30.482777459895303 3.810338348558917 A 30.72 30.72 0 1 1 -29.87120395461663 -7.171441577653397 L -8.712434486763184 -2.0916704601489076 A 8.96 8.96 0 1 0 8.890810092469465 1.111348684996351 Z" fill="#A0AAE5" stroke="#111" stroke-width="1" fill-opacity="0.9"/><path d="M -8.712434486763184 -2.0916704601489076 L -28.989177302799384 -6.959685713609524 A 29.812910390053492 29.812910390053492 0 0 1 -5.476542792366882e-15 -29.812910390053492 L -1.6459252980540428e-15 -8.96 A 8.96 8.96 0 0 0 -8.712434486763184 -2.0916704601489076 Z" fill="#7F142A" stroke="#111" stroke-width="1" fill-opacity="0.9"/>
    <circle r="5.76" fill="#fff" stroke="#111" stroke-width="1.5"/>
  </g>
</svg>