<?xml version="1.0" encoding="UTF-8"?>
<svg xmlns="http://www.w3.org/2000/svg" width="64" height="64" viewBox="-32 -32 64 64">
  <g>
    <path d="M 5.486417660180143e-16 -8.96 L 1.4796248828762276e-15 -24.164108115195337 A 24.164108115195337 24.164108115195337 0 0 1 4.573087529660204 -23.727431202068956 L 1.6956911494692757 -8.798081127473854 A 8.96 8.96 0 0 0 5.486417660180143e-16 -8.96 Z" fill="#51BF7E" stroke="#111" stroke-width="1" fill-opacity="0.9"/><path d="M 1.6956911494692757 -8.798081127473854 L 5.813798226751802 -30.16484957991035 A 30.72 30.72 0 0 1 23.216626924162814 20.117321746799156 L 6.771516186214154 5.867552176149755 A 8.96 8.96 0 0 0 1.6956911494692757 -8.798081127473854 Z" fill="#A0AAE5" stroke="#111" stroke-width="1" fill-opacity="0.9"/><path d="M 6.771516186214154 5.867552176149755 L 22.921442593232335 19.861543068038475 A 30.32941515424247 30.32941515424247 0 1 1 -5.5714231782981394e-15 -30.32941515424247 L -1.6459252980540428e-15 -8.96 A 8.96 8.96 0 1 0 6.771516186214154 5.867552176149755 Z" fill="#7F142A" stroke="#111" stroke-width="1" fill-opacity="0.9"/>
    <circle r="5.76" fill="#fff" stroke="#111" stroke-width="1.5"/>
  </g>
</svg>