<?xml version="1.0" encoding="UTF-8"?>
<svg xmlns="http://www.w3.org/2000/svg" width="64" height="64" viewBox="-32 -32 64 64">
  <g>
    <path d="M 5.486417660180143e-16 -8.96 L 1.3872798940741216e-15 -22.656 A 22.656 22.656 0 0 1 9.215025385525328 -20.697285888350763 L 3.64436032195917 -8.185367300477704 A 8.96 8.96 0 0 0 5.486417660180143e-16 -8.96 Z" fill="#e0e0e0" stroke="#111" stroke-width="1" fill-opacity="0.9"/><path d="M 3.64436032195917 -8.185367300477704 L 9.215025385525328 -20.697285888350763 A 22.656 22.656 0 1 1 -21.547136433183 7.00108902455881 L -8.521466386004576 2.7687922695995297 A 8.96 8.96 0 1 0 3.64436032195917 -8.185367300477704 Z" fill="#004F61" stroke="#111" stroke-width="1" fill-opacity="0.9"/><path d="M -8.521466386004576 2.7687922695995297 L -29.216456180587116 9.493002067198388 A 30.72 30.72 0 0 1 -5.643172450471003e-15 -30.72 L -1.6459252980540428e-15 -8.96 A 8.96 8.96 0 0 0 -8.521466386004576 2.7687922695995297 Z" fill="#A0AAE5" stroke="#111" stroke-width="1" fill-opacity="0.9"/>
    <circle r="5.76" fill="#fff" stroke="#111" stroke-width="1.5"/>
  </g>
</svg>