<?xml version="1.0" encoding="UTF-8"?>
<svg xmlns="http://www.w3.org/2000/svg" width="64" height="64" viewBox="-32 -32 64 64">
  <g>
    <path d="M 5.486417660180143e-16 -8.96 L 1.8810574834903343e-15 -30.72 A 30.72 30.72 0 1 1 -14.6211039140989 27.017433637063345 L -4.264488641612179 7.880084810810143 A 8.96 8.96 0 1 0 5.486417660180143e-16 -8.96 Z" fill="#A0AAE5" stroke="#111" stroke-width="1" fill-opacity="0.9"/><path d="M -4.264488641612179 7.880084810810143 L -10.783064136647939 19.925357307334217 A 22.656 22.656 0 0 1 -18.96684373151585 -12.391657470421697 L -7.501011645232259 -4.900655496776943 A 8.96 8.96 0 0 0 -4.264488641612179 7.880084810810143 Z" fill="#7B86C9" stroke="#111" stroke-width="1" fill-opacity="0.9"/><path d="M -7.501011645232259 -4.900655496776943 L -21.687235130209235 -14.168977876245258 A 25.905522609098416 25.905522609098416 0 0 1 -4.758767301520765e-15 -25.905522609098416 L -1.6459252980540428e-15 -8.96 A 8.96 8.96 0 0 0 -7.501011645232259 -4.900655496776943 Z" fill="#51BF7E" stroke="#111" stroke-width="1" fill-opacity="0.9"/>
    <circle r="5.76" fill="#fff" stroke="#111" stroke-width="1.5"/>
  </g>
</svg>