<?xml version="1.0" encoding="UTF-8"?>
<svg xmlns="http://www.w3.org/2000/svg" width="64" height="64" viewBox="-32 -32 64 64">
  <g>
    <path d="M 5.486417660180143e-16 -8.96 L 1.3872798940741216e-15 -22.656 A 22.656 22.656 0 0 1 7.174430067566159 -21.49004162875453 L 2.837345224461193 -8.498886519846426 A 8.96 8.96 0 0 0 5.486417660180143e-16 -8.96 Z" fill="#004F61" stroke="#111" stroke-width="1" fill-opacity="0.9"/><path d="M 2.837345224461193 -8.498886519846426 L 9.61213435532513 -28.791857400764023 A 30.353981278421315 30.353981278421315 0 0 1 28.381465525492928 10.763670102525824 L 8.377745534461319 3.177259787901117 A 8.96 8.96 0 0 0 2.837345224461193 -8.498886519846426 Z" fill="#A0AAE5" stroke="#111" stroke-width="1" fill-opacity="0.9"/><path d="M 8.377745534461319 3.177259787901117 L 28.723698975295946 10.893462129946686 A 30.72 30.72 0 1 1 -4.9278345479504315 -30.322184068236673 L -1.437285076485543 -8.843970353235697 A 8.96 8.96 0 1 0 8.377745534461319 3.177259787901117 Z" fill="#7F142A" stroke="#111" stroke-width="1" fill-opacity="0.9"/><path d="M -1.437285076485543 -8.843970353235697 L -3.6342779791134436 -22.362610750324546 A 22.656 22.656 0 0 1 -2.42844099589484e-14 -22.656 L -9.604003938567165e-15 -8.96 A 8.96 8.96 0 0 0 -1.437285076485543 -8.843970353235697 Z" fill="#e0e0e0" stroke="#111" stroke-width="1" fill-opacity="0.9"/>
    <circle r="5.76" fill="#fff" stroke="#111" stroke-width="1.5"/>
  </g>
</svg>