<?xml version="1.0" encoding="UTF-8"?>
<svg xmlns="http://www.w3.org/2000/svg" width="64" height="64" viewBox="-32 -32 64 64">
  <g>
    <path d="M 5.486417660180143e-16 -8.96 L 1.3872798940741216e-15 -22.656 A 22.656 22.656 0 0 1 5.8638042858427095 -21.884015520405132 L 2.319018644118586 -8.654695403550052 A 8.96 8.96 0 0 0 5.486417660180143e-16 -8.96 Z" fill="#004F61" stroke="#111" stroke-width="1" fill-opacity="0.9"/><path d="M 2.319018644118586 -8.654695403550052 L 6.586011878013032 -24.579330947996755 A 25.446395860877427 25.446395860877427 0 0 1 10.754111586289747 -23.06226672073039 L 3.7866596251966675 -8.120517771848384 A 8.96 8.96 0 0 0 2.319018644118586 -8.654695403550052 Z" fill="#A0AAE5" stroke="#111" stroke-width="1" fill-opacity="0.9"/><path d="M 3.7866596251966675 -8.120517771848384 L 12.982833000674287 -27.841775217765885 A 30.72 30.72 0 1 1 -2.6774244172080612 -30.603101125378423 L -0.7809154550190179 -8.92590449490204 A 8.96 8.96 0 1 0 3.7866596251966675 -8.120517771848384 Z" fill="#7F142A" stroke="#111" stroke-width="1" fill-opacity="0.9"/><path d="M -0.7809154550190179 -8.92590449490204 L -2.029794015807714 -23.200651764514138 A 23.28927448515436 23.28927448515436 0 0 1 -4.2781703179062604e-15 -23.28927448515436 L -1.6459252980540428e-15 -8.96 A 8.96 8.96 0 0 0 -0.7809154550190179 -8.92590449490204 Z" fill="#51BF7E" stroke="#111" stroke-width="1" fill-opacity="0.9"/>
    <circle r="5.76" fill="#fff" stroke="#111" stroke-width="1.5"/>
  </g>
</svg>