<?xml version="1.0" encoding="UTF-8"?>
<svg xmlns="http://www.w3.org/2000/svg" width="64" height="64" viewBox="-32 -32 64 64">
  <g>
    <path d="M 5.486417660180143e-16 -8.96 L 1.6160408291145078e-15 -26.39194958480532 A 26.39194958480532 26.39194958480532 0 0 1 10.568759288986612 -24.183389546925902 L 3.588066994635348 -8.210199464203564 A 8.96 8.96 0 0 0 5.486417660180143e-16 -8.96 Z" fill="#51BF7E" stroke="#111" stroke-width="1" fill-opacity="0.9"/><path d="M 3.588066994635348 -8.210199464203564 L 11.810229376853385 -27.024116062196672 A 29.492106857207858 29.492106857207858 0 0 1 24.468923140662934 16.46378350238173 L 7.4339060414314675 5.001863749360707 A 8.96 8.96 0 0 0 3.588066994635348 -8.210199464203564 Z" fill="#7F142A" stroke="#111" stroke-width="1" fill-opacity="0.9"/><path d="M 7.4339060414314675 5.001863749360707 L 25.487677856336454 17.149247140665278 A 30.72 30.72 0 0 1 16.487307079421967 25.92078519776826 L 4.808797898164741 7.560229016015744 A 8.96 8.96 0 0 0 7.4339060414314675 5.001863749360707 Z" fill="#A0AAE5" stroke="#111" stroke-width="1" fill-opacity="0.9"/><path d="M 4.808797898164741 7.560229016015744 L 12.159388971073701 19.116579083354093 A 22.656 22.656 0 1 1 -4.1618396822223646e-15 -22.656 L -1.6459252980540428e-15 -8.96 A 8.96 8.96 0 1 0 4.808797898164741 7.560229016015744 Z" fill="#7B86C9" stroke="#111" stroke-width="1" fill-opacity="0.9"/>
    <circle r="5.76" fill="#fff" stroke="#111" stroke-width="1.5"/>
  </g>
</svg>