<?xml version="1.0" encoding="UTF-8"?>
<svg xmlns="http://www.w3.org/2000/svg" width="64" height="64" viewBox="-32 -32 64 64">
  <g>
    <path d="M 5.486417660180143e-16 -8.96 L 1.6092871167013987e-15 -26.281653090864193 A 26.281653090864193 26.281653090864193 0 0 1 19.53107449946769 -17.585858468803117 L 6.658577636277453 -5.99541023297537 A 8.96 8.96 0 0 0 5.486417660180143e-16 -8.96 Z" fill="#51BF7E" stroke="#111" stroke-width="1" fill-opacity="0.9"/><path d="M 6.658577636277453 -5.99541023297537 L 19.767424568846437 -17.79866902714182 A 26.599693479864975 26.599693479864975 0 0 1 26.453977575810416 2.7804250828409054 L 8.91091618249973 0.9365750308781744 A 8.96 8.96 0 0 0 6.658577636277453 -5.99541023297537 Z" fill="#7F142A" stroke="#111" stroke-width="1" fill-opacity="0.9"/><path d="M 8.91091618249973 0.9365750308781744 L 30.551712625713353 3.211114391582312 A 30.72 30.72 0 1 1 -3.292801350365885e-14 -30.72 L -9.604003938567165e-15 -8.96 A 8.96 8.96 0 1 0 8.91091618249973 0.9365750308781744 Z" fill="#A0AAE5" stroke="#111" stroke-width="1" fill-opacity="0.9"/>
    <circle r="5.76" fill="#fff" stroke="#111" stroke-width="1.5"/>
  </g>
</svg>