<?xml version="1.0" encoding="UTF-8"?>
<svg xmlns="http://www.w3.org/2000/svg" width="64" height="64" viewBox="-32 -32 64 64">
  <g>
    <path d="M 5.486417660180143e-16 -8.96 L 1.8810574834903343e-15 -30.72 A 30.72 30.72 0 1 1 -28.30270396017908 -11.944678670540421 L -8.2549553217189 -3.4838646122409562 A 8.96 8.96 0 1 0 5.486417660180143e-16 -8.96 Z" fill="#7F142A" stroke="#111" stroke-width="1" fill-opacity="0.9"/><path d="M -8.2549553217189 -3.4838646122409562 L -26.34446310550135 -11.118236158137378 A 28.594508416569 28.594508416569 0 0 1 -19.020040204642093 -21.351439815596365 L -5.95987025728493 -6.690407051617298 A 8.96 8.96 0 0 0 -8.2549553217189 -3.4838646122409562 Z" fill="#A0AAE5" stroke="#111" stroke-width="1" fill-opacity="0.9"/><path d="M -5.95987025728493 -6.690407051617298 L -17.466664831720564 -19.607657971335655 A 26.259181850631723 26.259181850631723 0 0 1 -4.823733450240661e-15 -26.259181850631723 L -1.6459252980540428e-15 -8.96 A 8.96 8.96 0 0 0 -5.95987025728493 -6.690407051617298 Z" fill="#51BF7E" stroke="#111" stroke-width="1" fill-opacity="0.9"/>
    <circle r="5.76" fill="#fff" stroke="#111" stroke-width="1.5"/>
  </g>
</svg>