<?xml version="1.0" encoding="UTF-8"?>
<svg xmlns="http://www.w3.org/2000/svg" width="64" height="64" viewBox="-32 -32 64 64">
  <g>
    <path d="M 5.486417660180143e-16 -8.96 L 1.8810574834903343e-15 -30.72 A 30.72 30.72 0 0 1 29.31507119154042 -9.183953453438063 L 8.550229097532624 -2.678653090586102 A 8.96 8.96 0 0 0 5.486417660180143e-16 -8.96 Z" fill="#A0AAE5" stroke="#111" stroke-width="1" fill-opacity="0.9"/><path d="M 8.550229097532624 -2.678653090586102 L 25.39294566756601 -7.95521285051171 A 26.609906072230057 26.609906072230057 0 0 1 26.496392904120235 -2.455252378757224 L 8.92177821960351 -0.8267245007911855 A 8.96 8.96 0 0 0 8.550229097532624 -2.678653090586102 Z" fill="#7F142A" stroke="#111" stroke-width="1" fill-opacity="0.9"/><path d="M 8.92177821960351 -0.8267245007911855 L 22.559353498140304 -2.0904319520005687 A 22.656 22.656 0 1 1 -16.125594696540784 -15.914129937979512 L -6.377353834790141 -6.293723704285683 A 8.96 8.96 0 1 0 8.92177821960351 -0.8267245007911855 Z" fill="#004F61" stroke="#111" stroke-width="1" fill-opacity="0.9"/><path d="M -6.377353834790141 -6.293723704285683 L -16.125594696540784 -15.914129937979512 A 22.656 22.656 0 0 1 -4.1618396822223646e-15 -22.656 L -1.6459252980540428e-15 -8.96 A 8.96 8.96 0 0 0 -6.377353834790141 -6.293723704285683 Z" fill="#e0e0e0" stroke="#111" stroke-width="1" fill-opacity="0.9"/>
    <circle r="5.76" fill="#fff" stroke="#111" stroke-width="1.5"/>
  </g>
</svg>