<?xml version="1.0" encoding="UTF-8"?>
<svg xmlns="http://www.w3.org/2000/svg" width="64" height="64" viewBox="-32 -32 64 64">
  <g>
    <path d="M 5.486417660180143e-16 -8.96 L 1.815728726827446e-15 -29.65310043829171 A 29.65310043829171 29.65310043829171 0 0 1 22.41031803452303 19.418651116772963 L 6.771516186214154 5.867552176149755 A 8.96 8.96 0 0 0 5.486417660180143e-16 -8.96 Z" fill="#7F142A" stroke="#111" stroke-width="1" fill-opacity="0.9"/><path d="M 6.771516186214154 5.867552176149755 L 23.216626924162814 20.117321746799156 A 30.72 30.72 0 1 1 -16.608485912235952 -25.84330852857389 L -4.844141724402154 -7.537631654167385 A 8.96 8.96 0 1 0 6.771516186214154 5.867552176149755 Z" fill="#A0AAE5" stroke="#111" stroke-width="1" fill-opacity="0.9"/><path d="M -4.844141724402154 -7.537631654167385 L -13.662521972127736 -21.2592991600751 A 25.27097757144434 25.27097757144434 0 0 1 -4.642203269129079e-15 -25.27097757144434 L -1.6459252980540428e-15 -8.96 A 8.96 8.96 0 0 0 -4.844141724402154 -7.537631654167385 Z" fill="#51BF7E" stroke="#111" stroke-width="1" fill-opacity="0.9"/>
    <circle r="5.76" fill="#fff" stroke="#111" stroke-width="1.5"/>
  </g>
</svg>