<?xml version="1.0" encoding="UTF-8"?>
<svg xmlns="http://www.w3.org/2000/svg" width="64" height="64" viewBox="-32 -32 64 64">
  <g>
    <path d="M 5.486417660180143e-16 -8.96 L 1.3872798940741216e-15 -22.656 A 22.656 22.656 0 0 1 17.974213277638224 -13.792098935621572 L 7.108445929009468 -5.454502403918137 A 8.96 8.96 0 0 0 5.486417660180143e-16 -8.96 Z" fill="#004F61" stroke="#111" stroke-width="1" fill-opacity="0.9"/><path d="M 7.108445929009468 -5.454502403918137 L 24.371814613746743 -18.701151099147893 A 30.72 30.72 0 1 1 -26.604300404257962 15.359999999999985 L -7.759587617908574 4.479999999999997 A 8.96 8.96 0 1 0 7.108445929009468 -5.454502403918137 Z" fill="#A0AAE5" stroke="#111" stroke-width="1" fill-opacity="0.9"/><path d="M -7.759587617908574 4.479999999999997 L -19.620671548140248 11.327999999999989 A 22.656 22.656 0 0 1 -22.607491764893798 -1.481773295838127 L -8.940815952217887 -0.5860120379020841 A 8.96 8.96 0 0 0 -7.759587617908574 4.479999999999997 Z" fill="#7B86C9" stroke="#111" stroke-width="1" fill-opacity="0.9"/><path d="M -8.940815952217887 -0.5860120379020841 L -30.35304527876586 -1.9894436945580396 A 30.41817292193315 30.41817292193315 0 0 1 -3.970368285791016 -30.157941235830602 L -1.1695146822916627 -8.883345957909341 A 8.96 8.96 0 0 0 -8.940815952217887 -0.5860120379020841 Z" fill="#7F142A" stroke="#111" stroke-width="1" fill-opacity="0.9"/><path d="M -1.1695146822916627 -8.883345957909341 L -3.3329256504460187 -25.316083716782487 A 25.53453520521845 25.53453520521845 0 0 1 -4.6906180210179264e-15 -25.53453520521845 L -1.6459252980540428e-15 -8.96 A 8.96 8.96 0 0 0 -1.1695146822916627 -8.883345957909341 Z" fill="#51BF7E" stroke="#111" stroke-width="1" fill-opacity="0.9"/>
    <circle r="5.76" fill="#fff" stroke="#111" stroke-width="1.5"/>
  </g>
</svg>