<?xml version="1.0" encoding="UTF-8"?>
<svg xmlns="http://www.w3.org/2000/svg" width="64" height="64" viewBox="-32 -32 64 64">
  <g>
    <path d="M 5.486417660180143e-16 -8.96 L 1.5637042789774337e-15 -25.537228857596254 A 25.537228857596254 25.537228857596254 0 0 1 24.287347913137555 -7.891437706239566 L 8.521466386004576 -2.768792269599529 A 8.96 8.96 0 0 0 5.486417660180143e-16 -8.96 Z" fill="#51BF7E" stroke="#111" stroke-width="1" fill-opacity="0.9"/><path d="M 8.521466386004576 -2.768792269599529 L 29.216456180587116 -9.493002067198384 A 30.72 30.72 0 1 1 -29.21645618058712 -9.49300206719838 L -8.521466386004578 -2.768792269599528 A 8.96 8.96 0 1 0 8.521466386004576 -2.768792269599529 Z" fill="#7F142A" stroke="#111" stroke-width="1" fill-opacity="0.9"/><path d="M -8.521466386004578 -2.768792269599528 L -27.609706491214745 -8.970937446205191 A 29.030563397818376 29.030563397818376 0 0 1 -5.332827981387388e-15 -29.030563397818376 L -1.6459252980540428e-15 -8.96 A 8.96 8.96 0 0 0 -8.521466386004578 -2.768792269599528 Z" fill="#A0AAE5" stroke="#111" stroke-width="1" fill-opacity="0.9"/>
    <circle r="5.76" fill="#fff" stroke="#111" stroke-width="1.5"/>
  </g>
</svg>