<?xml version="1.0" encoding="UTF-8"?>
<svg xmlns="http://www.w3.org/2000/svg" width="64" height="64" viewBox="-32 -32 64 64">
  <g>
    <path d="M 5.486417660180143e-16 -8.96 L 1.8810574834903343e-15 -30.72 A 30.72 30.72 0 1 1 -30.596330311533745 2.7537195695134806 L -8.923929674197343 0.8031682077747653 A 8.96 8.96 0 1 0 5.486417660180143e-16 -8.96 Z" fill="#A0AAE5" stroke="#111" stroke-width="1" fill-opacity="0.9"/><path d="M -8.923929674197343 0.8031682077747653 L -22.564793604756137 2.030868182516192 A 22.656 22.656 0 0 1 -2.030868182516193 -22.564793604756133 L -0.8031682077747658 -8.923929674197343 A 8.96 8.96 0 0 0 -8.923929674197343 0.8031682077747653 Z" fill="#7B86C9" stroke="#111" stroke-width="1" fill-opacity="0.9"/><path d="M -0.8031682077747658 -8.923929674197343 L -2.030868182516193 -22.564793604756133 A 22.656 22.656 0 0 1 -4.1618396822223646e-15 -22.656 L -1.6459252980540428e-15 -8.96 A 8.96 8.96 0 0 0 -0.8031682077747658 -8.923929674197343 Z" fill="#004F61" stroke="#111" stroke-width="1" fill-opacity="0.9"/>
    <circle r="5.76" fill="#fff" stroke="#111" stroke-width="1.5"/>
  </g>
</svg>