<?xml version="1.0" encoding="UTF-8"?>
<svg xmlns="http://www.w3.org/2000/svg" width="64" height="64" viewBox="-32 -32 64 64">
  <g>
    <path d="M 5.486417660180143e-16 -8.96 L 1.3872798940741216e-15 -22.656 A 22.656 22.656 0 0 1 2.9572014109374916 -22.462174779285046 L 1.1695146822916636 -8.883345957909341 A 8.96 8.96 0 0 0 5.486417660180143e-16 -8.96 Z" fill="#004F61" stroke="#111" stroke-width="1" fill-opacity="0.9"/><path d="M 1.1695146822916636 -8.883345957909341 L 4.009764624999988 -30.457186141403454 A 30.72 30.72 0 0 1 4.009764624999995 30.457186141403454 L 1.1695146822916656 8.883345957909341 A 8.96 8.96 0 0 0 1.1695146822916636 -8.883345957909341 Z" fill="#7F142A" stroke="#111" stroke-width="1" fill-opacity="0.9"/><path d="M 1.1695146822916656 8.883345957909341 L 3.9175154600508675 29.756484167345658 A 30.013251696229624 30.013251696229624 0 0 1 -3.9175154600508844 -29.756484167345654 L -1.1695146822916704 -8.883345957909341 A 8.96 8.96 0 0 0 1.1695146822916656 8.883345957909341 Z" fill="#A0AAE5" stroke="#111" stroke-width="1" fill-opacity="0.9"/><path d="M -1.1695146822916704 -8.883345957909341 L -3.0932872606791366 -23.4958494321437 A 23.698594190690876 23.698594190690876 0 0 1 -2.5401941065390635e-14 -23.698594190690876 L -9.604003938567165e-15 -8.96 A 8.96 8.96 0 0 0 -1.1695146822916704 -8.883345957909341 Z" fill="#51BF7E" stroke="#111" stroke-width="1" fill-opacity="0.9"/>
    <circle r="5.76" fill="#fff" stroke="#111" stroke-width="1.5"/>
  </g>
</svg>