<?xml version="1.0" encoding="UTF-8"?>
<svg xmlns="http://www.w3.org/2000/svg" width="64" height="64" viewBox="-32 -32 64 64">
  <g>
    <path d="M 5.486417660180143e-16 -8.96 L 1.8810574834903343e-15 -30.72 A 30.72 30.72 0 1 1 -6.38704714192156 30.04869429454251 L -1.8628887497271218 8.7642025025749 A 8.96 8.96 0 1 0 5.486417660180143e-16 -8.96 Z" fill="#7F142A" stroke="#111" stroke-width="1" fill-opacity="0.9"/><path d="M -1.8628887497271218 8.7642025025749 L -5.7410678605769645 27.009600717429468 A 27.613011264523763 27.613011264523763 0 0 1 -13.806505632261876 23.913569230063448 L -4.479999999999999 7.759587617908571 A 8.96 8.96 0 0 0 -1.8628887497271218 8.7642025025749 Z" fill="#A0AAE5" stroke="#111" stroke-width="1" fill-opacity="0.9"/><path d="M -4.479999999999999 7.759587617908571 L -11.327999999999994 19.620671548140244 A 22.656 22.656 0 0 1 -2.368196863791974 -22.531888061463597 L -0.9365750308781821 -8.91091618249973 A 8.96 8.96 0 0 0 -4.479999999999999 7.759587617908571 Z" fill="#7B86C9" stroke="#111" stroke-width="1" fill-opacity="0.9"/><path d="M -0.9365750308781821 -8.91091618249973 L -2.4661258126069194 -23.46361977110789 A 23.592863948379204 23.592863948379204 0 0 1 -2.5288611415436733e-14 -23.592863948379204 L -9.604003938567165e-15 -8.96 A 8.96 8.96 0 0 0 -0.9365750308781821 -8.91091618249973 Z" fill="#51BF7E" stroke="#111" stroke-width="1" fill-opacity="0.9"/>
    <circle r="5.76" fill="#fff" stroke="#111" stroke-width="1.5"/>
  </g>
</svg>