<?xml version="1.0" encoding="UTF-8"?>
<svg xmlns="http://www.w3.org/2000/svg" width="64" height="64" viewBox="-32 -32 64 64">
  <g>
    <path d="M 5.486417660180143e-16 -8.96 L 1.8549297169381516e-15 -30.293301190671887 A 30.293301190671887 30.293301190671887 0 0 1 28.466391588119343 -10.360919215041251 L 8.41964588224174 -3.0645004841979926 A 8.96 8.96 0 0 0 5.486417660180143e-16 -8.96 Z" fill="#7F142A" stroke="#111" stroke-width="1" fill-opacity="0.9"/><path d="M 8.41964588224174 -3.0645004841979926 L 28.867357310543102 -10.506858802964544 A 30.72 30.72 0 1 1 -19.746435369570516 -23.53288529261498 L -5.759376982791401 -6.863758210346036 A 8.96 8.96 0 1 0 8.41964588224174 -3.0645004841979926 Z" fill="#A0AAE5" stroke="#111" stroke-width="1" fill-opacity="0.9"/><path d="M -5.759376982791401 -6.863758210346036 L -14.562996085058256 -17.35550290330355 A 22.656 22.656 0 0 1 -2.42844099589484e-14 -22.656 L -9.604003938567165e-15 -8.96 A 8.96 8.96 0 0 0 -5.759376982791401 -6.863758210346036 Z" fill="#4A0D19" stroke="#111" stroke-width="1" fill-opacity="0.9"/>
    <circle r="5.76" fill="#fff" stroke="#111" stroke-width="1.5"/>
  </g>
</svg>