<?xml version="1.0" encoding="UTF-8"?>
<svg xmlns="http://www.w3.org/2000/svg" width="64" height="64" viewBox="-32 -32 64 64">
  <g>
    <path d="M 5.486417660180143e-16 -8.96 L 1.3872798940741216e-15 -22.656 A 22.656 22.656 0 0 1 2.1215415868902525 -22.556449128688122 L 0.8390277462277836 -8.920629598916207 A 8.96 8.96 0 0 0 5.486417660180143e-16 -8.96 Z" fill="#4A0D19" stroke="#111" stroke-width="1" fill-opacity="0.9"/><path d="M 0.8390277462277836 -8.920629598916207 L 2.876666558495258 -30.585015767712708 A 30.72 30.72 0 0 1 5.728052867840448 -30.1812493171377 L 1.6706820864534644 -8.802864384165163 A 8.96 8.96 0 0 0 0.8390277462277836 -8.920629598916207 Z" fill="#7F142A" stroke="#111" stroke-width="1" fill-opacity="0.9"/><path d="M 1.6706820864534644 -8.802864384165163 L 5.251724273804891 -27.671462416569362 A 28.165412124087272 28.165412124087272 0 0 1 7.8198450612111134 -27.058094229607793 L 2.4876544124320046 -8.60773928068849 A 8.96 8.96 0 0 0 1.6706820864534644 -8.802864384165163 Z" fill="#A0AAE5" stroke="#111" stroke-width="1" fill-opacity="0.9"/><path d="M 2.4876544124320046 -8.60773928068849 L 6.290211871435211 -21.76528360974089 A 22.656 22.656 0 1 1 -2.1215415868902605 -22.556449128688122 L -0.8390277462277868 -8.920629598916207 A 8.96 8.96 0 1 0 2.4876544124320046 -8.60773928068849 Z" fill="#7B86C9" stroke="#111" stroke-width="1" fill-opacity="0.9"/><path d="M -0.8390277462277868 -8.920629598916207 L -2.876666558495269 -30.585015767712708 A 30.72 30.72 0 0 1 -5.643172450471003e-15 -30.72 L -1.6459252980540428e-15 -8.96 A 8.96 8.96 0 0 0 -0.8390277462277868 -8.920629598916207 Z" fill="#51BF7E" stroke="#111" stroke-width="1" fill-opacity="0.9"/>
    <circle r="5.76" fill="#fff" stroke="#111" stroke-width="1.5"/>
  </g>
</svg>