<?xml version="1.0" encoding="UTF-8"?>
<svg xmlns="http://www.w3.org/2000/svg" width="64" height="64" viewBox="-32 -32 64 64">
  <g>
    <path d="M 5.486417660180143e-16 -8.96 L 1.8810574834903343e-15 -30.72 A 30.72 30.72 0 0 1 30.188056307482242 -5.692069603956149 L 8.80484975634899 -1.6601869678205439 A 8.96 8.96 0 0 0 5.486417660180143e-16 -8.96 Z" fill="#A0AAE5" stroke="#111" stroke-width="1" fill-opacity="0.9"/><path d="M 8.80484975634899 -1.6601869678205439 L 22.263691526768152 -4.19790133291766 A 22.656 22.656 0 1 1 -11.501676372476757 -19.51936926805807 L -4.548685571036006 -7.719524569288504 A 8.96 8.96 0 1 0 8.80484975634899 -1.6601869678205439 Z" fill="#7B86C9" stroke="#111" stroke-width="1" fill-opacity="0.9"/><path d="M -4.548685571036006 -7.719524569288504 L -14.905677230972548 -25.296261922138036 A 29.361200264078853 29.361200264078853 0 0 1 -9.221669239959864 -27.875453312477667 L -2.814127339716662 -8.506602571876696 A 8.96 8.96 0 0 0 -4.548685571036006 -7.719524569288504 Z" fill="#7F142A" stroke="#111" stroke-width="1" fill-opacity="0.9"/><path d="M -2.814127339716662 -8.506602571876696 L -8.256975307552 -24.959356456917178 A 26.28967698494937 26.28967698494937 0 0 1 -4.829335315535412e-15 -26.28967698494937 L -1.6459252980540428e-15 -8.96 A 8.96 8.96 0 0 0 -2.814127339716662 -8.506602571876696 Z" fill="#51BF7E" stroke="#111" stroke-width="1" fill-opacity="0.9"/>
    <circle r="5.76" fill="#fff" stroke="#111" stroke-width="1.5"/>
  </g>
</svg>