<?xml version="1.0" encoding="UTF-8"?>
<svg xmlns="http://www.w3.org/2000/svg" width="64" height="64" viewBox="-32 -32 64 64">
  <g>
    <path d="M 5.486417660180143e-16 -8.96 L 1.8810574834903343e-15 -30.72 A 30.72 30.72 0 1 1 -30.40731469458225 4.3719118317553205 L -8.868800119253157 1.2751409509286353 A 8.96 8.96 0 1 0 5.486417660180143e-16 -8.96 Z" fill="#A0AAE5" stroke="#111" stroke-width="1" fill-opacity="0.9"/><path d="M -8.868800119253157 1.2751409509286353 L -29.05048654703875 4.176829395457156 A 29.349219281242124 29.349219281242124 0 0 1 -5.554376269981627 -28.81884065450759 L -1.695691149469279 -8.798081127473852 A 8.96 8.96 0 0 0 -8.868800119253157 1.2751409509286353 Z" fill="#7F142A" stroke="#111" stroke-width="1" fill-opacity="0.9"/><path d="M -1.695691149469279 -8.798081127473852 L -4.813204876477676 -24.973278299917528 A 25.432883639652037 25.432883639652037 0 0 1 -4.671944931358043e-15 -25.432883639652037 L -1.6459252980540428e-15 -8.96 A 8.96 8.96 0 0 0 -1.695691149469279 -8.798081127473852 Z" fill="#51BF7E" stroke="#111" stroke-width="1" fill-opacity="0.9"/>
    <circle r="5.76" fill="#fff" stroke="#111" stroke-width="1.5"/>
  </g>
</svg>