<?xml version="1.0" encoding="UTF-8"?>
<svg xmlns="http://www.w3.org/2000/svg" width="64" height="64" viewBox="-32 -32 64 64">
  <g>
    <path d="M 5.486417660180143e-16 -8.96 L 1.5807868366048748e-15 -25.81620819497475 A 25.81620819497475 25.81620819497475 0 0 1 13.241114528562981 -22.161892780350684 L 4.595577525556919 -7.691701190672721 A 8.96 8.96 0 0 0 5.486417660180143e-16 -8.96 Z" fill="#51BF7E" stroke="#111" stroke-width="1" fill-opacity="0.9"/><path d="M 4.595577525556919 -7.691701190672721 L 14.253294921795234 -23.855997404307956 A 27.789656857939462 27.789656857939462 0 0 1 21.72682861852066 -17.32656764807887 L 7.005210082913548 -5.586468624654253 A 8.96 8.96 0 0 0 4.595577525556919 -7.691701190672721 Z" fill="#7F142A" stroke="#111" stroke-width="1" fill-opacity="0.9"/><path d="M 7.005210082913548 -5.586468624654253 L 24.017863141417873 -19.15360671310029 A 30.72 30.72 0 1 1 -5.643172450471003e-15 -30.72 L -1.6459252980540428e-15 -8.96 A 8.96 8.96 0 1 0 7.005210082913548 -5.586468624654253 Z" fill="#A0AAE5" stroke="#111" stroke-width="1" fill-opacity="0.9"/>
    <circle r="5.76" fill="#fff" stroke="#111" stroke-width="1.5"/>
  </g>
</svg>