<?xml version="1.0" encoding="UTF-8"?>
<svg xmlns="http://www.w3.org/2000/svg" width="64" height="64" viewBox="-32 -32 64 64">
  <g>
    <path d="M 5.486417660180143e-16 -8.96 L 1.8279318667017585e-15 -29.85239283643963 A 29.85239283643963 29.85239283643963 0 0 1 28.93891755456994 -7.328329197771886 L 8.685826382816401 -2.199549964781561 A 8.96 8.96 0 0 0 5.486417660180143e-16 -8.96 Z" fill="#51BF7E" stroke="#111" stroke-width="1" fill-opacity="0.9"/><path d="M 8.685826382816401 -2.199549964781561 L 29.779976169656226 -7.541314164965351 A 30.72 30.72 0 0 1 -28.132556594843358 12.340083445339232 L -8.205329006829315 3.59919100489061 A 8.96 8.96 0 0 0 8.685826382816401 -2.199549964781561 Z" fill="#A0AAE5" stroke="#111" stroke-width="1" fill-opacity="0.9"/><path d="M -8.205329006829315 3.59919100489061 L -27.944930987305746 12.25778322332809 A 30.515117850589803 30.515117850589803 0 0 1 -5.605536210199359e-15 -30.515117850589803 L -1.6459252980540428e-15 -8.96 A 8.96 8.96 0 0 0 -8.205329006829315 3.59919100489061 Z" fill="#7F142A" stroke="#111" stroke-width="1" fill-opacity="0.9"/>
    <circle r="5.76" fill="#fff" stroke="#111" stroke-width="1.5"/>
  </g>
</svg>