<?xml version="1.0" encoding="UTF-8"?>
<svg xmlns="http://www.w3.org/2000/svg" width="64" height="64" viewBox="-32 -32 64 64">
  <g>
    <path d="M 5.486417660180143e-16 -8.96 L 1.8810574834903343e-15 -30.72 A 30.72 30.72 0 1 1 -30.15429133790732 -5.868314400967925 L -8.795001640222969 -1.7115917002823118 A 8.96 8.96 0 1 0 5.486417660180143e-16 -8.96 Z" fill="#A0AAE5" stroke="#111" stroke-width="1" fill-opacity="0.9"/><path d="M -8.795001640222969 -1.7115917002823118 L -22.23878986170665 -4.327881870713845 A 22.656 22.656 0 0 1 -21.272504805763994 -7.795824221257668 L -8.412855007929265 -3.0830943247911686 A 8.96 8.96 0 0 0 -8.795001640222969 -1.7115917002823118 Z" fill="#7B86C9" stroke="#111" stroke-width="1" fill-opacity="0.9"/><path d="M -8.412855007929265 -3.0830943247911686 L -27.550155689038043 -10.096421318557033 A 29.341929076528835 29.341929076528835 0 0 1 -5.390024928656953e-15 -29.341929076528835 L -1.6459252980540428e-15 -8.96 A 8.96 8.96 0 0 0 -8.412855007929265 -3.0830943247911686 Z" fill="#7F142A" stroke="#111" stroke-width="1" fill-opacity="0.9"/>
    <circle r="5.76" fill="#fff" stroke="#111" stroke-width="1.5"/>
  </g>
</svg>