<?xml version="1.0" encoding="UTF-8"?>
<svg xmlns="http://www.w3.org/2000/svg" width="64" height="64" viewBox="-32 -32 64 64">
  <g>
    <path d="M 5.486417660180143e-16 -8.96 L 1.8810574834903343e-15 -30.72 A 30.72 30.72 0 1 1 -26.28332310390445 -15.902997409789217 L -7.665969238638799 -4.638374244521856 A 8.96 8.96 0 1 0 5.486417660180143e-16 -8.96 Z" fill="#7F142A" stroke="#111" stroke-width="1" fill-opacity="0.9"/><path d="M -7.665969238638799 -4.638374244521856 L -24.563283915108048 -14.862269848208483 A 28.709614796008196 28.709614796008196 0 0 1 -3.5280754879238274 -28.4920105483394 L -1.1010790843558371 -8.892087766660545 A 8.96 8.96 0 0 0 -7.665969238638799 -4.638374244521856 Z" fill="#A0AAE5" stroke="#111" stroke-width="1" fill-opacity="0.9"/><path d="M -1.1010790843558371 -8.892087766660545 L -2.9811442449447876 -24.07510654571404 A 24.2589772289899 24.2589772289899 0 0 1 -4.456301822110651e-15 -24.2589772289899 L -1.6459252980540428e-15 -8.96 A 8.96 8.96 0 0 0 -1.1010790843558371 -8.892087766660545 Z" fill="#51BF7E" stroke="#111" stroke-width="1" fill-opacity="0.9"/>
    <circle r="5.76" fill="#fff" stroke="#111" stroke-width="1.5"/>
  </g>
</svg>