<?xml version="1.0" encoding="UTF-8"?>
<svg xmlns="http://www.w3.org/2000/svg" width="64" height="64" viewBox="-32 -32 64 64">
  <g>
    <path d="M 5.486417660180143e-16 -8.96 L 1.8225804462236547e-15 -29.764997507732122 A 29.764997507732122 29.764997507732122 0 0 1 21.29230076493032 20.798870276316624 L 6.4095088469003425 6.260974072898422 A 8.96 8.96 0 0 0 5.486417660180143e-16 -8.96 Z" fill="#7F142A" stroke="#111" stroke-width="1" fill-opacity="0.9"/><path d="M 6.4095088469003425 6.260974072898422 L 21.975458903658314 21.466196821366015 A 30.72 30.72 0 0 1 -30.711557686573542 0.7201558610921596 L -8.957537658583952 0.21004545948521325 A 8.96 8.96 0 0 0 6.4095088469003425 6.260974072898422 Z" fill="#A0AAE5" stroke="#111" stroke-width="1" fill-opacity="0.9"/><path d="M -8.957537658583952 0.21004545948521325 L -22.649773793847988 0.5311149475554677 A 22.656 22.656 0 0 1 -22.599984675400933 -1.5921773367445637 L -8.93784704676873 -0.6296746529498276 A 8.96 8.96 0 0 0 -8.957537658583952 0.21004545948521325 Z" fill="#4A0D19" stroke="#111" stroke-width="1" fill-opacity="0.9"/><path d="M -8.93784704676873 -0.6296746529498276 L -28.797847747849808 -2.0288190983179737 A 28.869224822326593 28.869224822326593 0 0 1 -5.3031905658791366e-15 -28.869224822326593 L -1.6459252980540428e-15 -8.96 A 8.96 8.96 0 0 0 -8.93784704676873 -0.6296746529498276 Z" fill="#51BF7E" stroke="#111" stroke-width="1" fill-opacity="0.9"/>
    <circle r="5.76" fill="#fff" stroke="#111" stroke-width="1.5"/>
  </g>
</svg>