<?xml version="1.0" encoding="UTF-8"?>
<svg xmlns="http://www.w3.org/2000/svg" width="64" height="64" viewBox="-32 -32 64 64">
  <g>
    <path d="M 5.486417660180143e-16 -8.96 L 1.6523085936817277e-15 -26.98424712875793 A 26.98424712875793 26.98424712875793 0 0 1 11.708026041497723 -24.311966586796135 L 3.8875983024933216 -8.072681056405676 A 8.96 8.96 0 0 0 5.486417660180143e-16 -8.96 Z" fill="#51BF7E" stroke="#111" stroke-width="1" fill-opacity="0.9"/><path d="M 3.8875983024933216 -8.072681056405676 L 13.328908465691386 -27.677763621962317 A 30.72 30.72 0 0 1 24.017863141417873 19.15360671310029 L 7.005210082913548 5.586468624654253 A 8.96 8.96 0 0 0 3.8875983024933216 -8.072681056405676 Z" fill="#A0AAE5" stroke="#111" stroke-width="1" fill-opacity="0.9"/><path d="M 7.005210082913548 5.586468624654253 L 17.713174066795684 14.125784950911465 A 22.656 22.656 0 1 1 -4.1618396822223646e-15 -22.656 L -1.6459252980540428e-15 -8.96 A 8.96 8.96 0 1 0 7.005210082913548 5.586468624654253 Z" fill="#004F61" stroke="#111" stroke-width="1" fill-opacity="0.9"/>
    <circle r="5.76" fill="#fff" stroke="#111" stroke-width="1.5"/>
  </g>
</svg>