<?xml version="1.0" encoding="UTF-8"?>
<svg xmlns="http://www.w3.org/2000/svg" width="64" height="64" viewBox="-32 -32 64 64">
  <g>
    <path d="M 5.486417660180143e-16 -8.96 L 1.8810574834903343e-15 -30.72 A 30.72 30.72 0 1 1 -15.8378144924781 26.322652451868343 L -4.619362560306113 7.677440298461602 A 8.96 8.96 0 1 0 5.486417660180143e-16 -8.96 Z" fill="#7F142A" stroke="#111" stroke-width="1" fill-opacity="0.9"/><path d="M -4.619362560306113 7.677440298461602 L -11.680388188202599 19.412956183252906 A 22.656 22.656 0 0 1 -4.8703702934209865 -22.126315310167715 L -1.926135144290786 -8.750520179162375 A 8.96 8.96 0 0 0 -4.619362560306113 7.677440298461602 Z" fill="#4A0D19" stroke="#111" stroke-width="1" fill-opacity="0.9"/><path d="M -1.926135144290786 -8.750520179162375 L -5.273504984954721 -23.957774677721726 A 24.53130290740438 24.53130290740438 0 0 1 -2.629450108715355e-14 -24.53130290740438 L -9.604003938567165e-15 -8.96 A 8.96 8.96 0 0 0 -1.926135144290786 -8.750520179162375 Z" fill="#51BF7E" stroke="#111" stroke-width="1" fill-opacity="0.9"/>
    <circle r="5.76" fill="#fff" stroke="#111" stroke-width="1.5"/>
  </g>
</svg>