<?xml version="1.0" encoding="UTF-8"?>
<svg xmlns="http://www.w3.org/2000/svg" width="64" height="64" viewBox="-32 -32 64 64">
  <g>
    <path d="M 5.486417660180143e-16 -8.96 L 1.725091461952675e-15 -28.17288157130286 A 28.17288157130286 28.17288157130286 0 0 1 18.97994758355711 -20.820010704994388 L 6.036312967073153 -6.621519898297106 A 8.96 8.96 0 0 0 5.486417660180143e-16 -8.96 Z" fill="#51BF7E" stroke="#111" stroke-width="1" fill-opacity="0.9"/><path d="M 6.036312967073153 -6.621519898297106 L 20.162738987647014 -22.11747106870272 A 29.92855776610164 29.92855776610164 0 0 1 23.883504685000908 18.03598552673023 L 7.150234356430946 5.399606341958137 A 8.96 8.96 0 0 0 6.036312967073153 -6.621519898297106 Z" fill="#A0AAE5" stroke="#111" stroke-width="1" fill-opacity="0.9"/><path d="M 7.150234356430946 5.399606341958137 L 18.079878301261104 13.65329032180843 A 22.656 22.656 0 0 1 11.926847082149377 19.262519427090133 L 4.716832179381111 7.617945536137342 A 8.96 8.96 0 0 0 7.150234356430946 5.399606341958137 Z" fill="#7B86C9" stroke="#111" stroke-width="1" fill-opacity="0.9"/><path d="M 4.716832179381111 7.617945536137342 L 16.171996043592376 26.118670409613742 A 30.72 30.72 0 1 1 -5.643172450471003e-15 -30.72 L -1.6459252980540428e-15 -8.96 A 8.96 8.96 0 1 0 4.716832179381111 7.617945536137342 Z" fill="#7F142A" stroke="#111" stroke-width="1" fill-opacity="0.9"/>
    <circle r="5.76" fill="#fff" stroke="#111" stroke-width="1.5"/>
  </g>
</svg>