<?xml version="1.0" encoding="UTF-8"?>
<svg xmlns="http://www.w3.org/2000/svg" width="64" height="64" viewBox="-32 -32 64 64">
  <g>
    <path d="M 5.486417660180143e-16 -8.96 L 1.8810574834903343e-15 -30.72 A 30.72 30.72 0 1 1 -30.70128620602662 1.0721125387008215 L -8.954541810091099 0.3126994904544063 A 8.96 8.96 0 1 0 5.486417660180143e-16 -8.96 Z" fill="#A0AAE5" stroke="#111" stroke-width="1" fill-opacity="0.9"/><path d="M -8.954541810091099 0.3126994904544063 L -28.899301986532578 1.0091858631441035 A 28.916917391298398 28.916917391298398 0 0 1 -7.970582648116079 -27.796725052867767 L -2.4697107081203105 -8.612904795607339 A 8.96 8.96 0 0 0 -8.954541810091099 0.3126994904544063 Z" fill="#7F142A" stroke="#111" stroke-width="1" fill-opacity="0.9"/><path d="M -2.4697107081203105 -8.612904795607339 L -6.244839933389926 -21.778344983178552 A 22.656 22.656 0 0 1 1.5960730594503672e-14 -22.656 L 6.31215334245908e-15 -8.96 A 8.96 8.96 0 0 0 -2.4697107081203105 -8.612904795607339 Z" fill="#4A0D19" stroke="#111" stroke-width="1" fill-opacity="0.9"/>
    <circle r="5.76" fill="#fff" stroke="#111" stroke-width="1.5"/>
  </g>
</svg>