<?xml version="1.0" encoding="UTF-8"?>
<svg xmlns="http://www.w3.org/2000/svg" width="64" height="64" viewBox="-32 -32 64 64">
  <g>
    <path d="M 5.486417660180143e-16 -8.96 L 1.816030926832027e-15 -29.658035738899063 A 29.658035738899063 29.658035738899063 0 0 1 18.0546682180039 -23.529301719932402 L 5.454502403918138 -7.108445929009468 A 8.96 8.96 0 0 0 5.486417660180143e-16 -8.96 Z" fill="#7F142A" stroke="#111" stroke-width="1" fill-opacity="0.9"/><path d="M 5.454502403918138 -7.108445929009468 L 18.701151099147896 -24.371814613746743 A 30.72 30.72 0 1 1 -23.096518885754193 -20.255103439874105 L -6.736484675011641 -5.907738503296614 A 8.96 8.96 0 1 0 5.454502403918138 -7.108445929009468 Z" fill="#A0AAE5" stroke="#111" stroke-width="1" fill-opacity="0.9"/><path d="M -6.736484675011641 -5.907738503296614 L -17.033682678243718 -14.938138786907151 A 22.656 22.656 0 0 1 -4.1618396822223646e-15 -22.656 L -1.6459252980540428e-15 -8.96 A 8.96 8.96 0 0 0 -6.736484675011641 -5.907738503296614 Z" fill="#7B86C9" stroke="#111" stroke-width="1" fill-opacity="0.9"/>
    <circle r="5.76" fill="#fff" stroke="#111" stroke-width="1.5"/>
  </g>
</svg>