<?xml version="1.0" encoding="UTF-8"?>
<svg xmlns="http://www.w3.org/2000/svg" width="64" height="64" viewBox="-32 -32 64 64">
  <g>
    <path d="M 5.486417660180143e-16 -8.96 L 1.63807619132592e-15 -26.751814359314253 A 26.751814359314253 26.751814359314253 0 0 1 15.724321952470934 21.642672447048977 L 5.26655586054056 7.24879226959953 A 8.96 8.96 0 0 0 5.486417660180143e-16 -8.96 Z" fill="#51BF7E" stroke="#111" stroke-width="1" fill-opacity="0.9"/><path d="M 5.26655586054056 7.24879226959953 L 18.056762950424773 24.853002067198386 A 30.72 30.72 0 0 1 -18.05676295042477 24.853002067198386 L -5.266555860540559 7.24879226959953 A 8.96 8.96 0 0 0 5.26655586054056 7.24879226959953 Z" fill="#7F142A" stroke="#111" stroke-width="1" fill-opacity="0.9"/><path d="M -5.266555860540559 7.24879226959953 L -17.24790159997703 23.739699928274216 A 29.343882876793813 29.343882876793813 0 0 1 -5.3903838359430555e-15 -29.343882876793813 L -1.6459252980540428e-15 -8.96 A 8.96 8.96 0 0 0 -5.266555860540559 7.24879226959953 Z" fill="#A0AAE5" stroke="#111" stroke-width="1" fill-opacity="0.9"/>
    <circle r="5.76" fill="#fff" stroke="#111" stroke-width="1.5"/>
  </g>
</svg>