<?xml version="1.0" encoding="UTF-8"?>
<svg xmlns="http://www.w3.org/2000/svg" width="64" height="64" viewBox="-32 -32 64 64">
  <g>
    <path d="M 5.486417660180143e-16 -8.96 L 1.8810574834903343e-15 -30.72 A 30.72 30.72 0 1 1 -29.8540513788992 -7.242514498849587 L -8.707431652178935 -2.112400062164463 A 8.96 8.96 0 1 0 5.486417660180143e-16 -8.96 Z" fill="#A0AAE5" stroke="#111" stroke-width="1" fill-opacity="0.9"/><path d="M -8.707431652178935 -2.112400062164463 L -29.662037720341107 -7.195932489311442 A 30.52241678035451 30.52241678035451 0 0 1 -2.9013401712217117 -30.384208913916485 L -0.8517021480054832 -8.91942842625484 A 8.96 8.96 0 0 0 -8.707431652178935 -2.112400062164463 Z" fill="#7F142A" stroke="#111" stroke-width="1" fill-opacity="0.9"/><path d="M -0.8517021480054832 -8.91942842625484 L -2.1535897170995786 -22.553411877815805 A 22.656 22.656 0 0 1 -2.42844099589484e-14 -22.656 L -9.604003938567165e-15 -8.96 A 8.96 8.96 0 0 0 -0.8517021480054832 -8.91942842625484 Z" fill="#4A0D19" stroke="#111" stroke-width="1" fill-opacity="0.9"/>
    <circle r="5.76" fill="#fff" stroke="#111" stroke-width="1.5"/>
  </g>
</svg>