<?xml version="1.0" encoding="UTF-8"?>
<svg xmlns="http://www.w3.org/2000/svg" width="64" height="64" viewBox="-32 -32 64 64">
  <g>
    <path d="M 5.486417660180143e-16 -8.96 L 1.3872798940741216e-15 -22.656 A 22.656 22.656 0 0 1 12.762579235489419 -18.71926567090318 L 5.047347720250054 -7.403099417871315 A 8.96 8.96 0 0 0 5.486417660180143e-16 -8.96 Z" fill="#e0e0e0" stroke="#111" stroke-width="1" fill-opacity="0.9"/><path d="M 5.047347720250054 -7.403099417871315 L 12.762579235489419 -18.71926567090318 A 22.656 22.656 0 0 1 22.087966778391394 5.041434279714253 L 8.735354093149141 1.993787568248575 A 8.96 8.96 0 0 0 5.047347720250054 -7.403099417871315 Z" fill="#004F61" stroke="#111" stroke-width="1" fill-opacity="0.9"/><path d="M 8.735354093149141 1.993787568248575 L 22.087966778391394 5.041434279714253 A 22.656 22.656 0 0 1 8.277166248045049 21.089875649283087 L 3.2734555783229013 8.34062878785207 A 8.96 8.96 0 0 0 8.735354093149141 1.993787568248575 Z" fill="#4A0D19" stroke="#111" stroke-width="1" fill-opacity="0.9"/><path d="M 3.2734555783229013 8.34062878785207 L 9.53855767653965 24.303848593019218 A 26.108641078789905 26.108641078789905 0 0 1 1.9511011912323397 26.035636023009836 L 0.6695816385343646 8.934946022743375 A 8.96 8.96 0 0 0 3.2734555783229013 8.34062878785207 Z" fill="#A0AAE5" stroke="#111" stroke-width="1" fill-opacity="0.9"/><path d="M 0.6695816385343646 8.934946022743375 L 2.295708474974964 30.634100649405852 A 30.72 30.72 0 1 1 -5.643172450471003e-15 -30.72 L -1.6459252980540428e-15 -8.96 A 8.96 8.96 0 1 0 0.6695816385343646 8.934946022743375 Z" fill="#7F142A" stroke="#111" stroke-width="1" fill-opacity="0.9"/>
    <circle r="5.76" fill="#fff" stroke="#111" stroke-width="1.5"/>
  </g>
</svg>