<?xml version="1.0" encoding="UTF-8"?>
<svg xmlns="http://www.w3.org/2000/svg" width="64" height="64" viewBox="-32 -32 64 64">
  <g>
    <path d="M 5.486417660180143e-16 -8.96 L 1.45879446644367e-15 -23.823921598608507 A 23.823921598608507 23.823921598608507 0 0 1 2.5758190182505 -23.684264749446285 L 0.9687464050785192 -8.907476096103062 A 8.96 8.96 0 0 0 5.486417660180143e-16 -8.96 Z" fill="#51BF7E" stroke="#111" stroke-width="1" fill-opacity="0.9"/><path d="M 0.9687464050785192 -8.907476096103062 L 3.021288559865077 -27.78028954259349 A 27.944099048498607 27.944099048498607 0 0 1 19.217141793798955 -20.287289935063438 L 6.161787151326673 -6.504919607631253 A 8.96 8.96 0 0 0 0.9687464050785192 -8.907476096103062 Z" fill="#A0AAE5" stroke="#111" stroke-width="1" fill-opacity="0.9"/><path d="M 6.161787151326673 -6.504919607631253 L 21.126127375977163 -22.30258151187858 A 30.72 30.72 0 1 1 -5.643172450471003e-15 -30.72 L -1.6459252980540428e-15 -8.96 A 8.96 8.96 0 1 0 6.161787151326673 -6.504919607631253 Z" fill="#7F142A" stroke="#111" stroke-width="1" fill-opacity="0.9"/>
    <circle r="5.76" fill="#fff" stroke="#111" stroke-width="1.5"/>
  </g>
</svg>