<?xml version="1.0" encoding="UTF-8"?>
<svg xmlns="http://www.w3.org/2000/svg" width="64" height="64" viewBox="-32 -32 64 64">
  <g>
    <path d="M 5.486417660180143e-16 -8.96 L 1.8810574834903343e-15 -30.72 A 30.72 30.72 0 0 1 26.700093813359068 -15.192873011969287 L 7.78752736222973 -4.431254628491042 A 8.96 8.96 0 0 0 5.486417660180143e-16 -8.96 Z" fill="#A0AAE5" stroke="#111" stroke-width="1" fill-opacity="0.9"/><path d="M 7.78752736222973 -4.431254628491042 L 19.691319187352313 -11.204743846327348 A 22.656 22.656 0 1 1 -0.42617799505280096 -22.65199126603515 L -0.16854496979489306 -8.958414624985654 A 8.96 8.96 0 1 0 7.78752736222973 -4.431254628491042 Z" fill="#7B86C9" stroke="#111" stroke-width="1" fill-opacity="0.9"/><path d="M -0.16854496979489306 -8.958414624985654 L -0.44653890638958527 -23.73420384182103 A 23.738404095474316 23.738404095474316 0 0 1 -4.360674088858356e-15 -23.738404095474316 L -1.6459252980540428e-15 -8.96 A 8.96 8.96 0 0 0 -0.16854496979489306 -8.958414624985654 Z" fill="#51BF7E" stroke="#111" stroke-width="1" fill-opacity="0.9"/>
    <circle r="5.76" fill="#fff" stroke="#111" stroke-width="1.5"/>
  </g>
</svg>