<?xml version="1.0" encoding="UTF-8"?>
<svg xmlns="http://www.w3.org/2000/svg" width="64" height="64" viewBox="-32 -32 64 64">
  <g>
    <path d="M 5.486417660180143e-16 -8.96 L 1.7620086446590656e-15 -28.77578491832657 A 28.77578491832657 28.77578491832657 0 0 1 21.820844847096854 -18.75890529387889 L 6.794420043967921 -5.841015003073266 A 8.96 8.96 0 0 0 5.486417660180143e-16 -8.96 Z" fill="#7F142A" stroke="#111" stroke-width="1" fill-opacity="0.9"/><path d="M 6.794420043967921 -5.841015003073266 L 23.29515443646144 -20.02633715339405 A 30.72 30.72 0 1 1 -17.409077953263157 -25.31091473687205 L -5.077647736368421 -7.382350131587682 A 8.96 8.96 0 1 0 6.794420043967921 -5.841015003073266 Z" fill="#A0AAE5" stroke="#111" stroke-width="1" fill-opacity="0.9"/><path d="M -5.077647736368421 -7.382350131587682 L -12.839194990531578 -18.666799618443136 A 22.656 22.656 0 0 1 -11.186978864424463 -19.701417205036805 L -4.424228929433404 -7.791520928545631 A 8.96 8.96 0 0 0 -5.077647736368421 -7.382350131587682 Z" fill="#7B86C9" stroke="#111" stroke-width="1" fill-opacity="0.9"/><path d="M -4.424228929433404 -7.791520928545631 L -12.851075621412036 -22.632062276980243 A 26.02614815020392 26.02614815020392 0 0 1 -2.7896788988871757e-14 -26.02614815020392 L -9.604003938567165e-15 -8.96 A 8.96 8.96 0 0 0 -4.424228929433404 -7.791520928545631 Z" fill="#51BF7E" stroke="#111" stroke-width="1" fill-opacity="0.9"/>
    <circle r="5.76" fill="#fff" stroke="#111" stroke-width="1.5"/>
  </g>
</svg>