<?xml version="1.0" encoding="UTF-8"?>
<svg xmlns="http://www.w3.org/2000/svg" width="64" height="64" viewBox="-32 -32 64 64">
  <g>
    <path d="M 5.486417660180143e-16 -8.96 L 1.3872798940741216e-15 -22.656 A 22.656 22.656 0 0 1 1.4861901537268318 -22.607201835410002 L 0.5877588178580692 -8.940701290840115 A 8.96 8.96 0 0 0 5.486417660180143e-16 -8.96 Z" fill="#004F61" stroke="#111" stroke-width="1" fill-opacity="0.9"/><path d="M 0.5877588178580692 -8.940701290840115 L 1.4861901537268318 -22.607201835410002 A 22.656 22.656 0 0 1 12.44310012719352 -18.933134849375488 L 4.921000050302523 -7.487680448905561 A 8.96 8.96 0 0 0 0.5877588178580692 -8.940701290840115 Z" fill="#4A0D19" stroke="#111" stroke-width="1" fill-opacity="0.9"/><path d="M 4.921000050302523 -7.487680448905561 L 16.870823175370784 -25.67025636169234 A 30.717856961214494 30.717856961214494 0 0 1 1.8809262602108786e-15 30.717856961214494 L 5.486417660180143e-16 8.96 A 8.96 8.96 0 0 0 4.921000050302523 -7.487680448905561 Z" fill="#7F142A" stroke="#111" stroke-width="1" fill-opacity="0.9"/><path d="M 5.486417660180143e-16 8.96 L 1.8810574834903343e-15 30.72 A 30.72 30.72 0 0 1 -19.86877169716836 -23.42968867155092 L -5.7950584116741055 -6.833659195869019 A 8.96 8.96 0 0 0 5.486417660180143e-16 8.96 Z" fill="#A0AAE5" stroke="#111" stroke-width="1" fill-opacity="0.9"/><path d="M -5.7950584116741055 -6.833659195869019 L -14.653219126661666 -17.279395395268804 A 22.656 22.656 0 0 1 -2.1215415868902605 -22.556449128688122 L -0.8390277462277868 -8.920629598916207 A 8.96 8.96 0 0 0 -5.7950584116741055 -6.833659195869019 Z" fill="#7B86C9" stroke="#111" stroke-width="1" fill-opacity="0.9"/><path d="M -0.8390277462277868 -8.920629598916207 L -2.4747351258227677 -26.31163928981529 A 26.42776335712753 26.42776335712753 0 0 1 -4.854701370589491e-15 -26.42776335712753 L -1.6459252980540428e-15 -8.96 A 8.96 8.96 0 0 0 -0.8390277462277868 -8.920629598916207 Z" fill="#51BF7E" stroke="#111" stroke-width="1" fill-opacity="0.9"/>
    <circle r="5.76" fill="#fff" stroke="#111" stroke-width="1.5"/>
  </g>
</svg>