<?xml version="1.0" encoding="UTF-8"?>
<svg xmlns="http://www.w3.org/2000/svg" width="64" height="64" viewBox="-32 -32 64 64">
  <g>
    <path d="M 5.486417660180143e-16 -8.96 L 1.3872798940741216e-15 -22.656 A 22.656 22.656 0 0 1 7.141963744211871 -21.500853236008172 L 2.824505435564017 -8.503162296726396 A 8.96 8.96 0 0 0 5.486417660180143e-16 -8.96 Z" fill="#004F61" stroke="#111" stroke-width="1" fill-opacity="0.9"/><path d="M 2.824505435564017 -8.503162296726396 L 7.141963744211871 -21.500853236008172 A 22.656 22.656 0 0 1 12.339341977300453 -19.000920387371526 L 4.879965753734643 -7.514488288791 A 8.96 8.96 0 0 0 2.824505435564017 -8.503162296726396 Z" fill="#4A0D19" stroke="#111" stroke-width="1" fill-opacity="0.9"/><path d="M 4.879965753734643 -7.514488288791 L 16.23727474582821 -25.003210488932197 A 29.812910390053492 29.812910390053492 0 0 1 28.102886303877522 9.95175398192161 L 8.446067760185919 2.990909458734587 A 8.96 8.96 0 0 0 4.879965753734643 -7.514488288791 Z" fill="#7F142A" stroke="#111" stroke-width="1" fill-opacity="0.9"/><path d="M 8.446067760185919 2.990909458734587 L 28.95794660635172 10.25454671566144 A 30.72 30.72 0 1 1 -27.640267286084246 -13.406491873485061 L -8.061744625107906 -3.9102267964331436 A 8.96 8.96 0 1 0 8.446067760185919 2.990909458734587 Z" fill="#A0AAE5" stroke="#111" stroke-width="1" fill-opacity="0.9"/><path d="M -8.061744625107906 -3.9102267964331436 L -20.384697123487133 -9.887287756695233 A 22.656 22.656 0 0 1 -12.089570472584091 -19.160809528525217 L -4.7811860626038785 -7.577721282467602 A 8.96 8.96 0 0 0 -8.061744625107906 -3.9102267964331436 Z" fill="#7B86C9" stroke="#111" stroke-width="1" fill-opacity="0.9"/><path d="M -4.7811860626038785 -7.577721282467602 L -14.365130751754915 -22.76735429194312 A 26.920427243449826 26.920427243449826 0 0 1 -5.941269242312307 -26.256631976706938 L -1.9774490177926471 -8.739067191756275 A 8.96 8.96 0 0 0 -4.7811860626038785 -7.577721282467602 Z" fill="#51BF7E" stroke="#111" stroke-width="1" fill-opacity="0.9"/><path d="M -1.9774490177926471 -8.739067191756275 L -5.000121087847122 -22.097355613440865 A 22.656 22.656 0 0 1 1.5960730594503672e-14 -22.656 L 6.31215334245908e-15 -8.96 A 8.96 8.96 0 0 0 -1.9774490177926471 -8.739067191756275 Z" fill="#e0e0e0" stroke="#111" stroke-width="1" fill-opacity="0.9"/>
    <circle r="5.76" fill="#fff" stroke="#111" stroke-width="1.5"/>
  </g>
</svg>