<?xml version="1.0" encoding="UTF-8"?>
<svg xmlns="http://www.w3.org/2000/svg" width="64" height="64" viewBox="-32 -32 64 64">
  <g>
    <path d="M 5.486417660180143e-16 -8.96 L 1.8810574834903343e-15 -30.72 A 30.72 30.72 0 1 1 -8.654824146168712 29.475624149437362 L -2.524323709299208 8.597057043585899 A 8.96 8.96 0 1 0 5.486417660180143e-16 -8.96 Z" fill="#7F142A" stroke="#111" stroke-width="1" fill-opacity="0.9"/><path d="M -2.524323709299208 8.597057043585899 L -8.0678699942005 27.476641884266158 A 28.636626468205538 28.636626468205538 0 0 1 -28.34514690136489 4.075416864515149 L -8.868800119253157 1.2751409509286353 A 8.96 8.96 0 0 0 -2.524323709299208 8.597057043585899 Z" fill="#A0AAE5" stroke="#111" stroke-width="1" fill-opacity="0.9"/><path d="M -8.868800119253157 1.2751409509286353 L -22.42539458725441 3.2242849759195487 A 22.656 22.656 0 0 1 -20.608622486751973 -9.411642534570731 L -8.150302678376487 -3.7221185164969 A 8.96 8.96 0 0 0 -8.868800119253157 1.2751409509286353 Z" fill="#7B86C9" stroke="#111" stroke-width="1" fill-opacity="0.9"/><path d="M -8.150302678376487 -3.7221185164969 L -20.608622486751973 -9.411642534570731 A 22.656 22.656 0 0 1 -4.1618396822223646e-15 -22.656 L -1.6459252980540428e-15 -8.96 A 8.96 8.96 0 0 0 -8.150302678376487 -3.7221185164969 Z" fill="#4A0D19" stroke="#111" stroke-width="1" fill-opacity="0.9"/>
    <circle r="5.76" fill="#fff" stroke="#111" stroke-width="1.5"/>
  </g>
</svg>