<?xml version="1.0" encoding="UTF-8"?>
<svg xmlns="http://www.w3.org/2000/svg" width="64" height="64" viewBox="-32 -32 64 64">
  <g>
    <path d="M 5.486417660180143e-16 -8.96 L 1.732587017485132e-15 -28.29529328278858 A 28.29529328278858 28.29529328278858 0 0 1 27.58587120476145 6.296295087853944 L 8.735354093149141 1.993787568248577 A 8.96 8.96 0 0 0 5.486417660180143e-16 -8.96 Z" fill="#51BF7E" stroke="#111" stroke-width="1" fill-opacity="0.9"/><path d="M 8.735354093149141 1.993787568248577 L 22.087966778391394 5.041434279714259 A 22.656 22.656 0 0 1 9.830069993447397 20.412350671197206 L 3.8875983024933216 8.072681056405676 A 8.96 8.96 0 0 0 8.735354093149141 1.993787568248577 Z" fill="#004F61" stroke="#111" stroke-width="1" fill-opacity="0.9"/><path d="M 3.8875983024933216 8.072681056405676 L 13.328908465691386 27.677763621962317 A 30.72 30.72 0 1 1 -5.643172450471003e-15 -30.72 L -1.6459252980540428e-15 -8.96 A 8.96 8.96 0 1 0 3.8875983024933216 8.072681056405676 Z" fill="#A0AAE5" stroke="#111" stroke-width="1" fill-opacity="0.9"/>
    <circle r="5.76" fill="#fff" stroke="#111" stroke-width="1.5"/>
  </g>
</svg>