<?xml version="1.0" encoding="UTF-8"?>
<svg xmlns="http://www.w3.org/2000/svg" width="64" height="64" viewBox="-32 -32 64 64">
  <g>
    <path d="M 5.486417660180143e-16 -8.96 L 1.8810574834903343e-15 -30.72 A 30.72 30.72 0 0 1 30.709815322039695 -0.7909759074812496 L 8.957029468928246 -0.23070130634869784 A 8.96 8.96 0 0 0 5.486417660180143e-16 -8.96 Z" fill="#7F142A" stroke="#111" stroke-width="1" fill-opacity="0.9"/><path d="M 8.957029468928246 -0.23070130634869784 L 28.85393790143325 -0.7431750883768564 A 28.863507091685 28.863507091685 0 0 1 28.777422445181287 2.2275544983965214 L 8.9332770369788 0.6914921406547505 A 8.96 8.96 0 0 0 8.957029468928246 -0.23070130634869784 Z" fill="#A0AAE5" stroke="#111" stroke-width="1" fill-opacity="0.9"/><path d="M 8.9332770369788 0.6914921406547505 L 22.58842907921782 1.7484872699412974 A 22.656 22.656 0 1 1 -6.890025641212259 -21.582907187481432 L -2.724868897654566 -8.535613011998308 A 8.96 8.96 0 1 0 8.9332770369788 0.6914921406547505 Z" fill="#7B86C9" stroke="#111" stroke-width="1" fill-opacity="0.9"/><path d="M -2.724868897654566 -8.535613011998308 L -6.890025641212259 -21.582907187481432 A 22.656 22.656 0 0 1 -2.42844099589484e-14 -22.656 L -9.604003938567165e-15 -8.96 A 8.96 8.96 0 0 0 -2.724868897654566 -8.535613011998308 Z" fill="#4A0D19" stroke="#111" stroke-width="1" fill-opacity="0.9"/>
    <circle r="5.76" fill="#fff" stroke="#111" stroke-width="1.5"/>
  </g>
</svg>