<?xml version="1.0" encoding="UTF-8"?>
<svg xmlns="http://www.w3.org/2000/svg" width="64" height="64" viewBox="-32 -32 64 64">
  <g>
    <path d="M 5.486417660180143e-16 -8.96 L 1.8810574834903343e-15 -30.72 A 30.72 30.72 0 1 1 -29.94978546222562 6.835843091137981 L -8.735354093149141 1.9937875682485782 A 8.96 8.96 0 1 0 5.486417660180143e-16 -8.96 Z" fill="#A0AAE5" stroke="#111" stroke-width="1" fill-opacity="0.9"/><path d="M -8.735354093149141 1.9937875682485782 L -28.383513030552827 6.478351629491474 A 29.113447954354307 29.113447954354307 0 0 1 -22.76181017390866 -18.151937896484913 L -7.005210082913549 -5.586468624654252 A 8.96 8.96 0 0 0 -8.735354093149141 1.9937875682485782 Z" fill="#7F142A" stroke="#111" stroke-width="1" fill-opacity="0.9"/><path d="M -7.005210082913549 -5.586468624654252 L -21.68054885115777 -17.28966076516329 A 27.7304628136976 27.7304628136976 0 0 1 -5.0940033785504205e-15 -27.7304628136976 L -1.6459252980540428e-15 -8.96 A 8.96 8.96 0 0 0 -7.005210082913549 -5.586468624654252 Z" fill="#51BF7E" stroke="#111" stroke-width="1" fill-opacity="0.9"/>
    <circle r="5.76" fill="#fff" stroke="#111" stroke-width="1.5"/>
  </g>
</svg>