<?xml version="1.0" encoding="UTF-8"?>
<svg xmlns="http://www.w3.org/2000/svg" width="64" height="64" viewBox="-32 -32 64 64">
  <g>
    <path d="M 5.486417660180143e-16 -8.96 L 1.3872798940741216e-15 -22.656 A 22.656 22.656 0 0 1 1.329626643618128 -22.616950037274716 L 0.5258410454986948 -8.944556511916556 A 8.96 8.96 0 0 0 5.486417660180143e-16 -8.96 Z" fill="#4A0D19" stroke="#111" stroke-width="1" fill-opacity="0.9"/><path d="M 0.5258410454986948 -8.944556511916556 L 1.8028835845669533 -30.667050897999616 A 30.72 30.72 0 1 1 -13.096259938063433 27.788601541543514 L -3.8197424819351684 8.105008782950193 A 8.96 8.96 0 1 0 0.5258410454986948 -8.944556511916556 Z" fill="#A0AAE5" stroke="#111" stroke-width="1" fill-opacity="0.9"/><path d="M -3.8197424819351684 8.105008782950193 L -12.919957516728415 27.41451017802003 A 30.306446022832024 30.306446022832024 0 0 1 -1.7786130872763017 -30.25420972394752 L -0.5258410454986919 -8.944556511916556 A 8.96 8.96 0 0 0 -3.8197424819351684 8.105008782950193 Z" fill="#7F142A" stroke="#111" stroke-width="1" fill-opacity="0.9"/><path d="M -0.5258410454986919 -8.944556511916556 L -1.5225951433046163 -25.8993443373026 A 25.944061614800855 25.944061614800855 0 0 1 -4.765846802017137e-15 -25.944061614800855 L -1.6459252980540428e-15 -8.96 A 8.96 8.96 0 0 0 -0.5258410454986919 -8.944556511916556 Z" fill="#51BF7E" stroke="#111" stroke-width="1" fill-opacity="0.9"/>
    <circle r="5.76" fill="#fff" stroke="#111" stroke-width="1.5"/>
  </g>
</svg>