<?xml version="1.0" encoding="UTF-8"?>
<svg xmlns="http://www.w3.org/2000/svg" width="64" height="64" viewBox="-32 -32 64 64">
  <g>
    <path d="M 5.486417660180143e-16 -8.96 L 1.3872798940741216e-15 -22.656 A 22.656 22.656 0 0 1 8.184291189136138 -21.126090829385085 L 3.2367253290368914 -8.354951175463029 A 8.96 8.96 0 0 0 5.486417660180143e-16 -8.96 Z" fill="#e0e0e0" stroke="#111" stroke-width="1" fill-opacity="0.9"/><path d="M 3.2367253290368914 -8.354951175463029 L 8.184291189136138 -21.126090829385085 A 22.656 22.656 0 0 1 4.163029075652227 22.270238546438474 L 1.646395679636474 8.80743897316776 A 8.96 8.96 0 0 0 3.2367253290368914 -8.354951175463029 Z" fill="#004F61" stroke="#111" stroke-width="1" fill-opacity="0.9"/><path d="M 1.646395679636474 8.80743897316776 L 5.644785187325054 30.196933622289457 A 30.72 30.72 0 1 1 -5.643172450471003e-15 -30.72 L -1.6459252980540428e-15 -8.96 A 8.96 8.96 0 1 0 1.646395679636474 8.80743897316776 Z" fill="#A0AAE5" stroke="#111" stroke-width="1" fill-opacity="0.9"/>
    <circle r="5.76" fill="#fff" stroke="#111" stroke-width="1.5"/>
  </g>
</svg>