<?xml version="1.0" encoding="UTF-8"?>
<svg xmlns="http://www.w3.org/2000/svg" width="64" height="64" viewBox="-32 -32 64 64">
  <g>
    <path d="M 5.486417660180143e-16 -8.96 L 1.3872798940741216e-15 -22.656 A 22.656 22.656 0 0 1 6.677973231453443 -21.649457487890803 L 2.641006362721701 -8.561932339843823 A 8.96 8.96 0 0 0 5.486417660180143e-16 -8.96 Z" fill="#e0e0e0" stroke="#111" stroke-width="1" fill-opacity="0.9"/><path d="M 2.641006362721701 -8.561932339843823 L 6.677973231453443 -21.649457487890803 A 22.656 22.656 0 0 1 22.592649228936814 -1.6930850002940343 L 8.934946022743375 -0.669581638534364 A 8.96 8.96 0 0 0 2.641006362721701 -8.561932339843823 Z" fill="#004F61" stroke="#111" stroke-width="1" fill-opacity="0.9"/><path d="M 8.934946022743375 -0.669581638534364 L 22.592649228936814 -1.6930850002940343 A 22.656 22.656 0 0 1 9.830069993447406 20.412350671197203 L 3.887598302493325 8.072681056405674 A 8.96 8.96 0 0 0 8.934946022743375 -0.669581638534364 Z" fill="#4A0D19" stroke="#111" stroke-width="1" fill-opacity="0.9"/><path d="M 3.887598302493325 8.072681056405674 L 13.328908465691399 27.67776362196231 A 30.72 30.72 0 0 1 -29.94978546222562 6.835843091137981 L -8.735354093149141 1.9937875682485782 A 8.96 8.96 0 0 0 3.887598302493325 8.072681056405674 Z" fill="#A0AAE5" stroke="#111" stroke-width="1" fill-opacity="0.9"/><path d="M -8.735354093149141 1.9937875682485782 L -29.94978546222562 6.835843091137981 A 30.72 30.72 0 0 1 -5.643172450471003e-15 -30.72 L -1.6459252980540428e-15 -8.96 A 8.96 8.96 0 0 0 -8.735354093149141 1.9937875682485782 Z" fill="#7F142A" stroke="#111" stroke-width="1" fill-opacity="0.9"/>
    <circle r="5.76" fill="#fff" stroke="#111" stroke-width="1.5"/>
  </g>
</svg>