<?xml version="1.0" encoding="UTF-8"?>
<svg xmlns="http://www.w3.org/2000/svg" width="64" height="64" viewBox="-32 -32 64 64">
  <g>
    <path d="M 5.486417660180143e-16 -8.96 L 1.8810574834903343e-15 -30.72 A 30.72 30.72 0 1 1 -8.654824146168712 29.475624149437362 L -2.524323709299208 8.597057043585899 A 8.96 8.96 0 1 0 5.486417660180143e-16 -8.96 Z" fill="#A0AAE5" stroke="#111" stroke-width="1" fill-opacity="0.9"/><path d="M -2.524323709299208 8.597057043585899 L -6.382932807799425 21.738272810210052 A 22.656 22.656 0 0 1 -3.22428497591955 -22.42539458725441 L -1.2751409509286358 -8.868800119253157 A 8.96 8.96 0 0 0 -2.524323709299208 8.597057043585899 Z" fill="#7B86C9" stroke="#111" stroke-width="1" fill-opacity="0.9"/><path d="M -1.2751409509286358 -8.868800119253157 L -3.3714908837483004 -23.449234165110976 A 23.69036795217427 23.69036795217427 0 0 1 -4.351849992487988e-15 -23.69036795217427 L -1.6459252980540428e-15 -8.96 A 8.96 8.96 0 0 0 -1.2751409509286358 -8.868800119253157 Z" fill="#51BF7E" stroke="#111" stroke-width="1" fill-opacity="0.9"/>
    <circle r="5.76" fill="#fff" stroke="#111" stroke-width="1.5"/>
  </g>
</svg>