<?xml version="1.0" encoding="UTF-8"?>
<svg xmlns="http://www.w3.org/2000/svg" width="64" height="64" viewBox="-32 -32 64 64">
  <g>
    <path d="M 5.486417660180143e-16 -8.96 L 1.3872798940741216e-15 -22.656 A 22.656 22.656 0 0 1 21.08987564928309 -8.277166248045049 L 8.34062878785207 -3.273455578322901 A 8.96 8.96 0 0 0 5.486417660180143e-16 -8.96 Z" fill="#004F61" stroke="#111" stroke-width="1" fill-opacity="0.9"/><path d="M 8.34062878785207 -3.273455578322901 L 24.085482939635163 -9.452855472980936 A 25.87405969361055 25.87405969361055 0 0 1 25.22534299675961 5.757519928263644 L 8.735354093149141 1.993787568248575 A 8.96 8.96 0 0 0 8.34062878785207 -3.273455578322901 Z" fill="#A0AAE5" stroke="#111" stroke-width="1" fill-opacity="0.9"/><path d="M 8.735354093149141 1.993787568248575 L 29.94978546222562 6.8358430911379715 A 30.72 30.72 0 1 1 -5.643172450471003e-15 -30.72 L -1.6459252980540428e-15 -8.96 A 8.96 8.96 0 1 0 8.735354093149141 1.993787568248575 Z" fill="#7F142A" stroke="#111" stroke-width="1" fill-opacity="0.9"/>
    <circle r="5.76" fill="#fff" stroke="#111" stroke-width="1.5"/>
  </g>
</svg>