<?xml version="1.0" encoding="UTF-8"?>
<svg xmlns="http://www.w3.org/2000/svg" width="64" height="64" viewBox="-32 -32 64 64">
  <g>
    <path d="M 5.486417660180143e-16 -8.96 L 1.6177147472850697e-15 -26.419286743106433 A 26.419286743106433 26.419286743106433 0 0 1 14.283344781386896 -22.225318307518275 L 4.844141724402156 -7.537631654167384 A 8.96 8.96 0 0 0 5.486417660180143e-16 -8.96 Z" fill="#51BF7E" stroke="#111" stroke-width="1" fill-opacity="0.9"/><path d="M 4.844141724402156 -7.537631654167384 L 12.24875836027402 -19.059440039823237 A 22.656 22.656 0 0 1 20.60862248675197 -9.411642534570737 L 8.150302678376486 -3.722118516496902 A 8.96 8.96 0 0 0 4.844141724402156 -7.537631654167384 Z" fill="#e0e0e0" stroke="#111" stroke-width="1" fill-opacity="0.9"/><path d="M 8.150302678376486 -3.722118516496902 L 20.60862248675197 -9.411642534570737 A 22.656 22.656 0 0 1 6.382932807799429 21.738272810210052 L 2.5243237092992095 8.597057043585899 A 8.96 8.96 0 0 0 8.150302678376486 -3.722118516496902 Z" fill="#004F61" stroke="#111" stroke-width="1" fill-opacity="0.9"/><path d="M 2.5243237092992095 8.597057043585899 L 8.654824146168718 29.475624149437362 A 30.72 30.72 0 0 1 -16.608485912235952 -25.84330852857389 L -4.844141724402154 -7.537631654167385 A 8.96 8.96 0 0 0 2.5243237092992095 8.597057043585899 Z" fill="#A0AAE5" stroke="#111" stroke-width="1" fill-opacity="0.9"/><path d="M -4.844141724402154 -7.537631654167385 L -12.248758360274016 -19.059440039823244 A 22.656 22.656 0 0 1 -4.1618396822223646e-15 -22.656 L -1.6459252980540428e-15 -8.96 A 8.96 8.96 0 0 0 -4.844141724402154 -7.537631654167385 Z" fill="#7B86C9" stroke="#111" stroke-width="1" fill-opacity="0.9"/>
    <circle r="5.76" fill="#fff" stroke="#111" stroke-width="1.5"/>
  </g>
</svg>