<?xml version="1.0" encoding="UTF-8"?>
<svg xmlns="http://www.w3.org/2000/svg" width="64" height="64" viewBox="-32 -32 64 64">
  <g>
    <path d="M 5.486417660180143e-16 -8.96 L 1.8810574834903343e-15 -30.72 A 30.72 30.72 0 1 1 -29.88314615086194 -7.121515016218473 L -8.715917627334735 -2.077108546397055 A 8.96 8.96 0 1 0 5.486417660180143e-16 -8.96 Z" fill="#7F142A" stroke="#111" stroke-width="1" fill-opacity="0.9"/><path d="M -8.715917627334735 -2.077108546397055 L -24.090440754989974 -5.7410432863353025 A 24.76507447566547 24.76507447566547 0 0 1 -23.110287331692298 -8.900760261454069 L -8.361298274932759 -3.2202936446241175 A 8.96 8.96 0 0 0 -8.715917627334735 -2.077108546397055 Z" fill="#A0AAE5" stroke="#111" stroke-width="1" fill-opacity="0.9"/><path d="M -8.361298274932759 -3.2202936446241175 L -21.142139923758545 -8.142742501406696 A 22.656 22.656 0 0 1 -3.0197492609483185 -22.453851571634697 L -1.1942511201490527 -8.88005429386683 A 8.96 8.96 0 0 0 -8.361298274932759 -3.2202936446241175 Z" fill="#4A0D19" stroke="#111" stroke-width="1" fill-opacity="0.9"/><path d="M -1.1942511201490527 -8.88005429386683 L -3.204004624245263 -23.823913196369716 A 24.038396070044776 24.038396070044776 0 0 1 1.693460291304557e-14 -24.038396070044776 L 6.31215334245908e-15 -8.96 A 8.96 8.96 0 0 0 -1.1942511201490527 -8.88005429386683 Z" fill="#51BF7E" stroke="#111" stroke-width="1" fill-opacity="0.9"/>
    <circle r="5.76" fill="#fff" stroke="#111" stroke-width="1.5"/>
  </g>
</svg>