<?xml version="1.0" encoding="UTF-8"?>
<svg xmlns="http://www.w3.org/2000/svg" width="64" height="64" viewBox="-32 -32 64 64">
  <g>
    <path d="M 5.486417660180143e-16 -8.96 L 1.8810574834903343e-15 -30.72 A 30.72 30.72 0 1 1 -23.21662692416281 20.11732174679916 L -6.7715161862141535 5.867552176149756 A 8.96 8.96 0 1 0 5.486417660180143e-16 -8.96 Z" fill="#7F142A" stroke="#111" stroke-width="1" fill-opacity="0.9"/><path d="M -6.7715161862141535 5.867552176149756 L -17.122262356570072 14.83652478826438 A 22.656 22.656 0 0 1 -22.42539458725441 3.2242849759195487 L -8.868800119253157 1.2751409509286353 A 8.96 8.96 0 0 0 -6.7715161862141535 5.867552176149756 Z" fill="#004F61" stroke="#111" stroke-width="1" fill-opacity="0.9"/><path d="M -8.868800119253157 1.2751409509286353 L -22.42539458725441 3.2242849759195487 A 22.656 22.656 0 0 1 -20.608622486751973 -9.411642534570731 L -8.150302678376487 -3.7221185164969 A 8.96 8.96 0 0 0 -8.868800119253157 1.2751409509286353 Z" fill="#4A0D19" stroke="#111" stroke-width="1" fill-opacity="0.9"/><path d="M -8.150302678376487 -3.7221185164969 L -20.608622486751973 -9.411642534570731 A 22.656 22.656 0 0 1 -4.1618396822223646e-15 -22.656 L -1.6459252980540428e-15 -8.96 A 8.96 8.96 0 0 0 -8.150302678376487 -3.7221185164969 Z" fill="#e0e0e0" stroke="#111" stroke-width="1" fill-opacity="0.9"/>
    <circle r="5.76" fill="#fff" stroke="#111" stroke-width="1.5"/>
  </g>
</svg>