<?xml version="1.0" encoding="UTF-8"?>
<svg xmlns="http://www.w3.org/2000/svg" width="64" height="64" viewBox="-32 -32 64 64">
  <g>
    <path d="M 5.486417660180143e-16 -8.96 L 1.8810574834903343e-15 -30.72 A 30.72 30.72 0 1 1 -28.132556594843358 12.340083445339232 L -8.205329006829315 3.59919100489061 A 8.96 8.96 0 1 0 5.486417660180143e-16 -8.96 Z" fill="#A0AAE5" stroke="#111" stroke-width="1" fill-opacity="0.9"/><path d="M -8.205329006829315 3.59919100489061 L -25.837434721377946 11.33334965133425 A 28.213788247962462 28.213788247962462 0 0 1 -17.329267415032902 -22.264643229999077 L -5.503345905699426 -7.070698964191686 A 8.96 8.96 0 0 0 -8.205329006829315 3.59919100489061 Z" fill="#7F142A" stroke="#111" stroke-width="1" fill-opacity="0.9"/><path d="M -5.503345905699426 -7.070698964191686 L -15.803997058289971 -20.304975835593513 A 25.73049487869354 25.73049487869354 0 0 1 -4.7266152290504114e-15 -25.73049487869354 L -1.6459252980540428e-15 -8.96 A 8.96 8.96 0 0 0 -5.503345905699426 -7.070698964191686 Z" fill="#51BF7E" stroke="#111" stroke-width="1" fill-opacity="0.9"/>
    <circle r="5.76" fill="#fff" stroke="#111" stroke-width="1.5"/>
  </g>
</svg>