<?xml version="1.0" encoding="UTF-8"?>
<svg xmlns="http://www.w3.org/2000/svg" width="64" height="64" viewBox="-32 -32 64 64">
  <g>
    <path d="M 5.486417660180143e-16 -8.96 L 1.3872798940741216e-15 -22.656 A 22.656 22.656 0 0 1 22.656 0 L 8.96 0 A 8.96 8.96 0 0 0 5.486417660180143e-16 -8.96 Z" fill="#e0e0e0" stroke="#111" stroke-width="1" fill-opacity="0.9"/><path d="M 8.96 0 L 22.656 0 A 22.656 22.656 0 1 1 -18.329089024558808 -13.316862675938268 L -7.24879226959953 -5.266555860540559 A 8.96 8.96 0 1 0 8.96 0 Z" fill="#4A0D19" stroke="#111" stroke-width="1" fill-opacity="0.9"/><path d="M -7.24879226959953 -5.266555860540559 L -24.853002067198386 -18.05676295042477 A 30.72 30.72 0 0 1 -9.493002067198388 -29.216456180587116 L -2.7687922695995306 -8.521466386004576 A 8.96 8.96 0 0 0 -7.24879226959953 -5.266555860540559 Z" fill="#A0AAE5" stroke="#111" stroke-width="1" fill-opacity="0.9"/><path d="M -2.7687922695995306 -8.521466386004576 L -7.001089024558811 -21.547136433183 A 22.656 22.656 0 0 1 -4.1618396822223646e-15 -22.656 L -1.6459252980540428e-15 -8.96 A 8.96 8.96 0 0 0 -2.7687922695995306 -8.521466386004576 Z" fill="#7B86C9" stroke="#111" stroke-width="1" fill-opacity="0.9"/>
    <circle r="5.76" fill="#fff" stroke="#111" stroke-width="1.5"/>
  </g>
</svg>