<?xml version="1.0" encoding="UTF-8"?>
<svg xmlns="http://www.w3.org/2000/svg" width="64" height="64" viewBox="-32 -32 64 64">
  <g>
    <path d="M 5.486417660180143e-16 -8.96 L 1.875729197596747e-15 -30.63298248772957 A 30.63298248772957 30.63298248772957 0 0 1 15.316491243864782 26.52894102805764 L 4.4799999999999995 7.759587617908571 A 8.96 8.96 0 0 0 5.486417660180143e-16 -8.96 Z" fill="#A0AAE5" stroke="#111" stroke-width="1" fill-opacity="0.9"/><path d="M 4.4799999999999995 7.759587617908571 L 11.327999999999998 19.620671548140244 A 22.656 22.656 0 0 1 8.779553126658838 20.88573156238907 L 3.4721396546108405 8.259893838232966 A 8.96 8.96 0 0 0 4.4799999999999995 7.759587617908571 Z" fill="#7B86C9" stroke="#111" stroke-width="1" fill-opacity="0.9"/><path d="M 3.4721396546108405 8.259893838232966 L 11.904478815808595 28.31963601679874 A 30.72 30.72 0 0 1 -19.332722413050995 -23.873923935958153 L -5.638710703806541 -6.963227814654462 A 8.96 8.96 0 0 0 3.4721396546108405 8.259893838232966 Z" fill="#7F142A" stroke="#111" stroke-width="1" fill-opacity="0.9"/><path d="M -5.638710703806541 -6.963227814654462 L -14.257882779625108 -17.607018902769138 A 22.656 22.656 0 0 1 -2.3681968637919546 -22.5318880614636 L -0.9365750308781742 -8.910916182499731 A 8.96 8.96 0 0 0 -5.638710703806541 -6.963227814654462 Z" fill="#4A0D19" stroke="#111" stroke-width="1" fill-opacity="0.9"/><path d="M -0.9365750308781742 -8.910916182499731 L -2.7625940626799235 -26.284326751408255 A 26.429108171293823 26.429108171293823 0 0 1 -4.85494840894412e-15 -26.429108171293823 L -1.6459252980540428e-15 -8.96 A 8.96 8.96 0 0 0 -0.9365750308781742 -8.910916182499731 Z" fill="#51BF7E" stroke="#111" stroke-width="1" fill-opacity="0.9"/>
    <circle r="5.76" fill="#fff" stroke="#111" stroke-width="1.5"/>
  </g>
</svg>