<?xml version="1.0" encoding="UTF-8"?>
<svg xmlns="http://www.w3.org/2000/svg" width="64" height="64" viewBox="-32 -32 64 64">
  <g>
    <path d="M 5.486417660180143e-16 -8.96 L 1.3872798940741216e-15 -22.656 A 22.656 22.656 0 0 1 21.791121771723386 6.200108703073111 L 8.617957762828459 2.4520203910458633 A 8.96 8.96 0 0 0 5.486417660180143e-16 -8.96 Z" fill="#4A0D19" stroke="#111" stroke-width="1" fill-opacity="0.9"/><path d="M 8.617957762828459 2.4520203910458633 L 21.791121771723386 6.200108703073111 A 22.656 22.656 0 1 1 -15.263248502456397 -16.742986028551254 L -6.036312967073152 -6.621519898297107 A 8.96 8.96 0 1 0 8.617957762828459 2.4520203910458633 Z" fill="#7B86C9" stroke="#111" stroke-width="1" fill-opacity="0.9"/><path d="M -6.036312967073152 -6.621519898297107 L -20.695930172822234 -22.70235393701865 A 30.72 30.72 0 0 1 -5.643172450471003e-15 -30.72 L -1.6459252980540428e-15 -8.96 A 8.96 8.96 0 0 0 -6.036312967073152 -6.621519898297107 Z" fill="#7F142A" stroke="#111" stroke-width="1" fill-opacity="0.9"/>
    <circle r="5.76" fill="#fff" stroke="#111" stroke-width="1.5"/>
  </g>
</svg>