<?xml version="1.0" encoding="UTF-8"?>
<svg xmlns="http://www.w3.org/2000/svg" width="64" height="64" viewBox="-32 -32 64 64">
  <g>
    <path d="M 5.486417660180143e-16 -8.96 L 1.7616549136619874e-15 -28.77000805274664 A 28.77000805274664 28.77000805274664 0 0 1 20.34346778888873 20.343467788888727 L 6.3356767594314665 6.335676759431466 A 8.96 8.96 0 0 0 5.486417660180143e-16 -8.96 Z" fill="#A0AAE5" stroke="#111" stroke-width="1" fill-opacity="0.9"/><path d="M 6.3356767594314665 6.335676759431466 L 21.72232031805074 21.722320318050738 A 30.72 30.72 0 0 1 -21.722320318050745 -21.722320318050738 L -6.335676759431468 -6.335676759431466 A 8.96 8.96 0 0 0 6.3356767594314665 6.335676759431466 Z" fill="#7F142A" stroke="#111" stroke-width="1" fill-opacity="0.9"/><path d="M -6.335676759431468 -6.335676759431466 L -17.583432216073792 -17.583432216073785 A 24.866728313039555 24.866728313039555 0 0 1 -4.567943885074613e-15 -24.866728313039555 L -1.6459252980540428e-15 -8.96 A 8.96 8.96 0 0 0 -6.335676759431468 -6.335676759431466 Z" fill="#51BF7E" stroke="#111" stroke-width="1" fill-opacity="0.9"/>
    <circle r="5.76" fill="#fff" stroke="#111" stroke-width="1.5"/>
  </g>
</svg>