<?xml version="1.0" encoding="UTF-8"?>
<svg xmlns="http://www.w3.org/2000/svg" width="64" height="64" viewBox="-32 -32 64 64">
  <g>
    <path d="M 5.486417660180143e-16 -8.96 L 1.3872798940741216e-15 -22.656 A 22.656 22.656 0 0 1 10.914611240448464 -19.853604143073774 L 4.3165129199513705 -7.851707853193019 A 8.96 8.96 0 0 0 5.486417660180143e-16 -8.96 Z" fill="#4A0D19" stroke="#111" stroke-width="1" fill-opacity="0.9"/><path d="M 4.3165129199513705 -7.851707853193019 L 10.914611240448464 -19.853604143073774 A 22.656 22.656 0 0 1 19.129093480173655 -12.139691867044146 L 7.565178212498057 -4.801008083011809 A 8.96 8.96 0 0 0 4.3165129199513705 -7.851707853193019 Z" fill="#004F61" stroke="#111" stroke-width="1" fill-opacity="0.9"/><path d="M 7.565178212498057 -4.801008083011809 L 25.937753871421904 -16.460599141754773 A 30.72 30.72 0 0 1 -3.85023693509543 30.477763624380756 L -1.1229857727361672 8.889347723777721 A 8.96 8.96 0 0 0 7.565178212498057 -4.801008083011809 Z" fill="#7F142A" stroke="#111" stroke-width="1" fill-opacity="0.9"/><path d="M -1.1229857727361672 8.889347723777721 L -2.8395497396328797 22.47735067298081 A 22.656 22.656 0 0 1 -4.1618396822223646e-15 -22.656 L -1.6459252980540428e-15 -8.96 A 8.96 8.96 0 0 0 -1.1229857727361672 8.889347723777721 Z" fill="#e0e0e0" stroke="#111" stroke-width="1" fill-opacity="0.9"/>
    <circle r="5.76" fill="#fff" stroke="#111" stroke-width="1.5"/>
  </g>
</svg>