<?xml version="1.0" encoding="UTF-8"?>
<svg xmlns="http://www.w3.org/2000/svg" width="64" height="64" viewBox="-32 -32 64 64">
  <g>
    <path d="M 5.486417660180143e-16 -8.96 L 1.3872798940741216e-15 -22.656 A 22.656 22.656 0 0 1 19.829061846764723 -10.95913510625631 L 7.8420018603024335 -4.334121228462949 A 8.96 8.96 0 0 0 5.486417660180143e-16 -8.96 Z" fill="#4A0D19" stroke="#111" stroke-width="1" fill-opacity="0.9"/><path d="M 7.8420018603024335 -4.334121228462949 L 19.829061846764723 -10.95913510625631 A 22.656 22.656 0 0 1 21.384620731466374 -7.482802427656264 L 8.457194639562974 -2.959300395118297 A 8.96 8.96 0 0 0 7.8420018603024335 -4.334121228462949 Z" fill="#004F61" stroke="#111" stroke-width="1" fill-opacity="0.9"/><path d="M 8.457194639562974 -2.959300395118297 L 28.20195116864252 -9.868289520741529 A 29.878640996264778 29.878640996264778 0 0 1 18.62902795456936 23.36006218423974 L 5.586468624654254 7.005210082913548 A 8.96 8.96 0 0 0 8.457194639562974 -2.959300395118297 Z" fill="#7F142A" stroke="#111" stroke-width="1" fill-opacity="0.9"/><path d="M 5.586468624654254 7.005210082913548 L 19.153606713100295 24.017863141417873 A 30.72 30.72 0 0 1 -19.1536067131003 -24.01786314141787 L -5.5864686246542545 -7.005210082913547 A 8.96 8.96 0 0 0 5.586468624654254 7.005210082913548 Z" fill="#A0AAE5" stroke="#111" stroke-width="1" fill-opacity="0.9"/><path d="M -5.5864686246542545 -7.005210082913547 L -14.12578495091147 -17.71317406679568 A 22.656 22.656 0 0 1 -4.1618396822223646e-15 -22.656 L -1.6459252980540428e-15 -8.96 A 8.96 8.96 0 0 0 -5.5864686246542545 -7.005210082913547 Z" fill="#7B86C9" stroke="#111" stroke-width="1" fill-opacity="0.9"/>
    <circle r="5.76" fill="#fff" stroke="#111" stroke-width="1.5"/>
  </g>
</svg>