<?xml version="1.0" encoding="UTF-8"?>
<svg xmlns="http://www.w3.org/2000/svg" width="64" height="64" viewBox="-32 -32 64 64">
  <g>
    <path d="M 5.486417660180143e-16 -8.96 L 1.7138919420960352e-15 -27.989979531883208 A 27.989979531883208 27.989979531883208 0 0 1 26.05513717131867 -10.225887794172644 L 8.34062878785207 -3.273455578322901 A 8.96 8.96 0 0 0 5.486417660180143e-16 -8.96 Z" fill="#7F142A" stroke="#111" stroke-width="1" fill-opacity="0.9"/><path d="M 8.34062878785207 -3.273455578322901 L 28.596441558349955 -11.223276268535658 A 30.72 30.72 0 1 1 -17.305192183714485 -25.382055146987348 L -5.047347720250059 -7.403099417871311 A 8.96 8.96 0 1 0 8.34062878785207 -3.273455578322901 Z" fill="#A0AAE5" stroke="#111" stroke-width="1" fill-opacity="0.9"/><path d="M -5.047347720250059 -7.403099417871311 L -14.403161777277733 -21.125558308788058 A 25.56834533246996 25.56834533246996 0 0 1 -2.7406081392375765e-14 -25.56834533246996 L -9.604003938567165e-15 -8.96 A 8.96 8.96 0 0 0 -5.047347720250059 -7.403099417871311 Z" fill="#51BF7E" stroke="#111" stroke-width="1" fill-opacity="0.9"/>
    <circle r="5.76" fill="#fff" stroke="#111" stroke-width="1.5"/>
  </g>
</svg>