<?xml version="1.0" encoding="UTF-8"?>
<svg xmlns="http://www.w3.org/2000/svg" width="64" height="64" viewBox="-32 -32 64 64">
  <g>
    <path d="M 5.486417660180143e-16 -8.96 L 1.6753078614664861e-15 -27.359853675899053 A 27.359853675899053 27.359853675899053 0 0 1 5.3376426639452985 -26.834141759308007 L 1.74800928526451 -8.787836112412945 A 8.96 8.96 0 0 0 5.486417660180143e-16 -8.96 Z" fill="#51BF7E" stroke="#111" stroke-width="1" fill-opacity="0.9"/><path d="M 1.74800928526451 -8.787836112412945 L 5.9931746923354625 -30.129723813987237 A 30.72 30.72 0 0 1 30.72 0 L 8.96 0 A 8.96 8.96 0 0 0 1.74800928526451 -8.787836112412945 Z" fill="#A0AAE5" stroke="#111" stroke-width="1" fill-opacity="0.9"/><path d="M 8.96 0 L 22.656 0 A 22.656 22.656 0 0 1 -20.931414688575707 8.670075843663485 L -8.277960611301127 3.4288435539912094 A 8.96 8.96 0 0 0 8.96 0 Z" fill="#7B86C9" stroke="#111" stroke-width="1" fill-opacity="0.9"/><path d="M -8.277960611301127 3.4288435539912094 L -20.931414688575707 8.670075843663485 A 22.656 22.656 0 0 1 -4.1618396822223646e-15 -22.656 L -1.6459252980540428e-15 -8.96 A 8.96 8.96 0 0 0 -8.277960611301127 3.4288435539912094 Z" fill="#4A0D19" stroke="#111" stroke-width="1" fill-opacity="0.9"/>
    <circle r="5.76" fill="#fff" stroke="#111" stroke-width="1.5"/>
  </g>
</svg>