<?xml version="1.0" encoding="UTF-8"?>
<svg xmlns="http://www.w3.org/2000/svg" width="64" height="64" viewBox="-32 -32 64 64">
  <g>
    <path d="M 5.486417660180143e-16 -8.96 L 1.8810574834903343e-15 -30.72 A 30.72 30.72 0 1 1 -24.327236994732306 -18.75910286240064 L -7.09544412346359 -5.47140500153352 A 8.96 8.96 0 1 0 5.486417660180143e-16 -8.96 Z" fill="#7F142A" stroke="#111" stroke-width="1" fill-opacity="0.9"/><path d="M -7.09544412346359 -5.47140500153352 L -20.252774950141244 -15.617223140507788 A 25.574842165719822 25.574842165719822 0 0 1 -13.826803574772667 -21.514926323511645 L -4.844141724402161 -7.53763165416738 A 8.96 8.96 0 0 0 -7.09544412346359 -5.47140500153352 Z" fill="#A0AAE5" stroke="#111" stroke-width="1" fill-opacity="0.9"/><path d="M -4.844141724402161 -7.53763165416738 L -12.248758360274033 -19.05944003982323 A 22.656 22.656 0 0 1 -2.5825893824801067 -22.50832219605675 L -1.0213630326192515 -8.90159634872301 A 8.96 8.96 0 0 0 -4.844141724402161 -7.53763165416738 Z" fill="#004F61" stroke="#111" stroke-width="1" fill-opacity="0.9"/><path d="M -1.0213630326192515 -8.90159634872301 L -2.6474333959179863 -23.073464280526874 A 23.22484999931262 23.22484999931262 0 0 1 -2.4894146302012277e-14 -23.22484999931262 L -9.604003938567165e-15 -8.96 A 8.96 8.96 0 0 0 -1.0213630326192515 -8.90159634872301 Z" fill="#51BF7E" stroke="#111" stroke-width="1" fill-opacity="0.9"/>
    <circle r="5.76" fill="#fff" stroke="#111" stroke-width="1.5"/>
  </g>
</svg>