<?xml version="1.0" encoding="UTF-8"?>
<svg xmlns="http://www.w3.org/2000/svg" width="64" height="64" viewBox="-32 -32 64 64">
  <g>
    <path d="M 5.486417660180143e-16 -8.96 L 1.3872798940741216e-15 -22.656 A 22.656 22.656 0 0 1 3.337267271125869 -22.40885947925668 L 1.3198232145695528 -8.862260811005468 A 8.96 8.96 0 0 0 5.486417660180143e-16 -8.96 Z" fill="#e0e0e0" stroke="#111" stroke-width="1" fill-opacity="0.9"/><path d="M 1.3198232145695528 -8.862260811005468 L 4.507573289324963 -30.26715220170456 A 30.60095945162153 30.60095945162153 0 0 1 1.1307513344838391 30.580060836750278 L 0.3310854345267379 8.953880858881487 A 8.96 8.96 0 0 0 1.3198232145695528 -8.862260811005468 Z" fill="#A0AAE5" stroke="#111" stroke-width="1" fill-opacity="0.9"/><path d="M 0.3310854345267379 8.953880858881487 L 0.8371731701604657 22.640527314600327 A 22.656 22.656 0 0 1 -19.893808756584264 10.841158109558739 L -7.867607982829936 4.287463659147525 A 8.96 8.96 0 0 0 0.3310854345267379 8.953880858881487 Z" fill="#7B86C9" stroke="#111" stroke-width="1" fill-opacity="0.9"/><path d="M -7.867607982829936 4.287463659147525 L -26.974655941131207 14.69987540279151 A 30.72 30.72 0 0 1 -11.097343985269339 -28.64554688730181 L -3.236725329036891 -8.354951175463029 A 8.96 8.96 0 0 0 -7.867607982829936 4.287463659147525 Z" fill="#7F142A" stroke="#111" stroke-width="1" fill-opacity="0.9"/><path d="M -3.236725329036891 -8.354951175463029 L -8.184291189136138 -21.126090829385085 A 22.656 22.656 0 0 1 -6.601726105524543 -21.672829728201982 L -2.610852132128351 -8.571175598723949 A 8.96 8.96 0 0 0 -3.236725329036891 -8.354951175463029 Z" fill="#004F61" stroke="#111" stroke-width="1" fill-opacity="0.9"/><path d="M -2.610852132128351 -8.571175598723949 L -6.601726105524543 -21.672829728201982 A 22.656 22.656 0 0 1 -4.1618396822223646e-15 -22.656 L -1.6459252980540428e-15 -8.96 A 8.96 8.96 0 0 0 -2.610852132128351 -8.571175598723949 Z" fill="#4A0D19" stroke="#111" stroke-width="1" fill-opacity="0.9"/>
    <circle r="5.76" fill="#fff" stroke="#111" stroke-width="1.5"/>
  </g>
</svg>