<?xml version="1.0" encoding="UTF-8"?>
<svg xmlns="http://www.w3.org/2000/svg" width="64" height="64" viewBox="-32 -32 64 64">
  <g>
    <path d="M 5.486417660180143e-16 -8.96 L 1.3872798940741216e-15 -22.656 A 22.656 22.656 0 1 1 -1.921363024917129 22.57438150041948 L -0.7598610833005596 8.927721497341038 A 8.96 8.96 0 1 0 5.486417660180143e-16 -8.96 Z" fill="#7B86C9" stroke="#111" stroke-width="1" fill-opacity="0.9"/><path d="M -0.7598610833005596 8.927721497341038 L -2.6052379998876325 30.609330848026413 A 30.72 30.72 0 0 1 -30.030496940472922 -6.4720671742686955 L -8.75889494097127 -1.8876862591617032 A 8.96 8.96 0 0 0 -0.7598610833005596 8.927721497341038 Z" fill="#A0AAE5" stroke="#111" stroke-width="1" fill-opacity="0.9"/><path d="M -8.75889494097127 -1.8876862591617032 L -29.47842615059976 -6.353086817596835 A 30.155253612402042 30.155253612402042 0 0 1 -5.539430222085723e-15 -30.155253612402042 L -1.6459252980540428e-15 -8.96 A 8.96 8.96 0 0 0 -8.75889494097127 -1.8876862591617032 Z" fill="#7F142A" stroke="#111" stroke-width="1" fill-opacity="0.9"/>
    <circle r="5.76" fill="#fff" stroke="#111" stroke-width="1.5"/>
  </g>
</svg>