<?xml version="1.0" encoding="UTF-8"?>
<svg xmlns="http://www.w3.org/2000/svg" width="64" height="64" viewBox="-32 -32 64 64">
  <g>
    <path d="M 5.486417660180143e-16 -8.96 L 1.8810574834903343e-15 -30.72 A 30.72 30.72 0 0 1 1.8911510364347341 30.661734258801992 L 0.5515857189601309 8.943005825483915 A 8.96 8.96 0 0 0 5.486417660180143e-16 -8.96 Z" fill="#7F142A" stroke="#111" stroke-width="1" fill-opacity="0.9"/><path d="M 0.5515857189601309 8.943005825483915 L 1.856761824895558 30.104172834426393 A 30.16137905533176 30.16137905533176 0 0 1 -20.319589675949516 -22.289528077562593 L -6.036312967073152 -6.621519898297107 A 8.96 8.96 0 0 0 0.5515857189601309 8.943005825483915 Z" fill="#A0AAE5" stroke="#111" stroke-width="1" fill-opacity="0.9"/><path d="M -6.036312967073152 -6.621519898297107 L -15.263248502456397 -16.742986028551254 A 22.656 22.656 0 0 1 -8.184291189136138 -21.126090829385085 L -3.236725329036891 -8.354951175463029 A 8.96 8.96 0 0 0 -6.036312967073152 -6.621519898297107 Z" fill="#7B86C9" stroke="#111" stroke-width="1" fill-opacity="0.9"/><path d="M -3.236725329036891 -8.354951175463029 L -9.260227244907634 -23.903401938624608 A 25.634438415279792 25.634438415279792 0 0 1 -4.708969942981852e-15 -25.634438415279792 L -1.6459252980540428e-15 -8.96 A 8.96 8.96 0 0 0 -3.236725329036891 -8.354951175463029 Z" fill="#51BF7E" stroke="#111" stroke-width="1" fill-opacity="0.9"/>
    <circle r="5.76" fill="#fff" stroke="#111" stroke-width="1.5"/>
  </g>
</svg>