<?xml version="1.0" encoding="UTF-8"?>
<svg xmlns="http://www.w3.org/2000/svg" width="64" height="64" viewBox="-32 -32 64 64">
  <g>
    <path d="M 5.486417660180143e-16 -8.96 L 1.6331176580238788e-15 -26.670835365117828 A 26.670835365117828 26.670835365117828 0 0 1 9.63461700589841 -24.869813312987958 L 3.2367253290368914 -8.354951175463029 A 8.96 8.96 0 0 0 5.486417660180143e-16 -8.96 Z" fill="#51BF7E" stroke="#111" stroke-width="1" fill-opacity="0.9"/><path d="M 3.2367253290368914 -8.354951175463029 L 11.09734398526934 -28.64554688730181 A 30.72 30.72 0 1 1 -30.58895389578346 2.8344840027126326 L -8.92177821960351 0.8267245007911846 A 8.96 8.96 0 1 0 3.2367253290368914 -8.354951175463029 Z" fill="#7F142A" stroke="#111" stroke-width="1" fill-opacity="0.9"/><path d="M -8.92177821960351 0.8267245007911846 L -29.916950931761427 2.7722137577808996 A 30.045118108808467 30.045118108808467 0 0 1 -5.5191986582934695e-15 -30.045118108808467 L -1.6459252980540428e-15 -8.96 A 8.96 8.96 0 0 0 -8.92177821960351 0.8267245007911846 Z" fill="#A0AAE5" stroke="#111" stroke-width="1" fill-opacity="0.9"/>
    <circle r="5.76" fill="#fff" stroke="#111" stroke-width="1.5"/>
  </g>
</svg>