<?xml version="1.0" encoding="UTF-8"?>
<svg xmlns="http://www.w3.org/2000/svg" width="64" height="64" viewBox="-32 -32 64 64">
  <g>
    <path d="M 5.486417660180143e-16 -8.96 L 1.3872798940741216e-15 -22.656 A 22.656 22.656 0 0 1 21.322468927024946 -7.6581103972230355 L 8.432614829896872 -3.028631230540184 A 8.96 8.96 0 0 0 5.486417660180143e-16 -8.96 Z" fill="#e0e0e0" stroke="#111" stroke-width="1" fill-opacity="0.9"/><path d="M 8.432614829896872 -3.028631230540184 L 21.322468927024946 -7.6581103972230355 A 22.656 22.656 0 0 1 19.01666309444546 12.315066412827665 L 7.520714218142272 4.870365248010942 A 8.96 8.96 0 0 0 8.432614829896872 -3.028631230540184 Z" fill="#4A0D19" stroke="#111" stroke-width="1" fill-opacity="0.9"/><path d="M 7.520714218142272 4.870365248010942 L 19.01666309444546 12.315066412827665 A 22.656 22.656 0 0 1 -22.506517745595197 2.5982676858261686 L -8.900882724246689 1.0275634915696712 A 8.96 8.96 0 0 0 7.520714218142272 4.870365248010942 Z" fill="#004F61" stroke="#111" stroke-width="1" fill-opacity="0.9"/><path d="M -8.900882724246689 1.0275634915696712 L -30.517312197417215 3.5230748282388724 A 30.72 30.72 0 0 1 -4.68938601120384 -30.359974618532302 L -1.3677375866011203 -8.854992597071922 A 8.96 8.96 0 0 0 -8.900882724246689 1.0275634915696712 Z" fill="#7F142A" stroke="#111" stroke-width="1" fill-opacity="0.9"/><path d="M -1.3677375866011203 -8.854992597071922 L -3.676488616106919 -23.802284734856972 A 24.084545400392532 24.084545400392532 0 0 1 -4.424259215026473e-15 -24.084545400392532 L -1.6459252980540428e-15 -8.96 A 8.96 8.96 0 0 0 -1.3677375866011203 -8.854992597071922 Z" fill="#A0AAE5" stroke="#111" stroke-width="1" fill-opacity="0.9"/>
    <circle r="5.76" fill="#fff" stroke="#111" stroke-width="1.5"/>
  </g>
</svg>