<?xml version="1.0" encoding="UTF-8"?>
<svg xmlns="http://www.w3.org/2000/svg" width="64" height="64" viewBox="-32 -32 64 64">
  <g>
    <path d="M 5.486417660180143e-16 -8.96 L 1.4698583230653544e-15 -24.004608089266668 A 24.004608089266668 24.004608089266668 0 0 1 1.492357781594497 -23.958173506571846 L 0.557039951386067 -8.942667750317007 A 8.96 8.96 0 0 0 5.486417660180143e-16 -8.96 Z" fill="#51BF7E" stroke="#111" stroke-width="1" fill-opacity="0.9"/><path d="M 0.557039951386067 -8.942667750317007 L 1.9098512618950865 -30.660575143944016 A 30.72 30.72 0 1 1 -29.09608640443392 -9.855767648728113 L -8.48635853462656 -2.8745988975456997 A 8.96 8.96 0 1 0 0.557039951386067 -8.942667750317007 Z" fill="#7F142A" stroke="#111" stroke-width="1" fill-opacity="0.9"/><path d="M -8.48635853462656 -2.8745988975456997 L -26.992685278769127 -9.143278949097834 A 28.499203646763448 28.499203646763448 0 0 1 -7.0187527197074795 -27.62139965243061 L -2.2066590052147297 -8.68402303282901 A 8.96 8.96 0 0 0 -8.48635853462656 -2.8745988975456997 Z" fill="#A0AAE5" stroke="#111" stroke-width="1" fill-opacity="0.9"/><path d="M -2.2066590052147297 -8.68402303282901 L -5.579694913185816 -21.95817252586764 A 22.656 22.656 0 0 1 1.5960730594503672e-14 -22.656 L 6.31215334245908e-15 -8.96 A 8.96 8.96 0 0 0 -2.2066590052147297 -8.68402303282901 Z" fill="#4A0D19" stroke="#111" stroke-width="1" fill-opacity="0.9"/>
    <circle r="5.76" fill="#fff" stroke="#111" stroke-width="1.5"/>
  </g>
</svg>