<?xml version="1.0" encoding="UTF-8"?>
<svg xmlns="http://www.w3.org/2000/svg" width="64" height="64" viewBox="-32 -32 64 64">
  <g>
    <path d="M 5.486417660180143e-16 -8.96 L 1.3872798940741216e-15 -22.656 A 22.656 22.656 0 0 1 4.454315516631563 -22.213811228114263 L 1.7615937071424261 -8.785123084564963 A 8.96 8.96 0 0 0 5.486417660180143e-16 -8.96 Z" fill="#4A0D19" stroke="#111" stroke-width="1" fill-opacity="0.9"/><path d="M 1.7615937071424261 -8.785123084564963 L 6.039749853059746 -30.12042200422273 A 30.72 30.72 0 0 1 29.26306401252697 9.348341275261015 L 8.535060336987035 2.7265995386177964 A 8.96 8.96 0 0 0 1.7615937071424261 -8.785123084564963 Z" fill="#7F142A" stroke="#111" stroke-width="1" fill-opacity="0.9"/><path d="M 8.535060336987035 2.7265995386177964 L 28.306257433042877 9.042681060199344 A 29.71555637409778 29.71555637409778 0 0 1 -14.751553675962993 25.795463840903615 L -4.447970594009835 7.777991874180882 A 8.96 8.96 0 0 0 8.535060336987035 2.7265995386177964 Z" fill="#A0AAE5" stroke="#111" stroke-width="1" fill-opacity="0.9"/><path d="M -4.447970594009835 7.777991874180882 L -11.247011359139153 19.667208024714512 A 22.656 22.656 0 0 1 -4.1618396822223646e-15 -22.656 L -1.6459252980540428e-15 -8.96 A 8.96 8.96 0 0 0 -4.447970594009835 7.777991874180882 Z" fill="#7B86C9" stroke="#111" stroke-width="1" fill-opacity="0.9"/>
    <circle r="5.76" fill="#fff" stroke="#111" stroke-width="1.5"/>
  </g>
</svg>