<?xml version="1.0" encoding="UTF-8"?>
<svg xmlns="http://www.w3.org/2000/svg" width="64" height="64" viewBox="-32 -32 64 64">
  <g>
    <path d="M 5.486417660180143e-16 -8.96 L 1.6717307168497022e-15 -27.30143447096136 A 27.30143447096136 27.30143447096136 0 0 1 9.593036734402355 -25.56055497019977 L 3.1483184237688313 -8.388664440932047 A 8.96 8.96 0 0 0 5.486417660180143e-16 -8.96 Z" fill="#7F142A" stroke="#111" stroke-width="1" fill-opacity="0.9"/><path d="M 3.1483184237688313 -8.388664440932047 L 9.76885916621941 -26.029032164427264 A 27.801818732345875 27.801818732345875 0 0 1 24.482157353194737 -13.174410657013498 L 7.890135965436373 -4.245863215758068 A 8.96 8.96 0 0 0 3.1483184237688313 -8.388664440932047 Z" fill="#A0AAE5" stroke="#111" stroke-width="1" fill-opacity="0.9"/><path d="M 7.890135965436373 -4.245863215758068 L 27.05189473863899 -14.557245311170517 A 30.72 30.72 0 1 1 -5.643172450471003e-15 -30.72 L -1.6459252980540428e-15 -8.96 A 8.96 8.96 0 1 0 7.890135965436373 -4.245863215758068 Z" fill="#51BF7E" stroke="#111" stroke-width="1" fill-opacity="0.9"/>
    <circle r="5.76" fill="#fff" stroke="#111" stroke-width="1.5"/>
  </g>
</svg>