<?xml version="1.0" encoding="UTF-8"?>
<svg xmlns="http://www.w3.org/2000/svg" width="64" height="64" viewBox="-32 -32 64 64">
  <g>
    <path d="M 5.486417660180143e-16 -8.96 L 1.3872798940741216e-15 -22.656 A 22.656 22.656 0 0 1 19.620671548140244 11.327999999999996 L 7.759587617908571 4.479999999999999 A 8.96 8.96 0 0 0 5.486417660180143e-16 -8.96 Z" fill="#004F61" stroke="#111" stroke-width="1" fill-opacity="0.9"/><path d="M 7.759587617908571 4.479999999999999 L 24.7881600243661 14.311450862783282 A 28.622901725566575 28.622901725566575 0 0 1 -19.468517429626587 20.982071687127746 L -6.094347730427437 6.568144771595246 A 8.96 8.96 0 0 0 7.759587617908571 4.479999999999999 Z" fill="#A0AAE5" stroke="#111" stroke-width="1" fill-opacity="0.9"/><path d="M -6.094347730427437 6.568144771595246 L -20.894906504322638 22.51935350261227 A 30.72 30.72 0 0 1 -9.054878957902991 -29.355196593750236 L -2.641006362721706 -8.56193233984382 A 8.96 8.96 0 0 0 -6.094347730427437 6.568144771595246 Z" fill="#7F142A" stroke="#111" stroke-width="1" fill-opacity="0.9"/><path d="M -2.641006362721706 -8.56193233984382 L -7.186383854729888 -23.297684246748226 A 24.38085733046939 24.38085733046939 0 0 1 -4.478690833534143e-15 -24.38085733046939 L -1.6459252980540428e-15 -8.96 A 8.96 8.96 0 0 0 -2.641006362721706 -8.56193233984382 Z" fill="#51BF7E" stroke="#111" stroke-width="1" fill-opacity="0.9"/>
    <circle r="5.76" fill="#fff" stroke="#111" stroke-width="1.5"/>
  </g>
</svg>