<?xml version="1.0" encoding="UTF-8"?>
<svg xmlns="http://www.w3.org/2000/svg" width="64" height="64" viewBox="-32 -32 64 64">
  <g>
    <path d="M 5.486417660180143e-16 -8.96 L 1.5718856819468172e-15 -25.6708413077342 A 25.6708413077342 25.6708413077342 0 0 1 6.285617993670128 -24.889417427584014 L 2.193895266156171 -8.68725638859229 A 8.96 8.96 0 0 0 5.486417660180143e-16 -8.96 Z" fill="#51BF7E" stroke="#111" stroke-width="1" fill-opacity="0.9"/><path d="M 2.193895266156171 -8.68725638859229 L 7.17044676175314 -28.39310991779436 A 29.28453512636129 29.28453512636129 0 0 1 28.90679642315108 -4.688402512326375 L 8.844425729616011 -1.434480224090345 A 8.96 8.96 0 0 0 2.193895266156171 -8.68725638859229 Z" fill="#7F142A" stroke="#111" stroke-width="1" fill-opacity="0.9"/><path d="M 8.844425729616011 -1.434480224090345 L 30.323745358683464 -4.918217911166897 A 30.72 30.72 0 1 1 -3.789915281927977 -30.485323389391965 L -1.1053919572289934 -8.891552655239323 A 8.96 8.96 0 1 0 8.844425729616011 -1.434480224090345 Z" fill="#A0AAE5" stroke="#111" stroke-width="1" fill-opacity="0.9"/><path d="M -1.1053919572289934 -8.891552655239323 L -2.795062520421883 -22.482925999676574 A 22.656 22.656 0 0 1 -4.1618396822223646e-15 -22.656 L -1.6459252980540428e-15 -8.96 A 8.96 8.96 0 0 0 -1.1053919572289934 -8.891552655239323 Z" fill="#7B86C9" stroke="#111" stroke-width="1" fill-opacity="0.9"/>
    <circle r="5.76" fill="#fff" stroke="#111" stroke-width="1.5"/>
  </g>
</svg>