<?xml version="1.0" encoding="UTF-8"?>
<svg xmlns="http://www.w3.org/2000/svg" width="64" height="64" viewBox="-32 -32 64 64">
  <g>
    <path d="M 5.486417660180143e-16 -8.96 L 1.8495065466432255e-15 -30.204734098532313 A 30.204734098532313 30.204734098532313 0 0 1 21.35797230500874 21.357972305008737 L 6.3356767594314665 6.335676759431466 A 8.96 8.96 0 0 0 5.486417660180143e-16 -8.96 Z" fill="#7F142A" stroke="#111" stroke-width="1" fill-opacity="0.9"/><path d="M 6.3356767594314665 6.335676759431466 L 21.72232031805074 21.722320318050738 A 30.72 30.72 0 1 1 -11.756035042255574 -28.38157923874672 L -3.42884355399121 -8.277960611301127 A 8.96 8.96 0 1 0 6.3356767594314665 6.335676759431466 Z" fill="#A0AAE5" stroke="#111" stroke-width="1" fill-opacity="0.9"/><path d="M -3.42884355399121 -8.277960611301127 L -8.670075843663486 -20.931414688575707 A 22.656 22.656 0 0 1 -4.1618396822223646e-15 -22.656 L -1.6459252980540428e-15 -8.96 A 8.96 8.96 0 0 0 -3.42884355399121 -8.277960611301127 Z" fill="#7B86C9" stroke="#111" stroke-width="1" fill-opacity="0.9"/>
    <circle r="5.76" fill="#fff" stroke="#111" stroke-width="1.5"/>
  </g>
</svg>