<?xml version="1.0" encoding="UTF-8"?>
<svg xmlns="http://www.w3.org/2000/svg" width="64" height="64" viewBox="-32 -32 64 64">
  <g>
    <path d="M 5.486417660180143e-16 -8.96 L 1.8810574834903343e-15 -30.72 A 30.72 30.72 0 0 1 25.937753871421904 -16.460599141754773 L 7.565178212498057 -4.801008083011809 A 8.96 8.96 0 0 0 5.486417660180143e-16 -8.96 Z" fill="#7F142A" stroke="#111" stroke-width="1" fill-opacity="0.9"/><path d="M 7.565178212498057 -4.801008083011809 L 24.25562619056103 -15.393088454547279 A 28.727731794657004 28.727731794657004 0 0 1 27.321696521688008 -8.877357334394521 L 8.521466386004576 -2.768792269599529 A 8.96 8.96 0 0 0 7.565178212498057 -4.801008083011809 Z" fill="#A0AAE5" stroke="#111" stroke-width="1" fill-opacity="0.9"/><path d="M 8.521466386004576 -2.768792269599529 L 21.547136433183 -7.001089024558808 A 22.656 22.656 0 1 1 -4.1618396822223646e-15 -22.656 L -1.6459252980540428e-15 -8.96 A 8.96 8.96 0 1 0 8.521466386004576 -2.768792269599529 Z" fill="#004F61" stroke="#111" stroke-width="1" fill-opacity="0.9"/>
    <circle r="5.76" fill="#fff" stroke="#111" stroke-width="1.5"/>
  </g>
</svg>