<?xml version="1.0" encoding="UTF-8"?>
<svg xmlns="http://www.w3.org/2000/svg" width="64" height="64" viewBox="-32 -32 64 64">
  <g>
    <path d="M 5.486417660180143e-16 -8.96 L 1.5841631822869065e-15 -25.871348104447137 A 25.871348104447137 25.871348104447137 0 0 1 4.685720508761729 -25.44348003035847 L 1.6228012390003081 -8.81181684663833 A 8.96 8.96 0 0 0 5.486417660180143e-16 -8.96 Z" fill="#51BF7E" stroke="#111" stroke-width="1" fill-opacity="0.9"/><path d="M 1.6228012390003081 -8.81181684663833 L 4.103368847186493 -22.281308312214062 A 22.656 22.656 0 1 1 -21.347863451523995 7.587032493345866 L -8.442657862184632 3.0005213250520377 A 8.96 8.96 0 1 0 1.6228012390003081 -8.81181684663833 Z" fill="#4A0D19" stroke="#111" stroke-width="1" fill-opacity="0.9"/><path d="M -8.442657862184632 3.0005213250520377 L -21.347863451523995 7.587032493345866 A 22.656 22.656 0 0 1 -17.895427753575156 -13.89417149442787 L -7.077287812148368 -5.494870082542096 A 8.96 8.96 0 0 0 -8.442657862184632 3.0005213250520377 Z" fill="#004F61" stroke="#111" stroke-width="1" fill-opacity="0.9"/><path d="M -7.077287812148368 -5.494870082542096 L -24.264986784508686 -18.839554568715755 A 30.72 30.72 0 0 1 -15.961618945088519 -26.24776410766813 L -4.655472192317485 -7.655597864736539 A 8.96 8.96 0 0 0 -7.077287812148368 -5.494870082542096 Z" fill="#7F142A" stroke="#111" stroke-width="1" fill-opacity="0.9"/><path d="M -4.655472192317485 -7.655597864736539 L -14.880815995429856 -24.470459376418315 A 28.63986848403428 28.63986848403428 0 0 1 -5.261058490046061e-15 -28.63986848403428 L -1.6459252980540428e-15 -8.96 A 8.96 8.96 0 0 0 -4.655472192317485 -7.655597864736539 Z" fill="#A0AAE5" stroke="#111" stroke-width="1" fill-opacity="0.9"/>
    <circle r="5.76" fill="#fff" stroke="#111" stroke-width="1.5"/>
  </g>
</svg>