<?xml version="1.0" encoding="UTF-8"?>
<svg xmlns="http://www.w3.org/2000/svg" width="64" height="64" viewBox="-32 -32 64 64">
  <g>
    <path d="M 5.486417660180143e-16 -8.96 L 1.8080607635537698e-15 -29.52787309471779 A 29.52787309471779 29.52787309471779 0 0 1 29.07927835363866 -5.127461353278128 L 8.823877466989385 -1.5558876718956962 A 8.96 8.96 0 0 0 5.486417660180143e-16 -8.96 Z" fill="#A0AAE5" stroke="#111" stroke-width="1" fill-opacity="0.9"/><path d="M 8.823877466989385 -1.5558876718956962 L 30.25329417253503 -5.334472017928101 A 30.72 30.72 0 1 1 -19.74643536957049 -23.532885292615 L -5.7593769827913945 -6.863758210346043 A 8.96 8.96 0 1 0 8.823877466989385 -1.5558876718956962 Z" fill="#7F142A" stroke="#111" stroke-width="1" fill-opacity="0.9"/><path d="M -5.7593769827913945 -6.863758210346043 L -14.562996085058238 -17.355502903303563 A 22.656 22.656 0 0 1 -4.1618396822223646e-15 -22.656 L -1.6459252980540428e-15 -8.96 A 8.96 8.96 0 0 0 -5.7593769827913945 -6.863758210346043 Z" fill="#4A0D19" stroke="#111" stroke-width="1" fill-opacity="0.9"/>
    <circle r="5.76" fill="#fff" stroke="#111" stroke-width="1.5"/>
  </g>
</svg>