<?xml version="1.0" encoding="UTF-8"?>
<svg xmlns="http://www.w3.org/2000/svg" width="64" height="64" viewBox="-32 -32 64 64">
  <g>
    <path d="M 5.486417660180143e-16 -8.96 L 1.8810574834903343e-15 -30.72 A 30.72 30.72 0 1 1 -20.500033880747196 -22.879401453888974 L -5.9791765485512665 -6.673158757384285 A 8.96 8.96 0 1 0 5.486417660180143e-16 -8.96 Z" fill="#7F142A" stroke="#111" stroke-width="1" fill-opacity="0.9"/><path d="M -5.9791765485512665 -6.673158757384285 L -18.339399833281345 -20.46799013357215 A 27.482216183433366 27.482216183433366 0 0 1 -4.001442768253747 -27.189348321086268 L -1.3045864629056436 -8.864516577952989 A 8.96 8.96 0 0 0 -5.9791765485512665 -6.673158757384285 Z" fill="#A0AAE5" stroke="#111" stroke-width="1" fill-opacity="0.9"/><path d="M -1.3045864629056436 -8.864516577952989 L -3.29874005620427 -22.414563347109695 A 22.656 22.656 0 0 1 -4.1618396822223646e-15 -22.656 L -1.6459252980540428e-15 -8.96 A 8.96 8.96 0 0 0 -1.3045864629056436 -8.864516577952989 Z" fill="#4A0D19" stroke="#111" stroke-width="1" fill-opacity="0.9"/>
    <circle r="5.76" fill="#fff" stroke="#111" stroke-width="1.5"/>
  </g>
</svg>