<?xml version="1.0" encoding="UTF-8"?>
<svg xmlns="http://www.w3.org/2000/svg" width="64" height="64" viewBox="-32 -32 64 64">
  <g>
    <path d="M 5.486417660180143e-16 -8.96 L 1.3872798940741216e-15 -22.656 A 22.656 22.656 0 0 1 12.24875836027402 -19.059440039823237 L 4.844141724402156 -7.537631654167384 A 8.96 8.96 0 0 0 5.486417660180143e-16 -8.96 Z" fill="#004F61" stroke="#111" stroke-width="1" fill-opacity="0.9"/><path d="M 4.844141724402156 -7.537631654167384 L 14.534885835041079 -22.61672382705443 A 26.884551380057086 26.884551380057086 0 0 1 26.610905411330126 3.826070581702647 L 8.868800119253159 1.2751409509286342 A 8.96 8.96 0 0 0 4.844141724402156 -7.537631654167384 Z" fill="#7F142A" stroke="#111" stroke-width="1" fill-opacity="0.9"/><path d="M 8.868800119253159 1.2751409509286342 L 30.407314694582254 4.371911831755317 A 30.72 30.72 0 1 1 -5.643172450471003e-15 -30.72 L -1.6459252980540428e-15 -8.96 A 8.96 8.96 0 1 0 8.868800119253159 1.2751409509286342 Z" fill="#A0AAE5" stroke="#111" stroke-width="1" fill-opacity="0.9"/>
    <circle r="5.76" fill="#fff" stroke="#111" stroke-width="1.5"/>
  </g>
</svg>