<?xml version="1.0" encoding="UTF-8"?>
<svg xmlns="http://www.w3.org/2000/svg" width="64" height="64" viewBox="-32 -32 64 64">
  <g>
    <path d="M 5.486417660180143e-16 -8.96 L 1.8810574834903343e-15 -30.72 A 30.72 30.72 0 1 1 -18.05676295042477 24.853002067198386 L -5.266555860540559 7.24879226959953 A 8.96 8.96 0 1 0 5.486417660180143e-16 -8.96 Z" fill="#A0AAE5" stroke="#111" stroke-width="1" fill-opacity="0.9"/><path d="M -5.266555860540559 7.24879226959953 L -16.359970924748136 22.517568200257404 A 27.83324498350575 27.83324498350575 0 0 1 -26.47098901120254 -8.600945708504526 L -8.521466386004578 -2.768792269599528 A 8.96 8.96 0 0 0 -5.266555860540559 7.24879226959953 Z" fill="#7F142A" stroke="#111" stroke-width="1" fill-opacity="0.9"/><path d="M -8.521466386004578 -2.768792269599528 L -25.558463391317183 -8.304448161286631 A 26.87375876554669 26.87375876554669 0 0 1 -4.936629397992732e-15 -26.87375876554669 L -1.6459252980540428e-15 -8.96 A 8.96 8.96 0 0 0 -8.521466386004578 -2.768792269599528 Z" fill="#51BF7E" stroke="#111" stroke-width="1" fill-opacity="0.9"/>
    <circle r="5.76" fill="#fff" stroke="#111" stroke-width="1.5"/>
  </g>
</svg>