<?xml version="1.0" encoding="UTF-8"?>
<svg xmlns="http://www.w3.org/2000/svg" width="64" height="64" viewBox="-32 -32 64 64">
  <g>
    <path d="M 5.486417660180143e-16 -8.96 L 1.623546840933706e-15 -26.51453206041256 A 26.51453206041256 26.51453206041256 0 0 1 17.80607143874842 -19.64597236842283 L 6.017168235429285 -6.638922083180434 A 8.96 8.96 0 0 0 5.486417660180143e-16 -8.96 Z" fill="#51BF7E" stroke="#111" stroke-width="1" fill-opacity="0.9"/><path d="M 6.017168235429285 -6.638922083180434 L 20.630291092900404 -22.762018570904342 A 30.72 30.72 0 0 1 -13.13449247017827 27.770551084752174 L -3.8308936371353295 8.099744066386052 A 8.96 8.96 0 0 0 6.017168235429285 -6.638922083180434 Z" fill="#7F142A" stroke="#111" stroke-width="1" fill-opacity="0.9"/><path d="M -3.8308936371353295 8.099744066386052 L -12.64298353020149 26.731342744024236 A 29.57041963590377 29.57041963590377 0 0 1 -29.002232314241073 5.768902688920493 L -8.787836112412947 1.7480092852645046 A 8.96 8.96 0 0 0 -3.8308936371353295 8.099744066386052 Z" fill="#A0AAE5" stroke="#111" stroke-width="1" fill-opacity="0.9"/><path d="M -8.787836112412947 1.7480092852645046 L -22.22067131281559 4.4199663355973895 A 22.656 22.656 0 0 1 1.5960730594503672e-14 -22.656 L 6.31215334245908e-15 -8.96 A 8.96 8.96 0 0 0 -8.787836112412947 1.7480092852645046 Z" fill="#7B86C9" stroke="#111" stroke-width="1" fill-opacity="0.9"/>
    <circle r="5.76" fill="#fff" stroke="#111" stroke-width="1.5"/>
  </g>
</svg>