<?xml version="1.0" encoding="UTF-8"?>
<svg xmlns="http://www.w3.org/2000/svg" width="64" height="64" viewBox="-32 -32 64 64">
  <g>
    <path d="M 5.486417660180143e-16 -8.96 L 1.543263240184574e-15 -25.203401360442115 A 25.203401360442115 25.203401360442115 0 0 1 9.367158040614756 -23.398029625968118 L 3.330095602716535 -8.318176679824012 A 8.96 8.96 0 0 0 5.486417660180143e-16 -8.96 Z" fill="#51BF7E" stroke="#111" stroke-width="1" fill-opacity="0.9"/><path d="M 3.330095602716535 -8.318176679824012 L 11.41747063788526 -28.51946290225375 A 30.72 30.72 0 1 1 -5.813798226751812 -30.164849579910346 L -1.695691149469279 -8.798081127473852 A 8.96 8.96 0 1 0 3.330095602716535 -8.318176679824012 Z" fill="#7F142A" stroke="#111" stroke-width="1" fill-opacity="0.9"/><path d="M -1.695691149469279 -8.798081127473852 L -5.012975192631075 -26.00978512424624 A 26.488466216287335 26.488466216287335 0 0 1 -4.8658523049148625e-15 -26.488466216287335 L -1.6459252980540428e-15 -8.96 A 8.96 8.96 0 0 0 -1.695691149469279 -8.798081127473852 Z" fill="#A0AAE5" stroke="#111" stroke-width="1" fill-opacity="0.9"/>
    <circle r="5.76" fill="#fff" stroke="#111" stroke-width="1.5"/>
  </g>
</svg>