<?xml version="1.0" encoding="UTF-8"?>
<svg xmlns="http://www.w3.org/2000/svg" width="64" height="64" viewBox="-32 -32 64 64">
  <g>
    <path d="M 5.486417660180143e-16 -8.96 L 1.6801354367819608e-15 -27.43869396387165 A 27.43869396387165 27.43869396387165 0 0 1 17.637252505957534 -21.01925903746612 L 5.759376982791394 -6.8637582103460435 A 8.96 8.96 0 0 0 5.486417660180143e-16 -8.96 Z" fill="#A0AAE5" stroke="#111" stroke-width="1" fill-opacity="0.9"/><path d="M 5.759376982791394 -6.8637582103460435 L 19.746435369570488 -23.532885292615003 A 30.72 30.72 0 1 1 -26.60430040425795 15.36000000000001 L -7.759587617908569 4.480000000000003 A 8.96 8.96 0 1 0 5.759376982791394 -6.8637582103460435 Z" fill="#7F142A" stroke="#111" stroke-width="1" fill-opacity="0.9"/><path d="M -7.759587617908569 4.480000000000003 L -19.620671548140237 11.328000000000007 A 22.656 22.656 0 0 1 -4.1618396822223646e-15 -22.656 L -1.6459252980540428e-15 -8.96 A 8.96 8.96 0 0 0 -7.759587617908569 4.480000000000003 Z" fill="#4A0D19" stroke="#111" stroke-width="1" fill-opacity="0.9"/>
    <circle r="5.76" fill="#fff" stroke="#111" stroke-width="1.5"/>
  </g>
</svg>