<?xml version="1.0" encoding="UTF-8"?>
<svg xmlns="http://www.w3.org/2000/svg" width="64" height="64" viewBox="-32 -32 64 64">
  <g>
    <path d="M 5.486417660180143e-16 -8.96 L 1.3872798940741216e-15 -22.656 A 22.656 22.656 0 0 1 6.446257002712671 -21.719578878398583 L 2.549367176214051 -8.58966396320848 A 8.96 8.96 0 0 0 5.486417660180143e-16 -8.96 Z" fill="#004F61" stroke="#111" stroke-width="1" fill-opacity="0.9"/><path d="M 2.549367176214051 -8.58966396320848 L 6.446257002712671 -21.719578878398583 A 22.656 22.656 0 0 1 13.840066379515909 -17.937304664040063 L 5.473472579469569 -7.093849302162737 A 8.96 8.96 0 0 0 2.549367176214051 -8.58966396320848 Z" fill="#4A0D19" stroke="#111" stroke-width="1" fill-opacity="0.9"/><path d="M 5.473472579469569 -7.093849302162737 L 18.32450797712752 -23.749328463543513 A 29.99696976484605 29.99696976484605 0 0 1 25.651691606498282 15.55020619793171 L 7.662079156527903 4.644797412062305 A 8.96 8.96 0 0 0 5.473472579469569 -7.093849302162737 Z" fill="#7F142A" stroke="#111" stroke-width="1" fill-opacity="0.9"/><path d="M 7.662079156527903 4.644797412062305 L 26.269985679524233 15.925019698499328 A 30.72 30.72 0 1 1 -26.01136740029289 -16.344025390551135 L -7.586648825085428 -4.767007405577415 A 8.96 8.96 0 1 0 7.662079156527903 4.644797412062305 Z" fill="#A0AAE5" stroke="#111" stroke-width="1" fill-opacity="0.9"/><path d="M -7.586648825085428 -4.767007405577415 L -19.18338345771601 -12.053718725531462 A 22.656 22.656 0 0 1 -16.771738301738356 -15.231648969760386 L -6.63289085379483 -6.023815976741396 A 8.96 8.96 0 0 0 -7.586648825085428 -4.767007405577415 Z" fill="#7B86C9" stroke="#111" stroke-width="1" fill-opacity="0.9"/><path d="M -6.63289085379483 -6.023815976741396 L -19.778557542240303 -17.96236264790669 A 26.71774336179282 26.71774336179282 0 0 1 -13.110865617568454 -23.279669523098597 L -4.39682926595529 -7.807015588945566 A 8.96 8.96 0 0 0 -6.63289085379483 -6.023815976741396 Z" fill="#51BF7E" stroke="#111" stroke-width="1" fill-opacity="0.9"/><path d="M -4.39682926595529 -7.807015588945566 L -11.117696858201231 -19.7405965606195 A 22.656 22.656 0 0 1 -2.42844099589484e-14 -22.656 L -9.604003938567165e-15 -8.96 A 8.96 8.96 0 0 0 -4.39682926595529 -7.807015588945566 Z" fill="#e0e0e0" stroke="#111" stroke-width="1" fill-opacity="0.9"/>
    <circle r="5.76" fill="#fff" stroke="#111" stroke-width="1.5"/>
  </g>
</svg>