<?xml version="1.0" encoding="UTF-8"?>
<svg xmlns="http://www.w3.org/2000/svg" width="64" height="64" viewBox="-32 -32 64 64">
  <g>
    <path d="M 5.486417660180143e-16 -8.96 L 1.8426221258410973e-15 -30.09230297460464 A 30.09230297460464 30.09230297460464 0 0 1 27.228329802425947 12.812679442088696 L 8.107250390095535 3.8149824524230525 A 8.96 8.96 0 0 0 5.486417660180143e-16 -8.96 Z" fill="#A0AAE5" stroke="#111" stroke-width="1" fill-opacity="0.9"/><path d="M 8.107250390095535 3.8149824524230525 L 27.796287051756117 13.079939836879035 A 30.72 30.72 0 1 1 -18.056762950424776 -24.853002067198382 L -5.266555860540561 -7.248792269599529 A 8.96 8.96 0 1 0 8.107250390095535 3.8149824524230525 Z" fill="#7F142A" stroke="#111" stroke-width="1" fill-opacity="0.9"/><path d="M -5.266555860540561 -7.248792269599529 L -13.316862675938273 -18.329089024558805 A 22.656 22.656 0 0 1 -8.34022986562406 -21.065016064284222 L -3.2983959920547137 -8.330797313558733 A 8.96 8.96 0 0 0 -5.266555860540561 -7.248792269599529 Z" fill="#004F61" stroke="#111" stroke-width="1" fill-opacity="0.9"/><path d="M -3.2983959920547137 -8.330797313558733 L -8.980666278970853 -22.682573799821924 A 24.395727515255867 24.395727515255867 0 0 1 -3.0575954146406747 -24.203359917147463 L -1.1229857727361616 -8.889347723777723 A 8.96 8.96 0 0 0 -3.2983959920547137 -8.330797313558733 Z" fill="#51BF7E" stroke="#111" stroke-width="1" fill-opacity="0.9"/><path d="M -1.1229857727361616 -8.889347723777723 L -2.839549739632865 -22.47735067298081 A 22.656 22.656 0 0 1 1.5960730594503672e-14 -22.656 L 6.31215334245908e-15 -8.96 A 8.96 8.96 0 0 0 -1.1229857727361616 -8.889347723777723 Z" fill="#e0e0e0" stroke="#111" stroke-width="1" fill-opacity="0.9"/>
    <circle r="5.76" fill="#fff" stroke="#111" stroke-width="1.5"/>
  </g>
</svg>