<?xml version="1.0" encoding="UTF-8"?>
<svg xmlns="http://www.w3.org/2000/svg" width="64" height="64" viewBox="-32 -32 64 64">
  <g>
    <path d="M 5.486417660180143e-16 -8.96 L 1.5903943632220957e-15 -25.973111011752778 A 25.973111011752778 25.973111011752778 0 0 1 1.9963214488608922 -25.89627765339357 L 0.6886753063081179 -8.933494631021022 A 8.96 8.96 0 0 0 5.486417660180143e-16 -8.96 Z" fill="#51BF7E" stroke="#111" stroke-width="1" fill-opacity="0.9"/><path d="M 0.6886753063081179 -8.933494631021022 L 1.7413647030933836 -22.58897928129601 A 22.656 22.656 0 0 1 2.0308681825161905 -22.564793604756137 L 0.8031682077747647 -8.923929674197343 A 8.96 8.96 0 0 0 0.6886753063081179 -8.933494631021022 Z" fill="#e0e0e0" stroke="#111" stroke-width="1" fill-opacity="0.9"/><path d="M 0.8031682077747647 -8.923929674197343 L 2.0308681825161905 -22.564793604756137 A 22.656 22.656 0 0 1 2.3200377412241098 -22.53689776520486 L 0.9175290502016255 -8.91289742126746 A 8.96 8.96 0 0 0 0.8031682077747647 -8.923929674197343 Z" fill="#004F61" stroke="#111" stroke-width="1" fill-opacity="0.9"/><path d="M 0.9175290502016255 -8.91289742126746 L 2.3200377412241098 -22.53689776520486 A 22.656 22.656 0 0 1 9.567524978679714 -20.53671837909698 L 3.7837669407207914 -8.121866025631574 A 8.96 8.96 0 0 0 0.9175290502016255 -8.91289742126746 Z" fill="#4A0D19" stroke="#111" stroke-width="1" fill-opacity="0.9"/><path d="M 3.7837669407207914 -8.121866025631574 L 12.972915225328427 -27.846397802165395 A 30.72 30.72 0 0 1 -5.485267808214116 30.2263169617499 L -1.599869777395784 8.816009113843723 A 8.96 8.96 0 0 0 3.7837669407207914 -8.121866025631574 Z" fill="#A0AAE5" stroke="#111" stroke-width="1" fill-opacity="0.9"/><path d="M -1.599869777395784 8.816009113843723 L -4.04538500855791 22.291908759290553 A 22.656 22.656 0 0 1 -22.180843297960426 4.615682678794551 L -8.772084920097345 1.8254112289018 A 8.96 8.96 0 0 0 -1.599869777395784 8.816009113843723 Z" fill="#7B86C9" stroke="#111" stroke-width="1" fill-opacity="0.9"/><path d="M -8.772084920097345 1.8254112289018 L -29.33547288216195 6.104512449663841 A 29.96389563237998 29.96389563237998 0 0 1 -5.504278331426925e-15 -29.96389563237998 L -1.6459252980540428e-15 -8.96 A 8.96 8.96 0 0 0 -8.772084920097345 1.8254112289018 Z" fill="#7F142A" stroke="#111" stroke-width="1" fill-opacity="0.9"/>
    <circle r="5.76" fill="#fff" stroke="#111" stroke-width="1.5"/>
  </g>
</svg>