<?xml version="1.0" encoding="UTF-8"?>
<svg xmlns="http://www.w3.org/2000/svg" width="64" height="64" viewBox="-32 -32 64 64">
  <g>
    <path d="M 5.486417660180143e-16 -8.96 L 1.3872798940741216e-15 -22.656 A 22.656 22.656 0 0 1 12.870074901941065 18.64552246568668 L 5.089860130711156 7.3739354384071625 A 8.96 8.96 0 0 0 5.486417660180143e-16 -8.96 Z" fill="#4A0D19" stroke="#111" stroke-width="1" fill-opacity="0.9"/><path d="M 5.089860130711156 7.3739354384071625 L 17.450949019581106 25.282064360253127 A 30.72 30.72 0 1 1 -7.3517772069137735 -29.827332631328318 L -2.1442683520165176 -8.699638684137426 A 8.96 8.96 0 1 0 5.089860130711156 7.3739354384071625 Z" fill="#7F142A" stroke="#111" stroke-width="1" fill-opacity="0.9"/><path d="M -2.1442683520165176 -8.699638684137426 L -6.4489615820794 -26.164465655249234 A 26.947511360269484 26.947511360269484 0 0 1 -4.950177529851144e-15 -26.947511360269484 L -1.6459252980540428e-15 -8.96 A 8.96 8.96 0 0 0 -2.1442683520165176 -8.699638684137426 Z" fill="#51BF7E" stroke="#111" stroke-width="1" fill-opacity="0.9"/>
    <circle r="5.76" fill="#fff" stroke="#111" stroke-width="1.5"/>
  </g>
</svg>