<?xml version="1.0" encoding="UTF-8"?>
<svg xmlns="http://www.w3.org/2000/svg" width="64" height="64" viewBox="-32 -32 64 64">
  <g>
    <path d="M 5.486417660180143e-16 -8.96 L 1.5400792507285059e-15 -25.151402866537012 A 25.151402866537012 25.151402866537012 0 0 1 3.2326926103874434 -24.942789832767158 L 1.1516226726107683 -8.885683160001197 A 8.96 8.96 0 0 0 5.486417660180143e-16 -8.96 Z" fill="#51BF7E" stroke="#111" stroke-width="1" fill-opacity="0.9"/><path d="M 1.1516226726107683 -8.885683160001197 L 2.9119601864586566 -22.46808456171731 A 22.656 22.656 0 0 1 8.543460733290589 -20.98341284678738 L 3.378769781527352 -8.298524854661677 A 8.96 8.96 0 0 0 1.1516226726107683 -8.885683160001197 Z" fill="#e0e0e0" stroke="#111" stroke-width="1" fill-opacity="0.9"/><path d="M 3.378769781527352 -8.298524854661677 L 8.543460733290589 -20.98341284678738 A 22.656 22.656 0 0 1 21.547136433183 -7.001089024558808 L 8.521466386004576 -2.768792269599529 A 8.96 8.96 0 0 0 3.378769781527352 -8.298524854661677 Z" fill="#4A0D19" stroke="#111" stroke-width="1" fill-opacity="0.9"/><path d="M 8.521466386004576 -2.768792269599529 L 21.547136433183 -7.001089024558808 A 22.656 22.656 0 0 1 22.6199915210399 -1.2768396876989199 L 8.94575935860335 -0.5049648482425108 A 8.96 8.96 0 0 0 8.521466386004576 -2.768792269599529 Z" fill="#004F61" stroke="#111" stroke-width="1" fill-opacity="0.9"/><path d="M 8.94575935860335 -0.5049648482425108 L 30.671174943782916 -1.7313080511171797 A 30.72 30.72 0 1 1 -28.895465408563734 -10.429308645471023 L -8.427844077497756 -3.0418816882623823 A 8.96 8.96 0 1 0 8.94575935860335 -0.5049648482425108 Z" fill="#7F142A" stroke="#111" stroke-width="1" fill-opacity="0.9"/><path d="M -8.427844077497756 -3.0418816882623823 L -26.667398791180773 -9.625127293594591 A 28.351247480591915 28.351247480591915 0 0 1 -10.691109180360213 -26.258206682852258 L -3.3787697815273545 -8.298524854661677 A 8.96 8.96 0 0 0 -8.427844077497756 -3.0418816882623823 Z" fill="#A0AAE5" stroke="#111" stroke-width="1" fill-opacity="0.9"/><path d="M -3.3787697815273545 -8.298524854661677 L -8.543460733290596 -20.98341284678738 A 22.656 22.656 0 0 1 -4.1618396822223646e-15 -22.656 L -1.6459252980540428e-15 -8.96 A 8.96 8.96 0 0 0 -3.3787697815273545 -8.298524854661677 Z" fill="#7B86C9" stroke="#111" stroke-width="1" fill-opacity="0.9"/>
    <circle r="5.76" fill="#fff" stroke="#111" stroke-width="1.5"/>
  </g>
</svg>