<?xml version="1.0" encoding="UTF-8"?>
<svg xmlns="http://www.w3.org/2000/svg" width="64" height="64" viewBox="-32 -32 64 64">
  <g>
    <path d="M 5.486417660180143e-16 -8.96 L 1.3872798940741216e-15 -22.656 A 22.656 22.656 0 0 1 3.019749260948336 -22.453851571634697 L 1.1942511201490595 -8.88005429386683 A 8.96 8.96 0 0 0 5.486417660180143e-16 -8.96 Z" fill="#4A0D19" stroke="#111" stroke-width="1" fill-opacity="0.9"/><path d="M 1.1942511201490595 -8.88005429386683 L 4.0945752690824895 -30.445900436114844 A 30.72 30.72 0 1 1 -4.094575269082493 -30.44590043611484 L -1.1942511201490607 -8.88005429386683 A 8.96 8.96 0 1 0 1.1942511201490595 -8.88005429386683 Z" fill="#7F142A" stroke="#111" stroke-width="1" fill-opacity="0.9"/><path d="M -1.1942511201490607 -8.88005429386683 L -3.3278409933912605 -24.744719267235567 A 24.96749201044419 24.96749201044419 0 0 1 -4.586453875999138e-15 -24.96749201044419 L -1.6459252980540428e-15 -8.96 A 8.96 8.96 0 0 0 -1.1942511201490607 -8.88005429386683 Z" fill="#A0AAE5" stroke="#111" stroke-width="1" fill-opacity="0.9"/>
    <circle r="5.76" fill="#fff" stroke="#111" stroke-width="1.5"/>
  </g>
</svg>