<?xml version="1.0" encoding="UTF-8"?>
<svg xmlns="http://www.w3.org/2000/svg" width="64" height="64" viewBox="-32 -32 64 64">
  <g>
    <path d="M 5.486417660180143e-16 -8.96 L 1.3872798940741216e-15 -22.656 A 22.656 22.656 0 0 1 15.703649990670407 -16.33063724937019 L 6.210483047157789 -6.458444109920416 A 8.96 8.96 0 0 0 5.486417660180143e-16 -8.96 Z" fill="#004F61" stroke="#111" stroke-width="1" fill-opacity="0.9"/><path d="M 6.210483047157789 -6.458444109920416 L 15.703649990670407 -16.33063724937019 A 22.656 22.656 0 0 1 22.567337603318077 -2.0024009333462405 L 8.924935775323535 -0.7919099736397561 A 8.96 8.96 0 0 0 6.210483047157789 -6.458444109920416 Z" fill="#4A0D19" stroke="#111" stroke-width="1" fill-opacity="0.9"/><path d="M 8.924935775323535 -0.7919099736397561 L 30.599779801109257 -2.715119909622021 A 30.72 30.72 0 0 1 -16.08422195374411 26.172814219007783 L -4.691231403175366 7.633737480543938 A 8.96 8.96 0 0 0 8.924935775323535 -0.7919099736397561 Z" fill="#7F142A" stroke="#111" stroke-width="1" fill-opacity="0.9"/><path d="M -4.691231403175366 7.633737480543938 L -15.862401574801654 25.811860261474305 A 30.29633499085568 30.29633499085568 0 0 1 -28.065014841404334 -11.411522940865545 L -8.300097455843474 -3.3749047725085064 A 8.96 8.96 0 0 0 -4.691231403175366 7.633737480543938 Z" fill="#A0AAE5" stroke="#111" stroke-width="1" fill-opacity="0.9"/><path d="M -8.300097455843474 -3.3749047725085064 L -20.987389281204212 -8.533687781914365 A 22.656 22.656 0 0 1 -10.035344671625358 -20.31221783365077 L -3.9687803786088995 -8.033080499183923 A 8.96 8.96 0 0 0 -8.300097455843474 -3.3749047725085064 Z" fill="#7B86C9" stroke="#111" stroke-width="1" fill-opacity="0.9"/><path d="M -3.9687803786088995 -8.033080499183923 L -12.100698435854028 -24.492633846782947 A 27.318785027670206 27.318785027670206 0 0 1 -5.771226083263356 -26.702227713880326 L -1.8928435380147508 -8.757781873316771 A 8.96 8.96 0 0 0 -3.9687803786088995 -8.033080499183923 Z" fill="#51BF7E" stroke="#111" stroke-width="1" fill-opacity="0.9"/><path d="M -1.8928435380147508 -8.757781873316771 L -4.786190088980154 -22.144677022529546 A 22.656 22.656 0 0 1 -2.42844099589484e-14 -22.656 L -9.604003938567165e-15 -8.96 A 8.96 8.96 0 0 0 -1.8928435380147508 -8.757781873316771 Z" fill="#e0e0e0" stroke="#111" stroke-width="1" fill-opacity="0.9"/>
    <circle r="5.76" fill="#fff" stroke="#111" stroke-width="1.5"/>
  </g>
</svg>