<?xml version="1.0" encoding="UTF-8"?>
<svg xmlns="http://www.w3.org/2000/svg" width="64" height="64" viewBox="-32 -32 64 64">
  <g>
    <path d="M 5.486417660180143e-16 -8.96 L 1.4549220371392788e-15 -23.760680028760163 A 23.760680028760163 23.760680028760163 0 0 1 3.2354121797643796 -23.539371772758813 L 1.2200531759023696 -8.876546076485525 A 8.96 8.96 0 0 0 5.486417660180143e-16 -8.96 Z" fill="#51BF7E" stroke="#111" stroke-width="1" fill-opacity="0.9"/><path d="M 1.2200531759023696 -8.876546076485525 L 3.711648443591911 -27.004247913121958 A 27.258131621998047 27.258131621998047 0 0 1 14.162887698743505 -23.28987658951738 L 4.655472192317485 -7.655597864736539 A 8.96 8.96 0 0 0 1.2200531759023696 -8.876546076485525 Z" fill="#A0AAE5" stroke="#111" stroke-width="1" fill-opacity="0.9"/><path d="M 4.655472192317485 -7.655597864736539 L 15.961618945088519 -26.24776410766813 A 30.72 30.72 0 1 1 -4.183039460236713 -30.433872262236076 L -1.2200531759023745 -8.876546076485523 A 8.96 8.96 0 1 0 4.655472192317485 -7.655597864736539 Z" fill="#7F142A" stroke="#111" stroke-width="1" fill-opacity="0.9"/><path d="M -1.2200531759023745 -8.876546076485523 L -3.084991601924575 -22.444980793399107 A 22.656 22.656 0 0 1 -4.1618396822223646e-15 -22.656 L -1.6459252980540428e-15 -8.96 A 8.96 8.96 0 0 0 -1.2200531759023745 -8.876546076485523 Z" fill="#004F61" stroke="#111" stroke-width="1" fill-opacity="0.9"/>
    <circle r="5.76" fill="#fff" stroke="#111" stroke-width="1.5"/>
  </g>
</svg>