<?xml version="1.0" encoding="UTF-8"?>
<svg xmlns="http://www.w3.org/2000/svg" width="64" height="64" viewBox="-32 -32 64 64">
  <g>
    <path d="M 5.486417660180143e-16 -8.96 L 1.8810574834903343e-15 -30.72 A 30.72 30.72 0 0 1 9.974767693967879 -29.055505665043494 L 2.909307244073965 -8.474522485637687 A 8.96 8.96 0 0 0 5.486417660180143e-16 -8.96 Z" fill="#7F142A" stroke="#111" stroke-width="1" fill-opacity="0.9"/><path d="M 2.909307244073965 -8.474522485637687 L 9.60360459809763 -27.974344502640207 A 29.576902671324433 29.576902671324433 0 1 1 -27.085738551471625 11.880906478477225 L -8.205329006829315 3.59919100489061 A 8.96 8.96 0 1 0 2.909307244073965 -8.474522485637687 Z" fill="#A0AAE5" stroke="#111" stroke-width="1" fill-opacity="0.9"/><path d="M -8.205329006829315 3.59919100489061 L -20.747760488696976 9.100811540937684 A 22.656 22.656 0 0 1 -4.1618396822223646e-15 -22.656 L -1.6459252980540428e-15 -8.96 A 8.96 8.96 0 0 0 -8.205329006829315 3.59919100489061 Z" fill="#4A0D19" stroke="#111" stroke-width="1" fill-opacity="0.9"/>
    <circle r="5.76" fill="#fff" stroke="#111" stroke-width="1.5"/>
  </g>
</svg>