<?xml version="1.0" encoding="UTF-8"?>
<svg xmlns="http://www.w3.org/2000/svg" width="64" height="64" viewBox="-32 -32 64 64">
  <g>
    <path d="M 5.486417660180143e-16 -8.96 L 1.4352011136312612e-15 -23.43861290668467 A 23.43861290668467 23.43861290668467 0 0 1 0.6817054641195834 -23.428697203421166 L 0.2605990799382778 -8.956209472736518 A 8.96 8.96 0 0 0 5.486417660180143e-16 -8.96 Z" fill="#51BF7E" stroke="#111" stroke-width="1" fill-opacity="0.9"/><path d="M 0.2605990799382778 -8.956209472736518 L 0.6589433878439309 -22.646415381062337 A 22.656 22.656 0 0 1 1.9746005076909428 -22.569787079966584 L 0.780915455019017 -8.92590449490204 A 8.96 8.96 0 0 0 0.2605990799382778 -8.956209472736518 Z" fill="#e0e0e0" stroke="#111" stroke-width="1" fill-opacity="0.9"/><path d="M 0.780915455019017 -8.92590449490204 L 2.600285049291447 -29.721394115489606 A 29.834925012572576 29.834925012572576 0 0 1 28.320583089737625 9.384419212881317 L 8.505214086414384 2.818321015118458 A 8.96 8.96 0 0 0 0.780915455019017 -8.92590449490204 Z" fill="#7F142A" stroke="#111" stroke-width="1" fill-opacity="0.9"/><path d="M 8.505214086414384 2.818321015118458 L 29.1607340105636 9.66281490897757 A 30.72 30.72 0 1 1 -17.620268124704143 -25.16435080055782 L -5.139244869705376 -7.339602316829366 A 8.96 8.96 0 1 0 8.505214086414384 2.818321015118458 Z" fill="#A0AAE5" stroke="#111" stroke-width="1" fill-opacity="0.9"/><path d="M -5.139244869705376 -7.339602316829366 L -12.994947741969305 -18.55870871541139 A 22.656 22.656 0 0 1 -1.3173292437957496 -22.617669633793852 L -0.5209776670378672 -8.944841098110563 A 8.96 8.96 0 0 0 -5.139244869705376 -7.339602316829366 Z" fill="#7B86C9" stroke="#111" stroke-width="1" fill-opacity="0.9"/><path d="M -0.5209776670378672 -8.944841098110563 L -1.3173292437957496 -22.617669633793852 A 22.656 22.656 0 0 1 -4.1618396822223646e-15 -22.656 L -1.6459252980540428e-15 -8.96 A 8.96 8.96 0 0 0 -0.5209776670378672 -8.944841098110563 Z" fill="#004F61" stroke="#111" stroke-width="1" fill-opacity="0.9"/>
    <circle r="5.76" fill="#fff" stroke="#111" stroke-width="1.5"/>
  </g>
</svg>