<?xml version="1.0" encoding="UTF-8"?>
<svg xmlns="http://www.w3.org/2000/svg" width="64" height="64" viewBox="-32 -32 64 64">
  <g>
    <path d="M 5.486417660180143e-16 -8.96 L 1.6130342981255094e-15 -26.34284920760119 A 26.34284920760119 26.34284920760119 0 0 1 6.3384002926594585 -25.568934004068865 L 2.1558817034051687 -8.696768025014974 A 8.96 8.96 0 0 0 5.486417660180143e-16 -8.96 Z" fill="#51BF7E" stroke="#111" stroke-width="1" fill-opacity="0.9"/><path d="M 2.1558817034051687 -8.696768025014974 L 5.451300878610212 -21.99039914896643 A 22.656 22.656 0 0 1 6.963679422696539 -21.559255666602056 L 2.7539975118008915 -8.526259303175955 A 8.96 8.96 0 0 0 2.1558817034051687 -8.696768025014974 Z" fill="#e0e0e0" stroke="#111" stroke-width="1" fill-opacity="0.9"/><path d="M 2.7539975118008915 -8.526259303175955 L 9.320817591621495 -28.856855303329887 A 30.32483699170696 30.32483699170696 0 0 1 30.296292458349882 -1.3154473960332864 L 8.951566021642613 -0.38867178978345435 A 8.96 8.96 0 0 0 2.7539975118008915 -8.526259303175955 Z" fill="#7F142A" stroke="#111" stroke-width="1" fill-opacity="0.9"/><path d="M 8.951566021642613 -0.38867178978345435 L 30.691083502774667 -1.3325889935432718 A 30.72 30.72 0 1 1 -29.149845067112246 -9.695614089027673 L -8.502038144574406 -2.827887442633072 A 8.96 8.96 0 1 0 8.951566021642613 -0.38867178978345435 Z" fill="#A0AAE5" stroke="#111" stroke-width="1" fill-opacity="0.9"/><path d="M -8.502038144574406 -2.827887442633072 L -21.49801073699528 -7.150515390657909 A 22.656 22.656 0 0 1 -4.1618396822223646e-15 -22.656 L -1.6459252980540428e-15 -8.96 A 8.96 8.96 0 0 0 -8.502038144574406 -2.827887442633072 Z" fill="#7B86C9" stroke="#111" stroke-width="1" fill-opacity="0.9"/>
    <circle r="5.76" fill="#fff" stroke="#111" stroke-width="1.5"/>
  </g>
</svg>