<?xml version="1.0" encoding="UTF-8"?>
<svg xmlns="http://www.w3.org/2000/svg" width="64" height="64" viewBox="-32 -32 64 64">
  <g>
    <path d="M 5.486417660180143e-16 -8.96 L 1.7693245693371591e-15 -28.895263035334462 A 28.895263035334462 28.895263035334462 0 0 1 11.057738437453896 -26.695742104875468 L 3.4288435539912054 -8.27796061130113 A 8.96 8.96 0 0 0 5.486417660180143e-16 -8.96 Z" fill="#7F142A" stroke="#111" stroke-width="1" fill-opacity="0.9"/><path d="M 3.4288435539912054 -8.27796061130113 L 11.75603504225556 -28.381579238746728 A 30.72 30.72 0 0 1 21.72232031805074 21.722320318050738 L 6.3356767594314665 6.335676759431466 A 8.96 8.96 0 0 0 3.4288435539912054 -8.27796061130113 Z" fill="#A0AAE5" stroke="#111" stroke-width="1" fill-opacity="0.9"/><path d="M 6.3356767594314665 6.335676759431466 L 16.02021123456242 16.020211234562417 A 22.656 22.656 0 1 1 -4.1618396822223646e-15 -22.656 L -1.6459252980540428e-15 -8.96 A 8.96 8.96 0 1 0 6.3356767594314665 6.335676759431466 Z" fill="#7B86C9" stroke="#111" stroke-width="1" fill-opacity="0.9"/>
    <circle r="5.76" fill="#fff" stroke="#111" stroke-width="1.5"/>
  </g>
</svg>