<?xml version="1.0" encoding="UTF-8"?>
<svg xmlns="http://www.w3.org/2000/svg" width="64" height="64" viewBox="-32 -32 64 64">
  <g>
    <path d="M 5.486417660180143e-16 -8.96 L 1.8810574834903343e-15 -30.72 A 30.72 30.72 0 1 1 -30.26881174239736 -5.245706406510713 L -8.828403424865897 -1.5299977018989583 A 8.96 8.96 0 1 0 5.486417660180143e-16 -8.96 Z" fill="#A0AAE5" stroke="#111" stroke-width="1" fill-opacity="0.9"/><path d="M -8.828403424865897 -1.5299977018989583 L -22.323248660018052 -3.868708474801651 A 22.656 22.656 0 0 1 -21.232279613534768 -7.904722538626884 L -8.396946739816011 -3.1261614559541355 A 8.96 8.96 0 0 0 -8.828403424865897 -1.5299977018989583 Z" fill="#7B86C9" stroke="#111" stroke-width="1" fill-opacity="0.9"/><path d="M -8.396946739816011 -3.1261614559541355 L -27.49805978784279 -10.237456219016112 A 29.341929076528835 29.341929076528835 0 0 1 -5.390024928656953e-15 -29.341929076528835 L -1.6459252980540428e-15 -8.96 A 8.96 8.96 0 0 0 -8.396946739816011 -3.1261614559541355 Z" fill="#7F142A" stroke="#111" stroke-width="1" fill-opacity="0.9"/>
    <circle r="5.76" fill="#fff" stroke="#111" stroke-width="1.5"/>
  </g>
</svg>