<?xml version="1.0" encoding="UTF-8"?>
<svg xmlns="http://www.w3.org/2000/svg" width="64" height="64" viewBox="-32 -32 64 64">
  <g>
    <path d="M 5.486417660180143e-16 -8.96 L 1.8810574834903343e-15 -30.72 A 30.72 30.72 0 0 1 30.69745708188088 -1.1766599789578887 L 8.953424982215259 -0.34319249386271755 A 8.96 8.96 0 0 0 5.486417660180143e-16 -8.96 Z" fill="#7F142A" stroke="#111" stroke-width="1" fill-opacity="0.9"/><path d="M 8.953424982215259 -0.34319249386271755 L 30.26916713588475 -1.160243256312118 A 30.291395535926423 30.291395535926423 0 0 1 2.3187836956499344 30.202514559002058 L 0.6858813054150031 8.933709578606315 A 8.96 8.96 0 0 0 8.953424982215259 -0.34319249386271755 Z" fill="#A0AAE5" stroke="#111" stroke-width="1" fill-opacity="0.9"/><path d="M 0.6858813054150031 8.933709578606315 L 1.7342998722636507 22.589522791618823 A 22.656 22.656 0 1 1 -4.1618396822223646e-15 -22.656 L -1.6459252980540428e-15 -8.96 A 8.96 8.96 0 1 0 0.6858813054150031 8.933709578606315 Z" fill="#7B86C9" stroke="#111" stroke-width="1" fill-opacity="0.9"/>
    <circle r="5.76" fill="#fff" stroke="#111" stroke-width="1.5"/>
  </g>
</svg>