<?xml version="1.0" encoding="UTF-8"?>
<svg xmlns="http://www.w3.org/2000/svg" width="64" height="64" viewBox="-32 -32 64 64">
  <g>
    <path d="M 5.486417660180143e-16 -8.96 L 1.8810574834903343e-15 -30.72 A 30.72 30.72 0 0 1 10.943745380026886 -28.704578677575814 L 3.1919257358411754 -8.372168780959614 A 8.96 8.96 0 0 0 5.486417660180143e-16 -8.96 Z" fill="#7F142A" stroke="#111" stroke-width="1" fill-opacity="0.9"/><path d="M 3.1919257358411754 -8.372168780959614 L 10.20271576844817 -26.760916608573762 A 28.63986848403428 28.63986848403428 0 0 1 22.62194108968615 -17.563879073756727 L 7.0772878121483656 -5.494870082542098 A 8.96 8.96 0 0 0 3.1919257358411754 -8.372168780959614 Z" fill="#A0AAE5" stroke="#111" stroke-width="1" fill-opacity="0.9"/><path d="M 7.0772878121483656 -5.494870082542098 L 17.895427753575152 -13.894171494427875 A 22.656 22.656 0 0 1 21.347863451523995 7.587032493345858 L 8.442657862184632 3.0005213250520346 A 8.96 8.96 0 0 0 7.0772878121483656 -5.494870082542098 Z" fill="#004F61" stroke="#111" stroke-width="1" fill-opacity="0.9"/><path d="M 8.442657862184632 3.0005213250520346 L 21.347863451523995 7.587032493345858 A 22.656 22.656 0 1 1 -4.103368847186501 -22.28130831221406 L -1.6228012390003113 -8.81181684663833 A 8.96 8.96 0 1 0 8.442657862184632 3.0005213250520346 Z" fill="#4A0D19" stroke="#111" stroke-width="1" fill-opacity="0.9"/><path d="M -1.6228012390003113 -8.81181684663833 L -4.685720508761737 -25.44348003035847 A 25.871348104447137 25.871348104447137 0 0 1 -4.7524895468607195e-15 -25.871348104447137 L -1.6459252980540428e-15 -8.96 A 8.96 8.96 0 0 0 -1.6228012390003113 -8.81181684663833 Z" fill="#51BF7E" stroke="#111" stroke-width="1" fill-opacity="0.9"/>
    <circle r="5.76" fill="#fff" stroke="#111" stroke-width="1.5"/>
  </g>
</svg>