<?xml version="1.0" encoding="UTF-8"?>
<svg xmlns="http://www.w3.org/2000/svg" width="64" height="64" viewBox="-32 -32 64 64">
  <g>
    <path d="M 5.486417660180143e-16 -8.96 L 1.876645713909416e-15 -30.647950335002875 A 30.647950335002875 30.647950335002875 0 0 1 20.84590028642608 22.466537360821405 L 6.094347730427441 6.568144771595243 A 8.96 8.96 0 0 0 5.486417660180143e-16 -8.96 Z" fill="#7F142A" stroke="#111" stroke-width="1" fill-opacity="0.9"/><path d="M 6.094347730427441 6.568144771595243 L 20.894906504322652 22.519353502612258 A 30.72 30.72 0 1 1 -4.578578416932102 -30.376882981635944 L -1.33541870493853 -8.859924202977151 A 8.96 8.96 0 1 0 6.094347730427441 6.568144771595243 Z" fill="#A0AAE5" stroke="#111" stroke-width="1" fill-opacity="0.9"/><path d="M -1.33541870493853 -8.859924202977151 L -3.3767015824874256 -22.402951198956508 A 22.656 22.656 0 0 1 -2.42844099589484e-14 -22.656 L -9.604003938567165e-15 -8.96 A 8.96 8.96 0 0 0 -1.33541870493853 -8.859924202977151 Z" fill="#7B86C9" stroke="#111" stroke-width="1" fill-opacity="0.9"/>
    <circle r="5.76" fill="#fff" stroke="#111" stroke-width="1.5"/>
  </g>
</svg>