<?xml version="1.0" encoding="UTF-8"?>
<svg xmlns="http://www.w3.org/2000/svg" width="64" height="64" viewBox="-32 -32 64 64">
  <g>
    <path d="M 5.486417660180143e-16 -8.96 L 1.6699484277115482e-15 -27.27232748044957 A 27.27232748044957 27.27232748044957 0 0 1 4.259486826865838 -26.937643144355466 L 1.3994039194519374 -8.85004342758964 A 8.96 8.96 0 0 0 5.486417660180143e-16 -8.96 Z" fill="#51BF7E" stroke="#111" stroke-width="1" fill-opacity="0.9"/><path d="M 1.3994039194519374 -8.85004342758964 L 3.5384927677570412 -22.377966952619513 A 22.656 22.656 0 0 1 7.519943039639413 -21.371588445423956 L 2.9739887727387515 -8.45204062813377 A 8.96 8.96 0 0 0 1.3994039194519374 -8.85004342758964 Z" fill="#e0e0e0" stroke="#111" stroke-width="1" fill-opacity="0.9"/><path d="M 2.9739887727387515 -8.45204062813377 L 7.519943039639413 -21.371588445423956 A 22.656 22.656 0 0 1 19.28921329978855 -11.88362681487687 L 7.628502434944624 -4.699739418312887 A 8.96 8.96 0 0 0 2.9739887727387515 -8.45204062813377 Z" fill="#4A0D19" stroke="#111" stroke-width="1" fill-opacity="0.9"/><path d="M 7.628502434944624 -4.699739418312887 L 19.28921329978855 -11.88362681487687 A 22.656 22.656 0 0 1 22.30574810352456 -3.9683671128198834 L 8.821482300828924 -1.569410722584135 A 8.96 8.96 0 0 0 7.628502434944624 -4.699739418312887 Z" fill="#004F61" stroke="#111" stroke-width="1" fill-opacity="0.9"/><path d="M 8.821482300828924 -1.569410722584135 L 30.245082174270593 -5.380836763145605 A 30.72 30.72 0 0 1 -0.4460657949851048 30.716761308877345 L -0.13010252353732224 8.959055381755894 A 8.96 8.96 0 0 0 8.821482300828924 -1.569410722584135 Z" fill="#7F142A" stroke="#111" stroke-width="1" fill-opacity="0.9"/><path d="M -0.13010252353732224 8.959055381755894 L -0.4451293449188973 30.652275949352436 A 30.655507841315526 30.655507841315526 0 0 1 -26.64437042201255 -15.160398603715548 L -7.787623686321148 -4.4310853433724136 A 8.96 8.96 0 0 0 -0.13010252353732224 8.959055381755894 Z" fill="#A0AAE5" stroke="#111" stroke-width="1" fill-opacity="0.9"/><path d="M -7.787623686321148 -4.4310853433724136 L -19.69156274969776 -11.2043157968131 A 22.656 22.656 0 0 1 -4.1618396822223646e-15 -22.656 L -1.6459252980540428e-15 -8.96 A 8.96 8.96 0 0 0 -7.787623686321148 -4.4310853433724136 Z" fill="#7B86C9" stroke="#111" stroke-width="1" fill-opacity="0.9"/>
    <circle r="5.76" fill="#fff" stroke="#111" stroke-width="1.5"/>
  </g>
</svg>