<?xml version="1.0" encoding="UTF-8"?>
<svg xmlns="http://www.w3.org/2000/svg" width="64" height="64" viewBox="-32 -32 64 64">
  <g>
    <path d="M 5.486417660180143e-16 -8.96 L 1.4421106226242939e-15 -23.551453751862944 A 23.551453751862944 23.551453751862944 0 0 1 2.4215839588009755 -23.426628117520817 L 0.9212761343507493 -8.91251088550672 A 8.96 8.96 0 0 0 5.486417660180143e-16 -8.96 Z" fill="#51BF7E" stroke="#111" stroke-width="1" fill-opacity="0.9"/><path d="M 0.9212761343507493 -8.91251088550672 L 3.0678340290165 -29.67851131605215 A 29.836649268418647 29.836649268418647 0 0 1 27.02312076514506 -12.648184995445506 L 8.115092277201025 -3.798272940760354 A 8.96 8.96 0 0 0 0.9212761343507493 -8.91251088550672 Z" fill="#A0AAE5" stroke="#111" stroke-width="1" fill-opacity="0.9"/><path d="M 8.115092277201025 -3.798272940760354 L 27.823173521832082 -13.022650082606924 A 30.72 30.72 0 1 1 -12.301943981606929 -28.149255305840775 L -3.5880669946353545 -8.21019946420356 A 8.96 8.96 0 1 0 8.115092277201025 -3.798272940760354 Z" fill="#7F142A" stroke="#111" stroke-width="1" fill-opacity="0.9"/><path d="M -3.5880669946353545 -8.21019946420356 L -9.07268368643511 -20.76007578805757 A 22.656 22.656 0 0 1 -2.42844099589484e-14 -22.656 L -9.604003938567165e-15 -8.96 A 8.96 8.96 0 0 0 -3.5880669946353545 -8.21019946420356 Z" fill="#4A0D19" stroke="#111" stroke-width="1" fill-opacity="0.9"/>
    <circle r="5.76" fill="#fff" stroke="#111" stroke-width="1.5"/>
  </g>
</svg>