<?xml version="1.0" encoding="UTF-8"?>
<svg xmlns="http://www.w3.org/2000/svg" width="64" height="64" viewBox="-32 -32 64 64">
  <g>
    <path d="M 5.486417660180143e-16 -8.96 L 1.5345450601999894e-15 -25.061022676389623 A 25.061022676389623 25.061022676389623 0 0 1 4.965744987959248 -24.56412494474559 L 1.7753894430666022 -8.782345491122953 A 8.96 8.96 0 0 0 5.486417660180143e-16 -8.96 Z" fill="#51BF7E" stroke="#111" stroke-width="1" fill-opacity="0.9"/><path d="M 1.7753894430666022 -8.782345491122953 L 6.087049519085492 -30.110898826707267 A 30.72 30.72 0 1 1 -29.12032807425428 9.783909895731759 L -8.4934290216575 2.8536403862550968 A 8.96 8.96 0 1 0 1.7753894430666022 -8.782345491122953 Z" fill="#A0AAE5" stroke="#111" stroke-width="1" fill-opacity="0.9"/><path d="M -8.4934290216575 2.8536403862550968 L -27.498354291154726 9.238955686884248 A 29.008926055717374 29.008926055717374 0 0 1 -5.3288532661254805e-15 -29.008926055717374 L -1.6459252980540428e-15 -8.96 A 8.96 8.96 0 0 0 -8.4934290216575 2.8536403862550968 Z" fill="#7F142A" stroke="#111" stroke-width="1" fill-opacity="0.9"/>
    <circle r="5.76" fill="#fff" stroke="#111" stroke-width="1.5"/>
  </g>
</svg>