<?xml version="1.0" encoding="UTF-8"?>
<svg xmlns="http://www.w3.org/2000/svg" width="64" height="64" viewBox="-32 -32 64 64">
  <g>
    <path d="M 5.486417660180143e-16 -8.96 L 1.3872798940741216e-15 -22.656 A 22.656 22.656 0 0 1 3.1300703777898455 -22.43873872190865 L 1.2378809403688655 -8.874077460641839 A 8.96 8.96 0 0 0 5.486417660180143e-16 -8.96 Z" fill="#4A0D19" stroke="#111" stroke-width="1" fill-opacity="0.9"/><path d="M 1.2378809403688655 -8.874077460641839 L 3.1300703777898455 -22.43873872190865 A 22.656 22.656 0 0 1 18.079878301261104 -13.65329032180843 L 7.150234356430946 -5.399606341958137 A 8.96 8.96 0 0 0 1.2378809403688655 -8.874077460641839 Z" fill="#004F61" stroke="#111" stroke-width="1" fill-opacity="0.9"/><path d="M 7.150234356430946 -5.399606341958137 L 18.079878301261104 -13.65329032180843 A 22.656 22.656 0 0 1 21.126090829385085 -8.184291189136134 L 8.354951175463029 -3.2367253290368896 A 8.96 8.96 0 0 0 7.150234356430946 -5.399606341958137 Z" fill="#7B86C9" stroke="#111" stroke-width="1" fill-opacity="0.9"/><path d="M 8.354951175463029 -3.2367253290368896 L 28.64554688730181 -11.097343985269333 A 30.72 30.72 0 0 1 -23.633939588594032 19.62537386962826 L -6.8932323800065936 5.7240673786415766 A 8.96 8.96 0 0 0 8.354951175463029 -3.2367253290368896 Z" fill="#A0AAE5" stroke="#111" stroke-width="1" fill-opacity="0.9"/><path d="M -6.8932323800065936 5.7240673786415766 L -23.053029684494824 19.142992419435384 A 29.96491842813459 29.96491842813459 0 0 1 -24.720982029755177 -16.934266558941417 L -7.391977372400793 -5.06362227322642 A 8.96 8.96 0 0 0 -6.8932323800065936 5.7240673786415766 Z" fill="#7F142A" stroke="#111" stroke-width="1" fill-opacity="0.9"/><path d="M -7.391977372400793 -5.06362227322642 L -18.691142784499142 -12.803730605158231 A 22.656 22.656 0 0 1 -4.1618396822223646e-15 -22.656 L -1.6459252980540428e-15 -8.96 A 8.96 8.96 0 0 0 -7.391977372400793 -5.06362227322642 Z" fill="#e0e0e0" stroke="#111" stroke-width="1" fill-opacity="0.9"/>
    <circle r="5.76" fill="#fff" stroke="#111" stroke-width="1.5"/>
  </g>
</svg>