<?xml version="1.0" encoding="UTF-8"?>
<svg xmlns="http://www.w3.org/2000/svg" width="64" height="64" viewBox="-32 -32 64 64">
  <g>
    <path d="M 5.486417660180143e-16 -8.96 L 1.3872798940741216e-15 -22.656 A 22.656 22.656 0 1 1 -20.608622486751962 -9.411642534570749 L -8.150302678376484 -3.7221185164969066 A 8.96 8.96 0 1 0 5.486417660180143e-16 -8.96 Z" fill="#e0e0e0" stroke="#111" stroke-width="1" fill-opacity="0.9"/><path d="M -8.150302678376484 -3.7221185164969066 L -27.943894897290797 -12.761549199417965 A 30.72 30.72 0 0 1 -16.608485912235952 -25.84330852857389 L -4.844141724402154 -7.537631654167385 A 8.96 8.96 0 0 0 -8.150302678376484 -3.7221185164969066 Z" fill="#A0AAE5" stroke="#111" stroke-width="1" fill-opacity="0.9"/><path d="M -4.844141724402154 -7.537631654167385 L -12.248758360274016 -19.059440039823244 A 22.656 22.656 0 0 1 -4.1618396822223646e-15 -22.656 L -1.6459252980540428e-15 -8.96 A 8.96 8.96 0 0 0 -4.844141724402154 -7.537631654167385 Z" fill="#004F61" stroke="#111" stroke-width="1" fill-opacity="0.9"/>
    <circle r="5.76" fill="#fff" stroke="#111" stroke-width="1.5"/>
  </g>
</svg>