<?xml version="1.0" encoding="UTF-8"?>
<svg xmlns="http://www.w3.org/2000/svg" width="64" height="64" viewBox="-32 -32 64 64">
  <g>
    <path d="M 5.486417660180143e-16 -8.96 L 1.3872798940741216e-15 -22.656 A 22.656 22.656 0 0 1 17.26754352097173 -14.667183668017085 L 6.828972013943623 -5.800581111645176 A 8.96 8.96 0 0 0 5.486417660180143e-16 -8.96 Z" fill="#4A0D19" stroke="#111" stroke-width="1" fill-opacity="0.9"/><path d="M 6.828972013943623 -5.800581111645176 L 23.376682274298744 -19.85633289700978 A 30.671537787831667 30.671537787831667 0 0 1 -3.3161765591731838 30.49173991917772 L -0.9687464050785141 8.907476096103064 A 8.96 8.96 0 0 0 6.828972013943623 -5.800581111645176 Z" fill="#A0AAE5" stroke="#111" stroke-width="1" fill-opacity="0.9"/><path d="M -0.9687464050785141 8.907476096103064 L -3.3214162459834764 30.539918043781928 A 30.72 30.72 0 0 1 -5.643172450471003e-15 -30.72 L -1.6459252980540428e-15 -8.96 A 8.96 8.96 0 0 0 -0.9687464050785141 8.907476096103064 Z" fill="#7F142A" stroke="#111" stroke-width="1" fill-opacity="0.9"/>
    <circle r="5.76" fill="#fff" stroke="#111" stroke-width="1.5"/>
  </g>
</svg>