<?xml version="1.0" encoding="UTF-8"?>
<svg xmlns="http://www.w3.org/2000/svg" width="64" height="64" viewBox="-32 -32 64 64">
  <g>
    <path d="M 5.486417660180143e-16 -8.96 L 1.8810574834903343e-15 -30.72 A 30.72 30.72 0 1 1 -7.541314164965355 29.779976169656226 L -2.199549964781562 8.685826382816401 A 8.96 8.96 0 1 0 5.486417660180143e-16 -8.96 Z" fill="#A0AAE5" stroke="#111" stroke-width="1" fill-opacity="0.9"/><path d="M -2.199549964781562 8.685826382816401 L -5.561719196661949 21.96273242512147 A 22.656 22.656 0 0 1 -21.8430980528915 -6.014432928528476 L -8.638513354250875 -2.378589293768324 A 8.96 8.96 0 0 0 -2.199549964781562 8.685826382816401 Z" fill="#7B86C9" stroke="#111" stroke-width="1" fill-opacity="0.9"/><path d="M -8.638513354250875 -2.378589293768324 L -28.36667738504092 -7.8106813476923245 A 29.422357638064643 29.422357638064643 0 0 1 -3.6393288344000316 -29.196410988634977 L -1.1082859761733634 -8.891192394443923 A 8.96 8.96 0 0 0 -8.638513354250875 -2.378589293768324 Z" fill="#7F142A" stroke="#111" stroke-width="1" fill-opacity="0.9"/><path d="M -1.1082859761733634 -8.891192394443923 L -3.239124070638047 -25.98577977225281 A 26.186879827826186 26.186879827826186 0 0 1 -2.8069073326476308e-14 -26.186879827826186 L -9.604003938567165e-15 -8.96 A 8.96 8.96 0 0 0 -1.1082859761733634 -8.891192394443923 Z" fill="#51BF7E" stroke="#111" stroke-width="1" fill-opacity="0.9"/>
    <circle r="5.76" fill="#fff" stroke="#111" stroke-width="1.5"/>
  </g>
</svg>