<?xml version="1.0" encoding="UTF-8"?>
<svg xmlns="http://www.w3.org/2000/svg" width="64" height="64" viewBox="-32 -32 64 64">
  <g>
    <path d="M 5.486417660180143e-16 -8.96 L 1.8810574834903343e-15 -30.72 A 30.72 30.72 0 0 1 13.328908465691386 -27.677763621962317 L 3.8875983024933216 -8.072681056405676 A 8.96 8.96 0 0 0 5.486417660180143e-16 -8.96 Z" fill="#A0AAE5" stroke="#111" stroke-width="1" fill-opacity="0.9"/><path d="M 3.8875983024933216 -8.072681056405676 L 9.830069993447397 -20.412350671197206 A 22.656 22.656 0 1 1 -20.412350671197206 -9.830069993447394 L -8.072681056405676 -3.8875983024933203 A 8.96 8.96 0 1 0 3.8875983024933216 -8.072681056405676 Z" fill="#7B86C9" stroke="#111" stroke-width="1" fill-opacity="0.9"/><path d="M -8.072681056405676 -3.8875983024933203 L -26.258337793945472 -12.64534901363861 A 29.144556187694405 29.144556187694405 0 0 1 -5.353768117174521e-15 -29.144556187694405 L -1.6459252980540428e-15 -8.96 A 8.96 8.96 0 0 0 -8.072681056405676 -3.8875983024933203 Z" fill="#7F142A" stroke="#111" stroke-width="1" fill-opacity="0.9"/>
    <circle r="5.76" fill="#fff" stroke="#111" stroke-width="1.5"/>
  </g>
</svg>