<?xml version="1.0" encoding="UTF-8"?>
<svg xmlns="http://www.w3.org/2000/svg" width="64" height="64" viewBox="-32 -32 64 64">
  <g>
    <path d="M 5.486417660180143e-16 -8.96 L 1.460896415985099e-15 -23.85824903967792 A 23.85824903967792 23.85824903967792 0 0 1 1.3958403535386603 -23.81738182392694 L 0.5242098674930772 -8.944652257903764 A 8.96 8.96 0 0 0 5.486417660180143e-16 -8.96 Z" fill="#51BF7E" stroke="#111" stroke-width="1" fill-opacity="0.9"/><path d="M 0.5242098674930772 -8.944652257903764 L 1.3255020935182094 -22.61719213784237 A 22.656 22.656 0 0 1 1.7665509698857467 -22.587023568208267 L 0.6986359767909733 -8.932721185167113 A 8.96 8.96 0 0 0 0.5242098674930772 -8.944652257903764 Z" fill="#004F61" stroke="#111" stroke-width="1" fill-opacity="0.9"/><path d="M 0.6986359767909733 -8.932721185167113 L 2.1079413774732476 -26.952022548474215 A 27.034328848786433 27.034328848786433 0 0 1 5.241795466644933 -26.521284218344086 L 1.73729067378889 -8.789961383007672 A 8.96 8.96 0 0 0 0.6986359767909733 -8.932721185167113 Z" fill="#A0AAE5" stroke="#111" stroke-width="1" fill-opacity="0.9"/><path d="M 1.73729067378889 -8.789961383007672 L 4.392863560866193 -22.2260452113194 A 22.656 22.656 0 0 1 8.208534813880734 21.116682793689638 L 3.246313203229669 8.351230483380084 A 8.96 8.96 0 0 0 1.73729067378889 -8.789961383007672 Z" fill="#7B86C9" stroke="#111" stroke-width="1" fill-opacity="0.9"/><path d="M 3.246313203229669 8.351230483380084 L 11.130216696787436 28.63279022873171 A 30.72 30.72 0 1 1 -5.643172450471003e-15 -30.72 L -1.6459252980540428e-15 -8.96 A 8.96 8.96 0 1 0 3.246313203229669 8.351230483380084 Z" fill="#7F142A" stroke="#111" stroke-width="1" fill-opacity="0.9"/>
    <circle r="5.76" fill="#fff" stroke="#111" stroke-width="1.5"/>
  </g>
</svg>