<?xml version="1.0" encoding="UTF-8"?>
<svg xmlns="http://www.w3.org/2000/svg" width="64" height="64" viewBox="-32 -32 64 64">
  <g>
    <path d="M 5.486417660180143e-16 -8.96 L 1.3872798940741216e-15 -22.656 A 22.656 22.656 0 0 1 12.762579235489419 -18.71926567090318 L 5.047347720250054 -7.403099417871315 A 8.96 8.96 0 0 0 5.486417660180143e-16 -8.96 Z" fill="#e0e0e0" stroke="#111" stroke-width="1" fill-opacity="0.9"/><path d="M 5.047347720250054 -7.403099417871315 L 17.305192183714464 -25.382055146987362 A 30.72 30.72 0 1 1 -19.15360671310029 24.017863141417877 L -5.586468624654253 7.005210082913549 A 8.96 8.96 0 1 0 5.047347720250054 -7.403099417871315 Z" fill="#7F142A" stroke="#111" stroke-width="1" fill-opacity="0.9"/><path d="M -5.586468624654253 7.005210082913549 L -16.278471453015506 20.412557559856015 A 26.108641078789905 26.108641078789905 0 0 1 -21.57197160399561 14.707521208466192 L -7.403099417871316 5.047347720250052 A 8.96 8.96 0 0 0 -5.586468624654253 7.005210082913549 Z" fill="#A0AAE5" stroke="#111" stroke-width="1" fill-opacity="0.9"/><path d="M -7.403099417871316 5.047347720250052 L -18.719265670903184 12.762579235489415 A 22.656 22.656 0 0 1 -21.089875649283087 -8.277166248045054 L -8.34062878785207 -3.2734555783229036 A 8.96 8.96 0 0 0 -7.403099417871316 5.047347720250052 Z" fill="#4A0D19" stroke="#111" stroke-width="1" fill-opacity="0.9"/><path d="M -8.34062878785207 -3.2734555783229036 L -21.089875649283087 -8.277166248045054 A 22.656 22.656 0 0 1 -4.1618396822223646e-15 -22.656 L -1.6459252980540428e-15 -8.96 A 8.96 8.96 0 0 0 -8.34062878785207 -3.2734555783229036 Z" fill="#004F61" stroke="#111" stroke-width="1" fill-opacity="0.9"/>
    <circle r="5.76" fill="#fff" stroke="#111" stroke-width="1.5"/>
  </g>
</svg>