<?xml version="1.0" encoding="UTF-8"?>
<svg xmlns="http://www.w3.org/2000/svg" width="64" height="64" viewBox="-32 -32 64 64">
  <g>
    <path d="M 5.486417660180143e-16 -8.96 L 1.8810574834903343e-15 -30.72 A 30.72 30.72 0 0 1 28.53816483277183 11.370644132042173 L 8.323631409558452 3.3164378718456344 A 8.96 8.96 0 0 0 5.486417660180143e-16 -8.96 Z" fill="#A0AAE5" stroke="#111" stroke-width="1" fill-opacity="0.9"/><path d="M 8.323631409558452 3.3164378718456344 L 21.046896564169224 8.385850047381103 A 22.656 22.656 0 0 1 -18.75212194224251 12.714254152850136 L -7.416093423485739 5.028236105646948 A 8.96 8.96 0 0 0 8.323631409558452 3.3164378718456344 Z" fill="#7B86C9" stroke="#111" stroke-width="1" fill-opacity="0.9"/><path d="M -7.416093423485739 5.028236105646948 L -25.25702732239412 17.124689435759745 A 30.515117850589803 30.515117850589803 0 0 1 -23.25746493346756 -19.75506877497295 L -6.828972013943626 -5.800581111645172 A 8.96 8.96 0 0 0 -7.416093423485739 5.028236105646948 Z" fill="#7F142A" stroke="#111" stroke-width="1" fill-opacity="0.9"/><path d="M -6.828972013943626 -5.800581111645172 L -22.75236107469837 -19.326029690230285 A 29.85239283643963 29.85239283643963 0 0 1 -5.483795600105275e-15 -29.85239283643963 L -1.6459252980540428e-15 -8.96 A 8.96 8.96 0 0 0 -6.828972013943626 -5.800581111645172 Z" fill="#51BF7E" stroke="#111" stroke-width="1" fill-opacity="0.9"/>
    <circle r="5.76" fill="#fff" stroke="#111" stroke-width="1.5"/>
  </g>
</svg>