<?xml version="1.0" encoding="UTF-8"?>
<svg xmlns="http://www.w3.org/2000/svg" width="64" height="64" viewBox="-32 -32 64 64">
  <g>
    <path d="M 5.486417660180143e-16 -8.96 L 1.7688056894504651e-15 -28.886789083709303 A 28.886789083709303 28.886789083709303 0 0 1 28.85407014958547 -1.3744887665992551 L 8.949851359079751 -0.4263339657807314 A 8.96 8.96 0 0 0 5.486417660180143e-16 -8.96 Z" fill="#51BF7E" stroke="#111" stroke-width="1" fill-opacity="0.9"/><path d="M 8.949851359079751 -0.4263339657807314 L 29.75045356701422 -1.417188771535625 A 29.784188950804683 29.784188950804683 0 0 1 -20.553443668967734 21.55583134105029 L -6.183107942879722 6.4846569814214305 A 8.96 8.96 0 0 0 8.949851359079751 -0.4263339657807314 Z" fill="#7F142A" stroke="#111" stroke-width="1" fill-opacity="0.9"/><path d="M -6.183107942879722 6.4846569814214305 L -21.199227232730475 22.23310965058776 A 30.72 30.72 0 0 1 -2.9201216503045133 -30.580897461445158 L -0.8517021480054832 -8.91942842625484 A 8.96 8.96 0 0 0 -6.183107942879722 6.4846569814214305 Z" fill="#A0AAE5" stroke="#111" stroke-width="1" fill-opacity="0.9"/><path d="M -0.8517021480054832 -8.91942842625484 L -2.1535897170995786 -22.553411877815805 A 22.656 22.656 0 0 1 -2.42844099589484e-14 -22.656 L -9.604003938567165e-15 -8.96 A 8.96 8.96 0 0 0 -0.8517021480054832 -8.91942842625484 Z" fill="#4A0D19" stroke="#111" stroke-width="1" fill-opacity="0.9"/>
    <circle r="5.76" fill="#fff" stroke="#111" stroke-width="1.5"/>
  </g>
</svg>