<?xml version="1.0" encoding="UTF-8"?>
<svg xmlns="http://www.w3.org/2000/svg" width="64" height="64" viewBox="-32 -32 64 64">
  <g>
    <path d="M 5.486417660180143e-16 -8.96 L 1.733379186779781e-15 -28.308230389147745 A 28.308230389147745 28.308230389147745 0 0 1 26.23294290640922 -10.639013781086192 L 8.303138882589229 -3.3674151357435727 A 8.96 8.96 0 0 0 5.486417660180143e-16 -8.96 Z" fill="#51BF7E" stroke="#111" stroke-width="1" fill-opacity="0.9"/><path d="M 8.303138882589229 -3.3674151357435727 L 20.99507974597562 -8.514749700380175 A 22.656 22.656 0 0 1 20.453787635703883 9.74355722277685 L 8.089068556493062 3.853384212397625 A 8.96 8.96 0 0 0 8.303138882589229 -3.3674151357435727 Z" fill="#e0e0e0" stroke="#111" stroke-width="1" fill-opacity="0.9"/><path d="M 8.089068556493062 3.853384212397625 L 27.73394933654764 13.211603013934713 A 30.72 30.72 0 0 1 -27.733949336547642 13.211603013934704 L -8.089068556493062 3.8533842123976227 A 8.96 8.96 0 0 0 8.089068556493062 3.853384212397625 Z" fill="#A0AAE5" stroke="#111" stroke-width="1" fill-opacity="0.9"/><path d="M -8.089068556493062 3.8533842123976227 L -20.453787635703886 9.743557222776845 A 22.656 22.656 0 0 1 -21.46262587292056 7.256033809116439 L -8.488044130533556 2.8696178906110212 A 8.96 8.96 0 0 0 -8.089068556493062 3.8533842123976227 Z" fill="#7B86C9" stroke="#111" stroke-width="1" fill-opacity="0.9"/><path d="M -8.488044130533556 2.8696178906110212 L -28.690034350973686 9.699458978970181 A 30.285269943402774 30.285269943402774 0 0 1 -19.770894074423932 -22.941432454027023 L -5.8492861789870725 -6.787300729768119 A 8.96 8.96 0 0 0 -8.488044130533556 2.8696178906110212 Z" fill="#7F142A" stroke="#111" stroke-width="1" fill-opacity="0.9"/><path d="M -5.8492861789870725 -6.787300729768119 L -14.790337909724451 -17.16217470241367 A 22.656 22.656 0 0 1 1.5960730594503672e-14 -22.656 L 6.31215334245908e-15 -8.96 A 8.96 8.96 0 0 0 -5.8492861789870725 -6.787300729768119 Z" fill="#4A0D19" stroke="#111" stroke-width="1" fill-opacity="0.9"/>
    <circle r="5.76" fill="#fff" stroke="#111" stroke-width="1.5"/>
  </g>
</svg>