<?xml version="1.0" encoding="UTF-8"?>
<svg xmlns="http://www.w3.org/2000/svg" width="64" height="64" viewBox="-32 -32 64 64">
  <g>
    <path d="M 5.486417660180143e-16 -8.96 L 1.5177486975567145e-15 -24.786717257799232 A 24.786717257799232 24.786717257799232 0 0 1 8.953995041517256 -23.11292550099547 L 3.2367253290368914 -8.354951175463029 A 8.96 8.96 0 0 0 5.486417660180143e-16 -8.96 Z" fill="#51BF7E" stroke="#111" stroke-width="1" fill-opacity="0.9"/><path d="M 3.2367253290368914 -8.354951175463029 L 11.09734398526934 -28.64554688730181 A 30.72 30.72 0 1 1 -11.097343985269365 -28.645546887301798 L -3.2367253290368985 -8.354951175463025 A 8.96 8.96 0 1 0 3.2367253290368914 -8.354951175463029 Z" fill="#7F142A" stroke="#111" stroke-width="1" fill-opacity="0.9"/><path d="M -3.2367253290368985 -8.354951175463025 L -10.124430553925134 -26.134167826523736 A 28.02675189932221 28.02675189932221 0 0 1 -3.0041187011867773e-14 -28.02675189932221 L -9.604003938567165e-15 -8.96 A 8.96 8.96 0 0 0 -3.2367253290368985 -8.354951175463025 Z" fill="#A0AAE5" stroke="#111" stroke-width="1" fill-opacity="0.9"/>
    <circle r="5.76" fill="#fff" stroke="#111" stroke-width="1.5"/>
  </g>
</svg>