<?xml version="1.0" encoding="UTF-8"?>
<svg xmlns="http://www.w3.org/2000/svg" width="64" height="64" viewBox="-32 -32 64 64">
  <g>
    <path d="M 5.486417660180143e-16 -8.96 L 1.3872798940741216e-15 -22.656 A 22.656 22.656 0 0 1 9.658491704321785 -20.49409363688834 L 3.8197424819351697 -8.105008782950193 A 8.96 8.96 0 0 0 5.486417660180143e-16 -8.96 Z" fill="#4A0D19" stroke="#111" stroke-width="1" fill-opacity="0.9"/><path d="M 3.8197424819351697 -8.105008782950193 L 12.87999371519135 -27.329712062966493 A 30.21270261906447 30.21270261906447 0 0 1 12.879993715191363 27.32971206296649 L 3.819742481935173 8.105008782950192 A 8.96 8.96 0 0 0 3.8197424819351697 -8.105008782950193 Z" fill="#A0AAE5" stroke="#111" stroke-width="1" fill-opacity="0.9"/><path d="M 3.819742481935173 8.105008782950192 L 13.096259938063449 27.788601541543507 A 30.72 30.72 0 1 1 -5.643172450471003e-15 -30.72 L -1.6459252980540428e-15 -8.96 A 8.96 8.96 0 1 0 3.819742481935173 8.105008782950192 Z" fill="#7F142A" stroke="#111" stroke-width="1" fill-opacity="0.9"/>
    <circle r="5.76" fill="#fff" stroke="#111" stroke-width="1.5"/>
  </g>
</svg>