<?xml version="1.0" encoding="UTF-8"?>
<svg xmlns="http://www.w3.org/2000/svg" width="64" height="64" viewBox="-32 -32 64 64">
  <g>
    <path d="M 5.486417660180143e-16 -8.96 L 1.3872798940741216e-15 -22.656 A 22.656 22.656 0 0 1 19.62067154814024 -11.328 L 7.75958761790857 -4.48 A 8.96 8.96 0 0 0 5.486417660180143e-16 -8.96 Z" fill="#e0e0e0" stroke="#111" stroke-width="1" fill-opacity="0.9"/><path d="M 7.75958761790857 -4.48 L 19.62067154814024 -11.328 A 22.656 22.656 0 1 1 -19.62067154814025 -11.327999999999985 L -7.759587617908575 -4.479999999999995 A 8.96 8.96 0 1 0 7.75958761790857 -4.48 Z" fill="#004F61" stroke="#111" stroke-width="1" fill-opacity="0.9"/><path d="M -7.759587617908575 -4.479999999999995 L -26.604300404257966 -15.35999999999998 A 30.72 30.72 0 0 1 -3.292801350365885e-14 -30.72 L -9.604003938567165e-15 -8.96 A 8.96 8.96 0 0 0 -7.759587617908575 -4.479999999999995 Z" fill="#7F142A" stroke="#111" stroke-width="1" fill-opacity="0.9"/>
    <circle r="5.76" fill="#fff" stroke="#111" stroke-width="1.5"/>
  </g>
</svg>