<?xml version="1.0" encoding="UTF-8"?>
<svg xmlns="http://www.w3.org/2000/svg" width="64" height="64" viewBox="-32 -32 64 64">
  <g>
    <path d="M 5.486417660180143e-16 -8.96 L 1.3872798940741216e-15 -22.656 A 22.656 22.656 0 0 1 3.6342779791134157 -22.362610750324553 L 1.4372850764855318 -8.8439703532357 A 8.96 8.96 0 0 0 5.486417660180143e-16 -8.96 Z" fill="#e0e0e0" stroke="#111" stroke-width="1" fill-opacity="0.9"/><path d="M 1.4372850764855318 -8.8439703532357 L 3.6342779791134157 -22.362610750324553 A 22.656 22.656 0 0 1 10.52876818582362 -20.060891717199123 L 4.163919621512167 -7.933685989852761 A 8.96 8.96 0 0 0 1.4372850764855318 -8.8439703532357 Z" fill="#004F61" stroke="#111" stroke-width="1" fill-opacity="0.9"/><path d="M 4.163919621512167 -7.933685989852761 L 14.276295845184572 -27.201209108066607 A 30.72 30.72 0 1 1 -30.695086023830616 1.2369696801612586 L -8.952733423617264 0.3607828233803671 A 8.96 8.96 0 1 0 4.163919621512167 -7.933685989852761 Z" fill="#7F142A" stroke="#111" stroke-width="1" fill-opacity="0.9"/><path d="M -8.952733423617264 0.3607828233803671 L -30.329364144104375 1.2222315922392464 A 30.353981278421315 30.353981278421315 0 0 1 -3.2535687025575034e-14 -30.353981278421315 L -9.604003938567165e-15 -8.96 A 8.96 8.96 0 0 0 -8.952733423617264 0.3607828233803671 Z" fill="#A0AAE5" stroke="#111" stroke-width="1" fill-opacity="0.9"/>
    <circle r="5.76" fill="#fff" stroke="#111" stroke-width="1.5"/>
  </g>
</svg>