<?xml version="1.0" encoding="UTF-8"?>
<svg xmlns="http://www.w3.org/2000/svg" width="64" height="64" viewBox="-32 -32 64 64">
  <g>
    <path d="M 5.486417660180143e-16 -8.96 L 1.3872798940741216e-15 -22.656 A 22.656 22.656 0 0 1 0.6777648015338944 -22.64585990581505 L 0.2680425768778114 -8.95598979326019 A 8.96 8.96 0 0 0 5.486417660180143e-16 -8.96 Z" fill="#e0e0e0" stroke="#111" stroke-width="1" fill-opacity="0.9"/><path d="M 0.2680425768778114 -8.95598979326019 L 0.907430507977983 -30.319580054061458 A 30.33315619551402 30.33315619551402 0 0 1 29.761327164471513 -5.862061940199933 L 8.791089515211787 -1.7315730234481566 A 8.96 8.96 0 0 0 0.2680425768778114 -8.95598979326019 Z" fill="#7F142A" stroke="#111" stroke-width="1" fill-opacity="0.9"/><path d="M 8.791089515211787 -1.7315730234481566 L 30.140878337868983 -5.9368217946793935 A 30.72 30.72 0 0 1 -28.91939225582294 10.362777212400548 L -8.434822741281693 3.0224766869501605 A 8.96 8.96 0 0 0 8.791089515211787 -1.7315730234481566 Z" fill="#A0AAE5" stroke="#111" stroke-width="1" fill-opacity="0.9"/><path d="M -8.434822741281693 3.0224766869501605 L -21.32805178866942 7.642548194145404 A 22.656 22.656 0 0 1 -2.030868182516193 -22.564793604756133 L -0.8031682077747658 -8.923929674197343 A 8.96 8.96 0 0 0 -8.434822741281693 3.0224766869501605 Z" fill="#7B86C9" stroke="#111" stroke-width="1" fill-opacity="0.9"/><path d="M -0.8031682077747658 -8.923929674197343 L -2.030868182516193 -22.564793604756133 A 22.656 22.656 0 0 1 -4.1618396822223646e-15 -22.656 L -1.6459252980540428e-15 -8.96 A 8.96 8.96 0 0 0 -0.8031682077747658 -8.923929674197343 Z" fill="#4A0D19" stroke="#111" stroke-width="1" fill-opacity="0.9"/>
    <circle r="5.76" fill="#fff" stroke="#111" stroke-width="1.5"/>
  </g>
</svg>