<?xml version="1.0" encoding="UTF-8"?>
<svg xmlns="http://www.w3.org/2000/svg" width="64" height="64" viewBox="-32 -32 64 64">
  <g>
    <path d="M 5.486417660180143e-16 -8.96 L 1.3872798940741216e-15 -22.656 A 22.656 22.656 0 0 1 6.382932807799433 -21.738272810210052 L 2.5243237092992112 -8.597057043585897 A 8.96 8.96 0 0 0 5.486417660180143e-16 -8.96 Z" fill="#004F61" stroke="#111" stroke-width="1" fill-opacity="0.9"/><path d="M 2.5243237092992112 -8.597057043585897 L 8.654824146168723 -29.47562414943736 A 30.72 30.72 0 1 1 -5.813798226751812 -30.164849579910346 L -1.695691149469279 -8.798081127473852 A 8.96 8.96 0 1 0 2.5243237092992112 -8.597057043585897 Z" fill="#A0AAE5" stroke="#111" stroke-width="1" fill-opacity="0.9"/><path d="M -1.695691149469279 -8.798081127473852 L -5.08859770045297 -26.402151953010016 A 26.8880541190114 26.8880541190114 0 0 1 -4.939255411822217e-15 -26.8880541190114 L -1.6459252980540428e-15 -8.96 A 8.96 8.96 0 0 0 -1.695691149469279 -8.798081127473852 Z" fill="#7F142A" stroke="#111" stroke-width="1" fill-opacity="0.9"/>
    <circle r="5.76" fill="#fff" stroke="#111" stroke-width="1.5"/>
  </g>
</svg>