<?xml version="1.0" encoding="UTF-8"?>
<svg xmlns="http://www.w3.org/2000/svg" width="64" height="64" viewBox="-32 -32 64 64">
  <g>
    <path d="M 5.486417660180143e-16 -8.96 L 1.3872798940741216e-15 -22.656 A 22.656 22.656 0 0 1 1.0387003513187418 -22.632177040226825 L 0.41078544967407876 -8.950578490485187 A 8.96 8.96 0 0 0 5.486417660180143e-16 -8.96 Z" fill="#e0e0e0" stroke="#111" stroke-width="1" fill-opacity="0.9"/><path d="M 0.41078544967407876 -8.950578490485187 L 1.3592072021023562 -29.615680781542483 A 29.646854679248385 29.646854679248385 0 0 1 29.318131942087483 -4.402627828788338 L 8.860651999787914 -1.3305811281746263 A 8.96 8.96 0 0 0 0.41078544967407876 -8.950578490485187 Z" fill="#7F142A" stroke="#111" stroke-width="1" fill-opacity="0.9"/><path d="M 8.860651999787914 -1.3305811281746263 L 30.37937828498713 -4.561992439455861 A 30.72 30.72 0 1 1 -11.02002362658552 -28.675381065811433 L -3.21417355775411 -8.36365281086167 A 8.96 8.96 0 1 0 8.860651999787914 -1.3305811281746263 Z" fill="#A0AAE5" stroke="#111" stroke-width="1" fill-opacity="0.9"/><path d="M -3.21417355775411 -8.36365281086167 L -8.12726742460682 -21.14809353603593 A 22.656 22.656 0 0 1 -0.5194867547017046 -22.65004347703751 L -0.2054467391475668 -8.95764431295269 A 8.96 8.96 0 0 0 -3.21417355775411 -8.36365281086167 Z" fill="#7B86C9" stroke="#111" stroke-width="1" fill-opacity="0.9"/><path d="M -0.2054467391475668 -8.95764431295269 L -0.5194867547017046 -22.65004347703751 A 22.656 22.656 0 0 1 -4.1618396822223646e-15 -22.656 L -1.6459252980540428e-15 -8.96 A 8.96 8.96 0 0 0 -0.2054467391475668 -8.95764431295269 Z" fill="#4A0D19" stroke="#111" stroke-width="1" fill-opacity="0.9"/>
    <circle r="5.76" fill="#fff" stroke="#111" stroke-width="1.5"/>
  </g>
</svg>