<?xml version="1.0" encoding="UTF-8"?>
<svg xmlns="http://www.w3.org/2000/svg" width="64" height="64" viewBox="-32 -32 64 64">
  <g>
    <path d="M 5.486417660180143e-16 -8.96 L 1.4622618776514529e-15 -23.88054872097876 A 23.88054872097876 23.88054872097876 0 0 1 4.2046127517872485 -23.507484740451247 L 1.5775738948124844 -8.820026111435622 A 8.96 8.96 0 0 0 5.486417660180143e-16 -8.96 Z" fill="#51BF7E" stroke="#111" stroke-width="1" fill-opacity="0.9"/><path d="M 1.5775738948124844 -8.820026111435622 L 3.9890082768829958 -22.30206602463007 A 22.656 22.656 0 0 1 13.15413902986465 -18.446218105156177 L 5.202201876217659 -7.295114504864025 A 8.96 8.96 0 0 0 1.5775738948124844 -8.820026111435622 Z" fill="#e0e0e0" stroke="#111" stroke-width="1" fill-opacity="0.9"/><path d="M 5.202201876217659 -7.295114504864025 L 13.15413902986465 -18.446218105156177 A 22.656 22.656 0 0 1 18.732700895560555 -12.742851060789524 L 7.408412783555023 -5.039545617261394 A 8.96 8.96 0 0 0 5.202201876217659 -7.295114504864025 Z" fill="#004F61" stroke="#111" stroke-width="1" fill-opacity="0.9"/><path d="M 7.408412783555023 -5.039545617261394 L 25.400272400760077 -17.27844211632478 A 30.72 30.72 0 1 1 -19.976872174846058 -23.337587238398516 L -5.826587717663434 -6.806796277866234 A 8.96 8.96 0 1 0 7.408412783555023 -5.039545617261394 Z" fill="#7F142A" stroke="#111" stroke-width="1" fill-opacity="0.9"/><path d="M -5.826587717663434 -6.806796277866234 L -18.005943314417628 -21.03508843786843 A 27.68914842011157 27.68914842011157 0 0 1 -5.086414047570844e-15 -27.68914842011157 L -1.6459252980540428e-15 -8.96 A 8.96 8.96 0 0 0 -5.826587717663434 -6.806796277866234 Z" fill="#A0AAE5" stroke="#111" stroke-width="1" fill-opacity="0.9"/>
    <circle r="5.76" fill="#fff" stroke="#111" stroke-width="1.5"/>
  </g>
</svg>