<?xml version="1.0" encoding="UTF-8"?>
<svg xmlns="http://www.w3.org/2000/svg" width="64" height="64" viewBox="-32 -32 64 64">
  <g>
    <path d="M 5.486417660180143e-16 -8.96 L 1.8060865987653317e-15 -29.495632537035156 A 29.495632537035156 29.495632537035156 0 0 1 29.280576166650096 -3.5553056280451067 L 8.894671511918565 -1.0800086550876937 A 8.96 8.96 0 0 0 5.486417660180143e-16 -8.96 Z" fill="#7F142A" stroke="#111" stroke-width="1" fill-opacity="0.9"/><path d="M 8.894671511918565 -1.0800086550876937 L 30.496016612292216 -3.7028868174435208 A 30.72 30.72 0 1 1 -16.834944225935462 -25.696362639674163 L -4.910192065897844 -7.494772436571632 A 8.96 8.96 0 1 0 8.894671511918565 -1.0800086550876937 Z" fill="#A0AAE5" stroke="#111" stroke-width="1" fill-opacity="0.9"/><path d="M -4.910192065897844 -7.494772436571632 L -12.415771366627403 -18.951067446759694 A 22.656 22.656 0 0 1 -6.4783852898007055 -21.71001750429727 L -2.5620732784522566 -8.58588262881813 A 8.96 8.96 0 0 0 -4.910192065897844 -7.494772436571632 Z" fill="#7B86C9" stroke="#111" stroke-width="1" fill-opacity="0.9"/><path d="M -2.5620732784522566 -8.58588262881813 L -7.431302626521645 -24.90338300124139 A 25.988511762574365 25.988511762574365 0 0 1 -4.774012161696005e-15 -25.988511762574365 L -1.6459252980540428e-15 -8.96 A 8.96 8.96 0 0 0 -2.5620732784522566 -8.58588262881813 Z" fill="#51BF7E" stroke="#111" stroke-width="1" fill-opacity="0.9"/>
    <circle r="5.76" fill="#fff" stroke="#111" stroke-width="1.5"/>
  </g>
</svg>