<?xml version="1.0" encoding="UTF-8"?>
<svg xmlns="http://www.w3.org/2000/svg" width="64" height="64" viewBox="-32 -32 64 64">
  <g>
    <path d="M 5.486417660180143e-16 -8.96 L 1.8810574834903343e-15 -30.72 A 30.72 30.72 0 0 1 30.551712625713353 -3.211114391582312 L 8.91091618249973 -0.9365750308781744 A 8.96 8.96 0 0 0 5.486417660180143e-16 -8.96 Z" fill="#7F142A" stroke="#111" stroke-width="1" fill-opacity="0.9"/><path d="M 8.91091618249973 -0.9365750308781744 L 22.531888061463597 -2.368196863791955 A 22.656 22.656 0 1 1 -9.215025385525326 -20.697285888350766 L -3.6443603219591694 -8.185367300477706 A 8.96 8.96 0 1 0 8.91091618249973 -0.9365750308781744 Z" fill="#4A0D19" stroke="#111" stroke-width="1" fill-opacity="0.9"/><path d="M -3.6443603219591694 -8.185367300477706 L -9.215025385525326 -20.697285888350766 A 22.656 22.656 0 0 1 -4.1618396822223646e-15 -22.656 L -1.6459252980540428e-15 -8.96 A 8.96 8.96 0 0 0 -3.6443603219591694 -8.185367300477706 Z" fill="#004F61" stroke="#111" stroke-width="1" fill-opacity="0.9"/>
    <circle r="5.76" fill="#fff" stroke="#111" stroke-width="1.5"/>
  </g>
</svg>