<?xml version="1.0" encoding="UTF-8"?>
<svg xmlns="http://www.w3.org/2000/svg" width="64" height="64" viewBox="-32 -32 64 64">
  <g>
    <path d="M 5.486417660180143e-16 -8.96 L 1.472139739801185e-15 -24.0418664520439 A 24.0418664520439 24.0418664520439 0 0 1 2.1550962935098594 -23.94508096590225 L 0.8031682077747647 -8.923929674197343 A 8.96 8.96 0 0 0 5.486417660180143e-16 -8.96 Z" fill="#51BF7E" stroke="#111" stroke-width="1" fill-opacity="0.9"/><path d="M 0.8031682077747647 -8.923929674197343 L 2.0308681825161905 -22.564793604756137 A 22.656 22.656 0 0 1 4.045385008557913 -22.291908759290553 L 1.599869777395785 -8.816009113843723 A 8.96 8.96 0 0 0 0.8031682077747647 -8.923929674197343 Z" fill="#004F61" stroke="#111" stroke-width="1" fill-opacity="0.9"/><path d="M 1.599869777395785 -8.816009113843723 L 4.045385008557913 -22.291908759290553 A 22.656 22.656 0 0 1 6.027330773158592 -21.83954257192525 L 2.38369013627741 -8.637107231834847 A 8.96 8.96 0 0 0 1.599869777395785 -8.816009113843723 Z" fill="#4A0D19" stroke="#111" stroke-width="1" fill-opacity="0.9"/><path d="M 2.38369013627741 -8.637107231834847 L 7.778651339798675 -28.185310128362286 A 29.239000046138948 29.239000046138948 0 0 1 29.239000046138948 0 L 8.96 0 A 8.96 8.96 0 0 0 2.38369013627741 -8.637107231834847 Z" fill="#A0AAE5" stroke="#111" stroke-width="1" fill-opacity="0.9"/><path d="M 8.96 0 L 30.72 0 A 30.72 30.72 0 1 1 -5.643172450471003e-15 -30.72 L -1.6459252980540428e-15 -8.96 A 8.96 8.96 0 1 0 8.96 0 Z" fill="#7F142A" stroke="#111" stroke-width="1" fill-opacity="0.9"/>
    <circle r="5.76" fill="#fff" stroke="#111" stroke-width="1.5"/>
  </g>
</svg>