<?xml version="1.0" encoding="UTF-8"?>
<svg xmlns="http://www.w3.org/2000/svg" width="64" height="64" viewBox="-32 -32 64 64">
  <g>
    <path d="M 5.486417660180143e-16 -8.96 L 1.5490318014559058e-15 -25.297609115287806 A 25.297609115287806 25.297609115287806 0 0 1 11.756385153179904 -22.399920425751155 L 4.163919621512167 -7.933685989852761 A 8.96 8.96 0 0 0 5.486417660180143e-16 -8.96 Z" fill="#7F142A" stroke="#111" stroke-width="1" fill-opacity="0.9"/><path d="M 4.163919621512167 -7.933685989852761 L 14.276295845184572 -27.201209108066607 A 30.72 30.72 0 1 1 -14.276295845184563 -27.20120910806661 L -4.163919621512164 -7.933685989852763 A 8.96 8.96 0 1 0 4.163919621512167 -7.933685989852761 Z" fill="#A0AAE5" stroke="#111" stroke-width="1" fill-opacity="0.9"/><path d="M -4.163919621512164 -7.933685989852763 L -10.528768185823616 -20.060891717199127 A 22.656 22.656 0 0 1 -4.1618396822223646e-15 -22.656 L -1.6459252980540428e-15 -8.96 A 8.96 8.96 0 0 0 -4.163919621512164 -7.933685989852763 Z" fill="#e0e0e0" stroke="#111" stroke-width="1" fill-opacity="0.9"/>
    <circle r="5.76" fill="#fff" stroke="#111" stroke-width="1.5"/>
  </g>
</svg>