<?xml version="1.0" encoding="UTF-8"?>
<svg xmlns="http://www.w3.org/2000/svg" width="64" height="64" viewBox="-32 -32 64 64">
  <g>
    <path d="M 5.486417660180143e-16 -8.96 L 1.3872798940741216e-15 -22.656 A 22.656 22.656 0 0 1 3.4584221832628197 -22.390481281167574 L 1.3677375866011154 -8.854992597071924 A 8.96 8.96 0 0 0 5.486417660180143e-16 -8.96 Z" fill="#4A0D19" stroke="#111" stroke-width="1" fill-opacity="0.9"/><path d="M 1.3677375866011154 -8.854992597071924 L 4.604339446543312 -29.80936702548759 A 30.162862997388387 30.162862997388387 0 0 1 20.915909519332804 -21.73299411444049 L 6.213155207098487 -6.455873478663052 A 8.96 8.96 0 0 0 1.3677375866011154 -8.854992597071924 Z" fill="#7F142A" stroke="#111" stroke-width="1" fill-opacity="0.9"/><path d="M 6.213155207098487 -6.455873478663052 L 21.302246424337667 -22.134423355416175 A 30.72 30.72 0 1 1 -30.158079590303384 -5.848814873538621 L -8.79610654717182 -1.7059043381154315 A 8.96 8.96 0 1 0 6.213155207098487 -6.455873478663052 Z" fill="#A0AAE5" stroke="#111" stroke-width="1" fill-opacity="0.9"/><path d="M -8.79610654717182 -1.7059043381154315 L -22.241583697848743 -4.313500969234733 A 22.656 22.656 0 0 1 -4.1618396822223646e-15 -22.656 L -1.6459252980540428e-15 -8.96 A 8.96 8.96 0 0 0 -8.79610654717182 -1.7059043381154315 Z" fill="#7B86C9" stroke="#111" stroke-width="1" fill-opacity="0.9"/>
    <circle r="5.76" fill="#fff" stroke="#111" stroke-width="1.5"/>
  </g>
</svg>