<?xml version="1.0" encoding="UTF-8"?>
<svg xmlns="http://www.w3.org/2000/svg" width="64" height="64" viewBox="-32 -32 64 64">
  <g>
    <path d="M 5.486417660180143e-16 -8.96 L 1.5886581104913755e-15 -25.94475585282975 A 25.94475585282975 25.94475585282975 0 0 1 15.701097261630089 -20.65444022586368 L 5.422360968136136 -7.1329938687225685 A 8.96 8.96 0 0 0 5.486417660180143e-16 -8.96 Z" fill="#51BF7E" stroke="#111" stroke-width="1" fill-opacity="0.9"/><path d="M 5.422360968136136 -7.1329938687225685 L 18.55231676123493 -24.40515533475736 A 30.656158665475918 30.656158665475918 0 0 1 3.3145137835598892 30.476450949896147 L 0.9687464050785232 8.907476096103062 A 8.96 8.96 0 0 0 5.422360968136136 -7.1329938687225685 Z" fill="#A0AAE5" stroke="#111" stroke-width="1" fill-opacity="0.9"/><path d="M 0.9687464050785232 8.907476096103062 L 2.4495444814128366 22.52318955728917 A 22.656 22.656 0 0 1 -2.449544481412814 22.52318955728917 L -0.9687464050785141 8.907476096103064 A 8.96 8.96 0 0 0 0.9687464050785232 8.907476096103062 Z" fill="#7B86C9" stroke="#111" stroke-width="1" fill-opacity="0.9"/><path d="M -0.9687464050785141 8.907476096103064 L -3.3214162459834764 30.539918043781928 A 30.72 30.72 0 0 1 -5.643172450471003e-15 -30.72 L -1.6459252980540428e-15 -8.96 A 8.96 8.96 0 0 0 -0.9687464050785141 8.907476096103064 Z" fill="#7F142A" stroke="#111" stroke-width="1" fill-opacity="0.9"/>
    <circle r="5.76" fill="#fff" stroke="#111" stroke-width="1.5"/>
  </g>
</svg>