<?xml version="1.0" encoding="UTF-8"?>
<svg xmlns="http://www.w3.org/2000/svg" width="64" height="64" viewBox="-32 -32 64 64">
  <g>
    <path d="M 5.486417660180143e-16 -8.96 L 1.546583777451945e-15 -25.257629849336755 A 25.257629849336755 25.257629849336755 0 0 1 6.2813171172832245 -24.464114962087464 L 2.228261388997099 -8.678505123712535 A 8.96 8.96 0 0 0 5.486417660180143e-16 -8.96 Z" fill="#51BF7E" stroke="#111" stroke-width="1" fill-opacity="0.9"/><path d="M 2.228261388997099 -8.678505123712535 L 5.634318083606948 -21.944220098530266 A 22.656 22.656 0 0 1 12.537638939657203 -18.87066362952801 L 4.958388281220364 -7.462974316762492 A 8.96 8.96 0 0 0 2.228261388997099 -8.678505123712535 Z" fill="#e0e0e0" stroke="#111" stroke-width="1" fill-opacity="0.9"/><path d="M 4.958388281220364 -7.462974316762492 L 12.537638939657203 -18.87066362952801 A 22.656 22.656 0 0 1 22.61129355927092 -1.4225820104561255 L 8.942319486717315 -0.5626030549826486 A 8.96 8.96 0 0 0 4.958388281220364 -7.462974316762492 Z" fill="#004F61" stroke="#111" stroke-width="1" fill-opacity="0.9"/><path d="M 8.942319486717315 -0.5626030549826486 L 30.6593810973165 -1.9289247599405093 A 30.72 30.72 0 0 1 -6.38704714192156 30.04869429454251 L -1.8628887497271218 8.7642025025749 A 8.96 8.96 0 0 0 8.942319486717315 -0.5626030549826486 Z" fill="#7F142A" stroke="#111" stroke-width="1" fill-opacity="0.9"/><path d="M -1.8628887497271218 8.7642025025749 L -6.278119461405087 29.53622984902906 A 30.1960867939266 30.1960867939266 0 0 1 -5.5469311558436806e-15 -30.1960867939266 L -1.6459252980540428e-15 -8.96 A 8.96 8.96 0 0 0 -1.8628887497271218 8.7642025025749 Z" fill="#A0AAE5" stroke="#111" stroke-width="1" fill-opacity="0.9"/>
    <circle r="5.76" fill="#fff" stroke="#111" stroke-width="1.5"/>
  </g>
</svg>