<?xml version="1.0" encoding="UTF-8"?>
<svg xmlns="http://www.w3.org/2000/svg" width="64" height="64" viewBox="-32 -32 64 64">
  <g>
    <path d="M 5.486417660180143e-16 -8.96 L 1.3872798940741216e-15 -22.656 A 22.656 22.656 0 0 1 21.655770709608912 -6.657471815399938 L 8.564429094195617 -2.632898458067772 A 8.96 8.96 0 0 0 5.486417660180143e-16 -8.96 Z" fill="#004F61" stroke="#111" stroke-width="1" fill-opacity="0.9"/><path d="M 8.564429094195617 -2.632898458067772 L 21.655770709608912 -6.657471815399938 A 22.656 22.656 0 0 1 20.70948283003701 9.187581668339186 L 8.190190949732152 3.6335068744844246 A 8.96 8.96 0 0 0 8.564429094195617 -2.632898458067772 Z" fill="#4A0D19" stroke="#111" stroke-width="1" fill-opacity="0.9"/><path d="M 8.190190949732152 3.6335068744844246 L 27.163869684665286 12.051014175690032 A 29.7170449222018 29.7170449222018 0 0 1 3.536868952336448 29.505818357099646 L 1.066402998545071 8.896312980369682 A 8.96 8.96 0 0 0 8.190190949732152 3.6335068744844246 Z" fill="#7F142A" stroke="#111" stroke-width="1" fill-opacity="0.9"/><path d="M 1.066402998545071 8.896312980369682 L 3.6562388521545284 30.501644504124624 A 30.72 30.72 0 0 1 -20.15925501758596 -23.180225131260816 L -5.879782713462571 -6.760898996617739 A 8.96 8.96 0 0 0 1.066402998545071 8.896312980369682 Z" fill="#A0AAE5" stroke="#111" stroke-width="1" fill-opacity="0.9"/><path d="M -5.879782713462571 -6.760898996617739 L -14.867450575469643 -17.09541603430485 A 22.656 22.656 0 0 1 -7.086719928695604 -21.519124904424633 L -2.802657598919166 -8.51038838028093 A 8.96 8.96 0 0 0 -5.879782713462571 -6.760898996617739 Z" fill="#7B86C9" stroke="#111" stroke-width="1" fill-opacity="0.9"/><path d="M -2.802657598919166 -8.51038838028093 L -7.391339183718459 -22.444114160820455 A 23.62985728676145 23.62985728676145 0 0 1 -5.584785353052329 -22.960407835076566 L -2.1176461692548365 -8.706157286762071 A 8.96 8.96 0 0 0 -2.802657598919166 -8.51038838028093 Z" fill="#51BF7E" stroke="#111" stroke-width="1" fill-opacity="0.9"/><path d="M -2.1176461692548365 -8.706157286762071 L -5.354619599401515 -22.014140567955522 A 22.656 22.656 0 0 1 -2.42844099589484e-14 -22.656 L -9.604003938567165e-15 -8.96 A 8.96 8.96 0 0 0 -2.1176461692548365 -8.706157286762071 Z" fill="#e0e0e0" stroke="#111" stroke-width="1" fill-opacity="0.9"/>
    <circle r="5.76" fill="#fff" stroke="#111" stroke-width="1.5"/>
  </g>
</svg>