<?xml version="1.0" encoding="UTF-8"?>
<svg xmlns="http://www.w3.org/2000/svg" width="64" height="64" viewBox="-32 -32 64 64">
  <g>
    <path d="M 5.486417660180143e-16 -8.96 L 1.3872798940741216e-15 -22.656 A 22.656 22.656 0 0 1 9.99630526976642 -20.331458800431417 L 3.953341067139263 -8.040689921074572 A 8.96 8.96 0 0 0 5.486417660180143e-16 -8.96 Z" fill="#004F61" stroke="#111" stroke-width="1" fill-opacity="0.9"/><path d="M 3.953341067139263 -8.040689921074572 L 11.284160024480471 -22.950823173546468 A 25.574842165719822 25.574842165719822 0 0 1 18.340532718728294 -17.824068317719654 L 6.425500970640313 -6.24456061515143 A 8.96 8.96 0 0 0 3.953341067139263 -8.040689921074572 Z" fill="#A0AAE5" stroke="#111" stroke-width="1" fill-opacity="0.9"/><path d="M 6.425500970640313 -6.24456061515143 L 22.030289042195356 -21.409922109090612 A 30.72 30.72 0 1 1 -3.5018161118374334 -30.51975890990746 L -1.0213630326192515 -8.90159634872301 A 8.96 8.96 0 1 0 6.425500970640313 -6.24456061515143 Z" fill="#7F142A" stroke="#111" stroke-width="1" fill-opacity="0.9"/><path d="M -1.0213630326192515 -8.90159634872301 L -2.6474333959179863 -23.073464280526874 A 23.22484999931262 23.22484999931262 0 0 1 -2.4894146302012277e-14 -23.22484999931262 L -9.604003938567165e-15 -8.96 A 8.96 8.96 0 0 0 -1.0213630326192515 -8.90159634872301 Z" fill="#51BF7E" stroke="#111" stroke-width="1" fill-opacity="0.9"/>
    <circle r="5.76" fill="#fff" stroke="#111" stroke-width="1.5"/>
  </g>
</svg>