<?xml version="1.0" encoding="UTF-8"?>
<svg xmlns="http://www.w3.org/2000/svg" width="64" height="64" viewBox="-32 -32 64 64">
  <g>
    <path d="M 5.486417660180143e-16 -8.96 L 1.8810574834903343e-15 -30.72 A 30.72 30.72 0 1 1 -13.328908465691383 27.677763621962317 L -3.8875983024933207 8.072681056405676 A 8.96 8.96 0 1 0 5.486417660180143e-16 -8.96 Z" fill="#7F142A" stroke="#111" stroke-width="1" fill-opacity="0.9"/><path d="M -3.8875983024933207 8.072681056405676 L -11.015674246715955 22.87428327097654 A 25.388539033797088 25.388539033797088 0 0 1 -24.751995353566528 5.649481417586874 L -8.735354093149141 1.9937875682485782 A 8.96 8.96 0 0 0 -3.8875983024933207 8.072681056405676 Z" fill="#A0AAE5" stroke="#111" stroke-width="1" fill-opacity="0.9"/><path d="M -8.735354093149141 1.9937875682485782 L -22.087966778391394 5.041434279714261 A 22.656 22.656 0 0 1 -4.1618396822223646e-15 -22.656 L -1.6459252980540428e-15 -8.96 A 8.96 8.96 0 0 0 -8.735354093149141 1.9937875682485782 Z" fill="#004F61" stroke="#111" stroke-width="1" fill-opacity="0.9"/>
    <circle r="5.76" fill="#fff" stroke="#111" stroke-width="1.5"/>
  </g>
</svg>