<?xml version="1.0" encoding="UTF-8"?>
<svg xmlns="http://www.w3.org/2000/svg" width="64" height="64" viewBox="-32 -32 64 64">
  <g>
    <path d="M 5.486417660180143e-16 -8.96 L 1.518179062556878e-15 -24.79374565162614 A 24.79374565162614 24.79374565162614 0 0 1 1.4550858409910497 -24.751011062841 L 0.5258410454986948 -8.944556511916556 A 8.96 8.96 0 0 0 5.486417660180143e-16 -8.96 Z" fill="#A0AAE5" stroke="#111" stroke-width="1" fill-opacity="0.9"/><path d="M 0.5258410454986948 -8.944556511916556 L 1.8028835845669533 -30.667050897999616 A 30.72 30.72 0 1 1 -16.262118433169604 26.062653434858955 L -4.7431178763411355 7.6016072518338635 A 8.96 8.96 0 1 0 0.5258410454986948 -8.944556511916556 Z" fill="#7F142A" stroke="#111" stroke-width="1" fill-opacity="0.9"/><path d="M -4.7431178763411355 7.6016072518338635 L -11.993312344462582 19.22120690820848 A 22.656 22.656 0 0 1 -17.042816863940853 14.927716816116694 L -6.740097064835367 5.903616819933157 A 8.96 8.96 0 0 0 -4.7431178763411355 7.6016072518338635 Z" fill="#4A0D19" stroke="#111" stroke-width="1" fill-opacity="0.9"/><path d="M -6.740097064835367 5.903616819933157 L -17.042816863940853 14.927716816116694 A 22.656 22.656 0 0 1 -19.043076168513828 -12.274183721949933 L -7.531160066643888 -4.85419695218359 A 8.96 8.96 0 0 0 -6.740097064835367 5.903616819933157 Z" fill="#004F61" stroke="#111" stroke-width="1" fill-opacity="0.9"/><path d="M -7.531160066643888 -4.85419695218359 L -19.043076168513828 -12.274183721949933 A 22.656 22.656 0 0 1 -4.1618396822223646e-15 -22.656 L -1.6459252980540428e-15 -8.96 A 8.96 8.96 0 0 0 -7.531160066643888 -4.85419695218359 Z" fill="#e0e0e0" stroke="#111" stroke-width="1" fill-opacity="0.9"/>
    <circle r="5.76" fill="#fff" stroke="#111" stroke-width="1.5"/>
  </g>
</svg>