<?xml version="1.0" encoding="UTF-8"?>
<svg xmlns="http://www.w3.org/2000/svg" width="64" height="64" viewBox="-32 -32 64 64">
  <g>
    <path d="M 5.486417660180143e-16 -8.96 L 1.5287185127354756e-15 -24.965867935143894 A 24.965867935143894 24.965867935143894 0 0 1 3.720969534108935 -24.68701981773578 L 1.335418704938523 -8.859924202977153 A 8.96 8.96 0 0 0 5.486417660180143e-16 -8.96 Z" fill="#51BF7E" stroke="#111" stroke-width="1" fill-opacity="0.9"/><path d="M 1.335418704938523 -8.859924202977153 L 3.376701582487408 -22.40295119895651 A 22.656 22.656 0 0 1 11.327999999999998 -19.620671548140244 L 4.4799999999999995 -7.759587617908571 A 8.96 8.96 0 0 0 1.335418704938523 -8.859924202977153 Z" fill="#e0e0e0" stroke="#111" stroke-width="1" fill-opacity="0.9"/><path d="M 4.4799999999999995 -7.759587617908571 L 14.35013126577898 -24.855156447611886 A 28.700262531557968 28.700262531557968 0 0 1 28.620010776566357 -2.1447733049382682 L 8.934946022743375 -0.66958163853436 A 8.96 8.96 0 0 0 4.4799999999999995 -7.759587617908571 Z" fill="#7F142A" stroke="#111" stroke-width="1" fill-opacity="0.9"/><path d="M 8.934946022743375 -0.66958163853436 L 30.634100649405852 -2.295708474974948 A 30.72 30.72 0 1 1 -29.35519659375024 -9.054878957902982 L -8.561932339843821 -2.6410063627217033 A 8.96 8.96 0 1 0 8.934946022743375 -0.66958163853436 Z" fill="#A0AAE5" stroke="#111" stroke-width="1" fill-opacity="0.9"/><path d="M -8.561932339843821 -2.6410063627217033 L -21.649457487890803 -6.677973231453449 A 22.656 22.656 0 0 1 -17.713174066795684 -14.125784950911463 L -7.005210082913549 -5.586468624654252 A 8.96 8.96 0 0 0 -8.561932339843821 -2.6410063627217033 Z" fill="#7B86C9" stroke="#111" stroke-width="1" fill-opacity="0.9"/><path d="M -7.005210082913549 -5.586468624654252 L -17.713174066795684 -14.125784950911463 A 22.656 22.656 0 0 1 -1.6930850002940385 -22.592649228936814 L -0.6695816385343656 -8.934946022743375 A 8.96 8.96 0 0 0 -7.005210082913549 -5.586468624654252 Z" fill="#4A0D19" stroke="#111" stroke-width="1" fill-opacity="0.9"/><path d="M -0.6695816385343656 -8.934946022743375 L -1.6930850002940385 -22.592649228936814 A 22.656 22.656 0 0 1 -4.1618396822223646e-15 -22.656 L -1.6459252980540428e-15 -8.96 A 8.96 8.96 0 0 0 -0.6695816385343656 -8.934946022743375 Z" fill="#004F61" stroke="#111" stroke-width="1" fill-opacity="0.9"/>
    <circle r="5.76" fill="#fff" stroke="#111" stroke-width="1.5"/>
  </g>
</svg>