<?xml version="1.0" encoding="UTF-8"?>
<svg xmlns="http://www.w3.org/2000/svg" width="64" height="64" viewBox="-32 -32 64 64">
  <g>
    <path d="M 5.486417660180143e-16 -8.96 L 1.8024832135194606e-15 -29.43678479010307 A 29.43678479010307 29.43678479010307 0 0 1 10.06797335295792 27.661529446922717 L 3.064500484197993 8.41964588224174 A 8.96 8.96 0 0 0 5.486417660180143e-16 -8.96 Z" fill="#51BF7E" stroke="#111" stroke-width="1" fill-opacity="0.9"/><path d="M 3.064500484197993 8.41964588224174 L 10.078879924226793 27.69149500520762 A 29.468673471169694 29.468673471169694 0 0 1 -25.520619841861507 14.734336735584858 L -7.759587617908569 4.480000000000003 A 8.96 8.96 0 0 0 3.064500484197993 8.41964588224174 Z" fill="#A0AAE5" stroke="#111" stroke-width="1" fill-opacity="0.9"/><path d="M -7.759587617908569 4.480000000000003 L -26.60430040425795 15.36000000000001 A 30.72 30.72 0 0 1 -5.643172450471003e-15 -30.72 L -1.6459252980540428e-15 -8.96 A 8.96 8.96 0 0 0 -7.759587617908569 4.480000000000003 Z" fill="#7F142A" stroke="#111" stroke-width="1" fill-opacity="0.9"/>
    <circle r="5.76" fill="#fff" stroke="#111" stroke-width="1.5"/>
  </g>
</svg>