<?xml version="1.0" encoding="UTF-8"?>
<svg xmlns="http://www.w3.org/2000/svg" width="64" height="64" viewBox="-32 -32 64 64">
  <g>
    <path d="M 5.486417660180143e-16 -8.96 L 1.3872798940741216e-15 -22.656 A 22.656 22.656 0 0 1 21.780381076927593 -6.237734856806141 L 8.613710030423343 -2.466900790827288 A 8.96 8.96 0 0 0 5.486417660180143e-16 -8.96 Z" fill="#004F61" stroke="#111" stroke-width="1" fill-opacity="0.9"/><path d="M 8.613710030423343 -2.466900790827288 L 21.780381076927593 -6.237734856806141 A 22.656 22.656 0 0 1 22.65355871974056 0.33258582541428044 L 8.959034521931295 0.13153111739547818 A 8.96 8.96 0 0 0 8.613710030423343 -2.466900790827288 Z" fill="#4A0D19" stroke="#111" stroke-width="1" fill-opacity="0.9"/><path d="M 8.959034521931295 0.13153111739547818 L 30.716689789478725 0.4509638310702108 A 30.72 30.72 0 1 1 -26.753350567644755 -15.09889510542748 L -7.803060582229722 -4.403844405749682 A 8.96 8.96 0 1 0 8.959034521931295 0.13153111739547818 Z" fill="#7F142A" stroke="#111" stroke-width="1" fill-opacity="0.9"/><path d="M -7.803060582229722 -4.403844405749682 L -21.59231019866445 -12.18613817918463 A 24.79374565162614 24.79374565162614 0 0 1 -20.839918209157634 -13.432335332069036 L -7.531160066643891 -4.854196952183583 A 8.96 8.96 0 0 0 -7.803060582229722 -4.403844405749682 Z" fill="#A0AAE5" stroke="#111" stroke-width="1" fill-opacity="0.9"/><path d="M -7.531160066643891 -4.854196952183583 L -19.043076168513835 -12.274183721949916 A 22.656 22.656 0 0 1 -2.42844099589484e-14 -22.656 L -9.604003938567165e-15 -8.96 A 8.96 8.96 0 0 0 -7.531160066643891 -4.854196952183583 Z" fill="#e0e0e0" stroke="#111" stroke-width="1" fill-opacity="0.9"/>
    <circle r="5.76" fill="#fff" stroke="#111" stroke-width="1.5"/>
  </g>
</svg>