<?xml version="1.0" encoding="UTF-8"?>
<svg xmlns="http://www.w3.org/2000/svg" width="64" height="64" viewBox="-32 -32 64 64">
  <g>
    <path d="M 5.486417660180143e-16 -8.96 L 1.618887084548264e-15 -26.438432463554328 A 26.438432463554328 26.438432463554328 0 0 1 5.883104684131053 -25.77556576305317 L 1.9937875682485777 -8.735354093149141 A 8.96 8.96 0 0 0 5.486417660180143e-16 -8.96 Z" fill="#51BF7E" stroke="#111" stroke-width="1" fill-opacity="0.9"/><path d="M 1.9937875682485777 -8.735354093149141 L 5.0414342797142595 -22.087966778391394 A 22.656 22.656 0 0 1 14.125784950911468 -17.713174066795684 L 5.586468624654254 -7.005210082913548 A 8.96 8.96 0 0 0 1.9937875682485777 -8.735354093149141 Z" fill="#e0e0e0" stroke="#111" stroke-width="1" fill-opacity="0.9"/><path d="M 5.586468624654254 -7.005210082913548 L 14.125784950911468 -17.713174066795684 A 22.656 22.656 0 0 1 22.087966778391394 -5.041434279714259 L 8.735354093149141 -1.993787568248577 A 8.96 8.96 0 0 0 5.586468624654254 -7.005210082913548 Z" fill="#4A0D19" stroke="#111" stroke-width="1" fill-opacity="0.9"/><path d="M 8.735354093149141 -1.993787568248577 L 29.94978546222562 -6.835843091137978 A 30.72 30.72 0 1 1 -6.835843091137984 -29.94978546222562 L -1.9937875682485788 -8.735354093149141 A 8.96 8.96 0 1 0 8.735354093149141 -1.993787568248577 Z" fill="#7F142A" stroke="#111" stroke-width="1" fill-opacity="0.9"/><path d="M -1.9937875682485788 -8.735354093149141 L -5.6961617505478275 -24.956515255332295 A 25.59831854591308 25.59831854591308 0 0 1 -4.702334830621017e-15 -25.59831854591308 L -1.6459252980540428e-15 -8.96 A 8.96 8.96 0 0 0 -1.9937875682485788 -8.735354093149141 Z" fill="#A0AAE5" stroke="#111" stroke-width="1" fill-opacity="0.9"/>
    <circle r="5.76" fill="#fff" stroke="#111" stroke-width="1.5"/>
  </g>
</svg>