<?xml version="1.0" encoding="UTF-8"?>
<svg xmlns="http://www.w3.org/2000/svg" width="64" height="64" viewBox="-32 -32 64 64">
  <g>
    <path d="M 5.486417660180143e-16 -8.96 L 1.8810574834903343e-15 -30.72 A 30.72 30.72 0 1 1 -27.580555455613172 13.528908335850545 L -8.044328674553844 3.9459315979564096 A 8.96 8.96 0 1 0 5.486417660180143e-16 -8.96 Z" fill="#A0AAE5" stroke="#111" stroke-width="1" fill-opacity="0.9"/><path d="M -8.044328674553844 3.9459315979564096 L -20.340659648514716 9.977569897689778 A 22.656 22.656 0 0 1 -21.93275520503272 5.678783770853588 L -8.673970985041189 2.2458466890381428 A 8.96 8.96 0 0 0 -8.044328674553844 3.9459315979564096 Z" fill="#7B86C9" stroke="#111" stroke-width="1" fill-opacity="0.9"/><path d="M -8.673970985041189 2.2458466890381428 L -28.584682933409187 7.401087187623015 A 29.52727874292401 29.52727874292401 0 0 1 -5.424073110008035e-15 -29.52727874292401 L -1.6459252980540428e-15 -8.96 A 8.96 8.96 0 0 0 -8.673970985041189 2.2458466890381428 Z" fill="#7F142A" stroke="#111" stroke-width="1" fill-opacity="0.9"/>
    <circle r="5.76" fill="#fff" stroke="#111" stroke-width="1.5"/>
  </g>
</svg>