<?xml version="1.0" encoding="UTF-8"?>
<svg xmlns="http://www.w3.org/2000/svg" width="64" height="64" viewBox="-32 -32 64 64">
  <g>
    <path d="M 5.486417660180143e-16 -8.96 L 1.3872798940741216e-15 -22.656 A 22.656 22.656 0 0 1 7.748808367186353 21.289676016525537 L 3.064500484197993 8.41964588224174 A 8.96 8.96 0 0 0 5.486417660180143e-16 -8.96 Z" fill="#004F61" stroke="#111" stroke-width="1" fill-opacity="0.9"/><path d="M 3.064500484197993 8.41964588224174 L 10.506858802964546 28.867357310543102 A 30.72 30.72 0 0 1 -26.60430040425795 15.36000000000001 L -7.759587617908569 4.480000000000003 A 8.96 8.96 0 0 0 3.064500484197993 8.41964588224174 Z" fill="#7F142A" stroke="#111" stroke-width="1" fill-opacity="0.9"/><path d="M -7.759587617908569 4.480000000000003 L -24.018970433287038 13.867359045315945 A 27.734718090631873 27.734718090631873 0 0 1 -5.094785060241977e-15 -27.734718090631873 L -1.6459252980540428e-15 -8.96 A 8.96 8.96 0 0 0 -7.759587617908569 4.480000000000003 Z" fill="#A0AAE5" stroke="#111" stroke-width="1" fill-opacity="0.9"/>
    <circle r="5.76" fill="#fff" stroke="#111" stroke-width="1.5"/>
  </g>
</svg>