<?xml version="1.0" encoding="UTF-8"?>
<svg xmlns="http://www.w3.org/2000/svg" width="64" height="64" viewBox="-32 -32 64 64">
  <g>
    <path d="M 5.486417660180143e-16 -8.96 L 1.3872798940741216e-15 -22.656 A 22.656 22.656 0 0 1 10.167994226621673 -20.246141099167225 L 4.021240654596142 -8.006948457297774 A 8.96 8.96 0 0 0 5.486417660180143e-16 -8.96 Z" fill="#004F61" stroke="#111" stroke-width="1" fill-opacity="0.9"/><path d="M 4.021240654596142 -8.006948457297774 L 11.477968197731272 -22.854513730406737 A 25.574842165719822 25.574842165719822 0 0 1 18.60246607873558 -17.55052157603792 L 6.517267828494516 -6.148725075303854 A 8.96 8.96 0 0 0 4.021240654596142 -8.006948457297774 Z" fill="#A0AAE5" stroke="#111" stroke-width="1" fill-opacity="0.9"/><path d="M 6.517267828494516 -6.148725075303854 L 22.344918269124054 -21.081343115327495 A 30.72 30.72 0 1 1 -3.292801350365885e-14 -30.72 L -9.604003938567165e-15 -8.96 A 8.96 8.96 0 1 0 6.517267828494516 -6.148725075303854 Z" fill="#7F142A" stroke="#111" stroke-width="1" fill-opacity="0.9"/>
    <circle r="5.76" fill="#fff" stroke="#111" stroke-width="1.5"/>
  </g>
</svg>