<?xml version="1.0" encoding="UTF-8"?>
<svg xmlns="http://www.w3.org/2000/svg" width="64" height="64" viewBox="-32 -32 64 64">
  <g>
    <path d="M 5.486417660180143e-16 -8.96 L 1.8810574834903343e-15 -30.72 A 30.72 30.72 0 1 1 -9.19643513774154 29.311157956609506 L -2.6822935818412827 8.54908773734444 A 8.96 8.96 0 1 0 5.486417660180143e-16 -8.96 Z" fill="#A0AAE5" stroke="#111" stroke-width="1" fill-opacity="0.9"/><path d="M -2.6822935818412827 8.54908773734444 L -9.196221985181555 29.310478590283207 A 30.719287979902575 30.719287979902575 0 0 1 -6.183747208531783 -30.09046235027242 L -1.8036347399944035 -8.77658827362235 A 8.96 8.96 0 0 0 -2.6822935818412827 8.54908773734444 Z" fill="#7F142A" stroke="#111" stroke-width="1" fill-opacity="0.9"/><path d="M -1.8036347399944035 -8.77658827362235 L -4.560619271128705 -22.19223034901651 A 22.656 22.656 0 0 1 -2.42844099589484e-14 -22.656 L -9.604003938567165e-15 -8.96 A 8.96 8.96 0 0 0 -1.8036347399944035 -8.77658827362235 Z" fill="#4A0D19" stroke="#111" stroke-width="1" fill-opacity="0.9"/>
    <circle r="5.76" fill="#fff" stroke="#111" stroke-width="1.5"/>
  </g>
</svg>