<?xml version="1.0" encoding="UTF-8"?>
<svg xmlns="http://www.w3.org/2000/svg" width="64" height="64" viewBox="-32 -32 64 64">
  <g>
    <path d="M 5.486417660180143e-16 -8.96 L 1.3872798940741216e-15 -22.656 A 22.656 22.656 0 0 1 0.6411389287311263 -22.646926433272696 L 0.25355776842473926 -8.956411583780163 A 8.96 8.96 0 0 0 5.486417660180143e-16 -8.96 Z" fill="#004F61" stroke="#111" stroke-width="1" fill-opacity="0.9"/><path d="M 0.25355776842473926 -8.956411583780163 L 0.8693409203133916 -30.70769685867484 A 30.72 30.72 0 1 1 -5.19170520028722 -30.2781207658816 L -1.5142473500837728 -8.831118556715468 A 8.96 8.96 0 1 0 0.25355776842473926 -8.956411583780163 Z" fill="#A0AAE5" stroke="#111" stroke-width="1" fill-opacity="0.9"/><path d="M -1.5142473500837728 -8.831118556715468 L -4.681177841780182 -27.30071576717184 A 27.699142719338425 27.699142719338425 0 0 1 -5.088249970554527e-15 -27.699142719338425 L -1.6459252980540428e-15 -8.96 A 8.96 8.96 0 0 0 -1.5142473500837728 -8.831118556715468 Z" fill="#7F142A" stroke="#111" stroke-width="1" fill-opacity="0.9"/>
    <circle r="5.76" fill="#fff" stroke="#111" stroke-width="1.5"/>
  </g>
</svg>