<?xml version="1.0" encoding="UTF-8"?>
<svg xmlns="http://www.w3.org/2000/svg" width="64" height="64" viewBox="-32 -32 64 64">
  <g>
    <path d="M 5.486417660180143e-16 -8.96 L 1.7021634479256404e-15 -27.798438686333935 A 27.798438686333935 27.798438686333935 0 0 1 25.991991693016836 9.8574622103263 L 8.377745534461317 3.1772597879011206 A 8.96 8.96 0 0 0 5.486417660180143e-16 -8.96 Z" fill="#51BF7E" stroke="#111" stroke-width="1" fill-opacity="0.9"/><path d="M 8.377745534461317 3.1772597879011206 L 26.379849999998186 10.004557463709942 A 28.213253198932563 28.213253198932563 0 0 1 -26.379849999998182 10.004557463709945 L -8.377745534461317 3.1772597879011215 A 8.96 8.96 0 0 0 8.377745534461317 3.1772597879011206 Z" fill="#7F142A" stroke="#111" stroke-width="1" fill-opacity="0.9"/><path d="M -8.377745534461317 3.1772597879011215 L -28.72369897529594 10.8934621299467 A 30.72 30.72 0 0 1 -5.643172450471003e-15 -30.72 L -1.6459252980540428e-15 -8.96 A 8.96 8.96 0 0 0 -8.377745534461317 3.1772597879011215 Z" fill="#A0AAE5" stroke="#111" stroke-width="1" fill-opacity="0.9"/>
    <circle r="5.76" fill="#fff" stroke="#111" stroke-width="1.5"/>
  </g>
</svg>