<?xml version="1.0" encoding="UTF-8"?>
<svg xmlns="http://www.w3.org/2000/svg" width="64" height="64" viewBox="-32 -32 64 64">
  <g>
    <path d="M 5.486417660180143e-16 -8.96 L 1.8810574834903343e-15 -30.72 A 30.72 30.72 0 1 1 -13.328908465691383 27.677763621962317 L -3.8875983024933207 8.072681056405676 A 8.96 8.96 0 1 0 5.486417660180143e-16 -8.96 Z" fill="#7F142A" stroke="#111" stroke-width="1" fill-opacity="0.9"/><path d="M -3.8875983024933207 8.072681056405676 L -12.758379174092195 26.493047340585342 A 29.405064130867075 29.405064130867075 0 0 1 -22.989804881503296 -18.33375760859766 L -7.005210082913549 -5.586468624654252 A 8.96 8.96 0 0 0 -3.8875983024933207 8.072681056405676 Z" fill="#A0AAE5" stroke="#111" stroke-width="1" fill-opacity="0.9"/><path d="M -7.005210082913549 -5.586468624654252 L -17.713174066795684 -14.125784950911463 A 22.656 22.656 0 0 1 -4.1618396822223646e-15 -22.656 L -1.6459252980540428e-15 -8.96 A 8.96 8.96 0 0 0 -7.005210082913549 -5.586468624654252 Z" fill="#7B86C9" stroke="#111" stroke-width="1" fill-opacity="0.9"/>
    <circle r="5.76" fill="#fff" stroke="#111" stroke-width="1.5"/>
  </g>
</svg>