<?xml version="1.0" encoding="UTF-8"?>
<svg xmlns="http://www.w3.org/2000/svg" width="64" height="64" viewBox="-32 -32 64 64">
  <g>
    <path d="M 5.486417660180143e-16 -8.96 L 1.3872798940741216e-15 -22.656 A 22.656 22.656 0 0 1 5.364134710087819 -22.01182397739976 L 2.1214092073793633 -8.705241121005557 A 8.96 8.96 0 0 0 5.486417660180143e-16 -8.96 Z" fill="#004F61" stroke="#111" stroke-width="1" fill-opacity="0.9"/><path d="M 2.1214092073793633 -8.705241121005557 L 5.364134710087819 -22.01182397739976 A 22.656 22.656 0 0 1 8.311449181428609 -21.07638841226195 L 3.2870138005649867 -8.335294852306985 A 8.96 8.96 0 0 0 2.1214092073793633 -8.705241121005557 Z" fill="#4A0D19" stroke="#111" stroke-width="1" fill-opacity="0.9"/><path d="M 3.2870138005649867 -8.335294852306985 L 11.269761601937097 -28.578153779338233 A 30.72 30.72 0 1 1 -15.961618945088519 -26.24776410766813 L -4.655472192317485 -7.655597864736539 A 8.96 8.96 0 1 0 3.2870138005649867 -8.335294852306985 Z" fill="#7F142A" stroke="#111" stroke-width="1" fill-opacity="0.9"/><path d="M -4.655472192317485 -7.655597864736539 L -14.244083077329947 -23.42339670117407 A 27.4144016118253 27.4144016118253 0 0 1 -8.293255391274762 -26.129893431652985 L -2.710530375894437 -8.540177110654882 A 8.96 8.96 0 0 0 -4.655472192317485 -7.655597864736539 Z" fill="#A0AAE5" stroke="#111" stroke-width="1" fill-opacity="0.9"/><path d="M -2.710530375894437 -8.540177110654882 L -7.687018692508134 -24.219799073556263 A 25.410409747629146 25.410409747629146 0 0 1 1.79011610292134e-14 -25.410409747629146 L 6.31215334245908e-15 -8.96 A 8.96 8.96 0 0 0 -2.710530375894437 -8.540177110654882 Z" fill="#51BF7E" stroke="#111" stroke-width="1" fill-opacity="0.9"/>
    <circle r="5.76" fill="#fff" stroke="#111" stroke-width="1.5"/>
  </g>
</svg>