<?xml version="1.0" encoding="UTF-8"?>
<svg xmlns="http://www.w3.org/2000/svg" width="64" height="64" viewBox="-32 -32 64 64">
  <g>
    <path d="M 5.486417660180143e-16 -8.96 L 1.8628367195094026e-15 -30.42243234222932 A 30.42243234222932 30.42243234222932 0 0 1 26.346599253283916 15.211216171114655 L 7.759587617908571 4.479999999999999 A 8.96 8.96 0 0 0 5.486417660180143e-16 -8.96 Z" fill="#A0AAE5" stroke="#111" stroke-width="1" fill-opacity="0.9"/><path d="M 7.759587617908571 4.479999999999999 L 19.620671548140244 11.327999999999996 A 22.656 22.656 0 0 1 -15.738180041119035 16.297362516472486 L -6.224138999312614 6.445284611034317 A 8.96 8.96 0 0 0 7.759587617908571 4.479999999999999 Z" fill="#7B86C9" stroke="#111" stroke-width="1" fill-opacity="0.9"/><path d="M -6.224138999312614 6.445284611034317 L -21.339905140500388 22.09811866640337 A 30.72 30.72 0 0 1 -5.643172450471003e-15 -30.72 L -1.6459252980540428e-15 -8.96 A 8.96 8.96 0 0 0 -6.224138999312614 6.445284611034317 Z" fill="#7F142A" stroke="#111" stroke-width="1" fill-opacity="0.9"/>
    <circle r="5.76" fill="#fff" stroke="#111" stroke-width="1.5"/>
  </g>
</svg>