<?xml version="1.0" encoding="UTF-8"?>
<svg xmlns="http://www.w3.org/2000/svg" width="64" height="64" viewBox="-32 -32 64 64">
  <g>
    <path d="M 5.486417660180143e-16 -8.96 L 1.5395416153386577e-15 -25.142622614300652 A 25.142622614300652 25.142622614300652 0 0 1 6.930246015710519 -24.168640054559773 L 2.4697107081203127 -8.612904795607339 A 8.96 8.96 0 0 0 5.486417660180143e-16 -8.96 Z" fill="#51BF7E" stroke="#111" stroke-width="1" fill-opacity="0.9"/><path d="M 2.4697107081203127 -8.612904795607339 L 8.360315165855878 -29.155883864467995 A 30.33084953625244 30.33084953625244 0 0 1 6.306138211021294 29.668047702103387 L 1.862888749727123 8.7642025025749 A 8.96 8.96 0 0 0 2.4697107081203127 -8.612904795607339 Z" fill="#7F142A" stroke="#111" stroke-width="1" fill-opacity="0.9"/><path d="M 1.862888749727123 8.7642025025749 L 6.387047141921563 30.04869429454251 A 30.72 30.72 0 0 1 -12.494949675288579 -28.064116458780703 L -3.6443603219591694 -8.185367300477706 A 8.96 8.96 0 0 0 1.862888749727123 8.7642025025749 Z" fill="#A0AAE5" stroke="#111" stroke-width="1" fill-opacity="0.9"/><path d="M -3.6443603219591694 -8.185367300477706 L -9.215025385525326 -20.697285888350766 A 22.656 22.656 0 0 1 -4.1618396822223646e-15 -22.656 L -1.6459252980540428e-15 -8.96 A 8.96 8.96 0 0 0 -3.6443603219591694 -8.185367300477706 Z" fill="#7B86C9" stroke="#111" stroke-width="1" fill-opacity="0.9"/>
    <circle r="5.76" fill="#fff" stroke="#111" stroke-width="1.5"/>
  </g>
</svg>