<?xml version="1.0" encoding="UTF-8"?>
<svg xmlns="http://www.w3.org/2000/svg" width="64" height="64" viewBox="-32 -32 64 64">
  <g>
    <path d="M 5.486417660180143e-16 -8.96 L 1.3872798940741216e-15 -22.656 A 22.656 22.656 0 0 1 1.1956782645877593 -22.624426832244666 L 0.47286711028894435 -8.947513436480943 A 8.96 8.96 0 0 0 5.486417660180143e-16 -8.96 Z" fill="#004F61" stroke="#111" stroke-width="1" fill-opacity="0.9"/><path d="M 0.47286711028894435 -8.947513436480943 L 1.1956782645877593 -22.624426832244666 A 22.656 22.656 0 0 1 1.911698595986146 -22.575201980892764 L 0.7560389927628828 -8.928045981144033 A 8.96 8.96 0 0 0 0.47286711028894435 -8.947513436480943 Z" fill="#4A0D19" stroke="#111" stroke-width="1" fill-opacity="0.9"/><path d="M 0.7560389927628828 -8.928045981144033 L 2.3151923990614893 -27.340050436391895 A 27.437902137538224 27.437902137538224 0 0 1 5.751887095665559 -26.828236403980057 L 1.8783108168701776 -8.760910253805166 A 8.96 8.96 0 0 0 0.7560389927628828 -8.928045981144033 Z" fill="#7F142A" stroke="#111" stroke-width="1" fill-opacity="0.9"/><path d="M 1.8783108168701776 -8.760910253805166 L 6.439922800697751 -30.03740658447485 A 30.72 30.72 0 1 1 -11.699816639425416 -28.404800485196585 L -3.412446519832413 -8.284733474849006 A 8.96 8.96 0 1 0 1.8783108168701776 -8.760910253805166 Z" fill="#A0AAE5" stroke="#111" stroke-width="1" fill-opacity="0.9"/><path d="M -3.412446519832413 -8.284733474849006 L -8.628614771576244 -20.94854035783248 A 22.656 22.656 0 0 1 -1.1956782645877417 -22.624426832244666 L -0.47286711028893746 -8.947513436480943 A 8.96 8.96 0 0 0 -3.412446519832413 -8.284733474849006 Z" fill="#7B86C9" stroke="#111" stroke-width="1" fill-opacity="0.9"/><path d="M -0.47286711028893746 -8.947513436480943 L -1.2817919544455136 -24.25385586273182 A 24.287702954883404 24.287702954883404 0 0 1 -0.25647277670732416 -24.286348769204892 L -0.09461562024067734 -8.959500426050912 A 8.96 8.96 0 0 0 -0.47286711028893746 -8.947513436480943 Z" fill="#51BF7E" stroke="#111" stroke-width="1" fill-opacity="0.9"/><path d="M -0.09461562024067734 -8.959500426050912 L -0.23924235403714122 -22.654736791585876 A 22.656 22.656 0 0 1 1.5960730594503672e-14 -22.656 L 6.31215334245908e-15 -8.96 A 8.96 8.96 0 0 0 -0.09461562024067734 -8.959500426050912 Z" fill="#e0e0e0" stroke="#111" stroke-width="1" fill-opacity="0.9"/>
    <circle r="5.76" fill="#fff" stroke="#111" stroke-width="1.5"/>
  </g>
</svg>