<?xml version="1.0" encoding="UTF-8"?>
<svg xmlns="http://www.w3.org/2000/svg" width="64" height="64" viewBox="-32 -32 64 64">
  <g>
    <path d="M 5.486417660180143e-16 -8.96 L 1.8810574834903343e-15 -30.72 A 30.72 30.72 0 1 1 -14.422166408782557 27.124150052626238 L -4.20646520256158 7.911210432015988 A 8.96 8.96 0 1 0 5.486417660180143e-16 -8.96 Z" fill="#A0AAE5" stroke="#111" stroke-width="1" fill-opacity="0.9"/><path d="M -4.20646520256158 7.911210432015988 L -13.619816633497074 25.61514959578215 A 29.010951276102304 29.010951276102304 0 0 1 -27.5910542550583 -8.964876967299176 L -8.521466386004578 -2.768792269599528 A 8.96 8.96 0 0 0 -4.20646520256158 7.911210432015988 Z" fill="#7F142A" stroke="#111" stroke-width="1" fill-opacity="0.9"/><path d="M -8.521466386004578 -2.768792269599528 L -21.547136433183 -7.001089024558805 A 22.656 22.656 0 0 1 -14.562996085058238 -17.355502903303563 L -5.7593769827913945 -6.863758210346043 A 8.96 8.96 0 0 0 -8.521466386004578 -2.768792269599528 Z" fill="#4A0D19" stroke="#111" stroke-width="1" fill-opacity="0.9"/><path d="M -5.7593769827913945 -6.863758210346043 L -16.796094091110906 -20.016805474631795 A 26.13008377573061 26.13008377573061 0 0 1 -4.800018518610102e-15 -26.13008377573061 L -1.6459252980540428e-15 -8.96 A 8.96 8.96 0 0 0 -5.7593769827913945 -6.863758210346043 Z" fill="#51BF7E" stroke="#111" stroke-width="1" fill-opacity="0.9"/>
    <circle r="5.76" fill="#fff" stroke="#111" stroke-width="1.5"/>
  </g>
</svg>