<?xml version="1.0" encoding="UTF-8"?>
<svg xmlns="http://www.w3.org/2000/svg" width="64" height="64" viewBox="-32 -32 64 64">
  <g>
    <path d="M 5.486417660180143e-16 -8.96 L 1.8810574834903343e-15 -30.72 A 30.72 30.72 0 1 1 -24.01786314141787 19.153606713100295 L -7.005210082913547 5.586468624654254 A 8.96 8.96 0 1 0 5.486417660180143e-16 -8.96 Z" fill="#A0AAE5" stroke="#111" stroke-width="1" fill-opacity="0.9"/><path d="M -7.005210082913547 5.586468624654254 L -17.71317406679568 14.125784950911468 A 22.656 22.656 0 0 1 -22.087966778391394 -5.041434279714256 L -8.735354093149141 -1.9937875682485762 A 8.96 8.96 0 0 0 -7.005210082913547 5.586468624654254 Z" fill="#7B86C9" stroke="#111" stroke-width="1" fill-opacity="0.9"/><path d="M -8.735354093149141 -1.9937875682485762 L -28.204914143874262 -6.437587599073739 A 28.930256064526397 28.930256064526397 0 0 1 -5.314401823190333e-15 -28.930256064526397 L -1.6459252980540428e-15 -8.96 A 8.96 8.96 0 0 0 -8.735354093149141 -1.9937875682485762 Z" fill="#7F142A" stroke="#111" stroke-width="1" fill-opacity="0.9"/>
    <circle r="5.76" fill="#fff" stroke="#111" stroke-width="1.5"/>
  </g>
</svg>