<?xml version="1.0" encoding="UTF-8"?>
<svg xmlns="http://www.w3.org/2000/svg" width="64" height="64" viewBox="-32 -32 64 64">
  <g>
    <path d="M 5.486417660180143e-16 -8.96 L 1.3872798940741216e-15 -22.656 A 22.656 22.656 0 1 1 -21.547136433183 7.00108902455881 L -8.521466386004576 2.7687922695995297 A 8.96 8.96 0 1 0 5.486417660180143e-16 -8.96 Z" fill="#4A0D19" stroke="#111" stroke-width="1" fill-opacity="0.9"/><path d="M -8.521466386004576 2.7687922695995297 L -27.32791391193641 8.879377486945396 A 28.734269145636546 28.734269145636546 0 0 1 -16.889579639207806 -23.246512059763663 L -5.266555860540561 -7.248792269599529 A 8.96 8.96 0 0 0 -8.521466386004576 2.7687922695995297 Z" fill="#A0AAE5" stroke="#111" stroke-width="1" fill-opacity="0.9"/><path d="M -5.266555860540561 -7.248792269599529 L -18.056762950424776 -24.853002067198382 A 30.72 30.72 0 0 1 -5.643172450471003e-15 -30.72 L -1.6459252980540428e-15 -8.96 A 8.96 8.96 0 0 0 -5.266555860540561 -7.248792269599529 Z" fill="#7F142A" stroke="#111" stroke-width="1" fill-opacity="0.9"/>
    <circle r="5.76" fill="#fff" stroke="#111" stroke-width="1.5"/>
  </g>
</svg>