<?xml version="1.0" encoding="UTF-8"?>
<svg xmlns="http://www.w3.org/2000/svg" width="64" height="64" viewBox="-32 -32 64 64">
  <g>
    <path d="M 5.486417660180143e-16 -8.96 L 1.8810574834903343e-15 -30.72 A 30.72 30.72 0 1 1 -16.0097156874118 -26.21845540088585 L -4.6695004088284415 -7.647049491925041 A 8.96 8.96 0 1 0 5.486417660180143e-16 -8.96 Z" fill="#7F142A" stroke="#111" stroke-width="1" fill-opacity="0.9"/><path d="M -4.6695004088284415 -7.647049491925041 L -14.460389984614316 -23.68118817932104 A 27.74709988614213 27.74709988614213 0 0 1 -5.807090722839428 -27.13262334217355 L -1.8752061689383126 -8.761575304930941 A 8.96 8.96 0 0 0 -4.6695004088284415 -7.647049491925041 Z" fill="#A0AAE5" stroke="#111" stroke-width="1" fill-opacity="0.9"/><path d="M -1.8752061689383126 -8.761575304930941 L -4.741592741458304 -22.154268985325377 A 22.656 22.656 0 0 1 -2.42844099589484e-14 -22.656 L -9.604003938567165e-15 -8.96 A 8.96 8.96 0 0 0 -1.8752061689383126 -8.761575304930941 Z" fill="#4A0D19" stroke="#111" stroke-width="1" fill-opacity="0.9"/>
    <circle r="5.76" fill="#fff" stroke="#111" stroke-width="1.5"/>
  </g>
</svg>