<?xml version="1.0" encoding="UTF-8"?>
<svg xmlns="http://www.w3.org/2000/svg" width="64" height="64" viewBox="-32 -32 64 64">
  <g>
    <path d="M 5.486417660180143e-16 -8.96 L 1.3872798940741216e-15 -22.656 A 22.656 22.656 0 0 1 18.079878301261104 13.65329032180843 L 7.150234356430946 5.399606341958137 A 8.96 8.96 0 0 0 5.486417660180143e-16 -8.96 Z" fill="#004F61" stroke="#111" stroke-width="1" fill-opacity="0.9"/><path d="M 7.150234356430946 5.399606341958137 L 24.515089222048957 18.512936029570753 A 30.72 30.72 0 0 1 -16.171996043592372 26.118670409613745 L -4.71683217938111 7.617945536137343 A 8.96 8.96 0 0 0 7.150234356430946 5.399606341958137 Z" fill="#A0AAE5" stroke="#111" stroke-width="1" fill-opacity="0.9"/><path d="M -4.71683217938111 7.617945536137343 L -11.926847082149376 19.262519427090137 A 22.656 22.656 0 0 1 -20.280819528940288 -10.098648188473257 L -8.020663090541358 -3.993815667757786 A 8.96 8.96 0 0 0 -4.71683217938111 7.617945536137343 Z" fill="#7B86C9" stroke="#111" stroke-width="1" fill-opacity="0.9"/><path d="M -8.020663090541358 -3.993815667757786 L -20.280819528940288 -10.098648188473257 A 22.656 22.656 0 0 1 -4.1618396822223646e-15 -22.656 L -1.6459252980540428e-15 -8.96 A 8.96 8.96 0 0 0 -8.020663090541358 -3.993815667757786 Z" fill="#e0e0e0" stroke="#111" stroke-width="1" fill-opacity="0.9"/>
    <circle r="5.76" fill="#fff" stroke="#111" stroke-width="1.5"/>
  </g>
</svg>