<?xml version="1.0" encoding="UTF-8"?>
<svg xmlns="http://www.w3.org/2000/svg" width="64" height="64" viewBox="-32 -32 64 64">
  <g>
    <path d="M 5.486417660180143e-16 -8.96 L 1.5950773880398486e-15 -26.049590610948457 A 26.049590610948457 26.049590610948457 0 0 1 13.024795305474225 -22.55960722726596 L 4.4799999999999995 -7.759587617908571 A 8.96 8.96 0 0 0 5.486417660180143e-16 -8.96 Z" fill="#51BF7E" stroke="#111" stroke-width="1" fill-opacity="0.9"/><path d="M 4.4799999999999995 -7.759587617908571 L 15.359999999999996 -26.604300404257955 A 30.72 30.72 0 1 1 -30.72 3.762114966980669e-15 L -8.96 1.0972835320360286e-15 A 8.96 8.96 0 1 0 4.4799999999999995 -7.759587617908571 Z" fill="#7F142A" stroke="#111" stroke-width="1" fill-opacity="0.9"/><path d="M -8.96 1.0972835320360286e-15 L -27.07833019990742 3.316139040557173e-15 A 27.07833019990742 27.07833019990742 0 0 1 -23.450521845183182 -13.539165099953713 L -7.75958761790857 -4.480000000000001 A 8.96 8.96 0 0 0 -8.96 1.0972835320360286e-15 Z" fill="#A0AAE5" stroke="#111" stroke-width="1" fill-opacity="0.9"/><path d="M -7.75958761790857 -4.480000000000001 L -19.62067154814024 -11.328000000000001 A 22.656 22.656 0 0 1 -4.1618396822223646e-15 -22.656 L -1.6459252980540428e-15 -8.96 A 8.96 8.96 0 0 0 -7.75958761790857 -4.480000000000001 Z" fill="#4A0D19" stroke="#111" stroke-width="1" fill-opacity="0.9"/>
    <circle r="5.76" fill="#fff" stroke="#111" stroke-width="1.5"/>
  </g>
</svg>