<?xml version="1.0" encoding="UTF-8"?>
<svg xmlns="http://www.w3.org/2000/svg" width="64" height="64" viewBox="-32 -32 64 64">
  <g>
    <path d="M 5.486417660180143e-16 -8.96 L 1.3872798940741216e-15 -22.656 A 22.656 22.656 0 0 1 20.60862248675197 -9.411642534570737 L 8.150302678376486 -3.722118516496902 A 8.96 8.96 0 0 0 5.486417660180143e-16 -8.96 Z" fill="#004F61" stroke="#111" stroke-width="1" fill-opacity="0.9"/><path d="M 8.150302678376486 -3.722118516496902 L 24.855998144949314 -11.351354003917505 A 27.325334060244856 27.325334060244856 0 0 1 20.651109585117965 17.894288317992043 L 6.771516186214154 5.867552176149755 A 8.96 8.96 0 0 0 8.150302678376486 -3.722118516496902 Z" fill="#7F142A" stroke="#111" stroke-width="1" fill-opacity="0.9"/><path d="M 6.771516186214154 5.867552176149755 L 23.216626924162814 20.117321746799156 A 30.72 30.72 0 0 1 -30.40731469458225 4.3719118317553205 L -8.868800119253157 1.2751409509286353 A 8.96 8.96 0 0 0 6.771516186214154 5.867552176149755 Z" fill="#A0AAE5" stroke="#111" stroke-width="1" fill-opacity="0.9"/><path d="M -8.868800119253157 1.2751409509286353 L -25.107912055547178 3.609972761122398 A 25.366102403111462 25.366102403111462 0 0 1 -13.713950338880576 -21.339323260775036 L -4.844141724402154 -7.537631654167385 A 8.96 8.96 0 0 0 -8.868800119253157 1.2751409509286353 Z" fill="#51BF7E" stroke="#111" stroke-width="1" fill-opacity="0.9"/><path d="M -4.844141724402154 -7.537631654167385 L -12.248758360274016 -19.059440039823244 A 22.656 22.656 0 0 1 -4.1618396822223646e-15 -22.656 L -1.6459252980540428e-15 -8.96 A 8.96 8.96 0 0 0 -4.844141724402154 -7.537631654167385 Z" fill="#e0e0e0" stroke="#111" stroke-width="1" fill-opacity="0.9"/>
    <circle r="5.76" fill="#fff" stroke="#111" stroke-width="1.5"/>
  </g>
</svg>