<?xml version="1.0" encoding="UTF-8"?>
<svg xmlns="http://www.w3.org/2000/svg" width="64" height="64" viewBox="-32 -32 64 64">
  <g>
    <path d="M 5.486417660180143e-16 -8.96 L 1.8810574834903343e-15 -30.72 A 30.72 30.72 0 0 1 7.35177720691377 29.827332631328318 L 2.1442683520165167 8.699638684137426 A 8.96 8.96 0 0 0 5.486417660180143e-16 -8.96 Z" fill="#7F142A" stroke="#111" stroke-width="1" fill-opacity="0.9"/><path d="M 2.1442683520165167 8.699638684137426 L 6.832202170351213 27.719333843237767 A 28.548913380537243 28.548913380537243 0 0 1 -26.693697721821295 10.12358420449255 L -8.377745534461317 3.1772597879011215 A 8.96 8.96 0 0 0 2.1442683520165167 8.699638684137426 Z" fill="#A0AAE5" stroke="#111" stroke-width="1" fill-opacity="0.9"/><path d="M -8.377745534461317 3.1772597879011215 L -21.183727994280755 8.033928320835692 A 22.656 22.656 0 0 1 -4.1618396822223646e-15 -22.656 L -1.6459252980540428e-15 -8.96 A 8.96 8.96 0 0 0 -8.377745534461317 3.1772597879011215 Z" fill="#7B86C9" stroke="#111" stroke-width="1" fill-opacity="0.9"/>
    <circle r="5.76" fill="#fff" stroke="#111" stroke-width="1.5"/>
  </g>
</svg>