<?xml version="1.0" encoding="UTF-8"?>
<svg xmlns="http://www.w3.org/2000/svg" width="64" height="64" viewBox="-32 -32 64 64">
  <g>
    <path d="M 5.486417660180143e-16 -8.96 L 1.8810574834903343e-15 -30.72 A 30.72 30.72 0 0 1 8.65482414616873 29.475624149437355 L 2.524323709299213 8.597057043585897 A 8.96 8.96 0 0 0 5.486417660180143e-16 -8.96 Z" fill="#A0AAE5" stroke="#111" stroke-width="1" fill-opacity="0.9"/><path d="M 2.524323709299213 8.597057043585897 L 8.209469810563382 27.958886571882225 A 29.13923013584827 29.13923013584827 0 0 1 -15.75385720067181 -24.513480295763163 L -4.844141724402161 -7.53763165416738 A 8.96 8.96 0 0 0 2.524323709299213 8.597057043585897 Z" fill="#7F142A" stroke="#111" stroke-width="1" fill-opacity="0.9"/><path d="M -4.844141724402161 -7.53763165416738 L -13.671481738318404 -21.27324082840249 A 25.287550064495854 25.287550064495854 0 0 1 -2.710510384108622e-14 -25.287550064495854 L -9.604003938567165e-15 -8.96 A 8.96 8.96 0 0 0 -4.844141724402161 -7.53763165416738 Z" fill="#51BF7E" stroke="#111" stroke-width="1" fill-opacity="0.9"/>
    <circle r="5.76" fill="#fff" stroke="#111" stroke-width="1.5"/>
  </g>
</svg>