<?xml version="1.0" encoding="UTF-8"?>
<svg xmlns="http://www.w3.org/2000/svg" width="64" height="64" viewBox="-32 -32 64 64">
  <g>
    <path d="M 5.486417660180143e-16 -8.96 L 1.561913587964801e-15 -25.507984654061335 A 25.507984654061335 25.507984654061335 0 0 1 14.993217195359975 -20.636393077390984 L 5.26655586054056 -7.24879226959953 A 8.96 8.96 0 0 0 5.486417660180143e-16 -8.96 Z" fill="#51BF7E" stroke="#111" stroke-width="1" fill-opacity="0.9"/><path d="M 5.26655586054056 -7.24879226959953 L 13.316862675938271 -18.329089024558808 A 22.656 22.656 0 0 1 17.85317163371389 -13.948426384978113 L 7.060576352316229 -5.516326818917899 A 8.96 8.96 0 0 0 5.26655586054056 -7.24879226959953 Z" fill="#4A0D19" stroke="#111" stroke-width="1" fill-opacity="0.9"/><path d="M 7.060576352316229 -5.516326818917899 L 17.85317163371389 -13.948426384978113 A 22.656 22.656 0 0 1 21.983019974508974 -5.480982466706075 L 8.693849707432928 -2.167620184573024 A 8.96 8.96 0 0 0 7.060576352316229 -5.516326818917899 Z" fill="#004F61" stroke="#111" stroke-width="1" fill-opacity="0.9"/><path d="M 8.693849707432928 -2.167620184573024 L 29.80748471119861 -7.431840632821796 A 30.72 30.72 0 1 1 -8.467579570698206 -29.529959299225155 L -2.4697107081203105 -8.612904795607339 A 8.96 8.96 0 1 0 8.693849707432928 -2.167620184573024 Z" fill="#7F142A" stroke="#111" stroke-width="1" fill-opacity="0.9"/><path d="M -2.4697107081203105 -8.612904795607339 L -7.474040543334917 -26.065076944678772 A 27.115484841238576 27.115484841238576 0 0 1 1.9102354717971268e-14 -27.115484841238576 L 6.31215334245908e-15 -8.96 A 8.96 8.96 0 0 0 -2.4697107081203105 -8.612904795607339 Z" fill="#A0AAE5" stroke="#111" stroke-width="1" fill-opacity="0.9"/>
    <circle r="5.76" fill="#fff" stroke="#111" stroke-width="1.5"/>
  </g>
</svg>