<?xml version="1.0" encoding="UTF-8"?>
<svg xmlns="http://www.w3.org/2000/svg" width="64" height="64" viewBox="-32 -32 64 64">
  <g>
    <path d="M 5.486417660180143e-16 -8.96 L 1.8810574834903343e-15 -30.72 A 30.72 30.72 0 1 1 -27.051894738638993 -14.557245311170513 L -7.890135965436374 -4.245863215758067 A 8.96 8.96 0 1 0 5.486417660180143e-16 -8.96 Z" fill="#51BF7E" stroke="#111" stroke-width="1" fill-opacity="0.9"/><path d="M -7.890135965436374 -4.245863215758067 L -24.041521208408103 -12.937294236348675 A 27.30143447096136 27.30143447096136 0 0 1 -17.96267101215087 -20.55993128104839 L -5.8951309844198265 -6.747520335392354 A 8.96 8.96 0 0 0 -7.890135965436374 -4.245863215758067 Z" fill="#7F142A" stroke="#111" stroke-width="1" fill-opacity="0.9"/><path d="M -5.8951309844198265 -6.747520335392354 L -18.291893195566484 -20.93675639033436 A 27.801818732345875 27.801818732345875 0 0 1 -5.1071112481563445e-15 -27.801818732345875 L -1.6459252980540428e-15 -8.96 A 8.96 8.96 0 0 0 -5.8951309844198265 -6.747520335392354 Z" fill="#A0AAE5" stroke="#111" stroke-width="1" fill-opacity="0.9"/>
    <circle r="5.76" fill="#fff" stroke="#111" stroke-width="1.5"/>
  </g>
</svg>