<?xml version="1.0" encoding="UTF-8"?>
<svg xmlns="http://www.w3.org/2000/svg" width="64" height="64" viewBox="-32 -32 64 64">
  <g>
    <path d="M 5.486417660180143e-16 -8.96 L 1.4909446937580508e-15 -24.348974656139298 A 24.348974656139298 24.348974656139298 0 0 1 4.007709507283223 -24.01688637834941 L 1.4747675289153765 -8.837797278488393 A 8.96 8.96 0 0 0 5.486417660180143e-16 -8.96 Z" fill="#51BF7E" stroke="#111" stroke-width="1" fill-opacity="0.9"/><path d="M 1.4747675289153765 -8.837797278488393 L 4.2067039622504305 -25.209394769035832 A 25.557972197478904 25.557972197478904 0 0 1 12.164250238704094 -22.477565681747926 L 4.26448864161218 -7.880084810810143 A 8.96 8.96 0 0 0 1.4747675289153765 -8.837797278488393 Z" fill="#7F142A" stroke="#111" stroke-width="1" fill-opacity="0.9"/><path d="M 4.26448864161218 -7.880084810810143 L 14.621103914098903 -27.017433637063345 A 30.72 30.72 0 1 1 -3.292801350365885e-14 -30.72 L -9.604003938567165e-15 -8.96 A 8.96 8.96 0 1 0 4.26448864161218 -7.880084810810143 Z" fill="#A0AAE5" stroke="#111" stroke-width="1" fill-opacity="0.9"/>
    <circle r="5.76" fill="#fff" stroke="#111" stroke-width="1.5"/>
  </g>
</svg>