<?xml version="1.0" encoding="UTF-8"?>
<svg xmlns="http://www.w3.org/2000/svg" width="64" height="64" viewBox="-32 -32 64 64">
  <g>
    <path d="M 5.486417660180143e-16 -8.96 L 1.8810574834903343e-15 -30.72 A 30.72 30.72 0 0 1 23.216626924162814 20.117321746799156 L 6.771516186214154 5.867552176149755 A 8.96 8.96 0 0 0 5.486417660180143e-16 -8.96 Z" fill="#A0AAE5" stroke="#111" stroke-width="1" fill-opacity="0.9"/><path d="M 6.771516186214154 5.867552176149755 L 22.50938812205744 19.504495836289006 A 29.784188950804683 29.784188950804683 0 0 1 -29.75045356701422 1.4171887715356355 L -8.949851359079751 0.4263339657807345 A 8.96 8.96 0 0 0 6.771516186214154 5.867552176149755 Z" fill="#7F142A" stroke="#111" stroke-width="1" fill-opacity="0.9"/><path d="M -8.949851359079751 0.4263339657807345 L -22.630338436530227 1.0780158849027144 A 22.656 22.656 0 0 1 -22.630338436530227 -1.0780158849026886 L -8.949851359079751 -0.4263339657807244 A 8.96 8.96 0 0 0 -8.949851359079751 0.4263339657807345 Z" fill="#4A0D19" stroke="#111" stroke-width="1" fill-opacity="0.9"/><path d="M -8.949851359079751 -0.4263339657807244 L -28.85407014958547 -1.3744887665992325 A 28.886789083709303 28.886789083709303 0 0 1 -3.096303974693115e-14 -28.886789083709303 L -9.604003938567165e-15 -8.96 A 8.96 8.96 0 0 0 -8.949851359079751 -0.4263339657807244 Z" fill="#51BF7E" stroke="#111" stroke-width="1" fill-opacity="0.9"/>
    <circle r="5.76" fill="#fff" stroke="#111" stroke-width="1.5"/>
  </g>
</svg>