<?xml version="1.0" encoding="UTF-8"?>
<svg xmlns="http://www.w3.org/2000/svg" width="64" height="64" viewBox="-32 -32 64 64">
  <g>
    <path d="M 5.486417660180143e-16 -8.96 L 1.8810574834903343e-15 -30.72 A 30.72 30.72 0 0 1 30.670974071297724 1.7348629680128975 L 8.94570077079517 0.5060016990037618 A 8.96 8.96 0 0 0 5.486417660180143e-16 -8.96 Z" fill="#A0AAE5" stroke="#111" stroke-width="1" fill-opacity="0.9"/><path d="M 8.94570077079517 0.5060016990037618 L 22.61984337758207 1.2794614389095118 A 22.656 22.656 0 0 1 -22.021015970589044 5.326273708988508 L -8.70887637254934 2.10643593010845 A 8.96 8.96 0 0 0 8.94570077079517 0.5060016990037618 Z" fill="#7B86C9" stroke="#111" stroke-width="1" fill-opacity="0.9"/><path d="M -8.70887637254934 2.10643593010845 L -29.6971329690219 7.182913757316809 A 30.55346063255059 30.55346063255059 0 0 1 -5.612579664979162e-15 -30.55346063255059 L -1.6459252980540428e-15 -8.96 A 8.96 8.96 0 0 0 -8.70887637254934 2.10643593010845 Z" fill="#7F142A" stroke="#111" stroke-width="1" fill-opacity="0.9"/>
    <circle r="5.76" fill="#fff" stroke="#111" stroke-width="1.5"/>
  </g>
</svg>