<?xml version="1.0" encoding="UTF-8"?>
<svg xmlns="http://www.w3.org/2000/svg" width="64" height="64" viewBox="-32 -32 64 64">
  <g>
    <path d="M 5.486417660180143e-16 -8.96 L 1.640687400681968e-15 -26.794458644309174 A 26.794458644309174 26.794458644309174 0 0 1 10.460269288550096 -24.668315314439496 L 3.4978879054649137 -8.249022984620803 A 8.96 8.96 0 0 0 5.486417660180143e-16 -8.96 Z" fill="#51BF7E" stroke="#111" stroke-width="1" fill-opacity="0.9"/><path d="M 3.4978879054649137 -8.249022984620803 L 8.844659418104138 -20.85824383254117 A 22.656 22.656 0 1 1 -20.55105174156522 9.536697977576358 L -8.127534587059694 3.7715754713578824 A 8.96 8.96 0 1 0 3.4978879054649137 -8.249022984620803 Z" fill="#004F61" stroke="#111" stroke-width="1" fill-opacity="0.9"/><path d="M -8.127534587059694 3.7715754713578824 L -27.865832869918947 12.931115901798453 A 30.72 30.72 0 0 1 -5.643172450471003e-15 -30.72 L -1.6459252980540428e-15 -8.96 A 8.96 8.96 0 0 0 -8.127534587059694 3.7715754713578824 Z" fill="#A0AAE5" stroke="#111" stroke-width="1" fill-opacity="0.9"/>
    <circle r="5.76" fill="#fff" stroke="#111" stroke-width="1.5"/>
  </g>
</svg>