<?xml version="1.0" encoding="UTF-8"?>
<svg xmlns="http://www.w3.org/2000/svg" width="64" height="64" viewBox="-32 -32 64 64">
  <g>
    <path d="M 5.486417660180143e-16 -8.96 L 1.7976729344145454e-15 -29.358226970685024 A 29.358226970685024 29.358226970685024 0 0 1 28.912209535422722 -5.098002612991579 L 8.823877466989385 -1.5558876718956962 A 8.96 8.96 0 0 0 5.486417660180143e-16 -8.96 Z" fill="#7F142A" stroke="#111" stroke-width="1" fill-opacity="0.9"/><path d="M 8.823877466989385 -1.5558876718956962 L 30.25329417253503 -5.334472017928101 A 30.72 30.72 0 1 1 -10.506858802964537 -28.867357310543106 L -3.0645004841979904 -8.41964588224174 A 8.96 8.96 0 1 0 8.823877466989385 -1.5558876718956962 Z" fill="#A0AAE5" stroke="#111" stroke-width="1" fill-opacity="0.9"/><path d="M -3.0645004841979904 -8.41964588224174 L -7.748808367186347 -21.28967601652554 A 22.656 22.656 0 0 1 -4.1618396822223646e-15 -22.656 L -1.6459252980540428e-15 -8.96 A 8.96 8.96 0 0 0 -3.0645004841979904 -8.41964588224174 Z" fill="#4A0D19" stroke="#111" stroke-width="1" fill-opacity="0.9"/>
    <circle r="5.76" fill="#fff" stroke="#111" stroke-width="1.5"/>
  </g>
</svg>