<?xml version="1.0" encoding="UTF-8"?>
<svg xmlns="http://www.w3.org/2000/svg" width="64" height="64" viewBox="-32 -32 64 64">
  <g>
    <path d="M 5.486417660180143e-16 -8.96 L 1.3872798940741216e-15 -22.656 A 22.656 22.656 0 0 1 21.36810686738126 -7.529830337011167 L 8.450663732862647 -2.97789900333775 A 8.96 8.96 0 0 0 5.486417660180143e-16 -8.96 Z" fill="#4A0D19" stroke="#111" stroke-width="1" fill-opacity="0.9"/><path d="M 8.450663732862647 -2.97789900333775 L 23.350125167041288 -8.228266638079722 A 24.75747800531853 24.75747800531853 0 0 1 24.184300741465723 -5.2964436020948344 L 8.752560927126025 -1.9168404255302156 A 8.96 8.96 0 0 0 8.450663732862647 -2.97789900333775 Z" fill="#A0AAE5" stroke="#111" stroke-width="1" fill-opacity="0.9"/><path d="M 8.752560927126025 -1.9168404255302156 L 30.008780321574935 -6.572024316103596 A 30.72 30.72 0 1 1 -7.49302948172933 -29.792161874995493 L -2.185466932171055 -8.689380546873688 A 8.96 8.96 0 1 0 8.752560927126025 -1.9168404255302156 Z" fill="#7F142A" stroke="#111" stroke-width="1" fill-opacity="0.9"/><path d="M -2.185466932171055 -8.689380546873688 L -5.861683674044987 -23.30595779757467 A 24.031791534484007 24.031791534484007 0 0 1 -2.9532257832834827 -23.84964280298233 L -1.1010790843558371 -8.892087766660545 A 8.96 8.96 0 0 0 -2.185466932171055 -8.689380546873688 Z" fill="#51BF7E" stroke="#111" stroke-width="1" fill-opacity="0.9"/><path d="M -1.1010790843558371 -8.892087766660545 L -2.784157113299759 -22.484279067127375 A 22.656 22.656 0 0 1 -4.1618396822223646e-15 -22.656 L -1.6459252980540428e-15 -8.96 A 8.96 8.96 0 0 0 -1.1010790843558371 -8.892087766660545 Z" fill="#e0e0e0" stroke="#111" stroke-width="1" fill-opacity="0.9"/>
    <circle r="5.76" fill="#fff" stroke="#111" stroke-width="1.5"/>
  </g>
</svg>