<?xml version="1.0" encoding="UTF-8"?>
<svg xmlns="http://www.w3.org/2000/svg" width="64" height="64" viewBox="-32 -32 64 64">
  <g>
    <path d="M 5.486417660180143e-16 -8.96 L 1.7656685091266496e-15 -28.835555040946936 A 28.835555040946936 28.835555040946936 0 0 1 18.71700285566313 -21.93542884514863 L 5.815887550927973 -6.815941020501941 A 8.96 8.96 0 0 0 5.486417660180143e-16 -8.96 Z" fill="#7F142A" stroke="#111" stroke-width="1" fill-opacity="0.9"/><path d="M 5.815887550927973 -6.815941020501941 L 19.940185888895904 -23.368940641720936 A 30.72 30.72 0 1 1 -18.14903795328964 -24.78569791976922 L -5.2934694030428115 -7.229161893266023 A 8.96 8.96 0 1 0 5.815887550927973 -6.815941020501941 Z" fill="#A0AAE5" stroke="#111" stroke-width="1" fill-opacity="0.9"/><path d="M -5.2934694030428115 -7.229161893266023 L -13.384915490551107 -18.2794522158298 A 22.656 22.656 0 0 1 -4.1618396822223646e-15 -22.656 L -1.6459252980540428e-15 -8.96 A 8.96 8.96 0 0 0 -5.2934694030428115 -7.229161893266023 Z" fill="#7B86C9" stroke="#111" stroke-width="1" fill-opacity="0.9"/>
    <circle r="5.76" fill="#fff" stroke="#111" stroke-width="1.5"/>
  </g>
</svg>