<?xml version="1.0" encoding="UTF-8"?>
<svg xmlns="http://www.w3.org/2000/svg" width="64" height="64" viewBox="-32 -32 64 64">
  <g>
    <path d="M 5.486417660180143e-16 -8.96 L 1.3872798940741216e-15 -22.656 A 22.656 22.656 0 0 1 3.729055037400309 -22.347001689892075 L 1.4747675289153765 -8.837797278488393 A 8.96 8.96 0 0 0 5.486417660180143e-16 -8.96 Z" fill="#004F61" stroke="#111" stroke-width="1" fill-opacity="0.9"/><path d="M 1.4747675289153765 -8.837797278488393 L 5.056345813424148 -30.30101924053163 A 30.72 30.72 0 1 1 -29.77997616965623 -7.54131416496534 L -8.685826382816401 -2.199549964781558 A 8.96 8.96 0 1 0 1.4747675289153765 -8.837797278488393 Z" fill="#7F142A" stroke="#111" stroke-width="1" fill-opacity="0.9"/><path d="M -8.685826382816401 -2.199549964781558 L -27.88182338213345 -7.060636597519885 A 28.761930816179934 28.761930816179934 0 0 1 -5.283480976699856e-15 -28.761930816179934 L -1.6459252980540428e-15 -8.96 A 8.96 8.96 0 0 0 -8.685826382816401 -2.199549964781558 Z" fill="#A0AAE5" stroke="#111" stroke-width="1" fill-opacity="0.9"/>
    <circle r="5.76" fill="#fff" stroke="#111" stroke-width="1.5"/>
  </g>
</svg>