<?xml version="1.0" encoding="UTF-8"?>
<svg xmlns="http://www.w3.org/2000/svg" width="64" height="64" viewBox="-32 -32 64 64">
  <g>
    <path d="M 5.486417660180143e-16 -8.96 L 1.8306745773333435e-15 -29.8971847002406 A 29.8971847002406 29.8971847002406 0 0 1 26.286195752734802 14.243509604349889 L 7.877809108314082 4.2686910936449465 A 8.96 8.96 0 0 0 5.486417660180143e-16 -8.96 Z" fill="#A0AAE5" stroke="#111" stroke-width="1" fill-opacity="0.9"/><path d="M 7.877809108314082 4.2686910936449465 L 27.009631228505423 14.635512321068386 A 30.72 30.72 0 1 1 -2.4878461014385063 -30.61909570473232 L -0.7256217795862312 -8.930569580546928 A 8.96 8.96 0 1 0 7.877809108314082 4.2686910936449465 Z" fill="#7F142A" stroke="#111" stroke-width="1" fill-opacity="0.9"/><path d="M -0.7256217795862312 -8.930569580546928 L -1.9486516464229398 -23.982975161730675 A 24.062010324312002 24.062010324312002 0 0 1 -4.420119588707889e-15 -24.062010324312002 L -1.6459252980540428e-15 -8.96 A 8.96 8.96 0 0 0 -0.7256217795862312 -8.930569580546928 Z" fill="#51BF7E" stroke="#111" stroke-width="1" fill-opacity="0.9"/>
    <circle r="5.76" fill="#fff" stroke="#111" stroke-width="1.5"/>
  </g>
</svg>