<?xml version="1.0" encoding="UTF-8"?>
<svg xmlns="http://www.w3.org/2000/svg" width="64" height="64" viewBox="-32 -32 64 64">
  <g>
    <path d="M 5.486417660180143e-16 -8.96 L 1.77860976056342e-15 -29.046901715690716 A 29.046901715690716 29.046901715690716 0 0 1 14.523450857845354 25.15535478701796 L 4.4799999999999995 7.759587617908571 A 8.96 8.96 0 0 0 5.486417660180143e-16 -8.96 Z" fill="#51BF7E" stroke="#111" stroke-width="1" fill-opacity="0.9"/><path d="M 4.4799999999999995 7.759587617908571 L 15.359999999999996 26.604300404257955 A 30.72 30.72 0 1 1 -15.359999999999987 -26.60430040425796 L -4.479999999999997 -7.759587617908573 A 8.96 8.96 0 1 0 4.4799999999999995 7.759587617908571 Z" fill="#7F142A" stroke="#111" stroke-width="1" fill-opacity="0.9"/><path d="M -4.479999999999997 -7.759587617908573 L -14.90356650767068 -25.8137344052675 A 29.807133015341385 29.807133015341385 0 0 1 2.0998570791507755e-14 -29.807133015341385 L 6.31215334245908e-15 -8.96 A 8.96 8.96 0 0 0 -4.479999999999997 -7.759587617908573 Z" fill="#A0AAE5" stroke="#111" stroke-width="1" fill-opacity="0.9"/>
    <circle r="5.76" fill="#fff" stroke="#111" stroke-width="1.5"/>
  </g>
</svg>