<?xml version="1.0" encoding="UTF-8"?>
<svg xmlns="http://www.w3.org/2000/svg" width="64" height="64" viewBox="-32 -32 64 64">
  <g>
    <path d="M 5.486417660180143e-16 -8.96 L 1.8810574834903343e-15 -30.72 A 30.72 30.72 0 1 1 -8.654824146168712 29.475624149437362 L -2.524323709299208 8.597057043585899 A 8.96 8.96 0 1 0 5.486417660180143e-16 -8.96 Z" fill="#7F142A" stroke="#111" stroke-width="1" fill-opacity="0.9"/><path d="M -2.524323709299208 8.597057043585899 L -8.335264703851248 28.38730463467021 A 29.585734773786456 29.585734773786456 0 0 1 -27.958543583503236 9.676546015711759 L -8.46720733568343 2.9305289513240997 A 8.96 8.96 0 0 0 -2.524323709299208 8.597057043585899 Z" fill="#A0AAE5" stroke="#111" stroke-width="1" fill-opacity="0.9"/><path d="M -8.46720733568343 2.9305289513240997 L -28.097049017657103 9.724483212547964 A 29.73230124379465 29.73230124379465 0 0 1 -5.461735132424698e-15 -29.73230124379465 L -1.6459252980540428e-15 -8.96 A 8.96 8.96 0 0 0 -8.46720733568343 2.9305289513240997 Z" fill="#51BF7E" stroke="#111" stroke-width="1" fill-opacity="0.9"/>
    <circle r="5.76" fill="#fff" stroke="#111" stroke-width="1.5"/>
  </g>
</svg>