<?xml version="1.0" encoding="UTF-8"?>
<svg xmlns="http://www.w3.org/2000/svg" width="64" height="64" viewBox="-32 -32 64 64">
  <g>
    <path d="M 5.486417660180143e-16 -8.96 L 1.3872798940741216e-15 -22.656 A 22.656 22.656 0 0 1 14.152445612198983 -17.69188003559118 L 5.597012389005248 -6.99678871464058 A 8.96 8.96 0 0 0 5.486417660180143e-16 -8.96 Z" fill="#4A0D19" stroke="#111" stroke-width="1" fill-opacity="0.9"/><path d="M 5.597012389005248 -6.99678871464058 L 19.189756762303706 -23.9889898787677 A 30.72 30.72 0 0 1 19.69125018118121 23.57908111657727 L 5.743281302844521 6.877231992335038 A 8.96 8.96 0 0 0 5.597012389005248 -6.99678871464058 Z" fill="#A0AAE5" stroke="#111" stroke-width="1" fill-opacity="0.9"/><path d="M 5.743281302844521 6.877231992335038 L 14.522297008621143 17.389572323475736 A 22.656 22.656 0 0 1 8.835301380697748 20.86220950695876 L 3.494186986716624 8.250591330435668 A 8.96 8.96 0 0 0 5.743281302844521 6.877231992335038 Z" fill="#7B86C9" stroke="#111" stroke-width="1" fill-opacity="0.9"/><path d="M 3.494186986716624 8.250591330435668 L 11.950198020580492 28.217207768333715 A 30.643401361017325 30.643401361017325 0 1 1 -2.5813422726046342 -30.53448409657617 L -0.7547734825534288 -8.928153055925632 A 8.96 8.96 0 1 0 3.494186986716624 8.250591330435668 Z" fill="#7F142A" stroke="#111" stroke-width="1" fill-opacity="0.9"/><path d="M -0.7547734825534288 -8.928153055925632 L -1.9084986630279555 -22.575472727126236 A 22.656 22.656 0 0 1 -2.42844099589484e-14 -22.656 L -9.604003938567165e-15 -8.96 A 8.96 8.96 0 0 0 -0.7547734825534288 -8.928153055925632 Z" fill="#e0e0e0" stroke="#111" stroke-width="1" fill-opacity="0.9"/>
    <circle r="5.76" fill="#fff" stroke="#111" stroke-width="1.5"/>
  </g>
</svg>