<?xml version="1.0" encoding="UTF-8"?>
<svg xmlns="http://www.w3.org/2000/svg" width="64" height="64" viewBox="-32 -32 64 64">
  <g>
    <path d="M 5.486417660180143e-16 -8.96 L 1.3872798940741216e-15 -22.656 A 22.656 22.656 0 1 1 -13.316862675938268 18.329089024558808 L -5.266555860540559 7.24879226959953 A 8.96 8.96 0 1 0 5.486417660180143e-16 -8.96 Z" fill="#004F61" stroke="#111" stroke-width="1" fill-opacity="0.9"/><path d="M -5.266555860540559 7.24879226959953 L -18.05676295042477 24.853002067198386 A 30.72 30.72 0 0 1 -29.21645618058712 -9.49300206719838 L -8.521466386004578 -2.768792269599528 A 8.96 8.96 0 0 0 -5.266555860540559 7.24879226959953 Z" fill="#7F142A" stroke="#111" stroke-width="1" fill-opacity="0.9"/><path d="M -8.521466386004578 -2.768792269599528 L -21.547136433183 -7.001089024558805 A 22.656 22.656 0 0 1 -4.1618396822223646e-15 -22.656 L -1.6459252980540428e-15 -8.96 A 8.96 8.96 0 0 0 -8.521466386004578 -2.768792269599528 Z" fill="#e0e0e0" stroke="#111" stroke-width="1" fill-opacity="0.9"/>
    <circle r="5.76" fill="#fff" stroke="#111" stroke-width="1.5"/>
  </g>
</svg>