<?xml version="1.0" encoding="UTF-8"?>
<svg xmlns="http://www.w3.org/2000/svg" width="64" height="64" viewBox="-32 -32 64 64">
  <g>
    <path d="M 5.486417660180143e-16 -8.96 L 1.3872798940741216e-15 -22.656 A 22.656 22.656 0 0 1 21.791121771723386 -6.200108703073111 L 8.617957762828459 -2.4520203910458633 A 8.96 8.96 0 0 0 5.486417660180143e-16 -8.96 Z" fill="#004F61" stroke="#111" stroke-width="1" fill-opacity="0.9"/><path d="M 8.617957762828459 -2.4520203910458633 L 21.791121771723386 -6.200108703073111 A 22.656 22.656 0 0 1 -4.163029075652214 22.270238546438478 L -1.6463956796364692 8.807438973167761 A 8.96 8.96 0 0 0 8.617957762828459 -2.4520203910458633 Z" fill="#4A0D19" stroke="#111" stroke-width="1" fill-opacity="0.9"/><path d="M -1.6463956796364692 8.807438973167761 L -5.644785187325036 30.19693362228946 A 30.72 30.72 0 0 1 -30.588953895783458 2.83448400271266 L -8.92177821960351 0.8267245007911926 A 8.96 8.96 0 0 0 -1.6463956796364692 8.807438973167761 Z" fill="#7F142A" stroke="#111" stroke-width="1" fill-opacity="0.9"/><path d="M -8.92177821960351 0.8267245007911926 L -22.5593534981403 2.0904319520005865 A 22.656 22.656 0 0 1 -2.42844099589484e-14 -22.656 L -9.604003938567165e-15 -8.96 A 8.96 8.96 0 0 0 -8.92177821960351 0.8267245007911926 Z" fill="#e0e0e0" stroke="#111" stroke-width="1" fill-opacity="0.9"/>
    <circle r="5.76" fill="#fff" stroke="#111" stroke-width="1.5"/>
  </g>
</svg>