<?xml version="1.0" encoding="UTF-8"?>
<svg xmlns="http://www.w3.org/2000/svg" width="64" height="64" viewBox="-32 -32 64 64">
  <g>
    <path d="M 5.486417660180143e-16 -8.96 L 1.558191338030312e-15 -25.44719569944878 A 25.44719569944878 25.44719569944878 0 0 1 19.895418738354113 -15.866067004509734 L 7.005210082913548 -5.586468624654253 A 8.96 8.96 0 0 0 5.486417660180143e-16 -8.96 Z" fill="#51BF7E" stroke="#111" stroke-width="1" fill-opacity="0.9"/><path d="M 7.005210082913548 -5.586468624654253 L 17.713174066795684 -14.125784950911465 A 22.656 22.656 0 0 1 22.087966778391394 5.041434279714259 L 8.735354093149141 1.993787568248577 A 8.96 8.96 0 0 0 7.005210082913548 -5.586468624654253 Z" fill="#4A0D19" stroke="#111" stroke-width="1" fill-opacity="0.9"/><path d="M 8.735354093149141 1.993787568248577 L 29.94978546222562 6.835843091137978 A 30.72 30.72 0 1 1 -5.643172450471003e-15 -30.72 L -1.6459252980540428e-15 -8.96 A 8.96 8.96 0 1 0 8.735354093149141 1.993787568248577 Z" fill="#7F142A" stroke="#111" stroke-width="1" fill-opacity="0.9"/>
    <circle r="5.76" fill="#fff" stroke="#111" stroke-width="1.5"/>
  </g>
</svg>