<?xml version="1.0" encoding="UTF-8"?>
<svg xmlns="http://www.w3.org/2000/svg" width="64" height="64" viewBox="-32 -32 64 64">
  <g>
    <path d="M 5.486417660180143e-16 -8.96 L 1.8810574834903343e-15 -30.72 A 30.72 30.72 0 1 1 -16.64924329520786 25.817069889841797 L -4.8560292944356265 7.5299787178705255 A 8.96 8.96 0 1 0 5.486417660180143e-16 -8.96 Z" fill="#A0AAE5" stroke="#111" stroke-width="1" fill-opacity="0.9"/><path d="M -4.8560292944356265 7.5299787178705255 L -12.278816930215797 19.040089043758325 A 22.656 22.656 0 0 1 -18.932812494940073 12.443590600443306 L -7.487552964100595 4.9211940227741895 A 8.96 8.96 0 0 0 -4.8560292944356265 7.5299787178705255 Z" fill="#7B86C9" stroke="#111" stroke-width="1" fill-opacity="0.9"/><path d="M -7.487552964100595 4.9211940227741895 L -25.108240378806702 16.50239044277711 A 30.04584206251841 30.04584206251841 0 0 1 -5.519331646432512e-15 -30.04584206251841 L -1.6459252980540428e-15 -8.96 A 8.96 8.96 0 0 0 -7.487552964100595 4.9211940227741895 Z" fill="#7F142A" stroke="#111" stroke-width="1" fill-opacity="0.9"/>
    <circle r="5.76" fill="#fff" stroke="#111" stroke-width="1.5"/>
  </g>
</svg>