<?xml version="1.0" encoding="UTF-8"?>
<svg xmlns="http://www.w3.org/2000/svg" width="64" height="64" viewBox="-32 -32 64 64">
  <g>
    <path d="M 5.486417660180143e-16 -8.96 L 1.8549103690082176e-15 -30.29298521499715 A 30.29298521499715 30.29298521499715 0 0 1 8.534520178980783 29.065906463597614 L 2.524323709299213 8.597057043585897 A 8.96 8.96 0 0 0 5.486417660180143e-16 -8.96 Z" fill="#A0AAE5" stroke="#111" stroke-width="1" fill-opacity="0.9"/><path d="M 2.524323709299213 8.597057043585897 L 8.65482414616873 29.475624149437355 A 30.72 30.72 0 0 1 -27.943894897290807 -12.76154919941794 L -8.150302678376487 -3.7221185164969 A 8.96 8.96 0 0 0 2.524323709299213 8.597057043585897 Z" fill="#7F142A" stroke="#111" stroke-width="1" fill-opacity="0.9"/><path d="M -8.150302678376487 -3.7221185164969 L -20.608622486751973 -9.411642534570731 A 22.656 22.656 0 0 1 -4.1618396822223646e-15 -22.656 L -1.6459252980540428e-15 -8.96 A 8.96 8.96 0 0 0 -8.150302678376487 -3.7221185164969 Z" fill="#4A0D19" stroke="#111" stroke-width="1" fill-opacity="0.9"/>
    <circle r="5.76" fill="#fff" stroke="#111" stroke-width="1.5"/>
  </g>
</svg>