<?xml version="1.0" encoding="UTF-8"?>
<svg xmlns="http://www.w3.org/2000/svg" width="64" height="64" viewBox="-32 -32 64 64">
  <g>
    <path d="M 5.486417660180143e-16 -8.96 L 1.3872798940741216e-15 -22.656 A 22.656 22.656 0 0 1 12.24875836027402 -19.059440039823237 L 4.844141724402156 -7.537631654167384 A 8.96 8.96 0 0 0 5.486417660180143e-16 -8.96 Z" fill="#e0e0e0" stroke="#111" stroke-width="1" fill-opacity="0.9"/><path d="M 4.844141724402156 -7.537631654167384 L 14.205749440274062 -22.104577599945312 A 26.275761987654153 26.275761987654153 0 0 1 18.132351858379632 -19.016663327612648 L 6.183107942879724 -6.48465698142143 A 8.96 8.96 0 0 0 4.844141724402156 -7.537631654167384 Z" fill="#A0AAE5" stroke="#111" stroke-width="1" fill-opacity="0.9"/><path d="M 6.183107942879724 -6.48465698142143 L 21.199227232730482 -22.233109650587757 A 30.72 30.72 0 1 1 -5.643172450471003e-15 -30.72 L -1.6459252980540428e-15 -8.96 A 8.96 8.96 0 1 0 6.183107942879724 -6.48465698142143 Z" fill="#7F142A" stroke="#111" stroke-width="1" fill-opacity="0.9"/>
    <circle r="5.76" fill="#fff" stroke="#111" stroke-width="1.5"/>
  </g>
</svg>