<?xml version="1.0" encoding="UTF-8"?>
<svg xmlns="http://www.w3.org/2000/svg" width="64" height="64" viewBox="-32 -32 64 64">
  <g>
    <path d="M 5.486417660180143e-16 -8.96 L 1.6192609330445884e-15 -26.444537872829635 A 26.444537872829635 26.444537872829635 0 0 1 15.353775060015984 -21.53079596099392 L 5.202201876217658 -7.295114504864025 A 8.96 8.96 0 0 0 5.486417660180143e-16 -8.96 Z" fill="#51BF7E" stroke="#111" stroke-width="1" fill-opacity="0.9"/><path d="M 5.202201876217658 -7.295114504864025 L 17.83612071846054 -25.0118211595338 A 30.72 30.72 0 1 1 -26.139694608754542 16.137991379383266 L -7.624077594220076 4.70691415232012 A 8.96 8.96 0 1 0 5.202201876217658 -7.295114504864025 Z" fill="#7F142A" stroke="#111" stroke-width="1" fill-opacity="0.9"/><path d="M -7.624077594220076 4.70691415232012 L -24.365065556547588 15.042379943413108 A 28.63441310620594 28.63441310620594 0 0 1 -7.513067263055257 -27.631203995440842 L -2.3509153977521358 -8.646085634124377 A 8.96 8.96 0 0 0 -7.624077594220076 4.70691415232012 Z" fill="#A0AAE5" stroke="#111" stroke-width="1" fill-opacity="0.9"/><path d="M -2.3509153977521358 -8.646085634124377 L -5.944457505744685 -21.86224510342878 A 22.656 22.656 0 0 1 -4.1618396822223646e-15 -22.656 L -1.6459252980540428e-15 -8.96 A 8.96 8.96 0 0 0 -2.3509153977521358 -8.646085634124377 Z" fill="#7B86C9" stroke="#111" stroke-width="1" fill-opacity="0.9"/>
    <circle r="5.76" fill="#fff" stroke="#111" stroke-width="1.5"/>
  </g>
</svg>