<?xml version="1.0" encoding="UTF-8"?>
<svg xmlns="http://www.w3.org/2000/svg" width="64" height="64" viewBox="-32 -32 64 64">
  <g>
    <path d="M 5.486417660180143e-16 -8.96 L 1.8666104517165733e-15 -30.48406206615949 A 30.48406206615949 30.48406206615949 0 0 1 24.29788378576992 18.408989206001593 L 7.141733219411674 5.410845278027433 A 8.96 8.96 0 0 0 5.486417660180143e-16 -8.96 Z" fill="#7F142A" stroke="#111" stroke-width="1" fill-opacity="0.9"/><path d="M 7.141733219411674 5.410845278027433 L 24.48594246655431 18.551469524665485 A 30.72 30.72 0 1 1 -3.279178021426672 -30.544482177699333 L -0.9564269229161128 -8.908807301828974 A 8.96 8.96 0 1 0 7.141733219411674 5.410845278027433 Z" fill="#A0AAE5" stroke="#111" stroke-width="1" fill-opacity="0.9"/><path d="M -0.9564269229161128 -8.908807301828974 L -2.4183937908021704 -22.526555606053257 A 22.656 22.656 0 0 1 -4.1618396822223646e-15 -22.656 L -1.6459252980540428e-15 -8.96 A 8.96 8.96 0 0 0 -0.9564269229161128 -8.908807301828974 Z" fill="#7B86C9" stroke="#111" stroke-width="1" fill-opacity="0.9"/>
    <circle r="5.76" fill="#fff" stroke="#111" stroke-width="1.5"/>
  </g>
</svg>