<?xml version="1.0" encoding="UTF-8"?>
<svg xmlns="http://www.w3.org/2000/svg" width="64" height="64" viewBox="-32 -32 64 64">
  <g>
    <path d="M 5.486417660180143e-16 -8.96 L 1.8810574834903343e-15 -30.72 A 30.72 30.72 0 1 1 -10.506858802964542 28.867357310543106 L -3.064500484197992 8.41964588224174 A 8.96 8.96 0 1 0 5.486417660180143e-16 -8.96 Z" fill="#A0AAE5" stroke="#111" stroke-width="1" fill-opacity="0.9"/><path d="M -3.064500484197992 8.41964588224174 L -7.74880836718635 21.28967601652554 A 22.656 22.656 0 0 1 -14.562996085058238 -17.355502903303563 L -5.7593769827913945 -6.863758210346043 A 8.96 8.96 0 0 0 -3.064500484197992 8.41964588224174 Z" fill="#4A0D19" stroke="#111" stroke-width="1" fill-opacity="0.9"/><path d="M -5.7593769827913945 -6.863758210346043 L -16.18977795945929 -19.294226046488156 A 25.186823323110353 25.186823323110353 0 0 1 -4.626744384500549e-15 -25.186823323110353 L -1.6459252980540428e-15 -8.96 A 8.96 8.96 0 0 0 -5.7593769827913945 -6.863758210346043 Z" fill="#51BF7E" stroke="#111" stroke-width="1" fill-opacity="0.9"/>
    <circle r="5.76" fill="#fff" stroke="#111" stroke-width="1.5"/>
  </g>
</svg>