<?xml version="1.0" encoding="UTF-8"?>
<svg xmlns="http://www.w3.org/2000/svg" width="64" height="64" viewBox="-32 -32 64 64">
  <g>
    <path d="M 5.486417660180143e-16 -8.96 L 1.3872798940741216e-15 -22.656 A 22.656 22.656 0 0 1 12.762579235489419 -18.71926567090318 L 5.047347720250054 -7.403099417871315 A 8.96 8.96 0 0 0 5.486417660180143e-16 -8.96 Z" fill="#e0e0e0" stroke="#111" stroke-width="1" fill-opacity="0.9"/><path d="M 5.047347720250054 -7.403099417871315 L 15.922973466631952 -23.354712640198976 A 28.2662994841089 28.2662994841089 0 0 1 24.47933342421728 14.133149742054444 L 7.759587617908571 4.479999999999999 A 8.96 8.96 0 0 0 5.047347720250054 -7.403099417871315 Z" fill="#7F142A" stroke="#111" stroke-width="1" fill-opacity="0.9"/><path d="M 7.759587617908571 4.479999999999999 L 26.604300404257955 15.359999999999994 A 30.72 30.72 0 1 1 -24.017863141417877 -19.153606713100288 L -7.005210082913549 -5.586468624654252 A 8.96 8.96 0 1 0 7.759587617908571 4.479999999999999 Z" fill="#A0AAE5" stroke="#111" stroke-width="1" fill-opacity="0.9"/><path d="M -7.005210082913549 -5.586468624654252 L -17.713174066795684 -14.125784950911463 A 22.656 22.656 0 0 1 -12.762579235489419 -18.71926567090318 L -5.047347720250054 -7.403099417871315 A 8.96 8.96 0 0 0 -7.005210082913549 -5.586468624654252 Z" fill="#7B86C9" stroke="#111" stroke-width="1" fill-opacity="0.9"/><path d="M -5.047347720250054 -7.403099417871315 L -12.762579235489419 -18.71926567090318 A 22.656 22.656 0 0 1 -4.1618396822223646e-15 -22.656 L -1.6459252980540428e-15 -8.96 A 8.96 8.96 0 0 0 -5.047347720250054 -7.403099417871315 Z" fill="#004F61" stroke="#111" stroke-width="1" fill-opacity="0.9"/>
    <circle r="5.76" fill="#fff" stroke="#111" stroke-width="1.5"/>
  </g>
</svg>