<?xml version="1.0" encoding="UTF-8"?>
<svg xmlns="http://www.w3.org/2000/svg" width="64" height="64" viewBox="-32 -32 64 64">
  <g>
    <path d="M 5.486417660180143e-16 -8.96 L 1.558142362043e-15 -25.446395860877427 A 25.446395860877427 25.446395860877427 0 0 1 4.418720269432686 -25.05980793000985 L 1.5558876718956967 -8.823877466989385 A 8.96 8.96 0 0 0 5.486417660180143e-16 -8.96 Z" fill="#A0AAE5" stroke="#111" stroke-width="1" fill-opacity="0.9"/><path d="M 1.5558876718956967 -8.823877466989385 L 5.334472017928102 -30.25329417253503 A 30.72 30.72 0 1 1 -10.506858802964564 -28.8673573105431 L -3.064500484197998 -8.419645882241738 A 8.96 8.96 0 1 0 1.5558876718956967 -8.823877466989385 Z" fill="#7F142A" stroke="#111" stroke-width="1" fill-opacity="0.9"/><path d="M -3.064500484197998 -8.419645882241738 L -7.748808367186365 -21.289676016525537 A 22.656 22.656 0 0 1 -1.9746005076909654 -22.569787079966584 L -0.7809154550190259 -8.92590449490204 A 8.96 8.96 0 0 0 -3.064500484197998 -8.419645882241738 Z" fill="#004F61" stroke="#111" stroke-width="1" fill-opacity="0.9"/><path d="M -0.7809154550190259 -8.92590449490204 L -2.029794015807735 -23.200651764514134 A 23.28927448515436 23.28927448515436 0 0 1 -2.4963201326093104e-14 -23.28927448515436 L -9.604003938567165e-15 -8.96 A 8.96 8.96 0 0 0 -0.7809154550190259 -8.92590449490204 Z" fill="#51BF7E" stroke="#111" stroke-width="1" fill-opacity="0.9"/>
    <circle r="5.76" fill="#fff" stroke="#111" stroke-width="1.5"/>
  </g>
</svg>