<?xml version="1.0" encoding="UTF-8"?>
<svg xmlns="http://www.w3.org/2000/svg" width="64" height="64" viewBox="-32 -32 64 64">
  <g>
    <path d="M 5.486417660180143e-16 -8.96 L 1.8080088806572116e-15 -29.527025782715764 A 29.527025782715764 29.527025782715764 0 0 1 29.365273646014355 3.0864146299316593 L 8.91091618249973 0.9365750308781744 A 8.96 8.96 0 0 0 5.486417660180143e-16 -8.96 Z" fill="#7F142A" stroke="#111" stroke-width="1" fill-opacity="0.9"/><path d="M 8.91091618249973 0.9365750308781744 L 30.551712625713353 3.211114391582312 A 30.72 30.72 0 0 1 -30.551712625713357 -3.2111143915823015 L -8.910916182499731 -0.9365750308781715 A 8.96 8.96 0 0 0 8.91091618249973 0.9365750308781744 Z" fill="#A0AAE5" stroke="#111" stroke-width="1" fill-opacity="0.9"/><path d="M -8.910916182499731 -0.9365750308781715 L -22.5318880614636 -2.3681968637919475 A 22.656 22.656 0 0 1 -4.1618396822223646e-15 -22.656 L -1.6459252980540428e-15 -8.96 A 8.96 8.96 0 0 0 -8.910916182499731 -0.9365750308781715 Z" fill="#7B86C9" stroke="#111" stroke-width="1" fill-opacity="0.9"/>
    <circle r="5.76" fill="#fff" stroke="#111" stroke-width="1.5"/>
  </g>
</svg>