<?xml version="1.0" encoding="UTF-8"?>
<svg xmlns="http://www.w3.org/2000/svg" width="64" height="64" viewBox="-32 -32 64 64">
  <g>
    <path d="M 5.486417660180143e-16 -8.96 L 1.5653617009679262e-15 -25.564296612832237 A 25.564296612832237 25.564296612832237 0 0 1 2.8370680238724164 -25.4063831809407 L 0.9943606068604672 -8.904653108545222 A 8.96 8.96 0 0 0 5.486417660180143e-16 -8.96 Z" fill="#51BF7E" stroke="#111" stroke-width="1" fill-opacity="0.9"/><path d="M 0.9943606068604672 -8.904653108545222 L 3.397253846830819 -30.42293391248982 A 30.61202772675358 30.61202772675358 0 0 1 9.216486871680795 29.191653109881695 L 2.697623401735287 8.544262869458674 A 8.96 8.96 0 0 0 0.9943606068604672 -8.904653108545222 Z" fill="#7F142A" stroke="#111" stroke-width="1" fill-opacity="0.9"/><path d="M 2.697623401735287 8.544262869458674 L 9.24899452023527 29.294615552429732 A 30.72 30.72 0 1 1 -3.4092363663787415 -30.530239229297905 L -0.9943606068604665 -8.904653108545222 A 8.96 8.96 0 1 0 2.697623401735287 8.544262869458674 Z" fill="#A0AAE5" stroke="#111" stroke-width="1" fill-opacity="0.9"/><path d="M -0.9943606068604665 -8.904653108545222 L -2.514311820204322 -22.516051431607202 A 22.656 22.656 0 0 1 -0.6297942872225266 -22.647244758596614 L -0.24907118703715744 -8.956537475151205 A 8.96 8.96 0 0 0 -0.9943606068604665 -8.904653108545222 Z" fill="#7B86C9" stroke="#111" stroke-width="1" fill-opacity="0.9"/><path d="M -0.24907118703715744 -8.956537475151205 L -0.6297942872225266 -22.647244758596614 A 22.656 22.656 0 0 1 -4.1618396822223646e-15 -22.656 L -1.6459252980540428e-15 -8.96 A 8.96 8.96 0 0 0 -0.24907118703715744 -8.956537475151205 Z" fill="#4A0D19" stroke="#111" stroke-width="1" fill-opacity="0.9"/>
    <circle r="5.76" fill="#fff" stroke="#111" stroke-width="1.5"/>
  </g>
</svg>