<?xml version="1.0" encoding="UTF-8"?>
<svg xmlns="http://www.w3.org/2000/svg" width="64" height="64" viewBox="-32 -32 64 64">
  <g>
    <path d="M 5.486417660180143e-16 -8.96 L 1.3872798940741216e-15 -22.656 A 22.656 22.656 0 0 1 3.6342779791134157 -22.362610750324553 L 1.4372850764855318 -8.8439703532357 A 8.96 8.96 0 0 0 5.486417660180143e-16 -8.96 Z" fill="#004F61" stroke="#111" stroke-width="1" fill-opacity="0.9"/><path d="M 1.4372850764855318 -8.8439703532357 L 3.6342779791134157 -22.362610750324553 A 22.656 22.656 0 0 1 10.52876818582362 -20.060891717199123 L 4.163919621512167 -7.933685989852761 A 8.96 8.96 0 0 0 1.4372850764855318 -8.8439703532357 Z" fill="#4A0D19" stroke="#111" stroke-width="1" fill-opacity="0.9"/><path d="M 4.163919621512167 -7.933685989852761 L 14.118781710391962 -26.901090998689156 A 30.381058143281535 30.381058143281535 0 0 1 5.676815414239192 29.845978969672103 L 1.6742098274424744 8.802194127244357 A 8.96 8.96 0 0 0 4.163919621512167 -7.933685989852761 Z" fill="#7F142A" stroke="#111" stroke-width="1" fill-opacity="0.9"/><path d="M 1.6742098274424744 8.802194127244357 L 5.740147979802769 30.17895129340922 A 30.72 30.72 0 1 1 -5.643172450471003e-15 -30.72 L -1.6459252980540428e-15 -8.96 A 8.96 8.96 0 1 0 1.6742098274424744 8.802194127244357 Z" fill="#A0AAE5" stroke="#111" stroke-width="1" fill-opacity="0.9"/>
    <circle r="5.76" fill="#fff" stroke="#111" stroke-width="1.5"/>
  </g>
</svg>