<?xml version="1.0" encoding="UTF-8"?>
<svg xmlns="http://www.w3.org/2000/svg" width="64" height="64" viewBox="-32 -32 64 64">
  <g>
    <path d="M 5.486417660180143e-16 -8.96 L 1.3872798940741216e-15 -22.656 A 22.656 22.656 0 0 1 1.023765277509144 -22.632857545095064 L 0.40487892330870107 -8.950847616704264 A 8.96 8.96 0 0 0 5.486417660180143e-16 -8.96 Z" fill="#4A0D19" stroke="#111" stroke-width="1" fill-opacity="0.9"/><path d="M 0.40487892330870107 -8.950847616704264 L 1.3766619728664513 -30.434509749582347 A 30.46562951729308 30.46562951729308 0 1 1 -3.435504130483613 30.271304782820142 L -1.0103883457146503 8.902848723349399 A 8.96 8.96 0 1 0 0.40487892330870107 -8.950847616704264 Z" fill="#A0AAE5" stroke="#111" stroke-width="1" fill-opacity="0.9"/><path d="M -1.0103883457146503 8.902848723349399 L -2.5548391027356154 22.511488914754906 A 22.656 22.656 0 0 1 -18.712395056576877 12.772650752549263 L -7.400382225764868 5.051330806092929 A 8.96 8.96 0 0 0 -1.0103883457146503 8.902848723349399 Z" fill="#7B86C9" stroke="#111" stroke-width="1" fill-opacity="0.9"/><path d="M -7.400382225764868 5.051330806092929 L -25.37273905976526 17.318848478032898 A 30.72 30.72 0 0 1 2.1641668602716842e-14 -30.72 L 6.31215334245908e-15 -8.96 A 8.96 8.96 0 0 0 -7.400382225764868 5.051330806092929 Z" fill="#7F142A" stroke="#111" stroke-width="1" fill-opacity="0.9"/>
    <circle r="5.76" fill="#fff" stroke="#111" stroke-width="1.5"/>
  </g>
</svg>