<?xml version="1.0" encoding="UTF-8"?>
<svg xmlns="http://www.w3.org/2000/svg" width="64" height="64" viewBox="-32 -32 64 64">
  <g>
    <path d="M 5.486417660180143e-16 -8.96 L 1.5147848512227632e-15 -24.738313973913385 A 24.738313973913385 24.738313973913385 0 0 1 2.4097660222647286 -24.620666237733225 L 0.8727960839311953 -8.917389023468381 A 8.96 8.96 0 0 0 5.486417660180143e-16 -8.96 Z" fill="#51BF7E" stroke="#111" stroke-width="1" fill-opacity="0.9"/><path d="M 0.8727960839311953 -8.917389023468381 L 2.2069272407974507 -22.54825510219862 A 22.656 22.656 0 0 1 2.6464632351883504 -22.500901500713173 L 1.0466238783230766 -8.898661610451539 A 8.96 8.96 0 0 0 0.8727960839311953 -8.917389023468381 Z" fill="#004F61" stroke="#111" stroke-width="1" fill-opacity="0.9"/><path d="M 1.0466238783230766 -8.898661610451539 L 3.5884247256791193 -30.509696950119558 A 30.72 30.72 0 1 1 -13.328908465691395 27.67776362196231 L -3.8875983024933243 8.072681056405674 A 8.96 8.96 0 1 0 1.0466238783230766 -8.898661610451539 Z" fill="#7F142A" stroke="#111" stroke-width="1" fill-opacity="0.9"/><path d="M -3.8875983024933243 8.072681056405674 L -11.731557109431341 24.36082935284447 A 27.038480707507546 27.038480707507546 0 0 1 -14.496850734035403 22.823688522352274 L -4.803960103456969 7.5633039952387024 A 8.96 8.96 0 0 0 -3.8875983024933243 8.072681056405674 Z" fill="#A0AAE5" stroke="#111" stroke-width="1" fill-opacity="0.9"/><path d="M -4.803960103456969 7.5633039952387024 L -12.147156261598335 19.124354387960715 A 22.656 22.656 0 0 1 -4.1618396822223646e-15 -22.656 L -1.6459252980540428e-15 -8.96 A 8.96 8.96 0 0 0 -4.803960103456969 7.5633039952387024 Z" fill="#7B86C9" stroke="#111" stroke-width="1" fill-opacity="0.9"/>
    <circle r="5.76" fill="#fff" stroke="#111" stroke-width="1.5"/>
  </g>
</svg>