<?xml version="1.0" encoding="UTF-8"?>
<svg xmlns="http://www.w3.org/2000/svg" width="64" height="64" viewBox="-32 -32 64 64">
  <g>
    <path d="M 5.486417660180143e-16 -8.96 L 1.8810574834903343e-15 -30.72 A 30.72 30.72 0 1 1 -14.799472868404692 -26.920141210947488 L -4.31651291995137 -7.851707853193019 A 8.96 8.96 0 1 0 5.486417660180143e-16 -8.96 Z" fill="#7F142A" stroke="#111" stroke-width="1" fill-opacity="0.9"/><path d="M -4.31651291995137 -7.851707853193019 L -10.91461124044846 -19.853604143073774 A 22.656 22.656 0 0 1 -5.634318083606942 -21.944220098530266 L -2.228261388997096 -8.678505123712537 A 8.96 8.96 0 0 0 -4.31651291995137 -7.851707853193019 Z" fill="#4A0D19" stroke="#111" stroke-width="1" fill-opacity="0.9"/><path d="M -2.228261388997096 -8.678505123712537 L -5.634318083606942 -21.944220098530266 A 22.656 22.656 0 0 1 1.5960730594503672e-14 -22.656 L 6.31215334245908e-15 -8.96 A 8.96 8.96 0 0 0 -2.228261388997096 -8.678505123712537 Z" fill="#e0e0e0" stroke="#111" stroke-width="1" fill-opacity="0.9"/>
    <circle r="5.76" fill="#fff" stroke="#111" stroke-width="1.5"/>
  </g>
</svg>