<?xml version="1.0" encoding="UTF-8"?>
<svg xmlns="http://www.w3.org/2000/svg" width="64" height="64" viewBox="-32 -32 64 64">
  <g>
    <path d="M 5.486417660180143e-16 -8.96 L 1.3872798940741216e-15 -22.656 A 22.656 22.656 0 0 1 4.419966335597403 -22.220671312815586 L 1.74800928526451 -8.787836112412945 A 8.96 8.96 0 0 0 5.486417660180143e-16 -8.96 Z" fill="#4A0D19" stroke="#111" stroke-width="1" fill-opacity="0.9"/><path d="M 1.74800928526451 -8.787836112412945 L 5.9931746923354625 -30.129723813987237 A 30.72 30.72 0 1 1 -21.722320318050738 21.72232031805074 L -6.335676759431466 6.3356767594314665 A 8.96 8.96 0 1 0 1.74800928526451 -8.787836112412945 Z" fill="#A0AAE5" stroke="#111" stroke-width="1" fill-opacity="0.9"/><path d="M -6.335676759431466 6.3356767594314665 L -21.296441467710807 21.29644146771081 A 30.117716353921406 30.117716353921406 0 0 1 -5.532534739568661e-15 -30.117716353921406 L -1.6459252980540428e-15 -8.96 A 8.96 8.96 0 0 0 -6.335676759431466 6.3356767594314665 Z" fill="#7F142A" stroke="#111" stroke-width="1" fill-opacity="0.9"/>
    <circle r="5.76" fill="#fff" stroke="#111" stroke-width="1.5"/>
  </g>
</svg>