<?xml version="1.0" encoding="UTF-8"?>
<svg xmlns="http://www.w3.org/2000/svg" width="64" height="64" viewBox="-32 -32 64 64">
  <g>
    <path d="M 5.486417660180143e-16 -8.96 L 1.6975928244226965e-15 -27.72379473991402 A 27.72379473991402 27.72379473991402 0 0 1 12.028903724281585 -24.978275960779378 L 3.8875983024933216 -8.072681056405676 A 8.96 8.96 0 0 0 5.486417660180143e-16 -8.96 Z" fill="#7F142A" stroke="#111" stroke-width="1" fill-opacity="0.9"/><path d="M 3.8875983024933216 -8.072681056405676 L 13.328908465691386 -27.677763621962317 A 30.72 30.72 0 1 1 -30.72 3.762114966980669e-15 L -8.96 1.0972835320360286e-15 A 8.96 8.96 0 1 0 3.8875983024933216 -8.072681056405676 Z" fill="#A0AAE5" stroke="#111" stroke-width="1" fill-opacity="0.9"/><path d="M -8.96 1.0972835320360286e-15 L -22.656 2.7745597881482432e-15 A 22.656 22.656 0 0 1 -22.087966778391394 -5.041434279714256 L -8.735354093149141 -1.9937875682485762 A 8.96 8.96 0 0 0 -8.96 1.0972835320360286e-15 Z" fill="#7B86C9" stroke="#111" stroke-width="1" fill-opacity="0.9"/><path d="M -8.735354093149141 -1.9937875682485762 L -26.63421435713448 -6.079085622524384 A 27.319162806128798 27.319162806128798 0 0 1 -5.018448792886658e-15 -27.319162806128798 L -1.6459252980540428e-15 -8.96 A 8.96 8.96 0 0 0 -8.735354093149141 -1.9937875682485762 Z" fill="#51BF7E" stroke="#111" stroke-width="1" fill-opacity="0.9"/>
    <circle r="5.76" fill="#fff" stroke="#111" stroke-width="1.5"/>
  </g>
</svg>