<?xml version="1.0" encoding="UTF-8"?>
<svg xmlns="http://www.w3.org/2000/svg" width="64" height="64" viewBox="-32 -32 64 64">
  <g>
    <path d="M 5.486417660180143e-16 -8.96 L 1.4661673684407689e-15 -23.94433022585078 A 23.94433022585078 23.94433022585078 0 0 1 3.4076334836540862 -23.700611469024818 L 1.2751409509286347 -8.868800119253157 A 8.96 8.96 0 0 0 5.486417660180143e-16 -8.96 Z" fill="#51BF7E" stroke="#111" stroke-width="1" fill-opacity="0.9"/><path d="M 1.2751409509286347 -8.868800119253157 L 3.2242849759195473 -22.42539458725441 A 22.656 22.656 0 0 1 9.411642534570738 -20.608622486751965 L 3.7221185164969026 -8.150302678376486 A 8.96 8.96 0 0 0 1.2751409509286347 -8.868800119253157 Z" fill="#4A0D19" stroke="#111" stroke-width="1" fill-opacity="0.9"/><path d="M 3.7221185164969026 -8.150302678376486 L 12.761549199417951 -27.943894897290804 A 30.72 30.72 0 1 1 -27.943894897290807 -12.76154919941794 L -8.150302678376487 -3.7221185164969 A 8.96 8.96 0 1 0 3.7221185164969026 -8.150302678376486 Z" fill="#7F142A" stroke="#111" stroke-width="1" fill-opacity="0.9"/><path d="M -8.150302678376487 -3.7221185164969 L -26.97915743953115 -12.320968364964727 A 29.65942004823207 29.65942004823207 0 0 1 -5.448347073995136e-15 -29.65942004823207 L -1.6459252980540428e-15 -8.96 A 8.96 8.96 0 0 0 -8.150302678376487 -3.7221185164969 Z" fill="#A0AAE5" stroke="#111" stroke-width="1" fill-opacity="0.9"/>
    <circle r="5.76" fill="#fff" stroke="#111" stroke-width="1.5"/>
  </g>
</svg>