<?xml version="1.0" encoding="UTF-8"?>
<svg xmlns="http://www.w3.org/2000/svg" width="64" height="64" viewBox="-32 -32 64 64">
  <g>
    <path d="M 5.486417660180143e-16 -8.96 L 1.7388894848869436e-15 -28.398220386443278 A 28.398220386443278 28.398220386443278 0 0 1 24.099986654025457 -15.021636541761936 L 7.60385254715297 -4.739517532529583 A 8.96 8.96 0 0 0 5.486417660180143e-16 -8.96 Z" fill="#A0AAE5" stroke="#111" stroke-width="1" fill-opacity="0.9"/><path d="M 7.60385254715297 -4.739517532529583 L 26.07035159023875 -16.249774397244284 A 30.72 30.72 0 1 1 -29.739329091569786 7.700045790987916 L -8.673970985041189 2.2458466890381428 A 8.96 8.96 0 1 0 7.60385254715297 -4.739517532529583 Z" fill="#7F142A" stroke="#111" stroke-width="1" fill-opacity="0.9"/><path d="M -8.673970985041189 2.2458466890381428 L -21.93275520503272 5.678783770853588 A 22.656 22.656 0 0 1 -8.934526253447366 -20.819908180067937 L -3.533428461815343 -8.233861992117264 A 8.96 8.96 0 0 0 -8.673970985041189 2.2458466890381428 Z" fill="#004F61" stroke="#111" stroke-width="1" fill-opacity="0.9"/><path d="M -3.533428461815343 -8.233861992117264 L -10.14619213918244 -23.643423582039166 A 25.72851907135219 25.72851907135219 0 0 1 -2.757776768914808e-14 -25.72851907135219 L -9.604003938567165e-15 -8.96 A 8.96 8.96 0 0 0 -3.533428461815343 -8.233861992117264 Z" fill="#51BF7E" stroke="#111" stroke-width="1" fill-opacity="0.9"/>
    <circle r="5.76" fill="#fff" stroke="#111" stroke-width="1.5"/>
  </g>
</svg>