<?xml version="1.0" encoding="UTF-8"?>
<svg xmlns="http://www.w3.org/2000/svg" width="64" height="64" viewBox="-32 -32 64 64">
  <g>
    <path d="M 5.486417660180143e-16 -8.96 L 1.3872798940741216e-15 -22.656 A 22.656 22.656 0 0 1 18.81507111776775 -12.620912599069124 L 7.440988577648264 -4.991321366863496 A 8.96 8.96 0 0 0 5.486417660180143e-16 -8.96 Z" fill="#e0e0e0" stroke="#111" stroke-width="1" fill-opacity="0.9"/><path d="M 7.440988577648264 -4.991321366863496 L 18.81507111776775 -12.620912599069124 A 22.656 22.656 0 0 1 17.654862272635306 14.198597611534685 L 6.982148921381195 5.6152645921323625 A 8.96 8.96 0 0 0 7.440988577648264 -4.991321366863496 Z" fill="#004F61" stroke="#111" stroke-width="1" fill-opacity="0.9"/><path d="M 6.982148921381195 5.6152645921323625 L 17.654862272635306 14.198597611534685 A 22.656 22.656 0 0 1 12.890736233604837 18.631244063551616 L 5.098031278826773 7.3682886127040295 A 8.96 8.96 0 0 0 6.982148921381195 5.6152645921323625 Z" fill="#4A0D19" stroke="#111" stroke-width="1" fill-opacity="0.9"/><path d="M 5.098031278826773 7.3682886127040295 L 14.106453812907636 20.38834548288665 A 24.792673730464024 24.792673730464024 0 0 1 12.908410672267937 21.16718225511653 L 4.66506198084655 7.649757951390363 A 8.96 8.96 0 0 0 5.098031278826773 7.3682886127040295 Z" fill="#A0AAE5" stroke="#111" stroke-width="1" fill-opacity="0.9"/><path d="M 4.66506198084655 7.649757951390363 L 15.994498220045314 26.227741547624095 A 30.72 30.72 0 1 1 -5.643172450471003e-15 -30.72 L -1.6459252980540428e-15 -8.96 A 8.96 8.96 0 1 0 4.66506198084655 7.649757951390363 Z" fill="#7F142A" stroke="#111" stroke-width="1" fill-opacity="0.9"/>
    <circle r="5.76" fill="#fff" stroke="#111" stroke-width="1.5"/>
  </g>
</svg>