<?xml version="1.0" encoding="UTF-8"?>
<svg xmlns="http://www.w3.org/2000/svg" width="64" height="64" viewBox="-32 -32 64 64">
  <g>
    <path d="M 5.486417660180143e-16 -8.96 L 1.4457336935206604e-15 -23.610622989865103 A 23.610622989865103 23.610622989865103 0 0 1 1.4974782555506405 -23.56308716708614 L 0.5682783201228185 -8.941960621188086 A 8.96 8.96 0 0 0 5.486417660180143e-16 -8.96 Z" fill="#51BF7E" stroke="#111" stroke-width="1" fill-opacity="0.9"/><path d="M 0.5682783201228185 -8.941960621188086 L 1.9483828118496633 -30.65815070121629 A 30.72 30.72 0 1 1 -29.334596857161955 -9.12139393008458 L -8.555924083338905 -2.6604065629413363 A 8.96 8.96 0 1 0 0.5682783201228185 -8.941960621188086 Z" fill="#7F142A" stroke="#111" stroke-width="1" fill-opacity="0.9"/><path d="M -8.555924083338905 -2.6604065629413363 L -28.125761049191425 -8.745514634555784 A 29.454073755924544 29.454073755924544 0 0 1 -7.397331338083527 -28.510032442879652 L -2.2502859651424787 -8.67282036451135 A 8.96 8.96 0 0 0 -8.555924083338905 -2.6604065629413363 Z" fill="#A0AAE5" stroke="#111" stroke-width="1" fill-opacity="0.9"/><path d="M -2.2502859651424787 -8.67282036451135 L -5.690008797574552 -21.92984577883584 A 22.656 22.656 0 0 1 -2.42844099589484e-14 -22.656 L -9.604003938567165e-15 -8.96 A 8.96 8.96 0 0 0 -2.2502859651424787 -8.67282036451135 Z" fill="#7B86C9" stroke="#111" stroke-width="1" fill-opacity="0.9"/>
    <circle r="5.76" fill="#fff" stroke="#111" stroke-width="1.5"/>
  </g>
</svg>