<?xml version="1.0" encoding="UTF-8"?>
<svg xmlns="http://www.w3.org/2000/svg" width="64" height="64" viewBox="-32 -32 64 64">
  <g>
    <path d="M 5.486417660180143e-16 -8.96 L 1.8810574834903343e-15 -30.72 A 30.72 30.72 0 1 1 -3.901987422624129 -30.471181371152696 L -1.1380796649320377 -8.887427899919537 A 8.96 8.96 0 1 0 5.486417660180143e-16 -8.96 Z" fill="#7F142A" stroke="#111" stroke-width="1" fill-opacity="0.9"/><path d="M -1.1380796649320377 -8.887427899919537 L -3.2798008623089796 -25.61243697435334 A 25.82158053763605 25.82158053763605 0 0 1 -1.0958989464435271 -25.7983144209231 L -0.3802731806374913 -8.951926737193947 A 8.96 8.96 0 0 0 -1.1380796649320377 -8.887427899919537 Z" fill="#A0AAE5" stroke="#111" stroke-width="1" fill-opacity="0.9"/><path d="M -0.3802731806374913 -8.951926737193947 L -0.9819296925497514 -23.11538945251119 A 23.136235983028367 23.136235983028367 0 0 1 -4.2500576011400254e-15 -23.136235983028367 L -1.6459252980540428e-15 -8.96 A 8.96 8.96 0 0 0 -0.3802731806374913 -8.951926737193947 Z" fill="#51BF7E" stroke="#111" stroke-width="1" fill-opacity="0.9"/>
    <circle r="5.76" fill="#fff" stroke="#111" stroke-width="1.5"/>
  </g>
</svg>