<?xml version="1.0" encoding="UTF-8"?>
<svg xmlns="http://www.w3.org/2000/svg" width="64" height="64" viewBox="-32 -32 64 64">
  <g>
    <path d="M 5.486417660180143e-16 -8.96 L 1.817584619999251e-15 -29.68340947389442 A 29.68340947389442 29.68340947389442 0 0 1 26.41442928022591 -13.541887748568481 L 7.973251406950759 -4.087647489884341 A 8.96 8.96 0 0 0 5.486417660180143e-16 -8.96 Z" fill="#A0AAE5" stroke="#111" stroke-width="1" fill-opacity="0.9"/><path d="M 7.973251406950759 -4.087647489884341 L 27.336861966688314 -14.014791393889167 A 30.72 30.72 0 1 1 -19.74643536957049 -23.532885292615 L -5.7593769827913945 -6.863758210346043 A 8.96 8.96 0 1 0 7.973251406950759 -4.087647489884341 Z" fill="#7F142A" stroke="#111" stroke-width="1" fill-opacity="0.9"/><path d="M -5.7593769827913945 -6.863758210346043 L -16.626340844286133 -19.814501432873843 A 25.8659946049584 25.8659946049584 0 0 1 -4.751506124958751e-15 -25.8659946049584 L -1.6459252980540428e-15 -8.96 A 8.96 8.96 0 0 0 -5.7593769827913945 -6.863758210346043 Z" fill="#51BF7E" stroke="#111" stroke-width="1" fill-opacity="0.9"/>
    <circle r="5.76" fill="#fff" stroke="#111" stroke-width="1.5"/>
  </g>
</svg>