<?xml version="1.0" encoding="UTF-8"?>
<svg xmlns="http://www.w3.org/2000/svg" width="64" height="64" viewBox="-32 -32 64 64">
  <g>
    <path d="M 5.486417660180143e-16 -8.96 L 1.3872798940741216e-15 -22.656 A 22.656 22.656 0 0 1 1.5461001171899862 -22.603183634780855 L 0.6114520237474522 -8.939112171947231 A 8.96 8.96 0 0 0 5.486417660180143e-16 -8.96 Z" fill="#004F61" stroke="#111" stroke-width="1" fill-opacity="0.9"/><path d="M 0.6114520237474522 -8.939112171947231 L 1.8158314686933719 -26.546516412718592 A 26.608547077460557 26.608547077460557 0 0 1 7.1789000866785315 -25.621829972094535 L 2.417379069566937 -8.627738894636282 A 8.96 8.96 0 0 0 0.6114520237474522 -8.939112171947231 Z" fill="#A0AAE5" stroke="#111" stroke-width="1" fill-opacity="0.9"/><path d="M 2.417379069566937 -8.627738894636282 L 8.288156809943784 -29.580819067324395 A 30.72 30.72 0 1 1 -5.643172450471003e-15 -30.72 L -1.6459252980540428e-15 -8.96 A 8.96 8.96 0 1 0 2.417379069566937 -8.627738894636282 Z" fill="#7F142A" stroke="#111" stroke-width="1" fill-opacity="0.9"/>
    <circle r="5.76" fill="#fff" stroke="#111" stroke-width="1.5"/>
  </g>
</svg>