<?xml version="1.0" encoding="UTF-8"?>
<svg xmlns="http://www.w3.org/2000/svg" width="64" height="64" viewBox="-32 -32 64 64">
  <g>
    <path d="M 5.486417660180143e-16 -8.96 L 1.3872798940741216e-15 -22.656 A 22.656 22.656 0 0 1 19.043076168513828 -12.27418372194993 L 7.531160066643888 -4.854196952183589 A 8.96 8.96 0 0 0 5.486417660180143e-16 -8.96 Z" fill="#e0e0e0" stroke="#111" stroke-width="1" fill-opacity="0.9"/><path d="M 7.531160066643888 -4.854196952183589 L 19.043076168513828 -12.27418372194993 A 22.656 22.656 0 0 1 17.042816863940857 14.927716816116693 L 6.740097064835369 5.9036168199331565 A 8.96 8.96 0 0 0 7.531160066643888 -4.854196952183589 Z" fill="#004F61" stroke="#111" stroke-width="1" fill-opacity="0.9"/><path d="M 6.740097064835369 5.9036168199331565 L 17.042816863940857 14.927716816116693 A 22.656 22.656 0 0 1 11.993312344462584 19.221206908208476 L 4.743117876341136 7.601607251833863 A 8.96 8.96 0 0 0 6.740097064835369 5.9036168199331565 Z" fill="#4A0D19" stroke="#111" stroke-width="1" fill-opacity="0.9"/><path d="M 4.743117876341136 7.601607251833863 L 13.124961855098576 21.034856779634545 A 24.79374565162614 24.79374565162614 0 0 1 11.867854012138395 21.768873755527654 L 4.288822408799124 7.866867378174269 A 8.96 8.96 0 0 0 4.743117876341136 7.601607251833863 Z" fill="#A0AAE5" stroke="#111" stroke-width="1" fill-opacity="0.9"/><path d="M 4.288822408799124 7.866867378174269 L 14.704533973025567 26.972116725168917 A 30.72 30.72 0 1 1 -5.643172450471003e-15 -30.72 L -1.6459252980540428e-15 -8.96 A 8.96 8.96 0 1 0 4.288822408799124 7.866867378174269 Z" fill="#7F142A" stroke="#111" stroke-width="1" fill-opacity="0.9"/>
    <circle r="5.76" fill="#fff" stroke="#111" stroke-width="1.5"/>
  </g>
</svg>