<?xml version="1.0" encoding="UTF-8"?>
<svg xmlns="http://www.w3.org/2000/svg" width="64" height="64" viewBox="-32 -32 64 64">
  <g>
    <path d="M 5.486417660180143e-16 -8.96 L 1.825848572655039e-15 -29.818370062719566 A 29.818370062719566 29.818370062719566 0 0 1 28.35895515344977 -9.214383093941512 L 8.521466386004576 -2.768792269599529 A 8.96 8.96 0 0 0 5.486417660180143e-16 -8.96 Z" fill="#A0AAE5" stroke="#111" stroke-width="1" fill-opacity="0.9"/><path d="M 8.521466386004576 -2.768792269599529 L 29.216456180587116 -9.493002067198384 A 30.72 30.72 0 0 1 -18.05676295042477 24.853002067198386 L -5.266555860540559 7.24879226959953 A 8.96 8.96 0 0 0 8.521466386004576 -2.768792269599529 Z" fill="#7F142A" stroke="#111" stroke-width="1" fill-opacity="0.9"/><path d="M -5.266555860540559 7.24879226959953 L -17.624567899210604 24.25813661259009 A 29.98470586063783 29.98470586063783 0 0 1 -5.50810110834075e-15 -29.98470586063783 L -1.6459252980540428e-15 -8.96 A 8.96 8.96 0 0 0 -5.266555860540559 7.24879226959953 Z" fill="#51BF7E" stroke="#111" stroke-width="1" fill-opacity="0.9"/>
    <circle r="5.76" fill="#fff" stroke="#111" stroke-width="1.5"/>
  </g>
</svg>