<?xml version="1.0" encoding="UTF-8"?>
<svg xmlns="http://www.w3.org/2000/svg" width="64" height="64" viewBox="-32 -32 64 64">
  <g>
    <path d="M 5.486417660180143e-16 -8.96 L 1.3872798940741216e-15 -22.656 A 22.656 22.656 0 0 1 2.3681968637919564 -22.531888061463597 L 0.9365750308781751 -8.91091618249973 A 8.96 8.96 0 0 0 5.486417660180143e-16 -8.96 Z" fill="#4A0D19" stroke="#111" stroke-width="1" fill-opacity="0.9"/><path d="M 0.9365750308781751 -8.91091618249973 L 3.109420849110999 -29.5841632000003 A 29.747121041558596 29.747121041558596 0 0 1 17.484919046387247 24.065926456349498 L 5.2665558605405565 7.248792269599532 A 8.96 8.96 0 0 0 0.9365750308781751 -8.91091618249973 Z" fill="#7F142A" stroke="#111" stroke-width="1" fill-opacity="0.9"/><path d="M 5.2665558605405565 7.248792269599532 L 18.056762950424766 24.853002067198393 A 30.72 30.72 0 1 1 -5.643172450471003e-15 -30.72 L -1.6459252980540428e-15 -8.96 A 8.96 8.96 0 1 0 5.2665558605405565 7.248792269599532 Z" fill="#A0AAE5" stroke="#111" stroke-width="1" fill-opacity="0.9"/>
    <circle r="5.76" fill="#fff" stroke="#111" stroke-width="1.5"/>
  </g>
</svg>