<?xml version="1.0" encoding="UTF-8"?>
<svg xmlns="http://www.w3.org/2000/svg" width="64" height="64" viewBox="-32 -32 64 64">
  <g>
    <path d="M 5.486417660180143e-16 -8.96 L 1.3872798940741216e-15 -22.656 A 22.656 22.656 0 0 1 15.142697379973182 -16.85209340285513 L 5.988637381910299 -6.664669707343837 A 8.96 8.96 0 0 0 5.486417660180143e-16 -8.96 Z" fill="#4A0D19" stroke="#111" stroke-width="1" fill-opacity="0.9"/><path d="M 5.988637381910299 -6.664669707343837 L 19.643852416026963 -21.86136507915699 A 29.39047840486495 29.39047840486495 0 0 1 29.35972390155048 -1.3441849915686115 L 8.950624162495702 -0.40978909422791693 A 8.96 8.96 0 0 0 5.988637381910299 -6.664669707343837 Z" fill="#A0AAE5" stroke="#111" stroke-width="1" fill-opacity="0.9"/><path d="M 8.950624162495702 -0.40978909422791693 L 22.6322925251677 -1.0361809954048755 A 22.656 22.656 0 0 1 -17.52701636648841 14.356114839637057 L -6.931588393526491 5.677559541099401 A 8.96 8.96 0 0 0 8.950624162495702 -0.40978909422791693 Z" fill="#7B86C9" stroke="#111" stroke-width="1" fill-opacity="0.9"/><path d="M -6.931588393526491 5.677559541099401 L -23.765445920662252 19.465918426626516 A 30.72 30.72 0 0 1 -5.643172450471003e-15 -30.72 L -1.6459252980540428e-15 -8.96 A 8.96 8.96 0 0 0 -6.931588393526491 5.677559541099401 Z" fill="#7F142A" stroke="#111" stroke-width="1" fill-opacity="0.9"/>
    <circle r="5.76" fill="#fff" stroke="#111" stroke-width="1.5"/>
  </g>
</svg>