<?xml version="1.0" encoding="UTF-8"?>
<svg xmlns="http://www.w3.org/2000/svg" width="64" height="64" viewBox="-32 -32 64 64">
  <g>
    <path d="M 5.486417660180143e-16 -8.96 L 1.5403706935808066e-15 -25.156162489515715 A 25.156162489515715 25.156162489515715 0 0 1 1.9494119261290033 -25.080516428917157 L 0.6943320892205019 -8.933056752863417 A 8.96 8.96 0 0 0 5.486417660180143e-16 -8.96 Z" fill="#51BF7E" stroke="#111" stroke-width="1" fill-opacity="0.9"/><path d="M 0.6943320892205019 -8.933056752863417 L 2.3805671630417207 -30.62762315267457 A 30.72 30.72 0 0 1 9.379614649193877 -29.253055037596116 L 2.7357209393482145 -8.532141052632202 A 8.96 8.96 0 0 0 0.6943320892205019 -8.933056752863417 Z" fill="#A0AAE5" stroke="#111" stroke-width="1" fill-opacity="0.9"/><path d="M 2.7357209393482145 -8.532141052632202 L 6.917465803780485 -21.574128090227138 A 22.656 22.656 0 1 1 -4.1618396822223646e-15 -22.656 L -1.6459252980540428e-15 -8.96 A 8.96 8.96 0 1 0 2.7357209393482145 -8.532141052632202 Z" fill="#7B86C9" stroke="#111" stroke-width="1" fill-opacity="0.9"/>
    <circle r="5.76" fill="#fff" stroke="#111" stroke-width="1.5"/>
  </g>
</svg>