<?xml version="1.0" encoding="UTF-8"?>
<svg xmlns="http://www.w3.org/2000/svg" width="64" height="64" viewBox="-32 -32 64 64">
  <g>
    <path d="M 5.486417660180143e-16 -8.96 L 1.8810574834903343e-15 -30.72 A 30.72 30.72 0 1 1 -21.997210590132834 21.44390650635625 L -6.415853088788744 6.2544727310205745 A 8.96 8.96 0 1 0 5.486417660180143e-16 -8.96 Z" fill="#A0AAE5" stroke="#111" stroke-width="1" fill-opacity="0.9"/><path d="M -6.415853088788744 6.2544727310205745 L -21.301013199994568 20.76522083014643 A 29.747732005500687 29.747732005500687 0 0 1 -2.019100670992344 -29.679130579440635 L -0.6081519763841542 -8.939337289397915 A 8.96 8.96 0 0 0 -6.415853088788744 6.2544727310205745 Z" fill="#7F142A" stroke="#111" stroke-width="1" fill-opacity="0.9"/><path d="M -0.6081519763841542 -8.939337289397915 L -1.5377557117142182 -22.603752860334726 A 22.656 22.656 0 0 1 1.5960730594503672e-14 -22.656 L 6.31215334245908e-15 -8.96 A 8.96 8.96 0 0 0 -0.6081519763841542 -8.939337289397915 Z" fill="#4A0D19" stroke="#111" stroke-width="1" fill-opacity="0.9"/>
    <circle r="5.76" fill="#fff" stroke="#111" stroke-width="1.5"/>
  </g>
</svg>