<?xml version="1.0" encoding="UTF-8"?>
<svg xmlns="http://www.w3.org/2000/svg" width="64" height="64" viewBox="-32 -32 64 64">
  <g>
    <path d="M 5.486417660180143e-16 -8.96 L 1.3872798940741216e-15 -22.656 A 22.656 22.656 0 1 1 -20.747760488696976 9.100811540937684 L -8.205329006829315 3.59919100489061 A 8.96 8.96 0 1 0 5.486417660180143e-16 -8.96 Z" fill="#e0e0e0" stroke="#111" stroke-width="1" fill-opacity="0.9"/><path d="M -8.205329006829315 3.59919100489061 L -26.863037756308138 11.783220852700698 A 29.333719354360046 29.333719354360046 0 0 1 -29.233529830764844 2.4223593445521496 L -8.929397057339763 0.7399109354321008 A 8.96 8.96 0 0 0 -8.205329006829315 3.59919100489061 Z" fill="#A0AAE5" stroke="#111" stroke-width="1" fill-opacity="0.9"/><path d="M -8.929397057339763 0.7399109354321008 L -30.615075625164895 2.5368374929100597 A 30.72 30.72 0 0 1 -9.974767693967882 -29.055505665043494 L -2.909307244073966 -8.474522485637687 A 8.96 8.96 0 0 0 -8.929397057339763 0.7399109354321008 Z" fill="#7F142A" stroke="#111" stroke-width="1" fill-opacity="0.9"/><path d="M -2.909307244073966 -8.474522485637687 L -7.356391174301313 -21.42843542796958 A 22.656 22.656 0 0 1 -4.1618396822223646e-15 -22.656 L -1.6459252980540428e-15 -8.96 A 8.96 8.96 0 0 0 -2.909307244073966 -8.474522485637687 Z" fill="#004F61" stroke="#111" stroke-width="1" fill-opacity="0.9"/>
    <circle r="5.76" fill="#fff" stroke="#111" stroke-width="1.5"/>
  </g>
</svg>