<?xml version="1.0" encoding="UTF-8"?>
<svg xmlns="http://www.w3.org/2000/svg" width="64" height="64" viewBox="-32 -32 64 64">
  <g>
    <path d="M 5.486417660180143e-16 -8.96 L 1.6129926697734901e-15 -26.342169365020485 A 26.342169365020485 26.342169365020485 0 0 1 22.812987860899934 -13.171084682510243 L 7.75958761790857 -4.48 A 8.96 8.96 0 0 0 5.486417660180143e-16 -8.96 Z" fill="#51BF7E" stroke="#111" stroke-width="1" fill-opacity="0.9"/><path d="M 7.75958761790857 -4.48 L 24.5500039005762 -14.173951360604033 A 28.347902721208065 28.347902721208065 0 0 1 24.550003900576204 14.173951360604027 L 7.759587617908571 4.479999999999999 A 8.96 8.96 0 0 0 7.75958761790857 -4.48 Z" fill="#A0AAE5" stroke="#111" stroke-width="1" fill-opacity="0.9"/><path d="M 7.759587617908571 4.479999999999999 L 26.604300404257955 15.359999999999994 A 30.72 30.72 0 1 1 -5.643172450471003e-15 -30.72 L -1.6459252980540428e-15 -8.96 A 8.96 8.96 0 1 0 7.759587617908571 4.479999999999999 Z" fill="#7F142A" stroke="#111" stroke-width="1" fill-opacity="0.9"/>
    <circle r="5.76" fill="#fff" stroke="#111" stroke-width="1.5"/>
  </g>
</svg>