<?xml version="1.0" encoding="UTF-8"?>
<svg xmlns="http://www.w3.org/2000/svg" width="64" height="64" viewBox="-32 -32 64 64">
  <g>
    <path d="M 5.486417660180143e-16 -8.96 L 1.3872798940741216e-15 -22.656 A 22.656 22.656 0 0 1 13.316862675938271 18.329089024558808 L 5.26655586054056 7.24879226959953 A 8.96 8.96 0 0 0 5.486417660180143e-16 -8.96 Z" fill="#004F61" stroke="#111" stroke-width="1" fill-opacity="0.9"/><path d="M 5.26655586054056 7.24879226959953 L 18.056762950424773 24.853002067198386 A 30.72 30.72 0 0 1 -18.05676295042477 24.853002067198386 L -5.266555860540559 7.24879226959953 A 8.96 8.96 0 0 0 5.26655586054056 7.24879226959953 Z" fill="#7F142A" stroke="#111" stroke-width="1" fill-opacity="0.9"/><path d="M -5.266555860540559 7.24879226959953 L -17.355132497735035 23.887290597264226 A 29.526314976510136 29.526314976510136 0 0 1 -28.08119426059315 -9.124133109009154 L -8.521466386004578 -2.768792269599528 A 8.96 8.96 0 0 0 -5.266555860540559 7.24879226959953 Z" fill="#A0AAE5" stroke="#111" stroke-width="1" fill-opacity="0.9"/><path d="M -8.521466386004578 -2.768792269599528 L -21.547136433183 -7.001089024558805 A 22.656 22.656 0 0 1 -4.1618396822223646e-15 -22.656 L -1.6459252980540428e-15 -8.96 A 8.96 8.96 0 0 0 -8.521466386004578 -2.768792269599528 Z" fill="#e0e0e0" stroke="#111" stroke-width="1" fill-opacity="0.9"/>
    <circle r="5.76" fill="#fff" stroke="#111" stroke-width="1.5"/>
  </g>
</svg>