<?xml version="1.0" encoding="UTF-8"?>
<svg xmlns="http://www.w3.org/2000/svg" width="64" height="64" viewBox="-32 -32 64 64">
  <g>
    <path d="M 5.486417660180143e-16 -8.96 L 1.8810574834903343e-15 -30.72 A 30.72 30.72 0 0 1 7.950921065549437 -29.67324138360018 L 2.319018644118586 -8.654695403550052 A 8.96 8.96 0 0 0 5.486417660180143e-16 -8.96 Z" fill="#A0AAE5" stroke="#111" stroke-width="1" fill-opacity="0.9"/><path d="M 2.319018644118586 -8.654695403550052 L 5.8638042858427095 -21.884015520405132 A 22.656 22.656 0 1 1 -11.32800000000001 -19.620671548140237 L -4.480000000000004 -7.759587617908569 A 8.96 8.96 0 1 0 2.319018644118586 -8.654695403550052 Z" fill="#004F61" stroke="#111" stroke-width="1" fill-opacity="0.9"/><path d="M -4.480000000000004 -7.759587617908569 L -11.32800000000001 -19.620671548140237 A 22.656 22.656 0 0 1 -4.1618396822223646e-15 -22.656 L -1.6459252980540428e-15 -8.96 A 8.96 8.96 0 0 0 -4.480000000000004 -7.759587617908569 Z" fill="#e0e0e0" stroke="#111" stroke-width="1" fill-opacity="0.9"/>
    <circle r="5.76" fill="#fff" stroke="#111" stroke-width="1.5"/>
  </g>
</svg>