<?xml version="1.0" encoding="UTF-8"?>
<svg xmlns="http://www.w3.org/2000/svg" width="64" height="64" viewBox="-32 -32 64 64">
  <g>
    <path d="M 5.486417660180143e-16 -8.96 L 1.6443106053296393e-15 -26.853630066635905 A 26.853630066635905 26.853630066635905 0 0 1 7.245022685823552 -25.85782461920635 L 2.417379069566937 -8.627738894636282 A 8.96 8.96 0 0 0 5.486417660180143e-16 -8.96 Z" fill="#A0AAE5" stroke="#111" stroke-width="1" fill-opacity="0.9"/><path d="M 2.417379069566937 -8.627738894636282 L 8.288156809943784 -29.580819067324395 A 30.72 30.72 0 1 1 -19.38702164969635 -23.82985085043977 L -5.6545479811614365 -6.9503731647116 A 8.96 8.96 0 1 0 2.417379069566937 -8.627738894636282 Z" fill="#7F142A" stroke="#111" stroke-width="1" fill-opacity="0.9"/><path d="M -5.6545479811614365 -6.9503731647116 L -14.297928466651058 -17.57451500219933 A 22.656 22.656 0 0 1 -4.1618396822223646e-15 -22.656 L -1.6459252980540428e-15 -8.96 A 8.96 8.96 0 0 0 -5.6545479811614365 -6.9503731647116 Z" fill="#4A0D19" stroke="#111" stroke-width="1" fill-opacity="0.9"/>
    <circle r="5.76" fill="#fff" stroke="#111" stroke-width="1.5"/>
  </g>
</svg>