<?xml version="1.0" encoding="UTF-8"?>
<svg xmlns="http://www.w3.org/2000/svg" width="64" height="64" viewBox="-32 -32 64 64">
  <g>
    <path d="M 5.486417660180143e-16 -8.96 L 1.779416096865363e-15 -29.060070186836917 A 29.060070186836917 29.060070186836917 0 0 1 23.341267239423566 -17.31106359880005 L 7.1967394820665795 -5.337465768252203 A 8.96 8.96 0 0 0 5.486417660180143e-16 -8.96 Z" fill="#7F142A" stroke="#111" stroke-width="1" fill-opacity="0.9"/><path d="M 7.1967394820665795 -5.337465768252203 L 24.67453536708541 -18.299882634007552 A 30.72 30.72 0 1 1 -7.464351126628247 -29.799360098136397 L -2.177102411933239 -8.691480028623117 A 8.96 8.96 0 1 0 7.1967394820665795 -5.337465768252203 Z" fill="#A0AAE5" stroke="#111" stroke-width="1" fill-opacity="0.9"/><path d="M -2.177102411933239 -8.691480028623117 L -5.504958955888332 -21.977028072375592 A 22.656 22.656 0 0 1 1.5960730594503672e-14 -22.656 L 6.31215334245908e-15 -8.96 A 8.96 8.96 0 0 0 -2.177102411933239 -8.691480028623117 Z" fill="#7B86C9" stroke="#111" stroke-width="1" fill-opacity="0.9"/>
    <circle r="5.76" fill="#fff" stroke="#111" stroke-width="1.5"/>
  </g>
</svg>