<?xml version="1.0" encoding="UTF-8"?>
<svg xmlns="http://www.w3.org/2000/svg" width="64" height="64" viewBox="-32 -32 64 64">
  <g>
    <path d="M 5.486417660180143e-16 -8.96 L 1.5370871553695478e-15 -25.102538241062284 A 25.102538241062284 25.102538241062284 0 0 1 4.44039489573642 -24.706685720952382 L 1.5849368650982552 -8.818705978410469 A 8.96 8.96 0 0 0 5.486417660180143e-16 -8.96 Z" fill="#51BF7E" stroke="#111" stroke-width="1" fill-opacity="0.9"/><path d="M 1.5849368650982552 -8.818705978410469 L 5.434069251765446 -30.235563354550173 A 30.72 30.72 0 1 1 -15.622075964904047 26.451259753493165 L -4.5564388230970145 7.7149507614355075 A 8.96 8.96 0 1 0 1.5849368650982552 -8.818705978410469 Z" fill="#A0AAE5" stroke="#111" stroke-width="1" fill-opacity="0.9"/><path d="M -4.5564388230970145 7.7149507614355075 L -11.521281024116734 19.50780406820121 A 22.656 22.656 0 0 1 -13.747664103666065 -18.00822222466092 L -5.436929306534602 -7.121895795063642 A 8.96 8.96 0 0 0 -4.5564388230970145 7.7149507614355075 Z" fill="#7B86C9" stroke="#111" stroke-width="1" fill-opacity="0.9"/><path d="M -5.436929306534602 -7.121895795063642 L -17.063595149973718 -22.351798174238915 A 28.120618077562177 28.120618077562177 0 0 1 -3.325914668301975 -27.92324215923521 L -1.0597276114554424 -8.897110620281113 A 8.96 8.96 0 0 0 -5.436929306534602 -7.121895795063642 Z" fill="#7F142A" stroke="#111" stroke-width="1" fill-opacity="0.9"/><path d="M -1.0597276114554424 -8.897110620281113 L -2.6795969603944756 -22.49697971128224 A 22.656 22.656 0 0 1 -1.3421556655600089 -22.616209986852464 L -0.5307960259276873 -8.94426383660832 A 8.96 8.96 0 0 0 -1.0597276114554424 -8.897110620281113 Z" fill="#004F61" stroke="#111" stroke-width="1" fill-opacity="0.9"/><path d="M -0.5307960259276873 -8.94426383660832 L -1.3421556655600089 -22.616209986852464 A 22.656 22.656 0 0 1 -2.42844099589484e-14 -22.656 L -9.604003938567165e-15 -8.96 A 8.96 8.96 0 0 0 -0.5307960259276873 -8.94426383660832 Z" fill="#4A0D19" stroke="#111" stroke-width="1" fill-opacity="0.9"/>
    <circle r="5.76" fill="#fff" stroke="#111" stroke-width="1.5"/>
  </g>
</svg>