<?xml version="1.0" encoding="UTF-8"?>
<svg xmlns="http://www.w3.org/2000/svg" width="64" height="64" viewBox="-32 -32 64 64">
  <g>
    <path d="M 5.486417660180143e-16 -8.96 L 1.453558029619452e-15 -23.738404095474316 A 23.738404095474316 23.738404095474316 0 0 1 0.44653890638958754 -23.73420384182103 L 0.16854496979489392 -8.958414624985654 A 8.96 8.96 0 0 0 5.486417660180143e-16 -8.96 Z" fill="#51BF7E" stroke="#111" stroke-width="1" fill-opacity="0.9"/><path d="M 0.16854496979489392 -8.958414624985654 L 0.5778684678682077 -30.714564428522237 A 30.72 30.72 0 0 1 26.98115995859206 -14.687934071504694 L 7.869504987922685 -4.283980770855536 A 8.96 8.96 0 0 0 0.16854496979489392 -8.958414624985654 Z" fill="#A0AAE5" stroke="#111" stroke-width="1" fill-opacity="0.9"/><path d="M 7.869504987922685 -4.283980770855536 L 19.898605469461643 -10.832351377734712 A 22.656 22.656 0 1 1 -4.1618396822223646e-15 -22.656 L -1.6459252980540428e-15 -8.96 A 8.96 8.96 0 1 0 7.869504987922685 -4.283980770855536 Z" fill="#7B86C9" stroke="#111" stroke-width="1" fill-opacity="0.9"/>
    <circle r="5.76" fill="#fff" stroke="#111" stroke-width="1.5"/>
  </g>
</svg>