<?xml version="1.0" encoding="UTF-8"?>
<svg xmlns="http://www.w3.org/2000/svg" width="64" height="64" viewBox="-32 -32 64 64">
  <g>
    <path d="M 5.486417660180143e-16 -8.96 L 1.604691683260826e-15 -26.20660396741452 A 26.20660396741452 26.20660396741452 0 0 1 1.1274666221435616 -26.18233966857925 L 0.3854792077205936 -8.951704071315982 A 8.96 8.96 0 0 0 5.486417660180143e-16 -8.96 Z" fill="#51BF7E" stroke="#111" stroke-width="1" fill-opacity="0.9"/><path d="M 0.3854792077205936 -8.951704071315982 L 0.9747117109506436 -22.635023151756123 A 22.656 22.656 0 0 1 18.938727661708636 -12.4345860628986 L 7.4898922955909875 -4.917632906231085 A 8.96 8.96 0 0 0 0.3854792077205936 -8.951704071315982 Z" fill="#e0e0e0" stroke="#111" stroke-width="1" fill-opacity="0.9"/><path d="M 7.4898922955909875 -4.917632906231085 L 18.938727661708636 -12.4345860628986 A 22.656 22.656 0 0 1 19.456156238696593 -11.608286713181563 L 7.694525066151196 -4.5908478526706755 A 8.96 8.96 0 0 0 7.4898922955909875 -4.917632906231085 Z" fill="#004F61" stroke="#111" stroke-width="1" fill-opacity="0.9"/><path d="M 7.694525066151196 -4.5908478526706755 L 19.456156238696593 -11.608286713181563 A 22.656 22.656 0 0 1 9.45193826078465 20.590172391563776 L 3.7380546794063587 8.143006030561947 A 8.96 8.96 0 0 0 7.694525066151196 -4.5908478526706755 Z" fill="#4A0D19" stroke="#111" stroke-width="1" fill-opacity="0.9"/><path d="M 3.7380546794063587 8.143006030561947 L 12.736632119675017 27.745573849132022 A 30.52930831135183 30.52930831135183 0 0 1 -30.18364297272749 4.58108751984661 L -8.85855120848177 1.344496369168087 A 8.96 8.96 0 0 0 3.7380546794063587 8.143006030561947 Z" fill="#A0AAE5" stroke="#111" stroke-width="1" fill-opacity="0.9"/><path d="M -8.85855120848177 1.344496369168087 L -22.399479484303903 3.3996551048964476 A 22.656 22.656 0 0 1 -15.135654907621806 -16.858418861725553 L -5.985852223353257 -6.667171301247395 A 8.96 8.96 0 0 0 -8.85855120848177 1.344496369168087 Z" fill="#7B86C9" stroke="#111" stroke-width="1" fill-opacity="0.9"/><path d="M -5.985852223353257 -6.667171301247395 L -20.522921908639738 -22.858873032848205 A 30.72 30.72 0 0 1 2.1641668602716842e-14 -30.72 L 6.31215334245908e-15 -8.96 A 8.96 8.96 0 0 0 -5.985852223353257 -6.667171301247395 Z" fill="#7F142A" stroke="#111" stroke-width="1" fill-opacity="0.9"/>
    <circle r="5.76" fill="#fff" stroke="#111" stroke-width="1.5"/>
  </g>
</svg>