<?xml version="1.0" encoding="UTF-8"?>
<svg xmlns="http://www.w3.org/2000/svg" width="64" height="64" viewBox="-32 -32 64 64">
  <g>
    <path d="M 5.486417660180143e-16 -8.96 L 1.8694473434676134e-15 -30.53039202436483 A 30.53039202436483 30.53039202436483 0 0 1 9.434409980458087 29.036128279817756 L 2.7687922695995293 8.521466386004576 A 8.96 8.96 0 0 0 5.486417660180143e-16 -8.96 Z" fill="#7F142A" stroke="#111" stroke-width="1" fill-opacity="0.9"/><path d="M 2.7687922695995293 8.521466386004576 L 9.493002067198386 29.216456180587116 A 30.72 30.72 0 0 1 -18.056762950424776 -24.853002067198382 L -5.266555860540561 -7.248792269599529 A 8.96 8.96 0 0 0 2.7687922695995293 8.521466386004576 Z" fill="#A0AAE5" stroke="#111" stroke-width="1" fill-opacity="0.9"/><path d="M -5.266555860540561 -7.248792269599529 L -13.316862675938273 -18.329089024558805 A 22.656 22.656 0 0 1 -4.1618396822223646e-15 -22.656 L -1.6459252980540428e-15 -8.96 A 8.96 8.96 0 0 0 -5.266555860540561 -7.248792269599529 Z" fill="#7B86C9" stroke="#111" stroke-width="1" fill-opacity="0.9"/>
    <circle r="5.76" fill="#fff" stroke="#111" stroke-width="1.5"/>
  </g>
</svg>