<?xml version="1.0" encoding="UTF-8"?>
<svg xmlns="http://www.w3.org/2000/svg" width="64" height="64" viewBox="-32 -32 64 64">
  <g>
    <path d="M 5.486417660180143e-16 -8.96 L 1.8670630636920783e-15 -30.491453780665584 A 30.491453780665584 30.491453780665584 0 0 1 30.4769922852266 0.9389861046383559 L 8.95575044863176 0.27592372466328563 A 8.96 8.96 0 0 0 5.486417660180143e-16 -8.96 Z" fill="#7F142A" stroke="#111" stroke-width="1" fill-opacity="0.9"/><path d="M 8.95575044863176 0.27592372466328563 L 30.705430109594598 0.9460241988455506 A 30.72 30.72 0 0 1 -26.60430040425795 15.36000000000001 L -7.759587617908569 4.480000000000003 A 8.96 8.96 0 0 0 8.95575044863176 0.27592372466328563 Z" fill="#A0AAE5" stroke="#111" stroke-width="1" fill-opacity="0.9"/><path d="M -7.759587617908569 4.480000000000003 L -19.620671548140237 11.328000000000007 A 22.656 22.656 0 0 1 -2.7841571132997793 -22.48427906712737 L -1.1010790843558451 -8.892087766660545 A 8.96 8.96 0 0 0 -7.759587617908569 4.480000000000003 Z" fill="#7B86C9" stroke="#111" stroke-width="1" fill-opacity="0.9"/><path d="M -1.1010790843558451 -8.892087766660545 L -2.7841571132997793 -22.48427906712737 A 22.656 22.656 0 0 1 -2.42844099589484e-14 -22.656 L -9.604003938567165e-15 -8.96 A 8.96 8.96 0 0 0 -1.1010790843558451 -8.892087766660545 Z" fill="#4A0D19" stroke="#111" stroke-width="1" fill-opacity="0.9"/>
    <circle r="5.76" fill="#fff" stroke="#111" stroke-width="1.5"/>
  </g>
</svg>