<?xml version="1.0" encoding="UTF-8"?>
<svg xmlns="http://www.w3.org/2000/svg" width="64" height="64" viewBox="-32 -32 64 64">
  <g>
    <path d="M 5.486417660180143e-16 -8.96 L 1.4446462658550789e-15 -23.592863948379204 A 23.592863948379204 23.592863948379204 0 0 1 2.4661258126069012 -23.46361977110789 L 0.9365750308781751 -8.91091618249973 A 8.96 8.96 0 0 0 5.486417660180143e-16 -8.96 Z" fill="#51BF7E" stroke="#111" stroke-width="1" fill-opacity="0.9"/><path d="M 0.9365750308781751 -8.91091618249973 L 2.8863456336730735 -27.461744299619653 A 27.613011264523763 27.613011264523763 0 0 1 11.231223506946652 -25.225741012539654 L 3.64436032195917 -8.185367300477704 A 8.96 8.96 0 0 0 0.9365750308781751 -8.91091618249973 Z" fill="#A0AAE5" stroke="#111" stroke-width="1" fill-opacity="0.9"/><path d="M 3.64436032195917 -8.185367300477704 L 9.215025385525328 -20.697285888350763 A 22.656 22.656 0 0 1 4.710447267167153 22.1609120422251 L 1.862888749727123 8.7642025025749 A 8.96 8.96 0 0 0 3.64436032195917 -8.185367300477704 Z" fill="#7B86C9" stroke="#111" stroke-width="1" fill-opacity="0.9"/><path d="M 1.862888749727123 8.7642025025749 L 6.387047141921563 30.04869429454251 A 30.72 30.72 0 1 1 -5.643172450471003e-15 -30.72 L -1.6459252980540428e-15 -8.96 A 8.96 8.96 0 1 0 1.862888749727123 8.7642025025749 Z" fill="#7F142A" stroke="#111" stroke-width="1" fill-opacity="0.9"/>
    <circle r="5.76" fill="#fff" stroke="#111" stroke-width="1.5"/>
  </g>
</svg>