<?xml version="1.0" encoding="UTF-8"?>
<svg xmlns="http://www.w3.org/2000/svg" width="64" height="64" viewBox="-32 -32 64 64">
  <g>
    <path d="M 5.486417660180143e-16 -8.96 L 1.5918002368931978e-15 -25.996070671175904 A 25.996070671175904 25.996070671175904 0 0 1 19.318845402029023 -17.394766531151664 L 6.658577636277453 -5.99541023297537 A 8.96 8.96 0 0 0 5.486417660180143e-16 -8.96 Z" fill="#51BF7E" stroke="#111" stroke-width="1" fill-opacity="0.9"/><path d="M 6.658577636277453 -5.99541023297537 L 22.046912226665768 -19.851128933169356 A 29.667046678960446 29.667046678960446 0 0 1 25.692416079238512 14.833523339480218 L 7.759587617908571 4.479999999999999 A 8.96 8.96 0 0 0 6.658577636277453 -5.99541023297537 Z" fill="#A0AAE5" stroke="#111" stroke-width="1" fill-opacity="0.9"/><path d="M 7.759587617908571 4.479999999999999 L 26.604300404257955 15.359999999999994 A 30.72 30.72 0 1 1 -12.494949675288604 -28.06411645878069 L -3.6443603219591765 -8.1853673004777 A 8.96 8.96 0 1 0 7.759587617908571 4.479999999999999 Z" fill="#7F142A" stroke="#111" stroke-width="1" fill-opacity="0.9"/><path d="M -3.6443603219591765 -8.1853673004777 L -9.215025385525346 -20.697285888350756 A 22.656 22.656 0 0 1 -2.42844099589484e-14 -22.656 L -9.604003938567165e-15 -8.96 A 8.96 8.96 0 0 0 -3.6443603219591765 -8.1853673004777 Z" fill="#4A0D19" stroke="#111" stroke-width="1" fill-opacity="0.9"/>
    <circle r="5.76" fill="#fff" stroke="#111" stroke-width="1.5"/>
  </g>
</svg>