<?xml version="1.0" encoding="UTF-8"?>
<svg xmlns="http://www.w3.org/2000/svg" width="64" height="64" viewBox="-32 -32 64 64">
  <g>
    <path d="M 5.486417660180143e-16 -8.96 L 1.4907746085528575e-15 -24.346196953942847 A 24.346196953942847 24.346196953942847 0 0 1 4.63529944200265 -23.90086410996778 L 1.7059043381154293 -8.79610654717182 A 8.96 8.96 0 0 0 5.486417660180143e-16 -8.96 Z" fill="#51BF7E" stroke="#111" stroke-width="1" fill-opacity="0.9"/><path d="M 1.7059043381154293 -8.79610654717182 L 4.3135009692347275 -22.241583697848743 A 22.656 22.656 0 0 1 8.469199579624457 -21.013495532169056 L 3.349400963693289 -8.310421961874768 A 8.96 8.96 0 0 0 1.7059043381154293 -8.79610654717182 Z" fill="#004F61" stroke="#111" stroke-width="1" fill-opacity="0.9"/><path d="M 3.349400963693289 -8.310421961874768 L 11.483660446948416 -28.492875297856347 A 30.72 30.72 0 1 1 -11.483660446948422 -28.492875297856347 L -3.34940096369329 -8.310421961874768 A 8.96 8.96 0 1 0 3.349400963693289 -8.310421961874768 Z" fill="#7F142A" stroke="#111" stroke-width="1" fill-opacity="0.9"/><path d="M -3.34940096369329 -8.310421961874768 L -10.347252092627153 -25.673256790612662 A 27.67998807993089 27.67998807993089 0 0 1 -5.084731320378638e-15 -27.67998807993089 L -1.6459252980540428e-15 -8.96 A 8.96 8.96 0 0 0 -3.34940096369329 -8.310421961874768 Z" fill="#A0AAE5" stroke="#111" stroke-width="1" fill-opacity="0.9"/>
    <circle r="5.76" fill="#fff" stroke="#111" stroke-width="1.5"/>
  </g>
</svg>