<?xml version="1.0" encoding="UTF-8"?>
<svg xmlns="http://www.w3.org/2000/svg" width="64" height="64" viewBox="-32 -32 64 64">
  <g>
    <path d="M 5.486417660180143e-16 -8.96 L 1.3872798940741216e-15 -22.656 A 22.656 22.656 0 0 1 14.37281424601155 -17.513324831386164 L 5.684163826106264 -6.9261736621301235 A 8.96 8.96 0 0 0 5.486417660180143e-16 -8.96 Z" fill="#e0e0e0" stroke="#111" stroke-width="1" fill-opacity="0.9"/><path d="M 5.684163826106264 -6.9261736621301235 L 14.37281424601155 -17.513324831386164 A 22.656 22.656 0 0 1 18.837775536326465 -12.586999199292107 L 7.449967726230806 -4.977909287855636 A 8.96 8.96 0 0 0 5.684163826106264 -6.9261736621301235 Z" fill="#004F61" stroke="#111" stroke-width="1" fill-opacity="0.9"/><path d="M 7.449967726230806 -4.977909287855636 L 18.837775536326465 -12.586999199292107 A 22.656 22.656 0 0 1 22.546905167485292 -2.2206763313065276 L 8.916855150982885 -0.8782335773528641 A 8.96 8.96 0 0 0 7.449967726230806 -4.977909287855636 Z" fill="#4A0D19" stroke="#111" stroke-width="1" fill-opacity="0.9"/><path d="M 8.916855150982885 -0.8782335773528641 L 30.572074803369887 -3.011086550924105 A 30.72 30.72 0 1 1 -5.643172450471003e-15 -30.72 L -1.6459252980540428e-15 -8.96 A 8.96 8.96 0 1 0 8.916855150982885 -0.8782335773528641 Z" fill="#7F142A" stroke="#111" stroke-width="1" fill-opacity="0.9"/>
    <circle r="5.76" fill="#fff" stroke="#111" stroke-width="1.5"/>
  </g>
</svg>