<?xml version="1.0" encoding="UTF-8"?>
<svg xmlns="http://www.w3.org/2000/svg" width="64" height="64" viewBox="-32 -32 64 64">
  <g>
    <path d="M 5.486417660180143e-16 -8.96 L 1.860099848444599e-15 -30.37773584579118 A 30.37773584579118 30.37773584579118 0 0 1 17.284224053770167 24.98124164199488 L 5.098031278826773 7.3682886127040295 A 8.96 8.96 0 0 0 5.486417660180143e-16 -8.96 Z" fill="#7F142A" stroke="#111" stroke-width="1" fill-opacity="0.9"/><path d="M 5.098031278826773 7.3682886127040295 L 17.47896438454893 25.26270381498524 A 30.72 30.72 0 1 1 -5.286023035608108 -30.26179704622679 L -1.5417567187190315 -8.826357471816149 A 8.96 8.96 0 1 0 5.098031278826773 7.3682886127040295 Z" fill="#A0AAE5" stroke="#111" stroke-width="1" fill-opacity="0.9"/><path d="M -1.5417567187190315 -8.826357471816149 L -3.8984419887609794 -22.318075321592257 A 22.656 22.656 0 0 1 -4.1618396822223646e-15 -22.656 L -1.6459252980540428e-15 -8.96 A 8.96 8.96 0 0 0 -1.5417567187190315 -8.826357471816149 Z" fill="#4A0D19" stroke="#111" stroke-width="1" fill-opacity="0.9"/>
    <circle r="5.76" fill="#fff" stroke="#111" stroke-width="1.5"/>
  </g>
</svg>