<?xml version="1.0" encoding="UTF-8"?>
<svg xmlns="http://www.w3.org/2000/svg" width="64" height="64" viewBox="-32 -32 64 64">
  <g>
    <path d="M 5.486417660180143e-16 -8.96 L 1.8810574834903343e-15 -30.72 A 30.72 30.72 0 1 1 -30.647239213685022 -2.1130850856430206 L -8.938778103991465 -0.6163164833125477 A 8.96 8.96 0 1 0 5.486417660180143e-16 -8.96 Z" fill="#7F142A" stroke="#111" stroke-width="1" fill-opacity="0.9"/><path d="M -8.938778103991465 -0.6163164833125477 L -29.088054131881865 -2.005581413969908 A 29.15711319708025 29.15711319708025 0 0 1 -0.7298024411753864 -29.14797828982665 L -0.2242687686099964 -8.957192837012396 A 8.96 8.96 0 0 0 -8.938778103991465 -0.6163164833125477 Z" fill="#A0AAE5" stroke="#111" stroke-width="1" fill-opacity="0.9"/><path d="M -0.2242687686099964 -8.957192837012396 L -0.5670796006281337 -22.6489018878742 A 22.656 22.656 0 0 1 -4.1618396822223646e-15 -22.656 L -1.6459252980540428e-15 -8.96 A 8.96 8.96 0 0 0 -0.2242687686099964 -8.957192837012396 Z" fill="#51BF7E" stroke="#111" stroke-width="1" fill-opacity="0.9"/>
    <circle r="5.76" fill="#fff" stroke="#111" stroke-width="1.5"/>
  </g>
</svg>