<?xml version="1.0" encoding="UTF-8"?>
<svg xmlns="http://www.w3.org/2000/svg" width="64" height="64" viewBox="-32 -32 64 64">
  <g>
    <path d="M 5.486417660180143e-16 -8.96 L 1.3872798940741216e-15 -22.656 A 22.656 22.656 0 0 1 13.915603218697113 -17.878767380884693 L 5.503345905699424 -7.0706989641916875 A 8.96 8.96 0 0 0 5.486417660180143e-16 -8.96 Z" fill="#4A0D19" stroke="#111" stroke-width="1" fill-opacity="0.9"/><path d="M 5.503345905699424 -7.0706989641916875 L 18.868614533826594 -24.24239644865721 A 30.72 30.72 0 1 1 -9.974767693967882 -29.055505665043494 L -2.909307244073966 -8.474522485637687 A 8.96 8.96 0 1 0 5.503345905699424 -7.0706989641916875 Z" fill="#7F142A" stroke="#111" stroke-width="1" fill-opacity="0.9"/><path d="M -2.909307244073966 -8.474522485637687 L -8.351961990823485 -24.328434143418868 A 25.722130101662053 25.722130101662053 0 0 1 -4.725078644437832e-15 -25.722130101662053 L -1.6459252980540428e-15 -8.96 A 8.96 8.96 0 0 0 -2.909307244073966 -8.474522485637687 Z" fill="#A0AAE5" stroke="#111" stroke-width="1" fill-opacity="0.9"/>
    <circle r="5.76" fill="#fff" stroke="#111" stroke-width="1.5"/>
  </g>
</svg>