<?xml version="1.0" encoding="UTF-8"?>
<svg xmlns="http://www.w3.org/2000/svg" width="64" height="64" viewBox="-32 -32 64 64">
  <g>
    <path d="M 5.486417660180143e-16 -8.96 L 1.8810574834903343e-15 -30.72 A 30.72 30.72 0 1 1 -6.835843091137984 -29.94978546222562 L -1.9937875682485788 -8.735354093149141 A 8.96 8.96 0 1 0 5.486417660180143e-16 -8.96 Z" fill="#A0AAE5" stroke="#111" stroke-width="1" fill-opacity="0.9"/><path d="M -1.9937875682485788 -8.735354093149141 L -5.041434279714263 -22.087966778391394 A 22.656 22.656 0 0 1 -2.5366671705965467 -22.5135438273413 L -1.0032017058856402 -8.903661400643454 A 8.96 8.96 0 0 0 -1.9937875682485788 -8.735354093149141 Z" fill="#7B86C9" stroke="#111" stroke-width="1" fill-opacity="0.9"/><path d="M -1.0032017058856402 -8.903661400643454 L -2.6954824845519427 -23.92306872387983 A 24.07444377326304 24.07444377326304 0 0 1 -4.422403576226927e-15 -24.07444377326304 L -1.6459252980540428e-15 -8.96 A 8.96 8.96 0 0 0 -1.0032017058856402 -8.903661400643454 Z" fill="#51BF7E" stroke="#111" stroke-width="1" fill-opacity="0.9"/>
    <circle r="5.76" fill="#fff" stroke="#111" stroke-width="1.5"/>
  </g>
</svg>