<?xml version="1.0" encoding="UTF-8"?>
<svg xmlns="http://www.w3.org/2000/svg" width="64" height="64" viewBox="-32 -32 64 64">
  <g>
    <path d="M 5.486417660180143e-16 -8.96 L 1.3872798940741216e-15 -22.656 A 22.656 22.656 0 0 1 6.167551071395155 -21.800358936993042 L 2.439144491512209 -8.621610879036798 A 8.96 8.96 0 0 0 5.486417660180143e-16 -8.96 Z" fill="#004F61" stroke="#111" stroke-width="1" fill-opacity="0.9"/><path d="M 2.439144491512209 -8.621610879036798 L 6.167551071395155 -21.800358936993042 A 22.656 22.656 0 0 1 14.067570620852704 17.75944235687939 L 5.563446008246833 7.023508276731962 A 8.96 8.96 0 0 0 2.439144491512209 -8.621610879036798 Z" fill="#4A0D19" stroke="#111" stroke-width="1" fill-opacity="0.9"/><path d="M 5.563446008246833 7.023508276731962 L 19.074672028274854 24.080599805938157 A 30.72 30.72 0 0 1 -20.272553353515455 -23.081204052840683 L -5.912828061442008 -6.732017848745199 A 8.96 8.96 0 0 0 5.563446008246833 7.023508276731962 Z" fill="#7F142A" stroke="#111" stroke-width="1" fill-opacity="0.9"/><path d="M -5.912828061442008 -6.732017848745199 L -18.281417332960554 -20.814207094639592 A 27.702733379224796 27.702733379224796 0 0 1 -13.355286348450944 -24.270924235209826 L -4.3195508560126425 -7.850036968213619 A 8.96 8.96 0 0 0 -5.912828061442008 -6.732017848745199 Z" fill="#A0AAE5" stroke="#111" stroke-width="1" fill-opacity="0.9"/><path d="M -4.3195508560126425 -7.850036968213619 L -10.922292878774822 -19.849379191054435 A 22.656 22.656 0 0 1 -6.378153256956048 -21.739675642262487 L -2.5224334914515447 -8.597611835923018 A 8.96 8.96 0 0 0 -4.3195508560126425 -7.850036968213619 Z" fill="#7B86C9" stroke="#111" stroke-width="1" fill-opacity="0.9"/><path d="M -2.5224334914515447 -8.597611835923018 L -6.59264404885814 -22.4707587718687 A 23.417898183621407 23.417898183621407 0 0 1 -6.265892268887119 -22.56405436558686 L -2.3974139049120495 -8.633307973687396 A 8.96 8.96 0 0 0 -2.5224334914515447 -8.597611835923018 Z" fill="#51BF7E" stroke="#111" stroke-width="1" fill-opacity="0.9"/><path d="M -2.3974139049120495 -8.633307973687396 L -6.062032302420468 -21.82993587632384 A 22.656 22.656 0 0 1 1.5960730594503672e-14 -22.656 L 6.31215334245908e-15 -8.96 A 8.96 8.96 0 0 0 -2.3974139049120495 -8.633307973687396 Z" fill="#e0e0e0" stroke="#111" stroke-width="1" fill-opacity="0.9"/>
    <circle r="5.76" fill="#fff" stroke="#111" stroke-width="1.5"/>
  </g>
</svg>