<?xml version="1.0" encoding="UTF-8"?>
<svg xmlns="http://www.w3.org/2000/svg" width="64" height="64" viewBox="-32 -32 64 64">
  <g>
    <path d="M 5.486417660180143e-16 -8.96 L 1.3872798940741216e-15 -22.656 A 22.656 22.656 0 0 1 1.111677229561985 -22.628709855784386 L 0.43964636197366647 -8.949207287598346 A 8.96 8.96 0 0 0 5.486417660180143e-16 -8.96 Z" fill="#004F61" stroke="#111" stroke-width="1" fill-opacity="0.9"/><path d="M 0.43964636197366647 -8.949207287598346 L 1.111677229561985 -22.628709855784386 A 22.656 22.656 0 0 1 22.410783009762078 -3.324325629260674 L 8.863021529284438 -1.3147050511200409 A 8.96 8.96 0 0 0 0.43964636197366647 -8.949207287598346 Z" fill="#4A0D19" stroke="#111" stroke-width="1" fill-opacity="0.9"/><path d="M 8.863021529284438 -1.3147050511200409 L 30.387502386118072 -4.507560175268711 A 30.72 30.72 0 0 1 23.746881127303272 19.488561689507197 L 6.926173662130122 5.684163826106266 A 8.96 8.96 0 0 0 8.863021529284438 -1.3147050511200409 Z" fill="#7F142A" stroke="#111" stroke-width="1" fill-opacity="0.9"/><path d="M 6.926173662130122 5.684163826106266 L 23.494849287008535 19.281724503563787 A 30.393960631194112 30.393960631194112 0 0 1 -26.069769604597116 15.62561856739764 L -7.685248345602438 4.606360587971268 A 8.96 8.96 0 0 0 6.926173662130122 5.684163826106266 Z" fill="#A0AAE5" stroke="#111" stroke-width="1" fill-opacity="0.9"/><path d="M -7.685248345602438 4.606360587971268 L -19.43269938816616 11.647511772441632 A 22.656 22.656 0 0 1 -19.432699388166164 -11.647511772441627 L -7.685248345602439 -4.606360587971266 A 8.96 8.96 0 0 0 -7.685248345602438 4.606360587971268 Z" fill="#7B86C9" stroke="#111" stroke-width="1" fill-opacity="0.9"/><path d="M -7.685248345602439 -4.606360587971266 L -22.478153993798074 -13.472887015632772 A 26.20660396741452 26.20660396741452 0 0 1 -21.7899948405525 -14.55960907282891 L -7.449967726230808 -4.977909287855634 A 8.96 8.96 0 0 0 -7.685248345602439 -4.606360587971266 Z" fill="#51BF7E" stroke="#111" stroke-width="1" fill-opacity="0.9"/><path d="M -7.449967726230808 -4.977909287855634 L -18.83777553632647 -12.586999199292102 A 22.656 22.656 0 0 1 -4.1618396822223646e-15 -22.656 L -1.6459252980540428e-15 -8.96 A 8.96 8.96 0 0 0 -7.449967726230808 -4.977909287855634 Z" fill="#e0e0e0" stroke="#111" stroke-width="1" fill-opacity="0.9"/>
    <circle r="5.76" fill="#fff" stroke="#111" stroke-width="1.5"/>
  </g>
</svg>