<?xml version="1.0" encoding="UTF-8"?>
<svg xmlns="http://www.w3.org/2000/svg" width="64" height="64" viewBox="-32 -32 64 64">
  <g>
    <path d="M 5.486417660180143e-16 -8.96 L 1.3872798940741216e-15 -22.656 A 22.656 22.656 0 0 1 2.229356704703585 -22.546048538118452 L 0.8816664933855988 -8.916516371007297 A 8.96 8.96 0 0 0 5.486417660180143e-16 -8.96 Z" fill="#004F61" stroke="#111" stroke-width="1" fill-opacity="0.9"/><path d="M 0.8816664933855988 -8.916516371007297 L 2.229356704703585 -22.546048538118452 A 22.656 22.656 0 1 1 -4.710447267167161 22.1609120422251 L -1.8628887497271258 8.764202502574898 A 8.96 8.96 0 1 0 0.8816664933855988 -8.916516371007297 Z" fill="#7B86C9" stroke="#111" stroke-width="1" fill-opacity="0.9"/><path d="M -1.8628887497271258 8.764202502574898 L -6.387047141921574 30.048694294542507 A 30.72 30.72 0 0 1 -3.022856548750621 -30.570913272025017 L -0.8816664933855979 -8.916516371007297 A 8.96 8.96 0 0 0 -1.8628887497271258 8.764202502574898 Z" fill="#A0AAE5" stroke="#111" stroke-width="1" fill-opacity="0.9"/><path d="M -0.8816664933855979 -8.916516371007297 L -2.2293567047035827 -22.546048538118452 A 22.656 22.656 0 0 1 -4.1618396822223646e-15 -22.656 L -1.6459252980540428e-15 -8.96 A 8.96 8.96 0 0 0 -0.8816664933855979 -8.916516371007297 Z" fill="#e0e0e0" stroke="#111" stroke-width="1" fill-opacity="0.9"/>
    <circle r="5.76" fill="#fff" stroke="#111" stroke-width="1.5"/>
  </g>
</svg>