<?xml version="1.0" encoding="UTF-8"?>
<svg xmlns="http://www.w3.org/2000/svg" width="64" height="64" viewBox="-32 -32 64 64">
  <g>
    <path d="M 5.486417660180143e-16 -8.96 L 1.519162709812929e-15 -24.809809830403825 A 24.809809830403825 24.809809830403825 0 0 1 7.312819823662043 -23.70757959065956 L 2.641006362721701 -8.561932339843823 A 8.96 8.96 0 0 0 5.486417660180143e-16 -8.96 Z" fill="#51BF7E" stroke="#111" stroke-width="1" fill-opacity="0.9"/><path d="M 2.641006362721701 -8.561932339843823 L 8.524169161967864 -27.63467769268785 A 28.919489467841288 28.919489467841288 0 0 1 28.194417488246746 6.435191805923841 L 8.735354093149141 1.993787568248577 A 8.96 8.96 0 0 0 2.641006362721701 -8.561932339843823 Z" fill="#7F142A" stroke="#111" stroke-width="1" fill-opacity="0.9"/><path d="M 8.735354093149141 1.993787568248577 L 29.94978546222562 6.835843091137978 A 30.72 30.72 0 1 1 -5.643172450471003e-15 -30.72 L -1.6459252980540428e-15 -8.96 A 8.96 8.96 0 1 0 8.735354093149141 1.993787568248577 Z" fill="#A0AAE5" stroke="#111" stroke-width="1" fill-opacity="0.9"/>
    <circle r="5.76" fill="#fff" stroke="#111" stroke-width="1.5"/>
  </g>
</svg>