<?xml version="1.0" encoding="UTF-8"?>
<svg xmlns="http://www.w3.org/2000/svg" width="64" height="64" viewBox="-32 -32 64 64">
  <g>
    <path d="M 5.486417660180143e-16 -8.96 L 1.8810574834903343e-15 -30.72 A 30.72 30.72 0 0 1 26.604300404257952 -15.36 L 7.75958761790857 -4.48 A 8.96 8.96 0 0 0 5.486417660180143e-16 -8.96 Z" fill="#7F142A" stroke="#111" stroke-width="1" fill-opacity="0.9"/><path d="M 7.75958761790857 -4.48 L 24.878945527278887 -14.363865897328502 A 28.727731794657004 28.727731794657004 0 0 1 27.748858071164804 -7.435284111054455 L 8.654695403550052 -2.3190186441185876 A 8.96 8.96 0 0 0 7.75958761790857 -4.48 Z" fill="#A0AAE5" stroke="#111" stroke-width="1" fill-opacity="0.9"/><path d="M 8.654695403550052 -2.3190186441185876 L 21.88401552040513 -5.863804285842713 A 22.656 22.656 0 1 1 -4.1618396822223646e-15 -22.656 L -1.6459252980540428e-15 -8.96 A 8.96 8.96 0 1 0 8.654695403550052 -2.3190186441185876 Z" fill="#004F61" stroke="#111" stroke-width="1" fill-opacity="0.9"/>
    <circle r="5.76" fill="#fff" stroke="#111" stroke-width="1.5"/>
  </g>
</svg>