<?xml version="1.0" encoding="UTF-8"?>
<svg xmlns="http://www.w3.org/2000/svg" width="64" height="64" viewBox="-32 -32 64 64">
  <g>
    <path d="M 5.486417660180143e-16 -8.96 L 1.3872798940741216e-15 -22.656 A 22.656 22.656 0 0 1 20.28081952894029 -10.09864818847325 L 8.02066309054136 -3.993815667757783 A 8.96 8.96 0 0 0 5.486417660180143e-16 -8.96 Z" fill="#4A0D19" stroke="#111" stroke-width="1" fill-opacity="0.9"/><path d="M 8.02066309054136 -3.993815667757783 L 24.607915468316346 -12.253285948903697 A 27.489862135729304 27.489862135729304 0 0 1 26.44045432942996 7.522957868733017 L 8.617957762828459 2.4520203910458633 A 8.96 8.96 0 0 0 8.02066309054136 -3.993815667757783 Z" fill="#A0AAE5" stroke="#111" stroke-width="1" fill-opacity="0.9"/><path d="M 8.617957762828459 2.4520203910458633 L 29.547283758269 8.406927055014387 A 30.72 30.72 0 1 1 -5.643172450471003e-15 -30.72 L -1.6459252980540428e-15 -8.96 A 8.96 8.96 0 1 0 8.617957762828459 2.4520203910458633 Z" fill="#7F142A" stroke="#111" stroke-width="1" fill-opacity="0.9"/>
    <circle r="5.76" fill="#fff" stroke="#111" stroke-width="1.5"/>
  </g>
</svg>