<?xml version="1.0" encoding="UTF-8"?>
<svg xmlns="http://www.w3.org/2000/svg" width="64" height="64" viewBox="-32 -32 64 64">
  <g>
    <path d="M 5.486417660180143e-16 -8.96 L 1.8810574834903343e-15 -30.72 A 30.72 30.72 0 1 1 -24.207690350798504 18.913120522004217 L -7.060576352316231 5.5163268189178964 A 8.96 8.96 0 1 0 5.486417660180143e-16 -8.96 Z" fill="#A0AAE5" stroke="#111" stroke-width="1" fill-opacity="0.9"/><path d="M -7.060576352316231 5.5163268189178964 L -17.853171633713895 13.948426384978108 A 22.656 22.656 0 0 1 -16.836689166015837 -15.1598230176663 L -6.6585776362774505 -5.995410232975374 A 8.96 8.96 0 0 0 -7.060576352316231 5.5163268189178964 Z" fill="#7B86C9" stroke="#111" stroke-width="1" fill-opacity="0.9"/><path d="M -6.6585776362774505 -5.995410232975374 L -16.836689166015837 -15.1598230176663 A 22.656 22.656 0 0 1 1.5960730594503672e-14 -22.656 L 6.31215334245908e-15 -8.96 A 8.96 8.96 0 0 0 -6.6585776362774505 -5.995410232975374 Z" fill="#e0e0e0" stroke="#111" stroke-width="1" fill-opacity="0.9"/>
    <circle r="5.76" fill="#fff" stroke="#111" stroke-width="1.5"/>
  </g>
</svg>