<?xml version="1.0" encoding="UTF-8"?>
<svg xmlns="http://www.w3.org/2000/svg" width="64" height="64" viewBox="-32 -32 64 64">
  <g>
    <path d="M 5.486417660180143e-16 -8.96 L 1.8810574834903343e-15 -30.72 A 30.72 30.72 0 1 1 -16.171996043592372 26.118670409613745 L -4.71683217938111 7.617945536137343 A 8.96 8.96 0 1 0 5.486417660180143e-16 -8.96 Z" fill="#7F142A" stroke="#111" stroke-width="1" fill-opacity="0.9"/><path d="M -4.71683217938111 7.617945536137343 L -15.292602317997334 24.698400777022552 A 29.04952128002879 29.04952128002879 0 0 1 -26.004065081319492 -12.948485851455603 L -8.020663090541358 -3.993815667757786 A 8.96 8.96 0 0 0 -4.71683217938111 7.617945536137343 Z" fill="#A0AAE5" stroke="#111" stroke-width="1" fill-opacity="0.9"/><path d="M -8.020663090541358 -3.993815667757786 L -22.52938850477325 -11.218302499387548 A 25.167909276830564 25.167909276830564 0 0 1 -4.623269930565229e-15 -25.167909276830564 L -1.6459252980540428e-15 -8.96 A 8.96 8.96 0 0 0 -8.020663090541358 -3.993815667757786 Z" fill="#51BF7E" stroke="#111" stroke-width="1" fill-opacity="0.9"/>
    <circle r="5.76" fill="#fff" stroke="#111" stroke-width="1.5"/>
  </g>
</svg>