<?xml version="1.0" encoding="UTF-8"?>
<svg xmlns="http://www.w3.org/2000/svg" width="64" height="64" viewBox="-32 -32 64 64">
  <g>
    <path d="M 5.486417660180143e-16 -8.96 L 1.5410899768550764e-15 -25.167909276830564 A 25.167909276830564 25.167909276830564 0 0 1 22.529388504773255 -11.218302499387539 L 8.02066309054136 -3.993815667757783 A 8.96 8.96 0 0 0 5.486417660180143e-16 -8.96 Z" fill="#51BF7E" stroke="#111" stroke-width="1" fill-opacity="0.9"/><path d="M 8.02066309054136 -3.993815667757783 L 27.499416310427513 -13.693082289455255 A 30.72 30.72 0 1 1 -30.588953895783458 -2.834484002712652 L -8.92177821960351 -0.8267245007911904 A 8.96 8.96 0 1 0 8.02066309054136 -3.993815667757783 Z" fill="#7F142A" stroke="#111" stroke-width="1" fill-opacity="0.9"/><path d="M -8.92177821960351 -0.8267245007911904 L -28.925601143534543 -2.6803516717025517 A 29.04952128002879 29.04952128002879 0 0 1 2.0464847415688604e-14 -29.04952128002879 L 6.31215334245908e-15 -8.96 A 8.96 8.96 0 0 0 -8.92177821960351 -0.8267245007911904 Z" fill="#A0AAE5" stroke="#111" stroke-width="1" fill-opacity="0.9"/>
    <circle r="5.76" fill="#fff" stroke="#111" stroke-width="1.5"/>
  </g>
</svg>