<?xml version="1.0" encoding="UTF-8"?>
<svg xmlns="http://www.w3.org/2000/svg" width="64" height="64" viewBox="-32 -32 64 64">
  <g>
    <path d="M 5.486417660180143e-16 -8.96 L 1.8810574834903343e-15 -30.72 A 30.72 30.72 0 0 1 30.496016612292216 -3.7028868174435208 L 8.894671511918565 -1.0800086550876937 A 8.96 8.96 0 0 0 5.486417660180143e-16 -8.96 Z" fill="#7F142A" stroke="#111" stroke-width="1" fill-opacity="0.9"/><path d="M 8.894671511918565 -1.0800086550876937 L 28.520606922361964 -3.463028655215719 A 28.73008156421987 28.73008156421987 0 0 1 6.87555855457699 27.89523760876235 L 2.1442683520165167 8.699638684137426 A 8.96 8.96 0 0 0 8.894671511918565 -1.0800086550876937 Z" fill="#A0AAE5" stroke="#111" stroke-width="1" fill-opacity="0.9"/><path d="M 2.1442683520165167 8.699638684137426 L 5.4219356900989055 21.997657815604633 A 22.656 22.656 0 1 1 -4.1618396822223646e-15 -22.656 L -1.6459252980540428e-15 -8.96 A 8.96 8.96 0 1 0 2.1442683520165167 8.699638684137426 Z" fill="#7B86C9" stroke="#111" stroke-width="1" fill-opacity="0.9"/>
    <circle r="5.76" fill="#fff" stroke="#111" stroke-width="1.5"/>
  </g>
</svg>