<?xml version="1.0" encoding="UTF-8"?>
<svg xmlns="http://www.w3.org/2000/svg" width="64" height="64" viewBox="-32 -32 64 64">
  <g>
    <path d="M 5.486417660180143e-16 -8.96 L 1.3872798940741216e-15 -22.656 A 22.656 22.656 0 0 1 22.559353498140304 -2.0904319520005687 L 8.92177821960351 -0.8267245007911855 A 8.96 8.96 0 0 0 5.486417660180143e-16 -8.96 Z" fill="#e0e0e0" stroke="#111" stroke-width="1" fill-opacity="0.9"/><path d="M 8.92177821960351 -0.8267245007911855 L 22.559353498140304 -2.0904319520005687 A 22.656 22.656 0 1 1 -22.559353498140304 -2.090431952000561 L -8.92177821960351 -0.8267245007911825 A 8.96 8.96 0 1 0 8.92177821960351 -0.8267245007911855 Z" fill="#004F61" stroke="#111" stroke-width="1" fill-opacity="0.9"/><path d="M -8.92177821960351 -0.8267245007911825 L -30.58895389578346 -2.8344840027126255 A 30.72 30.72 0 0 1 -5.643172450471003e-15 -30.72 L -1.6459252980540428e-15 -8.96 A 8.96 8.96 0 0 0 -8.92177821960351 -0.8267245007911825 Z" fill="#A0AAE5" stroke="#111" stroke-width="1" fill-opacity="0.9"/>
    <circle r="5.76" fill="#fff" stroke="#111" stroke-width="1.5"/>
  </g>
</svg>