<?xml version="1.0" encoding="UTF-8"?>
<svg xmlns="http://www.w3.org/2000/svg" width="64" height="64" viewBox="-32 -32 64 64">
  <g>
    <path d="M 5.486417660180143e-16 -8.96 L 1.543392932164421e-15 -25.205519391207183 A 25.205519391207183 25.205519391207183 0 0 1 8.18421876735333 -23.83981482622344 L 2.909307244073965 -8.474522485637687 A 8.96 8.96 0 0 0 5.486417660180143e-16 -8.96 Z" fill="#51BF7E" stroke="#111" stroke-width="1" fill-opacity="0.9"/><path d="M 2.909307244073965 -8.474522485637687 L 9.974767693967879 -29.055505665043494 A 30.72 30.72 0 0 1 25.71775421222488 16.80224741752095 L 7.501011645232257 4.900655496776944 A 8.96 8.96 0 0 0 2.909307244073965 -8.474522485637687 Z" fill="#A0AAE5" stroke="#111" stroke-width="1" fill-opacity="0.9"/><path d="M 7.501011645232257 4.900655496776944 L 25.534188276375854 16.682317806011635 A 30.500729471836948 30.500729471836948 0 1 1 -5.602893107901669e-15 -30.500729471836948 L -1.6459252980540428e-15 -8.96 A 8.96 8.96 0 1 0 7.501011645232257 4.900655496776944 Z" fill="#7F142A" stroke="#111" stroke-width="1" fill-opacity="0.9"/>
    <circle r="5.76" fill="#fff" stroke="#111" stroke-width="1.5"/>
  </g>
</svg>