<?xml version="1.0" encoding="UTF-8"?>
<svg xmlns="http://www.w3.org/2000/svg" width="64" height="64" viewBox="-32 -32 64 64">
  <g>
    <path d="M 5.486417660180143e-16 -8.96 L 1.3872798940741216e-15 -22.656 A 22.656 22.656 0 0 1 19.620671548140244 11.327999999999996 L 7.759587617908571 4.479999999999999 A 8.96 8.96 0 0 0 5.486417660180143e-16 -8.96 Z" fill="#e0e0e0" stroke="#111" stroke-width="1" fill-opacity="0.9"/><path d="M 7.759587617908571 4.479999999999999 L 24.766959591497027 14.299210787159387 A 28.598421574318785 28.598421574318785 0 0 1 9.78123624573641 26.87372571951188 L 3.064500484197993 8.41964588224174 A 8.96 8.96 0 0 0 7.759587617908571 4.479999999999999 Z" fill="#A0AAE5" stroke="#111" stroke-width="1" fill-opacity="0.9"/><path d="M 3.064500484197993 8.41964588224174 L 10.506858802964546 28.867357310543102 A 30.72 30.72 0 0 1 -10.506858802964542 28.867357310543106 L -3.064500484197992 8.41964588224174 A 8.96 8.96 0 0 0 3.064500484197993 8.41964588224174 Z" fill="#7F142A" stroke="#111" stroke-width="1" fill-opacity="0.9"/><path d="M -3.064500484197992 8.41964588224174 L -7.74880836718635 21.28967601652554 A 22.656 22.656 0 0 1 -4.1618396822223646e-15 -22.656 L -1.6459252980540428e-15 -8.96 A 8.96 8.96 0 0 0 -3.064500484197992 8.41964588224174 Z" fill="#004F61" stroke="#111" stroke-width="1" fill-opacity="0.9"/>
    <circle r="5.76" fill="#fff" stroke="#111" stroke-width="1.5"/>
  </g>
</svg>