<?xml version="1.0" encoding="UTF-8"?>
<svg xmlns="http://www.w3.org/2000/svg" width="64" height="64" viewBox="-32 -32 64 64">
  <g>
    <path d="M 5.486417660180143e-16 -8.96 L 1.8810574834903343e-15 -30.72 A 30.72 30.72 0 0 1 30.365746923359584 4.651861324940588 L 8.85667618597988 1.3567928864410048 A 8.96 8.96 0 0 0 5.486417660180143e-16 -8.96 Z" fill="#7F142A" stroke="#111" stroke-width="1" fill-opacity="0.9"/><path d="M 8.85667618597988 1.3567928864410048 L 29.256310485716796 4.481901914102576 A 29.597620647685495 29.597620647685495 0 0 1 -7.418718564175352 28.65277932190626 L -2.245846689038133 8.673970985041192 A 8.96 8.96 0 0 0 8.85667618597988 1.3567928864410048 Z" fill="#A0AAE5" stroke="#111" stroke-width="1" fill-opacity="0.9"/><path d="M -2.245846689038133 8.673970985041192 L -5.678783770853564 21.932755205032727 A 22.656 22.656 0 0 1 -4.560619271128705 -22.19223034901651 L -1.8036347399944035 -8.77658827362235 A 8.96 8.96 0 0 0 -2.245846689038133 8.673970985041192 Z" fill="#7B86C9" stroke="#111" stroke-width="1" fill-opacity="0.9"/><path d="M -1.8036347399944035 -8.77658827362235 L -4.560619271128705 -22.19223034901651 A 22.656 22.656 0 0 1 -2.42844099589484e-14 -22.656 L -9.604003938567165e-15 -8.96 A 8.96 8.96 0 0 0 -1.8036347399944035 -8.77658827362235 Z" fill="#4A0D19" stroke="#111" stroke-width="1" fill-opacity="0.9"/>
    <circle r="5.76" fill="#fff" stroke="#111" stroke-width="1.5"/>
  </g>
</svg>