<?xml version="1.0" encoding="UTF-8"?>
<svg xmlns="http://www.w3.org/2000/svg" width="64" height="64" viewBox="-32 -32 64 64">
  <g>
    <path d="M 5.486417660180143e-16 -8.96 L 1.6479885099435405e-15 -26.913694807203747 A 26.913694807203747 26.913694807203747 0 0 1 11.942140296253282 -24.119126296777615 L 3.975729747287959 -8.029643390371058 A 8.96 8.96 0 0 0 5.486417660180143e-16 -8.96 Z" fill="#51BF7E" stroke="#111" stroke-width="1" fill-opacity="0.9"/><path d="M 3.975729747287959 -8.029643390371058 L 13.631073419273001 -27.530205909843627 A 30.72 30.72 0 0 1 28.032111098159618 12.566588533903555 L 8.17603240362989 3.6652549890552044 A 8.96 8.96 0 0 0 3.975729747287959 -8.029643390371058 Z" fill="#A0AAE5" stroke="#111" stroke-width="1" fill-opacity="0.9"/><path d="M 8.17603240362989 3.6652549890552044 L 20.673681934892716 9.267859043753873 A 22.656 22.656 0 1 1 -4.1618396822223646e-15 -22.656 L -1.6459252980540428e-15 -8.96 A 8.96 8.96 0 1 0 8.17603240362989 3.6652549890552044 Z" fill="#7B86C9" stroke="#111" stroke-width="1" fill-opacity="0.9"/>
    <circle r="5.76" fill="#fff" stroke="#111" stroke-width="1.5"/>
  </g>
</svg>