<?xml version="1.0" encoding="UTF-8"?>
<svg xmlns="http://www.w3.org/2000/svg" width="64" height="64" viewBox="-32 -32 64 64">
  <g>
    <path d="M 5.486417660180143e-16 -8.96 L 1.3872798940741216e-15 -22.656 A 22.656 22.656 0 0 1 18.280882090158393 -13.382962527248068 L 7.229727380288631 -5.2926970446743775 A 8.96 8.96 0 0 0 5.486417660180143e-16 -8.96 Z" fill="#4A0D19" stroke="#111" stroke-width="1" fill-opacity="0.9"/><path d="M 7.229727380288631 -5.2926970446743775 L 23.677340883823074 -17.333570898292322 A 29.343979815541147 29.343979815541147 0 0 1 29.22448878413603 2.645450192461289 L 8.923514163786919 0.8077716067641055 A 8.96 8.96 0 0 0 7.229727380288631 -5.2926970446743775 Z" fill="#A0AAE5" stroke="#111" stroke-width="1" fill-opacity="0.9"/><path d="M 8.923514163786919 0.8077716067641055 L 22.563742957004063 2.0425082056749524 A 22.656 22.656 0 0 1 -11.680388188202606 19.4129561832529 L -4.619362560306116 7.677440298461599 A 8.96 8.96 0 0 0 8.923514163786919 0.8077716067641055 Z" fill="#7B86C9" stroke="#111" stroke-width="1" fill-opacity="0.9"/><path d="M -4.619362560306116 7.677440298461599 L -15.83781449247811 26.32265245186834 A 30.72 30.72 0 0 1 -5.643172450471003e-15 -30.72 L -1.6459252980540428e-15 -8.96 A 8.96 8.96 0 0 0 -4.619362560306116 7.677440298461599 Z" fill="#7F142A" stroke="#111" stroke-width="1" fill-opacity="0.9"/>
    <circle r="5.76" fill="#fff" stroke="#111" stroke-width="1.5"/>
  </g>
</svg>