<?xml version="1.0" encoding="UTF-8"?>
<svg xmlns="http://www.w3.org/2000/svg" width="64" height="64" viewBox="-32 -32 64 64">
  <g>
    <path d="M 5.486417660180143e-16 -8.96 L 1.6151041393079629e-15 -26.37665227937494 A 26.37665227937494 26.37665227937494 0 0 1 10.401787264659568 -24.239030656522164 L 3.5334284618153347 -8.233861992117268 A 8.96 8.96 0 0 0 5.486417660180143e-16 -8.96 Z" fill="#51BF7E" stroke="#111" stroke-width="1" fill-opacity="0.9"/><path d="M 3.5334284618153347 -8.233861992117268 L 8.934526253447345 -20.819908180067944 A 22.656 22.656 0 0 1 12.942652681187614 -18.59521652399205 L 5.118563207249339 -7.354040433217197 A 8.96 8.96 0 0 0 3.5334284618153347 -8.233861992117268 Z" fill="#4A0D19" stroke="#111" stroke-width="1" fill-opacity="0.9"/><path d="M 5.118563207249339 -7.354040433217197 L 16.28934560257004 -23.40354145129801 A 28.51435660544688 28.51435660544688 0 0 1 24.198544989370017 -15.083068421910292 L 7.60385254715297 -4.739517532529583 A 8.96 8.96 0 0 0 5.118563207249339 -7.354040433217197 Z" fill="#A0AAE5" stroke="#111" stroke-width="1" fill-opacity="0.9"/><path d="M 7.60385254715297 -4.739517532529583 L 26.07035159023875 -16.249774397244284 A 30.72 30.72 0 1 1 -5.643172450471003e-15 -30.72 L -1.6459252980540428e-15 -8.96 A 8.96 8.96 0 1 0 7.60385254715297 -4.739517532529583 Z" fill="#7F142A" stroke="#111" stroke-width="1" fill-opacity="0.9"/>
    <circle r="5.76" fill="#fff" stroke="#111" stroke-width="1.5"/>
  </g>
</svg>