<?xml version="1.0" encoding="UTF-8"?>
<svg xmlns="http://www.w3.org/2000/svg" width="64" height="64" viewBox="-32 -32 64 64">
  <g>
    <path d="M 5.486417660180143e-16 -8.96 L 1.7678571829957504e-15 -28.871298797769306 A 28.871298797769306 28.871298797769306 0 0 1 25.003278199119343 14.435649398884648 L 7.759587617908571 4.479999999999999 A 8.96 8.96 0 0 0 5.486417660180143e-16 -8.96 Z" fill="#7F142A" stroke="#111" stroke-width="1" fill-opacity="0.9"/><path d="M 7.759587617908571 4.479999999999999 L 26.604300404257955 15.359999999999994 A 30.72 30.72 0 0 1 -29.21645618058712 -9.49300206719838 L -8.521466386004578 -2.768792269599528 A 8.96 8.96 0 0 0 7.759587617908571 4.479999999999999 Z" fill="#A0AAE5" stroke="#111" stroke-width="1" fill-opacity="0.9"/><path d="M -8.521466386004578 -2.768792269599528 L -21.547136433183 -7.001089024558805 A 22.656 22.656 0 0 1 -4.1618396822223646e-15 -22.656 L -1.6459252980540428e-15 -8.96 A 8.96 8.96 0 0 0 -8.521466386004578 -2.768792269599528 Z" fill="#7B86C9" stroke="#111" stroke-width="1" fill-opacity="0.9"/>
    <circle r="5.76" fill="#fff" stroke="#111" stroke-width="1.5"/>
  </g>
</svg>