<?xml version="1.0" encoding="UTF-8"?>
<svg xmlns="http://www.w3.org/2000/svg" width="64" height="64" viewBox="-32 -32 64 64">
  <g>
    <path d="M 5.486417660180143e-16 -8.96 L 1.5913373872320017e-15 -25.988511762574365 A 25.988511762574365 25.988511762574365 0 0 1 7.431302626521641 -24.90338300124139 L 2.5620732784522557 -8.58588262881813 A 8.96 8.96 0 0 0 5.486417660180143e-16 -8.96 Z" fill="#51BF7E" stroke="#111" stroke-width="1" fill-opacity="0.9"/><path d="M 2.5620732784522557 -8.58588262881813 L 8.784251240407732 -29.437311870233586 A 30.72 30.72 0 1 1 -30.281505206220316 5.171928310181015 L -8.832105685147592 1.5084790904694632 A 8.96 8.96 0 1 0 2.5620732784522557 -8.58588262881813 Z" fill="#A0AAE5" stroke="#111" stroke-width="1" fill-opacity="0.9"/><path d="M -8.832105685147592 1.5084790904694632 L -22.332610089587483 3.814297128758499 A 22.656 22.656 0 0 1 -22.490812251565508 -2.730879027864604 L -8.894671511918565 -1.0800086550876966 A 8.96 8.96 0 0 0 -8.832105685147592 1.5084790904694632 Z" fill="#7B86C9" stroke="#111" stroke-width="1" fill-opacity="0.9"/><path d="M -8.894671511918565 -1.0800086550876966 L -29.280576166650096 -3.555305628045116 A 29.495632537035156 29.495632537035156 0 0 1 -5.418259796295994e-15 -29.495632537035156 L -1.6459252980540428e-15 -8.96 A 8.96 8.96 0 0 0 -8.894671511918565 -1.0800086550876966 Z" fill="#7F142A" stroke="#111" stroke-width="1" fill-opacity="0.9"/>
    <circle r="5.76" fill="#fff" stroke="#111" stroke-width="1.5"/>
  </g>
</svg>