<?xml version="1.0" encoding="UTF-8"?>
<svg xmlns="http://www.w3.org/2000/svg" width="64" height="64" viewBox="-32 -32 64 64">
  <g>
    <path d="M 5.486417660180143e-16 -8.96 L 1.640687400681968e-15 -26.794458644309174 A 26.794458644309174 26.794458644309174 0 0 1 10.460269288550096 -24.668315314439496 L 3.4978879054649137 -8.249022984620803 A 8.96 8.96 0 0 0 5.486417660180143e-16 -8.96 Z" fill="#51BF7E" stroke="#111" stroke-width="1" fill-opacity="0.9"/><path d="M 3.4978879054649137 -8.249022984620803 L 11.99275853302256 -28.28236451869989 A 30.72 30.72 0 0 1 20.60650690987694 22.78355268550526 L 6.010231182047442 6.645202866605701 A 8.96 8.96 0 0 0 3.4978879054649137 -8.249022984620803 Z" fill="#A0AAE5" stroke="#111" stroke-width="1" fill-opacity="0.9"/><path d="M 6.010231182047442 6.645202866605701 L 15.197298846034244 16.802870105560128 A 22.656 22.656 0 1 1 -4.1618396822223646e-15 -22.656 L -1.6459252980540428e-15 -8.96 A 8.96 8.96 0 1 0 6.010231182047442 6.645202866605701 Z" fill="#004F61" stroke="#111" stroke-width="1" fill-opacity="0.9"/>
    <circle r="5.76" fill="#fff" stroke="#111" stroke-width="1.5"/>
  </g>
</svg>