<?xml version="1.0" encoding="UTF-8"?>
<svg xmlns="http://www.w3.org/2000/svg" width="64" height="64" viewBox="-32 -32 64 64">
  <g>
    <path d="M 5.486417660180143e-16 -8.96 L 1.828121228260571e-15 -29.85548534538089 A 29.85548534538089 29.85548534538089 0 1 1 -11.425199606895996 27.58287184378807 L -3.428843553991204 8.27796061130113 A 8.96 8.96 0 1 0 5.486417660180143e-16 -8.96 Z" fill="#A0AAE5" stroke="#111" stroke-width="1" fill-opacity="0.9"/><path d="M -3.428843553991204 8.27796061130113 L -8.670075843663472 20.93141468857571 A 22.656 22.656 0 0 1 -16.020211234562417 16.02021123456242 L -6.335676759431466 6.3356767594314665 A 8.96 8.96 0 0 0 -3.428843553991204 8.27796061130113 Z" fill="#7B86C9" stroke="#111" stroke-width="1" fill-opacity="0.9"/><path d="M -6.335676759431466 6.3356767594314665 L -21.722320318050738 21.72232031805074 A 30.72 30.72 0 0 1 -5.643172450471003e-15 -30.72 L -1.6459252980540428e-15 -8.96 A 8.96 8.96 0 0 0 -6.335676759431466 6.3356767594314665 Z" fill="#7F142A" stroke="#111" stroke-width="1" fill-opacity="0.9"/>
    <circle r="5.76" fill="#fff" stroke="#111" stroke-width="1.5"/>
  </g>
</svg>