<?xml version="1.0" encoding="UTF-8"?>
<svg xmlns="http://www.w3.org/2000/svg" width="64" height="64" viewBox="-32 -32 64 64">
  <g>
    <path d="M 5.486417660180143e-16 -8.96 L 1.6805934144953352e-15 -27.446173307527197 A 27.446173307527197 27.446173307527197 0 0 1 19.407375263373694 -19.407375263373694 L 6.3356767594314665 -6.335676759431466 A 8.96 8.96 0 0 0 5.486417660180143e-16 -8.96 Z" fill="#51BF7E" stroke="#111" stroke-width="1" fill-opacity="0.9"/><path d="M 6.3356767594314665 -6.335676759431466 L 21.72232031805074 -21.722320318050738 A 30.72 30.72 0 0 1 21.72232031805074 21.722320318050738 L 6.3356767594314665 6.335676759431466 A 8.96 8.96 0 0 0 6.3356767594314665 -6.335676759431466 Z" fill="#7F142A" stroke="#111" stroke-width="1" fill-opacity="0.9"/><path d="M 6.3356767594314665 6.335676759431466 L 21.644693752087132 21.64469375208713 A 30.610219457613816 30.610219457613816 0 1 1 -5.623006091994718e-15 -30.610219457613816 L -1.6459252980540428e-15 -8.96 A 8.96 8.96 0 1 0 6.3356767594314665 6.335676759431466 Z" fill="#A0AAE5" stroke="#111" stroke-width="1" fill-opacity="0.9"/>
    <circle r="5.76" fill="#fff" stroke="#111" stroke-width="1.5"/>
  </g>
</svg>