<?xml version="1.0" encoding="UTF-8"?>
<svg xmlns="http://www.w3.org/2000/svg" width="64" height="64" viewBox="-32 -32 64 64">
  <g>
    <path d="M 5.486417660180143e-16 -8.96 L 1.3872798940741216e-15 -22.656 A 22.656 22.656 0 0 1 7.748808367186353 21.289676016525537 L 3.064500484197993 8.41964588224174 A 8.96 8.96 0 0 0 5.486417660180143e-16 -8.96 Z" fill="#004F61" stroke="#111" stroke-width="1" fill-opacity="0.9"/><path d="M 3.064500484197993 8.41964588224174 L 9.78123624573641 26.87372571951188 A 28.598421574318785 28.598421574318785 0 0 1 -9.781236245736407 26.873725719511885 L -3.064500484197992 8.41964588224174 A 8.96 8.96 0 0 0 3.064500484197993 8.41964588224174 Z" fill="#A0AAE5" stroke="#111" stroke-width="1" fill-opacity="0.9"/><path d="M -3.064500484197992 8.41964588224174 L -10.506858802964542 28.867357310543106 A 30.72 30.72 0 0 1 -26.60430040425795 15.36000000000001 L -7.759587617908569 4.480000000000003 A 8.96 8.96 0 0 0 -3.064500484197992 8.41964588224174 Z" fill="#7F142A" stroke="#111" stroke-width="1" fill-opacity="0.9"/><path d="M -7.759587617908569 4.480000000000003 L -19.620671548140237 11.328000000000007 A 22.656 22.656 0 0 1 -4.1618396822223646e-15 -22.656 L -1.6459252980540428e-15 -8.96 A 8.96 8.96 0 0 0 -7.759587617908569 4.480000000000003 Z" fill="#e0e0e0" stroke="#111" stroke-width="1" fill-opacity="0.9"/>
    <circle r="5.76" fill="#fff" stroke="#111" stroke-width="1.5"/>
  </g>
</svg>