<?xml version="1.0" encoding="UTF-8"?>
<svg xmlns="http://www.w3.org/2000/svg" width="64" height="64" viewBox="-32 -32 64 64">
  <g>
    <path d="M 5.486417660180143e-16 -8.96 L 1.3872798940741216e-15 -22.656 A 22.656 22.656 0 0 1 14.562996085058234 -17.355502903303567 L 5.759376982791394 -6.8637582103460435 A 8.96 8.96 0 0 0 5.486417660180143e-16 -8.96 Z" fill="#4A0D19" stroke="#111" stroke-width="1" fill-opacity="0.9"/><path d="M 5.759376982791394 -6.8637582103460435 L 19.456891671621 -23.18782055037069 A 30.26954997018271 30.26954997018271 0 0 1 -10.352795819205381 28.444072741491006 L -3.064500484197992 8.41964588224174 A 8.96 8.96 0 0 0 5.759376982791394 -6.8637582103460435 Z" fill="#A0AAE5" stroke="#111" stroke-width="1" fill-opacity="0.9"/><path d="M -3.064500484197992 8.41964588224174 L -10.506858802964542 28.867357310543106 A 30.72 30.72 0 0 1 -26.604300404257952 -15.360000000000003 L -7.75958761790857 -4.480000000000001 A 8.96 8.96 0 0 0 -3.064500484197992 8.41964588224174 Z" fill="#7F142A" stroke="#111" stroke-width="1" fill-opacity="0.9"/><path d="M -7.75958761790857 -4.480000000000001 L -22.52092627481701 -13.00246284716532 A 26.004925694330634 26.004925694330634 0 0 1 -4.777027352044016e-15 -26.004925694330634 L -1.6459252980540428e-15 -8.96 A 8.96 8.96 0 0 0 -7.75958761790857 -4.480000000000001 Z" fill="#51BF7E" stroke="#111" stroke-width="1" fill-opacity="0.9"/>
    <circle r="5.76" fill="#fff" stroke="#111" stroke-width="1.5"/>
  </g>
</svg>