<?xml version="1.0" encoding="UTF-8"?>
<svg xmlns="http://www.w3.org/2000/svg" width="64" height="64" viewBox="-32 -32 64 64">
  <g>
    <path d="M 5.486417660180143e-16 -8.96 L 1.621551730271905e-15 -26.481949430658577 A 26.481949430658577 26.481949430658577 0 0 1 13.683206617696724 -22.67296853756426 L 4.629626365520693 -7.671255419791188 A 8.96 8.96 0 0 0 5.486417660180143e-16 -8.96 Z" fill="#51BF7E" stroke="#111" stroke-width="1" fill-opacity="0.9"/><path d="M 4.629626365520693 -7.671255419791188 L 15.873004681785233 -26.301447153569786 A 30.72 30.72 0 1 1 -25.334016126231752 17.375443214946475 L -7.389088036817595 5.06783760435939 A 8.96 8.96 0 1 0 4.629626365520693 -7.671255419791188 Z" fill="#A0AAE5" stroke="#111" stroke-width="1" fill-opacity="0.9"/><path d="M -7.389088036817595 5.06783760435939 L -18.68383689309592 12.814389371023026 A 22.656 22.656 0 0 1 -4.1618396822223646e-15 -22.656 L -1.6459252980540428e-15 -8.96 A 8.96 8.96 0 0 0 -7.389088036817595 5.06783760435939 Z" fill="#7B86C9" stroke="#111" stroke-width="1" fill-opacity="0.9"/>
    <circle r="5.76" fill="#fff" stroke="#111" stroke-width="1.5"/>
  </g>
</svg>