<?xml version="1.0" encoding="UTF-8"?>
<svg xmlns="http://www.w3.org/2000/svg" width="64" height="64" viewBox="-32 -32 64 64">
  <g>
    <path d="M 5.486417660180143e-16 -8.96 L 1.7859518869838174e-15 -29.16680773962365 A 29.16680773962365 29.16680773962365 0 0 1 25.25919644981066 -14.583403869811825 L 7.75958761790857 -4.48 A 8.96 8.96 0 0 0 5.486417660180143e-16 -8.96 Z" fill="#A0AAE5" stroke="#111" stroke-width="1" fill-opacity="0.9"/><path d="M 7.75958761790857 -4.48 L 25.22891036612524 -14.565918191243348 A 29.131836382486696 29.131836382486696 0 0 1 18.72558347407799 22.3162813786552 L 5.7593769827913945 6.863758210346043 A 8.96 8.96 0 0 0 7.75958761790857 -4.48 Z" fill="#7F142A" stroke="#111" stroke-width="1" fill-opacity="0.9"/><path d="M 5.7593769827913945 6.863758210346043 L 19.74643536957049 23.532885292615 A 30.72 30.72 0 1 1 -5.643172450471003e-15 -30.72 L -1.6459252980540428e-15 -8.96 A 8.96 8.96 0 1 0 5.7593769827913945 6.863758210346043 Z" fill="#51BF7E" stroke="#111" stroke-width="1" fill-opacity="0.9"/>
    <circle r="5.76" fill="#fff" stroke="#111" stroke-width="1.5"/>
  </g>
</svg>