<?xml version="1.0" encoding="UTF-8"?>
<svg xmlns="http://www.w3.org/2000/svg" width="64" height="64" viewBox="-32 -32 64 64">
  <g>
    <path d="M 5.486417660180143e-16 -8.96 L 1.8810574834903343e-15 -30.72 A 30.72 30.72 0 1 1 -28.80774549955832 -10.669217367392855 L -8.402259104037844 -3.111855065489583 A 8.96 8.96 0 1 0 5.486417660180143e-16 -8.96 Z" fill="#7F142A" stroke="#111" stroke-width="1" fill-opacity="0.9"/><path d="M -8.402259104037844 -3.111855065489583 L -21.24571230592426 -7.86854780845223 A 22.656 22.656 0 0 1 -19.22688429780109 -11.984208617967644 L -7.603852547152974 -4.739517532529577 A 8.96 8.96 0 0 0 -8.402259104037844 -3.111855065489583 Z" fill="#4A0D19" stroke="#111" stroke-width="1" fill-opacity="0.9"/><path d="M -7.603852547152974 -4.739517532529577 L -19.22688429780109 -11.984208617967644 A 22.656 22.656 0 0 1 -2.42844099589484e-14 -22.656 L -9.604003938567165e-15 -8.96 A 8.96 8.96 0 0 0 -7.603852547152974 -4.739517532529577 Z" fill="#004F61" stroke="#111" stroke-width="1" fill-opacity="0.9"/>
    <circle r="5.76" fill="#fff" stroke="#111" stroke-width="1.5"/>
  </g>
</svg>