<?xml version="1.0" encoding="UTF-8"?>
<svg xmlns="http://www.w3.org/2000/svg" width="64" height="64" viewBox="-32 -32 64 64">
  <g>
    <path d="M 5.486417660180143e-16 -8.96 L 1.3872798940741216e-15 -22.656 A 22.656 22.656 0 0 1 7.356391174301311 -21.42843542796958 L 2.909307244073965 -8.474522485637687 A 8.96 8.96 0 0 0 5.486417660180143e-16 -8.96 Z" fill="#e0e0e0" stroke="#111" stroke-width="1" fill-opacity="0.9"/><path d="M 2.909307244073965 -8.474522485637687 L 7.356391174301311 -21.42843542796958 A 22.656 22.656 0 0 1 21.96273242512147 -5.561719196661946 L 8.685826382816401 -2.199549964781561 A 8.96 8.96 0 0 0 2.909307244073965 -8.474522485637687 Z" fill="#004F61" stroke="#111" stroke-width="1" fill-opacity="0.9"/><path d="M 8.685826382816401 -2.199549964781561 L 21.96273242512147 -5.561719196661946 A 22.656 22.656 0 0 1 22.578618273559112 1.8709176510211614 L 8.929397057339763 0.7399109354320978 A 8.96 8.96 0 0 0 8.685826382816401 -2.199549964781561 Z" fill="#4A0D19" stroke="#111" stroke-width="1" fill-opacity="0.9"/><path d="M 8.929397057339763 0.7399109354320978 L 30.615075625164895 2.5368374929100495 A 30.72 30.72 0 1 1 -5.643172450471003e-15 -30.72 L -1.6459252980540428e-15 -8.96 A 8.96 8.96 0 1 0 8.929397057339763 0.7399109354320978 Z" fill="#A0AAE5" stroke="#111" stroke-width="1" fill-opacity="0.9"/>
    <circle r="5.76" fill="#fff" stroke="#111" stroke-width="1.5"/>
  </g>
</svg>