<?xml version="1.0" encoding="UTF-8"?>
<svg xmlns="http://www.w3.org/2000/svg" width="64" height="64" viewBox="-32 -32 64 64">
  <g>
    <path d="M 5.486417660180143e-16 -8.96 L 1.5667509805226242e-15 -25.586985269768512 A 25.586985269768512 25.586985269768512 0 0 1 13.469811997075281 -21.754493328018413 L 4.716832179381108 -7.617945536137343 A 8.96 8.96 0 0 0 5.486417660180143e-16 -8.96 Z" fill="#51BF7E" stroke="#111" stroke-width="1" fill-opacity="0.9"/><path d="M 4.716832179381108 -7.617945536137343 L 14.35009426478114 -23.176198005391644 A 27.259151846549155 27.259151846549155 0 0 1 18.36437184852017 -20.144756290471822 L 6.036312967073153 -6.621519898297106 A 8.96 8.96 0 0 0 4.716832179381108 -7.617945536137343 Z" fill="#A0AAE5" stroke="#111" stroke-width="1" fill-opacity="0.9"/><path d="M 6.036312967073153 -6.621519898297106 L 20.695930172822237 -22.702353937018646 A 30.72 30.72 0 1 1 -11.097343985269365 -28.645546887301798 L -3.2367253290368985 -8.354951175463025 A 8.96 8.96 0 1 0 6.036312967073153 -6.621519898297106 Z" fill="#7F142A" stroke="#111" stroke-width="1" fill-opacity="0.9"/><path d="M -3.2367253290368985 -8.354951175463025 L -8.184291189136156 -21.126090829385078 A 22.656 22.656 0 0 1 -2.42844099589484e-14 -22.656 L -9.604003938567165e-15 -8.96 A 8.96 8.96 0 0 0 -3.2367253290368985 -8.354951175463025 Z" fill="#4A0D19" stroke="#111" stroke-width="1" fill-opacity="0.9"/>
    <circle r="5.76" fill="#fff" stroke="#111" stroke-width="1.5"/>
  </g>
</svg>