<?xml version="1.0" encoding="UTF-8"?>
<svg xmlns="http://www.w3.org/2000/svg" width="64" height="64" viewBox="-32 -32 64 64">
  <g>
    <path d="M 5.486417660180143e-16 -8.96 L 1.4945166601552152e-15 -24.40730929433296 A 24.40730929433296 24.40730929433296 0 0 1 5.368298783954829 -23.809622322821948 L 1.9707193662434317 -8.740587233104712 A 8.96 8.96 0 0 0 5.486417660180143e-16 -8.96 Z" fill="#51BF7E" stroke="#111" stroke-width="1" fill-opacity="0.9"/><path d="M 1.9707193662434317 -8.740587233104712 L 6.756752112834622 -29.96772765635901 A 30.72 30.72 0 1 1 -29.21645618058712 -9.49300206719838 L -8.521466386004578 -2.768792269599528 A 8.96 8.96 0 1 0 1.9707193662434317 -8.740587233104712 Z" fill="#7F142A" stroke="#111" stroke-width="1" fill-opacity="0.9"/><path d="M -8.521466386004578 -2.768792269599528 L -27.68848519375196 -8.996534198303205 A 29.11339622761076 29.11339622761076 0 0 1 -2.150097894786515 -29.033892590362303 L -0.6617186461748705 -8.935531793536661 A 8.96 8.96 0 0 0 -8.521466386004578 -2.768792269599528 Z" fill="#A0AAE5" stroke="#111" stroke-width="1" fill-opacity="0.9"/><path d="M -0.6617186461748705 -8.935531793536661 L -1.6732028624707438 -22.59413039222841 A 22.656 22.656 0 0 1 -4.1618396822223646e-15 -22.656 L -1.6459252980540428e-15 -8.96 A 8.96 8.96 0 0 0 -0.6617186461748705 -8.935531793536661 Z" fill="#004F61" stroke="#111" stroke-width="1" fill-opacity="0.9"/>
    <circle r="5.76" fill="#fff" stroke="#111" stroke-width="1.5"/>
  </g>
</svg>