<?xml version="1.0" encoding="UTF-8"?>
<svg xmlns="http://www.w3.org/2000/svg" width="64" height="64" viewBox="-32 -32 64 64">
  <g>
    <path d="M 5.486417660180143e-16 -8.96 L 1.5321560544939585e-15 -25.022007252388285 A 25.022007252388285 25.022007252388285 0 0 1 2.2114476182015395 -24.924091685967667 L 0.7918857371921889 -8.924937925791506 A 8.96 8.96 0 0 0 5.486417660180143e-16 -8.96 Z" fill="#51BF7E" stroke="#111" stroke-width="1" fill-opacity="0.9"/><path d="M 0.7918857371921889 -8.924937925791506 L 2.002339649757392 -22.56734304092995 A 22.656 22.656 0 0 1 2.667075269328105 -22.498467625768168 L 1.0547755302427535 -8.89769906103826 A 8.96 8.96 0 0 0 0.7918857371921889 -8.924937925791506 Z" fill="#e0e0e0" stroke="#111" stroke-width="1" fill-opacity="0.9"/><path d="M 1.0547755302427535 -8.89769906103826 L 3.616373246546583 -30.5063967807026 A 30.72 30.72 0 0 1 -2.263433610176187 30.636502220265367 L -0.6601681363013879 8.935646480910734 A 8.96 8.96 0 0 0 1.0547755302427535 -8.89769906103826 Z" fill="#A0AAE5" stroke="#111" stroke-width="1" fill-opacity="0.9"/><path d="M -0.6601681363013879 8.935646480910734 L -1.6692822875049378 22.59442038744571 A 22.656 22.656 0 0 1 -22.330876772499114 -3.8244317972032817 L -8.831420192513775 -1.5124871514363265 A 8.96 8.96 0 0 0 -0.6601681363013879 8.935646480910734 Z" fill="#7B86C9" stroke="#111" stroke-width="1" fill-opacity="0.9"/><path d="M -8.831420192513775 -1.5124871514363265 L -29.431043092606117 -5.04042085650837 A 29.85954018282202 29.85954018282202 0 0 1 -0.8806845838474622 -29.84654979379252 L -0.26426843223168117 -8.956101953178393 A 8.96 8.96 0 0 0 -8.831420192513775 -1.5124871514363265 Z" fill="#7F142A" stroke="#111" stroke-width="1" fill-opacity="0.9"/><path d="M -0.26426843223168117 -8.956101953178393 L -0.6682216072143937 -22.646143510179648 A 22.656 22.656 0 0 1 -4.1618396822223646e-15 -22.656 L -1.6459252980540428e-15 -8.96 A 8.96 8.96 0 0 0 -0.26426843223168117 -8.956101953178393 Z" fill="#004F61" stroke="#111" stroke-width="1" fill-opacity="0.9"/>
    <circle r="5.76" fill="#fff" stroke="#111" stroke-width="1.5"/>
  </g>
</svg>