<?xml version="1.0" encoding="UTF-8"?>
<svg xmlns="http://www.w3.org/2000/svg" width="64" height="64" viewBox="-32 -32 64 64">
  <g>
    <path d="M 5.486417660180143e-16 -8.96 L 1.8810574834903343e-15 -30.72 A 30.72 30.72 0 1 1 -28.448026244745378 -11.594317693520308 L -8.297340988050736 -3.381675993943424 A 8.96 8.96 0 1 0 5.486417660180143e-16 -8.96 Z" fill="#A0AAE5" stroke="#111" stroke-width="1" fill-opacity="0.9"/><path d="M -8.297340988050736 -3.381675993943424 L -20.980419355499716 -8.550809298971227 A 22.656 22.656 0 0 1 -11.771693972002781 -19.357726029405246 L -4.655472192317485 -7.655597864736539 A 8.96 8.96 0 0 0 -8.297340988050736 -3.381675993943424 Z" fill="#7B86C9" stroke="#111" stroke-width="1" fill-opacity="0.9"/><path d="M -4.655472192317485 -7.655597864736539 L -14.882577102165653 -24.473355393064786 A 28.643257939647135 28.643257939647135 0 0 1 -5.261681122941131e-15 -28.643257939647135 L -1.6459252980540428e-15 -8.96 A 8.96 8.96 0 0 0 -4.655472192317485 -7.655597864736539 Z" fill="#7F142A" stroke="#111" stroke-width="1" fill-opacity="0.9"/>
    <circle r="5.76" fill="#fff" stroke="#111" stroke-width="1.5"/>
  </g>
</svg>