<?xml version="1.0" encoding="UTF-8"?>
<svg xmlns="http://www.w3.org/2000/svg" width="64" height="64" viewBox="-32 -32 64 64">
  <g>
    <path d="M 5.486417660180143e-16 -8.96 L 1.8810574834903343e-15 -30.72 A 30.72 30.72 0 0 1 1.8810574834903343e-15 30.72 L 5.486417660180143e-16 8.96 A 8.96 8.96 0 0 0 5.486417660180143e-16 -8.96 Z" fill="#A0AAE5" stroke="#111" stroke-width="1" fill-opacity="0.9"/><path d="M 5.486417660180143e-16 8.96 L 1.3872798940741216e-15 22.656 A 22.656 22.656 0 0 1 -19.62067154814025 -11.327999999999985 L -7.759587617908575 -4.479999999999995 A 8.96 8.96 0 0 0 5.486417660180143e-16 8.96 Z" fill="#7B86C9" stroke="#111" stroke-width="1" fill-opacity="0.9"/><path d="M -7.759587617908575 -4.479999999999995 L -23.95976835409741 -13.833178708959192 A 27.66635741791842 27.66635741791842 0 0 1 -2.965488901869368e-14 -27.66635741791842 L -9.604003938567165e-15 -8.96 A 8.96 8.96 0 0 0 -7.759587617908575 -4.479999999999995 Z" fill="#51BF7E" stroke="#111" stroke-width="1" fill-opacity="0.9"/>
    <circle r="5.76" fill="#fff" stroke="#111" stroke-width="1.5"/>
  </g>
</svg>