<?xml version="1.0" encoding="UTF-8"?>
<svg xmlns="http://www.w3.org/2000/svg" width="64" height="64" viewBox="-32 -32 64 64">
  <g>
    <path d="M 5.486417660180143e-16 -8.96 L 1.6352451012765747e-15 -26.705579150087946 A 26.705579150087946 26.705579150087946 0 0 1 18.883696112541266 -18.883696112541262 L 6.3356767594314665 -6.335676759431466 A 8.96 8.96 0 0 0 5.486417660180143e-16 -8.96 Z" fill="#51BF7E" stroke="#111" stroke-width="1" fill-opacity="0.9"/><path d="M 6.3356767594314665 -6.335676759431466 L 21.72232031805074 -21.722320318050738 A 30.72 30.72 0 0 1 -21.722320318050738 21.72232031805074 L -6.335676759431466 6.3356767594314665 A 8.96 8.96 0 0 0 6.3356767594314665 -6.335676759431466 Z" fill="#7F142A" stroke="#111" stroke-width="1" fill-opacity="0.9"/><path d="M -6.335676759431466 6.3356767594314665 L -19.6807910471054 19.680791047105405 A 27.83284161704745 27.83284161704745 0 0 1 -27.83284161704745 3.40854003974924e-15 L -8.96 1.0972835320360286e-15 A 8.96 8.96 0 0 0 -6.335676759431466 6.3356767594314665 Z" fill="#A0AAE5" stroke="#111" stroke-width="1" fill-opacity="0.9"/><path d="M -8.96 1.0972835320360286e-15 L -22.656 2.7745597881482432e-15 A 22.656 22.656 0 0 1 -4.1618396822223646e-15 -22.656 L -1.6459252980540428e-15 -8.96 A 8.96 8.96 0 0 0 -8.96 1.0972835320360286e-15 Z" fill="#4A0D19" stroke="#111" stroke-width="1" fill-opacity="0.9"/>
    <circle r="5.76" fill="#fff" stroke="#111" stroke-width="1.5"/>
  </g>
</svg>