<?xml version="1.0" encoding="UTF-8"?>
<svg xmlns="http://www.w3.org/2000/svg" width="64" height="64" viewBox="-32 -32 64 64">
  <g>
    <path d="M 5.486417660180143e-16 -8.96 L 1.6368276511557838e-15 -26.73142415095368 A 26.73142415095368 26.73142415095368 0 0 1 7.6666588614648274 -25.608423985870598 L 2.5697569650913694 -8.583586030346781 A 8.96 8.96 0 0 0 5.486417660180143e-16 -8.96 Z" fill="#51BF7E" stroke="#111" stroke-width="1" fill-opacity="0.9"/><path d="M 2.5697569650913694 -8.583586030346781 L 8.810595308884695 -29.429437818331817 A 30.72 30.72 0 1 1 -12.982833000674283 27.84177521776589 L -3.786659625196666 8.120517771848386 A 8.96 8.96 0 1 0 2.5697569650913694 -8.583586030346781 Z" fill="#7F142A" stroke="#111" stroke-width="1" fill-opacity="0.9"/><path d="M -3.786659625196666 8.120517771848386 L -12.635637726808811 27.097212550193174 A 29.898465993316456 29.898465993316456 0 0 1 -7.738292418420351 -28.87970046936981 L -2.319018644118585 -8.654695403550052 A 8.96 8.96 0 0 0 -3.786659625196666 8.120517771848386 Z" fill="#A0AAE5" stroke="#111" stroke-width="1" fill-opacity="0.9"/><path d="M -2.319018644118585 -8.654695403550052 L -5.863804285842707 -21.884015520405132 A 22.656 22.656 0 0 1 -1.9746005076909452 -22.569787079966584 L -0.7809154550190179 -8.92590449490204 A 8.96 8.96 0 0 0 -2.319018644118585 -8.654695403550052 Z" fill="#7B86C9" stroke="#111" stroke-width="1" fill-opacity="0.9"/><path d="M -0.7809154550190179 -8.92590449490204 L -1.9746005076909452 -22.569787079966584 A 22.656 22.656 0 0 1 -4.1618396822223646e-15 -22.656 L -1.6459252980540428e-15 -8.96 A 8.96 8.96 0 0 0 -0.7809154550190179 -8.92590449490204 Z" fill="#4A0D19" stroke="#111" stroke-width="1" fill-opacity="0.9"/>
    <circle r="5.76" fill="#fff" stroke="#111" stroke-width="1.5"/>
  </g>
</svg>