<?xml version="1.0" encoding="UTF-8"?>
<svg xmlns="http://www.w3.org/2000/svg" width="64" height="64" viewBox="-32 -32 64 64">
  <g>
    <path d="M 5.486417660180143e-16 -8.96 L 1.8810574834903343e-15 -30.72 A 30.72 30.72 0 1 1 -7.740766045751047 29.728756129797084 L -2.2577234300107225 8.670887204524151 A 8.96 8.96 0 1 0 5.486417660180143e-16 -8.96 Z" fill="#A0AAE5" stroke="#111" stroke-width="1" fill-opacity="0.9"/><path d="M -2.2577234300107225 8.670887204524151 L -5.708814958741397 21.92495764572535 A 22.656 22.656 0 0 1 -3.8288825852118054 -22.330114064837684 L -1.514247350083765 -8.83111855671547 A 8.96 8.96 0 0 0 -2.2577234300107225 8.670887204524151 Z" fill="#7B86C9" stroke="#111" stroke-width="1" fill-opacity="0.9"/><path d="M -1.514247350083765 -8.83111855671547 L -3.8288825852118054 -22.330114064837684 A 22.656 22.656 0 0 1 1.5960730594503672e-14 -22.656 L 6.31215334245908e-15 -8.96 A 8.96 8.96 0 0 0 -1.514247350083765 -8.83111855671547 Z" fill="#4A0D19" stroke="#111" stroke-width="1" fill-opacity="0.9"/>
    <circle r="5.76" fill="#fff" stroke="#111" stroke-width="1.5"/>
  </g>
</svg>