<?xml version="1.0" encoding="UTF-8"?>
<svg xmlns="http://www.w3.org/2000/svg" width="64" height="64" viewBox="-32 -32 64 64">
  <g>
    <path d="M 5.486417660180143e-16 -8.96 L 1.8202728466067264e-15 -29.727311546056725 A 29.727311546056725 29.727311546056725 0 0 1 8.375151489892325 28.523146552890545 L 2.524323709299213 8.597057043585897 A 8.96 8.96 0 0 0 5.486417660180143e-16 -8.96 Z" fill="#51BF7E" stroke="#111" stroke-width="1" fill-opacity="0.9"/><path d="M 2.524323709299213 8.597057043585897 L 6.382932807799438 21.73827281021005 A 22.656 22.656 0 0 1 -17.122262356570065 14.836524788264388 L -6.771516186214152 5.867552176149759 A 8.96 8.96 0 0 0 2.524323709299213 8.597057043585897 Z" fill="#004F61" stroke="#111" stroke-width="1" fill-opacity="0.9"/><path d="M -6.771516186214152 5.867552176149759 L -23.216626924162803 20.11732174679917 A 30.72 30.72 0 0 1 -5.643172450471003e-15 -30.72 L -1.6459252980540428e-15 -8.96 A 8.96 8.96 0 0 0 -6.771516186214152 5.867552176149759 Z" fill="#A0AAE5" stroke="#111" stroke-width="1" fill-opacity="0.9"/>
    <circle r="5.76" fill="#fff" stroke="#111" stroke-width="1.5"/>
  </g>
</svg>