<?xml version="1.0" encoding="UTF-8"?>
<svg xmlns="http://www.w3.org/2000/svg" width="64" height="64" viewBox="-32 -32 64 64">
  <g>
    <path d="M 5.486417660180143e-16 -8.96 L 1.465488467350581e-15 -23.933242929649776 A 23.933242929649776 23.933242929649776 0 0 1 3.567064763179907 -23.665928380372304 L 1.335418704938523 -8.859924202977153 A 8.96 8.96 0 0 0 5.486417660180143e-16 -8.96 Z" fill="#51BF7E" stroke="#111" stroke-width="1" fill-opacity="0.9"/><path d="M 1.335418704938523 -8.859924202977153 L 4.156033038028677 -27.573477566122655 A 27.884929185899956 27.884929185899956 0 0 1 16.837043224060015 -22.22798351569008 L 5.410087516516277 -7.142307264717386 A 8.96 8.96 0 0 0 1.335418704938523 -8.859924202977153 Z" fill="#A0AAE5" stroke="#111" stroke-width="1" fill-opacity="0.9"/><path d="M 5.410087516516277 -7.142307264717386 L 18.54887148519866 -24.48791062188818 A 30.72 30.72 0 1 1 -7.580387257045828 -29.77005423295727 L -2.2109462833050335 -8.682932484612538 A 8.96 8.96 0 1 0 5.410087516516277 -7.142307264717386 Z" fill="#7F142A" stroke="#111" stroke-width="1" fill-opacity="0.9"/><path d="M -2.2109462833050335 -8.682932484612538 L -5.590535602071299 -21.955414996805988 A 22.656 22.656 0 0 1 -4.1618396822223646e-15 -22.656 L -1.6459252980540428e-15 -8.96 A 8.96 8.96 0 0 0 -2.2109462833050335 -8.682932484612538 Z" fill="#004F61" stroke="#111" stroke-width="1" fill-opacity="0.9"/>
    <circle r="5.76" fill="#fff" stroke="#111" stroke-width="1.5"/>
  </g>
</svg>