<?xml version="1.0" encoding="UTF-8"?>
<svg xmlns="http://www.w3.org/2000/svg" width="64" height="64" viewBox="-32 -32 64 64">
  <g>
    <path d="M 5.486417660180143e-16 -8.96 L 1.712251883208239e-15 -27.963195337633273 A 27.963195337633273 27.963195337633273 0 0 1 26.074903097752387 10.10147127568347 L 8.354951175463029 3.236725329036891 A 8.96 8.96 0 0 0 5.486417660180143e-16 -8.96 Z" fill="#51BF7E" stroke="#111" stroke-width="1" fill-opacity="0.9"/><path d="M 8.354951175463029 3.236725329036891 L 28.64554688730181 11.097343985269339 A 30.72 30.72 0 0 1 -28.64554688730181 11.097343985269337 L -8.354951175463029 3.2367253290368905 A 8.96 8.96 0 0 0 8.354951175463029 3.236725329036891 Z" fill="#A0AAE5" stroke="#111" stroke-width="1" fill-opacity="0.9"/><path d="M -8.354951175463029 3.2367253290368905 L -21.126090829385085 8.184291189136136 A 22.656 22.656 0 0 1 -22.270238546438478 -4.163029075652222 L -8.807438973167761 -1.6463956796364725 A 8.96 8.96 0 0 0 -8.354951175463029 3.2367253290368905 Z" fill="#7B86C9" stroke="#111" stroke-width="1" fill-opacity="0.9"/><path d="M -8.807438973167761 -1.6463956796364725 L -28.4821916213775 -5.324244354672845 A 28.975555516765027 28.975555516765027 0 0 1 -5.322723197568408e-15 -28.975555516765027 L -1.6459252980540428e-15 -8.96 A 8.96 8.96 0 0 0 -8.807438973167761 -1.6463956796364725 Z" fill="#7F142A" stroke="#111" stroke-width="1" fill-opacity="0.9"/>
    <circle r="5.76" fill="#fff" stroke="#111" stroke-width="1.5"/>
  </g>
</svg>