<?xml version="1.0" encoding="UTF-8"?>
<svg xmlns="http://www.w3.org/2000/svg" width="64" height="64" viewBox="-32 -32 64 64">
  <g>
    <path d="M 5.486417660180143e-16 -8.96 L 1.6569683105696573e-15 -27.060346080572835 A 27.060346080572835 27.060346080572835 0 0 1 23.660122027250164 13.13243905967224 L 7.834145680655458 4.348305584278486 A 8.96 8.96 0 0 0 5.486417660180143e-16 -8.96 Z" fill="#51BF7E" stroke="#111" stroke-width="1" fill-opacity="0.9"/><path d="M 7.834145680655458 4.348305584278486 L 22.781579216956963 12.644808019384255 A 26.05554684641199 26.05554684641199 0 0 1 20.60409425878617 15.94875610323967 L 7.085350602961779 5.48446960362706 A 8.96 8.96 0 0 0 7.834145680655458 4.348305584278486 Z" fill="#A0AAE5" stroke="#111" stroke-width="1" fill-opacity="0.9"/><path d="M 7.085350602961779 5.48446960362706 L 17.9158150960605 13.86787314059985 A 22.656 22.656 0 0 1 11.984208617967656 19.22688429780108 L 4.739517532529582 7.603852547152971 A 8.96 8.96 0 0 0 7.085350602961779 5.48446960362706 Z" fill="#7B86C9" stroke="#111" stroke-width="1" fill-opacity="0.9"/><path d="M 4.739517532529582 7.603852547152971 L 16.24977439724428 26.070351590238754 A 30.72 30.72 0 1 1 -5.643172450471003e-15 -30.72 L -1.6459252980540428e-15 -8.96 A 8.96 8.96 0 1 0 4.739517532529582 7.603852547152971 Z" fill="#7F142A" stroke="#111" stroke-width="1" fill-opacity="0.9"/>
    <circle r="5.76" fill="#fff" stroke="#111" stroke-width="1.5"/>
  </g>
</svg>