<?xml version="1.0" encoding="UTF-8"?>
<svg xmlns="http://www.w3.org/2000/svg" width="64" height="64" viewBox="-32 -32 64 64">
  <g>
    <path d="M 5.486417660180143e-16 -8.96 L 1.6372858253929314e-15 -26.738906704086002 A 26.738906704086002 26.738906704086002 0 0 1 8.150173012812655 -25.466523351078678 L 2.7310596877785684 -8.533634218888857 A 8.96 8.96 0 0 0 5.486417660180143e-16 -8.96 Z" fill="#51BF7E" stroke="#111" stroke-width="1" fill-opacity="0.9"/><path d="M 2.7310596877785684 -8.533634218888857 L 6.905679496240094 -21.57790366776182 A 22.656 22.656 0 0 1 11.472385857830778 -19.53659895501375 L 4.537101751684489 -7.72633856977945 A 8.96 8.96 0 0 0 2.7310596877785684 -8.533634218888857 Z" fill="#4A0D19" stroke="#111" stroke-width="1" fill-opacity="0.9"/><path d="M 4.537101751684489 -7.72633856977945 L 15.555777434346817 -26.490303667815255 A 30.72 30.72 0 1 1 -16.712306638931924 25.776291564271066 L -4.874422769688479 7.518085039579063 A 8.96 8.96 0 1 0 4.537101751684489 -7.72633856977945 Z" fill="#A0AAE5" stroke="#111" stroke-width="1" fill-opacity="0.9"/><path d="M -4.874422769688479 7.518085039579063 L -16.578708140934783 25.57023539791873 A 30.474423734129466 30.474423734129466 0 0 1 -5.598060822279267e-15 -30.474423734129466 L -1.6459252980540428e-15 -8.96 A 8.96 8.96 0 0 0 -4.874422769688479 7.518085039579063 Z" fill="#7F142A" stroke="#111" stroke-width="1" fill-opacity="0.9"/>
    <circle r="5.76" fill="#fff" stroke="#111" stroke-width="1.5"/>
  </g>
</svg>