<?xml version="1.0" encoding="UTF-8"?>
<svg xmlns="http://www.w3.org/2000/svg" width="64" height="64" viewBox="-32 -32 64 64">
  <g>
    <path d="M 5.486417660180143e-16 -8.96 L 1.6238614297154711e-15 -26.5196696851054 A 26.5196696851054 26.5196696851054 0 0 1 1.595471892737267 -26.47163292368991 L 0.5390500081135946 -8.94377018313601 A 8.96 8.96 0 0 0 5.486417660180143e-16 -8.96 Z" fill="#A0AAE5" stroke="#111" stroke-width="1" fill-opacity="0.9"/><path d="M 0.5390500081135946 -8.94377018313601 L 1.848171456389467 -30.664354913609174 A 30.72 30.72 0 1 1 -0.23115883965330303 -30.719130287019034 L -0.06742132823221339 -8.959746333713886 A 8.96 8.96 0 1 0 0.5390500081135946 -8.94377018313601 Z" fill="#7F142A" stroke="#111" stroke-width="1" fill-opacity="0.9"/><path d="M -0.06742132823221339 -8.959746333713886 L -0.170479644244311 -22.655358586676538 A 22.656 22.656 0 0 1 -4.1618396822223646e-15 -22.656 L -1.6459252980540428e-15 -8.96 A 8.96 8.96 0 0 0 -0.06742132823221339 -8.959746333713886 Z" fill="#4A0D19" stroke="#111" stroke-width="1" fill-opacity="0.9"/>
    <circle r="5.76" fill="#fff" stroke="#111" stroke-width="1.5"/>
  </g>
</svg>