<?xml version="1.0" encoding="UTF-8"?>
<svg xmlns="http://www.w3.org/2000/svg" width="64" height="64" viewBox="-32 -32 64 64">
  <g>
    <path d="M 5.486417660180143e-16 -8.96 L 1.3872798940741216e-15 -22.656 A 22.656 22.656 0 0 1 9.830069993447397 20.412350671197206 L 3.8875983024933216 8.072681056405676 A 8.96 8.96 0 0 0 5.486417660180143e-16 -8.96 Z" fill="#004F61" stroke="#111" stroke-width="1" fill-opacity="0.9"/><path d="M 3.8875983024933216 8.072681056405676 L 13.328908465691386 27.677763621962317 A 30.72 30.72 0 0 1 -29.94978546222562 6.835843091137981 L -8.735354093149141 1.9937875682485782 A 8.96 8.96 0 0 0 3.8875983024933216 8.072681056405676 Z" fill="#7F142A" stroke="#111" stroke-width="1" fill-opacity="0.9"/><path d="M -8.735354093149141 1.9937875682485782 L -29.10520005337045 6.643071983001652 A 29.853694503663306 29.853694503663306 0 0 1 -12.953032597722734 -26.897249339670196 L -3.8875983024933225 -8.072681056405676 A 8.96 8.96 0 0 0 -8.735354093149141 1.9937875682485782 Z" fill="#A0AAE5" stroke="#111" stroke-width="1" fill-opacity="0.9"/><path d="M -3.8875983024933225 -8.072681056405676 L -9.8300699934474 -20.412350671197206 A 22.656 22.656 0 0 1 -4.1618396822223646e-15 -22.656 L -1.6459252980540428e-15 -8.96 A 8.96 8.96 0 0 0 -3.8875983024933225 -8.072681056405676 Z" fill="#7B86C9" stroke="#111" stroke-width="1" fill-opacity="0.9"/>
    <circle r="5.76" fill="#fff" stroke="#111" stroke-width="1.5"/>
  </g>
</svg>