<?xml version="1.0" encoding="UTF-8"?>
<svg xmlns="http://www.w3.org/2000/svg" width="64" height="64" viewBox="-32 -32 64 64">
  <g>
    <path d="M 5.486417660180143e-16 -8.96 L 1.4744609924447288e-15 -24.079775384564854 A 24.079775384564854 24.079775384564854 0 0 1 5.5531783675938025 -23.430701922665136 L 2.066318201852265 -8.718482040395223 A 8.96 8.96 0 0 0 5.486417660180143e-16 -8.96 Z" fill="#51BF7E" stroke="#111" stroke-width="1" fill-opacity="0.9"/><path d="M 2.066318201852265 -8.718482040395223 L 6.125021030333448 -25.843495838219017 A 26.559408121456144 26.559408121456144 0 0 1 11.919840591519018 -23.73435400500393 L 4.021240654596142 -8.006948457297774 A 8.96 8.96 0 0 0 2.066318201852265 -8.718482040395223 Z" fill="#7F142A" stroke="#111" stroke-width="1" fill-opacity="0.9"/><path d="M 4.021240654596142 -8.006948457297774 L 13.7871108157582 -27.45239471073522 A 30.72 30.72 0 1 1 -5.643172450471003e-15 -30.72 L -1.6459252980540428e-15 -8.96 A 8.96 8.96 0 1 0 4.021240654596142 -8.006948457297774 Z" fill="#A0AAE5" stroke="#111" stroke-width="1" fill-opacity="0.9"/>
    <circle r="5.76" fill="#fff" stroke="#111" stroke-width="1.5"/>
  </g>
</svg>