<?xml version="1.0" encoding="UTF-8"?>
<svg xmlns="http://www.w3.org/2000/svg" width="64" height="64" viewBox="-32 -32 64 64">
  <g>
    <path d="M 5.486417660180143e-16 -8.96 L 1.8624498280440314e-15 -30.416113925104632 A 30.416113925104632 30.416113925104632 0 0 1 30.02270154841453 4.876205290979015 L 8.844108308384726 1.4364359469048011 A 8.96 8.96 0 0 0 5.486417660180143e-16 -8.96 Z" fill="#7F142A" stroke="#111" stroke-width="1" fill-opacity="0.9"/><path d="M 8.844108308384726 1.4364359469048011 L 22.362959579772802 3.632130894316425 A 22.656 22.656 0 0 1 11.850383228109743 19.309654407755083 L 4.6865922371055495 7.636586488942689 A 8.96 8.96 0 0 0 8.844108308384726 1.4364359469048011 Z" fill="#7B86C9" stroke="#111" stroke-width="1" fill-opacity="0.9"/><path d="M 4.6865922371055495 7.636586488942689 L 16.06831624150474 26.182582247803502 A 30.72 30.72 0 0 1 -25.369706138197827 -17.32329098241692 L -7.399497623641033 -5.05262653653827 A 8.96 8.96 0 0 0 4.6865922371055495 7.636586488942689 Z" fill="#A0AAE5" stroke="#111" stroke-width="1" fill-opacity="0.9"/><path d="M -7.399497623641033 -5.05262653653827 L -18.710158276920897 -12.77592709953248 A 22.656 22.656 0 0 1 -14.173110138283851 -17.67532984156379 L -5.605184800451242 -6.990243440166472 A 8.96 8.96 0 0 0 -7.399497623641033 -5.05262653653827 Z" fill="#004F61" stroke="#111" stroke-width="1" fill-opacity="0.9"/><path d="M -5.605184800451242 -6.990243440166472 L -14.173110138283851 -17.67532984156379 A 22.656 22.656 0 0 1 -7.37117004878138 -21.423356135581283 L -2.9151519966932016 -8.472513725936102 A 8.96 8.96 0 0 0 -5.605184800451242 -6.990243440166472 Z" fill="#4A0D19" stroke="#111" stroke-width="1" fill-opacity="0.9"/><path d="M -2.9151519966932016 -8.472513725936102 L -8.770438953785597 -25.49015094332094 A 26.956787541459114 26.956787541459114 0 0 1 -4.321618151520922 -26.608119270399595 L -1.4364359469048045 -8.844108308384724 A 8.96 8.96 0 0 0 -2.9151519966932016 -8.472513725936102 Z" fill="#51BF7E" stroke="#111" stroke-width="1" fill-opacity="0.9"/><path d="M -1.4364359469048045 -8.844108308384724 L -3.632130894316434 -22.3629595797728 A 22.656 22.656 0 0 1 -4.1618396822223646e-15 -22.656 L -1.6459252980540428e-15 -8.96 A 8.96 8.96 0 0 0 -1.4364359469048045 -8.844108308384724 Z" fill="#e0e0e0" stroke="#111" stroke-width="1" fill-opacity="0.9"/>
    <circle r="5.76" fill="#fff" stroke="#111" stroke-width="1.5"/>
  </g>
</svg>