<?xml version="1.0" encoding="UTF-8"?>
<svg xmlns="http://www.w3.org/2000/svg" width="64" height="64" viewBox="-32 -32 64 64">
  <g>
    <path d="M 5.486417660180143e-16 -8.96 L 1.7998320143429123e-15 -29.39348742177786 A 29.39348742177786 29.39348742177786 0 0 1 18.05385364473981 -23.195591636958266 L 5.503345905699424 -7.0706989641916875 A 8.96 8.96 0 0 0 5.486417660180143e-16 -8.96 Z" fill="#A0AAE5" stroke="#111" stroke-width="1" fill-opacity="0.9"/><path d="M 5.503345905699424 -7.0706989641916875 L 13.915603218697113 -17.878767380884693 A 22.656 22.656 0 0 1 16.66856092021047 15.344491286752787 L 6.592086239631261 6.068442881766639 A 8.96 8.96 0 0 0 5.503345905699424 -7.0706989641916875 Z" fill="#7B86C9" stroke="#111" stroke-width="1" fill-opacity="0.9"/><path d="M 6.592086239631261 6.068442881766639 L 22.601438535878604 20.806089880342764 A 30.72 30.72 0 1 1 -9.974767693967882 -29.055505665043494 L -2.909307244073966 -8.474522485637687 A 8.96 8.96 0 1 0 6.592086239631261 6.068442881766639 Z" fill="#7F142A" stroke="#111" stroke-width="1" fill-opacity="0.9"/><path d="M -2.909307244073966 -8.474522485637687 L -7.883311111381469 -22.96330076885519 A 24.278792726981628 24.278792726981628 0 0 1 -4.459941870039013e-15 -24.278792726981628 L -1.6459252980540428e-15 -8.96 A 8.96 8.96 0 0 0 -2.909307244073966 -8.474522485637687 Z" fill="#51BF7E" stroke="#111" stroke-width="1" fill-opacity="0.9"/>
    <circle r="5.76" fill="#fff" stroke="#111" stroke-width="1.5"/>
  </g>
</svg>