<?xml version="1.0" encoding="UTF-8"?>
<svg xmlns="http://www.w3.org/2000/svg" width="64" height="64" viewBox="-32 -32 64 64">
  <g>
    <path d="M 5.486417660180143e-16 -8.96 L 1.5417157112753947e-15 -25.178128295420315 A 25.178128295420315 25.178128295420315 0 0 1 8.28024662366872 -23.777629409002653 L 2.9466451547777064 -8.46161227732783 A 8.96 8.96 0 0 0 5.486417660180143e-16 -8.96 Z" fill="#51BF7E" stroke="#111" stroke-width="1" fill-opacity="0.9"/><path d="M 2.9466451547777064 -8.46161227732783 L 10.102783387809279 -29.011242093695415 A 30.72 30.72 0 1 1 -17.00018839275551 -25.58734051461427 L -4.9583882812203575 -7.462974316762495 A 8.96 8.96 0 1 0 2.9466451547777064 -8.46161227732783 Z" fill="#7F142A" stroke="#111" stroke-width="1" fill-opacity="0.9"/><path d="M -4.9583882812203575 -7.462974316762495 L -14.86857056473537 -22.37899776261179 A 26.86808388213604 26.86808388213604 0 0 1 1.892806534398392e-14 -26.86808388213604 L 6.31215334245908e-15 -8.96 A 8.96 8.96 0 0 0 -4.9583882812203575 -7.462974316762495 Z" fill="#A0AAE5" stroke="#111" stroke-width="1" fill-opacity="0.9"/>
    <circle r="5.76" fill="#fff" stroke="#111" stroke-width="1.5"/>
  </g>
</svg>