<?xml version="1.0" encoding="UTF-8"?>
<svg xmlns="http://www.w3.org/2000/svg" width="64" height="64" viewBox="-32 -32 64 64">
  <g>
    <path d="M 5.486417660180143e-16 -8.96 L 1.4190124296519496e-15 -23.174231633805295 A 23.174231633805295 23.174231633805295 0 0 1 1.469800605245084 -23.127574408010954 L 0.5682783201228185 -8.941960621188086 A 8.96 8.96 0 0 0 5.486417660180143e-16 -8.96 Z" fill="#51BF7E" stroke="#111" stroke-width="1" fill-opacity="0.9"/><path d="M 0.5682783201228185 -8.941960621188086 L 1.9483828118496633 -30.65815070121629 A 30.72 30.72 0 1 1 -18.989844056696985 24.147551070498434 L -5.538704516536621 7.0430357288953775 A 8.96 8.96 0 1 0 0.5682783201228185 -8.941960621188086 Z" fill="#A0AAE5" stroke="#111" stroke-width="1" fill-opacity="0.9"/><path d="M -5.538704516536621 7.0430357288953775 L -14.005009991814024 17.808818914492594 A 22.656 22.656 0 0 1 -4.1618396822223646e-15 -22.656 L -1.6459252980540428e-15 -8.96 A 8.96 8.96 0 0 0 -5.538704516536621 7.0430357288953775 Z" fill="#7B86C9" stroke="#111" stroke-width="1" fill-opacity="0.9"/>
    <circle r="5.76" fill="#fff" stroke="#111" stroke-width="1.5"/>
  </g>
</svg>