<?xml version="1.0" encoding="UTF-8"?>
<svg xmlns="http://www.w3.org/2000/svg" width="64" height="64" viewBox="-32 -32 64 64">
  <g>
    <path d="M 5.486417660180143e-16 -8.96 L 1.8810574834903343e-15 -30.72 A 30.72 30.72 0 1 1 -21.722320318050745 -21.722320318050738 L -6.335676759431468 -6.335676759431466 A 8.96 8.96 0 1 0 5.486417660180143e-16 -8.96 Z" fill="#51BF7E" stroke="#111" stroke-width="1" fill-opacity="0.9"/><path d="M -6.335676759431468 -6.335676759431466 L -19.346012392347557 -19.34601239234755 A 27.359393103095876 27.359393103095876 0 0 1 -10.469986460118509 -25.276783309880734 L -3.42884355399121 -8.277960611301127 A 8.96 8.96 0 0 0 -6.335676759431468 -6.335676759431466 Z" fill="#7F142A" stroke="#111" stroke-width="1" fill-opacity="0.9"/><path d="M -3.42884355399121 -8.277960611301127 L -11.065096583772359 -26.713506241511386 A 28.914490798274116 28.914490798274116 0 0 1 -5.3115057907622985e-15 -28.914490798274116 L -1.6459252980540428e-15 -8.96 A 8.96 8.96 0 0 0 -3.42884355399121 -8.277960611301127 Z" fill="#A0AAE5" stroke="#111" stroke-width="1" fill-opacity="0.9"/>
    <circle r="5.76" fill="#fff" stroke="#111" stroke-width="1.5"/>
  </g>
</svg>