<?xml version="1.0" encoding="UTF-8"?>
<svg xmlns="http://www.w3.org/2000/svg" width="64" height="64" viewBox="-32 -32 64 64">
  <g>
    <path d="M 5.486417660180143e-16 -8.96 L 1.8810574834903343e-15 -30.72 A 30.72 30.72 0 1 1 -30.407314694582254 -4.3719118317553125 L -8.868800119253159 -1.275140950928633 A 8.96 8.96 0 1 0 5.486417660180143e-16 -8.96 Z" fill="#7F142A" stroke="#111" stroke-width="1" fill-opacity="0.9"/><path d="M -8.868800119253159 -1.275140950928633 L -25.822512992807226 -3.7127168647688498 A 26.088051743693644 26.088051743693644 0 0 1 -19.716034001028348 -17.084040712077783 L -6.771516186214159 -5.867552176149751 A 8.96 8.96 0 0 0 -8.868800119253159 -1.275140950928633 Z" fill="#A0AAE5" stroke="#111" stroke-width="1" fill-opacity="0.9"/><path d="M -6.771516186214159 -5.867552176149751 L -17.122262356570083 -14.836524788264368 A 22.656 22.656 0 0 1 -4.1618396822223646e-15 -22.656 L -1.6459252980540428e-15 -8.96 A 8.96 8.96 0 0 0 -6.771516186214159 -5.867552176149751 Z" fill="#004F61" stroke="#111" stroke-width="1" fill-opacity="0.9"/>
    <circle r="5.76" fill="#fff" stroke="#111" stroke-width="1.5"/>
  </g>
</svg>