<?xml version="1.0" encoding="UTF-8"?>
<svg xmlns="http://www.w3.org/2000/svg" width="64" height="64" viewBox="-32 -32 64 64">
  <g>
    <path d="M 5.486417660180143e-16 -8.96 L 1.3872798940741216e-15 -22.656 A 22.656 22.656 0 0 1 2.0308681825161905 -22.564793604756137 L 0.8031682077747647 -8.923929674197343 A 8.96 8.96 0 0 0 5.486417660180143e-16 -8.96 Z" fill="#4A0D19" stroke="#111" stroke-width="1" fill-opacity="0.9"/><path d="M 0.8031682077747647 -8.923929674197343 L 2.0308681825161905 -22.564793604756137 A 22.656 22.656 0 0 1 4.045385008557913 -22.291908759290553 L 1.599869777395785 -8.816009113843723 A 8.96 8.96 0 0 0 0.8031682077747647 -8.923929674197343 Z" fill="#004F61" stroke="#111" stroke-width="1" fill-opacity="0.9"/><path d="M 1.599869777395785 -8.816009113843723 L 5.236558783635363 -28.85581727586261 A 29.327116096753183 29.327116096753183 0 0 1 29.209053749380164 -2.6288624190437155 L 8.923929674197343 -0.8031682077747642 A 8.96 8.96 0 0 0 1.599869777395785 -8.816009113843723 Z" fill="#A0AAE5" stroke="#111" stroke-width="1" fill-opacity="0.9"/><path d="M 8.923929674197343 -0.8031682077747642 L 30.596330311533745 -2.753719569513477 A 30.72 30.72 0 1 1 -2.7537195695134824 -30.59633031153374 L -0.8031682077747658 -8.923929674197343 A 8.96 8.96 0 1 0 8.923929674197343 -0.8031682077747642 Z" fill="#7F142A" stroke="#111" stroke-width="1" fill-opacity="0.9"/><path d="M -0.8031682077747658 -8.923929674197343 L -2.1907129852927874 -24.340814822922045 A 24.439199856536057 24.439199856536057 0 0 1 -4.4894081817044e-15 -24.439199856536057 L -1.6459252980540428e-15 -8.96 A 8.96 8.96 0 0 0 -0.8031682077747658 -8.923929674197343 Z" fill="#51BF7E" stroke="#111" stroke-width="1" fill-opacity="0.9"/>
    <circle r="5.76" fill="#fff" stroke="#111" stroke-width="1.5"/>
  </g>
</svg>