<?xml version="1.0" encoding="UTF-8"?>
<svg xmlns="http://www.w3.org/2000/svg" width="64" height="64" viewBox="-32 -32 64 64">
  <g>
    <path d="M 5.486417660180143e-16 -8.96 L 1.3872798940741216e-15 -22.656 A 22.656 22.656 0 0 1 10.78306413664794 -19.925357307334217 L 4.26448864161218 -7.880084810810143 A 8.96 8.96 0 0 0 5.486417660180143e-16 -8.96 Z" fill="#e0e0e0" stroke="#111" stroke-width="1" fill-opacity="0.9"/><path d="M 4.26448864161218 -7.880084810810143 L 14.621103914098903 -27.017433637063345 A 30.72 30.72 0 1 1 -25.717754212224875 16.802247417520952 L -7.501011645232256 4.9006554967769445 A 8.96 8.96 0 1 0 4.26448864161218 -7.880084810810143 Z" fill="#7F142A" stroke="#111" stroke-width="1" fill-opacity="0.9"/><path d="M -7.501011645232256 4.9006554967769445 L -24.058128080595463 15.717959549532644 A 28.73756738388064 28.73756738388064 0 0 1 -24.05812808059547 -15.717959549532639 L -7.501011645232259 -4.900655496776943 A 8.96 8.96 0 0 0 -7.501011645232256 4.9006554967769445 Z" fill="#A0AAE5" stroke="#111" stroke-width="1" fill-opacity="0.9"/><path d="M -7.501011645232259 -4.900655496776943 L -18.96684373151585 -12.391657470421697 A 22.656 22.656 0 0 1 -3.7290550374003213 -22.347001689892075 L -1.4747675289153817 -8.837797278488393 A 8.96 8.96 0 0 0 -7.501011645232259 -4.900655496776943 Z" fill="#4A0D19" stroke="#111" stroke-width="1" fill-opacity="0.9"/><path d="M -1.4747675289153817 -8.837797278488393 L -3.7290550374003213 -22.347001689892075 A 22.656 22.656 0 0 1 -2.42844099589484e-14 -22.656 L -9.604003938567165e-15 -8.96 A 8.96 8.96 0 0 0 -1.4747675289153817 -8.837797278488393 Z" fill="#004F61" stroke="#111" stroke-width="1" fill-opacity="0.9"/>
    <circle r="5.76" fill="#fff" stroke="#111" stroke-width="1.5"/>
  </g>
</svg>