<?xml version="1.0" encoding="UTF-8"?>
<svg xmlns="http://www.w3.org/2000/svg" width="64" height="64" viewBox="-32 -32 64 64">
  <g>
    <path d="M 5.486417660180143e-16 -8.96 L 1.8810574834903343e-15 -30.72 A 30.72 30.72 0 1 1 -26.60430040425795 15.36000000000001 L -7.759587617908569 4.480000000000003 A 8.96 8.96 0 1 0 5.486417660180143e-16 -8.96 Z" fill="#7F142A" stroke="#111" stroke-width="1" fill-opacity="0.9"/><path d="M -7.759587617908569 4.480000000000003 L -26.287318893110108 15.176990639210668 A 30.353981278421315 30.353981278421315 0 0 1 -14.106198463865136 -26.877115625542867 L -4.163919621512171 -7.9336859898527585 A 8.96 8.96 0 0 0 -7.759587617908569 4.480000000000003 Z" fill="#A0AAE5" stroke="#111" stroke-width="1" fill-opacity="0.9"/><path d="M -4.163919621512171 -7.9336859898527585 L -10.528768185823633 -20.060891717199116 A 22.656 22.656 0 0 1 -3.634277979113423 -22.362610750324553 L -1.437285076485535 -8.8439703532357 A 8.96 8.96 0 0 0 -4.163919621512171 -7.9336859898527585 Z" fill="#004F61" stroke="#111" stroke-width="1" fill-opacity="0.9"/><path d="M -1.437285076485535 -8.8439703532357 L -3.634277979113423 -22.362610750324553 A 22.656 22.656 0 0 1 -4.1618396822223646e-15 -22.656 L -1.6459252980540428e-15 -8.96 A 8.96 8.96 0 0 0 -1.437285076485535 -8.8439703532357 Z" fill="#e0e0e0" stroke="#111" stroke-width="1" fill-opacity="0.9"/>
    <circle r="5.76" fill="#fff" stroke="#111" stroke-width="1.5"/>
  </g>
</svg>