<?xml version="1.0" encoding="UTF-8"?>
<svg xmlns="http://www.w3.org/2000/svg" width="64" height="64" viewBox="-32 -32 64 64">
  <g>
    <path d="M 5.486417660180143e-16 -8.96 L 1.8810574834903343e-15 -30.72 A 30.72 30.72 0 0 1 29.94978546222562 6.835843091137978 L 8.735354093149141 1.993787568248577 A 8.96 8.96 0 0 0 5.486417660180143e-16 -8.96 Z" fill="#7F142A" stroke="#111" stroke-width="1" fill-opacity="0.9"/><path d="M 8.735354093149141 1.993787568248577 L 29.94978546222562 6.835843091137978 A 30.72 30.72 0 0 1 -13.328908465691383 27.677763621962317 L -3.8875983024933207 8.072681056405676 A 8.96 8.96 0 0 0 8.735354093149141 1.993787568248577 Z" fill="#A0AAE5" stroke="#111" stroke-width="1" fill-opacity="0.9"/><path d="M -3.8875983024933207 8.072681056405676 L -9.830069993447395 20.412350671197206 A 22.656 22.656 0 0 1 -22.592649228936818 -1.6930850002940114 L -8.934946022743375 -0.6695816385343549 A 8.96 8.96 0 0 0 -3.8875983024933207 8.072681056405676 Z" fill="#004F61" stroke="#111" stroke-width="1" fill-opacity="0.9"/><path d="M -8.934946022743375 -0.6695816385343549 L -22.592649228936818 -1.6930850002940114 A 22.656 22.656 0 0 1 -6.677973231453474 -21.649457487890796 L -2.6410063627217135 -8.561932339843818 A 8.96 8.96 0 0 0 -8.934946022743375 -0.6695816385343549 Z" fill="#4A0D19" stroke="#111" stroke-width="1" fill-opacity="0.9"/><path d="M -2.6410063627217135 -8.561932339843818 L -6.677973231453474 -21.649457487890796 A 22.656 22.656 0 0 1 -2.42844099589484e-14 -22.656 L -9.604003938567165e-15 -8.96 A 8.96 8.96 0 0 0 -2.6410063627217135 -8.561932339843818 Z" fill="#e0e0e0" stroke="#111" stroke-width="1" fill-opacity="0.9"/>
    <circle r="5.76" fill="#fff" stroke="#111" stroke-width="1.5"/>
  </g>
</svg>