<?xml version="1.0" encoding="UTF-8"?>
<svg xmlns="http://www.w3.org/2000/svg" width="64" height="64" viewBox="-32 -32 64 64">
  <g>
    <path d="M 5.486417660180143e-16 -8.96 L 1.3872798940741216e-15 -22.656 A 22.656 22.656 0 0 1 8.934526253447345 -20.819908180067944 L 3.5334284618153347 -8.233861992117268 A 8.96 8.96 0 0 0 5.486417660180143e-16 -8.96 Z" fill="#4A0D19" stroke="#111" stroke-width="1" fill-opacity="0.9"/><path d="M 3.5334284618153347 -8.233861992117268 L 11.08619946222229 -25.83389967434796 A 28.112171579236875 28.112171579236875 0 0 1 28.076089808608792 1.4238581247396294 L 8.948499904252634 0.4538165527948659 A 8.96 8.96 0 0 0 3.5334284618153347 -8.233861992117268 Z" fill="#A0AAE5" stroke="#111" stroke-width="1" fill-opacity="0.9"/><path d="M 8.948499904252634 0.4538165527948659 L 30.68057110029474 1.5559424667252542 A 30.72 30.72 0 1 1 -5.643172450471003e-15 -30.72 L -1.6459252980540428e-15 -8.96 A 8.96 8.96 0 1 0 8.948499904252634 0.4538165527948659 Z" fill="#7F142A" stroke="#111" stroke-width="1" fill-opacity="0.9"/>
    <circle r="5.76" fill="#fff" stroke="#111" stroke-width="1.5"/>
  </g>
</svg>