<?xml version="1.0" encoding="UTF-8"?>
<svg xmlns="http://www.w3.org/2000/svg" width="64" height="64" viewBox="-32 -32 64 64">
  <g>
    <path d="M 5.486417660180143e-16 -8.96 L 1.8810574834903343e-15 -30.72 A 30.72 30.72 0 0 1 15.034916284756543 26.789357818177773 L 4.385183916387326 7.813562696968518 A 8.96 8.96 0 0 0 5.486417660180143e-16 -8.96 Z" fill="#A0AAE5" stroke="#111" stroke-width="1" fill-opacity="0.9"/><path d="M 4.385183916387326 7.813562696968518 L 11.08825076000795 19.757151390906106 A 22.656 22.656 0 1 1 -9.616490969730458 -20.51383526864473 L -3.8031320219273 -8.112816207938595 A 8.96 8.96 0 1 0 4.385183916387326 7.813562696968518 Z" fill="#004F61" stroke="#111" stroke-width="1" fill-opacity="0.9"/><path d="M -3.8031320219273 -8.112816207938595 L -9.616490969730458 -20.51383526864473 A 22.656 22.656 0 0 1 1.5960730594503672e-14 -22.656 L 6.31215334245908e-15 -8.96 A 8.96 8.96 0 0 0 -3.8031320219273 -8.112816207938595 Z" fill="#e0e0e0" stroke="#111" stroke-width="1" fill-opacity="0.9"/>
    <circle r="5.76" fill="#fff" stroke="#111" stroke-width="1.5"/>
  </g>
</svg>