<?xml version="1.0" encoding="UTF-8"?>
<svg xmlns="http://www.w3.org/2000/svg" width="64" height="64" viewBox="-32 -32 64 64">
  <g>
    <path d="M 5.486417660180143e-16 -8.96 L 1.5595797614257304e-15 -25.469870374242934 A 25.469870374242934 25.469870374242934 0 0 1 25.08292581277039 -4.422796575900223 L 8.823877466989385 -1.5558876718956962 A 8.96 8.96 0 0 0 5.486417660180143e-16 -8.96 Z" fill="#51BF7E" stroke="#111" stroke-width="1" fill-opacity="0.9"/><path d="M 8.823877466989385 -1.5558876718956962 L 30.25329417253503 -5.334472017928101 A 30.72 30.72 0 1 1 -26.604300404257952 -15.360000000000003 L -7.75958761790857 -4.480000000000001 A 8.96 8.96 0 1 0 8.823877466989385 -1.5558876718956962 Z" fill="#7F142A" stroke="#111" stroke-width="1" fill-opacity="0.9"/><path d="M -7.75958761790857 -4.480000000000001 L -22.388788610599672 -12.926173131159352 A 25.852346262318697 25.852346262318697 0 0 1 -4.7489989650896444e-15 -25.852346262318697 L -1.6459252980540428e-15 -8.96 A 8.96 8.96 0 0 0 -7.75958761790857 -4.480000000000001 Z" fill="#A0AAE5" stroke="#111" stroke-width="1" fill-opacity="0.9"/>
    <circle r="5.76" fill="#fff" stroke="#111" stroke-width="1.5"/>
  </g>
</svg>