<?xml version="1.0" encoding="UTF-8"?>
<svg xmlns="http://www.w3.org/2000/svg" width="64" height="64" viewBox="-32 -32 64 64">
  <g>
    <path d="M 5.486417660180143e-16 -8.96 L 1.8810574834903343e-15 -30.72 A 30.72 30.72 0 0 1 1.8810574834903343e-15 30.72 L 5.486417660180143e-16 8.96 A 8.96 8.96 0 0 0 5.486417660180143e-16 -8.96 Z" fill="#7F142A" stroke="#111" stroke-width="1" fill-opacity="0.9"/><path d="M 5.486417660180143e-16 8.96 L 1.810260214179338e-15 29.56379284932948 A 29.56379284932948 29.56379284932948 0 0 1 -20.904758401355245 -20.904758401355238 L -6.335676759431468 -6.335676759431466 A 8.96 8.96 0 0 0 5.486417660180143e-16 8.96 Z" fill="#A0AAE5" stroke="#111" stroke-width="1" fill-opacity="0.9"/><path d="M -6.335676759431468 -6.335676759431466 L -16.020211234562424 -16.020211234562417 A 22.656 22.656 0 0 1 -2.9572014109374893 -22.462174779285046 L -1.1695146822916627 -8.883345957909341 A 8.96 8.96 0 0 0 -6.335676759431468 -6.335676759431466 Z" fill="#7B86C9" stroke="#111" stroke-width="1" fill-opacity="0.9"/><path d="M -1.1695146822916627 -8.883345957909341 L -3.1771211390561644 -24.13263095861187 A 24.340870479849105 24.340870479849105 0 0 1 -4.471345368241125e-15 -24.340870479849105 L -1.6459252980540428e-15 -8.96 A 8.96 8.96 0 0 0 -1.1695146822916627 -8.883345957909341 Z" fill="#51BF7E" stroke="#111" stroke-width="1" fill-opacity="0.9"/>
    <circle r="5.76" fill="#fff" stroke="#111" stroke-width="1.5"/>
  </g>
</svg>