<?xml version="1.0" encoding="UTF-8"?>
<svg xmlns="http://www.w3.org/2000/svg" width="64" height="64" viewBox="-32 -32 64 64">
  <g>
    <path d="M 5.486417660180143e-16 -8.96 L 1.4161004561291865e-15 -23.126675497214883 A 23.126675497214883 23.126675497214883 0 0 1 2.898541021658305 -22.9443147533162 L 1.1229857727361663 -8.889347723777723 A 8.96 8.96 0 0 0 5.486417660180143e-16 -8.96 Z" fill="#51BF7E" stroke="#111" stroke-width="1" fill-opacity="0.9"/><path d="M 1.1229857727361663 -8.889347723777723 L 3.8502369350954266 -30.47776362438076 A 30.72 30.72 0 1 1 -30.6593810973165 -1.9289247599405195 L -8.942319486717315 -0.5626030549826516 A 8.96 8.96 0 1 0 1.1229857727361663 -8.889347723777723 Z" fill="#7F142A" stroke="#111" stroke-width="1" fill-opacity="0.9"/><path d="M -8.942319486717315 -0.5626030549826516 L -28.274313766595554 -1.7788690424506597 A 28.33021697837989 28.33021697837989 0 0 1 -5.20417643125844e-15 -28.33021697837989 L -1.6459252980540428e-15 -8.96 A 8.96 8.96 0 0 0 -8.942319486717315 -0.5626030549826516 Z" fill="#A0AAE5" stroke="#111" stroke-width="1" fill-opacity="0.9"/>
    <circle r="5.76" fill="#fff" stroke="#111" stroke-width="1.5"/>
  </g>
</svg>