<?xml version="1.0" encoding="UTF-8"?>
<svg xmlns="http://www.w3.org/2000/svg" width="64" height="64" viewBox="-32 -32 64 64">
  <g>
    <path d="M 5.486417660180143e-16 -8.96 L 1.8696465939657723e-15 -30.533646031941505 A 30.533646031941505 30.533646031941505 0 0 1 13.248052509230773 27.50986449833153 L 3.8875983024933216 8.072681056405676 A 8.96 8.96 0 0 0 5.486417660180143e-16 -8.96 Z" fill="#7F142A" stroke="#111" stroke-width="1" fill-opacity="0.9"/><path d="M 3.8875983024933216 8.072681056405676 L 13.328908465691386 27.677763621962317 A 30.72 30.72 0 0 1 1.8810574834903343e-15 30.72 L 5.486417660180143e-16 8.96 A 8.96 8.96 0 0 0 3.8875983024933216 8.072681056405676 Z" fill="#A0AAE5" stroke="#111" stroke-width="1" fill-opacity="0.9"/><path d="M 5.486417660180143e-16 8.96 L 1.3872798940741216e-15 22.656 A 22.656 22.656 0 0 1 -22.087966778391394 -5.041434279714256 L -8.735354093149141 -1.9937875682485762 A 8.96 8.96 0 0 0 5.486417660180143e-16 8.96 Z" fill="#7B86C9" stroke="#111" stroke-width="1" fill-opacity="0.9"/><path d="M -8.735354093149141 -1.9937875682485762 L -26.346310886425936 -6.013373534080883 A 27.02385536122835 27.02385536122835 0 0 1 -4.9642016953124e-15 -27.02385536122835 L -1.6459252980540428e-15 -8.96 A 8.96 8.96 0 0 0 -8.735354093149141 -1.9937875682485762 Z" fill="#51BF7E" stroke="#111" stroke-width="1" fill-opacity="0.9"/>
    <circle r="5.76" fill="#fff" stroke="#111" stroke-width="1.5"/>
  </g>
</svg>