<?xml version="1.0" encoding="UTF-8"?>
<svg xmlns="http://www.w3.org/2000/svg" width="64" height="64" viewBox="-32 -32 64 64">
  <g>
    <path d="M 5.486417660180143e-16 -8.96 L 1.4446462658550789e-15 -23.592863948379204 A 23.592863948379204 23.592863948379204 0 0 1 2.4661258126069012 -23.46361977110789 L 0.9365750308781751 -8.91091618249973 A 8.96 8.96 0 0 0 5.486417660180143e-16 -8.96 Z" fill="#51BF7E" stroke="#111" stroke-width="1" fill-opacity="0.9"/><path d="M 0.9365750308781751 -8.91091618249973 L 3.211114391582314 -30.551712625713353 A 30.72 30.72 0 1 1 -9.493002067198383 29.21645618058712 L -2.7687922695995284 8.521466386004578 A 8.96 8.96 0 1 0 0.9365750308781751 -8.91091618249973 Z" fill="#7F142A" stroke="#111" stroke-width="1" fill-opacity="0.9"/><path d="M -2.7687922695995284 8.521466386004578 L -8.532889746604697 26.261534297656805 A 27.613011264523763 27.613011264523763 0 0 1 -16.230520792673 22.33939537886658 L -5.266555860540559 7.24879226959953 A 8.96 8.96 0 0 0 -2.7687922695995284 8.521466386004578 Z" fill="#A0AAE5" stroke="#111" stroke-width="1" fill-opacity="0.9"/><path d="M -5.266555860540559 7.24879226959953 L -13.316862675938268 18.329089024558808 A 22.656 22.656 0 0 1 -4.1618396822223646e-15 -22.656 L -1.6459252980540428e-15 -8.96 A 8.96 8.96 0 0 0 -5.266555860540559 7.24879226959953 Z" fill="#7B86C9" stroke="#111" stroke-width="1" fill-opacity="0.9"/>
    <circle r="5.76" fill="#fff" stroke="#111" stroke-width="1.5"/>
  </g>
</svg>