<?xml version="1.0" encoding="UTF-8"?>
<svg xmlns="http://www.w3.org/2000/svg" width="64" height="64" viewBox="-32 -32 64 64">
  <g>
    <path d="M 5.486417660180143e-16 -8.96 L 1.3913909606592968e-15 -22.723138812399416 A 22.723138812399416 22.723138812399416 0 0 1 1.0051204777777802 -22.70089800674688 L 0.3963307866593959 -8.951230189618965 A 8.96 8.96 0 0 0 5.486417660180143e-16 -8.96 Z" fill="#51BF7E" stroke="#111" stroke-width="1" fill-opacity="0.9"/><path d="M 0.3963307866593959 -8.951230189618965 L 1.358848411403643 -30.689932078693587 A 30.72 30.72 0 1 1 -15.555777434346831 -26.490303667815244 L -4.537101751684493 -7.726338569779448 A 8.96 8.96 0 1 0 0.3963307866593959 -8.951230189618965 Z" fill="#7F142A" stroke="#111" stroke-width="1" fill-opacity="0.9"/><path d="M -4.537101751684493 -7.726338569779448 L -14.269700881829477 -24.30021329399574 A 28.18021876051661 28.18021876051661 0 0 1 -5.176622205650829e-15 -28.18021876051661 L -1.6459252980540428e-15 -8.96 A 8.96 8.96 0 0 0 -4.537101751684493 -7.726338569779448 Z" fill="#A0AAE5" stroke="#111" stroke-width="1" fill-opacity="0.9"/>
    <circle r="5.76" fill="#fff" stroke="#111" stroke-width="1.5"/>
  </g>
</svg>