<?xml version="1.0" encoding="UTF-8"?>
<svg xmlns="http://www.w3.org/2000/svg" width="64" height="64" viewBox="-32 -32 64 64">
  <g>
    <path d="M 5.486417660180143e-16 -8.96 L 1.8810574834903343e-15 -30.72 A 30.72 30.72 0 0 1 1.6517668804481265 30.675561383170393 L 0.48176534013070366 8.947038736758033 A 8.96 8.96 0 0 0 5.486417660180143e-16 -8.96 Z" fill="#A0AAE5" stroke="#111" stroke-width="1" fill-opacity="0.9"/><path d="M 0.48176534013070366 8.947038736758033 L 1.2181780743304933 22.623226520088163 A 22.656 22.656 0 0 1 -9.451938260784654 20.590172391563776 L -3.7380546794063614 8.143006030561946 A 8.96 8.96 0 0 0 0.48176534013070366 8.947038736758033 Z" fill="#7B86C9" stroke="#111" stroke-width="1" fill-opacity="0.9"/><path d="M -3.7380546794063614 8.143006030561946 L -12.520973674108914 27.27578189224568 A 30.01238177121379 30.01238177121379 0 0 1 -28.305258669434508 -9.97774479717177 L -8.450349579432139 -2.978790356065881 A 8.96 8.96 0 0 0 -3.7380546794063614 8.143006030561946 Z" fill="#7F142A" stroke="#111" stroke-width="1" fill-opacity="0.9"/><path d="M -8.450349579432139 -2.978790356065881 L -21.36731250799269 -7.532084186052297 A 22.656 22.656 0 0 1 -18.871562853917442 -12.536285392836403 L -7.4633299422272374 -4.957852980217788 A 8.96 8.96 0 0 0 -8.450349579432139 -2.978790356065881 Z" fill="#4A0D19" stroke="#111" stroke-width="1" fill-opacity="0.9"/><path d="M -7.4633299422272374 -4.957852980217788 L -18.871562853917442 -12.536285392836403 A 22.656 22.656 0 0 1 -10.867588154744213 -19.879382880232054 L -4.297916219390368 -7.8619028339900785 A 8.96 8.96 0 0 0 -7.4633299422272374 -4.957852980217788 Z" fill="#004F61" stroke="#111" stroke-width="1" fill-opacity="0.9"/><path d="M -4.297916219390368 -7.8619028339900785 L -12.912484793460044 -23.61998131409756 A 26.91905980564059 26.91905980564059 0 0 1 -5.1806156447629235 -26.41584756090352 L -1.7243661744586398 -8.79250597363362 A 8.96 8.96 0 0 0 -4.297916219390368 -7.8619028339900785 Z" fill="#51BF7E" stroke="#111" stroke-width="1" fill-opacity="0.9"/><path d="M -1.7243661744586398 -8.79250597363362 L -4.3601830411311315 -22.23247939047358 A 22.656 22.656 0 0 1 -4.1618396822223646e-15 -22.656 L -1.6459252980540428e-15 -8.96 A 8.96 8.96 0 0 0 -1.7243661744586398 -8.79250597363362 Z" fill="#e0e0e0" stroke="#111" stroke-width="1" fill-opacity="0.9"/>
    <circle r="5.76" fill="#fff" stroke="#111" stroke-width="1.5"/>
  </g>
</svg>