<?xml version="1.0" encoding="UTF-8"?>
<svg xmlns="http://www.w3.org/2000/svg" width="64" height="64" viewBox="-32 -32 64 64">
  <g>
    <path d="M 5.486417660180143e-16 -8.96 L 1.5922152698299614e-15 -26.002848673405648 A 26.002848673405648 26.002848673405648 0 0 1 11.28221321012528 -23.42775713151621 L 3.8875983024933216 -8.072681056405676 A 8.96 8.96 0 0 0 5.486417660180143e-16 -8.96 Z" fill="#A0AAE5" stroke="#111" stroke-width="1" fill-opacity="0.9"/><path d="M 3.8875983024933216 -8.072681056405676 L 13.328908465691386 -27.677763621962317 A 30.72 30.72 0 1 1 -13.32890846569139 -27.677763621962313 L -3.8875983024933225 -8.072681056405676 A 8.96 8.96 0 1 0 3.8875983024933216 -8.072681056405676 Z" fill="#7F142A" stroke="#111" stroke-width="1" fill-opacity="0.9"/><path d="M -3.8875983024933225 -8.072681056405676 L -9.8300699934474 -20.412350671197206 A 22.656 22.656 0 0 1 -4.1618396822223646e-15 -22.656 L -1.6459252980540428e-15 -8.96 A 8.96 8.96 0 0 0 -3.8875983024933225 -8.072681056405676 Z" fill="#4A0D19" stroke="#111" stroke-width="1" fill-opacity="0.9"/>
    <circle r="5.76" fill="#fff" stroke="#111" stroke-width="1.5"/>
  </g>
</svg>