<?xml version="1.0" encoding="UTF-8"?>
<svg xmlns="http://www.w3.org/2000/svg" width="64" height="64" viewBox="-32 -32 64 64">
  <g>
    <path d="M 5.486417660180143e-16 -8.96 L 1.3872798940741216e-15 -22.656 A 22.656 22.656 0 0 1 3.206191618618675 -22.42798857019281 L 1.2679853858943915 -8.869825988211847 A 8.96 8.96 0 0 0 5.486417660180143e-16 -8.96 Z" fill="#4A0D19" stroke="#111" stroke-width="1" fill-opacity="0.9"/><path d="M 1.2679853858943915 -8.869825988211847 L 4.253039919492373 -29.750913872092394 A 30.05337293518741 30.05337293518741 0 0 1 22.262482399890178 20.18878654540771 L 6.637253087471864 6.019009175341505 A 8.96 8.96 0 0 0 1.2679853858943915 -8.869825988211847 Z" fill="#7F142A" stroke="#111" stroke-width="1" fill-opacity="0.9"/><path d="M 6.637253087471864 6.019009175341505 L 22.756296299903532 20.636602886885157 A 30.72 30.72 0 1 1 -11.693037685051884 -28.40759176163929 L -3.4104693248067997 -8.285547597144793 A 8.96 8.96 0 1 0 6.637253087471864 6.019009175341505 Z" fill="#A0AAE5" stroke="#111" stroke-width="1" fill-opacity="0.9"/><path d="M -3.4104693248067997 -8.285547597144793 L -8.623615292725765 -20.950598924208975 A 22.656 22.656 0 0 1 -4.1618396822223646e-15 -22.656 L -1.6459252980540428e-15 -8.96 A 8.96 8.96 0 0 0 -3.4104693248067997 -8.285547597144793 Z" fill="#7B86C9" stroke="#111" stroke-width="1" fill-opacity="0.9"/>
    <circle r="5.76" fill="#fff" stroke="#111" stroke-width="1.5"/>
  </g>
</svg>