<?xml version="1.0" encoding="UTF-8"?>
<svg xmlns="http://www.w3.org/2000/svg" width="64" height="64" viewBox="-32 -32 64 64">
  <g>
    <path d="M 5.486417660180143e-16 -8.96 L 1.8810574834903343e-15 -30.72 A 30.72 30.72 0 0 1 20.69593017282224 22.702353937018643 L 6.036312967073155 6.621519898297105 A 8.96 8.96 0 0 0 5.486417660180143e-16 -8.96 Z" fill="#7F142A" stroke="#111" stroke-width="1" fill-opacity="0.9"/><path d="M 6.036312967073155 6.621519898297105 L 20.67310115562191 22.677311698076576 A 30.686113752678047 30.686113752678047 0 1 1 -16.154157233122884 -26.089859741475045 L -4.716832179381111 -7.617945536137342 A 8.96 8.96 0 1 0 6.036312967073155 6.621519898297105 Z" fill="#A0AAE5" stroke="#111" stroke-width="1" fill-opacity="0.9"/><path d="M -4.716832179381111 -7.617945536137342 L -11.926847082149377 -19.262519427090133 A 22.656 22.656 0 0 1 -4.1618396822223646e-15 -22.656 L -1.6459252980540428e-15 -8.96 A 8.96 8.96 0 0 0 -4.716832179381111 -7.617945536137342 Z" fill="#7B86C9" stroke="#111" stroke-width="1" fill-opacity="0.9"/>
    <circle r="5.76" fill="#fff" stroke="#111" stroke-width="1.5"/>
  </g>
</svg>