<?xml version="1.0" encoding="UTF-8"?>
<svg xmlns="http://www.w3.org/2000/svg" width="64" height="64" viewBox="-32 -32 64 64">
  <g>
    <path d="M 5.486417660180143e-16 -8.96 L 1.3872798940741216e-15 -22.656 A 22.656 22.656 0 1 1 -17.71317406679568 14.125784950911468 L -7.005210082913547 5.586468624654254 A 8.96 8.96 0 1 0 5.486417660180143e-16 -8.96 Z" fill="#4A0D19" stroke="#111" stroke-width="1" fill-opacity="0.9"/><path d="M -7.005210082913547 5.586468624654254 L -24.01786314141787 19.153606713100295 A 30.72 30.72 0 0 1 -29.94978546222562 -6.835843091137974 L -8.735354093149141 -1.9937875682485762 A 8.96 8.96 0 0 0 -7.005210082913547 5.586468624654254 Z" fill="#7F142A" stroke="#111" stroke-width="1" fill-opacity="0.9"/><path d="M -8.735354093149141 -1.9937875682485762 L -22.087966778391394 -5.041434279714256 A 22.656 22.656 0 0 1 -4.1618396822223646e-15 -22.656 L -1.6459252980540428e-15 -8.96 A 8.96 8.96 0 0 0 -8.735354093149141 -1.9937875682485762 Z" fill="#e0e0e0" stroke="#111" stroke-width="1" fill-opacity="0.9"/>
    <circle r="5.76" fill="#fff" stroke="#111" stroke-width="1.5"/>
  </g>
</svg>