<?xml version="1.0" encoding="UTF-8"?>
<svg xmlns="http://www.w3.org/2000/svg" width="64" height="64" viewBox="-32 -32 64 64">
  <g>
    <path d="M 5.486417660180143e-16 -8.96 L 1.3872798940741216e-15 -22.656 A 22.656 22.656 0 0 1 15.091511377246213 -16.897947222974985 L 5.968394329984379 -6.682803986487284 A 8.96 8.96 0 0 0 5.486417660180143e-16 -8.96 Z" fill="#e0e0e0" stroke="#111" stroke-width="1" fill-opacity="0.9"/><path d="M 5.968394329984379 -6.682803986487284 L 20.463066274232155 -22.912470810813538 A 30.72 30.72 0 1 1 -30.386278813700745 -4.515801131143966 L -8.862664653996053 -1.3171086632503233 A 8.96 8.96 0 1 0 5.968394329984379 -6.682803986487284 Z" fill="#7F142A" stroke="#111" stroke-width="1" fill-opacity="0.9"/><path d="M -8.862664653996053 -1.3171086632503233 L -24.243663111249447 -3.6029275572726815 A 24.509922236406872 24.509922236406872 0 0 1 -24.104011308226184 -4.44217591813024 L -8.811612670108898 -1.623909527029241 A 8.96 8.96 0 0 0 -8.862664653996053 -1.3171086632503233 Z" fill="#A0AAE5" stroke="#111" stroke-width="1" fill-opacity="0.9"/><path d="M -8.811612670108898 -1.623909527029241 L -22.280792037275354 -4.1061712326310795 A 22.656 22.656 0 0 1 -19.55480400511688 -11.441327559399074 L -7.733538307108372 -4.524818808801895 A 8.96 8.96 0 0 0 -8.811612670108898 -1.623909527029241 Z" fill="#4A0D19" stroke="#111" stroke-width="1" fill-opacity="0.9"/><path d="M -7.733538307108372 -4.524818808801895 L -19.55480400511688 -11.441327559399074 A 22.656 22.656 0 0 1 -4.1618396822223646e-15 -22.656 L -1.6459252980540428e-15 -8.96 A 8.96 8.96 0 0 0 -7.733538307108372 -4.524818808801895 Z" fill="#004F61" stroke="#111" stroke-width="1" fill-opacity="0.9"/>
    <circle r="5.76" fill="#fff" stroke="#111" stroke-width="1.5"/>
  </g>
</svg>