<?xml version="1.0" encoding="UTF-8"?>
<svg xmlns="http://www.w3.org/2000/svg" width="64" height="64" viewBox="-32 -32 64 64">
  <g>
    <path d="M 5.486417660180143e-16 -8.96 L 1.5644852869234034e-15 -25.549983685298635 A 25.549983685298635 25.549983685298635 0 0 1 2.8107082516474544 -25.39491258979143 L 0.9856736601069512 -8.905618868768828 A 8.96 8.96 0 0 0 5.486417660180143e-16 -8.96 Z" fill="#51BF7E" stroke="#111" stroke-width="1" fill-opacity="0.9"/><path d="M 0.9856736601069512 -8.905618868768828 L 3.3794525489381178 -30.533550407207407 A 30.72 30.72 0 1 1 -9.974767693967875 29.055505665043494 L -2.9093072440739642 8.474522485637687 A 8.96 8.96 0 1 0 0.9856736601069512 -8.905618868768828 Z" fill="#A0AAE5" stroke="#111" stroke-width="1" fill-opacity="0.9"/><path d="M -2.9093072440739642 8.474522485637687 L -7.356391174301308 21.42843542796958 A 22.656 22.656 0 0 1 -9.100811540937672 20.747760488696983 L -3.599191004890605 8.205329006829317 A 8.96 8.96 0 0 0 -2.9093072440739642 8.474522485637687 Z" fill="#7B86C9" stroke="#111" stroke-width="1" fill-opacity="0.9"/><path d="M -3.599191004890605 8.205329006829317 L -12.286401973372541 28.01017516566694 A 30.586362749804653 30.586362749804653 0 0 1 -0.8427871110049132 -30.574749322736263 L -0.2468869076187312 -8.956597950943566 A 8.96 8.96 0 0 0 -3.599191004890605 8.205329006829317 Z" fill="#7F142A" stroke="#111" stroke-width="1" fill-opacity="0.9"/><path d="M -0.2468869076187312 -8.956597950943566 L -0.6242711806930774 -22.647397675957297 A 22.656 22.656 0 0 1 -4.1618396822223646e-15 -22.656 L -1.6459252980540428e-15 -8.96 A 8.96 8.96 0 0 0 -0.2468869076187312 -8.956597950943566 Z" fill="#4A0D19" stroke="#111" stroke-width="1" fill-opacity="0.9"/>
    <circle r="5.76" fill="#fff" stroke="#111" stroke-width="1.5"/>
  </g>
</svg>