<?xml version="1.0" encoding="UTF-8"?>
<svg xmlns="http://www.w3.org/2000/svg" width="64" height="64" viewBox="-32 -32 64 64">
  <g>
    <path d="M 5.486417660180143e-16 -8.96 L 1.7301006344057922e-15 -28.25468756559615 A 28.25468756559615 28.25468756559615 0 0 1 17.35438829586384 -22.296918538350493 L 5.503345905699424 -7.0706989641916875 A 8.96 8.96 0 0 0 5.486417660180143e-16 -8.96 Z" fill="#A0AAE5" stroke="#111" stroke-width="1" fill-opacity="0.9"/><path d="M 5.503345905699424 -7.0706989641916875 L 18.868614533826594 -24.24239644865721 A 30.72 30.72 0 1 1 -18.8686145338266 -24.242396448657207 L -5.503345905699426 -7.070698964191686 A 8.96 8.96 0 1 0 5.503345905699424 -7.0706989641916875 Z" fill="#7F142A" stroke="#111" stroke-width="1" fill-opacity="0.9"/><path d="M -5.503345905699426 -7.070698964191686 L -15.378082973987963 -19.757761408895377 A 25.037063962168045 25.037063962168045 0 0 1 -4.599234036197496e-15 -25.037063962168045 L -1.6459252980540428e-15 -8.96 A 8.96 8.96 0 0 0 -5.503345905699426 -7.070698964191686 Z" fill="#51BF7E" stroke="#111" stroke-width="1" fill-opacity="0.9"/>
    <circle r="5.76" fill="#fff" stroke="#111" stroke-width="1.5"/>
  </g>
</svg>