<?xml version="1.0" encoding="UTF-8"?>
<svg xmlns="http://www.w3.org/2000/svg" width="64" height="64" viewBox="-32 -32 64 64">
  <g>
    <path d="M 5.486417660180143e-16 -8.96 L 1.3872798940741216e-15 -22.656 A 22.656 22.656 0 0 1 14.562996085058234 -17.355502903303567 L 5.759376982791394 -6.8637582103460435 A 8.96 8.96 0 0 0 5.486417660180143e-16 -8.96 Z" fill="#4A0D19" stroke="#111" stroke-width="1" fill-opacity="0.9"/><path d="M 5.759376982791394 -6.8637582103460435 L 19.746435369570488 -23.532885292615003 A 30.72 30.72 0 0 1 19.74643536957049 23.532885292615 L 5.7593769827913945 6.863758210346043 A 8.96 8.96 0 0 0 5.759376982791394 -6.8637582103460435 Z" fill="#7F142A" stroke="#111" stroke-width="1" fill-opacity="0.9"/><path d="M 5.7593769827913945 6.863758210346043 L 19.456891671621005 23.187820550370688 A 30.26954997018271 30.26954997018271 0 0 1 -26.214199235300736 -15.134774985091337 L -7.759587617908575 -4.479999999999995 A 8.96 8.96 0 0 0 5.7593769827913945 6.863758210346043 Z" fill="#A0AAE5" stroke="#111" stroke-width="1" fill-opacity="0.9"/><path d="M -7.759587617908575 -4.479999999999995 L -22.520926274817022 -13.002462847165301 A 26.004925694330634 26.004925694330634 0 0 1 -2.787404115965378e-14 -26.004925694330634 L -9.604003938567165e-15 -8.96 A 8.96 8.96 0 0 0 -7.759587617908575 -4.479999999999995 Z" fill="#51BF7E" stroke="#111" stroke-width="1" fill-opacity="0.9"/>
    <circle r="5.76" fill="#fff" stroke="#111" stroke-width="1.5"/>
  </g>
</svg>