<?xml version="1.0" encoding="UTF-8"?>
<svg xmlns="http://www.w3.org/2000/svg" width="64" height="64" viewBox="-32 -32 64 64">
  <g>
    <path d="M 5.486417660180143e-16 -8.96 L 1.8810574834903343e-15 -30.72 A 30.72 30.72 0 1 1 -13.759327840299493 -27.466330249655837 L -4.013137286754019 -8.011012989482953 A 8.96 8.96 0 1 0 5.486417660180143e-16 -8.96 Z" fill="#7F142A" stroke="#111" stroke-width="1" fill-opacity="0.9"/><path d="M -4.013137286754019 -8.011012989482953 L -11.696368648655797 -23.34825710633756 A 26.114098672343655 26.114098672343655 0 0 1 -2.137775317613075 -26.02644935753444 L -0.7334914019490493 -8.929926671774345 A 8.96 8.96 0 0 0 -4.013137286754019 -8.011012989482953 Z" fill="#A0AAE5" stroke="#111" stroke-width="1" fill-opacity="0.9"/><path d="M -0.7334914019490493 -8.929926671774345 L -1.9384929443545906 -23.600276432471244 A 23.679755120870027 23.679755120870027 0 0 1 -4.349900447004993e-15 -23.679755120870027 L -1.6459252980540428e-15 -8.96 A 8.96 8.96 0 0 0 -0.7334914019490493 -8.929926671774345 Z" fill="#51BF7E" stroke="#111" stroke-width="1" fill-opacity="0.9"/>
    <circle r="5.76" fill="#fff" stroke="#111" stroke-width="1.5"/>
  </g>
</svg>