<?xml version="1.0" encoding="UTF-8"?>
<svg xmlns="http://www.w3.org/2000/svg" width="64" height="64" viewBox="-32 -32 64 64">
  <g>
    <path d="M 5.486417660180143e-16 -8.96 L 1.8810574834903343e-15 -30.72 A 30.72 30.72 0 0 1 30.69745708188088 -1.1766599789578887 L 8.953424982215259 -0.34319249386271755 A 8.96 8.96 0 0 0 5.486417660180143e-16 -8.96 Z" fill="#A0AAE5" stroke="#111" stroke-width="1" fill-opacity="0.9"/><path d="M 8.953424982215259 -0.34319249386271755 L 22.63937459788715 -0.8677867344814428 A 22.656 22.656 0 1 1 -10.052916646713845 -20.303526858509674 L -3.9757297472879616 -8.029643390371058 A 8.96 8.96 0 1 0 8.953424982215259 -0.34319249386271755 Z" fill="#7B86C9" stroke="#111" stroke-width="1" fill-opacity="0.9"/><path d="M -3.9757297472879616 -8.029643390371058 L -11.942140296253289 -24.119126296777612 A 26.913694807203747 26.913694807203747 0 0 1 -4.943965529830621e-15 -26.913694807203747 L -1.6459252980540428e-15 -8.96 A 8.96 8.96 0 0 0 -3.9757297472879616 -8.029643390371058 Z" fill="#51BF7E" stroke="#111" stroke-width="1" fill-opacity="0.9"/>
    <circle r="5.76" fill="#fff" stroke="#111" stroke-width="1.5"/>
  </g>
</svg>