<?xml version="1.0" encoding="UTF-8"?>
<svg xmlns="http://www.w3.org/2000/svg" width="64" height="64" viewBox="-32 -32 64 64">
  <g>
    <path d="M 5.486417660180143e-16 -8.96 L 1.3872798940741216e-15 -22.656 A 22.656 22.656 0 0 1 4.710447267167158 -22.1609120422251 L 1.862888749727125 -8.764202502574898 A 8.96 8.96 0 0 0 5.486417660180143e-16 -8.96 Z" fill="#4A0D19" stroke="#111" stroke-width="1" fill-opacity="0.9"/><path d="M 1.862888749727125 -8.764202502574898 L 6.38704714192157 -30.048694294542507 A 30.72 30.72 0 0 1 6.387047141921563 30.04869429454251 L 1.862888749727123 8.7642025025749 A 8.96 8.96 0 0 0 1.862888749727125 -8.764202502574898 Z" fill="#7F142A" stroke="#111" stroke-width="1" fill-opacity="0.9"/><path d="M 1.862888749727123 8.7642025025749 L 6.081092891533082 28.60929271604195 A 29.248441333986072 29.248441333986072 0 0 1 -11.896412843384972 -26.71978072378907 L -3.6443603219591694 -8.185367300477706 A 8.96 8.96 0 0 0 1.862888749727123 8.7642025025749 Z" fill="#A0AAE5" stroke="#111" stroke-width="1" fill-opacity="0.9"/><path d="M -3.6443603219591694 -8.185367300477706 L -9.215025385525326 -20.697285888350766 A 22.656 22.656 0 0 1 -4.1618396822223646e-15 -22.656 L -1.6459252980540428e-15 -8.96 A 8.96 8.96 0 0 0 -3.6443603219591694 -8.185367300477706 Z" fill="#7B86C9" stroke="#111" stroke-width="1" fill-opacity="0.9"/>
    <circle r="5.76" fill="#fff" stroke="#111" stroke-width="1.5"/>
  </g>
</svg>