<?xml version="1.0" encoding="UTF-8"?>
<svg xmlns="http://www.w3.org/2000/svg" width="64" height="64" viewBox="-32 -32 64 64">
  <g>
    <path d="M 5.486417660180143e-16 -8.96 L 1.6531062183027003e-15 -26.997273327357036 A 26.997273327357036 26.997273327357036 0 0 1 24.5575836058951 11.215072650299502 L 8.150302678376486 3.722118516496902 A 8.96 8.96 0 0 0 5.486417660180143e-16 -8.96 Z" fill="#51BF7E" stroke="#111" stroke-width="1" fill-opacity="0.9"/><path d="M 8.150302678376486 3.722118516496902 L 27.943894897290807 12.76154919941795 A 30.72 30.72 0 0 1 -27.943894897290807 12.761549199417948 L -8.150302678376486 3.7221185164969017 A 8.96 8.96 0 0 0 8.150302678376486 3.722118516496902 Z" fill="#A0AAE5" stroke="#111" stroke-width="1" fill-opacity="0.9"/><path d="M -8.150302678376486 3.7221185164969017 L -27.46911929424487 12.544726446568935 A 30.1980574941618 30.1980574941618 0 0 1 -5.547293167603948e-15 -30.1980574941618 L -1.6459252980540428e-15 -8.96 A 8.96 8.96 0 0 0 -8.150302678376486 3.7221185164969017 Z" fill="#7F142A" stroke="#111" stroke-width="1" fill-opacity="0.9"/>
    <circle r="5.76" fill="#fff" stroke="#111" stroke-width="1.5"/>
  </g>
</svg>