<?xml version="1.0" encoding="UTF-8"?>
<svg xmlns="http://www.w3.org/2000/svg" width="64" height="64" viewBox="-32 -32 64 64">
  <g>
    <path d="M 5.486417660180143e-16 -8.96 L 1.3872798940741216e-15 -22.656 A 22.656 22.656 0 0 1 21.18372799428076 8.03392832083569 L 8.377745534461317 3.1772597879011206 A 8.96 8.96 0 0 0 5.486417660180143e-16 -8.96 Z" fill="#4A0D19" stroke="#111" stroke-width="1" fill-opacity="0.9"/><path d="M 8.377745534461317 3.1772597879011206 L 26.260165047896002 9.959166948568734 A 28.085250126217545 28.085250126217545 0 0 1 -6.721240290637972 27.26914380041492 L -2.1442683520165193 8.699638684137426 A 8.96 8.96 0 0 0 8.377745534461317 3.1772597879011206 Z" fill="#A0AAE5" stroke="#111" stroke-width="1" fill-opacity="0.9"/><path d="M -2.1442683520165193 8.699638684137426 L -5.421935690098913 21.997657815604633 A 22.656 22.656 0 0 1 -15.023706945103457 16.958259510564464 L -5.941579017837526 6.706656303613065 A 8.96 8.96 0 0 0 -2.1442683520165193 8.699638684137426 Z" fill="#7B86C9" stroke="#111" stroke-width="1" fill-opacity="0.9"/><path d="M -5.941579017837526 6.706656303613065 L -20.371128061157233 22.99425018381622 A 30.72 30.72 0 0 1 -5.643172450471003e-15 -30.72 L -1.6459252980540428e-15 -8.96 A 8.96 8.96 0 0 0 -5.941579017837526 6.706656303613065 Z" fill="#7F142A" stroke="#111" stroke-width="1" fill-opacity="0.9"/>
    <circle r="5.76" fill="#fff" stroke="#111" stroke-width="1.5"/>
  </g>
</svg>