<?xml version="1.0" encoding="UTF-8"?>
<svg xmlns="http://www.w3.org/2000/svg" width="64" height="64" viewBox="-32 -32 64 64">
  <g>
    <path d="M 5.486417660180143e-16 -8.96 L 1.3872798940741216e-15 -22.656 A 22.656 22.656 0 0 1 3.019749260948336 -22.453851571634697 L 1.1942511201490595 -8.88005429386683 A 8.96 8.96 0 0 0 5.486417660180143e-16 -8.96 Z" fill="#4A0D19" stroke="#111" stroke-width="1" fill-opacity="0.9"/><path d="M 1.1942511201490595 -8.88005429386683 L 3.3278409933912574 -24.74471926723557 A 24.96749201044419 24.96749201044419 0 0 1 6.596296585417429 -24.080376422489845 L 2.367190800766724 -8.641643808487215 A 8.96 8.96 0 0 0 1.1942511201490595 -8.88005429386683 Z" fill="#A0AAE5" stroke="#111" stroke-width="1" fill-opacity="0.9"/><path d="M 2.367190800766724 -8.641643808487215 L 8.11608274548591 -29.628493057670447 A 30.72 30.72 0 1 1 -5.643172450471003e-15 -30.72 L -1.6459252980540428e-15 -8.96 A 8.96 8.96 0 1 0 2.367190800766724 -8.641643808487215 Z" fill="#7F142A" stroke="#111" stroke-width="1" fill-opacity="0.9"/>
    <circle r="5.76" fill="#fff" stroke="#111" stroke-width="1.5"/>
  </g>
</svg>