<?xml version="1.0" encoding="UTF-8"?>
<svg xmlns="http://www.w3.org/2000/svg" width="64" height="64" viewBox="-32 -32 64 64">
  <g>
    <path d="M 5.486417660180143e-16 -8.96 L 1.8810574834903343e-15 -30.72 A 30.72 30.72 0 1 1 -29.30607733510993 9.212612616872367 L -8.547605889407064 2.687012013254441 A 8.96 8.96 0 1 0 5.486417660180143e-16 -8.96 Z" fill="#A0AAE5" stroke="#111" stroke-width="1" fill-opacity="0.9"/><path d="M -8.547605889407064 2.687012013254441 L -21.613232034643573 6.7943018049433705 A 22.656 22.656 0 0 1 -22.60812356457386 -1.4721022005826068 L -8.941065816498137 -0.5821873109648728 A 8.96 8.96 0 0 0 -8.547605889407064 2.687012013254441 Z" fill="#7B86C9" stroke="#111" stroke-width="1" fill-opacity="0.9"/><path d="M -8.941065816498137 -0.5821873109648728 L -29.63290718789385 -1.9295129804277025 A 29.69565976279985 29.69565976279985 0 0 1 -0.8128977141384937 -29.6845314272319 L -0.2452736722086613 -8.956642274073543 A 8.96 8.96 0 0 0 -8.941065816498137 -0.5821873109648728 Z" fill="#7F142A" stroke="#111" stroke-width="1" fill-opacity="0.9"/><path d="M -0.2452736722086613 -8.956642274073543 L -0.620191999727615 -22.647509750157386 A 22.656 22.656 0 0 1 -4.1618396822223646e-15 -22.656 L -1.6459252980540428e-15 -8.96 A 8.96 8.96 0 0 0 -0.2452736722086613 -8.956642274073543 Z" fill="#4A0D19" stroke="#111" stroke-width="1" fill-opacity="0.9"/>
    <circle r="5.76" fill="#fff" stroke="#111" stroke-width="1.5"/>
  </g>
</svg>