<?xml version="1.0" encoding="UTF-8"?>
<svg xmlns="http://www.w3.org/2000/svg" width="64" height="64" viewBox="-32 -32 64 64">
  <g>
    <path d="M 5.486417660180143e-16 -8.96 L 1.8810574834903343e-15 -30.72 A 30.72 30.72 0 1 1 -30.326224386491905 -4.902908775425414 L -8.845148779393474 -1.430015059499079 A 8.96 8.96 0 1 0 5.486417660180143e-16 -8.96 Z" fill="#A0AAE5" stroke="#111" stroke-width="1" fill-opacity="0.9"/><path d="M -8.845148779393474 -1.430015059499079 L -22.365590485037778 -3.6158952218762423 A 22.656 22.656 0 0 1 -21.71957887839858 -6.446257002712682 L -8.589663963208478 -2.5493671762140555 A 8.96 8.96 0 0 0 -8.845148779393474 -1.430015059499079 Z" fill="#7B86C9" stroke="#111" stroke-width="1" fill-opacity="0.9"/><path d="M -8.589663963208478 -2.5493671762140555 L -28.601525130178707 -8.488782526167991 A 29.834655495728775 29.834655495728775 0 0 1 -14.640389109744854 -25.995493364506153 L -4.396829265955283 -7.8070155889455695 A 8.96 8.96 0 0 0 -8.589663963208478 -2.5493671762140555 Z" fill="#7F142A" stroke="#111" stroke-width="1" fill-opacity="0.9"/><path d="M -4.396829265955283 -7.8070155889455695 L -14.334735661769063 -25.452774716857345 A 29.211785075203572 29.211785075203572 0 0 1 -5.366117863459271e-15 -29.211785075203572 L -1.6459252980540428e-15 -8.96 A 8.96 8.96 0 0 0 -4.396829265955283 -7.8070155889455695 Z" fill="#51BF7E" stroke="#111" stroke-width="1" fill-opacity="0.9"/>
    <circle r="5.76" fill="#fff" stroke="#111" stroke-width="1.5"/>
  </g>
</svg>