<?xml version="1.0" encoding="UTF-8"?>
<svg xmlns="http://www.w3.org/2000/svg" width="64" height="64" viewBox="-32 -32 64 64">
  <g>
    <path d="M 5.486417660180143e-16 -8.96 L 1.3872798940741216e-15 -22.656 A 22.656 22.656 0 0 1 16.87060482209871 -15.12207092089505 L 6.6719906076096605 -5.980480025212732 A 8.96 8.96 0 0 0 5.486417660180143e-16 -8.96 Z" fill="#004F61" stroke="#111" stroke-width="1" fill-opacity="0.9"/><path d="M 6.6719906076096605 -5.980480025212732 L 19.458889411976457 -17.442095812967768 A 26.1318786828708 26.1318786828708 0 0 1 20.586193660558827 -16.09607759878924 L 7.0585164364594215 -5.5189623767726665 A 8.96 8.96 0 0 0 6.6719906076096605 -5.980480025212732 Z" fill="#7F142A" stroke="#111" stroke-width="1" fill-opacity="0.9"/><path d="M 7.0585164364594215 -5.5189623767726665 L 24.200627782146586 -18.92215672036343 A 30.72 30.72 0 1 1 -3.0913275933769913 -30.564065398935824 L -0.901637214734956 -8.914519074689617 A 8.96 8.96 0 1 0 7.0585164364594215 -5.5189623767726665 Z" fill="#A0AAE5" stroke="#111" stroke-width="1" fill-opacity="0.9"/><path d="M -0.901637214734956 -8.914519074689617 L -2.2798541001155312 -22.540998231715168 A 22.656 22.656 0 0 1 -4.1618396822223646e-15 -22.656 L -1.6459252980540428e-15 -8.96 A 8.96 8.96 0 0 0 -0.901637214734956 -8.914519074689617 Z" fill="#e0e0e0" stroke="#111" stroke-width="1" fill-opacity="0.9"/>
    <circle r="5.76" fill="#fff" stroke="#111" stroke-width="1.5"/>
  </g>
</svg>