<?xml version="1.0" encoding="UTF-8"?>
<svg xmlns="http://www.w3.org/2000/svg" width="64" height="64" viewBox="-32 -32 64 64">
  <g>
    <path d="M 5.486417660180143e-16 -8.96 L 1.8810574834903343e-15 -30.72 A 30.72 30.72 0 1 1 -16.171996043592372 26.118670409613745 L -4.71683217938111 7.617945536137343 A 8.96 8.96 0 1 0 5.486417660180143e-16 -8.96 Z" fill="#A0AAE5" stroke="#111" stroke-width="1" fill-opacity="0.9"/><path d="M -4.71683217938111 7.617945536137343 L -11.926847082149376 19.262519427090137 A 22.656 22.656 0 0 1 -15.263248502456397 -16.742986028551254 L -6.036312967073152 -6.621519898297107 A 8.96 8.96 0 0 0 -4.71683217938111 7.617945536137343 Z" fill="#7B86C9" stroke="#111" stroke-width="1" fill-opacity="0.9"/><path d="M -6.036312967073152 -6.621519898297107 L -17.80150959990303 -19.527325816016862 A 26.423667375296684 26.423667375296684 0 0 1 -4.853948950933714e-15 -26.423667375296684 L -1.6459252980540428e-15 -8.96 A 8.96 8.96 0 0 0 -6.036312967073152 -6.621519898297107 Z" fill="#51BF7E" stroke="#111" stroke-width="1" fill-opacity="0.9"/>
    <circle r="5.76" fill="#fff" stroke="#111" stroke-width="1.5"/>
  </g>
</svg>