<?xml version="1.0" encoding="UTF-8"?>
<svg xmlns="http://www.w3.org/2000/svg" width="64" height="64" viewBox="-32 -32 64 64">
  <g>
    <path d="M 5.486417660180143e-16 -8.96 L 1.8101936341929867e-15 -29.562705515636246 A 29.562705515636246 29.562705515636246 0 0 1 25.100690564019203 -15.617582739130505 L 7.607632100338627 -4.73344840744011 A 8.96 8.96 0 0 0 5.486417660180143e-16 -8.96 Z" fill="#7F142A" stroke="#111" stroke-width="1" fill-opacity="0.9"/><path d="M 7.607632100338627 -4.73344840744011 L 26.083310058303862 -16.22896596836609 A 30.72 30.72 0 1 1 -17.809968043548885 -25.03045022143564 L -5.194574012701759 -7.300547981252063 A 8.96 8.96 0 1 0 7.607632100338627 -4.73344840744011 Z" fill="#A0AAE5" stroke="#111" stroke-width="1" fill-opacity="0.9"/><path d="M -5.194574012701759 -7.300547981252063 L -13.134851432117303 -18.459957038308783 A 22.656 22.656 0 0 1 1.5960730594503672e-14 -22.656 L 6.31215334245908e-15 -8.96 A 8.96 8.96 0 0 0 -5.194574012701759 -7.300547981252063 Z" fill="#7B86C9" stroke="#111" stroke-width="1" fill-opacity="0.9"/>
    <circle r="5.76" fill="#fff" stroke="#111" stroke-width="1.5"/>
  </g>
</svg>