<?xml version="1.0" encoding="UTF-8"?>
<svg xmlns="http://www.w3.org/2000/svg" width="64" height="64" viewBox="-32 -32 64 64">
  <g>
    <path d="M 5.486417660180143e-16 -8.96 L 1.8810574834903343e-15 -30.72 A 30.72 30.72 0 1 1 -2.7537195695134615 30.596330311533745 L -0.8031682077747597 8.923929674197343 A 8.96 8.96 0 1 0 5.486417660180143e-16 -8.96 Z" fill="#A0AAE5" stroke="#111" stroke-width="1" fill-opacity="0.9"/><path d="M -0.8031682077747597 8.923929674197343 L -2.732286738273856 30.358192052511896 A 30.480899191417297 30.480899191417297 0 0 1 -2.732286738273877 -30.358192052511892 L -0.8031682077747658 -8.923929674197343 A 8.96 8.96 0 0 0 -0.8031682077747597 8.923929674197343 Z" fill="#7F142A" stroke="#111" stroke-width="1" fill-opacity="0.9"/><path d="M -0.8031682077747658 -8.923929674197343 L -2.187697617705786 -24.307311345035625 A 24.40556095833516 24.40556095833516 0 0 1 -4.483228816353114e-15 -24.40556095833516 L -1.6459252980540428e-15 -8.96 A 8.96 8.96 0 0 0 -0.8031682077747658 -8.923929674197343 Z" fill="#51BF7E" stroke="#111" stroke-width="1" fill-opacity="0.9"/>
    <circle r="5.76" fill="#fff" stroke="#111" stroke-width="1.5"/>
  </g>
</svg>