<?xml version="1.0" encoding="UTF-8"?>
<svg xmlns="http://www.w3.org/2000/svg" width="64" height="64" viewBox="-32 -32 64 64">
  <g>
    <path d="M 5.486417660180143e-16 -8.96 L 1.4622618776514529e-15 -23.88054872097876 A 23.88054872097876 23.88054872097876 0 0 1 4.2046127517872485 -23.507484740451247 L 1.5775738948124844 -8.820026111435622 A 8.96 8.96 0 0 0 5.486417660180143e-16 -8.96 Z" fill="#51BF7E" stroke="#111" stroke-width="1" fill-opacity="0.9"/><path d="M 1.5775738948124844 -8.820026111435622 L 3.9890082768829958 -22.30206602463007 A 22.656 22.656 0 0 1 13.15413902986465 -18.446218105156177 L 5.202201876217659 -7.295114504864025 A 8.96 8.96 0 0 0 1.5775738948124844 -8.820026111435622 Z" fill="#e0e0e0" stroke="#111" stroke-width="1" fill-opacity="0.9"/><path d="M 5.202201876217659 -7.295114504864025 L 16.0763995381667 -22.544141547643832 A 27.68914842011157 27.68914842011157 0 0 1 26.873236025072654 -6.672190477774479 L 8.695976890707165 -2.1590706140112648 A 8.96 8.96 0 0 0 5.202201876217659 -7.295114504864025 Z" fill="#A0AAE5" stroke="#111" stroke-width="1" fill-opacity="0.9"/><path d="M 8.695976890707165 -2.1590706140112648 L 29.814777910995986 -7.402527819467193 A 30.72 30.72 0 1 1 -10.648655315024468 -28.81535250490268 L -3.1058578002154706 -8.40447781392995 A 8.96 8.96 0 1 0 8.695976890707165 -2.1590706140112648 Z" fill="#7F142A" stroke="#111" stroke-width="1" fill-opacity="0.9"/><path d="M -3.1058578002154706 -8.40447781392995 L -7.853383294830546 -21.251322472365725 A 22.656 22.656 0 0 1 -4.1618396822223646e-15 -22.656 L -1.6459252980540428e-15 -8.96 A 8.96 8.96 0 0 0 -3.1058578002154706 -8.40447781392995 Z" fill="#004F61" stroke="#111" stroke-width="1" fill-opacity="0.9"/>
    <circle r="5.76" fill="#fff" stroke="#111" stroke-width="1.5"/>
  </g>
</svg>