<?xml version="1.0" encoding="UTF-8"?>
<svg xmlns="http://www.w3.org/2000/svg" width="64" height="64" viewBox="-32 -32 64 64">
  <g>
    <path d="M 5.486417660180143e-16 -8.96 L 1.8810574834903343e-15 -30.72 A 30.72 30.72 0 1 1 -20.371128061157233 22.99425018381622 L -5.941579017837526 6.706656303613065 A 8.96 8.96 0 1 0 5.486417660180143e-16 -8.96 Z" fill="#51BF7E" stroke="#111" stroke-width="1" fill-opacity="0.9"/><path d="M -5.941579017837526 6.706656303613065 L -17.82800099632437 20.123653140665578 A 26.884922080057482 26.884922080057482 0 0 1 -25.13783882818549 9.53352475734616 L -8.377745534461317 3.1772597879011215 A 8.96 8.96 0 0 0 -5.941579017837526 6.706656303613065 Z" fill="#7F142A" stroke="#111" stroke-width="1" fill-opacity="0.9"/><path d="M -8.377745534461317 3.1772597879011215 L -27.326249233193924 10.363479349623567 A 29.225427308847095 29.225427308847095 0 0 1 -5.368623901123986e-15 -29.225427308847095 L -1.6459252980540428e-15 -8.96 A 8.96 8.96 0 0 0 -8.377745534461317 3.1772597879011215 Z" fill="#A0AAE5" stroke="#111" stroke-width="1" fill-opacity="0.9"/>
    <circle r="5.76" fill="#fff" stroke="#111" stroke-width="1.5"/>
  </g>
</svg>