<?xml version="1.0" encoding="UTF-8"?>
<svg xmlns="http://www.w3.org/2000/svg" width="64" height="64" viewBox="-32 -32 64 64">
  <g>
    <path d="M 5.486417660180143e-16 -8.96 L 1.6237637836913564e-15 -26.518075004513694 A 26.518075004513694 26.518075004513694 0 0 1 3.033816695964186 -26.343960564051542 L 1.0250743159604248 -8.901169734746006 A 8.96 8.96 0 0 0 5.486417660180143e-16 -8.96 Z" fill="#51BF7E" stroke="#111" stroke-width="1" fill-opacity="0.9"/><path d="M 1.0250743159604248 -8.901169734746006 L 3.5029919200187374 -30.418014746878494 A 30.619055725692036 30.619055725692036 0 0 1 13.239906694770937 27.608539335625743 L 3.874370426309625 8.079037925380558 A 8.96 8.96 0 0 0 1.0250743159604248 -8.901169734746006 Z" fill="#A0AAE5" stroke="#111" stroke-width="1" fill-opacity="0.9"/><path d="M 3.874370426309625 8.079037925380558 L 9.796622363668622 20.428424468462264 A 22.656 22.656 0 0 1 7.640219193047818 21.32888620350776 L 3.021555613069759 8.435152735850528 A 8.96 8.96 0 0 0 3.874370426309625 8.079037925380558 Z" fill="#7B86C9" stroke="#111" stroke-width="1" fill-opacity="0.9"/><path d="M 3.021555613069759 8.435152735850528 L 10.3596192448106 28.920523665773235 A 30.72 30.72 0 0 1 -18.11370667234751 -24.811530194410686 L -5.283164446101358 -7.236696306703118 A 8.96 8.96 0 0 0 3.021555613069759 8.435152735850528 Z" fill="#7F142A" stroke="#111" stroke-width="1" fill-opacity="0.9"/><path d="M -5.283164446101358 -7.236696306703118 L -13.35885867085629 -18.29850351837788 A 22.656 22.656 0 0 1 1.5960730594503672e-14 -22.656 L 6.31215334245908e-15 -8.96 A 8.96 8.96 0 0 0 -5.283164446101358 -7.236696306703118 Z" fill="#4A0D19" stroke="#111" stroke-width="1" fill-opacity="0.9"/>
    <circle r="5.76" fill="#fff" stroke="#111" stroke-width="1.5"/>
  </g>
</svg>