<?xml version="1.0" encoding="UTF-8"?>
<svg xmlns="http://www.w3.org/2000/svg" width="64" height="64" viewBox="-32 -32 64 64">
  <g>
    <path d="M 5.486417660180143e-16 -8.96 L 1.3872798940741216e-15 -22.656 A 22.656 22.656 0 0 1 8.184291189136138 -21.126090829385085 L 3.2367253290368914 -8.354951175463029 A 8.96 8.96 0 0 0 5.486417660180143e-16 -8.96 Z" fill="#4A0D19" stroke="#111" stroke-width="1" fill-opacity="0.9"/><path d="M 3.2367253290368914 -8.354951175463029 L 11.09734398526934 -28.64554688730181 A 30.72 30.72 0 1 1 -16.17199604359236 26.118670409613753 L -4.716832179381106 7.617945536137345 A 8.96 8.96 0 1 0 3.2367253290368914 -8.354951175463029 Z" fill="#A0AAE5" stroke="#111" stroke-width="1" fill-opacity="0.9"/><path d="M -4.716832179381106 7.617945536137345 L -16.165979745853576 26.108953755138828 A 30.70857156123231 30.70857156123231 0 0 1 -5.641073080327588e-15 -30.70857156123231 L -1.6459252980540428e-15 -8.96 A 8.96 8.96 0 0 0 -4.716832179381106 7.617945536137345 Z" fill="#7F142A" stroke="#111" stroke-width="1" fill-opacity="0.9"/>
    <circle r="5.76" fill="#fff" stroke="#111" stroke-width="1.5"/>
  </g>
</svg>