<?xml version="1.0" encoding="UTF-8"?>
<svg xmlns="http://www.w3.org/2000/svg" width="64" height="64" viewBox="-32 -32 64 64">
  <g>
    <path d="M 5.486417660180143e-16 -8.96 L 1.836711322776387e-15 -29.995772234985253 A 29.995772234985253 29.995772234985253 0 0 1 16.843053942130947 -24.820513408783054 L 5.03116779722299 -7.414104841191982 A 8.96 8.96 0 0 0 5.486417660180143e-16 -8.96 Z" fill="#7F142A" stroke="#111" stroke-width="1" fill-opacity="0.9"/><path d="M 5.03116779722299 -7.414104841191982 L 17.249718161907392 -25.419788026943934 A 30.72 30.72 0 0 1 17.828041557254966 25.01758050317396 L 5.199845454199366 7.296794313425739 A 8.96 8.96 0 0 0 5.03116779722299 -7.414104841191982 Z" fill="#A0AAE5" stroke="#111" stroke-width="1" fill-opacity="0.9"/><path d="M 5.199845454199366 7.296794313425739 L 13.148180648475538 18.450465621090796 A 22.656 22.656 0 1 1 -1.0387003513187394 -22.632177040226825 L -0.4107854496740778 -8.950578490485187 A 8.96 8.96 0 1 0 5.199845454199366 7.296794313425739 Z" fill="#7B86C9" stroke="#111" stroke-width="1" fill-opacity="0.9"/><path d="M -0.4107854496740778 -8.950578490485187 L -1.0866634110450002 -23.677241151101093 A 23.70216416060565 23.70216416060565 0 0 1 -4.354016920822623e-15 -23.70216416060565 L -1.6459252980540428e-15 -8.96 A 8.96 8.96 0 0 0 -0.4107854496740778 -8.950578490485187 Z" fill="#51BF7E" stroke="#111" stroke-width="1" fill-opacity="0.9"/>
    <circle r="5.76" fill="#fff" stroke="#111" stroke-width="1.5"/>
  </g>
</svg>