<?xml version="1.0" encoding="UTF-8"?>
<svg xmlns="http://www.w3.org/2000/svg" width="64" height="64" viewBox="-32 -32 64 64">
  <g>
    <path d="M 5.486417660180143e-16 -8.96 L 1.8810574834903343e-15 -30.72 A 30.72 30.72 0 1 1 -1.1911794050094076 30.696897100929945 L -0.34742732646107727 8.953261654437902 A 8.96 8.96 0 1 0 5.486417660180143e-16 -8.96 Z" fill="#A0AAE5" stroke="#111" stroke-width="1" fill-opacity="0.9"/><path d="M -0.34742732646107727 8.953261654437902 L -1.1883053611022392 30.622832497637706 A 30.645879654687683 30.645879654687683 0 0 1 -17.82033603684794 -24.932018838100916 L -5.210168958740721 -7.289426549556189 A 8.96 8.96 0 0 0 -0.34742732646107727 8.953261654437902 Z" fill="#7F142A" stroke="#111" stroke-width="1" fill-opacity="0.9"/><path d="M -5.210168958740721 -7.289426549556189 L -15.257571752365592 -21.346514766448863 A 26.238658282252235 26.238658282252235 0 0 1 -4.819963331892208e-15 -26.238658282252235 L -1.6459252980540428e-15 -8.96 A 8.96 8.96 0 0 0 -5.210168958740721 -7.289426549556189 Z" fill="#51BF7E" stroke="#111" stroke-width="1" fill-opacity="0.9"/>
    <circle r="5.76" fill="#fff" stroke="#111" stroke-width="1.5"/>
  </g>
</svg>