<?xml version="1.0" encoding="UTF-8"?>
<svg xmlns="http://www.w3.org/2000/svg" width="64" height="64" viewBox="-32 -32 64 64">
  <g>
    <path d="M 5.486417660180143e-16 -8.96 L 1.3872798940741216e-15 -22.656 A 22.656 22.656 0 0 1 9.513007484949354 -20.5620287080652 L 3.762206349979971 -8.131875760251775 A 8.96 8.96 0 0 0 5.486417660180143e-16 -8.96 Z" fill="#004F61" stroke="#111" stroke-width="1" fill-opacity="0.9"/><path d="M 3.762206349979971 -8.131875760251775 L 12.01773343549076 -25.975905127520416 A 28.621208292461276 28.621208292461276 0 0 1 28.579232824815453 -1.5495209793497557 L 8.94685938810607 -0.48508462092534127 A 8.96 8.96 0 0 0 3.762206349979971 -8.131875760251775 Z" fill="#A0AAE5" stroke="#111" stroke-width="1" fill-opacity="0.9"/><path d="M 8.94685938810607 -0.48508462092534127 L 30.674946473506523 -1.663147271744027 A 30.72 30.72 0 1 1 -12.898993199931336 -27.880716892291794 L -3.762206349979974 -8.131875760251775 A 8.96 8.96 0 1 0 8.94685938810607 -0.48508462092534127 Z" fill="#7F142A" stroke="#111" stroke-width="1" fill-opacity="0.9"/><path d="M -3.762206349979974 -8.131875760251775 L -10.438920940654478 -22.563357844777617 A 24.861138100190068 24.861138100190068 0 0 1 -4.5669169796337116e-15 -24.861138100190068 L -1.6459252980540428e-15 -8.96 A 8.96 8.96 0 0 0 -3.762206349979974 -8.131875760251775 Z" fill="#51BF7E" stroke="#111" stroke-width="1" fill-opacity="0.9"/>
    <circle r="5.76" fill="#fff" stroke="#111" stroke-width="1.5"/>
  </g>
</svg>