<?xml version="1.0" encoding="UTF-8"?>
<svg xmlns="http://www.w3.org/2000/svg" width="64" height="64" viewBox="-32 -32 64 64">
  <g>
    <path d="M 5.486417660180143e-16 -8.96 L 1.600006172870034e-15 -26.13008377573061 A 26.13008377573061 26.13008377573061 0 0 1 16.796094091110902 -20.0168054746318 L 5.759376982791394 -6.8637582103460435 A 8.96 8.96 0 0 0 5.486417660180143e-16 -8.96 Z" fill="#51BF7E" stroke="#111" stroke-width="1" fill-opacity="0.9"/><path d="M 5.759376982791394 -6.8637582103460435 L 14.562996085058234 -17.355502903303567 A 22.656 22.656 0 0 1 21.547136433183 -7.001089024558808 L 8.521466386004576 -2.768792269599529 A 8.96 8.96 0 0 0 5.759376982791394 -6.8637582103460435 Z" fill="#4A0D19" stroke="#111" stroke-width="1" fill-opacity="0.9"/><path d="M 8.521466386004576 -2.768792269599529 L 27.591054255058296 -8.964876967299178 A 29.010951276102304 29.010951276102304 0 0 1 13.619816633497077 25.615149595782146 L 4.2064652025615805 7.911210432015986 A 8.96 8.96 0 0 0 8.521466386004576 -2.768792269599529 Z" fill="#7F142A" stroke="#111" stroke-width="1" fill-opacity="0.9"/><path d="M 4.2064652025615805 7.911210432015986 L 14.42216640878256 27.124150052626238 A 30.72 30.72 0 1 1 -5.643172450471003e-15 -30.72 L -1.6459252980540428e-15 -8.96 A 8.96 8.96 0 1 0 4.2064652025615805 7.911210432015986 Z" fill="#A0AAE5" stroke="#111" stroke-width="1" fill-opacity="0.9"/>
    <circle r="5.76" fill="#fff" stroke="#111" stroke-width="1.5"/>
  </g>
</svg>