<?xml version="1.0" encoding="UTF-8"?>
<svg xmlns="http://www.w3.org/2000/svg" width="64" height="64" viewBox="-32 -32 64 64">
  <g>
    <path d="M 5.486417660180143e-16 -8.96 L 1.778770162617509e-15 -29.04952128002879 A 29.04952128002879 29.04952128002879 0 0 1 28.608193777865477 -5.044396432373714 L 8.823877466989385 -1.5558876718956962 A 8.96 8.96 0 0 0 5.486417660180143e-16 -8.96 Z" fill="#A0AAE5" stroke="#111" stroke-width="1" fill-opacity="0.9"/><path d="M 8.823877466989385 -1.5558876718956962 L 30.25329417253503 -5.334472017928101 A 30.72 30.72 0 1 1 -30.253294172535032 -5.33447201792809 L -8.823877466989385 -1.555887671895693 A 8.96 8.96 0 1 0 8.823877466989385 -1.5558876718956962 Z" fill="#7F142A" stroke="#111" stroke-width="1" fill-opacity="0.9"/><path d="M -8.823877466989385 -1.555887671895693 L -25.16129641745131 -4.4366154279998975 A 25.549449971825517 25.549449971825517 0 0 1 -4.6933578191957324e-15 -25.549449971825517 L -1.6459252980540428e-15 -8.96 A 8.96 8.96 0 0 0 -8.823877466989385 -1.555887671895693 Z" fill="#51BF7E" stroke="#111" stroke-width="1" fill-opacity="0.9"/>
    <circle r="5.76" fill="#fff" stroke="#111" stroke-width="1.5"/>
  </g>
</svg>