<?xml version="1.0" encoding="UTF-8"?>
<svg xmlns="http://www.w3.org/2000/svg" width="64" height="64" viewBox="-32 -32 64 64">
  <g>
    <path d="M 5.486417660180143e-16 -8.96 L 1.3872798940741216e-15 -22.656 A 22.656 22.656 0 0 1 14.757494968554667 -17.190424027727868 L 5.836297445191112 -6.7984727793274065 A 8.96 8.96 0 0 0 5.486417660180143e-16 -8.96 Z" fill="#e0e0e0" stroke="#111" stroke-width="1" fill-opacity="0.9"/><path d="M 5.836297445191112 -6.7984727793274065 L 20.010162669226666 -23.309049529122536 A 30.72 30.72 0 1 1 -30.6105169345669 -2.59126474884235 L -8.92806743924868 -0.7557855517456855 A 8.96 8.96 0 1 0 5.836297445191112 -6.7984727793274065 Z" fill="#7F142A" stroke="#111" stroke-width="1" fill-opacity="0.9"/><path d="M -8.92806743924868 -0.7557855517456855 L -24.42026495284704 -2.0672428324215804 A 24.507607661610873 24.507607661610873 0 0 1 -24.336513617462966 -2.8908369449845455 L -8.897447887336366 -1.0568921856715823 A 8.96 8.96 0 0 0 -8.92806743924868 -0.7557855517456855 Z" fill="#A0AAE5" stroke="#111" stroke-width="1" fill-opacity="0.9"/><path d="M -8.897447887336366 -1.0568921856715823 L -22.49783251512195 -2.672427383769572 A 22.656 22.656 0 0 1 -20.340659648514716 -9.977569897689772 L -8.044328674553844 -3.9459315979564074 A 8.96 8.96 0 0 0 -8.897447887336366 -1.0568921856715823 Z" fill="#4A0D19" stroke="#111" stroke-width="1" fill-opacity="0.9"/><path d="M -8.044328674553844 -3.9459315979564074 L -20.340659648514716 -9.977569897689772 A 22.656 22.656 0 0 1 1.5960730594503672e-14 -22.656 L 6.31215334245908e-15 -8.96 A 8.96 8.96 0 0 0 -8.044328674553844 -3.9459315979564074 Z" fill="#004F61" stroke="#111" stroke-width="1" fill-opacity="0.9"/>
    <circle r="5.76" fill="#fff" stroke="#111" stroke-width="1.5"/>
  </g>
</svg>