<?xml version="1.0" encoding="UTF-8"?>
<svg xmlns="http://www.w3.org/2000/svg" width="64" height="64" viewBox="-32 -32 64 64">
  <g>
    <path d="M 5.486417660180143e-16 -8.96 L 1.4640690599823927e-15 -23.910062248180203 A 23.910062248180203 23.910062248180203 0 0 1 6.736242971417553 -22.941536725814156 L 2.5243237092992112 -8.597057043585897 A 8.96 8.96 0 0 0 5.486417660180143e-16 -8.96 Z" fill="#51BF7E" stroke="#111" stroke-width="1" fill-opacity="0.9"/><path d="M 2.5243237092992112 -8.597057043585897 L 8.10820940271056 -27.614025293053174 A 28.7798098083289 28.7798098083289 0 0 1 21.75032901264107 -18.846767373887978 L 6.771516186214154 -5.867552176149755 A 8.96 8.96 0 0 0 2.5243237092992112 -8.597057043585897 Z" fill="#A0AAE5" stroke="#111" stroke-width="1" fill-opacity="0.9"/><path d="M 6.771516186214154 -5.867552176149755 L 23.216626924162814 -20.117321746799156 A 30.72 30.72 0 1 1 -5.643172450471003e-15 -30.72 L -1.6459252980540428e-15 -8.96 A 8.96 8.96 0 1 0 6.771516186214154 -5.867552176149755 Z" fill="#7F142A" stroke="#111" stroke-width="1" fill-opacity="0.9"/>
    <circle r="5.76" fill="#fff" stroke="#111" stroke-width="1.5"/>
  </g>
</svg>