<?xml version="1.0" encoding="UTF-8"?>
<svg xmlns="http://www.w3.org/2000/svg" width="64" height="64" viewBox="-32 -32 64 64">
  <g>
    <path d="M 5.486417660180143e-16 -8.96 L 1.3872798940741216e-15 -22.656 A 22.656 22.656 0 0 1 17.122262356570076 14.836524788264379 L 6.771516186214154 5.867552176149755 A 8.96 8.96 0 0 0 5.486417660180143e-16 -8.96 Z" fill="#4A0D19" stroke="#111" stroke-width="1" fill-opacity="0.9"/><path d="M 6.771516186214154 5.867552176149755 L 23.216626924162814 20.117321746799156 A 30.72 30.72 0 1 1 -8.654824146168721 -29.47562414943736 L -2.524323709299211 -8.597057043585897 A 8.96 8.96 0 1 0 6.771516186214154 5.867552176149755 Z" fill="#7F142A" stroke="#111" stroke-width="1" fill-opacity="0.9"/><path d="M -2.524323709299211 -8.597057043585897 L -8.104983929111595 -27.60304033877781 A 28.76836110096215 28.76836110096215 0 0 1 -5.284662200851278e-15 -28.76836110096215 L -1.6459252980540428e-15 -8.96 A 8.96 8.96 0 0 0 -2.524323709299211 -8.597057043585897 Z" fill="#A0AAE5" stroke="#111" stroke-width="1" fill-opacity="0.9"/>
    <circle r="5.76" fill="#fff" stroke="#111" stroke-width="1.5"/>
  </g>
</svg>