<?xml version="1.0" encoding="UTF-8"?>
<svg xmlns="http://www.w3.org/2000/svg" width="64" height="64" viewBox="-32 -32 64 64">
  <g>
    <path d="M 5.486417660180143e-16 -8.96 L 1.3872798940741216e-15 -22.656 A 22.656 22.656 0 0 1 18.455032769652405 -13.141769343245064 L 7.298600530371009 -5.197309909757936 A 8.96 8.96 0 0 0 5.486417660180143e-16 -8.96 Z" fill="#4A0D19" stroke="#111" stroke-width="1" fill-opacity="0.9"/><path d="M 7.298600530371009 -5.197309909757936 L 18.455032769652405 -13.141769343245064 A 22.656 22.656 0 0 1 22.630338436530227 -1.0780158849027013 L 8.949851359079751 -0.4263339657807294 A 8.96 8.96 0 0 0 7.298600530371009 -5.197309909757936 Z" fill="#004F61" stroke="#111" stroke-width="1" fill-opacity="0.9"/><path d="M 8.949851359079751 -0.4263339657807294 L 30.685204659702002 -1.4617164541053578 A 30.72 30.72 0 1 1 -29.8540513788992 -7.242514498849587 L -8.707431652178935 -2.112400062164463 A 8.96 8.96 0 1 0 8.949851359079751 -0.4263339657807294 Z" fill="#7F142A" stroke="#111" stroke-width="1" fill-opacity="0.9"/><path d="M -8.707431652178935 -2.112400062164463 L -22.017362891938163 -5.3413544429015705 A 22.656 22.656 0 0 1 -4.1618396822223646e-15 -22.656 L -1.6459252980540428e-15 -8.96 A 8.96 8.96 0 0 0 -8.707431652178935 -2.112400062164463 Z" fill="#e0e0e0" stroke="#111" stroke-width="1" fill-opacity="0.9"/>
    <circle r="5.76" fill="#fff" stroke="#111" stroke-width="1.5"/>
  </g>
</svg>