<?xml version="1.0" encoding="UTF-8"?>
<svg xmlns="http://www.w3.org/2000/svg" width="64" height="64" viewBox="-32 -32 64 64">
  <g>
    <path d="M 5.486417660180143e-16 -8.96 L 1.3872798940741216e-15 -22.656 A 22.656 22.656 0 0 1 5.287528019703751 -22.030351414374845 L 2.0911127761540262 -8.712568355967454 A 8.96 8.96 0 0 0 5.486417660180143e-16 -8.96 Z" fill="#4A0D19" stroke="#111" stroke-width="1" fill-opacity="0.9"/><path d="M 2.0911127761540262 -8.712568355967454 L 5.287528019703751 -22.030351414374845 A 22.656 22.656 0 0 1 14.533350368859695 -17.38033552771539 L 5.747652688249597 -6.873579022260324 A 8.96 8.96 0 0 0 2.0911127761540262 -8.712568355967454 Z" fill="#004F61" stroke="#111" stroke-width="1" fill-opacity="0.9"/><path d="M 5.747652688249597 -6.873579022260324 L 19.706237788284334 -23.566556647749678 A 30.72 30.72 0 1 1 -21.62477195220473 21.819432577753705 L -6.30722515272638 6.364001168511498 A 8.96 8.96 0 1 0 5.747652688249597 -6.873579022260324 Z" fill="#A0AAE5" stroke="#111" stroke-width="1" fill-opacity="0.9"/><path d="M -6.30722515272638 6.364001168511498 L -15.948269314750986 16.091831526093358 A 22.656 22.656 0 0 1 -21.55071870490963 6.990054313226619 L -8.522883103636579 2.7644282594681546 A 8.96 8.96 0 0 0 -6.30722515272638 6.364001168511498 Z" fill="#7B86C9" stroke="#111" stroke-width="1" fill-opacity="0.9"/><path d="M -8.522883103636579 2.7644282594681546 L -28.51119691556266 9.247710839893214 A 29.973463352376687 29.973463352376687 0 0 1 -13.74083661515484 -26.63827911956567 L -4.10756323433091 -7.9630097498353605 A 8.96 8.96 0 0 0 -8.522883103636579 2.7644282594681546 Z" fill="#7F142A" stroke="#111" stroke-width="1" fill-opacity="0.9"/><path d="M -4.10756323433091 -7.9630097498353605 L -12.327858807649188 -23.899050186112305 A 26.891275584836958 26.891275584836958 0 0 1 -4.9293149438978 -26.435630440061647 L -1.6424160229211409 -8.80818196949018 A 8.96 8.96 0 0 0 -4.10756323433091 -7.9630097498353605 Z" fill="#51BF7E" stroke="#111" stroke-width="1" fill-opacity="0.9"/><path d="M -1.6424160229211409 -8.80818196949018 L -4.152966229386313 -22.272117265710882 A 22.656 22.656 0 0 1 -4.1618396822223646e-15 -22.656 L -1.6459252980540428e-15 -8.96 A 8.96 8.96 0 0 0 -1.6424160229211409 -8.80818196949018 Z" fill="#e0e0e0" stroke="#111" stroke-width="1" fill-opacity="0.9"/>
    <circle r="5.76" fill="#fff" stroke="#111" stroke-width="1.5"/>
  </g>
</svg>