<?xml version="1.0" encoding="UTF-8"?>
<svg xmlns="http://www.w3.org/2000/svg" width="64" height="64" viewBox="-32 -32 64 64">
  <g>
    <path d="M 5.486417660180143e-16 -8.96 L 1.5986931863613577e-15 -26.108641078789905 A 26.108641078789905 26.108641078789905 0 0 1 7.695657054810414 -24.948707410922562 L 2.641006362721701 -8.561932339843823 A 8.96 8.96 0 0 0 5.486417660180143e-16 -8.96 Z" fill="#A0AAE5" stroke="#111" stroke-width="1" fill-opacity="0.9"/><path d="M 2.641006362721701 -8.561932339843823 L 9.054878957902973 -29.355196593750243 A 30.72 30.72 0 1 1 -11.223276268535644 28.596441558349955 L -3.2734555783228965 8.340628787852072 A 8.96 8.96 0 1 0 2.641006362721701 -8.561932339843823 Z" fill="#7F142A" stroke="#111" stroke-width="1" fill-opacity="0.9"/><path d="M -3.2734555783228965 8.340628787852072 L -8.277166248045036 21.089875649283094 A 22.656 22.656 0 0 1 -22.087966778391394 5.041434279714261 L -8.735354093149141 1.9937875682485782 A 8.96 8.96 0 0 0 -3.2734555783228965 8.340628787852072 Z" fill="#4A0D19" stroke="#111" stroke-width="1" fill-opacity="0.9"/><path d="M -8.735354093149141 1.9937875682485782 L -22.087966778391394 5.041434279714261 A 22.656 22.656 0 0 1 -12.762579235489433 -18.71926567090317 L -5.047347720250059 -7.403099417871311 A 8.96 8.96 0 0 0 -8.735354093149141 1.9937875682485782 Z" fill="#004F61" stroke="#111" stroke-width="1" fill-opacity="0.9"/><path d="M -5.047347720250059 -7.403099417871311 L -12.762579235489433 -18.71926567090317 A 22.656 22.656 0 0 1 -2.42844099589484e-14 -22.656 L -9.604003938567165e-15 -8.96 A 8.96 8.96 0 0 0 -5.047347720250059 -7.403099417871311 Z" fill="#e0e0e0" stroke="#111" stroke-width="1" fill-opacity="0.9"/>
    <circle r="5.76" fill="#fff" stroke="#111" stroke-width="1.5"/>
  </g>
</svg>