<?xml version="1.0" encoding="UTF-8"?>
<svg xmlns="http://www.w3.org/2000/svg" width="64" height="64" viewBox="-32 -32 64 64">
  <g>
    <path d="M 5.486417660180143e-16 -8.96 L 1.7816439558496667e-15 -29.09645388515475 A 29.09645388515475 29.09645388515475 0 0 1 15.84706456636992 -24.402339505060574 L 4.879965753734643 -7.514488288791 A 8.96 8.96 0 0 0 5.486417660180143e-16 -8.96 Z" fill="#A0AAE5" stroke="#111" stroke-width="1" fill-opacity="0.9"/><path d="M 4.879965753734643 -7.514488288791 L 12.339341977300453 -19.000920387371526 A 22.656 22.656 0 0 1 21.88401552040513 -5.863804285842713 L 8.654695403550052 -2.3190186441185876 A 8.96 8.96 0 0 0 4.879965753734643 -7.514488288791 Z" fill="#7B86C9" stroke="#111" stroke-width="1" fill-opacity="0.9"/><path d="M 8.654695403550052 -2.3190186441185876 L 29.673241383600175 -7.950921065549442 A 30.72 30.72 0 1 1 -12.494949675288604 -28.06411645878069 L -3.6443603219591765 -8.1853673004777 A 8.96 8.96 0 1 0 8.654695403550052 -2.3190186441185876 Z" fill="#7F142A" stroke="#111" stroke-width="1" fill-opacity="0.9"/><path d="M -3.6443603219591765 -8.1853673004777 L -10.30579257602053 -23.14718910997112 A 25.33775294521449 25.33775294521449 0 0 1 -2.71589150759243e-14 -25.33775294521449 L -9.604003938567165e-15 -8.96 A 8.96 8.96 0 0 0 -3.6443603219591765 -8.1853673004777 Z" fill="#51BF7E" stroke="#111" stroke-width="1" fill-opacity="0.9"/>
    <circle r="5.76" fill="#fff" stroke="#111" stroke-width="1.5"/>
  </g>
</svg>