<?xml version="1.0" encoding="UTF-8"?>
<svg xmlns="http://www.w3.org/2000/svg" width="64" height="64" viewBox="-32 -32 64 64">
  <g>
    <path d="M 5.486417660180143e-16 -8.96 L 1.3872798940741216e-15 -22.656 A 22.656 22.656 0 0 1 6.677973231453443 -21.649457487890803 L 2.641006362721701 -8.561932339843823 A 8.96 8.96 0 0 0 5.486417660180143e-16 -8.96 Z" fill="#4A0D19" stroke="#111" stroke-width="1" fill-opacity="0.9"/><path d="M 2.641006362721701 -8.561932339843823 L 8.123172161346499 -26.334677345751075 A 27.55904854793956 27.55904854793956 0 0 1 25.653994830888113 -10.068451027067454 L 8.34062878785207 -3.273455578322901 A 8.96 8.96 0 0 0 2.641006362721701 -8.561932339843823 Z" fill="#7F142A" stroke="#111" stroke-width="1" fill-opacity="0.9"/><path d="M 8.34062878785207 -3.273455578322901 L 28.596441558349955 -11.223276268535658 A 30.72 30.72 0 1 1 -5.643172450471003e-15 -30.72 L -1.6459252980540428e-15 -8.96 A 8.96 8.96 0 1 0 8.34062878785207 -3.273455578322901 Z" fill="#A0AAE5" stroke="#111" stroke-width="1" fill-opacity="0.9"/>
    <circle r="5.76" fill="#fff" stroke="#111" stroke-width="1.5"/>
  </g>
</svg>