<?xml version="1.0" encoding="UTF-8"?>
<svg xmlns="http://www.w3.org/2000/svg" width="64" height="64" viewBox="-32 -32 64 64">
  <g>
    <path d="M 5.486417660180143e-16 -8.96 L 1.3872798940741216e-15 -22.656 A 22.656 22.656 0 0 1 7.9607480143869 -21.211337229213886 L 3.1483184237688313 -8.388664440932047 A 8.96 8.96 0 0 0 5.486417660180143e-16 -8.96 Z" fill="#004F61" stroke="#111" stroke-width="1" fill-opacity="0.9"/><path d="M 3.1483184237688313 -8.388664440932047 L 10.794234595778848 -28.761135226052726 A 30.72 30.72 0 1 1 -18.056762950424762 24.853002067198393 L -5.266555860540556 7.248792269599532 A 8.96 8.96 0 1 0 3.1483184237688313 -8.388664440932047 Z" fill="#A0AAE5" stroke="#111" stroke-width="1" fill-opacity="0.9"/><path d="M -5.266555860540556 7.248792269599532 L -13.31686267593826 18.329089024558815 A 22.656 22.656 0 0 1 -4.045385008557916 -22.291908759290553 L -1.599869777395786 -8.816009113843723 A 8.96 8.96 0 0 0 -5.266555860540556 7.248792269599532 Z" fill="#7B86C9" stroke="#111" stroke-width="1" fill-opacity="0.9"/><path d="M -1.599869777395786 -8.816009113843723 L -4.045385008557916 -22.291908759290553 A 22.656 22.656 0 0 1 -4.1618396822223646e-15 -22.656 L -1.6459252980540428e-15 -8.96 A 8.96 8.96 0 0 0 -1.599869777395786 -8.816009113843723 Z" fill="#e0e0e0" stroke="#111" stroke-width="1" fill-opacity="0.9"/>
    <circle r="5.76" fill="#fff" stroke="#111" stroke-width="1.5"/>
  </g>
</svg>