<?xml version="1.0" encoding="UTF-8"?>
<svg xmlns="http://www.w3.org/2000/svg" width="64" height="64" viewBox="-32 -32 64 64">
  <g>
    <path d="M 5.486417660180143e-16 -8.96 L 1.3872798940741216e-15 -22.656 A 22.656 22.656 0 0 1 21.08987564928309 -8.277166248045049 L 8.34062878785207 -3.273455578322901 A 8.96 8.96 0 0 0 5.486417660180143e-16 -8.96 Z" fill="#004F61" stroke="#111" stroke-width="1" fill-opacity="0.9"/><path d="M 8.34062878785207 -3.273455578322901 L 21.08987564928309 -8.277166248045049 A 22.656 22.656 0 0 1 18.719265670903184 12.762579235489413 L 7.403099417871316 5.047347720250051 A 8.96 8.96 0 0 0 8.34062878785207 -3.273455578322901 Z" fill="#4A0D19" stroke="#111" stroke-width="1" fill-opacity="0.9"/><path d="M 7.403099417871316 5.047347720250051 L 25.382055146987366 17.30519218371446 A 30.72 30.72 0 1 1 -24.017863141417877 -19.153606713100288 L -7.005210082913549 -5.586468624654252 A 8.96 8.96 0 1 0 7.403099417871316 5.047347720250051 Z" fill="#7F142A" stroke="#111" stroke-width="1" fill-opacity="0.9"/><path d="M -7.005210082913549 -5.586468624654252 L -20.412557559856015 -16.278471453015506 A 26.108641078789905 26.108641078789905 0 0 1 -14.707521208466195 -21.571971603995607 L -5.047347720250054 -7.403099417871315 A 8.96 8.96 0 0 0 -7.005210082913549 -5.586468624654252 Z" fill="#A0AAE5" stroke="#111" stroke-width="1" fill-opacity="0.9"/><path d="M -5.047347720250054 -7.403099417871315 L -12.762579235489419 -18.71926567090318 A 22.656 22.656 0 0 1 -4.1618396822223646e-15 -22.656 L -1.6459252980540428e-15 -8.96 A 8.96 8.96 0 0 0 -5.047347720250054 -7.403099417871315 Z" fill="#e0e0e0" stroke="#111" stroke-width="1" fill-opacity="0.9"/>
    <circle r="5.76" fill="#fff" stroke="#111" stroke-width="1.5"/>
  </g>
</svg>