<?xml version="1.0" encoding="UTF-8"?>
<svg xmlns="http://www.w3.org/2000/svg" width="64" height="64" viewBox="-32 -32 64 64">
  <g>
    <path d="M 5.486417660180143e-16 -8.96 L 1.5484376039381502e-15 -25.287905133402266 A 25.287905133402266 25.287905133402266 0 0 1 8.885533217634904 -23.675418591320817 L 3.1483184237688313 -8.388664440932047 A 8.96 8.96 0 0 0 5.486417660180143e-16 -8.96 Z" fill="#51BF7E" stroke="#111" stroke-width="1" fill-opacity="0.9"/><path d="M 3.1483184237688313 -8.388664440932047 L 7.9607480143869 -21.211337229213886 A 22.656 22.656 0 0 1 14.906259774890128 -17.061587133777806 L 5.895130984419826 -6.747520335392354 A 8.96 8.96 0 0 0 3.1483184237688313 -8.388664440932047 Z" fill="#004F61" stroke="#111" stroke-width="1" fill-opacity="0.9"/><path d="M 5.895130984419826 -6.747520335392354 L 20.21187766086797 -23.134355435630926 A 30.72 30.72 0 1 1 -30.441976681510955 -4.123645925918372 L -8.878909865440697 -1.202730061726192 A 8.96 8.96 0 1 0 5.895130984419826 -6.747520335392354 Z" fill="#7F142A" stroke="#111" stroke-width="1" fill-opacity="0.9"/><path d="M -8.878909865440697 -1.202730061726192 L -30.073275034057996 -4.073701894283849 A 30.34793103981864 30.34793103981864 0 0 1 -5.574824491298775e-15 -30.34793103981864 L -1.6459252980540428e-15 -8.96 A 8.96 8.96 0 0 0 -8.878909865440697 -1.202730061726192 Z" fill="#A0AAE5" stroke="#111" stroke-width="1" fill-opacity="0.9"/>
    <circle r="5.76" fill="#fff" stroke="#111" stroke-width="1.5"/>
  </g>
</svg>