<?xml version="1.0" encoding="UTF-8"?>
<svg xmlns="http://www.w3.org/2000/svg" width="64" height="64" viewBox="-32 -32 64 64">
  <g>
    <path d="M 5.486417660180143e-16 -8.96 L 1.3872798940741216e-15 -22.656 A 22.656 22.656 0 0 1 7.748808367186353 -21.289676016525537 L 3.064500484197993 -8.41964588224174 A 8.96 8.96 0 0 0 5.486417660180143e-16 -8.96 Z" fill="#e0e0e0" stroke="#111" stroke-width="1" fill-opacity="0.9"/><path d="M 3.064500484197993 -8.41964588224174 L 10.506858802964546 -28.867357310543102 A 30.72 30.72 0 1 1 -27.841775217765896 -12.982833000674269 L -8.120517771848387 -3.786659625196662 A 8.96 8.96 0 1 0 3.064500484197993 -8.41964588224174 Z" fill="#7F142A" stroke="#111" stroke-width="1" fill-opacity="0.9"/><path d="M -8.120517771848387 -3.786659625196662 L -20.533309223102346 -9.574839337997274 A 22.656 22.656 0 0 1 -9.574839337997297 -20.533309223102336 L -3.786659625196672 -8.120517771848382 A 8.96 8.96 0 0 0 -8.120517771848387 -3.786659625196662 Z" fill="#004F61" stroke="#111" stroke-width="1" fill-opacity="0.9"/><path d="M -3.786659625196672 -8.120517771848382 L -9.574839337997297 -20.533309223102336 A 22.656 22.656 0 0 1 -4.1618396822223646e-15 -22.656 L -1.6459252980540428e-15 -8.96 A 8.96 8.96 0 0 0 -3.786659625196672 -8.120517771848382 Z" fill="#4A0D19" stroke="#111" stroke-width="1" fill-opacity="0.9"/>
    <circle r="5.76" fill="#fff" stroke="#111" stroke-width="1.5"/>
  </g>
</svg>