<?xml version="1.0" encoding="UTF-8"?>
<svg xmlns="http://www.w3.org/2000/svg" width="64" height="64" viewBox="-32 -32 64 64">
  <g>
    <path d="M 5.486417660180143e-16 -8.96 L 1.8271116434894263e-15 -29.838997574835986 A 29.838997574835986 29.838997574835986 0 0 1 12.13661370633573 -27.2592806951 L 3.64436032195917 -8.185367300477704 A 8.96 8.96 0 0 0 5.486417660180143e-16 -8.96 Z" fill="#7F142A" stroke="#111" stroke-width="1" fill-opacity="0.9"/><path d="M 3.64436032195917 -8.185367300477704 L 12.49494967528858 -28.0641164587807 A 30.72 30.72 0 0 1 24.207690350798497 18.91312052200422 L 7.060576352316229 5.516326818917899 A 8.96 8.96 0 0 0 3.64436032195917 -8.185367300477704 Z" fill="#A0AAE5" stroke="#111" stroke-width="1" fill-opacity="0.9"/><path d="M 7.060576352316229 5.516326818917899 L 17.85317163371389 13.948426384978113 A 22.656 22.656 0 1 1 -4.1618396822223646e-15 -22.656 L -1.6459252980540428e-15 -8.96 A 8.96 8.96 0 1 0 7.060576352316229 5.516326818917899 Z" fill="#7B86C9" stroke="#111" stroke-width="1" fill-opacity="0.9"/>
    <circle r="5.76" fill="#fff" stroke="#111" stroke-width="1.5"/>
  </g>
</svg>