<?xml version="1.0" encoding="UTF-8"?>
<svg xmlns="http://www.w3.org/2000/svg" width="64" height="64" viewBox="-32 -32 64 64">
  <g>
    <path d="M 5.486417660180143e-16 -8.96 L 1.5672383653497268e-15 -25.59494486803704 A 25.59494486803704 25.59494486803704 0 0 1 20.01093368986489 -15.958187104357622 L 7.005210082913548 -5.586468624654253 A 8.96 8.96 0 0 0 5.486417660180143e-16 -8.96 Z" fill="#51BF7E" stroke="#111" stroke-width="1" fill-opacity="0.9"/><path d="M 7.005210082913548 -5.586468624654253 L 23.41305775443771 -18.671290511530888 A 29.94642487474288 29.94642487474288 0 0 1 12.993266797856496 26.980796517121938 L 3.8875983024933216 8.072681056405676 A 8.96 8.96 0 0 0 7.005210082913548 -5.586468624654253 Z" fill="#7F142A" stroke="#111" stroke-width="1" fill-opacity="0.9"/><path d="M 3.8875983024933216 8.072681056405676 L 13.328908465691386 27.677763621962317 A 30.72 30.72 0 1 1 -5.643172450471003e-15 -30.72 L -1.6459252980540428e-15 -8.96 A 8.96 8.96 0 1 0 3.8875983024933216 8.072681056405676 Z" fill="#A0AAE5" stroke="#111" stroke-width="1" fill-opacity="0.9"/>
    <circle r="5.76" fill="#fff" stroke="#111" stroke-width="1.5"/>
  </g>
</svg>