<?xml version="1.0" encoding="UTF-8"?>
<svg xmlns="http://www.w3.org/2000/svg" width="64" height="64" viewBox="-32 -32 64 64">
  <g>
    <path d="M 5.486417660180143e-16 -8.96 L 1.7835144781907302e-15 -29.12700183322216 A 29.12700183322216 29.12700183322216 0 0 1 8.206024699598698 27.947153601433243 L 2.524323709299213 8.597057043585897 A 8.96 8.96 0 0 0 5.486417660180143e-16 -8.96 Z" fill="#A0AAE5" stroke="#111" stroke-width="1" fill-opacity="0.9"/><path d="M 2.524323709299213 8.597057043585897 L 6.382932807799438 21.73827281021005 A 22.656 22.656 0 0 1 -6.382932807799425 21.738272810210052 L -2.524323709299208 8.597057043585899 A 8.96 8.96 0 0 0 2.524323709299213 8.597057043585897 Z" fill="#7B86C9" stroke="#111" stroke-width="1" fill-opacity="0.9"/><path d="M -2.524323709299208 8.597057043585899 L -8.654824146168712 29.475624149437362 A 30.72 30.72 0 0 1 -5.643172450471003e-15 -30.72 L -1.6459252980540428e-15 -8.96 A 8.96 8.96 0 0 0 -2.524323709299208 8.597057043585899 Z" fill="#7F142A" stroke="#111" stroke-width="1" fill-opacity="0.9"/>
    <circle r="5.76" fill="#fff" stroke="#111" stroke-width="1.5"/>
  </g>
</svg>