<?xml version="1.0" encoding="UTF-8"?>
<svg xmlns="http://www.w3.org/2000/svg" width="64" height="64" viewBox="-32 -32 64 64">
  <g>
    <path d="M 5.486417660180143e-16 -8.96 L 1.8810574834903343e-15 -30.72 A 30.72 30.72 0 1 1 -21.722320318050738 21.72232031805074 L -6.335676759431466 6.3356767594314665 A 8.96 8.96 0 1 0 5.486417660180143e-16 -8.96 Z" fill="#A0AAE5" stroke="#111" stroke-width="1" fill-opacity="0.9"/><path d="M -6.335676759431466 6.3356767594314665 L -16.020211234562417 16.02021123456242 A 22.656 22.656 0 0 1 -16.020211234562424 -16.020211234562417 L -6.335676759431468 -6.335676759431466 A 8.96 8.96 0 0 0 -6.335676759431466 6.3356767594314665 Z" fill="#7B86C9" stroke="#111" stroke-width="1" fill-opacity="0.9"/><path d="M -6.335676759431468 -6.335676759431466 L -18.351378572301087 -18.351378572301083 A 25.9527684651912 25.9527684651912 0 0 1 -4.767446224486315e-15 -25.9527684651912 L -1.6459252980540428e-15 -8.96 A 8.96 8.96 0 0 0 -6.335676759431468 -6.335676759431466 Z" fill="#51BF7E" stroke="#111" stroke-width="1" fill-opacity="0.9"/>
    <circle r="5.76" fill="#fff" stroke="#111" stroke-width="1.5"/>
  </g>
</svg>