<?xml version="1.0" encoding="UTF-8"?>
<svg xmlns="http://www.w3.org/2000/svg" width="64" height="64" viewBox="-32 -32 64 64">
  <g>
    <path d="M 5.486417660180143e-16 -8.96 L 1.3872798940741216e-15 -22.656 A 22.656 22.656 0 0 1 22.394738355977694 3.4307477271436833 L 8.85667618597988 1.3567928864410048 A 8.96 8.96 0 0 0 5.486417660180143e-16 -8.96 Z" fill="#e0e0e0" stroke="#111" stroke-width="1" fill-opacity="0.9"/><path d="M 8.85667618597988 1.3567928864410048 L 30.365746923359584 4.651861324940588 A 30.72 30.72 0 0 1 -24.292630638726088 18.803895783864217 L -7.0853506029617765 5.484469603627065 A 8.96 8.96 0 0 0 8.85667618597988 1.3567928864410048 Z" fill="#7F142A" stroke="#111" stroke-width="1" fill-opacity="0.9"/><path d="M -7.0853506029617765 5.484469603627065 L -17.915815096060488 13.86787314059986 A 22.656 22.656 0 0 1 -22.394738355977694 -3.430747727143671 L -8.85667618597988 -1.356792886441 A 8.96 8.96 0 0 0 -7.0853506029617765 5.484469603627065 Z" fill="#4A0D19" stroke="#111" stroke-width="1" fill-opacity="0.9"/><path d="M -8.85667618597988 -1.356792886441 L -22.394738355977694 -3.430747727143671 A 22.656 22.656 0 0 1 -2.42844099589484e-14 -22.656 L -9.604003938567165e-15 -8.96 A 8.96 8.96 0 0 0 -8.85667618597988 -1.356792886441 Z" fill="#004F61" stroke="#111" stroke-width="1" fill-opacity="0.9"/>
    <circle r="5.76" fill="#fff" stroke="#111" stroke-width="1.5"/>
  </g>
</svg>