<?xml version="1.0" encoding="UTF-8"?>
<svg xmlns="http://www.w3.org/2000/svg" width="64" height="64" viewBox="-32 -32 64 64">
  <g>
    <path d="M 5.486417660180143e-16 -8.96 L 1.3872798940741216e-15 -22.656 A 22.656 22.656 0 0 1 2.897184975124168 -22.469994553179465 L 1.1457793686931739 -8.886438523856286 A 8.96 8.96 0 0 0 5.486417660180143e-16 -8.96 Z" fill="#4A0D19" stroke="#111" stroke-width="1" fill-opacity="0.9"/><path d="M 1.1457793686931739 -8.886438523856286 L 3.928386406948024 -30.467789224650122 A 30.72 30.72 0 1 1 -27.236330691778562 14.209176276198459 L -7.943929785102082 4.144343080557884 A 8.96 8.96 0 1 0 1.1457793686931739 -8.886438523856286 Z" fill="#A0AAE5" stroke="#111" stroke-width="1" fill-opacity="0.9"/><path d="M -7.943929785102082 4.144343080557884 L -20.08679388518669 10.479267503696363 A 22.656 22.656 0 0 1 -5.746798253053801 -21.91503241701225 L -2.272745071829187 -8.666961972829705 A 8.96 8.96 0 0 0 -7.943929785102082 4.144343080557884 Z" fill="#7B86C9" stroke="#111" stroke-width="1" fill-opacity="0.9"/><path d="M -2.272745071829187 -8.666961972829705 L -6.6054133130235195 -25.189303766797728 A 26.040977502618418 26.040977502618418 0 0 1 -4.783649961787482e-15 -26.040977502618418 L -1.6459252980540428e-15 -8.96 A 8.96 8.96 0 0 0 -2.272745071829187 -8.666961972829705 Z" fill="#7F142A" stroke="#111" stroke-width="1" fill-opacity="0.9"/>
    <circle r="5.76" fill="#fff" stroke="#111" stroke-width="1.5"/>
  </g>
</svg>