<?xml version="1.0" encoding="UTF-8"?>
<svg xmlns="http://www.w3.org/2000/svg" width="64" height="64" viewBox="-32 -32 64 64">
  <g>
    <path d="M 5.486417660180143e-16 -8.96 L 1.4446462658550789e-15 -23.592863948379204 A 23.592863948379204 23.592863948379204 0 0 1 2.242644297146827 -23.486033633698263 L 0.851702148005478 -8.91942842625484 A 8.96 8.96 0 0 0 5.486417660180143e-16 -8.96 Z" fill="#51BF7E" stroke="#111" stroke-width="1" fill-opacity="0.9"/><path d="M 0.851702148005478 -8.91942842625484 L 2.1535897170995657 -22.553411877815805 A 22.656 22.656 0 0 1 14.005009991814033 -17.808818914492594 L 5.538704516536624 -7.043035728895377 A 8.96 8.96 0 0 0 0.851702148005478 -8.91942842625484 Z" fill="#004F61" stroke="#111" stroke-width="1" fill-opacity="0.9"/><path d="M 5.538704516536624 -7.043035728895377 L 18.98984405669699 -24.14755107049843 A 30.72 30.72 0 0 1 -16.608485912235945 25.843308528573893 L -4.844141724402151 7.537631654167386 A 8.96 8.96 0 0 0 5.538704516536624 -7.043035728895377 Z" fill="#7F142A" stroke="#111" stroke-width="1" fill-opacity="0.9"/><path d="M -4.844141724402151 7.537631654167386 L -14.928720982462742 23.229543278387823 A 27.613011264523763 27.613011264523763 0 0 1 -20.868521509803163 18.082676823125468 L -6.771516186214152 5.867552176149759 A 8.96 8.96 0 0 0 -4.844141724402151 7.537631654167386 Z" fill="#A0AAE5" stroke="#111" stroke-width="1" fill-opacity="0.9"/><path d="M -6.771516186214152 5.867552176149759 L -17.122262356570065 14.836524788264388 A 22.656 22.656 0 0 1 -4.1618396822223646e-15 -22.656 L -1.6459252980540428e-15 -8.96 A 8.96 8.96 0 0 0 -6.771516186214152 5.867552176149759 Z" fill="#7B86C9" stroke="#111" stroke-width="1" fill-opacity="0.9"/>
    <circle r="5.76" fill="#fff" stroke="#111" stroke-width="1.5"/>
  </g>
</svg>