<?xml version="1.0" encoding="UTF-8"?>
<svg xmlns="http://www.w3.org/2000/svg" width="64" height="64" viewBox="-32 -32 64 64">
  <g>
    <path d="M 5.486417660180143e-16 -8.96 L 1.3872798940741216e-15 -22.656 A 22.656 22.656 0 0 1 17.122262356570076 -14.836524788264379 L 6.771516186214154 -5.867552176149755 A 8.96 8.96 0 0 0 5.486417660180143e-16 -8.96 Z" fill="#4A0D19" stroke="#111" stroke-width="1" fill-opacity="0.9"/><path d="M 6.771516186214154 -5.867552176149755 L 23.216626924162814 -20.117321746799156 A 30.72 30.72 0 1 1 -27.943894897290797 12.76154919941797 L -8.150302678376484 3.722118516496909 A 8.96 8.96 0 1 0 6.771516186214154 -5.867552176149755 Z" fill="#A0AAE5" stroke="#111" stroke-width="1" fill-opacity="0.9"/><path d="M -8.150302678376484 3.722118516496909 L -27.302472637974393 12.468621468693444 A 30.014855213325674 30.014855213325674 0 0 1 -3.217218612548024e-14 -30.014855213325674 L -9.604003938567165e-15 -8.96 A 8.96 8.96 0 0 0 -8.150302678376484 3.722118516496909 Z" fill="#7F142A" stroke="#111" stroke-width="1" fill-opacity="0.9"/>
    <circle r="5.76" fill="#fff" stroke="#111" stroke-width="1.5"/>
  </g>
</svg>