<?xml version="1.0" encoding="UTF-8"?>
<svg xmlns="http://www.w3.org/2000/svg" width="64" height="64" viewBox="-32 -32 64 64">
  <g>
    <path d="M 5.486417660180143e-16 -8.96 L 1.5946736122696722e-15 -26.042996452200686 A 26.042996452200686 26.042996452200686 0 0 1 8.907229379211563 -24.472411589286576 L 3.064500484197993 -8.41964588224174 A 8.96 8.96 0 0 0 5.486417660180143e-16 -8.96 Z" fill="#51BF7E" stroke="#111" stroke-width="1" fill-opacity="0.9"/><path d="M 3.064500484197993 -8.41964588224174 L 10.461310193737999 -28.7422135352056 A 30.58682477592211 30.58682477592211 0 0 1 -8.430871504073044 29.40194305747108 L -2.469710708120312 8.612904795607339 A 8.96 8.96 0 0 0 3.064500484197993 -8.41964588224174 Z" fill="#A0AAE5" stroke="#111" stroke-width="1" fill-opacity="0.9"/><path d="M -2.469710708120312 8.612904795607339 L -8.467579570698211 29.529959299225155 A 30.72 30.72 0 0 1 -6.3870471419215535 -30.04869429454251 L -1.8628887497271203 -8.7642025025749 A 8.96 8.96 0 0 0 -2.469710708120312 8.612904795607339 Z" fill="#7F142A" stroke="#111" stroke-width="1" fill-opacity="0.9"/><path d="M -1.8628887497271203 -8.7642025025749 L -4.710447267167146 -22.1609120422251 A 22.656 22.656 0 0 1 1.5960730594503672e-14 -22.656 L 6.31215334245908e-15 -8.96 A 8.96 8.96 0 0 0 -1.8628887497271203 -8.7642025025749 Z" fill="#004F61" stroke="#111" stroke-width="1" fill-opacity="0.9"/>
    <circle r="5.76" fill="#fff" stroke="#111" stroke-width="1.5"/>
  </g>
</svg>