<?xml version="1.0" encoding="UTF-8"?>
<svg xmlns="http://www.w3.org/2000/svg" width="64" height="64" viewBox="-32 -32 64 64">
  <g>
    <path d="M 5.486417660180143e-16 -8.96 L 1.7590662394545174e-15 -28.727731794657004 A 28.727731794657004 28.727731794657004 0 0 1 7.43528411105445 -27.748858071164804 L 2.319018644118586 -8.654695403550052 A 8.96 8.96 0 0 0 5.486417660180143e-16 -8.96 Z" fill="#A0AAE5" stroke="#111" stroke-width="1" fill-opacity="0.9"/><path d="M 2.319018644118586 -8.654695403550052 L 7.950921065549437 -29.67324138360018 A 30.72 30.72 0 0 1 29.673241383600175 -7.950921065549442 L 8.654695403550052 -2.3190186441185876 A 8.96 8.96 0 0 0 2.319018644118586 -8.654695403550052 Z" fill="#7F142A" stroke="#111" stroke-width="1" fill-opacity="0.9"/><path d="M 8.654695403550052 -2.3190186441185876 L 21.88401552040513 -5.863804285842713 A 22.656 22.656 0 1 1 -4.1618396822223646e-15 -22.656 L -1.6459252980540428e-15 -8.96 A 8.96 8.96 0 1 0 8.654695403550052 -2.3190186441185876 Z" fill="#004F61" stroke="#111" stroke-width="1" fill-opacity="0.9"/>
    <circle r="5.76" fill="#fff" stroke="#111" stroke-width="1.5"/>
  </g>
</svg>