<?xml version="1.0" encoding="UTF-8"?>
<svg xmlns="http://www.w3.org/2000/svg" width="64" height="64" viewBox="-32 -32 64 64">
  <g>
    <path d="M 5.486417660180143e-16 -8.96 L 1.6355709118732154e-15 -26.71090004092549 A 26.71090004092549 26.71090004092549 0 0 1 17.633257307054254 -20.063409923029813 L 5.914963001214237 -6.730142100599859 A 8.96 8.96 0 0 0 5.486417660180143e-16 -8.96 Z" fill="#51BF7E" stroke="#111" stroke-width="1" fill-opacity="0.9"/><path d="M 5.914963001214237 -6.730142100599859 L 17.18490718090359 -19.553269781967828 A 26.03173820517347 26.03173820517347 0 0 1 20.821205825288043 -15.624621018241664 L 7.166559632867886 -5.37791995371338 A 8.96 8.96 0 0 0 5.914963001214237 -6.730142100599859 Z" fill="#7F142A" stroke="#111" stroke-width="1" fill-opacity="0.9"/><path d="M 7.166559632867886 -5.37791995371338 L 24.571061598404178 -18.43858269844587 A 30.72 30.72 0 0 1 -16.487307079421964 25.92078519776826 L -4.80879789816474 7.560229016015744 A 8.96 8.96 0 0 0 7.166559632867886 -5.37791995371338 Z" fill="#A0AAE5" stroke="#111" stroke-width="1" fill-opacity="0.9"/><path d="M -4.80879789816474 7.560229016015744 L -12.159388971073698 19.116579083354093 A 22.656 22.656 0 0 1 -4.1618396822223646e-15 -22.656 L -1.6459252980540428e-15 -8.96 A 8.96 8.96 0 0 0 -4.80879789816474 7.560229016015744 Z" fill="#7B86C9" stroke="#111" stroke-width="1" fill-opacity="0.9"/>
    <circle r="5.76" fill="#fff" stroke="#111" stroke-width="1.5"/>
  </g>
</svg>