<?xml version="1.0" encoding="UTF-8"?>
<svg xmlns="http://www.w3.org/2000/svg" width="64" height="64" viewBox="-32 -32 64 64">
  <g>
    <path d="M 5.486417660180143e-16 -8.96 L 1.5533281272409498e-15 -25.367773440022663 A 25.367773440022663 25.367773440022663 0 0 1 4.429424458046756 -24.978072949584732 L 1.5644906021386906 -8.82235621338312 A 8.96 8.96 0 0 0 5.486417660180143e-16 -8.96 Z" fill="#51BF7E" stroke="#111" stroke-width="1" fill-opacity="0.9"/><path d="M 1.5644906021386906 -8.82235621338312 L 5.1380275803838185 -28.973973692374148 A 29.4260170417808 29.4260170417808 0 0 1 29.25384122875347 -3.178561357919273 L 8.907573764993936 -0.9678479328860318 A 8.96 8.96 0 0 0 1.5644906021386906 -8.82235621338312 Z" fill="#A0AAE5" stroke="#111" stroke-width="1" fill-opacity="0.9"/><path d="M 8.907573764993936 -0.9678479328860318 L 30.540252908550634 -3.318335769894966 A 30.72 30.72 0 1 1 -5.643172450471003e-15 -30.72 L -1.6459252980540428e-15 -8.96 A 8.96 8.96 0 1 0 8.907573764993936 -0.9678479328860318 Z" fill="#7F142A" stroke="#111" stroke-width="1" fill-opacity="0.9"/>
    <circle r="5.76" fill="#fff" stroke="#111" stroke-width="1.5"/>
  </g>
</svg>