<?xml version="1.0" encoding="UTF-8"?>
<svg xmlns="http://www.w3.org/2000/svg" width="64" height="64" viewBox="-32 -32 64 64">
  <g>
    <path d="M 5.486417660180143e-16 -8.96 L 1.8810574834903343e-15 -30.72 A 30.72 30.72 0 1 1 -8.487989230105507 29.524099289048817 L -2.4756635254474397 8.611195625972572 A 8.96 8.96 0 1 0 5.486417660180143e-16 -8.96 Z" fill="#7F142A" stroke="#111" stroke-width="1" fill-opacity="0.9"/><path d="M -2.4756635254474397 8.611195625972572 L -8.15588510265303 28.368928733644147 A 29.518038202127492 29.518038202127492 0 0 1 -20.045292596805083 -21.667967694519238 L -6.084612413518341 -6.577164417684761 A 8.96 8.96 0 0 0 -2.4756635254474397 8.611195625972572 Z" fill="#A0AAE5" stroke="#111" stroke-width="1" fill-opacity="0.9"/><path d="M -6.084612413518341 -6.577164417684761 L -15.38537710275352 -16.630830027574323 A 22.656 22.656 0 0 1 -12.032400692420829 -19.1967619555234 L -4.758576545025187 -7.591939756421685 A 8.96 8.96 0 0 0 -6.084612413518341 -6.577164417684761 Z" fill="#7B86C9" stroke="#111" stroke-width="1" fill-opacity="0.9"/><path d="M -4.758576545025187 -7.591939756421685 L -14.062364586693107 -22.435411885225168 A 26.47825153269723 26.47825153269723 0 0 1 -4.8639758979804235e-15 -26.47825153269723 L -1.6459252980540428e-15 -8.96 A 8.96 8.96 0 0 0 -4.758576545025187 -7.591939756421685 Z" fill="#51BF7E" stroke="#111" stroke-width="1" fill-opacity="0.9"/>
    <circle r="5.76" fill="#fff" stroke="#111" stroke-width="1.5"/>
  </g>
</svg>