<?xml version="1.0" encoding="UTF-8"?>
<svg xmlns="http://www.w3.org/2000/svg" width="64" height="64" viewBox="-32 -32 64 64">
  <g>
    <path d="M 5.486417660180143e-16 -8.96 L 1.8810574834903343e-15 -30.72 A 30.72 30.72 0 1 1 -6.5091956157548845 30.022471124739837 L -1.8985153879285082 8.75655407804912 A 8.96 8.96 0 1 0 5.486417660180143e-16 -8.96 Z" fill="#7F142A" stroke="#111" stroke-width="1" fill-opacity="0.9"/><path d="M -1.8985153879285082 8.75655407804912 L -6.504904195684183 30.002677736622125 A 30.699746741017762 30.699746741017762 0 0 1 -5.586911880097227 -30.187097667822574 L -1.6305909904718516 -8.810378710463702 A 8.96 8.96 0 0 0 -1.8985153879285082 8.75655407804912 Z" fill="#A0AAE5" stroke="#111" stroke-width="1" fill-opacity="0.9"/><path d="M -1.6305909904718516 -8.810378710463702 L -4.1230657901931105 -22.2776718821725 A 22.656 22.656 0 0 1 -4.1618396822223646e-15 -22.656 L -1.6459252980540428e-15 -8.96 A 8.96 8.96 0 0 0 -1.6305909904718516 -8.810378710463702 Z" fill="#7B86C9" stroke="#111" stroke-width="1" fill-opacity="0.9"/>
    <circle r="5.76" fill="#fff" stroke="#111" stroke-width="1.5"/>
  </g>
</svg>