<?xml version="1.0" encoding="UTF-8"?>
<svg xmlns="http://www.w3.org/2000/svg" width="64" height="64" viewBox="-32 -32 64 64">
  <g>
    <path d="M 5.486417660180143e-16 -8.96 L 1.3872798940741216e-15 -22.656 A 22.656 22.656 0 0 1 0.5865492082646372 -22.64840603720898 L 0.23196861343799216 -8.956996737879258 A 8.96 8.96 0 0 0 5.486417660180143e-16 -8.96 Z" fill="#4A0D19" stroke="#111" stroke-width="1" fill-opacity="0.9"/><path d="M 0.23196861343799216 -8.956996737879258 L 0.7953209603588302 -30.70970310130031 A 30.72 30.72 0 1 1 -27.07698241057325 14.510528024076406 L -7.897453203083866 4.232237340355619 A 8.96 8.96 0 1 0 0.23196861343799216 -8.956996737879258 Z" fill="#A0AAE5" stroke="#111" stroke-width="1" fill-opacity="0.9"/><path d="M -7.897453203083866 4.232237340355619 L -19.969274527797772 10.701514417756348 A 22.656 22.656 0 0 1 -22.087966778391394 5.041434279714261 L -8.735354093149141 1.9937875682485782 A 8.96 8.96 0 0 0 -7.897453203083866 4.232237340355619 Z" fill="#7B86C9" stroke="#111" stroke-width="1" fill-opacity="0.9"/><path d="M -8.735354093149141 1.9937875682485782 L -29.04167606336814 6.6285730468164 A 29.78853687589558 29.78853687589558 0 0 1 -1.0281852785126802 -29.770787094728295 L -0.3092646051685828 -8.954661099337592 A 8.96 8.96 0 0 0 -8.735354093149141 1.9937875682485782 Z" fill="#7F142A" stroke="#111" stroke-width="1" fill-opacity="0.9"/><path d="M -0.3092646051685828 -8.954661099337592 L -0.7819976444977021 -22.642500208325053 A 22.656 22.656 0 0 1 -4.1618396822223646e-15 -22.656 L -1.6459252980540428e-15 -8.96 A 8.96 8.96 0 0 0 -0.3092646051685828 -8.954661099337592 Z" fill="#e0e0e0" stroke="#111" stroke-width="1" fill-opacity="0.9"/>
    <circle r="5.76" fill="#fff" stroke="#111" stroke-width="1.5"/>
  </g>
</svg>