<?xml version="1.0" encoding="UTF-8"?>
<svg xmlns="http://www.w3.org/2000/svg" width="64" height="64" viewBox="-32 -32 64 64">
  <g>
    <path d="M 5.486417660180143e-16 -8.96 L 1.3872798940741216e-15 -22.656 A 22.656 22.656 0 0 1 3.729055037400309 -22.347001689892075 L 1.4747675289153765 -8.837797278488393 A 8.96 8.96 0 0 0 5.486417660180143e-16 -8.96 Z" fill="#004F61" stroke="#111" stroke-width="1" fill-opacity="0.9"/><path d="M 1.4747675289153765 -8.837797278488393 L 3.729055037400309 -22.347001689892075 A 22.656 22.656 0 0 1 18.966843731515844 -12.391657470421702 L 7.501011645232256 -4.9006554967769445 A 8.96 8.96 0 0 0 1.4747675289153765 -8.837797278488393 Z" fill="#4A0D19" stroke="#111" stroke-width="1" fill-opacity="0.9"/><path d="M 7.501011645232256 -4.9006554967769445 L 25.717754212224875 -16.802247417520952 A 30.72 30.72 0 1 1 -30.615075625164895 2.5368374929100597 L -8.929397057339763 0.7399109354321008 A 8.96 8.96 0 1 0 7.501011645232256 -4.9006554967769445 Z" fill="#7F142A" stroke="#111" stroke-width="1" fill-opacity="0.9"/><path d="M -8.929397057339763 0.7399109354321008 L -28.6394140215097 2.373129505027919 A 28.73756738388064 28.73756738388064 0 0 1 -13.677570278585241 -25.273936187650747 L -4.264488641612185 -7.88008481081014 A 8.96 8.96 0 0 0 -8.929397057339763 0.7399109354321008 Z" fill="#A0AAE5" stroke="#111" stroke-width="1" fill-opacity="0.9"/><path d="M -4.264488641612185 -7.88008481081014 L -10.783064136647951 -19.92535730733421 A 22.656 22.656 0 0 1 -2.42844099589484e-14 -22.656 L -9.604003938567165e-15 -8.96 A 8.96 8.96 0 0 0 -4.264488641612185 -7.88008481081014 Z" fill="#e0e0e0" stroke="#111" stroke-width="1" fill-opacity="0.9"/>
    <circle r="5.76" fill="#fff" stroke="#111" stroke-width="1.5"/>
  </g>
</svg>