<?xml version="1.0" encoding="UTF-8"?>
<svg xmlns="http://www.w3.org/2000/svg" width="64" height="64" viewBox="-32 -32 64 64">
  <g>
    <path d="M 5.486417660180143e-16 -8.96 L 1.3872798940741216e-15 -22.656 A 22.656 22.656 0 0 1 18.81507111776775 -12.620912599069124 L 7.440988577648264 -4.991321366863496 A 8.96 8.96 0 0 0 5.486417660180143e-16 -8.96 Z" fill="#e0e0e0" stroke="#111" stroke-width="1" fill-opacity="0.9"/><path d="M 7.440988577648264 -4.991321366863496 L 25.51196083765119 -17.11310182924627 A 30.72 30.72 0 1 1 -30.691295311535043 1.3277018114572503 L -8.951627799197723 0.38724636167503135 A 8.96 8.96 0 1 0 7.440988577648264 -4.991321366863496 Z" fill="#7F142A" stroke="#111" stroke-width="1" fill-opacity="0.9"/><path d="M -8.951627799197723 0.38724636167503135 L -24.76950752031929 1.0715259707944553 A 24.792673730464024 24.792673730464024 0 0 1 -24.790099350708154 -0.3572742465671254 L -8.95906962666216 -0.12911787103090838 A 8.96 8.96 0 0 0 -8.951627799197723 0.38724636167503135 Z" fill="#A0AAE5" stroke="#111" stroke-width="1" fill-opacity="0.9"/><path d="M -8.95906962666216 -0.12911787103090838 L -22.65364748456003 -0.32648375960672543 A 22.656 22.656 0 0 1 -21.626416733983298 -6.752217061683304 L -8.552820177281532 -2.670368329479273 A 8.96 8.96 0 0 0 -8.95906962666216 -0.12911787103090838 Z" fill="#4A0D19" stroke="#111" stroke-width="1" fill-opacity="0.9"/><path d="M -8.552820177281532 -2.670368329479273 L -21.626416733983298 -6.752217061683304 A 22.656 22.656 0 0 1 -4.1618396822223646e-15 -22.656 L -1.6459252980540428e-15 -8.96 A 8.96 8.96 0 0 0 -8.552820177281532 -2.670368329479273 Z" fill="#004F61" stroke="#111" stroke-width="1" fill-opacity="0.9"/>
    <circle r="5.76" fill="#fff" stroke="#111" stroke-width="1.5"/>
  </g>
</svg>