<?xml version="1.0" encoding="UTF-8"?>
<svg xmlns="http://www.w3.org/2000/svg" width="64" height="64" viewBox="-32 -32 64 64">
  <g>
    <path d="M 5.486417660180143e-16 -8.96 L 1.5851498010762165e-15 -25.887460812045717 A 25.887460812045717 25.887460812045717 0 0 1 3.634937558085538 -25.630994054933215 L 1.2581010071598717 -8.871233389770744 A 8.96 8.96 0 0 0 5.486417660180143e-16 -8.96 Z" fill="#51BF7E" stroke="#111" stroke-width="1" fill-opacity="0.9"/><path d="M 1.2581010071598717 -8.871233389770744 L 4.313489167405273 -30.415657336356833 A 30.72 30.72 0 1 1 -17.49202250391812 25.25366406528807 L -5.101839896976118 7.365652019042355 A 8.96 8.96 0 1 0 1.2581010071598717 -8.871233389770744 Z" fill="#7F142A" stroke="#111" stroke-width="1" fill-opacity="0.9"/><path d="M -5.101839896976118 7.365652019042355 L -16.60803525624264 23.97742988563305 A 29.167515817996012 29.167515817996012 0 0 1 -28.383055537927227 6.7190875365622516 L -8.719020817772913 2.0640435991622303 A 8.96 8.96 0 0 0 -5.101839896976118 7.365652019042355 Z" fill="#A0AAE5" stroke="#111" stroke-width="1" fill-opacity="0.9"/><path d="M -8.719020817772913 2.0640435991622303 L -22.046666924940077 5.219081672167354 A 22.656 22.656 0 0 1 -5.063658307161304 -22.082882523536554 L -2.0025767316457137 -8.733343370890164 A 8.96 8.96 0 0 0 -8.719020817772913 2.0640435991622303 Z" fill="#7B86C9" stroke="#111" stroke-width="1" fill-opacity="0.9"/><path d="M -2.0025767316457137 -8.733343370890164 L -5.063658307161304 -22.082882523536554 A 22.656 22.656 0 0 1 -2.42844099589484e-14 -22.656 L -9.604003938567165e-15 -8.96 A 8.96 8.96 0 0 0 -2.0025767316457137 -8.733343370890164 Z" fill="#4A0D19" stroke="#111" stroke-width="1" fill-opacity="0.9"/>
    <circle r="5.76" fill="#fff" stroke="#111" stroke-width="1.5"/>
  </g>
</svg>