<?xml version="1.0" encoding="UTF-8"?>
<svg xmlns="http://www.w3.org/2000/svg" width="64" height="64" viewBox="-32 -32 64 64">
  <g>
    <path d="M 5.486417660180143e-16 -8.96 L 1.8099687342271667e-15 -29.559032620463917 A 29.559032620463917 29.559032620463917 0 1 1 -18.429755391668877 23.110182293978166 L -5.586468624654249 7.005210082913551 A 8.96 8.96 0 1 0 5.486417660180143e-16 -8.96 Z" fill="#A0AAE5" stroke="#111" stroke-width="1" fill-opacity="0.9"/><path d="M -5.586468624654249 7.005210082913551 L -14.125784950911457 17.71317406679569 A 22.656 22.656 0 0 1 -17.71317406679568 14.125784950911468 L -7.005210082913547 5.586468624654254 A 8.96 8.96 0 0 0 -5.586468624654249 7.005210082913551 Z" fill="#7B86C9" stroke="#111" stroke-width="1" fill-opacity="0.9"/><path d="M -7.005210082913547 5.586468624654254 L -24.01786314141787 19.153606713100295 A 30.72 30.72 0 0 1 -5.643172450471003e-15 -30.72 L -1.6459252980540428e-15 -8.96 A 8.96 8.96 0 0 0 -7.005210082913547 5.586468624654254 Z" fill="#7F142A" stroke="#111" stroke-width="1" fill-opacity="0.9"/>
    <circle r="5.76" fill="#fff" stroke="#111" stroke-width="1.5"/>
  </g>
</svg>