<?xml version="1.0" encoding="UTF-8"?>
<svg xmlns="http://www.w3.org/2000/svg" width="64" height="64" viewBox="-32 -32 64 64">
  <g>
    <path d="M 5.486417660180143e-16 -8.96 L 1.6864944014687986e-15 -27.542543738210913 A 27.542543738210913 27.542543738210913 0 0 1 20.297568938518165 -18.617207383422567 L 6.603101711219658 -6.056455051536999 A 8.96 8.96 0 0 0 5.486417660180143e-16 -8.96 Z" fill="#A0AAE5" stroke="#111" stroke-width="1" fill-opacity="0.9"/><path d="M 6.603101711219658 -6.056455051536999 L 22.639205867038825 -20.76498874812685 A 30.72 30.72 0 1 1 -30.715423458534893 0.5302468886135321 L -8.958665175406011 0.15465534251228022 A 8.96 8.96 0 1 0 6.603101711219658 -6.056455051536999 Z" fill="#7F142A" stroke="#111" stroke-width="1" fill-opacity="0.9"/><path d="M -8.958665175406011 0.15465534251228022 L -22.652624800669486 0.3910570803524799 A 22.656 22.656 0 0 1 -7.667086736711629 -21.31924287989 L -3.0321811953096844 -8.431338992046895 A 8.96 8.96 0 0 0 -8.958665175406011 0.15465534251228022 Z" fill="#004F61" stroke="#111" stroke-width="1" fill-opacity="0.9"/><path d="M -3.0321811953096844 -8.431338992046895 L -8.364422931863691 -23.258268773806186 A 24.716606509342967 24.716606509342967 0 0 1 -5.083214899324692 -24.18825259552617 L -1.8427127316499876 -8.76846678665176 A 8.96 8.96 0 0 0 -3.0321811953096844 -8.431338992046895 Z" fill="#51BF7E" stroke="#111" stroke-width="1" fill-opacity="0.9"/><path d="M -1.8427127316499876 -8.76846678665176 L -4.659430764314968 -22.17169458910516 A 22.656 22.656 0 0 1 1.5960730594503672e-14 -22.656 L 6.31215334245908e-15 -8.96 A 8.96 8.96 0 0 0 -1.8427127316499876 -8.76846678665176 Z" fill="#e0e0e0" stroke="#111" stroke-width="1" fill-opacity="0.9"/>
    <circle r="5.76" fill="#fff" stroke="#111" stroke-width="1.5"/>
  </g>
</svg>