<?xml version="1.0" encoding="UTF-8"?>
<svg xmlns="http://www.w3.org/2000/svg" width="64" height="64" viewBox="-32 -32 64 64">
  <g>
    <path d="M 5.486417660180143e-16 -8.96 L 1.866249347706181e-15 -30.47816479013437 A 30.47816479013437 30.47816479013437 0 1 1 -10.424146289825108 28.640106548386164 L -3.064500484197992 8.41964588224174 A 8.96 8.96 0 1 0 5.486417660180143e-16 -8.96 Z" fill="#7F142A" stroke="#111" stroke-width="1" fill-opacity="0.9"/><path d="M -3.064500484197992 8.41964588224174 L -10.506858802964542 28.867357310543106 A 30.72 30.72 0 0 1 -24.64122448143495 -18.344711937109583 L -7.187023807085194 -5.3505409816569625 A 8.96 8.96 0 0 0 -3.064500484197992 8.41964588224174 Z" fill="#A0AAE5" stroke="#111" stroke-width="1" fill-opacity="0.9"/><path d="M -7.187023807085194 -5.3505409816569625 L -18.172903055058274 -13.529225053618317 A 22.656 22.656 0 0 1 -4.1618396822223646e-15 -22.656 L -1.6459252980540428e-15 -8.96 A 8.96 8.96 0 0 0 -7.187023807085194 -5.3505409816569625 Z" fill="#7B86C9" stroke="#111" stroke-width="1" fill-opacity="0.9"/>
    <circle r="5.76" fill="#fff" stroke="#111" stroke-width="1.5"/>
  </g>
</svg>