<?xml version="1.0" encoding="UTF-8"?>
<svg xmlns="http://www.w3.org/2000/svg" width="64" height="64" viewBox="-32 -32 64 64">
  <g>
    <path d="M 5.486417660180143e-16 -8.96 L 1.3872798940741216e-15 -22.656 A 22.656 22.656 0 0 1 5.634318083606948 -21.944220098530266 L 2.228261388997099 -8.678505123712535 A 8.96 8.96 0 0 0 5.486417660180143e-16 -8.96 Z" fill="#004F61" stroke="#111" stroke-width="1" fill-opacity="0.9"/><path d="M 2.228261388997099 -8.678505123712535 L 5.634318083606948 -21.944220098530266 A 22.656 22.656 0 0 1 10.914611240448464 -19.853604143073774 L 4.3165129199513705 -7.851707853193019 A 8.96 8.96 0 0 0 2.228261388997099 -8.678505123712535 Z" fill="#4A0D19" stroke="#111" stroke-width="1" fill-opacity="0.9"/><path d="M 4.3165129199513705 -7.851707853193019 L 14.799472868404695 -26.920141210947488 A 30.72 30.72 0 0 1 11.3087862584733 28.562733646487086 L 3.2983959920547123 8.330797313558735 A 8.96 8.96 0 0 0 4.3165129199513705 -7.851707853193019 Z" fill="#7F142A" stroke="#111" stroke-width="1" fill-opacity="0.9"/><path d="M 3.2983959920547123 8.330797313558735 L 11.291632509966654 28.519408223366018 A 30.673402324344995 30.673402324344995 0 0 1 -23.634262691897504 -19.551962488750707 L -6.903798655271076 -5.711318948148256 A 8.96 8.96 0 0 0 3.2983959920547123 8.330797313558735 Z" fill="#A0AAE5" stroke="#111" stroke-width="1" fill-opacity="0.9"/><path d="M -6.903798655271076 -5.711318948148256 L -20.17993651119841 -16.6942953472201 A 26.190252666521054 26.190252666521054 0 0 1 -9.641275047561773 -24.351081088803344 L -3.2983959920547203 -8.330797313558731 A 8.96 8.96 0 0 0 -6.903798655271076 -5.711318948148256 Z" fill="#51BF7E" stroke="#111" stroke-width="1" fill-opacity="0.9"/><path d="M -3.2983959920547203 -8.330797313558731 L -8.340229865624078 -21.065016064284215 A 22.656 22.656 0 0 1 -2.42844099589484e-14 -22.656 L -9.604003938567165e-15 -8.96 A 8.96 8.96 0 0 0 -3.2983959920547203 -8.330797313558731 Z" fill="#e0e0e0" stroke="#111" stroke-width="1" fill-opacity="0.9"/>
    <circle r="5.76" fill="#fff" stroke="#111" stroke-width="1.5"/>
  </g>
</svg>