<?xml version="1.0" encoding="UTF-8"?>
<svg xmlns="http://www.w3.org/2000/svg" width="64" height="64" viewBox="-32 -32 64 64">
  <g>
    <path d="M 5.486417660180143e-16 -8.96 L 1.7712511876523422e-15 -28.926727100181967 A 28.926727100181967 28.926727100181967 0 0 1 25.05128051709735 -14.463363550090984 L 7.75958761790857 -4.48 A 8.96 8.96 0 0 0 5.486417660180143e-16 -8.96 Z" fill="#A0AAE5" stroke="#111" stroke-width="1" fill-opacity="0.9"/><path d="M 7.75958761790857 -4.48 L 23.587491459745337 -13.61824454379197 A 27.23648908758394 27.23648908758394 0 0 1 26.822705618285067 4.72956669610418 L 8.823877466989385 1.5558876718956942 A 8.96 8.96 0 0 0 7.75958761790857 -4.48 Z" fill="#7F142A" stroke="#111" stroke-width="1" fill-opacity="0.9"/><path d="M 8.823877466989385 1.5558876718956942 L 30.253294172535032 5.334472017928094 A 30.72 30.72 0 1 1 -5.643172450471003e-15 -30.72 L -1.6459252980540428e-15 -8.96 A 8.96 8.96 0 1 0 8.823877466989385 1.5558876718956942 Z" fill="#51BF7E" stroke="#111" stroke-width="1" fill-opacity="0.9"/>
    <circle r="5.76" fill="#fff" stroke="#111" stroke-width="1.5"/>
  </g>
</svg>