<?xml version="1.0" encoding="UTF-8"?>
<svg xmlns="http://www.w3.org/2000/svg" width="64" height="64" viewBox="-32 -32 64 64">
  <g>
    <path d="M 5.486417660180143e-16 -8.96 L 1.8588706764639003e-15 -30.357661943968147 A 30.357661943968147 30.357661943968147 0 0 1 30.320681209167702 1.497975205494548 L 8.94908521399232 0.4421242276827574 A 8.96 8.96 0 0 0 5.486417660180143e-16 -8.96 Z" fill="#7F142A" stroke="#111" stroke-width="1" fill-opacity="0.9"/><path d="M 8.94908521399232 0.4421242276827574 L 30.68257787654509 1.5158544949123107 A 30.72 30.72 0 0 1 -29.133667737973912 9.744116385457332 L -8.497319756909059 2.842033945758389 A 8.96 8.96 0 0 0 8.94908521399232 0.4421242276827574 Z" fill="#A0AAE5" stroke="#111" stroke-width="1" fill-opacity="0.9"/><path d="M -8.497319756909059 2.842033945758389 L -21.48607995675576 7.186285834274782 A 22.656 22.656 0 0 1 -13.21457644579002 -18.402970014602847 L -5.2261036791259965 -7.2780107402384155 A 8.96 8.96 0 0 0 -8.497319756909059 2.842033945758389 Z" fill="#7B86C9" stroke="#111" stroke-width="1" fill-opacity="0.9"/><path d="M -5.2261036791259965 -7.2780107402384155 L -13.21457644579002 -18.402970014602847 A 22.656 22.656 0 0 1 -12.07279098583697 -19.171386329952604 L -4.7745501073931536 -7.581904198286341 A 8.96 8.96 0 0 0 -5.2261036791259965 -7.2780107402384155 Z" fill="#004F61" stroke="#111" stroke-width="1" fill-opacity="0.9"/><path d="M -4.7745501073931536 -7.581904198286341 L -12.07279098583697 -19.171386329952604 A 22.656 22.656 0 0 1 -7.430578397081316 -21.402823194261742 L -2.9386468237044756 -8.464393353662837 A 8.96 8.96 0 0 0 -4.7745501073931536 -7.581904198286341 Z" fill="#4A0D19" stroke="#111" stroke-width="1" fill-opacity="0.9"/><path d="M -2.9386468237044756 -8.464393353662837 L -8.691200958733607 -25.0338839757938 A 26.499666432213775 26.499666432213775 0 0 1 -3.4782983651122388 -26.270397056417995 L -1.1760734208155879 -8.882480020177425 A 8.96 8.96 0 0 0 -2.9386468237044756 -8.464393353662837 Z" fill="#51BF7E" stroke="#111" stroke-width="1" fill-opacity="0.9"/><path d="M -1.1760734208155879 -8.882480020177425 L -2.973785649776558 -22.4599851938772 A 22.656 22.656 0 0 1 -4.1618396822223646e-15 -22.656 L -1.6459252980540428e-15 -8.96 A 8.96 8.96 0 0 0 -1.1760734208155879 -8.882480020177425 Z" fill="#e0e0e0" stroke="#111" stroke-width="1" fill-opacity="0.9"/>
    <circle r="5.76" fill="#fff" stroke="#111" stroke-width="1.5"/>
  </g>
</svg>