<?xml version="1.0" encoding="UTF-8"?>
<svg xmlns="http://www.w3.org/2000/svg" width="64" height="64" viewBox="-32 -32 64 64">
  <g>
    <path d="M 5.486417660180143e-16 -8.96 L 1.8810574834903343e-15 -30.72 A 30.72 30.72 0 1 1 -8.116082745485913 -29.628493057670443 L -2.3671908007667253 -8.641643808487213 A 8.96 8.96 0 1 0 5.486417660180143e-16 -8.96 Z" fill="#7F142A" stroke="#111" stroke-width="1" fill-opacity="0.9"/><path d="M -2.3671908007667253 -8.641643808487213 L -6.596296585417432 -24.08037642248984 A 24.96749201044419 24.96749201044419 0 0 1 -3.3278409933912605 -24.744719267235567 L -1.1942511201490607 -8.88005429386683 A 8.96 8.96 0 0 0 -2.3671908007667253 -8.641643808487213 Z" fill="#A0AAE5" stroke="#111" stroke-width="1" fill-opacity="0.9"/><path d="M -1.1942511201490607 -8.88005429386683 L -3.0197492609483385 -22.453851571634694 A 22.656 22.656 0 0 1 -4.1618396822223646e-15 -22.656 L -1.6459252980540428e-15 -8.96 A 8.96 8.96 0 0 0 -1.1942511201490607 -8.88005429386683 Z" fill="#4A0D19" stroke="#111" stroke-width="1" fill-opacity="0.9"/>
    <circle r="5.76" fill="#fff" stroke="#111" stroke-width="1.5"/>
  </g>
</svg>