<?xml version="1.0" encoding="UTF-8"?>
<svg xmlns="http://www.w3.org/2000/svg" width="64" height="64" viewBox="-32 -32 64 64">
  <g>
    <path d="M 5.486417660180143e-16 -8.96 L 1.8810574834903343e-15 -30.72 A 30.72 30.72 0 0 1 1.8810574834903343e-15 30.72 L 5.486417660180143e-16 8.96 A 8.96 8.96 0 0 0 5.486417660180143e-16 -8.96 Z" fill="#51BF7E" stroke="#111" stroke-width="1" fill-opacity="0.9"/><path d="M 5.486417660180143e-16 8.96 L 1.7969839099472342e-15 29.346974347189153 A 29.346974347189153 29.346974347189153 0 0 1 -20.75144456820511 -20.751444568205102 L -6.335676759431468 -6.335676759431466 A 8.96 8.96 0 0 0 5.486417660180143e-16 8.96 Z" fill="#A0AAE5" stroke="#111" stroke-width="1" fill-opacity="0.9"/><path d="M -6.335676759431468 -6.335676759431466 L -21.221443748643154 -21.221443748643146 A 30.011653562468876 30.011653562468876 0 0 1 -5.513051320859515e-15 -30.011653562468876 L -1.6459252980540428e-15 -8.96 A 8.96 8.96 0 0 0 -6.335676759431468 -6.335676759431466 Z" fill="#7F142A" stroke="#111" stroke-width="1" fill-opacity="0.9"/>
    <circle r="5.76" fill="#fff" stroke="#111" stroke-width="1.5"/>
  </g>
</svg>