<?xml version="1.0" encoding="UTF-8"?>
<svg xmlns="http://www.w3.org/2000/svg" width="64" height="64" viewBox="-32 -32 64 64">
  <g>
    <path d="M 5.486417660180143e-16 -8.96 L 1.3872798940741216e-15 -22.656 A 22.656 22.656 0 0 1 7.356391174301311 -21.42843542796958 L 2.909307244073965 -8.474522485637687 A 8.96 8.96 0 0 0 5.486417660180143e-16 -8.96 Z" fill="#e0e0e0" stroke="#111" stroke-width="1" fill-opacity="0.9"/><path d="M 2.909307244073965 -8.474522485637687 L 7.356391174301311 -21.42843542796958 A 22.656 22.656 0 0 1 13.915603218697113 -17.878767380884693 L 5.503345905699424 -7.0706989641916875 A 8.96 8.96 0 0 0 2.909307244073965 -8.474522485637687 Z" fill="#004F61" stroke="#111" stroke-width="1" fill-opacity="0.9"/><path d="M 5.503345905699424 -7.0706989641916875 L 18.868614533826594 -24.24239644865721 A 30.72 30.72 0 1 1 -30.615075625164895 -2.536837492910052 L -8.929397057339763 -0.7399109354320987 A 8.96 8.96 0 1 0 5.503345905699424 -7.0706989641916875 Z" fill="#A0AAE5" stroke="#111" stroke-width="1" fill-opacity="0.9"/><path d="M -8.929397057339763 -0.7399109354320987 L -22.578618273559112 -1.8709176510211636 A 22.656 22.656 0 0 1 -18.96684373151585 -12.391657470421697 L -7.501011645232259 -4.900655496776943 A 8.96 8.96 0 0 0 -8.929397057339763 -0.7399109354320987 Z" fill="#7B86C9" stroke="#111" stroke-width="1" fill-opacity="0.9"/><path d="M -7.501011645232259 -4.900655496776943 L -23.40378973092768 -15.290458969382279 A 27.955956597187637 27.955956597187637 0 0 1 -5.135425914577226e-15 -27.955956597187637 L -1.6459252980540428e-15 -8.96 A 8.96 8.96 0 0 0 -7.501011645232259 -4.900655496776943 Z" fill="#7F142A" stroke="#111" stroke-width="1" fill-opacity="0.9"/>
    <circle r="5.76" fill="#fff" stroke="#111" stroke-width="1.5"/>
  </g>
</svg>