<?xml version="1.0" encoding="UTF-8"?>
<svg xmlns="http://www.w3.org/2000/svg" width="64" height="64" viewBox="-32 -32 64 64">
  <g>
    <path d="M 5.486417660180143e-16 -8.96 L 1.3872798940741216e-15 -22.656 A 22.656 22.656 0 0 1 15.091511377246213 -16.897947222974985 L 5.968394329984379 -6.682803986487284 A 8.96 8.96 0 0 0 5.486417660180143e-16 -8.96 Z" fill="#e0e0e0" stroke="#111" stroke-width="1" fill-opacity="0.9"/><path d="M 5.968394329984379 -6.682803986487284 L 15.091511377246213 -16.897947222974985 A 22.656 22.656 0 0 1 19.940114400921118 -10.755750725922308 L 7.885920949516827 -4.253686727765885 A 8.96 8.96 0 0 0 5.968394329984379 -6.682803986487284 Z" fill="#4A0D19" stroke="#111" stroke-width="1" fill-opacity="0.9"/><path d="M 7.885920949516827 -4.253686727765885 L 19.940114400921118 -10.755750725922308 A 22.656 22.656 0 0 1 19.353282918702934 11.77899725225544 L 7.653840702311896 4.658360495242265 A 8.96 8.96 0 0 0 7.885920949516827 -4.253686727765885 Z" fill="#004F61" stroke="#111" stroke-width="1" fill-opacity="0.9"/><path d="M 7.653840702311896 4.658360495242265 L 26.241739550783638 15.971521697973479 A 30.72 30.72 0 1 1 -1.0661916510776175 -30.701492396350577 L -0.31097256489763847 -8.954601948935586 A 8.96 8.96 0 1 0 7.653840702311896 4.658360495242265 Z" fill="#7F142A" stroke="#111" stroke-width="1" fill-opacity="0.9"/><path d="M -0.31097256489763847 -8.954601948935586 L -0.8506599758144093 -24.49515596276659 A 24.509922236406872 24.509922236406872 0 0 1 -2.6271583671029746e-14 -24.509922236406872 L -9.604003938567165e-15 -8.96 A 8.96 8.96 0 0 0 -0.31097256489763847 -8.954601948935586 Z" fill="#A0AAE5" stroke="#111" stroke-width="1" fill-opacity="0.9"/>
    <circle r="5.76" fill="#fff" stroke="#111" stroke-width="1.5"/>
  </g>
</svg>