<?xml version="1.0" encoding="UTF-8"?>
<svg xmlns="http://www.w3.org/2000/svg" width="64" height="64" viewBox="-32 -32 64 64">
  <g>
    <path d="M 5.486417660180143e-16 -8.96 L 1.3872798940741216e-15 -22.656 A 22.656 22.656 0 1 1 -9.8300699934474 -20.412350671197206 L -3.8875983024933225 -8.072681056405676 A 8.96 8.96 0 1 0 5.486417660180143e-16 -8.96 Z" fill="#7B86C9" stroke="#111" stroke-width="1" fill-opacity="0.9"/><path d="M -3.8875983024933225 -8.072681056405676 L -9.8300699934474 -20.412350671197206 A 22.656 22.656 0 0 1 -2.5366671705965467 -22.5135438273413 L -1.0032017058856402 -8.903661400643454 A 8.96 8.96 0 0 0 -3.8875983024933225 -8.072681056405676 Z" fill="#4A0D19" stroke="#111" stroke-width="1" fill-opacity="0.9"/><path d="M -1.0032017058856402 -8.903661400643454 L -2.5366671705965467 -22.5135438273413 A 22.656 22.656 0 0 1 -4.1618396822223646e-15 -22.656 L -1.6459252980540428e-15 -8.96 A 8.96 8.96 0 0 0 -1.0032017058856402 -8.903661400643454 Z" fill="#e0e0e0" stroke="#111" stroke-width="1" fill-opacity="0.9"/>
    <circle r="5.76" fill="#fff" stroke="#111" stroke-width="1.5"/>
  </g>
</svg>