<?xml version="1.0" encoding="UTF-8"?>
<svg xmlns="http://www.w3.org/2000/svg" width="64" height="64" viewBox="-32 -32 64 64">
  <g>
    <path d="M 5.486417660180143e-16 -8.96 L 1.3872798940741216e-15 -22.656 A 22.656 22.656 0 0 1 7.001089024558809 -21.547136433183 L 2.7687922695995293 -8.521466386004576 A 8.96 8.96 0 0 0 5.486417660180143e-16 -8.96 Z" fill="#004F61" stroke="#111" stroke-width="1" fill-opacity="0.9"/><path d="M 2.7687922695995293 -8.521466386004576 L 9.493002067198386 -29.216456180587116 A 30.72 30.72 0 0 1 30.72 0 L 8.96 0 A 8.96 8.96 0 0 0 2.7687922695995293 -8.521466386004576 Z" fill="#7F142A" stroke="#111" stroke-width="1" fill-opacity="0.9"/><path d="M 8.96 0 L 29.333719354360046 0 A 29.333719354360046 29.333719354360046 0 0 1 27.898024939137386 9.064617788722563 L 8.521466386004576 2.768792269599529 A 8.96 8.96 0 0 0 8.96 0 Z" fill="#A0AAE5" stroke="#111" stroke-width="1" fill-opacity="0.9"/><path d="M 8.521466386004576 2.768792269599529 L 25.477740872946885 8.278219825138603 A 26.788882086834946 26.788882086834946 0 0 1 21.67266086855608 15.746109816043592 L 7.24879226959953 5.26655586054056 A 8.96 8.96 0 0 0 8.521466386004576 2.768792269599529 Z" fill="#51BF7E" stroke="#111" stroke-width="1" fill-opacity="0.9"/><path d="M 7.24879226959953 5.26655586054056 L 18.329089024558808 13.316862675938271 A 22.656 22.656 0 1 1 -4.1618396822223646e-15 -22.656 L -1.6459252980540428e-15 -8.96 A 8.96 8.96 0 1 0 7.24879226959953 5.26655586054056 Z" fill="#e0e0e0" stroke="#111" stroke-width="1" fill-opacity="0.9"/>
    <circle r="5.76" fill="#fff" stroke="#111" stroke-width="1.5"/>
  </g>
</svg>