<?xml version="1.0" encoding="UTF-8"?>
<svg xmlns="http://www.w3.org/2000/svg" width="64" height="64" viewBox="-32 -32 64 64">
  <g>
    <path d="M 5.486417660180143e-16 -8.96 L 1.3872798940741216e-15 -22.656 A 22.656 22.656 0 1 1 -16.668560920210464 15.344491286752797 L -6.592086239631258 6.068442881766644 A 8.96 8.96 0 1 0 5.486417660180143e-16 -8.96 Z" fill="#e0e0e0" stroke="#111" stroke-width="1" fill-opacity="0.9"/><path d="M -6.592086239631258 6.068442881766644 L -16.668560920210464 15.344491286752797 A 22.656 22.656 0 0 1 -7.356391174301332 -21.42843542796957 L -2.9093072440739736 -8.474522485637683 A 8.96 8.96 0 0 0 -6.592086239631258 6.068442881766644 Z" fill="#4A0D19" stroke="#111" stroke-width="1" fill-opacity="0.9"/><path d="M -2.9093072440739736 -8.474522485637683 L -9.974767693967907 -29.055505665043484 A 30.72 30.72 0 0 1 -3.292801350365885e-14 -30.72 L -9.604003938567165e-15 -8.96 A 8.96 8.96 0 0 0 -2.9093072440739736 -8.474522485637683 Z" fill="#7F142A" stroke="#111" stroke-width="1" fill-opacity="0.9"/>
    <circle r="5.76" fill="#fff" stroke="#111" stroke-width="1.5"/>
  </g>
</svg>