<?xml version="1.0" encoding="UTF-8"?>
<svg xmlns="http://www.w3.org/2000/svg" width="64" height="64" viewBox="-32 -32 64 64">
  <g>
    <path d="M 5.486417660180143e-16 -8.96 L 1.8269678511925555e-15 -29.836649268418647 A 29.836649268418647 29.836649268418647 0 0 1 25.839296230256934 -14.918324634209323 L 7.75958761790857 -4.48 A 8.96 8.96 0 0 0 5.486417660180143e-16 -8.96 Z" fill="#A0AAE5" stroke="#111" stroke-width="1" fill-opacity="0.9"/><path d="M 7.75958761790857 -4.48 L 26.604300404257952 -15.36 A 30.72 30.72 0 1 1 -12.494949675288579 -28.064116458780703 L -3.6443603219591694 -8.185367300477706 A 8.96 8.96 0 1 0 7.75958761790857 -4.48 Z" fill="#7F142A" stroke="#111" stroke-width="1" fill-opacity="0.9"/><path d="M -3.6443603219591694 -8.185367300477706 L -9.215025385525326 -20.697285888350766 A 22.656 22.656 0 0 1 -2.3681968637919546 -22.5318880614636 L -0.9365750308781742 -8.910916182499731 A 8.96 8.96 0 0 0 -3.6443603219591694 -8.185367300477706 Z" fill="#4A0D19" stroke="#111" stroke-width="1" fill-opacity="0.9"/><path d="M -0.9365750308781742 -8.910916182499731 L -2.4617972684014426 -23.42243642398097 A 23.551453751862944 23.551453751862944 0 0 1 -4.3263318678728814e-15 -23.551453751862944 L -1.6459252980540428e-15 -8.96 A 8.96 8.96 0 0 0 -0.9365750308781742 -8.910916182499731 Z" fill="#51BF7E" stroke="#111" stroke-width="1" fill-opacity="0.9"/>
    <circle r="5.76" fill="#fff" stroke="#111" stroke-width="1.5"/>
  </g>
</svg>