<?xml version="1.0" encoding="UTF-8"?>
<svg xmlns="http://www.w3.org/2000/svg" width="64" height="64" viewBox="-32 -32 64 64">
  <g>
    <path d="M 5.486417660180143e-16 -8.96 L 1.3872798940741216e-15 -22.656 A 22.656 22.656 0 0 1 6.439868962414936 -21.721473793159724 L 2.5468408325934777 -8.590413364526446 A 8.96 8.96 0 0 0 5.486417660180143e-16 -8.96 Z" fill="#4A0D19" stroke="#111" stroke-width="1" fill-opacity="0.9"/><path d="M 2.5468408325934777 -8.590413364526446 L 6.439868962414936 -21.721473793159724 A 22.656 22.656 0 0 1 22.65364748456003 -0.32648375960673326 L 8.95906962666216 -0.1291178710309115 A 8.96 8.96 0 0 0 2.5468408325934777 -8.590413364526446 Z" fill="#004F61" stroke="#111" stroke-width="1" fill-opacity="0.9"/><path d="M 8.95906962666216 -0.1291178710309115 L 24.790099350708154 -0.35727424656713397 A 24.792673730464024 24.792673730464024 0 0 1 24.76950752031929 1.0715259707944578 L 8.951627799197723 0.38724636167503224 A 8.96 8.96 0 0 0 8.95906962666216 -0.1291178710309115 Z" fill="#A0AAE5" stroke="#111" stroke-width="1" fill-opacity="0.9"/><path d="M 8.951627799197723 0.38724636167503224 L 30.691295311535043 1.3277018114572532 A 30.72 30.72 0 1 1 -25.511960837651188 -17.113101829246272 L -7.440988577648263 -4.991321366863497 A 8.96 8.96 0 1 0 8.951627799197723 0.38724636167503224 Z" fill="#7F142A" stroke="#111" stroke-width="1" fill-opacity="0.9"/><path d="M -7.440988577648263 -4.991321366863497 L -18.81507111776775 -12.620912599069126 A 22.656 22.656 0 0 1 -4.1618396822223646e-15 -22.656 L -1.6459252980540428e-15 -8.96 A 8.96 8.96 0 0 0 -7.440988577648263 -4.991321366863497 Z" fill="#e0e0e0" stroke="#111" stroke-width="1" fill-opacity="0.9"/>
    <circle r="5.76" fill="#fff" stroke="#111" stroke-width="1.5"/>
  </g>
</svg>