<?xml version="1.0" encoding="UTF-8"?>
<svg xmlns="http://www.w3.org/2000/svg" width="64" height="64" viewBox="-32 -32 64 64">
  <g>
    <path d="M 5.486417660180143e-16 -8.96 L 1.3872798940741216e-15 -22.656 A 22.656 22.656 0 0 1 2.9572014109374916 -22.462174779285046 L 1.1695146822916636 -8.883345957909341 A 8.96 8.96 0 0 0 5.486417660180143e-16 -8.96 Z" fill="#e0e0e0" stroke="#111" stroke-width="1" fill-opacity="0.9"/><path d="M 1.1695146822916636 -8.883345957909341 L 2.9572014109374916 -22.462174779285046 A 22.656 22.656 0 0 1 16.02021123456242 -16.020211234562417 L 6.3356767594314665 -6.335676759431466 A 8.96 8.96 0 0 0 1.1695146822916636 -8.883345957909341 Z" fill="#4A0D19" stroke="#111" stroke-width="1" fill-opacity="0.9"/><path d="M 6.3356767594314665 -6.335676759431466 L 16.02021123456242 -16.020211234562417 A 22.656 22.656 0 0 1 17.974213277638224 -13.792098935621574 L 7.108445929009468 -5.454502403918138 A 8.96 8.96 0 0 0 6.3356767594314665 -6.335676759431466 Z" fill="#7B86C9" stroke="#111" stroke-width="1" fill-opacity="0.9"/><path d="M 7.108445929009468 -5.454502403918138 L 24.371814613746743 -18.701151099147896 A 30.72 30.72 0 1 1 -5.643172450471003e-15 -30.72 L -1.6459252980540428e-15 -8.96 A 8.96 8.96 0 1 0 7.108445929009468 -5.454502403918138 Z" fill="#7F142A" stroke="#111" stroke-width="1" fill-opacity="0.9"/>
    <circle r="5.76" fill="#fff" stroke="#111" stroke-width="1.5"/>
  </g>
</svg>