<?xml version="1.0" encoding="UTF-8"?>
<svg xmlns="http://www.w3.org/2000/svg" width="64" height="64" viewBox="-32 -32 64 64">
  <g>
    <path d="M 5.486417660180143e-16 -8.96 L 1.5192508235840633e-15 -24.81124883749053 A 24.81124883749053 24.81124883749053 0 0 1 5.827816130326181 -24.11710239699175 L 2.1045789701976148 -8.709325310160482 A 8.96 8.96 0 0 0 5.486417660180143e-16 -8.96 Z" fill="#7F142A" stroke="#111" stroke-width="1" fill-opacity="0.9"/><path d="M 2.1045789701976148 -8.709325310160482 L 7.215699326391821 -29.860543920550217 A 30.72 30.72 0 1 1 -25.97670922757609 16.399054171078376 L -7.5765401913763615 4.783057466564526 A 8.96 8.96 0 1 0 2.1045789701976148 -8.709325310160482 Z" fill="#A0AAE5" stroke="#111" stroke-width="1" fill-opacity="0.9"/><path d="M -7.5765401913763615 4.783057466564526 L -19.157823055337367 12.0943024511703 A 22.656 22.656 0 0 1 -4.1618396822223646e-15 -22.656 L -1.6459252980540428e-15 -8.96 A 8.96 8.96 0 0 0 -7.5765401913763615 4.783057466564526 Z" fill="#7B86C9" stroke="#111" stroke-width="1" fill-opacity="0.9"/>
    <circle r="5.76" fill="#fff" stroke="#111" stroke-width="1.5"/>
  </g>
</svg>