<?xml version="1.0" encoding="UTF-8"?>
<svg xmlns="http://www.w3.org/2000/svg" width="64" height="64" viewBox="-32 -32 64 64">
  <g>
    <path d="M 5.486417660180143e-16 -8.96 L 1.3872798940741216e-15 -22.656 A 22.656 22.656 0 1 1 -17.71317406679568 14.125784950911468 L -7.005210082913547 5.586468624654254 A 8.96 8.96 0 1 0 5.486417660180143e-16 -8.96 Z" fill="#004F61" stroke="#111" stroke-width="1" fill-opacity="0.9"/><path d="M -7.005210082913547 5.586468624654254 L -24.01786314141787 19.153606713100295 A 30.72 30.72 0 0 1 -13.32890846569139 -27.677763621962313 L -3.8875983024933225 -8.072681056405676 A 8.96 8.96 0 0 0 -7.005210082913547 5.586468624654254 Z" fill="#A0AAE5" stroke="#111" stroke-width="1" fill-opacity="0.9"/><path d="M -3.8875983024933225 -8.072681056405676 L -11.708026041497726 -24.31196658679613 A 26.98424712875793 26.98424712875793 0 0 1 -4.956925781045183e-15 -26.98424712875793 L -1.6459252980540428e-15 -8.96 A 8.96 8.96 0 0 0 -3.8875983024933225 -8.072681056405676 Z" fill="#51BF7E" stroke="#111" stroke-width="1" fill-opacity="0.9"/>
    <circle r="5.76" fill="#fff" stroke="#111" stroke-width="1.5"/>
  </g>
</svg>