<?xml version="1.0" encoding="UTF-8"?>
<svg xmlns="http://www.w3.org/2000/svg" width="64" height="64" viewBox="-32 -32 64 64">
  <g>
    <path d="M 5.486417660180143e-16 -8.96 L 1.8778123843774144e-15 -30.66700350966206 A 30.66700350966206 30.66700350966206 0 0 1 27.89568759403792 -12.739533661695159 L 8.150302678376486 -3.722118516496902 A 8.96 8.96 0 0 0 5.486417660180143e-16 -8.96 Z" fill="#7F142A" stroke="#111" stroke-width="1" fill-opacity="0.9"/><path d="M 8.150302678376486 -3.722118516496902 L 27.943894897290807 -12.76154919941795 A 30.72 30.72 0 1 1 -8.654824146168721 -29.47562414943736 L -2.524323709299211 -8.597057043585897 A 8.96 8.96 0 1 0 8.150302678376486 -3.722118516496902 Z" fill="#A0AAE5" stroke="#111" stroke-width="1" fill-opacity="0.9"/><path d="M -2.524323709299211 -8.597057043585897 L -6.382932807799431 -21.738272810210052 A 22.656 22.656 0 0 1 -4.1618396822223646e-15 -22.656 L -1.6459252980540428e-15 -8.96 A 8.96 8.96 0 0 0 -2.524323709299211 -8.597057043585897 Z" fill="#7B86C9" stroke="#111" stroke-width="1" fill-opacity="0.9"/>
    <circle r="5.76" fill="#fff" stroke="#111" stroke-width="1.5"/>
  </g>
</svg>