<?xml version="1.0" encoding="UTF-8"?>
<svg xmlns="http://www.w3.org/2000/svg" width="64" height="64" viewBox="-32 -32 64 64">
  <g>
    <path d="M 5.486417660180143e-16 -8.96 L 1.8810574834903343e-15 -30.72 A 30.72 30.72 0 1 1 -8.654824146168712 29.475624149437362 L -2.524323709299208 8.597057043585899 A 8.96 8.96 0 1 0 5.486417660180143e-16 -8.96 Z" fill="#A0AAE5" stroke="#111" stroke-width="1" fill-opacity="0.9"/><path d="M -2.524323709299208 8.597057043585899 L -6.382932807799425 21.738272810210052 A 22.656 22.656 0 0 1 -12.24875836027401 19.059440039823244 L -4.844141724402151 7.537631654167386 A 8.96 8.96 0 0 0 -2.524323709299208 8.597057043585899 Z" fill="#7B86C9" stroke="#111" stroke-width="1" fill-opacity="0.9"/><path d="M -4.844141724402151 7.537631654167386 L -15.464659162575492 24.063479364680447 A 28.604312999074665 28.604312999074665 0 0 1 -26.01939830909348 -11.882661056420622 L -8.150302678376487 -3.7221185164969 A 8.96 8.96 0 0 0 -4.844141724402151 7.537631654167386 Z" fill="#7F142A" stroke="#111" stroke-width="1" fill-opacity="0.9"/><path d="M -8.150302678376487 -3.7221185164969 L -23.283464819478226 -10.633202097231461 A 25.596576349981802 25.596576349981802 0 0 1 -13.838553961918794 -21.533210282805243 L -4.844141724402161 -7.53763165416738 A 8.96 8.96 0 0 0 -8.150302678376487 -3.7221185164969 Z" fill="#51BF7E" stroke="#111" stroke-width="1" fill-opacity="0.9"/><path d="M -4.844141724402161 -7.53763165416738 L -12.248758360274033 -19.05944003982323 A 22.656 22.656 0 0 1 -2.42844099589484e-14 -22.656 L -9.604003938567165e-15 -8.96 A 8.96 8.96 0 0 0 -4.844141724402161 -7.53763165416738 Z" fill="#e0e0e0" stroke="#111" stroke-width="1" fill-opacity="0.9"/>
    <circle r="5.76" fill="#fff" stroke="#111" stroke-width="1.5"/>
  </g>
</svg>