<?xml version="1.0" encoding="UTF-8"?>
<svg xmlns="http://www.w3.org/2000/svg" width="64" height="64" viewBox="-32 -32 64 64">
  <g>
    <path d="M 5.486417660180143e-16 -8.96 L 1.6336374101201054e-15 -26.679323561005628 A 26.679323561005628 26.679323561005628 0 0 1 6.477186485974791 -25.881119776754936 L 2.1753021879144896 -8.691930763142011 A 8.96 8.96 0 0 0 5.486417660180143e-16 -8.96 Z" fill="#51BF7E" stroke="#111" stroke-width="1" fill-opacity="0.9"/><path d="M 2.1753021879144896 -8.691930763142011 L 5.500406960869494 -21.978167786801937 A 22.656 22.656 0 0 1 6.254462205127686 -21.77558354039288 L 2.473516126321684 -8.611812699590406 A 8.96 8.96 0 0 0 2.1753021879144896 -8.691930763142011 Z" fill="#e0e0e0" stroke="#111" stroke-width="1" fill-opacity="0.9"/><path d="M 2.473516126321684 -8.611812699590406 L 6.254462205127686 -21.77558354039288 A 22.656 22.656 0 0 1 11.792884262983797 -19.34482403021204 L 4.663852533383423 -7.650495379179903 A 8.96 8.96 0 0 0 2.473516126321684 -8.611812699590406 Z" fill="#7B86C9" stroke="#111" stroke-width="1" fill-opacity="0.9"/><path d="M 4.663852533383423 -7.650495379179903 L 15.596883656242998 -25.584832600856117 A 29.96408581953085 29.96408581953085 0 0 1 19.056948225976818 23.123130482541697 L 5.698497098598476 6.91438578741921 A 8.96 8.96 0 0 0 4.663852533383423 -7.650495379179903 Z" fill="#A0AAE5" stroke="#111" stroke-width="1" fill-opacity="0.9"/><path d="M 5.698497098598476 6.91438578741921 L 19.537704338051917 23.70646555686586 A 30.72 30.72 0 1 1 -17.55906161480008 -25.207097318169232 L -5.121392970983357 -7.352070051132693 A 8.96 8.96 0 1 0 5.698497098598476 6.91438578741921 Z" fill="#7F142A" stroke="#111" stroke-width="1" fill-opacity="0.9"/><path d="M -5.121392970983357 -7.352070051132693 L -12.949807940915058 -18.590234272149807 A 22.656 22.656 0 0 1 -2.964645025136982 -22.461193554104163 L -1.1724584845174506 -8.882957902753061 A 8.96 8.96 0 0 0 -5.121392970983357 -7.352070051132693 Z" fill="#004F61" stroke="#111" stroke-width="1" fill-opacity="0.9"/><path d="M -1.1724584845174506 -8.882957902753061 L -2.964645025136982 -22.461193554104163 A 22.656 22.656 0 0 1 -4.1618396822223646e-15 -22.656 L -1.6459252980540428e-15 -8.96 A 8.96 8.96 0 0 0 -1.1724584845174506 -8.882957902753061 Z" fill="#4A0D19" stroke="#111" stroke-width="1" fill-opacity="0.9"/>
    <circle r="5.76" fill="#fff" stroke="#111" stroke-width="1.5"/>
  </g>
</svg>