<?xml version="1.0" encoding="UTF-8"?>
<svg xmlns="http://www.w3.org/2000/svg" width="64" height="64" viewBox="-32 -32 64 64">
  <g>
    <path d="M 5.486417660180143e-16 -8.96 L 1.3872798940741216e-15 -22.656 A 22.656 22.656 0 0 1 10.167994226621673 -20.246141099167225 L 4.021240654596142 -8.006948457297774 A 8.96 8.96 0 0 0 5.486417660180143e-16 -8.96 Z" fill="#004F61" stroke="#111" stroke-width="1" fill-opacity="0.9"/><path d="M 4.021240654596142 -8.006948457297774 L 13.7871108157582 -27.45239471073522 A 30.72 30.72 0 1 1 -30.668026622093358 1.786209144129828 L -8.944841098110563 0.5209776670378666 A 8.96 8.96 0 1 0 4.021240654596142 -8.006948457297774 Z" fill="#7F142A" stroke="#111" stroke-width="1" fill-opacity="0.9"/><path d="M -8.944841098110563 0.5209776670378666 L -28.57047102262863 1.664040442561482 A 28.618889654375877 28.618889654375877 0 0 1 -6.5999701573257115 -27.847463779880435 L -2.066318201852266 -8.718482040395223 A 8.96 8.96 0 0 0 -8.944841098110563 0.5209776670378666 Z" fill="#A0AAE5" stroke="#111" stroke-width="1" fill-opacity="0.9"/><path d="M -2.066318201852266 -8.718482040395223 L -5.449073603426984 -22.991449383586495 A 23.62835474368845 23.62835474368845 0 0 1 -4.340458350896436e-15 -23.62835474368845 L -1.6459252980540428e-15 -8.96 A 8.96 8.96 0 0 0 -2.066318201852266 -8.718482040395223 Z" fill="#51BF7E" stroke="#111" stroke-width="1" fill-opacity="0.9"/>
    <circle r="5.76" fill="#fff" stroke="#111" stroke-width="1.5"/>
  </g>
</svg>