<?xml version="1.0" encoding="UTF-8"?>
<svg xmlns="http://www.w3.org/2000/svg" width="64" height="64" viewBox="-32 -32 64 64">
  <g>
    <path d="M 5.486417660180143e-16 -8.96 L 1.3872798940741216e-15 -22.656 A 22.656 22.656 0 0 1 4.045385008557913 -22.291908759290553 L 1.599869777395785 -8.816009113843723 A 8.96 8.96 0 0 0 5.486417660180143e-16 -8.96 Z" fill="#4A0D19" stroke="#111" stroke-width="1" fill-opacity="0.9"/><path d="M 1.599869777395785 -8.816009113843723 L 5.485267808214119 -30.2263169617499 A 30.72 30.72 0 1 1 -13.328908465691372 27.67776362196232 L -3.887598302493317 8.072681056405678 A 8.96 8.96 0 1 0 1.599869777395785 -8.816009113843723 Z" fill="#A0AAE5" stroke="#111" stroke-width="1" fill-opacity="0.9"/><path d="M -3.887598302493317 8.072681056405678 L -9.830069993447387 20.412350671197213 A 22.656 22.656 0 0 1 -4.1618396822223646e-15 -22.656 L -1.6459252980540428e-15 -8.96 A 8.96 8.96 0 0 0 -3.887598302493317 8.072681056405678 Z" fill="#7B86C9" stroke="#111" stroke-width="1" fill-opacity="0.9"/>
    <circle r="5.76" fill="#fff" stroke="#111" stroke-width="1.5"/>
  </g>
</svg>