<?xml version="1.0" encoding="UTF-8"?>
<svg xmlns="http://www.w3.org/2000/svg" width="64" height="64" viewBox="-32 -32 64 64">
  <g>
    <path d="M 5.486417660180143e-16 -8.96 L 1.3872798940741216e-15 -22.656 A 22.656 22.656 0 0 1 2.3681968637919564 -22.531888061463597 L 0.9365750308781751 -8.91091618249973 A 8.96 8.96 0 0 0 5.486417660180143e-16 -8.96 Z" fill="#004F61" stroke="#111" stroke-width="1" fill-opacity="0.9"/><path d="M 0.9365750308781751 -8.91091618249973 L 3.211114391582314 -30.551712625713353 A 30.72 30.72 0 1 1 -28.064116458780706 -12.49494967528857 L -8.185367300477706 -3.6443603219591667 A 8.96 8.96 0 1 0 0.9365750308781751 -8.91091618249973 Z" fill="#7F142A" stroke="#111" stroke-width="1" fill-opacity="0.9"/><path d="M -8.185367300477706 -3.6443603219591667 L -27.24432119077802 -12.129953305893576 A 29.822622358696673 29.822622358696673 0 0 1 -5.4783268520637254e-15 -29.822622358696673 L -1.6459252980540428e-15 -8.96 A 8.96 8.96 0 0 0 -8.185367300477706 -3.6443603219591667 Z" fill="#A0AAE5" stroke="#111" stroke-width="1" fill-opacity="0.9"/>
    <circle r="5.76" fill="#fff" stroke="#111" stroke-width="1.5"/>
  </g>
</svg>