<?xml version="1.0" encoding="UTF-8"?>
<svg xmlns="http://www.w3.org/2000/svg" width="64" height="64" viewBox="-32 -32 64 64">
  <g>
    <path d="M 5.486417660180143e-16 -8.96 L 1.3872798940741216e-15 -22.656 A 22.656 22.656 0 0 1 18.509269896044575 13.065269377834428 L 7.320050241373562 5.16705568614921 A 8.96 8.96 0 0 0 5.486417660180143e-16 -8.96 Z" fill="#4A0D19" stroke="#111" stroke-width="1" fill-opacity="0.9"/><path d="M 7.320050241373562 5.16705568614921 L 25.09731511328078 17.715619495368717 A 30.72 30.72 0 1 1 -22.451280822623986 -20.968032559677038 L -6.548290239931997 -6.1156761632391365 A 8.96 8.96 0 1 0 7.320050241373562 5.16705568614921 Z" fill="#7F142A" stroke="#111" stroke-width="1" fill-opacity="0.9"/><path d="M -6.548290239931997 -6.1156761632391365 L -20.69151372736011 -19.32452482208023 A 28.312117545827032 28.312117545827032 0 0 1 -3.0347063439653946e-14 -28.312117545827032 L -9.604003938567165e-15 -8.96 A 8.96 8.96 0 0 0 -6.548290239931997 -6.1156761632391365 Z" fill="#A0AAE5" stroke="#111" stroke-width="1" fill-opacity="0.9"/>
    <circle r="5.76" fill="#fff" stroke="#111" stroke-width="1.5"/>
  </g>
</svg>