<?xml version="1.0" encoding="UTF-8"?>
<svg xmlns="http://www.w3.org/2000/svg" width="64" height="64" viewBox="-32 -32 64 64">
  <g>
    <path d="M 5.486417660180143e-16 -8.96 L 1.8810574834903343e-15 -30.72 A 30.72 30.72 0 0 1 22.78355268550526 20.60650690987694 L 6.645202866605701 6.010231182047442 A 8.96 8.96 0 0 0 5.486417660180143e-16 -8.96 Z" fill="#7F142A" stroke="#111" stroke-width="1" fill-opacity="0.9"/><path d="M 6.645202866605701 6.010231182047442 L 21.899943221501537 19.80732932870852 A 29.528593062333798 29.528593062333798 0 0 1 5.881681897851261 28.936890404696154 L 1.7847064265303727 8.780456877127818 A 8.96 8.96 0 0 0 6.645202866605701 6.010231182047442 Z" fill="#A0AAE5" stroke="#111" stroke-width="1" fill-opacity="0.9"/><path d="M 1.7847064265303727 8.780456877127818 L 4.512757678512513 22.20201238930891 A 22.656 22.656 0 1 1 -4.1618396822223646e-15 -22.656 L -1.6459252980540428e-15 -8.96 A 8.96 8.96 0 1 0 1.7847064265303727 8.780456877127818 Z" fill="#7B86C9" stroke="#111" stroke-width="1" fill-opacity="0.9"/>
    <circle r="5.76" fill="#fff" stroke="#111" stroke-width="1.5"/>
  </g>
</svg>