<?xml version="1.0" encoding="UTF-8"?>
<svg xmlns="http://www.w3.org/2000/svg" width="64" height="64" viewBox="-32 -32 64 64">
  <g>
    <path d="M 5.486417660180143e-16 -8.96 L 1.3872798940741216e-15 -22.656 A 22.656 22.656 0 0 1 5.0414342797142595 -22.087966778391394 L 1.9937875682485777 -8.735354093149141 A 8.96 8.96 0 0 0 5.486417660180143e-16 -8.96 Z" fill="#e0e0e0" stroke="#111" stroke-width="1" fill-opacity="0.9"/><path d="M 1.9937875682485777 -8.735354093149141 L 6.8358430911379795 -29.94978546222562 A 30.72 30.72 0 1 1 -19.15360671310029 24.017863141417877 L -5.586468624654253 7.005210082913549 A 8.96 8.96 0 1 0 1.9937875682485777 -8.735354093149141 Z" fill="#A0AAE5" stroke="#111" stroke-width="1" fill-opacity="0.9"/><path d="M -5.586468624654253 7.005210082913549 L -14.125784950911465 17.713174066795684 A 22.656 22.656 0 0 1 -5.041434279714263 -22.087966778391394 L -1.9937875682485788 -8.735354093149141 A 8.96 8.96 0 0 0 -5.586468624654253 7.005210082913549 Z" fill="#7B86C9" stroke="#111" stroke-width="1" fill-opacity="0.9"/><path d="M -1.9937875682485788 -8.735354093149141 L -5.041434279714263 -22.087966778391394 A 22.656 22.656 0 0 1 -4.1618396822223646e-15 -22.656 L -1.6459252980540428e-15 -8.96 A 8.96 8.96 0 0 0 -1.9937875682485788 -8.735354093149141 Z" fill="#4A0D19" stroke="#111" stroke-width="1" fill-opacity="0.9"/>
    <circle r="5.76" fill="#fff" stroke="#111" stroke-width="1.5"/>
  </g>
</svg>