<?xml version="1.0" encoding="UTF-8"?>
<svg xmlns="http://www.w3.org/2000/svg" width="64" height="64" viewBox="-32 -32 64 64">
  <g>
    <path d="M 5.486417660180143e-16 -8.96 L 1.3872798940741216e-15 -22.656 A 22.656 22.656 0 0 1 22.656 0 L 8.96 0 A 8.96 8.96 0 0 0 5.486417660180143e-16 -8.96 Z" fill="#004F61" stroke="#111" stroke-width="1" fill-opacity="0.9"/><path d="M 8.96 0 L 30.72 0 A 30.72 30.72 0 0 1 -30.72 3.762114966980669e-15 L -8.96 1.0972835320360286e-15 A 8.96 8.96 0 0 0 8.96 0 Z" fill="#A0AAE5" stroke="#111" stroke-width="1" fill-opacity="0.9"/><path d="M -8.96 1.0972835320360286e-15 L -24.886829884492755 3.0477576558968746e-15 A 24.886829884492755 24.886829884492755 0 0 1 -4.571636483845312e-15 -24.886829884492755 L -1.6459252980540428e-15 -8.96 A 8.96 8.96 0 0 0 -8.96 1.0972835320360286e-15 Z" fill="#51BF7E" stroke="#111" stroke-width="1" fill-opacity="0.9"/>
    <circle r="5.76" fill="#fff" stroke="#111" stroke-width="1.5"/>
  </g>
</svg>