<?xml version="1.0" encoding="UTF-8"?>
<svg xmlns="http://www.w3.org/2000/svg" width="64" height="64" viewBox="-32 -32 64 64">
  <g>
    <path d="M 5.486417660180143e-16 -8.96 L 1.8810574834903343e-15 -30.72 A 30.72 30.72 0 1 1 -13.32890846569139 -27.677763621962313 L -3.8875983024933225 -8.072681056405676 A 8.96 8.96 0 1 0 5.486417660180143e-16 -8.96 Z" fill="#7F142A" stroke="#111" stroke-width="1" fill-opacity="0.9"/><path d="M -3.8875983024933225 -8.072681056405676 L -9.8300699934474 -20.412350671197206 A 22.656 22.656 0 0 1 -3.3767015824874056 -22.40295119895651 L -1.3354187049385222 -8.859924202977153 A 8.96 8.96 0 0 0 -3.8875983024933225 -8.072681056405676 Z" fill="#004F61" stroke="#111" stroke-width="1" fill-opacity="0.9"/><path d="M -1.3354187049385222 -8.859924202977153 L -3.6619430468718304 -24.29540466291226 A 24.569829356615237 24.569829356615237 0 0 1 -4.513404431576328e-15 -24.569829356615237 L -1.6459252980540428e-15 -8.96 A 8.96 8.96 0 0 0 -1.3354187049385222 -8.859924202977153 Z" fill="#51BF7E" stroke="#111" stroke-width="1" fill-opacity="0.9"/>
    <circle r="5.76" fill="#fff" stroke="#111" stroke-width="1.5"/>
  </g>
</svg>