<?xml version="1.0" encoding="UTF-8"?>
<svg xmlns="http://www.w3.org/2000/svg" width="64" height="64" viewBox="-32 -32 64 64">
  <g>
    <path d="M 5.486417660180143e-16 -8.96 L 1.4812087692838343e-15 -24.189974943226236 A 24.189974943226236 24.189974943226236 0 0 1 4.92159585779192 -23.68401954834691 L 1.8229658769515986 -8.772593425633614 A 8.96 8.96 0 0 0 5.486417660180143e-16 -8.96 Z" fill="#51BF7E" stroke="#111" stroke-width="1" fill-opacity="0.9"/><path d="M 1.8229658769515986 -8.772593425633614 L 6.250168720976909 -30.077463173600957 A 30.72 30.72 0 1 1 -4.183039460236713 -30.433872262236076 L -1.2200531759023745 -8.876546076485523 A 8.96 8.96 0 1 0 1.8229658769515986 -8.772593425633614 Z" fill="#7F142A" stroke="#111" stroke-width="1" fill-opacity="0.9"/><path d="M -1.2200531759023745 -8.876546076485523 L -3.597705695647873 -26.175252856034625 A 26.421342667431684 26.421342667431684 0 0 1 -4.85352190902684e-15 -26.421342667431684 L -1.6459252980540428e-15 -8.96 A 8.96 8.96 0 0 0 -1.2200531759023745 -8.876546076485523 Z" fill="#A0AAE5" stroke="#111" stroke-width="1" fill-opacity="0.9"/>
    <circle r="5.76" fill="#fff" stroke="#111" stroke-width="1.5"/>
  </g>
</svg>