<?xml version="1.0" encoding="UTF-8"?>
<svg xmlns="http://www.w3.org/2000/svg" width="64" height="64" viewBox="-32 -32 64 64">
  <g>
    <path d="M 5.486417660180143e-16 -8.96 L 1.3872798940741216e-15 -22.656 A 22.656 22.656 0 0 1 16.125594696540784 -15.914129937979508 L 6.377353834790141 -6.293723704285682 A 8.96 8.96 0 0 0 5.486417660180143e-16 -8.96 Z" fill="#e0e0e0" stroke="#111" stroke-width="1" fill-opacity="0.9"/><path d="M 6.377353834790141 -6.293723704285682 L 18.93981992557386 -18.691450515135024 A 26.609906072230057 26.609906072230057 0 0 1 22.43732324517357 -14.305720071513347 L 7.555021642355879 -4.8169749826560535 A 8.96 8.96 0 0 0 6.377353834790141 -6.293723704285682 Z" fill="#7F142A" stroke="#111" stroke-width="1" fill-opacity="0.9"/><path d="M 7.555021642355879 -4.8169749826560535 L 25.902931345220154 -16.515342797677896 A 30.72 30.72 0 0 1 23.503898621377786 19.78092893662973 L 6.8553037645685215 5.769437606517005 A 8.96 8.96 0 0 0 7.555021642355879 -4.8169749826560535 Z" fill="#A0AAE5" stroke="#111" stroke-width="1" fill-opacity="0.9"/><path d="M 6.8553037645685215 5.769437606517005 L 17.334125233266118 14.588435090764426 A 22.656 22.656 0 1 1 -4.1618396822223646e-15 -22.656 L -1.6459252980540428e-15 -8.96 A 8.96 8.96 0 1 0 6.8553037645685215 5.769437606517005 Z" fill="#004F61" stroke="#111" stroke-width="1" fill-opacity="0.9"/>
    <circle r="5.76" fill="#fff" stroke="#111" stroke-width="1.5"/>
  </g>
</svg>