<?xml version="1.0" encoding="UTF-8"?>
<svg xmlns="http://www.w3.org/2000/svg" width="64" height="64" viewBox="-32 -32 64 64">
  <g>
    <path d="M 5.486417660180143e-16 -8.96 L 1.5792674841636915e-15 -25.79139528659592 A 25.79139528659592 25.79139528659592 0 0 1 7.602147216001151 -24.645555959151913 L 2.641006362721701 -8.561932339843823 A 8.96 8.96 0 0 0 5.486417660180143e-16 -8.96 Z" fill="#A0AAE5" stroke="#111" stroke-width="1" fill-opacity="0.9"/><path d="M 2.641006362721701 -8.561932339843823 L 9.054878957902973 -29.355196593750243 A 30.72 30.72 0 1 1 -26.604300404257952 -15.360000000000003 L -7.75958761790857 -4.480000000000001 A 8.96 8.96 0 1 0 2.641006362721701 -8.561932339843823 Z" fill="#7F142A" stroke="#111" stroke-width="1" fill-opacity="0.9"/><path d="M -7.75958761790857 -4.480000000000001 L -19.62067154814024 -11.328000000000001 A 22.656 22.656 0 0 1 -4.1618396822223646e-15 -22.656 L -1.6459252980540428e-15 -8.96 A 8.96 8.96 0 0 0 -7.75958761790857 -4.480000000000001 Z" fill="#4A0D19" stroke="#111" stroke-width="1" fill-opacity="0.9"/>
    <circle r="5.76" fill="#fff" stroke="#111" stroke-width="1.5"/>
  </g>
</svg>