<?xml version="1.0" encoding="UTF-8"?>
<svg xmlns="http://www.w3.org/2000/svg" width="64" height="64" viewBox="-32 -32 64 64">
  <g>
    <path d="M 5.486417660180143e-16 -8.96 L 1.3872798940741216e-15 -22.656 A 22.656 22.656 0 0 1 2.1535897170995657 -22.553411877815805 L 0.851702148005478 -8.91942842625484 A 8.96 8.96 0 0 0 5.486417660180143e-16 -8.96 Z" fill="#4A0D19" stroke="#111" stroke-width="1" fill-opacity="0.9"/><path d="M 0.851702148005478 -8.91942842625484 L 2.920121650304496 -30.580897461445158 A 30.72 30.72 0 1 1 -14.076718747466076 -27.30502498267923 L -4.1057096346776065 -7.96396561994811 A 8.96 8.96 0 1 0 0.851702148005478 -8.91942842625484 Z" fill="#7F142A" stroke="#111" stroke-width="1" fill-opacity="0.9"/><path d="M -4.1057096346776065 -7.96396561994811 L -12.91110229488 -25.04404449929677 A 28.176244024915963 28.176244024915963 0 0 1 -2.67832227218165 -28.048659810371483 L -0.8517021480054832 -8.91942842625484 A 8.96 8.96 0 0 0 -4.1057096346776065 -7.96396561994811 Z" fill="#A0AAE5" stroke="#111" stroke-width="1" fill-opacity="0.9"/><path d="M -0.8517021480054832 -8.91942842625484 L -2.2131715815441644 -23.177381391877518 A 23.282807748076795 23.282807748076795 0 0 1 -2.4956269789445493e-14 -23.282807748076795 L -9.604003938567165e-15 -8.96 A 8.96 8.96 0 0 0 -0.8517021480054832 -8.91942842625484 Z" fill="#51BF7E" stroke="#111" stroke-width="1" fill-opacity="0.9"/>
    <circle r="5.76" fill="#fff" stroke="#111" stroke-width="1.5"/>
  </g>
</svg>