<?xml version="1.0" encoding="UTF-8"?>
<svg xmlns="http://www.w3.org/2000/svg" width="64" height="64" viewBox="-32 -32 64 64">
  <g>
    <path d="M 5.486417660180143e-16 -8.96 L 1.5266672372690654e-15 -24.932368064522613 A 24.932368064522613 24.932368064522613 0 0 1 24.932368064522613 0 L 8.96 0 A 8.96 8.96 0 0 0 5.486417660180143e-16 -8.96 Z" fill="#51BF7E" stroke="#111" stroke-width="1" fill-opacity="0.9"/><path d="M 8.96 0 L 30.72 0 A 30.72 30.72 0 0 1 1.8810574834903343e-15 30.72 L 5.486417660180143e-16 8.96 A 8.96 8.96 0 0 0 8.96 0 Z" fill="#A0AAE5" stroke="#111" stroke-width="1" fill-opacity="0.9"/><path d="M 5.486417660180143e-16 8.96 L 1.8358292215219957e-15 29.981366428266035 A 29.981366428266035 29.981366428266035 0 0 1 -5.507487664565986e-15 -29.981366428266035 L -1.6459252980540428e-15 -8.96 A 8.96 8.96 0 0 0 5.486417660180143e-16 8.96 Z" fill="#7F142A" stroke="#111" stroke-width="1" fill-opacity="0.9"/>
    <circle r="5.76" fill="#fff" stroke="#111" stroke-width="1.5"/>
  </g>
</svg>