<?xml version="1.0" encoding="UTF-8"?>
<svg xmlns="http://www.w3.org/2000/svg" width="64" height="64" viewBox="-32 -32 64 64">
  <g>
    <path d="M 5.486417660180143e-16 -8.96 L 1.3872798940741216e-15 -22.656 A 22.656 22.656 0 0 1 21.547136433183 7.001089024558808 L 8.521466386004576 2.768792269599529 A 8.96 8.96 0 0 0 5.486417660180143e-16 -8.96 Z" fill="#4A0D19" stroke="#111" stroke-width="1" fill-opacity="0.9"/><path d="M 8.521466386004576 2.768792269599529 L 29.216456180587116 9.493002067198384 A 30.72 30.72 0 1 1 -18.056762950424776 -24.853002067198382 L -5.266555860540561 -7.248792269599529 A 8.96 8.96 0 1 0 8.521466386004576 2.768792269599529 Z" fill="#7F142A" stroke="#111" stroke-width="1" fill-opacity="0.9"/><path d="M -5.266555860540561 -7.248792269599529 L -14.104178800480527 -19.412736704074195 A 23.995462195540927 23.995462195540927 0 0 1 -4.407894895774578e-15 -23.995462195540927 L -1.6459252980540428e-15 -8.96 A 8.96 8.96 0 0 0 -5.266555860540561 -7.248792269599529 Z" fill="#A0AAE5" stroke="#111" stroke-width="1" fill-opacity="0.9"/>
    <circle r="5.76" fill="#fff" stroke="#111" stroke-width="1.5"/>
  </g>
</svg>