<?xml version="1.0" encoding="UTF-8"?>
<svg xmlns="http://www.w3.org/2000/svg" width="64" height="64" viewBox="-32 -32 64 64">
  <g>
    <path d="M 5.486417660180143e-16 -8.96 L 1.4614416384260827e-15 -23.86715319786236 A 23.86715319786236 23.86715319786236 0 0 1 2.6722733038760493 -23.71708154810838 L 1.003201705885639 -8.903661400643454 A 8.96 8.96 0 0 0 5.486417660180143e-16 -8.96 Z" fill="#51BF7E" stroke="#111" stroke-width="1" fill-opacity="0.9"/><path d="M 1.003201705885639 -8.903661400643454 L 3.13119338312626 -27.79010990484657 A 27.96595395344105 27.96595395344105 0 0 1 17.43648708922143 -21.864663238051477 L 5.586468624654254 -7.005210082913548 A 8.96 8.96 0 0 0 1.003201705885639 -8.903661400643454 Z" fill="#A0AAE5" stroke="#111" stroke-width="1" fill-opacity="0.9"/><path d="M 5.586468624654254 -7.005210082913548 L 19.153606713100295 -24.017863141417873 A 30.72 30.72 0 1 1 -5.643172450471003e-15 -30.72 L -1.6459252980540428e-15 -8.96 A 8.96 8.96 0 1 0 5.586468624654254 -7.005210082913548 Z" fill="#7F142A" stroke="#111" stroke-width="1" fill-opacity="0.9"/>
    <circle r="5.76" fill="#fff" stroke="#111" stroke-width="1.5"/>
  </g>
</svg>