<?xml version="1.0" encoding="UTF-8"?>
<svg xmlns="http://www.w3.org/2000/svg" width="64" height="64" viewBox="-32 -32 64 64">
  <g>
    <path d="M 5.486417660180143e-16 -8.96 L 1.3872798940741216e-15 -22.656 A 22.656 22.656 0 0 1 15.509099231920372 -16.5155132228595 L 6.133542069121051 -6.531558901695848 A 8.96 8.96 0 0 0 5.486417660180143e-16 -8.96 Z" fill="#4A0D19" stroke="#111" stroke-width="1" fill-opacity="0.9"/><path d="M 6.133542069121051 -6.531558901695848 L 21.029287094129316 -22.393916234385763 A 30.72 30.72 0 0 1 3.8502369350954333 30.477763624380756 L 1.1229857727361683 8.889347723777721 A 8.96 8.96 0 0 0 6.133542069121051 -6.531558901695848 Z" fill="#A0AAE5" stroke="#111" stroke-width="1" fill-opacity="0.9"/><path d="M 1.1229857727361683 8.889347723777721 L 3.8366389200583835 30.370124251779465 A 30.611505112807343 30.611505112807343 0 0 1 -7.612771752450449 -29.649788389068185 L -2.2282613889971037 -8.678505123712535 A 8.96 8.96 0 0 0 1.1229857727361683 8.889347723777721 Z" fill="#7F142A" stroke="#111" stroke-width="1" fill-opacity="0.9"/><path d="M -2.2282613889971037 -8.678505123712535 L -5.634318083606961 -21.944220098530263 A 22.656 22.656 0 0 1 -4.1618396822223646e-15 -22.656 L -1.6459252980540428e-15 -8.96 A 8.96 8.96 0 0 0 -2.2282613889971037 -8.678505123712535 Z" fill="#e0e0e0" stroke="#111" stroke-width="1" fill-opacity="0.9"/>
    <circle r="5.76" fill="#fff" stroke="#111" stroke-width="1.5"/>
  </g>
</svg>