<?xml version="1.0" encoding="UTF-8"?>
<svg xmlns="http://www.w3.org/2000/svg" width="64" height="64" viewBox="-32 -32 64 64">
  <g>
    <path d="M 5.486417660180143e-16 -8.96 L 1.4401746652207308e-15 -23.519837168127765 A 23.519837168127765 23.519837168127765 0 0 1 2.0218780684956172 -23.432770845364846 L 0.7702445966875209 -8.926831647414087 A 8.96 8.96 0 0 0 5.486417660180143e-16 -8.96 Z" fill="#51BF7E" stroke="#111" stroke-width="1" fill-opacity="0.9"/><path d="M 0.7702445966875209 -8.926831647414087 L 2.618565756326549 -30.348146244632215 A 30.460907194399027 30.460907194399027 0 0 1 22.222984948001255 20.832806030554313 L 6.536835684614932 6.1279180177565085 A 8.96 8.96 0 0 0 0.7702445966875209 -8.926831647414087 Z" fill="#7F142A" stroke="#111" stroke-width="1" fill-opacity="0.9"/><path d="M 6.536835684614932 6.1279180177565085 L 22.412008061536906 21.01000463230803 A 30.72 30.72 0 1 1 -5.643172450471003e-15 -30.72 L -1.6459252980540428e-15 -8.96 A 8.96 8.96 0 1 0 6.536835684614932 6.1279180177565085 Z" fill="#A0AAE5" stroke="#111" stroke-width="1" fill-opacity="0.9"/>
    <circle r="5.76" fill="#fff" stroke="#111" stroke-width="1.5"/>
  </g>
</svg>