<?xml version="1.0" encoding="UTF-8"?>
<svg xmlns="http://www.w3.org/2000/svg" width="64" height="64" viewBox="-32 -32 64 64">
  <g>
    <path d="M 5.486417660180143e-16 -8.96 L 1.8386167466944512e-15 -30.026890169060465 A 30.026890169060465 30.026890169060465 0 0 1 26.00404968305158 -15.013445084530233 L 7.75958761790857 -4.48 A 8.96 8.96 0 0 0 5.486417660180143e-16 -8.96 Z" fill="#A0AAE5" stroke="#111" stroke-width="1" fill-opacity="0.9"/><path d="M 7.75958761790857 -4.48 L 25.136582539301195 -14.512612695572793 A 29.025225391145586 29.025225391145586 0 0 1 1.7772824684898464e-15 29.025225391145586 L 5.486417660180143e-16 8.96 A 8.96 8.96 0 0 0 7.75958761790857 -4.48 Z" fill="#7F142A" stroke="#111" stroke-width="1" fill-opacity="0.9"/><path d="M 5.486417660180143e-16 8.96 L 1.8810574834903343e-15 30.72 A 30.72 30.72 0 0 1 -5.643172450471003e-15 -30.72 L -1.6459252980540428e-15 -8.96 A 8.96 8.96 0 0 0 5.486417660180143e-16 8.96 Z" fill="#51BF7E" stroke="#111" stroke-width="1" fill-opacity="0.9"/>
    <circle r="5.76" fill="#fff" stroke="#111" stroke-width="1.5"/>
  </g>
</svg>