<?xml version="1.0" encoding="UTF-8"?>
<svg xmlns="http://www.w3.org/2000/svg" width="64" height="64" viewBox="-32 -32 64 64">
  <g>
    <path d="M 5.486417660180143e-16 -8.96 L 1.3872798940741216e-15 -22.656 A 22.656 22.656 0 0 1 7.356391174301311 -21.42843542796958 L 2.909307244073965 -8.474522485637687 A 8.96 8.96 0 0 0 5.486417660180143e-16 -8.96 Z" fill="#4A0D19" stroke="#111" stroke-width="1" fill-opacity="0.9"/><path d="M 2.909307244073965 -8.474522485637687 L 9.295158015726484 -27.075870302898405 A 28.626957840411546 28.626957840411546 0 0 1 17.58304143121193 -22.59069209265145 L 5.503345905699424 -7.0706989641916875 A 8.96 8.96 0 0 0 2.909307244073965 -8.474522485637687 Z" fill="#A0AAE5" stroke="#111" stroke-width="1" fill-opacity="0.9"/><path d="M 5.503345905699424 -7.0706989641916875 L 18.868614533826594 -24.24239644865721 A 30.72 30.72 0 1 1 -18.8686145338266 -24.242396448657207 L -5.503345905699426 -7.070698964191686 A 8.96 8.96 0 1 0 5.503345905699424 -7.0706989641916875 Z" fill="#7F142A" stroke="#111" stroke-width="1" fill-opacity="0.9"/><path d="M -5.503345905699426 -7.070698964191686 L -15.961236938275247 -20.50699763752861 A 25.986497199610533 25.986497199610533 0 0 1 -4.773642092483204e-15 -25.986497199610533 L -1.6459252980540428e-15 -8.96 A 8.96 8.96 0 0 0 -5.503345905699426 -7.070698964191686 Z" fill="#51BF7E" stroke="#111" stroke-width="1" fill-opacity="0.9"/>
    <circle r="5.76" fill="#fff" stroke="#111" stroke-width="1.5"/>
  </g>
</svg>