<?xml version="1.0" encoding="UTF-8"?>
<svg xmlns="http://www.w3.org/2000/svg" width="64" height="64" viewBox="-32 -32 64 64">
  <g>
    <path d="M 5.486417660180143e-16 -8.96 L 1.8810574834903343e-15 -30.72 A 30.72 30.72 0 0 1 13.039309789465037 27.815369855789463 L 3.803132021927303 8.112816207938595 A 8.96 8.96 0 0 0 5.486417660180143e-16 -8.96 Z" fill="#7F142A" stroke="#111" stroke-width="1" fill-opacity="0.9"/><path d="M 3.803132021927303 8.112816207938595 L 12.929355634090404 27.580816374945154 A 30.460953186353642 30.460953186353642 0 1 1 -2.223506862709047 -30.379692003914617 L -0.6540380193617283 -8.936097261625424 A 8.96 8.96 0 1 0 3.803132021927303 8.112816207938595 Z" fill="#A0AAE5" stroke="#111" stroke-width="1" fill-opacity="0.9"/><path d="M -0.6540380193617283 -8.936097261625424 L -1.6537818489575127 -22.595560218681424 A 22.656 22.656 0 0 1 1.5960730594503672e-14 -22.656 L 6.31215334245908e-15 -8.96 A 8.96 8.96 0 0 0 -0.6540380193617283 -8.936097261625424 Z" fill="#7B86C9" stroke="#111" stroke-width="1" fill-opacity="0.9"/>
    <circle r="5.76" fill="#fff" stroke="#111" stroke-width="1.5"/>
  </g>
</svg>