<?xml version="1.0" encoding="UTF-8"?>
<svg xmlns="http://www.w3.org/2000/svg" width="64" height="64" viewBox="-32 -32 64 64">
  <g>
    <path d="M 5.486417660180143e-16 -8.96 L 1.4938074807214555e-15 -24.395727515255867 A 24.395727515255867 24.395727515255867 0 0 1 6.8730706888798565 -23.407529137101864 L 2.5243237092992112 -8.597057043585897 A 8.96 8.96 0 0 0 5.486417660180143e-16 -8.96 Z" fill="#51BF7E" stroke="#111" stroke-width="1" fill-opacity="0.9"/><path d="M 2.5243237092992112 -8.597057043585897 L 6.382932807799433 -21.738272810210052 A 22.656 22.656 0 0 1 9.411642534570738 -20.608622486751965 L 3.7221185164969026 -8.150302678376486 A 8.96 8.96 0 0 0 2.5243237092992112 -8.597057043585897 Z" fill="#e0e0e0" stroke="#111" stroke-width="1" fill-opacity="0.9"/><path d="M 3.7221185164969026 -8.150302678376486 L 9.411642534570738 -20.608622486751965 A 22.656 22.656 0 0 1 14.836524788264379 -17.122262356570076 L 5.867552176149755 -6.771516186214154 A 8.96 8.96 0 0 0 3.7221185164969026 -8.150302678376486 Z" fill="#004F61" stroke="#111" stroke-width="1" fill-opacity="0.9"/><path d="M 5.867552176149755 -6.771516186214154 L 20.117321746799156 -23.216626924162814 A 30.72 30.72 0 1 1 -30.407314694582258 -4.371911831755286 L -8.86880011925316 -1.2751409509286253 A 8.96 8.96 0 1 0 5.867552176149755 -6.771516186214154 Z" fill="#7F142A" stroke="#111" stroke-width="1" fill-opacity="0.9"/><path d="M -8.86880011925316 -1.2751409509286253 L -29.735770914522163 -4.2753584127153115 A 30.04155058311934 30.04155058311934 0 0 1 -3.220080023671237e-14 -30.04155058311934 L -9.604003938567165e-15 -8.96 A 8.96 8.96 0 0 0 -8.86880011925316 -1.2751409509286253 Z" fill="#A0AAE5" stroke="#111" stroke-width="1" fill-opacity="0.9"/>
    <circle r="5.76" fill="#fff" stroke="#111" stroke-width="1.5"/>
  </g>
</svg>