<?xml version="1.0" encoding="UTF-8"?>
<svg xmlns="http://www.w3.org/2000/svg" width="64" height="64" viewBox="-32 -32 64 64">
  <g>
    <path d="M 5.486417660180143e-16 -8.96 L 1.3872798940741216e-15 -22.656 A 22.656 22.656 0 0 1 6.382932807799433 -21.738272810210052 L 2.5243237092992112 -8.597057043585897 A 8.96 8.96 0 0 0 5.486417660180143e-16 -8.96 Z" fill="#004F61" stroke="#111" stroke-width="1" fill-opacity="0.9"/><path d="M 2.5243237092992112 -8.597057043585897 L 7.956889541649472 -27.098677173246934 A 28.24270517705174 28.24270517705174 0 0 1 25.690468264410963 -11.732443738333393 L 8.150302678376486 -3.722118516496902 A 8.96 8.96 0 0 0 2.5243237092992112 -8.597057043585897 Z" fill="#A0AAE5" stroke="#111" stroke-width="1" fill-opacity="0.9"/><path d="M 8.150302678376486 -3.722118516496902 L 27.943894897290807 -12.76154919941795 A 30.72 30.72 0 1 1 2.1641668602716842e-14 -30.72 L 6.31215334245908e-15 -8.96 A 8.96 8.96 0 1 0 8.150302678376486 -3.722118516496902 Z" fill="#7F142A" stroke="#111" stroke-width="1" fill-opacity="0.9"/>
    <circle r="5.76" fill="#fff" stroke="#111" stroke-width="1.5"/>
  </g>
</svg>