<?xml version="1.0" encoding="UTF-8"?>
<svg xmlns="http://www.w3.org/2000/svg" width="64" height="64" viewBox="-32 -32 64 64">
  <g>
    <path d="M 5.486417660180143e-16 -8.96 L 1.3872798940741216e-15 -22.656 A 22.656 22.656 0 0 1 4.971598960529732 -22.103790167653592 L 1.9661690804354877 -8.741611930710462 A 8.96 8.96 0 0 0 5.486417660180143e-16 -8.96 Z" fill="#4A0D19" stroke="#111" stroke-width="1" fill-opacity="0.9"/><path d="M 1.9661690804354877 -8.741611930710462 L 6.7411511329216705 -29.97124090529301 A 30.72 30.72 0 1 1 -8.060281363721586 29.643722174140724 L -2.35091539775213 8.646085634124379 A 8.96 8.96 0 1 0 1.9661690804354877 -8.741611930710462 Z" fill="#A0AAE5" stroke="#111" stroke-width="1" fill-opacity="0.9"/><path d="M -2.35091539775213 8.646085634124379 L -7.995847320779901 29.406749693736135 A 30.474423734129466 30.474423734129466 0 0 1 -9.288780152741483 -29.024284060098868 L -2.7310596877785773 -8.533634218888855 A 8.96 8.96 0 0 0 -2.35091539775213 8.646085634124379 Z" fill="#7F142A" stroke="#111" stroke-width="1" fill-opacity="0.9"/><path d="M -2.7310596877785773 -8.533634218888855 L -8.150173012812681 -25.46652335107867 A 26.738906704086002 26.738906704086002 0 0 1 -2.8660777377122983e-14 -26.738906704086002 L -9.604003938567165e-15 -8.96 A 8.96 8.96 0 0 0 -2.7310596877785773 -8.533634218888855 Z" fill="#51BF7E" stroke="#111" stroke-width="1" fill-opacity="0.9"/>
    <circle r="5.76" fill="#fff" stroke="#111" stroke-width="1.5"/>
  </g>
</svg>