<?xml version="1.0" encoding="UTF-8"?>
<svg xmlns="http://www.w3.org/2000/svg" width="64" height="64" viewBox="-32 -32 64 64">
  <g>
    <path d="M 5.486417660180143e-16 -8.96 L 1.3872798940741216e-15 -22.656 A 22.656 22.656 0 0 1 2.730879027864598 -22.490812251565508 L 1.0800086550876942 -8.894671511918565 A 8.96 8.96 0 0 0 5.486417660180143e-16 -8.96 Z" fill="#e0e0e0" stroke="#111" stroke-width="1" fill-opacity="0.9"/><path d="M 1.0800086550876942 -8.894671511918565 L 2.730879027864598 -22.490812251565508 A 22.656 22.656 0 0 1 8.03392832083569 -21.183727994280755 L 3.177259787901121 -8.377745534461317 A 8.96 8.96 0 0 0 1.0800086550876942 -8.894671511918565 Z" fill="#004F61" stroke="#111" stroke-width="1" fill-opacity="0.9"/><path d="M 3.177259787901121 -8.377745534461317 L 10.893462129946698 -28.72369897529594 A 30.72 30.72 0 1 1 -5.643172450471003e-15 -30.72 L -1.6459252980540428e-15 -8.96 A 8.96 8.96 0 1 0 3.177259787901121 -8.377745534461317 Z" fill="#A0AAE5" stroke="#111" stroke-width="1" fill-opacity="0.9"/>
    <circle r="5.76" fill="#fff" stroke="#111" stroke-width="1.5"/>
  </g>
</svg>