<?xml version="1.0" encoding="UTF-8"?>
<svg xmlns="http://www.w3.org/2000/svg" width="64" height="64" viewBox="-32 -32 64 64">
  <g>
    <path d="M 5.486417660180143e-16 -8.96 L 1.3872798940741216e-15 -22.656 A 22.656 22.656 0 0 1 1.5377557117142353 -22.603752860334723 L 0.608151976384161 -8.939337289397914 A 8.96 8.96 0 0 0 5.486417660180143e-16 -8.96 Z" fill="#4A0D19" stroke="#111" stroke-width="1" fill-opacity="0.9"/><path d="M 0.608151976384161 -8.939337289397914 L 2.0191006709923665 -29.679130579440635 A 29.747732005500687 29.747732005500687 0 0 1 21.30101319999456 20.765220830146436 L 6.415853088788742 6.254472731020576 A 8.96 8.96 0 0 0 0.608151976384161 -8.939337289397914 Z" fill="#7F142A" stroke="#111" stroke-width="1" fill-opacity="0.9"/><path d="M 6.415853088788742 6.254472731020576 L 21.997210590132827 21.443906506356257 A 30.72 30.72 0 1 1 -5.643172450471003e-15 -30.72 L -1.6459252980540428e-15 -8.96 A 8.96 8.96 0 1 0 6.415853088788742 6.254472731020576 Z" fill="#A0AAE5" stroke="#111" stroke-width="1" fill-opacity="0.9"/>
    <circle r="5.76" fill="#fff" stroke="#111" stroke-width="1.5"/>
  </g>
</svg>