<?xml version="1.0" encoding="UTF-8"?>
<svg xmlns="http://www.w3.org/2000/svg" width="64" height="64" viewBox="-32 -32 64 64">
  <g>
    <path d="M 5.486417660180143e-16 -8.96 L 1.3872798940741216e-15 -22.656 A 22.656 22.656 0 0 1 3.4584221832628197 -22.390481281167574 L 1.3677375866011154 -8.854992597071924 A 8.96 8.96 0 0 0 5.486417660180143e-16 -8.96 Z" fill="#4A0D19" stroke="#111" stroke-width="1" fill-opacity="0.9"/><path d="M 1.3677375866011154 -8.854992597071924 L 4.6893860112038235 -30.359974618532306 A 30.72 30.72 0 0 1 19.545367828271925 23.70014760413008 L 5.700732283245978 6.912543051204608 A 8.96 8.96 0 0 0 1.3677375866011154 -8.854992597071924 Z" fill="#A0AAE5" stroke="#111" stroke-width="1" fill-opacity="0.9"/><path d="M 5.700732283245978 6.912543051204608 L 14.414708773350544 17.478858858045935 A 22.656 22.656 0 1 1 -6.835781881772676 -21.600148658396506 L -2.7034165634129232 -8.542431672812178 A 8.96 8.96 0 1 0 5.700732283245978 6.912543051204608 Z" fill="#7B86C9" stroke="#111" stroke-width="1" fill-opacity="0.9"/><path d="M -2.7034165634129232 -8.542431672812178 L -8.916605179654372 -28.17526959459056 A 29.552523828899936 29.552523828899936 0 0 1 -5.428710557068228e-15 -29.552523828899936 L -1.6459252980540428e-15 -8.96 A 8.96 8.96 0 0 0 -2.7034165634129232 -8.542431672812178 Z" fill="#7F142A" stroke="#111" stroke-width="1" fill-opacity="0.9"/>
    <circle r="5.76" fill="#fff" stroke="#111" stroke-width="1.5"/>
  </g>
</svg>