<?xml version="1.0" encoding="UTF-8"?>
<svg xmlns="http://www.w3.org/2000/svg" width="64" height="64" viewBox="-32 -32 64 64">
  <g>
    <path d="M 5.486417660180143e-16 -8.96 L 1.5046339770304138e-15 -24.57253761783395 A 24.57253761783395 24.57253761783395 0 0 1 7.242882611263148 -23.48084871675908 L 2.641006362721701 -8.561932339843823 A 8.96 8.96 0 0 0 5.486417660180143e-16 -8.96 Z" fill="#51BF7E" stroke="#111" stroke-width="1" fill-opacity="0.9"/><path d="M 2.641006362721701 -8.561932339843823 L 9.054878957902973 -29.355196593750243 A 30.72 30.72 0 1 1 -24.017863141417877 -19.153606713100288 L -7.005210082913549 -5.586468624654252 A 8.96 8.96 0 1 0 2.641006362721701 -8.561932339843823 Z" fill="#7F142A" stroke="#111" stroke-width="1" fill-opacity="0.9"/><path d="M -7.005210082913549 -5.586468624654252 L -20.90295486592563 -16.66955025458564 A 26.735882776094755 26.735882776094755 0 0 1 -4.911301989618494e-15 -26.735882776094755 L -1.6459252980540428e-15 -8.96 A 8.96 8.96 0 0 0 -7.005210082913549 -5.586468624654252 Z" fill="#A0AAE5" stroke="#111" stroke-width="1" fill-opacity="0.9"/>
    <circle r="5.76" fill="#fff" stroke="#111" stroke-width="1.5"/>
  </g>
</svg>