<?xml version="1.0" encoding="UTF-8"?>
<svg xmlns="http://www.w3.org/2000/svg" width="64" height="64" viewBox="-32 -32 64 64">
  <g>
    <path d="M 5.486417660180143e-16 -8.96 L 1.837728363545267e-15 -30.01238177121379 A 30.01238177121379 30.01238177121379 0 0 1 29.886969606117344 -2.740822384632724 L 8.922559019546329 -0.818254570847278 A 8.96 8.96 0 0 0 5.486417660180143e-16 -8.96 Z" fill="#7F142A" stroke="#111" stroke-width="1" fill-opacity="0.9"/><path d="M 8.922559019546329 -0.818254570847278 L 30.59163092415884 -2.805444242904953 A 30.72 30.72 0 0 1 -30.396533604816206 4.446250646474974 L -8.865655634738062 1.2968231052218677 A 8.96 8.96 0 0 0 8.922559019546329 -0.818254570847278 Z" fill="#A0AAE5" stroke="#111" stroke-width="1" fill-opacity="0.9"/><path d="M -8.865655634738062 1.2968231052218677 L -22.41744353355195 3.2791098517752935 A 22.656 22.656 0 0 1 -21.36731250799269 -7.532084186052297 L -8.450349579432139 -2.978790356065881 A 8.96 8.96 0 0 0 -8.865655634738062 1.2968231052218677 Z" fill="#7B86C9" stroke="#111" stroke-width="1" fill-opacity="0.9"/><path d="M -8.450349579432139 -2.978790356065881 L -21.36731250799269 -7.532084186052297 A 22.656 22.656 0 0 1 -15.40573866730477 -16.611970145491792 L -6.092665009668554 -6.569705707256642 A 8.96 8.96 0 0 0 -8.450349579432139 -2.978790356065881 Z" fill="#004F61" stroke="#111" stroke-width="1" fill-opacity="0.9"/><path d="M -6.092665009668554 -6.569705707256642 L -15.40573866730477 -16.611970145491792 A 22.656 22.656 0 0 1 -10.867588154744231 -19.879382880232043 L -4.297916219390375 -7.861902833990074 A 8.96 8.96 0 0 0 -6.092665009668554 -6.569705707256642 Z" fill="#4A0D19" stroke="#111" stroke-width="1" fill-opacity="0.9"/><path d="M -4.297916219390375 -7.861902833990074 L -12.912484793460065 -23.619981314097547 A 26.91905980564059 26.91905980564059 0 0 1 -5.1806156447629235 -26.41584756090352 L -1.7243661744586398 -8.79250597363362 A 8.96 8.96 0 0 0 -4.297916219390375 -7.861902833990074 Z" fill="#51BF7E" stroke="#111" stroke-width="1" fill-opacity="0.9"/><path d="M -1.7243661744586398 -8.79250597363362 L -4.3601830411311315 -22.23247939047358 A 22.656 22.656 0 0 1 -4.1618396822223646e-15 -22.656 L -1.6459252980540428e-15 -8.96 A 8.96 8.96 0 0 0 -1.7243661744586398 -8.79250597363362 Z" fill="#e0e0e0" stroke="#111" stroke-width="1" fill-opacity="0.9"/>
    <circle r="5.76" fill="#fff" stroke="#111" stroke-width="1.5"/>
  </g>
</svg>