<?xml version="1.0" encoding="UTF-8"?>
<svg xmlns="http://www.w3.org/2000/svg" width="64" height="64" viewBox="-32 -32 64 64">
  <g>
    <path d="M 5.486417660180143e-16 -8.96 L 1.607823947609452e-15 -26.257757726209412 A 26.257757726209412 26.257757726209412 0 0 1 3.2425852892771916 -26.056774195016413 L 1.1064754460326052 -8.89141788959033 A 8.96 8.96 0 0 0 5.486417660180143e-16 -8.96 Z" fill="#51BF7E" stroke="#111" stroke-width="1" fill-opacity="0.9"/><path d="M 1.1064754460326052 -8.89141788959033 L 3.6331265089246485 -29.19508621038625 A 29.420276461341018 29.420276461341018 0 0 1 28.222710939952922 -8.308504935401917 L 8.595279189652176 -2.530370655048831 A 8.96 8.96 0 0 0 1.1064754460326052 -8.89141788959033 Z" fill="#7F142A" stroke="#111" stroke-width="1" fill-opacity="0.9"/><path d="M 8.595279189652176 -2.530370655048831 L 29.46952865023603 -8.67555653159599 A 30.72 30.72 0 1 1 -30.23476966712509 -5.438483536418267 L -8.818474486244819 -1.5862243647886616 A 8.96 8.96 0 1 0 8.595279189652176 -2.530370655048831 Z" fill="#A0AAE5" stroke="#111" stroke-width="1" fill-opacity="0.9"/><path d="M -8.818474486244819 -1.5862243647886616 L -22.298142629504753 -4.010881608108472 A 22.656 22.656 0 0 1 1.5960730594503672e-14 -22.656 L 6.31215334245908e-15 -8.96 A 8.96 8.96 0 0 0 -8.818474486244819 -1.5862243647886616 Z" fill="#7B86C9" stroke="#111" stroke-width="1" fill-opacity="0.9"/>
    <circle r="5.76" fill="#fff" stroke="#111" stroke-width="1.5"/>
  </g>
</svg>