<?xml version="1.0" encoding="UTF-8"?>
<svg xmlns="http://www.w3.org/2000/svg" width="64" height="64" viewBox="-32 -32 64 64">
  <g>
    <path d="M 5.486417660180143e-16 -8.96 L 1.5381253963941823e-15 -25.1194940037419 A 25.1194940037419 25.1194940037419 0 0 1 4.900570174072212 -24.636829970047263 L 1.74800928526451 -8.787836112412945 A 8.96 8.96 0 0 0 5.486417660180143e-16 -8.96 Z" fill="#51BF7E" stroke="#111" stroke-width="1" fill-opacity="0.9"/><path d="M 1.74800928526451 -8.787836112412945 L 4.419966335597403 -22.220671312815586 A 22.656 22.656 0 0 1 22.546905167485292 -2.2206763313065223 L 8.916855150982885 -0.8782335773528621 A 8.96 8.96 0 0 0 1.74800928526451 -8.787836112412945 Z" fill="#e0e0e0" stroke="#111" stroke-width="1" fill-opacity="0.9"/><path d="M 8.916855150982885 -0.8782335773528621 L 22.546905167485292 -2.2206763313065223 A 22.656 22.656 0 0 1 22.656 0 L 8.96 0 A 8.96 8.96 0 0 0 8.916855150982885 -0.8782335773528621 Z" fill="#004F61" stroke="#111" stroke-width="1" fill-opacity="0.9"/><path d="M 8.96 0 L 27.557363597848095 0 A 27.557363597848095 27.557363597848095 0 0 1 25.45968419802345 10.545746488557288 L 8.27796061130113 3.4288435539912046 A 8.96 8.96 0 0 0 8.96 0 Z" fill="#7F142A" stroke="#111" stroke-width="1" fill-opacity="0.9"/><path d="M 8.27796061130113 3.4288435539912046 L 28.381579238746728 11.756035042255558 A 30.72 30.72 0 0 1 -29.397207113693455 8.917545285257084 L -8.574185408160591 2.600950708199983 A 8.96 8.96 0 0 0 8.27796061130113 3.4288435539912046 Z" fill="#A0AAE5" stroke="#111" stroke-width="1" fill-opacity="0.9"/><path d="M -8.574185408160591 2.600950708199983 L -21.680440246348923 6.5766896478770995 A 22.656 22.656 0 0 1 -4.1618396822223646e-15 -22.656 L -1.6459252980540428e-15 -8.96 A 8.96 8.96 0 0 0 -8.574185408160591 2.600950708199983 Z" fill="#7B86C9" stroke="#111" stroke-width="1" fill-opacity="0.9"/>
    <circle r="5.76" fill="#fff" stroke="#111" stroke-width="1.5"/>
  </g>
</svg>