<?xml version="1.0" encoding="UTF-8"?>
<svg xmlns="http://www.w3.org/2000/svg" width="64" height="64" viewBox="-32 -32 64 64">
  <g>
    <path d="M 5.486417660180143e-16 -8.96 L 1.3872798940741216e-15 -22.656 A 22.656 22.656 0 0 1 2.193347086651227 -22.549580141489965 L 0.8674254015004854 -8.917913050306767 A 8.96 8.96 0 0 0 5.486417660180143e-16 -8.96 Z" fill="#004F61" stroke="#111" stroke-width="1" fill-opacity="0.9"/><path d="M 0.8674254015004854 -8.917913050306767 L 2.193347086651227 -22.549580141489965 A 22.656 22.656 0 0 1 3.5007777698544356 -22.383898029746582 L 1.3844883835582515 -8.85238905131221 A 8.96 8.96 0 0 0 0.8674254015004854 -8.917913050306767 Z" fill="#4A0D19" stroke="#111" stroke-width="1" fill-opacity="0.9"/><path d="M 1.3844883835582515 -8.85238905131221 L 4.7468173150568616 -30.351048175927573 A 30.72 30.72 0 1 1 -11.618299643032868 28.438240335940307 L -3.3886707292179206 8.294486764649257 A 8.96 8.96 0 1 0 1.3844883835582515 -8.85238905131221 Z" fill="#7F142A" stroke="#111" stroke-width="1" fill-opacity="0.9"/><path d="M -3.3886707292179206 8.294486764649257 L -11.432653745440778 27.98383282233558 A 30.229132820700748 30.229132820700748 0 0 1 -19.87630078292314 -22.77571378197259 L -5.891391462378806 -6.750785631095845 A 8.96 8.96 0 0 0 -3.3886707292179206 8.294486764649257 Z" fill="#A0AAE5" stroke="#111" stroke-width="1" fill-opacity="0.9"/><path d="M -5.891391462378806 -6.750785631095845 L -14.896804126300692 -17.069843667199493 A 22.656 22.656 0 0 1 1.5960730594503672e-14 -22.656 L 6.31215334245908e-15 -8.96 A 8.96 8.96 0 0 0 -5.891391462378806 -6.750785631095845 Z" fill="#7B86C9" stroke="#111" stroke-width="1" fill-opacity="0.9"/>
    <circle r="5.76" fill="#fff" stroke="#111" stroke-width="1.5"/>
  </g>
</svg>