<?xml version="1.0" encoding="UTF-8"?>
<svg xmlns="http://www.w3.org/2000/svg" width="64" height="64" viewBox="-32 -32 64 64">
  <g>
    <path d="M 5.486417660180143e-16 -8.96 L 1.7792554361555993e-15 -29.057446398331116 A 29.057446398331116 29.057446398331116 0 0 1 18.216804885605743 -22.638092034260676 L 5.617237300811196 -6.980561947750007 A 8.96 8.96 0 0 0 5.486417660180143e-16 -8.96 Z" fill="#A0AAE5" stroke="#111" stroke-width="1" fill-opacity="0.9"/><path d="M 5.617237300811196 -6.980561947750007 L 19.25909931706695 -23.933355249428594 A 30.72 30.72 0 1 1 -12.839741794922006 -27.908053150295757 L -3.7449246901855857 -8.13984883550293 A 8.96 8.96 0 1 0 5.617237300811196 -6.980561947750007 Z" fill="#7F142A" stroke="#111" stroke-width="1" fill-opacity="0.9"/><path d="M -3.7449246901855857 -8.13984883550293 L -10.53085205085765 -22.889524061104503 A 25.195816253118984 25.195816253118984 0 0 1 -2.7006776621693002e-14 -25.195816253118984 L -9.604003938567165e-15 -8.96 A 8.96 8.96 0 0 0 -3.7449246901855857 -8.13984883550293 Z" fill="#51BF7E" stroke="#111" stroke-width="1" fill-opacity="0.9"/>
    <circle r="5.76" fill="#fff" stroke="#111" stroke-width="1.5"/>
  </g>
</svg>