<?xml version="1.0" encoding="UTF-8"?>
<svg xmlns="http://www.w3.org/2000/svg" width="64" height="64" viewBox="-32 -32 64 64">
  <g>
    <path d="M 5.486417660180143e-16 -8.96 L 1.594398035523683e-15 -26.03849594240176 A 26.03849594240176 26.03849594240176 0 0 1 22.777515027148322 -12.616975871043952 L 7.837877237406373 -4.341575798180545 A 8.96 8.96 0 0 0 5.486417660180143e-16 -8.96 Z" fill="#51BF7E" stroke="#111" stroke-width="1" fill-opacity="0.9"/><path d="M 7.837877237406373 -4.341575798180545 L 23.77892508175991 -13.171679335447157 A 27.183274537108222 27.183274537108222 0 0 1 26.025866116672155 -7.84759246118531 L 8.578501463723569 -2.5866798481630053 A 8.96 8.96 0 0 0 7.837877237406373 -4.341575798180545 Z" fill="#A0AAE5" stroke="#111" stroke-width="1" fill-opacity="0.9"/><path d="M 8.578501463723569 -2.5866798481630053 L 29.412005018480805 -8.86861662227316 A 30.72 30.72 0 1 1 -5.643172450471003e-15 -30.72 L -1.6459252980540428e-15 -8.96 A 8.96 8.96 0 1 0 8.578501463723569 -2.5866798481630053 Z" fill="#7F142A" stroke="#111" stroke-width="1" fill-opacity="0.9"/>
    <circle r="5.76" fill="#fff" stroke="#111" stroke-width="1.5"/>
  </g>
</svg>