<?xml version="1.0" encoding="UTF-8"?>
<svg xmlns="http://www.w3.org/2000/svg" width="64" height="64" viewBox="-32 -32 64 64">
  <g>
    <path d="M 5.486417660180143e-16 -8.96 L 1.7252973528554035e-15 -28.176244024915963 A 28.176244024915963 28.176244024915963 0 0 1 10.625116279947171 -26.09612291872519 L 3.378769781527352 -8.298524854661677 A 8.96 8.96 0 0 0 5.486417660180143e-16 -8.96 Z" fill="#A0AAE5" stroke="#111" stroke-width="1" fill-opacity="0.9"/><path d="M 3.378769781527352 -8.298524854661677 L 11.584353536665205 -28.45208521598289 A 30.72 30.72 0 1 1 -2.964907650493891 -30.576587818526164 L -0.8647647313940517 -8.918171447070133 A 8.96 8.96 0 1 0 3.378769781527352 -8.298524854661677 Z" fill="#7F142A" stroke="#111" stroke-width="1" fill-opacity="0.9"/><path d="M -0.8647647313940517 -8.918171447070133 L -2.1866193922392445 -22.550233516163047 A 22.656 22.656 0 0 1 1.5960730594503672e-14 -22.656 L 6.31215334245908e-15 -8.96 A 8.96 8.96 0 0 0 -0.8647647313940517 -8.918171447070133 Z" fill="#4A0D19" stroke="#111" stroke-width="1" fill-opacity="0.9"/>
    <circle r="5.76" fill="#fff" stroke="#111" stroke-width="1.5"/>
  </g>
</svg>