<?xml version="1.0" encoding="UTF-8"?>
<svg xmlns="http://www.w3.org/2000/svg" width="64" height="64" viewBox="-32 -32 64 64">
  <g>
    <path d="M 5.486417660180143e-16 -8.96 L 1.8328614870881875e-15 -29.932899646890796 A 29.932899646890796 29.932899646890796 0 1 1 -2.4085977263273857 29.835836476686318 L -0.7209804557018602 8.930945480882523 A 8.96 8.96 0 1 0 5.486417660180143e-16 -8.96 Z" fill="#A0AAE5" stroke="#111" stroke-width="1" fill-opacity="0.9"/><path d="M -0.7209804557018602 8.930945480882523 L -2.471932990977806 30.62038450588293 A 30.72 30.72 0 0 1 -9.72804076958125 -29.139039496616306 L -2.837345224461198 -8.498886519846423 A 8.96 8.96 0 0 0 -0.7209804557018602 8.930945480882523 Z" fill="#7F142A" stroke="#111" stroke-width="1" fill-opacity="0.9"/><path d="M -2.837345224461198 -8.498886519846423 L -7.780681451536384 -23.305986220354622 A 24.57047003119073 24.57047003119073 0 0 1 -4.513522121586554e-15 -24.57047003119073 L -1.6459252980540428e-15 -8.96 A 8.96 8.96 0 0 0 -2.837345224461198 -8.498886519846423 Z" fill="#51BF7E" stroke="#111" stroke-width="1" fill-opacity="0.9"/>
    <circle r="5.76" fill="#fff" stroke="#111" stroke-width="1.5"/>
  </g>
</svg>