<?xml version="1.0" encoding="UTF-8"?>
<svg xmlns="http://www.w3.org/2000/svg" width="64" height="64" viewBox="-32 -32 64 64">
  <g>
    <path d="M 5.486417660180143e-16 -8.96 L 1.809920649638342e-15 -29.558247339534617 A 29.558247339534617 29.558247339534617 0 0 1 21.60223019676008 20.17507462963377 L 6.548290239931993 6.11567616323914 A 8.96 8.96 0 0 0 5.486417660180143e-16 -8.96 Z" fill="#A0AAE5" stroke="#111" stroke-width="1" fill-opacity="0.9"/><path d="M 6.548290239931993 6.11567616323914 L 16.55781960668518 15.463924012761824 A 22.656 22.656 0 0 1 3.084991601924573 22.444980793399107 L 1.2200531759023736 8.876546076485523 A 8.96 8.96 0 0 0 6.548290239931993 6.11567616323914 Z" fill="#7B86C9" stroke="#111" stroke-width="1" fill-opacity="0.9"/><path d="M 1.2200531759023736 8.876546076485523 L 4.183039460236709 30.433872262236076 A 30.72 30.72 0 0 1 -4.183039460236713 -30.433872262236076 L -1.2200531759023745 -8.876546076485523 A 8.96 8.96 0 0 0 1.2200531759023736 8.876546076485523 Z" fill="#7F142A" stroke="#111" stroke-width="1" fill-opacity="0.9"/><path d="M -1.2200531759023745 -8.876546076485523 L -3.31476911380349 -24.1167363462051 A 24.34347276520332 24.34347276520332 0 0 1 -4.4718234003055514e-15 -24.34347276520332 L -1.6459252980540428e-15 -8.96 A 8.96 8.96 0 0 0 -1.2200531759023745 -8.876546076485523 Z" fill="#51BF7E" stroke="#111" stroke-width="1" fill-opacity="0.9"/>
    <circle r="5.76" fill="#fff" stroke="#111" stroke-width="1.5"/>
  </g>
</svg>