<?xml version="1.0" encoding="UTF-8"?>
<svg xmlns="http://www.w3.org/2000/svg" width="64" height="64" viewBox="-32 -32 64 64">
  <g>
    <path d="M 5.486417660180143e-16 -8.96 L 1.3872798940741216e-15 -22.656 A 22.656 22.656 0 0 1 1.693085000294031 -22.592649228936814 L 0.6695816385343626 -8.934946022743375 A 8.96 8.96 0 0 0 5.486417660180143e-16 -8.96 Z" fill="#4A0D19" stroke="#111" stroke-width="1" fill-opacity="0.9"/><path d="M 0.6695816385343626 -8.934946022743375 L 2.0309418254468916 -27.101035245560443 A 27.1770277270981 27.1770277270981 0 0 1 9.92888314905194 -25.298381677331285 L 3.2734555783228996 -8.34062878785207 A 8.96 8.96 0 0 0 0.6695816385343626 -8.934946022743375 Z" fill="#A0AAE5" stroke="#111" stroke-width="1" fill-opacity="0.9"/><path d="M 3.2734555783228996 -8.34062878785207 L 11.223276268535653 -28.596441558349955 A 30.72 30.72 0 1 1 -2.2957084749749677 -30.634100649405852 L -0.6695816385343656 -8.934946022743375 A 8.96 8.96 0 1 0 3.2734555783228996 -8.34062878785207 Z" fill="#7F142A" stroke="#111" stroke-width="1" fill-opacity="0.9"/><path d="M -0.6695816385343656 -8.934946022743375 L -1.7078295908181018 -22.78940211593104 A 22.853304590646754 22.853304590646754 0 0 1 -4.198083947531259e-15 -22.853304590646754 L -1.6459252980540428e-15 -8.96 A 8.96 8.96 0 0 0 -0.6695816385343656 -8.934946022743375 Z" fill="#51BF7E" stroke="#111" stroke-width="1" fill-opacity="0.9"/>
    <circle r="5.76" fill="#fff" stroke="#111" stroke-width="1.5"/>
  </g>
</svg>