<?xml version="1.0" encoding="UTF-8"?>
<svg xmlns="http://www.w3.org/2000/svg" width="64" height="64" viewBox="-32 -32 64 64">
  <g>
    <path d="M 5.486417660180143e-16 -8.96 L 1.7554898480281436e-15 -28.669324890252177 A 28.669324890252177 28.669324890252177 0 0 1 20.60818973190428 -19.93069757024746 L 6.440660207546247 -6.2289241519647955 A 8.96 8.96 0 0 0 5.486417660180143e-16 -8.96 Z" fill="#7F142A" stroke="#111" stroke-width="1" fill-opacity="0.9"/><path d="M 6.440660207546247 -6.2289241519647955 L 22.082263568729985 -21.35631137816501 A 30.72 30.72 0 1 1 -8.116082745485913 -29.628493057670443 L -2.3671908007667253 -8.641643808487213 A 8.96 8.96 0 1 0 6.440660207546247 -6.2289241519647955 Z" fill="#A0AAE5" stroke="#111" stroke-width="1" fill-opacity="0.9"/><path d="M -2.3671908007667253 -8.641643808487213 L -5.985611024795861 -21.85101363003195 A 22.656 22.656 0 0 1 -3.0197492609483385 -22.453851571634694 L -1.1942511201490607 -8.88005429386683 A 8.96 8.96 0 0 0 -2.3671908007667253 -8.641643808487213 Z" fill="#7B86C9" stroke="#111" stroke-width="1" fill-opacity="0.9"/><path d="M -1.1942511201490607 -8.88005429386683 L -3.3678428655231145 -25.042159889558654 A 25.267610443037057 25.267610443037057 0 0 1 -4.6415847376751345e-15 -25.267610443037057 L -1.6459252980540428e-15 -8.96 A 8.96 8.96 0 0 0 -1.1942511201490607 -8.88005429386683 Z" fill="#51BF7E" stroke="#111" stroke-width="1" fill-opacity="0.9"/>
    <circle r="5.76" fill="#fff" stroke="#111" stroke-width="1.5"/>
  </g>
</svg>