<?xml version="1.0" encoding="UTF-8"?>
<svg xmlns="http://www.w3.org/2000/svg" width="64" height="64" viewBox="-32 -32 64 64">
  <g>
    <path d="M 5.486417660180143e-16 -8.96 L 1.8336896684380275e-15 -29.94642487474288 A 29.94642487474288 29.94642487474288 0 0 1 29.94642487474288 0 L 8.96 0 A 8.96 8.96 0 0 0 5.486417660180143e-16 -8.96 Z" fill="#7F142A" stroke="#111" stroke-width="1" fill-opacity="0.9"/><path d="M 8.96 0 L 30.72 0 A 30.72 30.72 0 0 1 -30.72 3.762114966980669e-15 L -8.96 1.0972835320360286e-15 A 8.96 8.96 0 0 0 8.96 0 Z" fill="#A0AAE5" stroke="#111" stroke-width="1" fill-opacity="0.9"/><path d="M -8.96 1.0972835320360286e-15 L -22.656 2.7745597881482432e-15 A 22.656 22.656 0 0 1 -16.020211234562424 -16.020211234562417 L -6.335676759431468 -6.335676759431466 A 8.96 8.96 0 0 0 -8.96 1.0972835320360286e-15 Z" fill="#7B86C9" stroke="#111" stroke-width="1" fill-opacity="0.9"/><path d="M -6.335676759431468 -6.335676759431466 L -18.09835908028482 -18.098359080284812 A 25.59494486803704 25.59494486803704 0 0 1 -4.70171509604918e-15 -25.59494486803704 L -1.6459252980540428e-15 -8.96 A 8.96 8.96 0 0 0 -6.335676759431468 -6.335676759431466 Z" fill="#51BF7E" stroke="#111" stroke-width="1" fill-opacity="0.9"/>
    <circle r="5.76" fill="#fff" stroke="#111" stroke-width="1.5"/>
  </g>
</svg>