<?xml version="1.0" encoding="UTF-8"?>
<svg xmlns="http://www.w3.org/2000/svg" width="64" height="64" viewBox="-32 -32 64 64">
  <g>
    <path d="M 5.486417660180143e-16 -8.96 L 1.3872798940741216e-15 -22.656 A 22.656 22.656 0 0 1 5.224833167540726 -22.04530458785649 L 2.066318201852265 -8.718482040395223 A 8.96 8.96 0 0 0 5.486417660180143e-16 -8.96 Z" fill="#004F61" stroke="#111" stroke-width="1" fill-opacity="0.9"/><path d="M 2.066318201852265 -8.718482040395223 L 5.955417204167555 -25.127881025803315 A 25.823969464871606 25.823969464871606 0 0 1 14.190503070373296 -21.575611730200077 L 4.923600443514422 -7.485970790259911 A 8.96 8.96 0 0 0 2.066318201852265 -8.718482040395223 Z" fill="#A0AAE5" stroke="#111" stroke-width="1" fill-opacity="0.9"/><path d="M 4.923600443514422 -7.485970790259911 L 16.88091580633516 -25.666185566605403 A 30.72 30.72 0 1 1 -7.084519549207795 -29.891938424212178 L -2.066318201852274 -8.71848204039522 A 8.96 8.96 0 1 0 4.923600443514422 -7.485970790259911 Z" fill="#7F142A" stroke="#111" stroke-width="1" fill-opacity="0.9"/><path d="M -2.066318201852274 -8.71848204039522 L -5.584261095563278 -23.56185026435095 A 24.214556776103016 24.214556776103016 0 0 1 -2.5954988688432097e-14 -24.214556776103016 L -9.604003938567165e-15 -8.96 A 8.96 8.96 0 0 0 -2.066318201852274 -8.71848204039522 Z" fill="#51BF7E" stroke="#111" stroke-width="1" fill-opacity="0.9"/>
    <circle r="5.76" fill="#fff" stroke="#111" stroke-width="1.5"/>
  </g>
</svg>