<?xml version="1.0" encoding="UTF-8"?>
<svg xmlns="http://www.w3.org/2000/svg" width="64" height="64" viewBox="-32 -32 64 64">
  <g>
    <path d="M 5.486417660180143e-16 -8.96 L 1.3872798940741216e-15 -22.656 A 22.656 22.656 0 0 1 0.7317588105521031 -22.644179495914162 L 0.2893961397663685 -8.955325224372833 A 8.96 8.96 0 0 0 5.486417660180143e-16 -8.96 Z" fill="#4A0D19" stroke="#111" stroke-width="1" fill-opacity="0.9"/><path d="M 0.2893961397663685 -8.955325224372833 L 0.9429968456414272 -29.180912520444355 A 29.196145269139826 29.196145269139826 0 0 1 25.085827145790084 -14.937073842900329 L 7.698585178087152 -4.584036022517367 A 8.96 8.96 0 0 0 0.2893961397663685 -8.955325224372833 Z" fill="#A0AAE5" stroke="#111" stroke-width="1" fill-opacity="0.9"/><path d="M 7.698585178087152 -4.584036022517367 L 26.39514918201309 -15.716694934345256 A 30.72 30.72 0 1 1 -1.9833953190963292 -30.65590551603698 L -0.5784903014030961 -8.941305775510788 A 8.96 8.96 0 1 0 7.698585178087152 -4.584036022517367 Z" fill="#7F142A" stroke="#111" stroke-width="1" fill-opacity="0.9"/><path d="M -0.5784903014030961 -8.941305775510788 L -1.5578040862998226 -24.07784994867394 A 24.12819122359051 24.12819122359051 0 0 1 -4.432276822677806e-15 -24.12819122359051 L -1.6459252980540428e-15 -8.96 A 8.96 8.96 0 0 0 -0.5784903014030961 -8.941305775510788 Z" fill="#51BF7E" stroke="#111" stroke-width="1" fill-opacity="0.9"/>
    <circle r="5.76" fill="#fff" stroke="#111" stroke-width="1.5"/>
  </g>
</svg>