<?xml version="1.0" encoding="UTF-8"?>
<svg xmlns="http://www.w3.org/2000/svg" width="64" height="64" viewBox="-32 -32 64 64">
  <g>
    <path d="M 5.486417660180143e-16 -8.96 L 1.8810574834903343e-15 -30.72 A 30.72 30.72 0 0 1 11.678569270410382 28.41354289412403 L 3.406249370536362 8.28728334411951 A 8.96 8.96 0 0 0 5.486417660180143e-16 -8.96 Z" fill="#A0AAE5" stroke="#111" stroke-width="1" fill-opacity="0.9"/><path d="M 3.406249370536362 8.28728334411951 L 8.612944836927657 20.95498788441647 A 22.656 22.656 0 0 1 -9.362730646413251 20.63088972494192 L -3.7027748319148457 8.159108930767992 A 8.96 8.96 0 0 0 3.406249370536362 8.28728334411951 Z" fill="#7B86C9" stroke="#111" stroke-width="1" fill-opacity="0.9"/><path d="M -3.7027748319148457 8.159108930767992 L -12.568448054486545 27.694726636732494 A 30.413217027826356 30.413217027826356 0 0 1 -25.21226515539831 -17.008981619002217 L -7.42775404475237 -5.0109948962920345 A 8.96 8.96 0 0 0 -3.7027748319148457 8.159108930767992 Z" fill="#7F142A" stroke="#111" stroke-width="1" fill-opacity="0.9"/><path d="M -7.42775404475237 -5.0109948962920345 L -18.781606656016706 -12.670658523481286 A 22.656 22.656 0 0 1 -13.348147544348144 -18.3063183937763 L -5.278928407369324 -7.239786935391758 A 8.96 8.96 0 0 0 -7.42775404475237 -5.0109948962920345 Z" fill="#4A0D19" stroke="#111" stroke-width="1" fill-opacity="0.9"/><path d="M -5.278928407369324 -7.239786935391758 L -13.348147544348144 -18.3063183937763 A 22.656 22.656 0 0 1 -7.386346993005567 -21.418128165152936 L -2.921154178024801 -8.470446167009637 A 8.96 8.96 0 0 0 -5.278928407369324 -7.239786935391758 Z" fill="#004F61" stroke="#111" stroke-width="1" fill-opacity="0.9"/><path d="M -2.921154178024801 -8.470446167009637 L -8.785262387022023 -25.474551351014938 A 26.946866269462966 26.946866269462966 0 0 1 -4.378222715782817 -26.588809066886096 L -1.455786180891447 -8.84094376158595 A 8.96 8.96 0 0 0 -2.921154178024801 -8.470446167009637 Z" fill="#51BF7E" stroke="#111" stroke-width="1" fill-opacity="0.9"/><path d="M -1.455786180891447 -8.84094376158595 L -3.68105934311123 -22.35495779715304 A 22.656 22.656 0 0 1 -4.1618396822223646e-15 -22.656 L -1.6459252980540428e-15 -8.96 A 8.96 8.96 0 0 0 -1.455786180891447 -8.84094376158595 Z" fill="#e0e0e0" stroke="#111" stroke-width="1" fill-opacity="0.9"/>
    <circle r="5.76" fill="#fff" stroke="#111" stroke-width="1.5"/>
  </g>
</svg>