<?xml version="1.0" encoding="UTF-8"?>
<svg xmlns="http://www.w3.org/2000/svg" width="64" height="64" viewBox="-32 -32 64 64">
  <g>
    <path d="M 5.486417660180143e-16 -8.96 L 1.8317682359778843e-15 -29.91504550133529 A 29.91504550133529 29.91504550133529 0 0 1 27.21168253050083 12.427159015889222 L 8.150302678376486 3.722118516496902 A 8.96 8.96 0 0 0 5.486417660180143e-16 -8.96 Z" fill="#51BF7E" stroke="#111" stroke-width="1" fill-opacity="0.9"/><path d="M 8.150302678376486 3.722118516496902 L 27.757527538910285 12.676438078656858 A 30.515117850589803 30.515117850589803 0 0 1 -16.497718259496757 25.670950696568518 L -4.844141724402151 7.537631654167386 A 8.96 8.96 0 0 0 8.150302678376486 3.722118516496902 Z" fill="#7F142A" stroke="#111" stroke-width="1" fill-opacity="0.9"/><path d="M -4.844141724402151 7.537631654167386 L -16.608485912235945 25.843308528573893 A 30.72 30.72 0 0 1 -5.643172450471003e-15 -30.72 L -1.6459252980540428e-15 -8.96 A 8.96 8.96 0 0 0 -4.844141724402151 7.537631654167386 Z" fill="#A0AAE5" stroke="#111" stroke-width="1" fill-opacity="0.9"/>
    <circle r="5.76" fill="#fff" stroke="#111" stroke-width="1.5"/>
  </g>
</svg>