<?xml version="1.0" encoding="UTF-8"?>
<svg xmlns="http://www.w3.org/2000/svg" width="64" height="64" viewBox="-32 -32 64 64">
  <g>
    <path d="M 5.486417660180143e-16 -8.96 L 1.4719272401908325e-15 -24.038396070044776 A 24.038396070044776 24.038396070044776 0 0 1 3.0739618608853094 -23.841041170598373 L 1.1457793686931739 -8.886438523856286 A 8.96 8.96 0 0 0 5.486417660180143e-16 -8.96 Z" fill="#51BF7E" stroke="#111" stroke-width="1" fill-opacity="0.9"/><path d="M 1.1457793686931739 -8.886438523856286 L 2.897184975124168 -22.469994553179465 A 22.656 22.656 0 0 1 22.36559048503778 -3.6158952218762397 L 8.845148779393474 -1.4300150594990781 A 8.96 8.96 0 0 0 1.1457793686931739 -8.886438523856286 Z" fill="#4A0D19" stroke="#111" stroke-width="1" fill-opacity="0.9"/><path d="M 8.845148779393474 -1.4300150594990781 L 24.44763038727912 -3.9525032868100287 A 24.76507447566547 24.76507447566547 0 0 1 24.75235058161112 -0.7937597056246118 L 8.955396497158164 -0.2871821350420312 A 8.96 8.96 0 0 0 8.845148779393474 -1.4300150594990781 Z" fill="#A0AAE5" stroke="#111" stroke-width="1" fill-opacity="0.9"/><path d="M 8.955396497158164 -0.2871821350420312 L 30.70421656168513 -0.9846244630012498 A 30.72 30.72 0 1 1 -5.643172450471003e-15 -30.72 L -1.6459252980540428e-15 -8.96 A 8.96 8.96 0 1 0 8.955396497158164 -0.2871821350420312 Z" fill="#7F142A" stroke="#111" stroke-width="1" fill-opacity="0.9"/>
    <circle r="5.76" fill="#fff" stroke="#111" stroke-width="1.5"/>
  </g>
</svg>