<?xml version="1.0" encoding="UTF-8"?>
<svg xmlns="http://www.w3.org/2000/svg" width="64" height="64" viewBox="-32 -32 64 64">
  <g>
    <path d="M 5.486417660180143e-16 -8.96 L 1.8810574834903343e-15 -30.72 A 30.72 30.72 0 0 1 12.494949675288575 28.064116458780703 L 3.644360321959168 8.185367300477706 A 8.96 8.96 0 0 0 5.486417660180143e-16 -8.96 Z" fill="#A0AAE5" stroke="#111" stroke-width="1" fill-opacity="0.9"/><path d="M 3.644360321959168 8.185367300477706 L 12.429954947394979 27.918135909821785 A 30.56020439515334 30.56020439515334 0 0 1 -12.429954947394982 -27.918135909821785 L -3.6443603219591694 -8.185367300477706 A 8.96 8.96 0 0 0 3.644360321959168 8.185367300477706 Z" fill="#7F142A" stroke="#111" stroke-width="1" fill-opacity="0.9"/><path d="M -3.6443603219591694 -8.185367300477706 L -9.215025385525326 -20.697285888350766 A 22.656 22.656 0 0 1 -4.710447267167146 -22.1609120422251 L -1.8628887497271203 -8.7642025025749 A 8.96 8.96 0 0 0 -3.6443603219591694 -8.185367300477706 Z" fill="#4A0D19" stroke="#111" stroke-width="1" fill-opacity="0.9"/><path d="M -1.8628887497271203 -8.7642025025749 L -5.0009754825257495 -23.52773983185423 A 24.053363535527495 24.053363535527495 0 0 1 1.6945147214080715e-14 -24.053363535527495 L 6.31215334245908e-15 -8.96 A 8.96 8.96 0 0 0 -1.8628887497271203 -8.7642025025749 Z" fill="#51BF7E" stroke="#111" stroke-width="1" fill-opacity="0.9"/>
    <circle r="5.76" fill="#fff" stroke="#111" stroke-width="1.5"/>
  </g>
</svg>