<?xml version="1.0" encoding="UTF-8"?>
<svg xmlns="http://www.w3.org/2000/svg" width="64" height="64" viewBox="-32 -32 64 64">
  <g>
    <path d="M 5.486417660180143e-16 -8.96 L 1.3872798940741216e-15 -22.656 A 22.656 22.656 0 0 1 22.617669633793852 -1.3173292437957405 L 8.944841098110563 -0.5209776670378635 A 8.96 8.96 0 0 0 5.486417660180143e-16 -8.96 Z" fill="#4A0D19" stroke="#111" stroke-width="1" fill-opacity="0.9"/><path d="M 8.944841098110563 -0.5209776670378635 L 25.832932965663826 -1.5045970075466069 A 25.87671226728 25.87671226728 0 0 1 25.871846680678125 0.5017839127388641 L 8.958315255218574 0.1737463326755464 A 8.96 8.96 0 0 0 8.944841098110563 -0.5209776670378635 Z" fill="#A0AAE5" stroke="#111" stroke-width="1" fill-opacity="0.9"/><path d="M 8.958315255218574 0.1737463326755464 L 30.714223732177963 0.5957017120304448 A 30.72 30.72 0 1 1 -5.643172450471003e-15 -30.72 L -1.6459252980540428e-15 -8.96 A 8.96 8.96 0 1 0 8.958315255218574 0.1737463326755464 Z" fill="#7F142A" stroke="#111" stroke-width="1" fill-opacity="0.9"/>
    <circle r="5.76" fill="#fff" stroke="#111" stroke-width="1.5"/>
  </g>
</svg>