<?xml version="1.0" encoding="UTF-8"?>
<svg xmlns="http://www.w3.org/2000/svg" width="64" height="64" viewBox="-32 -32 64 64">
  <g>
    <path d="M 5.486417660180143e-16 -8.96 L 1.3872798940741216e-15 -22.656 A 22.656 22.656 0 0 1 12.762579235489419 -18.71926567090318 L 5.047347720250054 -7.403099417871315 A 8.96 8.96 0 0 0 5.486417660180143e-16 -8.96 Z" fill="#e0e0e0" stroke="#111" stroke-width="1" fill-opacity="0.9"/><path d="M 5.047347720250054 -7.403099417871315 L 12.762579235489419 -18.71926567090318 A 22.656 22.656 0 0 1 21.08987564928309 -8.277166248045049 L 8.34062878785207 -3.273455578322901 A 8.96 8.96 0 0 0 5.047347720250054 -7.403099417871315 Z" fill="#004F61" stroke="#111" stroke-width="1" fill-opacity="0.9"/><path d="M 8.34062878785207 -3.273455578322901 L 26.312356161072188 -10.326838808571653 A 28.2662994841089 28.2662994841089 0 0 1 12.264287711181876 25.46705584598833 L 3.8875983024933216 8.072681056405676 A 8.96 8.96 0 0 0 8.34062878785207 -3.273455578322901 Z" fill="#7F142A" stroke="#111" stroke-width="1" fill-opacity="0.9"/><path d="M 3.8875983024933216 8.072681056405676 L 13.328908465691386 27.677763621962317 A 30.72 30.72 0 1 1 -9.054878957902964 -29.355196593750247 L -2.6410063627216984 -8.561932339843823 A 8.96 8.96 0 1 0 3.8875983024933216 8.072681056405676 Z" fill="#A0AAE5" stroke="#111" stroke-width="1" fill-opacity="0.9"/><path d="M -2.6410063627216984 -8.561932339843823 L -6.677973231453437 -21.649457487890807 A 22.656 22.656 0 0 1 1.5960730594503672e-14 -22.656 L 6.31215334245908e-15 -8.96 A 8.96 8.96 0 0 0 -2.6410063627216984 -8.561932339843823 Z" fill="#7B86C9" stroke="#111" stroke-width="1" fill-opacity="0.9"/>
    <circle r="5.76" fill="#fff" stroke="#111" stroke-width="1.5"/>
  </g>
</svg>