<?xml version="1.0" encoding="UTF-8"?>
<svg xmlns="http://www.w3.org/2000/svg" width="64" height="64" viewBox="-32 -32 64 64">
  <g>
    <path d="M 5.486417660180143e-16 -8.96 L 1.6462266885334198e-15 -26.884922080057482 A 26.884922080057482 26.884922080057482 0 0 1 12.494046269193866 -23.805416255003927 L 4.163919621512167 -7.933685989852761 A 8.96 8.96 0 0 0 5.486417660180143e-16 -8.96 Z" fill="#7F142A" stroke="#111" stroke-width="1" fill-opacity="0.9"/><path d="M 4.163919621512167 -7.933685989852761 L 13.581733283302002 -25.877830712908533 A 29.225427308847095 29.225427308847095 0 0 1 19.38004304526581 21.87554646056527 L 5.941579017837524 6.706656303613068 A 8.96 8.96 0 0 0 4.163919621512167 -7.933685989852761 Z" fill="#A0AAE5" stroke="#111" stroke-width="1" fill-opacity="0.9"/><path d="M 5.941579017837524 6.706656303613068 L 20.371128061157226 22.994250183816227 A 30.72 30.72 0 1 1 -5.643172450471003e-15 -30.72 L -1.6459252980540428e-15 -8.96 A 8.96 8.96 0 1 0 5.941579017837524 6.706656303613068 Z" fill="#51BF7E" stroke="#111" stroke-width="1" fill-opacity="0.9"/>
    <circle r="5.76" fill="#fff" stroke="#111" stroke-width="1.5"/>
  </g>
</svg>