<?xml version="1.0" encoding="UTF-8"?>
<svg xmlns="http://www.w3.org/2000/svg" width="64" height="64" viewBox="-32 -32 64 64">
  <g>
    <path d="M 5.486417660180143e-16 -8.96 L 1.3872798940741216e-15 -22.656 A 22.656 22.656 0 0 1 3.0849916019245627 -22.444980793399107 L 1.2200531759023696 -8.876546076485525 A 8.96 8.96 0 0 0 5.486417660180143e-16 -8.96 Z" fill="#004F61" stroke="#111" stroke-width="1" fill-opacity="0.9"/><path d="M 1.2200531759023696 -8.876546076485525 L 4.183039460236695 -30.43387226223608 A 30.72 30.72 0 1 1 -27.275833909320962 -14.133197959101002 L -7.955451556885282 -4.1221827380711265 A 8.96 8.96 0 1 0 1.2200531759023696 -8.876546076485525 Z" fill="#A0AAE5" stroke="#111" stroke-width="1" fill-opacity="0.9"/><path d="M -7.955451556885282 -4.1221827380711265 L -20.11592750812421 -10.423233494836989 A 22.656 22.656 0 0 1 -4.1618396822223646e-15 -22.656 L -1.6459252980540428e-15 -8.96 A 8.96 8.96 0 0 0 -7.955451556885282 -4.1221827380711265 Z" fill="#7B86C9" stroke="#111" stroke-width="1" fill-opacity="0.9"/>
    <circle r="5.76" fill="#fff" stroke="#111" stroke-width="1.5"/>
  </g>
</svg>