<?xml version="1.0" encoding="UTF-8"?>
<svg xmlns="http://www.w3.org/2000/svg" width="64" height="64" viewBox="-32 -32 64 64">
  <g>
    <path d="M 5.486417660180143e-16 -8.96 L 1.3872798940741216e-15 -22.656 A 22.656 22.656 0 0 1 12.586999199292109 -18.837775536326465 L 4.977909287855637 -7.449967726230806 A 8.96 8.96 0 0 0 5.486417660180143e-16 -8.96 Z" fill="#004F61" stroke="#111" stroke-width="1" fill-opacity="0.9"/><path d="M 4.977909287855637 -7.449967726230806 L 14.436650489215783 -21.60597431574789 A 25.985284364049814 25.985284364049814 0 0 1 21.60597431574789 -14.436650489215781 L 7.449967726230806 -4.977909287855636 A 8.96 8.96 0 0 0 4.977909287855637 -7.449967726230806 Z" fill="#A0AAE5" stroke="#111" stroke-width="1" fill-opacity="0.9"/><path d="M 7.449967726230806 -4.977909287855636 L 25.54274648993419 -17.067117558362177 A 30.72 30.72 0 1 1 -5.643172450471003e-15 -30.72 L -1.6459252980540428e-15 -8.96 A 8.96 8.96 0 1 0 7.449967726230806 -4.977909287855636 Z" fill="#7F142A" stroke="#111" stroke-width="1" fill-opacity="0.9"/>
    <circle r="5.76" fill="#fff" stroke="#111" stroke-width="1.5"/>
  </g>
</svg>