<?xml version="1.0" encoding="UTF-8"?>
<svg xmlns="http://www.w3.org/2000/svg" width="64" height="64" viewBox="-32 -32 64 64">
  <g>
    <path d="M 5.486417660180143e-16 -8.96 L 1.6331176580238788e-15 -26.670835365117828 A 26.670835365117828 26.670835365117828 0 0 1 9.63461700589841 -24.869813312987958 L 3.2367253290368914 -8.354951175463029 A 8.96 8.96 0 0 0 5.486417660180143e-16 -8.96 Z" fill="#51BF7E" stroke="#111" stroke-width="1" fill-opacity="0.9"/><path d="M 3.2367253290368914 -8.354951175463029 L 10.853548526415775 -28.016238265637813 A 30.045118108808467 30.045118108808467 0 0 1 26.895286815432573 13.39226154493218 L 8.02066309054136 3.993815667757783 A 8.96 8.96 0 0 0 3.2367253290368914 -8.354951175463029 Z" fill="#A0AAE5" stroke="#111" stroke-width="1" fill-opacity="0.9"/><path d="M 8.02066309054136 3.993815667757783 L 27.499416310427513 13.693082289455255 A 30.72 30.72 0 1 1 -5.643172450471003e-15 -30.72 L -1.6459252980540428e-15 -8.96 A 8.96 8.96 0 1 0 8.02066309054136 3.993815667757783 Z" fill="#7F142A" stroke="#111" stroke-width="1" fill-opacity="0.9"/>
    <circle r="5.76" fill="#fff" stroke="#111" stroke-width="1.5"/>
  </g>
</svg>