<?xml version="1.0" encoding="UTF-8"?>
<svg xmlns="http://www.w3.org/2000/svg" width="64" height="64" viewBox="-32 -32 64 64">
  <g>
    <path d="M 5.486417660180143e-16 -8.96 L 1.4906078001018506e-15 -24.34347276520332 A 24.34347276520332 24.34347276520332 0 0 1 3.314769113803476 -24.116736346205105 L 1.2200531759023696 -8.876546076485525 A 8.96 8.96 0 0 0 5.486417660180143e-16 -8.96 Z" fill="#51BF7E" stroke="#111" stroke-width="1" fill-opacity="0.9"/><path d="M 1.2200531759023696 -8.876546076485525 L 4.024847493382475 -29.28294022874271 A 29.558247339534617 29.558247339534617 0 0 1 18.653853551387925 22.92866619471088 L 5.654547981161435 6.950373164711601 A 8.96 8.96 0 0 0 1.2200531759023696 -8.876546076485525 Z" fill="#A0AAE5" stroke="#111" stroke-width="1" fill-opacity="0.9"/><path d="M 5.654547981161435 6.950373164711601 L 14.297928466651056 17.57451500219933 A 22.656 22.656 0 0 1 1.3872798940741216e-15 22.656 L 5.486417660180143e-16 8.96 A 8.96 8.96 0 0 0 5.654547981161435 6.950373164711601 Z" fill="#7B86C9" stroke="#111" stroke-width="1" fill-opacity="0.9"/><path d="M 5.486417660180143e-16 8.96 L 1.8810574834903343e-15 30.72 A 30.72 30.72 0 0 1 -5.643172450471003e-15 -30.72 L -1.6459252980540428e-15 -8.96 A 8.96 8.96 0 0 0 5.486417660180143e-16 8.96 Z" fill="#7F142A" stroke="#111" stroke-width="1" fill-opacity="0.9"/>
    <circle r="5.76" fill="#fff" stroke="#111" stroke-width="1.5"/>
  </g>
</svg>