<?xml version="1.0" encoding="UTF-8"?>
<svg xmlns="http://www.w3.org/2000/svg" width="64" height="64" viewBox="-32 -32 64 64">
  <g>
    <path d="M 5.486417660180143e-16 -8.96 L 1.8810574834903343e-15 -30.72 A 30.72 30.72 0 1 1 -10.23405449447601 -28.965195124564506 L -2.9849325608888364 -8.448181911331316 A 8.96 8.96 0 1 0 5.486417660180143e-16 -8.96 Z" fill="#7F142A" stroke="#111" stroke-width="1" fill-opacity="0.9"/><path d="M -2.9849325608888364 -8.448181911331316 L -8.921854630270927 -25.25130781532233 A 26.78111342770956 26.78111342770956 0 0 1 -4.526030138415394 -26.3958914911772 L -1.514247350083765 -8.83111855671547 A 8.96 8.96 0 0 0 -2.9849325608888364 -8.448181911331316 Z" fill="#A0AAE5" stroke="#111" stroke-width="1" fill-opacity="0.9"/><path d="M -1.514247350083765 -8.83111855671547 L -3.8288825852118054 -22.330114064837684 A 22.656 22.656 0 0 1 1.5960730594503672e-14 -22.656 L 6.31215334245908e-15 -8.96 A 8.96 8.96 0 0 0 -1.514247350083765 -8.83111855671547 Z" fill="#4A0D19" stroke="#111" stroke-width="1" fill-opacity="0.9"/>
    <circle r="5.76" fill="#fff" stroke="#111" stroke-width="1.5"/>
  </g>
</svg>