<?xml version="1.0" encoding="UTF-8"?>
<svg xmlns="http://www.w3.org/2000/svg" width="64" height="64" viewBox="-32 -32 64 64">
  <g>
    <path d="M 5.486417660180143e-16 -8.96 L 1.8810574834903343e-15 -30.72 A 30.72 30.72 0 0 1 2.920121650304496 -30.580897461445158 L 0.851702148005478 -8.91942842625484 A 8.96 8.96 0 0 0 5.486417660180143e-16 -8.96 Z" fill="#51BF7E" stroke="#111" stroke-width="1" fill-opacity="0.9"/><path d="M 0.851702148005478 -8.91942842625484 L 2.1535897170995657 -22.553411877815805 A 22.656 22.656 0 0 1 4.287676192229454 -22.246576565183883 L 1.6956911494692757 -8.798081127473854 A 8.96 8.96 0 0 0 0.851702148005478 -8.91942842625484 Z" fill="#4A0D19" stroke="#111" stroke-width="1" fill-opacity="0.9"/><path d="M 1.6956911494692757 -8.798081127473854 L 4.287676192229454 -22.246576565183883 A 22.656 22.656 0 1 1 -2.1535897170995586 -22.553411877815805 L -0.8517021480054752 -8.91942842625484 A 8.96 8.96 0 1 0 1.6956911494692757 -8.798081127473854 Z" fill="#7B86C9" stroke="#111" stroke-width="1" fill-opacity="0.9"/><path d="M -0.8517021480054752 -8.91942842625484 L -2.9201216503044862 -30.580897461445158 A 30.72 30.72 0 0 1 -5.643172450471003e-15 -30.72 L -1.6459252980540428e-15 -8.96 A 8.96 8.96 0 0 0 -0.8517021480054752 -8.91942842625484 Z" fill="#7F142A" stroke="#111" stroke-width="1" fill-opacity="0.9"/>
    <circle r="5.76" fill="#fff" stroke="#111" stroke-width="1.5"/>
  </g>
</svg>