<?xml version="1.0" encoding="UTF-8"?>
<svg xmlns="http://www.w3.org/2000/svg" width="64" height="64" viewBox="-32 -32 64 64">
  <g>
    <path d="M 5.486417660180143e-16 -8.96 L 1.7546179265912848e-15 -28.655085332569655 A 28.655085332569655 28.655085332569655 0 0 1 28.60660546346364 1.6661450340773483 L 8.944841098110563 0.5209776670378635 A 8.96 8.96 0 0 0 5.486417660180143e-16 -8.96 Z" fill="#A0AAE5" stroke="#111" stroke-width="1" fill-opacity="0.9"/><path d="M 8.944841098110563 0.5209776670378635 L 22.617669633793852 1.3173292437957405 A 22.656 22.656 0 0 1 16.47937722347899 15.547490547554025 L 6.517267828494517 6.148725075303853 A 8.96 8.96 0 0 0 8.944841098110563 0.5209776670378635 Z" fill="#7B86C9" stroke="#111" stroke-width="1" fill-opacity="0.9"/><path d="M 6.517267828494517 6.148725075303853 L 22.344918269124058 21.081343115327492 A 30.72 30.72 0 0 1 -30.668026622093358 1.786209144129828 L -8.944841098110563 0.5209776670378666 A 8.96 8.96 0 0 0 6.517267828494517 6.148725075303853 Z" fill="#7F142A" stroke="#111" stroke-width="1" fill-opacity="0.9"/><path d="M -8.944841098110563 0.5209776670378666 L -30.00675366930209 1.7476943805424452 A 30.05760638204503 30.05760638204503 0 0 1 -5.521492716870375e-15 -30.05760638204503 L -1.6459252980540428e-15 -8.96 A 8.96 8.96 0 0 0 -8.944841098110563 0.5209776670378666 Z" fill="#51BF7E" stroke="#111" stroke-width="1" fill-opacity="0.9"/>
    <circle r="5.76" fill="#fff" stroke="#111" stroke-width="1.5"/>
  </g>
</svg>