<?xml version="1.0" encoding="UTF-8"?>
<svg xmlns="http://www.w3.org/2000/svg" width="64" height="64" viewBox="-32 -32 64 64">
  <g>
    <path d="M 5.486417660180143e-16 -8.96 L 1.3872798940741216e-15 -22.656 A 22.656 22.656 0 0 1 22.531888061463597 2.368196863791955 L 8.91091618249973 0.9365750308781744 A 8.96 8.96 0 0 0 5.486417660180143e-16 -8.96 Z" fill="#004F61" stroke="#111" stroke-width="1" fill-opacity="0.9"/><path d="M 8.91091618249973 0.9365750308781744 L 26.345161564324943 2.7689880591690637 A 26.490278079367254 26.490278079367254 0 0 1 5.5076385057138815 25.9114019461044 L 1.862888749727127 8.764202502574898 A 8.96 8.96 0 0 0 8.91091618249973 0.9365750308781744 Z" fill="#A0AAE5" stroke="#111" stroke-width="1" fill-opacity="0.9"/><path d="M 1.862888749727127 8.764202502574898 L 6.387047141921577 30.048694294542507 A 30.72 30.72 0 1 1 -5.643172450471003e-15 -30.72 L -1.6459252980540428e-15 -8.96 A 8.96 8.96 0 1 0 1.862888749727127 8.764202502574898 Z" fill="#7F142A" stroke="#111" stroke-width="1" fill-opacity="0.9"/>
    <circle r="5.76" fill="#fff" stroke="#111" stroke-width="1.5"/>
  </g>
</svg>